<?xml version="1.0" standalone="no"?> <!DOCTYPE svg PUBLIC "-//W3C//DTD SVG 1.0//EN" "http://www.w3.org/TR/2001/REC-SVG-20010904/DTD/svg10.dtd" > <svg xmlns="http://www.w3.org/2000/svg" width="100%" height="100%">
<defs >
<font horiz-adv-x="349" ><font-face
    font-family=""
    units-per-em="1000"
    panose-1="2 11 6 3 3 2 2 11 2 4"
    ascent="698"
    descent="-90"
    alphabetic="0" />
<missing-glyph horiz-adv-x="625" />
<glyph unicode=" " glyph-name="space" horiz-adv-x="103" />
<glyph unicode="!" glyph-name="exclam" horiz-adv-x="146" d="M7 81H92L84 0H-1L7 81ZM69 678H160L77 125H31L69 678Z" />
<glyph unicode="&quot;" glyph-name="quotedbl" horiz-adv-x="227" d="M63 678H143L113 542H60L63 678ZM166 678H246L217 542H163L166 678Z" />
<glyph unicode="#" glyph-name="numbersign" horiz-adv-x="331" d="M179 225H120L81 0H25L64 225H9L16 296H77L97 410H39L47 481H109L144 678H200L165 481H224L259 678H314L280 481H335L328 410H267L247 296H304L297 225H235L196 0H140L179 225ZM133 296H192L212
410H153L133 296Z" />
<glyph unicode="$" glyph-name="dollar" horiz-adv-x="352" d="M122 -5Q55 3 27 45T5 146L15 237H94L85 141Q79 77 129 65L156 313L123 352Q100 378 85 400T62 443T50 487T50 537L52 557Q58 614 93 648T197 685L201 718H239L235 683Q300 675 327 634T348 527L342
477H265L270 534Q277 599 228 613L204 391L244 345Q265 321 280 300T304 257T316 211T316 158L313 127Q307 65 271 30T158 -7L154 -50H117L122 -5ZM232 163Q235 196 225 220T188 275L166 62Q195 65 210 83T229 133L232 163ZM129 534Q126 503 136 481T171 429L190
615Q137 612 131 548L129 534Z" />
<glyph unicode="%" glyph-name="percent" horiz-adv-x="504" d="M443 678H504L73 0H12L443 678ZM158 390Q93 390 66 427T45 523L49 565Q55 623 87 654T176 685Q241 685 267 648T288 552L283 510Q277 453 245 422T158 390ZM159 449Q185 449 196 463T211 507L217
564Q220 593 211 609T174 626Q148 626 136 612T121 568L115 511Q112 482 121 466T159 449ZM340 -7Q275 -7 248 30T227 126L232 168Q238 225 270 256T358 288Q423 288 449 251T470 155L466 113Q460 56 428 25T340 -7ZM341 52Q367 52 379 66T393 110L399 167Q402
196 393 212T357 229Q331 229 319 215T304 171L298 114Q295 85 304 69T341 52Z" />
<glyph unicode="&amp;" glyph-name="ampersand" horiz-adv-x="378" d="M135 -7Q63 -7 32 36T9 154L19 250Q24 299 49 325T117 361Q81 372 65 403T53 479L59 541Q67 612 105 648T213 685Q295 685 324 643T346 523L341 480H260L265 529Q269 571 257 591T211 612Q179
612 163 594T143 538L135 463Q131 430 145 412T196 394H375L368 325H335L301 0H235L241 62Q228 30 204 12T135 -7ZM158 66Q199 66 214 88T235 148L253 325H185Q114 325 107 256L96 148Q91 107 105 87T158 66Z" />
<glyph unicode="&apos;" glyph-name="quotesingle" horiz-adv-x="123" d="M63 678H143L113 542H60L63 678Z" />
<glyph unicode="(" glyph-name="parenleft" horiz-adv-x="215" d="M156 -90Q83 -80 46 -34T18 104L62 522Q67 568 81 600T117 653T170 684T239 698L232 638Q184 631 163 603T135 522L91 103Q85 43 100 11T162 -30L156 -90Z" />
<glyph unicode=")" glyph-name="parenright" horiz-adv-x="215" d="M-14 -30Q34 -23 56 5T83 86L127 505Q133 565 118 597T56 638L62 698Q135 688 172 642T200 504L156 86Q151 39 137 7T101 -45T48 -76T-21 -90L-14 -30Z" />
<glyph unicode="*" glyph-name="asterisk" horiz-adv-x="258" d="M156 546L116 468L64 512L133 564L49 576L78 641L145 591L133 678H203L174 590L251 632L267 565L181 562L241 503L180 464L156 546Z" />
<glyph unicode="+" glyph-name="plus" horiz-adv-x="355" d="M31 369H150L164 501H236L222 369H340L333 302H215L201 171H129L143 302H23L31 369Z" />
<glyph unicode="," glyph-name="comma" horiz-adv-x="145" d="M15 86H99V79L43 -60H-10L15 86Z" />
<glyph unicode="-" glyph-name="hyphen" horiz-adv-x="185" d="M24 350H173L166 280H17L24 350Z" />
<glyph unicode="." glyph-name="period" horiz-adv-x="146" d="M9 86H94L85 0H0L9 86Z" />
<glyph unicode="/" glyph-name="slash" horiz-adv-x="228" d="M190 698H261L34 -90H-37L190 698Z" />
<glyph unicode="0" glyph-name="zero" horiz-adv-x="374" d="M167 66Q207 66 224 91T246 153L284 520Q288 559 273 585T217 612Q178 612 160 587T138 525L100 158Q96 119 111 93T167 66ZM166 -7Q122 -7 92 7T43 45T17 104T15 179L50 519Q58 594 98 639T218 685Q262
685 292 672T341 633T366 574T369 499L334 159Q326 85 286 39T166 -7Z" />
<glyph unicode="1" glyph-name="one" horiz-adv-x="232" d="M128 550H127L38 463H37L47 561L159 678H228L157 0H70L128 550Z" />
<glyph unicode="2" glyph-name="two" horiz-adv-x="337" d="M7 117Q10 145 17 167T36 208T67 248T110 293L183 366Q199 382 210 396T229 424T241 454T248 490L254 547Q258 585 241 599T198 614Q172 614 154 598T132 545L123 462H42L52 553Q59 617 96 651T203 685Q354
685 339 540L332 478Q330 454 325 434T309 395T282 357T241 313L160 233Q144 217 132 204T112 178T98 150T91 115L86 72H287L280 0H-5L7 117Z" />
<glyph unicode="3" glyph-name="three" horiz-adv-x="354" d="M154 -7Q71 -7 36 37T8 155L17 241H97L87 150Q83 110 99 88T155 66Q192 66 207 84T226 140L238 253Q246 325 176 325H130L137 393H176Q212 393 233 410T258 462L265 533Q274 612 205 612Q170 612 153
594T132 541L124 465H44L52 541Q59 606 96 645T210 685Q289 685 322 642T348 527L341 464Q336 419 313 395T251 360Q293 349 311 317T324 233L313 134Q310 102 300 77T270 32T223 3T154 -7Z" />
<glyph unicode="4" glyph-name="four" horiz-adv-x="376" d="M210 124H1L6 179L261 678H351L300 193H348L341 124H293L280 0H197L210 124ZM218 193L253 523H252L88 193H218Z" />
<glyph unicode="5" glyph-name="five" horiz-adv-x="357" d="M157 -7Q73 -7 40 38T15 165L22 232H104L95 151Q86 66 158 66Q194 66 209 87T229 144L246 308Q251 350 234 369T188 389Q157 389 138 370T113 308L112 299H32L71 678H356L349 606H143L123 408H124Q138
434 163 446T222 459Q247 459 269 451T307 424T330 375T333 302L316 137Q309 70 271 32T157 -7Z" />
<glyph unicode="6" glyph-name="six" horiz-adv-x="368" d="M165 -7Q78 -7 42 43T15 177L51 523Q59 600 99 642T218 685Q300 685 333 644T358 527L353 483H273L278 526Q287 612 214 612Q178 612 161 590T138 528L122 371H123Q138 397 163 413T226 429Q287 429
318 387T340 256L329 149Q321 71 282 32T165 -7ZM166 65Q202 65 220 85T243 149L255 270Q264 358 191 358Q121 358 112 277L100 155Q95 111 111 88T166 65Z" />
<glyph unicode="7" glyph-name="seven" horiz-adv-x="312" d="M54 678H330L321 585L106 0H17L237 599L238 607H46L54 678Z" />
<glyph unicode="8" glyph-name="eight" horiz-adv-x="373" d="M165 -7Q120 -7 89 7T40 45T15 101T12 171L21 250Q26 301 49 334T118 381Q82 398 69 431T61 510L64 539Q72 613 111 649T220 685Q298 685 334 641T361 518L358 491Q353 443 334 415T272 374Q315 357
331 319T342 231L333 152Q329 116 318 87T287 36T237 4T165 -7ZM167 65Q206 65 223 89T246 151L256 253Q261 295 246 319T188 343Q149 343 131 318T109 255L99 155Q94 114 109 90T167 65ZM202 410Q240 410 255 431T274 487L278 530Q283 572 269 593T217 614Q182
614 167 595T146 537L142 495Q137 457 150 434T202 410Z" />
<glyph unicode="9" glyph-name="nine" horiz-adv-x="368" d="M158 -7Q75 -7 41 34T14 151L19 195H99L94 152Q85 66 162 66Q200 66 217 88T240 150L256 307H255Q240 281 215 265T155 249Q91 249 60 291T37 422L48 529Q64 685 213 685Q257 685 287 672T336 634T360
576T363 501L327 155Q319 78 279 36T158 -7ZM186 320Q257 320 266 403L278 525Q287 613 212 613Q176 613 158 593T135 529L123 408Q114 320 186 320Z" />
<glyph unicode=":" glyph-name="colon" horiz-adv-x="146" d="M9 86H94L85 0H0L9 86ZM35 338H121L112 252H27L35 338Z" />
<glyph unicode=";" glyph-name="semicolon" horiz-adv-x="146" d="M14 86H98V79L41 -60H-11L14 86ZM39 338H124L115 252H30L39 338Z" />
<glyph unicode="&lt;" glyph-name="less" horiz-adv-x="319" d="M21 308L26 355L313 489L305 411L118 331L288 251L280 174L21 308Z" />
<glyph unicode="=" glyph-name="equal" horiz-adv-x="362" d="M25 294H338L332 231H18L25 294ZM38 413H351L344 350H30L38 413Z" />
<glyph unicode="&gt;" glyph-name="greater" horiz-adv-x="319" d="M24 253L209 333L40 412L48 489L307 355L302 308L15 174L24 253Z" />
<glyph unicode="?" glyph-name="question" horiz-adv-x="328" d="M100 215Q102 239 105 255T113 286T127 313T151 345L205 410Q222 430 229 446T240 488L245 541Q250 584 234 599T190 614Q162 614 147 599T127 545L119 464H37L45 546Q60 685 192 685Q266 685 301
647T328 530L323 483Q319 445 307 421T269 369L212 301Q202 289 196 280T186 261T180 241T176 215L166 125H90L100 215ZM80 81H165L157 0H72L80 81Z" />
<glyph unicode="@" glyph-name="at" horiz-adv-x="507" d="M232 -90Q110 -90 56 -33T12 125L50 489Q56 544 77 581T129 642T201 675T284 685Q331 685 373 674T445 638T490 574T500 477L462 113Q458 78 439 56T378 34Q336 34 319 51T296 92H295Q286 66 265 50T211
34Q188 34 170 40T139 62T121 101T118 160L147 434Q150 464 160 485T185 519T218 537T254 543Q292 543 309 529T333 498H335L339 538H403L358 115Q355 78 386 78Q400 78 407 85T417 111L456 477Q461 525 450 557T415 609T357 637T283 646Q245 646 213 638T155 612T114
563T94 488L56 125Q47 40 89 -5T233 -51H387L383 -90H232ZM235 92Q280 92 286 145L315 422Q319 454 307 469T274 485Q249 485 237 471T222 426L193 151Q190 125 199 109T235 92Z" />
<glyph unicode="A" glyph-name="A" horiz-adv-x="382" d="M178 678H280L343 0H256L244 142H103L64 0H-22L178 678ZM123 214H239L213 534H212L123 214Z" />
<glyph unicode="B" glyph-name="B" horiz-adv-x="353" d="M68 678H212Q254 678 281 668T323 639T343 593T344 529L336 449Q331 405 312 383T256 350Q301 340 318 310T331 231L320 128Q312 63 277 32T167 0H-3L68 678ZM160 72Q195 72 212 86T233 132L245 244Q249
279 234 297T181 315H117L91 72H160ZM180 383Q214 383 231 397T252 444L262 535Q269 606 199 606H148L124 383H180Z" />
<glyph unicode="C" glyph-name="C" horiz-adv-x="364" d="M167 -7Q122 -7 91 7T42 47T17 106T15 179L50 516Q54 552 65 583T96 636T147 672T220 685Q265 685 294 672T340 637T362 584T363 517L355 442H273L282 523Q286 563 273 587T219 612Q179 612 162 588T139
525L101 158Q96 119 111 93T170 66Q211 66 225 88T244 148L257 272H339L326 148Q322 113 313 85T284 36T237 5T167 -7Z" />
<glyph unicode="D" glyph-name="D" horiz-adv-x="374" d="M155 72Q200 72 221 95T247 158L284 516Q288 555 272 580T209 606H148L91 72H155ZM68 678H227Q271 678 300 665T347 627T369 568T370 492L336 166Q332 129 321 99T288 46T236 12T163 0H-3L68 678Z" />
<glyph unicode="E" glyph-name="E" horiz-adv-x="311" d="M68 678H328L320 606H148L125 380H249L241 309H117L92 72H265L258 0H-3L68 678Z" />
<glyph unicode="F" glyph-name="F" horiz-adv-x="294" d="M68 678H323L315 606H148L125 380H250L242 309H117L85 0H-3L68 678Z" />
<glyph unicode="G" glyph-name="G" horiz-adv-x="376" d="M144 -7Q106 -7 79 7T37 46T16 105T15 179L50 515Q54 554 66 585T98 638T149 673T221 685Q310 685 342 638T365 510L360 462H280L287 525Q292 567 277 589T219 612Q180 612 162 588T139 522L101 158Q96
119 111 93T168 66Q206 66 223 87T246 147L260 284H191L199 354H350L312 0H246L253 66Q241 36 215 15T144 -7Z" />
<glyph unicode="H" glyph-name="H" horiz-adv-x="372" d="M258 309H117L85 0H-3L68 678H156L125 381H266L297 678H386L315 0H226L258 309Z" />
<glyph unicode="I" glyph-name="I" horiz-adv-x="142" d="M68 678H156L85 0H-3L68 678Z" />
<glyph unicode="J" glyph-name="J" horiz-adv-x="333" d="M140 -7Q97 -7 70 5T27 37T8 86T7 146L20 272H104L90 142Q86 106 98 86T142 66Q172 66 186 83T204 133L261 678H348L291 134Q284 68 249 31T140 -7Z" />
<glyph unicode="K" glyph-name="K" horiz-adv-x="358" d="M120 333L85 0H-3L68 678H156L124 372L304 678H394L204 358L324 0H232L120 333Z" />
<glyph unicode="L" glyph-name="L" horiz-adv-x="276" d="M68 678H156L92 72H241L234 0H-3L68 678Z" />
<glyph unicode="M" glyph-name="M" horiz-adv-x="447" d="M68 678H176L216 229H217L348 678H466L395 0H313L365 502H361L215 0H168L125 502H123L71 0H-3L68 678Z" />
<glyph unicode="N" glyph-name="N" horiz-adv-x="364" d="M68 678H156L255 217L304 678H378L307 0H228L123 492L72 0H-3L68 678Z" />
<glyph unicode="O" glyph-name="O" horiz-adv-x="381" d="M171 66Q212 66 230 91T253 153L291 520Q295 561 278 586T219 612Q180 612 162 587T139 525L101 158Q96 118 113 92T171 66ZM170 -7Q125 -7 94 7T43 45T17 104T15 179L50 519Q53 554 65 584T98 637T150
672T222 685Q267 685 298 672T348 633T374 574T377 499L341 159Q338 124 327 94T294 42T243 6T170 -7Z" />
<glyph unicode="P" glyph-name="P" d="M68 678H214Q299 678 329 638T353 528L337 371Q330 306 294 272T183 237H109L85 0H-3L68 678ZM174 306Q210 306 227 322T249 371L266 536Q274 606 204 606H148L116 306H174Z" />
<glyph unicode="Q" glyph-name="Q" horiz-adv-x="381" d="M314 -77L116 -37L120 3Q57 17 32 63T15 179L50 519Q53 554 65 584T98 637T150 672T222 685Q267 685 298 672T348 633T374 574T377 499L341 159Q336 105 309 64T229 6L322 -12L314 -77ZM170 63Q211 63
229 87T252 146L291 520Q295 561 278 586T219 612Q180 612 162 587T139 525L100 151Q95 113 112 88T170 63Z" />
<glyph unicode="R" glyph-name="R" horiz-adv-x="350" d="M119 329L85 0H-3L68 678H210Q295 678 327 639T351 528L341 433Q336 375 307 345T215 310L319 0H228L119 329ZM178 370Q214 370 231 386T253 434L263 536Q267 573 253 589T202 606H148L123 370H178Z" />
<glyph unicode="S" glyph-name="S" horiz-adv-x="352" d="M152 -7Q111 -7 82 4T34 36T9 85T5 146L15 237H97L88 141Q84 106 100 85T155 64Q190 64 206 82T227 133L230 163Q233 197 223 222T183 280L122 351Q99 377 84 399T60 443T49 487T49 535L51 557Q58 614
95 649T205 685Q286 685 321 643T348 527L342 477H261L267 534Q272 575 255 594T204 614Q173 614 155 599T133 549L131 535Q128 502 141 477T183 417L246 345Q267 320 282 299T305 257T317 212T317 159L313 128Q306 66 269 30T152 -7Z" />
<glyph unicode="T" glyph-name="T" horiz-adv-x="320" d="M54 678H348L340 606H237L174 0H86L149 606H46L54 678Z" />
<glyph unicode="U" glyph-name="U" horiz-adv-x="368" d="M166 -7Q76 -7 41 41T14 169L67 678H155L100 154Q96 113 111 90T168 66Q207 66 223 88T245 148L300 678H382L326 149Q319 79 282 36T166 -7Z" />
<glyph unicode="V" glyph-name="V" horiz-adv-x="375" d="M50 678H136L174 156H175L323 678H408L207 0H110L50 678Z" />
<glyph unicode="W" glyph-name="W" horiz-adv-x="525" d="M51 678H135L146 185H147L270 678H344L366 185H367L479 678H555L395 0H310L284 475H283L159 0H73L51 678Z" />
<glyph unicode="X" glyph-name="X" horiz-adv-x="374" d="M133 361L63 678H151L202 430L305 678H391L252 353L332 0H244L183 282L68 0H-18L133 361Z" />
<glyph unicode="Y" glyph-name="Y" horiz-adv-x="360" d="M135 264L50 678H140L193 384H194L307 678H392L222 257L195 0H107L135 264Z" />
<glyph unicode="Z" glyph-name="Z" horiz-adv-x="327" d="M-4 71L245 607H71L79 678H346L339 607L88 71H275L268 0H-11L-4 71Z" />
<glyph unicode="[" glyph-name="bracketleft" horiz-adv-x="208" d="M81 698H232L225 640H149L78 -32H155L149 -90H-2L81 698Z" />
<glyph unicode="\" glyph-name="backslash" horiz-adv-x="228" d="M53 698H123L186 -90H116L53 698Z" />
<glyph unicode="]" glyph-name="bracketright" horiz-adv-x="208" d="M-14 -32H63L133 640H56L62 698H213L130 -90H-21L-14 -32Z" />
<glyph unicode="^" glyph-name="asciicircum" horiz-adv-x="281" d="M162 678H195L284 484H213L171 580L109 484H37L162 678Z" />
<glyph unicode="_" glyph-name="underscore" horiz-adv-x="269" d="M-35 -34H238L232 -90H-41L-35 -34Z" />
<glyph unicode="`" glyph-name="grave" horiz-adv-x="400" d="M147 627L154 689L318 643L312 593L147 627Z" />
<glyph unicode="a" glyph-name="a" horiz-adv-x="339" d="M109 -7Q51 -7 22 29T1 139L6 181Q10 216 21 238T50 277T92 304T146 327Q199 349 220 366T245 410L246 431Q250 467 239 485T192 504Q160 504 145 487T126 434L120 378H41L48 440Q55 501 90 537T196 574Q275
574 305 535T328 424L285 0H200L204 48H202Q189 25 167 9T109 -7ZM142 61Q174 61 192 80T214 134L232 309Q228 305 224 301T211 293T191 282T159 266Q141 258 129 250T109 232T97 209T90 178L85 136Q82 99 95 80T142 61Z" />
<glyph unicode="b" glyph-name="b" horiz-adv-x="350" d="M186 -7Q140 -7 119 11T89 52H87L82 0H-3L68 678H153L135 508H136Q150 533 173 553T241 574Q293 574 321 538T341 426L310 124Q302 55 269 24T186 -7ZM156 62Q191 62 206 80T226 134L257 430Q261 465 247
484T199 504Q164 504 147 482T125 417L97 145Q88 62 156 62Z" />
<glyph unicode="c" glyph-name="c" horiz-adv-x="342" d="M156 -7Q113 -7 84 5T37 40T14 94T11 164L38 419Q46 492 87 533T199 574Q281 574 313 533T337 416L333 378H250L255 423Q259 462 246 483T197 504Q162 504 145 484T124 425L94 144Q90 106 106 85T157 63Q191
63 207 82T228 139L236 211H316L308 139Q293 -7 156 -7Z" />
<glyph unicode="d" glyph-name="d" horiz-adv-x="350" d="M112 -7Q61 -7 32 29T9 141L41 443Q49 512 83 543T166 574Q210 574 231 556T262 515H264L281 678H365L295 0H210L216 59H214Q202 34 179 14T112 -7ZM150 60Q185 60 202 83T225 150L254 422Q259 464 243
484T194 505Q161 505 145 487T125 433L94 137Q90 102 103 81T150 60Z" />
<glyph unicode="e" glyph-name="e" horiz-adv-x="351" d="M158 -7Q77 -7 40 39T12 164L39 420Q46 491 86 532T201 574Q279 574 312 532T338 414L324 278H108L95 148Q90 107 107 85T161 63Q195 63 210 83T230 143L238 211H318L311 143Q303 69 267 31T158 -7ZM249
341L258 422Q266 504 198 504Q163 504 146 484T124 425L115 341H249Z" />
<glyph unicode="f" glyph-name="f" horiz-adv-x="221" d="M43 567H83L87 599Q92 643 116 660T187 678H248L242 619H205Q187 619 180 612T171 588L169 567H236L229 502H162L110 0H25L77 502H36L43 567Z" />
<glyph unicode="g" glyph-name="g" horiz-adv-x="351" d="M161 155Q194 155 212 179T235 245L254 422Q259 464 243 484T194 505Q161 505 145 487T125 433L104 231Q100 196 113 176T161 155ZM141 -97Q61 -97 27 -59T-1 43L1 57H80L79 43Q72 -27 143 -27Q178 -27
194 -7T215 48L226 154H225Q218 142 210 130T189 109T160 94T121 88Q71 88 41 124T19 236L41 443Q49 512 83 543T167 574Q211 574 232 556T262 515H264L269 567H354L299 51Q291 -20 254 -58T141 -97Z" />
<glyph unicode="h" glyph-name="h" d="M68 678H153L135 509H136Q148 535 173 554T242 574Q293 574 320 539T338 424L294 0H209L254 426Q258 464 247 484T200 504Q165 504 147 480T125 419L82 0H-3L68 678Z" />
<glyph unicode="i" glyph-name="i" horiz-adv-x="138" d="M56 567H141L82 0H-3L56 567ZM68 678H153L145 609H61L68 678Z" />
<glyph unicode="j" glyph-name="j" horiz-adv-x="138" d="M-40 -29H-32Q-16 -29 -11 -23T-4 -3L56 567H141L81 -10Q76 -56 53 -73T-21 -90H-46L-40 -29ZM68 678H153L145 609H61L68 678Z" />
<glyph unicode="k" glyph-name="k" horiz-adv-x="326" d="M112 284L82 0H-3L68 678H153L115 316L263 567H350L192 298L293 0H205L112 284Z" />
<glyph unicode="l" glyph-name="l" horiz-adv-x="138" d="M68 678H153L82 0H-3L68 678Z" />
<glyph unicode="m" glyph-name="m" horiz-adv-x="540" d="M56 567H141L135 509H136Q148 533 170 553T236 574Q308 574 325 505H326Q338 529 364 551T435 574Q489 574 513 539T530 428L485 0H401L446 431Q449 465 439 484T396 504Q364 504 348 481T327 422L283
0H199L244 431Q248 466 237 485T195 504Q161 504 145 479T125 420L82 0H-3L56 567Z" />
<glyph unicode="n" glyph-name="n" d="M56 567H141L135 509H136Q148 535 173 554T242 574Q293 574 320 539T338 424L294 0H209L254 426Q258 464 247 484T200 504Q165 504 147 480T125 419L82 0H-3L56 567Z" />
<glyph unicode="o" glyph-name="o" horiz-adv-x="355" d="M156 -7Q74 -7 39 39T12 164L39 419Q47 494 88 534T198 574Q280 574 315 529T342 403L315 148Q307 74 267 34T156 -7ZM157 63Q191 63 208 83T230 142L260 423Q264 461 248 482T198 504Q163 504 146 484T124
425L94 144Q90 106 106 85T157 63Z" />
<glyph unicode="p" glyph-name="p" horiz-adv-x="350" d="M56 567H141L135 508H136Q150 533 173 553T241 574Q293 574 321 538T341 426L310 124Q302 55 269 24T186 -7Q140 -7 119 11T89 52H87L72 -90H-13L56 567ZM156 62Q191 62 206 80T226 134L257 430Q261 465
247 484T199 504Q164 504 147 482T125 417L97 145Q88 62 156 62Z" />
<glyph unicode="q" glyph-name="q" horiz-adv-x="350" d="M216 59H214Q202 34 179 14T112 -7Q61 -7 32 29T9 141L41 443Q49 512 83 543T166 574Q210 574 231 556T262 515H264L269 567H354L285 -90H200L216 59ZM150 60Q185 60 202 83T225 150L254 422Q259 464 243
484T194 505Q161 505 145 487T125 433L94 137Q90 102 103 81T150 60Z" />
<glyph unicode="r" glyph-name="r" horiz-adv-x="219" d="M56 567H141L134 504H136Q146 527 169 548T235 571L224 473H203Q130 473 123 397L82 0H-3L56 567Z" />
<glyph unicode="s" glyph-name="s" horiz-adv-x="323" d="M138 -7Q61 -7 27 32T1 140L7 198H85L78 135Q70 63 139 63Q173 63 187 77T206 124L208 142Q209 156 208 167T200 190T182 214T152 243L101 289Q63 321 47 355T36 438L38 452Q44 509 79 541T183 574Q260
574 290 539T314 433L310 396H233L238 438Q242 473 228 488T181 504Q149 504 134 490T117 449L115 436Q113 412 123 393T165 347L214 304Q236 284 251 267T276 232T288 192T288 144L286 125Q279 59 245 26T138 -7Z" />
<glyph unicode="t" glyph-name="t" horiz-adv-x="229" d="M41 567H83L95 678H179L167 567H241L234 502H160L119 109Q117 89 124 79T156 68H189L182 0H146Q111 0 88 7T53 29T37 67T37 121L76 502H34L41 567Z" />
<glyph unicode="u" glyph-name="u" d="M109 -7Q58 -7 29 27T9 143L53 567H138L94 141Q89 101 102 82T148 63Q183 63 200 87T222 148L266 567H350L291 0H207L213 57H212Q198 31 175 12T109 -7Z" />
<glyph unicode="v" glyph-name="v" horiz-adv-x="326" d="M31 567H116L148 141H149L272 567H353L178 0H84L31 567Z" />
<glyph unicode="w" glyph-name="w" horiz-adv-x="478" d="M34 567H116L127 175H128L238 567H302L329 175H330L423 567H501L352 0H274L251 395L139 0H62L34 567Z" />
<glyph unicode="x" glyph-name="x" horiz-adv-x="334" d="M110 304L41 567H126L176 358L268 567H350L227 295L301 0H216L161 239L58 0H-25L110 304Z" />
<glyph unicode="y" glyph-name="y" horiz-adv-x="322" d="M12 -22H47Q68 -22 76 -14T93 17L105 53H88L31 567H116L149 180H150L268 567H349L164 -8Q150 -54 125 -72T52 -90H5L12 -22Z" />
<glyph unicode="z" glyph-name="z" horiz-adv-x="294" d="M-6 68L209 499H56L63 567H304L298 499L82 68H246L240 0H-13L-6 68Z" />
<glyph unicode="{" glyph-name="braceleft" horiz-adv-x="239" d="M161 -84Q85 -84 59 -46T48 65L82 216Q89 246 80 261T35 277H20L26 337H36Q75 337 89 355T102 407L98 560Q96 637 129 667T235 698H263L257 640H233Q203 640 187 625T173 571L177 414Q179 366
161 342T104 307Q140 298 152 272T156 204L121 49Q104 -25 165 -25H187L181 -84H161Z" />
<glyph unicode="|" glyph-name="bar" horiz-adv-x="136" d="M76 698H143L60 -90H-7L76 698Z" />
<glyph unicode="}" glyph-name="braceright" horiz-adv-x="239" d="M-14 -26H9Q39 -26 55 -11T70 43L65 200Q63 248 81 272T138 307Q102 316 90 342T87 410L121 565Q139 639 78 639H55L62 698H82Q158 698 184 660T194 549L160 398Q153 368 162 353T207 337H222L216
277H207Q167 277 153 259T140 207L144 54Q146 -23 113 -53T8 -84H-21L-14 -26Z" />
<glyph unicode="~" glyph-name="asciitilde" horiz-adv-x="252" d="M10 269Q14 310 32 336T85 362Q98 362 110 358T132 350T152 341T169 337Q179 337 183 343T190 361H247Q242 321 224 295T171 269Q158 269 147 273T125 281T105 290T88 294Q70 294 67 269H10Z" />
<glyph unicode="&#xa1;" glyph-name="exclamdown" horiz-adv-x="146" d="M62 588H147L139 507H54L62 588ZM69 463H115L77 -90H-14L69 463Z" />
<glyph unicode="&#xa2;" glyph-name="cent" horiz-adv-x="342" d="M127 -5Q59 3 32 48T11 164L38 419Q45 489 83 530T188 574L194 623H232L226 572Q292 565 318 525T337 416L333 378H250L255 423Q263 489 219 501L173 64Q199 68 211 87T228 139L236 211H316L308
139Q293 -1 165 -7L161 -50H123L127 -5ZM94 144Q91 113 101 93T135 66L181 502Q155 497 141 477T124 425L94 144Z" />
<glyph unicode="&#xa3;" glyph-name="sterling" horiz-adv-x="355" d="M17 356H54L73 539Q81 615 120 650T227 685Q374 685 360 535L354 480H272L278 545Q282 583 268 598T226 614Q200 614 183 599T160 540L140 356H268L261 289H133L111 72H310L303 0H17L47 289H10L17
356Z" />
<glyph unicode="&#xa5;" glyph-name="yen" horiz-adv-x="360" d="M38 299H137L50 678H140L194 403H195L307 678H392L226 299H326L321 248H219L216 218H318L313 168H211L194 0H107L124 168H25L30 218H129L132 248H33L38 299Z" />
<glyph unicode="&#xa6;" glyph-name="brokenbar" horiz-adv-x="134" d="M32 283H98L59 -90H-7L32 283ZM76 698H142L104 341H38L76 698Z" />
<glyph unicode="&#xa7;" glyph-name="section" horiz-adv-x="391" d="M165 -97Q91 -97 56 -59T28 44L33 91H110L105 43Q101 9 116 -9T169 -27Q204 -27 217 -12T234 33L235 43Q238 71 230 90T191 129L93 194Q58 217 42 246T25 310Q25 359 52 387T120 430V431Q98
453 89 481T83 551L84 561Q90 621 127 653T227 685Q302 685 335 650T362 548L358 506H282L287 547Q294 616 227 616Q194 616 179 601T160 556L159 546Q157 524 164 506T196 472L297 404Q334 379 351 354T368 292Q368 239 343 212T273 168V167Q297 145 308 116T314
41L313 26Q307 -34 271 -65T165 -97ZM230 198Q256 208 273 224T291 273Q291 293 281 309T245 343L159 401Q133 391 118 373T102 324Q102 304 111 288T147 254L230 198Z" />
<glyph unicode="&#xa8;" glyph-name="dieresis" horiz-adv-x="400" d="M147 668H224L217 598H140L147 668ZM255 668H332L325 598H248L255 668Z" />
<glyph unicode="&#xa9;" glyph-name="copyright" horiz-adv-x="408" d="M198 194Q153 194 133 219T117 289L128 394Q133 435 154 458T218 482Q263 482 281 458T296 394L294 374H241L244 398Q247 437 216 437Q199 437 192 427T182 398L170 277Q168 260 175 249T200
238Q217 238 224 248T233 276L237 316H289L285 273Q281 236 261 215T198 194ZM194 139Q269 139 306 182T352 301L358 360Q367 441 333 490T220 539Q146 539 108 494T62 374L56 316Q48 235 82 187T194 139ZM193 115Q149 115 117 129T63 170T32 234T28 316L34 374Q43
458 90 510T221 563Q265 563 298 548T352 507T382 443T387 360L381 301Q372 217 325 166T193 115Z" />
<glyph unicode="&#xaa;" glyph-name="ordfeminine" horiz-adv-x="306" d="M117 185Q65 185 40 218T21 315L24 344Q27 374 37 393T63 426T101 450T150 471Q173 480 188 487T213 502T227 519T234 542L235 556Q238 586 229 603T189 621Q160 621 147 607T130 562L125
515H55L60 568Q65 619 97 652T192 685Q262 685 289 649T309 547L272 192H197L202 233H200Q189 213 169 199T117 185ZM146 245Q175 245 190 263T209 311L224 453Q216 445 204 437T161 415Q145 407 134 401T116 386T104 368T99 341L96 307Q89 245 146 245Z" />
<glyph unicode="&#xab;" glyph-name="guillemotleft" horiz-adv-x="267" d="M16 237L89 378H153L79 233L120 86H59L16 237ZM116 234L192 378H257L180 228L220 86H158L116 234Z" />
<glyph unicode="&#xae;" glyph-name="registered" horiz-adv-x="408" d="M209 236Q165 236 132 250T78 292T48 356T44 438L50 496Q59 580 106 632T237 685Q281 685 314 670T368 628T398 564T402 481L396 423Q388 338 341 287T209 236ZM210 260Q285 260 322 304T368
423L374 481Q383 562 349 611T236 660Q161 660 124 616T78 496L72 438Q64 357 98 309T210 260ZM199 455L185 322H136L165 603H243Q281 603 297 584T309 531L306 502Q303 476 290 464T252 447L296 322H245L199 455ZM228 478Q255 478 258 501L262 537Q265 564 236
564H210L201 478H228Z" />
<glyph unicode="&#xaf;" glyph-name="macron" horiz-adv-x="400" d="M148 658H329L323 605H143L148 658Z" />
<glyph unicode="&#xb0;" glyph-name="degree" horiz-adv-x="193" d="M126 526Q92 526 70 549T47 604Q47 637 69 659T126 682Q161 682 183 660T205 604Q205 572 183 549T126 526ZM126 567Q143 567 152 577T161 604Q161 621 152 631T126 642Q110 642 101 632T91
604Q91 588 100 578T126 567Z" />
<glyph unicode="&#xb2;" glyph-name="twosuperior" horiz-adv-x="211" d="M41 442Q44 472 56 489T94 524L134 552Q148 562 153 571T160 595L162 609Q163 637 140 637Q115 637 111 608L108 580H55L58 611Q62 644 82 663T141 682Q224 682 217 606L215 586Q213 563
204 549T171 519L124 486Q108 475 102 467T94 444V439H196L191 394H36L41 442Z" />
<glyph unicode="&#xb3;" glyph-name="threesuperior" horiz-adv-x="213" d="M120 390Q75 390 57 411T41 465L44 494H97L94 465Q92 449 98 441T121 433Q135 433 141 441T148 463L151 492Q153 507 148 514T126 522H102L107 562H126Q146 562 152 569T161 590L163
610Q164 639 138 639Q124 639 118 631T110 608L108 589H56L58 607Q62 640 79 661T140 682Q186 682 202 661T216 607L214 588Q211 554 174 544Q195 538 202 524T207 486L204 458Q201 428 184 409T120 390Z" />
<glyph unicode="&#xb4;" glyph-name="acute" horiz-adv-x="400" d="M157 645L331 689L323 625L152 593L157 645Z" />
<glyph unicode="&#xb6;" glyph-name="paragraph" horiz-adv-x="353" d="M160 293H147Q86 293 57 322T33 408L50 578Q56 631 87 654T169 678H367L296 0H234L298 617H256L192 0H130L160 293Z" />
<glyph unicode="&#xb7;" glyph-name="periodcentered" horiz-adv-x="146" d="M41 388H126L117 302H32L41 388Z" />
<glyph unicode="&#xb8;" glyph-name="cedilla" horiz-adv-x="400" d="M91 -70Q117 -69 126 -65T136 -53Q136 -43 119 -43H110L116 0H152L149 -19Q190 -22 190 -53Q190 -67 182 -75T159 -89T126 -96T88 -98L91 -70Z" />
<glyph unicode="&#xb9;" glyph-name="onesuperior" horiz-adv-x="151" d="M91 606H90L43 567H42L49 625L108 678H159L129 394H69L91 606Z" />
<glyph unicode="&#xba;" glyph-name="ordmasculine" horiz-adv-x="313" d="M154 185Q82 185 50 226T25 336L48 548Q55 614 91 649T189 685Q261 685 293 644T317 534L294 321Q287 256 253 221T154 185ZM155 248Q185 248 200 265T218 315L243 551Q247 585 233 603T188
621Q157 621 143 604T124 555L100 319Q96 285 110 267T155 248Z" />
<glyph unicode="&#xbb;" glyph-name="guillemotright" horiz-adv-x="267" d="M175 231L134 378H196L239 227L166 86H101L175 231ZM74 236L34 378H97L139 230L62 86H-2L74 236Z" />
<glyph unicode="&#xbc;" glyph-name="onequarter" horiz-adv-x="256" d="M104 44H-2L2 78L125 284H186L165 85H189L185 44H160L156 0H99L104 44ZM130 606H129L82 567H81L88 625L147 678H198L167 394H107L130 606ZM108 85L120 202H119L52 85H108ZM31 359H243L239
321H27L31 359Z" />
<glyph unicode="&#xbd;" glyph-name="onehalf" horiz-adv-x="255" d="M29 359H241L237 321H25L29 359ZM128 606H127L80 567H79L85 625L145 678H196L166 394H106L128 606ZM23 48Q27 77 39 94T77 130L117 158Q131 167 136 176T143 200L145 215Q146 243 122 243Q111
243 104 237T94 213L91 186H38L41 216Q45 250 65 269T124 288Q207 288 200 212L198 192Q196 169 187 155T154 125L106 92Q91 81 85 73T77 50V45H179L174 0H18L23 48Z" />
<glyph unicode="&#xbe;" glyph-name="threequarters" horiz-adv-x="253" d="M140 390Q95 390 77 411T62 465L65 494H117L114 465Q112 449 118 441T141 433Q156 433 161 441T168 463L171 492Q173 507 168 514T146 522H122L127 562H146Q166 562 172 569T181 590L183
610Q184 639 159 639Q144 639 138 631T130 608L128 589H76L78 607Q82 640 99 661T160 682Q206 682 222 661T236 607L234 588Q231 554 194 544Q215 538 222 524T227 486L224 458Q221 428 204 409T140 390ZM105 44H0L4 78L127 284H187L166 85H191L187 44H162L157
0H101L105 44ZM110 85L122 202H121L54 85H110ZM30 359H237L233 321H25L30 359Z" />
<glyph unicode="&#xbf;" glyph-name="questiondown" horiz-adv-x="328" d="M136 -97Q62 -97 27 -59T0 58L5 105Q9 143 21 167T59 219L117 287Q136 310 143 327T153 373L162 463H238L228 373Q226 349 223 333T215 302T201 275T177 243L123 178Q106 158 99 142T89
100L83 47Q78 4 94 -11T138 -26Q166 -26 181 -11T201 43L209 124H291L283 42Q268 -97 136 -97ZM171 588H257L248 507H163L171 588Z" />
<glyph unicode="&#xc0;" glyph-name="Agrave" horiz-adv-x="382" d="M178 678H280L343 0H256L244 142H103L64 0H-22L178 678ZM123 214H239L213 534H212L123 214ZM402 735L409 797L573 751L567 701L402 735Z" />
<glyph unicode="&#xc1;" glyph-name="Aacute" horiz-adv-x="382" d="M178 678H280L343 0H256L244 142H103L64 0H-22L178 678ZM123 214H239L213 534H212L123 214ZM157 753L331 797L323 733L152 701L157 753Z" />
<glyph unicode="&#xc2;" glyph-name="Acircumflex" horiz-adv-x="382" d="M178 678H280L343 0H256L244 142H103L64 0H-22L178 678ZM123 214H239L213 534H212L123 214ZM398 747L475 803H513L582 747L577 701L491 741L393 701L398 747Z" />
<glyph unicode="&#xc3;" glyph-name="Atilde" horiz-adv-x="382" d="M178 678H280L343 0H256L244 142H103L64 0H-22L178 678ZM123 214H239L213 534H212L123 214ZM387 708Q390 740 406 762T454 784Q478 784 495 774T527 764Q542 764 545 784H591Q588 751 572 730T524
708Q500 708 483 718T452 728Q436 728 434 708H387Z" />
<glyph unicode="&#xc4;" glyph-name="Adieresis" horiz-adv-x="382" d="M178 678H280L343 0H256L244 142H103L64 0H-22L178 678ZM123 214H239L213 534H212L123 214ZM147 776H224L217 706H140L147 776ZM255 776H332L325 706H248L255 776Z" />
<glyph unicode="&#xc5;" glyph-name="Aring" horiz-adv-x="382" d="M178 678H280L343 0H256L244 142H103L64 0H-22L178 678ZM123 214H239L213 534H212L123 214ZM493 701Q462 701 442 721T422 770Q422 799 442 819T493 839Q524 839 543 819T563 770Q563 741 544
721T493 701ZM493 737Q507 737 515 746T524 770Q524 784 516 794T493 804Q479 804 470 794T461 770Q461 756 470 747T493 737Z" />
<glyph unicode="&#xc6;" glyph-name="AE" horiz-adv-x="535" d="M237 142H111L61 0H-23L224 678H550L542 606H372L349 380H471L464 309H341L316 72H487L480 0H222L237 142ZM136 214H244L285 600H272L136 214Z" />
<glyph unicode="&#xc7;" glyph-name="Ccedilla" horiz-adv-x="364" d="M99 -70Q125 -69 134 -65T144 -53Q144 -43 127 -43H118L123 -3Q90 4 68 20T33 61T16 115T15 179L50 516Q54 552 65 583T96 636T147 672T220 685Q265 685 294 672T340 637T362 584T363 517L355
442H273L282 523Q286 563 273 587T219 612Q179 612 162 588T139 525L101 158Q96 119 111 93T170 66Q211 66 225 88T244 148L257 272H339L326 148Q322 113 313 85T284 36T237 5T167 -7H159L157 -19Q198 -22 198 -53Q198 -67 190 -75T167 -89T134 -96T96 -98L99 -70Z"
/>
<glyph unicode="&#xc8;" glyph-name="Egrave" horiz-adv-x="311" d="M68 678H328L320 606H148L125 380H249L241 309H117L92 72H265L258 0H-3L68 678ZM373 735L380 797L544 751L538 701L373 735Z" />
<glyph unicode="&#xc9;" glyph-name="Eacute" horiz-adv-x="311" d="M384 753L558 797L550 733L379 701L384 753ZM68 678H328L320 606H148L125 380H249L241 309H117L92 72H265L258 0H-3L68 678Z" />
<glyph unicode="&#xca;" glyph-name="Ecircumflex" horiz-adv-x="311" d="M367 747L444 803H482L551 747L546 701L460 741L362 701L367 747ZM68 678H328L320 606H148L125 380H249L241 309H117L92 72H265L258 0H-3L68 678Z" />
<glyph unicode="&#xcb;" glyph-name="Edieresis" horiz-adv-x="311" d="M372 776H449L442 706H365L372 776ZM480 776H557L550 706H473L480 776ZM68 678H328L320 606H148L125 380H249L241 309H117L92 72H265L258 0H-3L68 678Z" />
<glyph unicode="&#xcc;" glyph-name="Igrave" horiz-adv-x="142" d="M68 678H156L85 0H-3L68 678ZM287 735L294 797L458 751L452 701L287 735Z" />
<glyph unicode="&#xcd;" glyph-name="Iacute" horiz-adv-x="142" d="M68 678H156L85 0H-3L68 678ZM299 753L473 797L465 733L294 701L299 753Z" />
<glyph unicode="&#xce;" glyph-name="Icircumflex" horiz-adv-x="142" d="M68 678H156L85 0H-3L68 678ZM25 747L102 803H140L209 747L204 701L118 741L20 701L25 747Z" />
<glyph unicode="&#xcf;" glyph-name="Idieresis" horiz-adv-x="142" d="M68 678H156L85 0H-3L68 678ZM30 776H107L100 706H23L30 776ZM138 776H215L208 706H131L138 776Z" />
<glyph unicode="&#xd0;" glyph-name="Eth" horiz-adv-x="378" d="M10 380H40L71 678H230Q275 678 304 665T350 627T372 568T373 492L339 166Q335 129 324 99T291 46T240 12T166 0H0L32 309H2L10 380ZM158 72Q203 72 224 95T250 158L288 516Q291 555 276 580T212
606H151L127 380H218L210 309H120L95 72H158Z" />
<glyph unicode="&#xd1;" glyph-name="Ntilde" horiz-adv-x="364" d="M68 678H156L255 217L304 678H378L307 0H228L123 492L72 0H-3L68 678ZM385 708Q388 740 404 762T452 784Q476 784 493 774T525 764Q540 764 543 784H589Q586 751 570 730T522 708Q498 708 481
718T450 728Q434 728 432 708H385Z" />
<glyph unicode="&#xd2;" glyph-name="Ograve" horiz-adv-x="381" d="M171 66Q212 66 230 91T253 153L291 520Q295 561 278 586T219 612Q180 612 162 587T139 525L101 158Q96 118 113 92T171 66ZM170 -7Q125 -7 94 7T43 45T17 104T15 179L50 519Q53 554 65 584T98
637T150 672T222 685Q267 685 298 672T348 633T374 574T377 499L341 159Q338 124 327 94T294 42T243 6T170 -7ZM148 735L155 797L319 751L313 701L148 735Z" />
<glyph unicode="&#xd3;" glyph-name="Oacute" horiz-adv-x="381" d="M160 753L334 797L326 733L155 701L160 753ZM171 66Q212 66 230 91T253 153L291 520Q295 561 278 586T219 612Q180 612 162 587T139 525L101 158Q96 118 113 92T171 66ZM170 -7Q125 -7 94 7T43
45T17 104T15 179L50 519Q53 554 65 584T98 637T150 672T222 685Q267 685 298 672T348 633T374 574T377 499L341 159Q338 124 327 94T294 42T243 6T170 -7Z" />
<glyph unicode="&#xd4;" glyph-name="Ocircumflex" horiz-adv-x="381" d="M400 747L477 803H515L584 747L579 701L493 741L395 701L400 747ZM171 66Q212 66 230 91T253 153L291 520Q295 561 278 586T219 612Q180 612 162 587T139 525L101 158Q96 118 113 92T171
66ZM170 -7Q125 -7 94 7T43 45T17 104T15 179L50 519Q53 554 65 584T98 637T150 672T222 685Q267 685 298 672T348 633T374 574T377 499L341 159Q338 124 327 94T294 42T243 6T170 -7Z" />
<glyph unicode="&#xd5;" glyph-name="Otilde" horiz-adv-x="381" d="M171 66Q212 66 230 91T253 153L291 520Q295 561 278 586T219 612Q180 612 162 587T139 525L101 158Q96 118 113 92T171 66ZM170 -7Q125 -7 94 7T43 45T17 104T15 179L50 519Q53 554 65 584T98
637T150 672T222 685Q267 685 298 672T348 633T374 574T377 499L341 159Q338 124 327 94T294 42T243 6T170 -7ZM389 708Q392 740 408 762T456 784Q480 784 497 774T529 764Q544 764 547 784H593Q590 751 574 730T526 708Q502 708 485 718T454 728Q438 728 436 708H389Z"
/>
<glyph unicode="&#xd6;" glyph-name="Odieresis" horiz-adv-x="381" d="M148 776H225L218 706H141L148 776ZM256 776H333L326 706H249L256 776ZM171 66Q212 66 230 91T253 153L291 520Q295 561 278 586T219 612Q180 612 162 587T139 525L101 158Q96 118 113 92T171
66ZM170 -7Q125 -7 94 7T43 45T17 104T15 179L50 519Q53 554 65 584T98 637T150 672T222 685Q267 685 298 672T348 633T374 574T377 499L341 159Q338 124 327 94T294 42T243 6T170 -7Z" />
<glyph unicode="&#xd7;" glyph-name="multiply" horiz-adv-x="341" d="M20 236L128 336L40 437L93 485L181 384L288 483L330 435L223 336L311 235L259 187L171 287L63 188L20 236Z" />
<glyph unicode="&#xd8;" glyph-name="Oslash" horiz-adv-x="381" d="M42 47Q23 72 17 105T15 179L50 519Q53 554 65 584T98 637T150 672T222 685Q281 685 319 660L336 697H382L351 629Q368 605 374 572T377 499L341 159Q338 124 327 94T294 42T243 6T170 -7Q112
-7 75 16L58 -22H11L42 47ZM101 177L285 584Q268 614 219 614Q178 614 160 589T137 525L101 177ZM171 64Q213 64 231 89T254 153L291 496L109 91Q126 64 171 64Z" />
<glyph unicode="&#xd9;" glyph-name="Ugrave" horiz-adv-x="368" d="M166 -7Q76 -7 41 41T14 169L67 678H155L100 154Q96 113 111 90T168 66Q207 66 223 88T245 148L300 678H382L326 149Q319 79 282 36T166 -7ZM400 735L407 797L571 751L565 701L400 735Z" />
<glyph unicode="&#xda;" glyph-name="Uacute" horiz-adv-x="368" d="M412 753L586 797L578 733L407 701L412 753ZM166 -7Q76 -7 41 41T14 169L67 678H155L100 154Q96 113 111 90T168 66Q207 66 223 88T245 148L300 678H382L326 149Q319 79 282 36T166 -7Z" />
<glyph unicode="&#xdb;" glyph-name="Ucircumflex" horiz-adv-x="368" d="M395 747L472 803H510L579 747L574 701L488 741L390 701L395 747ZM166 -7Q76 -7 41 41T14 169L67 678H155L100 154Q96 113 111 90T168 66Q207 66 223 88T245 148L300 678H382L326 149Q319
79 282 36T166 -7Z" />
<glyph unicode="&#xdc;" glyph-name="Udieresis" horiz-adv-x="368" d="M400 776H477L470 706H393L400 776ZM508 776H585L578 706H501L508 776ZM166 -7Q76 -7 41 41T14 169L67 678H155L100 154Q96 113 111 90T168 66Q207 66 223 88T245 148L300 678H382L326 149Q319
79 282 36T166 -7Z" />
<glyph unicode="&#xdd;" glyph-name="Yacute" horiz-adv-x="360" d="M136 264L51 678H141L194 384H195L308 678H393L223 257L196 0H108L136 264ZM410 753L584 797L576 733L405 701L410 753Z" />
<glyph unicode="&#xde;" glyph-name="Thorn" d="M68 678H156L143 564H202Q244 564 272 554T317 524T339 477T342 414L326 272Q318 206 283 172T173 138H99L85 0H-3L68 678ZM164 206Q200 206 217 222T238 273L255 422Q263 493 192 493H136L106 206H164Z" />
<glyph unicode="&#xdf;" glyph-name="germandbls" horiz-adv-x="347" d="M54 549Q62 615 102 650T212 685Q247 685 271 678T310 658T331 628T338 593Q338 558 320 538T269 509Q312 500 326 470T335 392L308 133Q304 98 295 73T268 31T225 8T161 0H118L125 69H154Q190
69 205 85T224 136L252 404Q255 436 244 455T197 475H170L177 539H197Q226 539 243 548T261 583Q261 620 209 620Q175 620 159 603T139 547L82 0H-3L54 549Z" />
<glyph unicode="&#xe0;" glyph-name="agrave" horiz-adv-x="339" d="M109 -7Q51 -7 22 29T1 139L6 181Q10 216 21 238T50 277T92 304T146 327Q199 349 220 366T245 410L246 431Q250 467 239 485T192 504Q160 504 145 487T126 434L120 378H41L48 440Q55 501 90
537T196 574Q275 574 305 535T328 424L285 0H200L204 48H202Q189 25 167 9T109 -7ZM142 61Q174 61 192 80T214 134L232 309Q228 305 224 301T211 293T191 282T159 266Q141 258 129 250T109 232T97 209T90 178L85 136Q82 99 95 80T142 61ZM378 627L385 689L549 643L543
593L378 627Z" />
<glyph unicode="&#xe1;" glyph-name="aacute" horiz-adv-x="339" d="M109 -7Q51 -7 22 29T1 139L6 181Q10 216 21 238T50 277T92 304T146 327Q199 349 220 366T245 410L246 431Q250 467 239 485T192 504Q160 504 145 487T126 434L120 378H41L48 440Q55 501 90
537T196 574Q275 574 305 535T328 424L285 0H200L204 48H202Q189 25 167 9T109 -7ZM142 61Q174 61 192 80T214 134L232 309Q228 305 224 301T211 293T191 282T159 266Q141 258 129 250T109 232T97 209T90 178L85 136Q82 99 95 80T142 61ZM390 645L564 689L556 625L385
593L390 645Z" />
<glyph unicode="&#xe2;" glyph-name="acircumflex" horiz-adv-x="339" d="M109 -7Q51 -7 22 29T1 139L6 181Q10 216 21 238T50 277T92 304T146 327Q199 349 220 366T245 410L246 431Q250 467 239 485T192 504Q160 504 145 487T126 434L120 378H41L48 440Q55 501
90 537T196 574Q275 574 305 535T328 424L285 0H200L204 48H202Q189 25 167 9T109 -7ZM142 61Q174 61 192 80T214 134L232 309Q228 305 224 301T211 293T191 282T159 266Q141 258 129 250T109 232T97 209T90 178L85 136Q82 99 95 80T142 61ZM372 639L449 695H487L556
639L551 593L465 633L367 593L372 639Z" />
<glyph unicode="&#xe3;" glyph-name="atilde" horiz-adv-x="339" d="M109 -7Q51 -7 22 29T1 139L6 181Q10 216 21 238T50 277T92 304T146 327Q199 349 220 366T245 410L246 431Q250 467 239 485T192 504Q160 504 145 487T126 434L120 378H41L48 440Q55 501 90
537T196 574Q275 574 305 535T328 424L285 0H200L204 48H202Q189 25 167 9T109 -7ZM142 61Q174 61 192 80T214 134L232 309Q228 305 224 301T211 293T191 282T159 266Q141 258 129 250T109 232T97 209T90 178L85 136Q82 99 95 80T142 61ZM362 600Q365 632 381 654T429
676Q453 676 470 666T502 656Q517 656 520 676H566Q563 643 547 622T499 600Q475 600 458 610T427 620Q411 620 409 600H362Z" />
<glyph unicode="&#xe4;" glyph-name="adieresis" horiz-adv-x="339" d="M109 -7Q51 -7 22 29T1 139L6 181Q10 216 21 238T50 277T92 304T146 327Q199 349 220 366T245 410L246 431Q250 467 239 485T192 504Q160 504 145 487T126 434L120 378H41L48 440Q55 501
90 537T196 574Q275 574 305 535T328 424L285 0H200L204 48H202Q189 25 167 9T109 -7ZM142 61Q174 61 192 80T214 134L232 309Q228 305 224 301T211 293T191 282T159 266Q141 258 129 250T109 232T97 209T90 178L85 136Q82 99 95 80T142 61ZM377 668H454L447 598H370L377
668ZM485 668H562L555 598H478L485 668Z" />
<glyph unicode="&#xe5;" glyph-name="aring" horiz-adv-x="339" d="M109 -7Q51 -7 22 29T1 139L6 181Q10 216 21 238T50 277T92 304T146 327Q199 349 220 366T245 410L246 431Q250 467 239 485T192 504Q160 504 145 487T126 434L120 378H41L48 440Q55 501 90 537T196
574Q275 574 305 535T328 424L285 0H200L204 48H202Q189 25 167 9T109 -7ZM142 61Q174 61 192 80T214 134L232 309Q228 305 224 301T211 293T191 282T159 266Q141 258 129 250T109 232T97 209T90 178L85 136Q82 99 95 80T142 61ZM468 591Q437 591 417 611T397 660Q397
689 417 709T468 729Q499 729 518 709T538 660Q538 631 519 611T468 591ZM468 627Q482 627 490 636T499 660Q499 674 491 684T468 694Q454 694 445 684T436 660Q436 646 445 637T468 627Z" />
<glyph unicode="&#xe6;" glyph-name="ae" horiz-adv-x="557" d="M362 -7Q270 -7 242 63H240Q226 31 198 12T125 -7Q94 -7 70 2T29 30T6 76T2 142L8 201Q15 272 49 302T147 333H235L246 433Q253 504 191 504Q159 504 145 487T126 434L120 378H41L48 440Q55 504
92 539T195 574Q236 574 261 562T301 526Q321 549 348 561T410 574Q484 574 517 532T543 414L528 270H313L300 144Q296 106 313 85T364 63Q399 63 415 83T435 143L442 211H522L515 143Q507 69 471 31T362 -7ZM147 60Q179 60 195 80T215 136L229 270H164Q129 270
113 252T91 192L86 140Q82 102 95 81T147 60ZM454 333L462 425Q466 463 452 483T403 504Q368 504 351 484T330 425L320 333H454Z" />
<glyph unicode="&#xe7;" glyph-name="ccedilla" horiz-adv-x="342" d="M96 -70Q122 -69 131 -65T141 -53Q141 -43 124 -43H115L120 -4Q54 6 29 50T11 164L38 419Q46 492 87 533T199 574Q281 574 313 533T337 416L333 378H250L255 423Q259 462 246 483T197 504Q162
504 145 484T124 425L94 144Q90 106 106 85T157 63Q191 63 207 82T228 139L236 211H316L308 139Q293 -7 156 -7L154 -19Q195 -22 195 -53Q195 -67 187 -75T164 -89T131 -96T93 -98L96 -70Z" />
<glyph unicode="&#xe8;" glyph-name="egrave" horiz-adv-x="351" d="M158 -7Q77 -7 40 39T12 164L39 420Q46 491 86 532T201 574Q279 574 312 532T338 414L324 278H108L95 148Q90 107 107 85T161 63Q195 63 210 83T230 143L238 211H318L311 143Q303 69 267 31T158
-7ZM249 341L258 422Q266 504 198 504Q163 504 146 484T124 425L115 341H249ZM377 627L384 689L548 643L542 593L377 627Z" />
<glyph unicode="&#xe9;" glyph-name="eacute" horiz-adv-x="351" d="M389 645L563 689L555 625L384 593L389 645ZM158 -7Q77 -7 40 39T12 164L39 420Q46 491 86 532T201 574Q279 574 312 532T338 414L324 278H108L95 148Q90 107 107 85T161 63Q195 63 210 83T230
143L238 211H318L311 143Q303 69 267 31T158 -7ZM249 341L258 422Q266 504 198 504Q163 504 146 484T124 425L115 341H249Z" />
<glyph unicode="&#xea;" glyph-name="ecircumflex" horiz-adv-x="351" d="M372 639L449 695H487L556 639L551 593L465 633L367 593L372 639ZM158 -7Q77 -7 40 39T12 164L39 420Q46 491 86 532T201 574Q279 574 312 532T338 414L324 278H108L95 148Q90 107 107
85T161 63Q195 63 210 83T230 143L238 211H318L311 143Q303 69 267 31T158 -7ZM249 341L258 422Q266 504 198 504Q163 504 146 484T124 425L115 341H249Z" />
<glyph unicode="&#xeb;" glyph-name="edieresis" horiz-adv-x="351" d="M376 668H453L446 598H369L376 668ZM484 668H561L554 598H477L484 668ZM158 -7Q77 -7 40 39T12 164L39 420Q46 491 86 532T201 574Q279 574 312 532T338 414L324 278H108L95 148Q90 107 107
85T161 63Q195 63 210 83T230 143L238 211H318L311 143Q303 69 267 31T158 -7ZM249 341L258 422Q266 504 198 504Q163 504 146 484T124 425L115 341H249Z" />
<glyph unicode="&#xec;" glyph-name="igrave" horiz-adv-x="138" d="M34 627L41 689L171 643L165 593L34 627ZM56 567H141L82 0H-3L56 567Z" />
<glyph unicode="&#xed;" glyph-name="iacute" horiz-adv-x="138" d="M45 645L183 689L175 625L39 593L45 645ZM56 567H141L82 0H-3L56 567Z" />
<glyph unicode="&#xee;" glyph-name="icircumflex" horiz-adv-x="138" d="M32 639L91 695H130L181 639L176 593L107 633L27 593L32 639ZM56 567H141L82 0H-3L56 567Z" />
<glyph unicode="&#xef;" glyph-name="idieresis" horiz-adv-x="138" d="M31 668H96L89 598H24L31 668ZM121 668H186L179 598H114L121 668ZM56 567H141L82 0H-3L56 567Z" />
<glyph unicode="&#xf0;" glyph-name="eth" horiz-adv-x="355" d="M90 615L154 633L118 678H210L229 654L302 675L298 636L254 624L280 593Q297 572 310 553T331 512T343 465T343 409L315 148Q307 74 267 34T157 -7Q75 -7 39 39T12 164L39 419Q47 494 81 528T166
562Q190 562 206 554T233 535L211 563L179 602L86 576L90 615ZM157 63Q191 63 208 83T230 142L260 423Q264 460 248 482T197 504Q162 504 145 484T124 425L94 144Q90 106 106 85T157 63Z" />
<glyph unicode="&#xf1;" glyph-name="ntilde" d="M56 567H141L135 509H136Q148 535 173 554T242 574Q293 574 320 539T338 424L294 0H209L254 426Q258 464 247 484T200 504Q165 504 147 480T125 419L82 0H-3L56 567ZM361 600Q364 632 380 654T428 676Q452 676
469 666T501 656Q516 656 519 676H565Q562 643 546 622T498 600Q474 600 457 610T426 620Q410 620 408 600H361Z" />
<glyph unicode="&#xf2;" glyph-name="ograve" horiz-adv-x="355" d="M156 -7Q74 -7 39 39T12 164L39 419Q47 494 88 534T198 574Q280 574 315 529T342 403L315 148Q307 74 267 34T156 -7ZM157 63Q191 63 208 83T230 142L260 423Q264 461 248 482T198 504Q163 504
146 484T124 425L94 144Q90 106 106 85T157 63ZM381 627L388 689L552 643L546 593L381 627Z" />
<glyph unicode="&#xf3;" glyph-name="oacute" horiz-adv-x="355" d="M391 645L565 689L557 625L386 593L391 645ZM156 -7Q74 -7 39 39T12 164L39 419Q47 494 88 534T198 574Q280 574 315 529T342 403L315 148Q307 74 267 34T156 -7ZM157 63Q191 63 208 83T230
142L260 423Q264 461 248 482T198 504Q163 504 146 484T124 425L94 144Q90 106 106 85T157 63Z" />
<glyph unicode="&#xf4;" glyph-name="ocircumflex" horiz-adv-x="355" d="M374 639L451 695H489L558 639L553 593L467 633L369 593L374 639ZM156 -7Q74 -7 39 39T12 164L39 419Q47 494 88 534T198 574Q280 574 315 529T342 403L315 148Q307 74 267 34T156 -7ZM157
63Q191 63 208 83T230 142L260 423Q264 461 248 482T198 504Q163 504 146 484T124 425L94 144Q90 106 106 85T157 63Z" />
<glyph unicode="&#xf5;" glyph-name="otilde" horiz-adv-x="355" d="M156 -7Q74 -7 39 39T12 164L39 419Q47 494 88 534T198 574Q280 574 315 529T342 403L315 148Q307 74 267 34T156 -7ZM157 63Q191 63 208 83T230 142L260 423Q264 461 248 482T198 504Q163 504
146 484T124 425L94 144Q90 106 106 85T157 63ZM365 600Q368 632 384 654T432 676Q456 676 473 666T505 656Q520 656 523 676H569Q566 643 550 622T502 600Q478 600 461 610T430 620Q414 620 412 600H365Z" />
<glyph unicode="&#xf6;" glyph-name="odieresis" horiz-adv-x="355" d="M380 668H457L450 598H373L380 668ZM488 668H565L558 598H481L488 668ZM156 -7Q74 -7 39 39T12 164L39 419Q47 494 88 534T198 574Q280 574 315 529T342 403L315 148Q307 74 267 34T156 -7ZM157
63Q191 63 208 83T230 142L260 423Q264 461 248 482T198 504Q163 504 146 484T124 425L94 144Q90 106 106 85T157 63Z" />
<glyph unicode="&#xf7;" glyph-name="divide" horiz-adv-x="355" d="M31 369H340L333 302H23L31 369ZM132 258H217L208 172H123L132 258ZM157 499H242L233 412H148L157 499Z" />
<glyph unicode="&#xf8;" glyph-name="oslash" horiz-adv-x="355" d="M38 39Q3 82 12 164L39 419Q47 494 88 534T198 574Q225 574 247 569T286 553L302 586H347L317 525Q350 481 342 403L315 148Q307 74 267 34T156 -7Q106 -7 71 12L54 -24H8L38 39ZM93 151L252
481Q236 505 198 505Q162 505 144 484T121 425L93 151ZM157 62Q192 62 210 83T232 142L260 405L104 82Q121 62 157 62Z" />
<glyph unicode="&#xf9;" glyph-name="ugrave" d="M109 -7Q58 -7 29 27T9 143L53 567H138L94 141Q89 101 102 82T148 63Q183 63 200 87T222 148L266 567H350L291 0H207L213 57H212Q198 31 175 12T109 -7ZM378 627L385 689L549 643L543 593L378 627Z" />
<glyph unicode="&#xfa;" glyph-name="uacute" d="M388 645L562 689L554 625L383 593L388 645ZM109 -7Q58 -7 29 27T9 143L53 567H138L94 141Q89 101 102 82T148 63Q183 63 200 87T222 148L266 567H350L291 0H207L213 57H212Q198 31 175 12T109 -7Z" />
<glyph unicode="&#xfb;" glyph-name="ucircumflex" d="M373 639L450 695H488L557 639L552 593L466 633L368 593L373 639ZM109 -7Q58 -7 29 27T9 143L53 567H138L94 141Q89 101 102 82T148 63Q183 63 200 87T222 148L266 567H350L291 0H207L213 57H212Q198 31 175
12T109 -7Z" />
<glyph unicode="&#xfc;" glyph-name="udieresis" d="M377 668H454L447 598H370L377 668ZM485 668H562L555 598H478L485 668ZM109 -7Q58 -7 29 27T9 143L53 567H138L94 141Q89 101 102 82T148 63Q183 63 200 87T222 148L266 567H350L291 0H207L213 57H212Q198 31
175 12T109 -7Z" />
<glyph unicode="&#xfd;" glyph-name="yacute" horiz-adv-x="322" d="M12 -22H47Q68 -22 76 -14T93 17L105 53H88L31 567H116L149 180H150L268 567H349L164 -8Q150 -54 125 -72T52 -90H5L12 -22ZM379 645L553 689L545 625L374 593L379 645Z" />
<glyph unicode="&#xfe;" glyph-name="thorn" horiz-adv-x="350" d="M68 678H153L135 508H136Q150 533 173 553T241 574Q293 574 321 538T341 426L310 124Q302 55 269 24T186 -7Q140 -7 119 11T89 52H87L72 -90H-13L68 678ZM156 62Q191 62 206 80T226 134L257 430Q261
465 247 484T199 504Q164 504 147 482T125 417L97 145Q88 62 156 62Z" />
<glyph unicode="&#xff;" glyph-name="ydieresis" horiz-adv-x="322" d="M12 -22H47Q68 -22 76 -14T93 17L105 53H88L31 567H116L149 180H150L268 567H349L164 -8Q150 -54 125 -72T52 -90H5L12 -22ZM365 668H442L435 598H358L365 668ZM473 668H550L543 598H466L473 668Z" />
<glyph unicode="&#x100;" glyph-name="Amacron" horiz-adv-x="382" d="M178 678H280L343 0H256L244 142H103L64 0H-22L178 678ZM123 214H239L213 534H212L123 214ZM401 766H582L576 713H396L401 766Z" />
<glyph unicode="&#x101;" glyph-name="amacron" horiz-adv-x="339" d="M109 -7Q51 -7 22 29T1 139L6 181Q10 216 21 238T50 277T92 304T146 327Q199 349 220 366T245 410L246 431Q250 467 239 485T192 504Q160 504 145 487T126 434L120 378H41L48 440Q55 501 90
537T196 574Q275 574 305 535T328 424L285 0H200L204 48H202Q189 25 167 9T109 -7ZM142 61Q174 61 192 80T214 134L232 309Q228 305 224 301T211 293T191 282T159 266Q141 258 129 250T109 232T97 209T90 178L85 136Q82 99 95 80T142 61ZM376 658H557L551 605H371L376
658Z" />
<glyph unicode="&#x102;" glyph-name="Abreve" horiz-adv-x="382" d="M178 678H280L343 0H256L244 142H103L64 0H-22L178 678ZM123 214H239L213 534H212L123 214ZM494 702Q453 702 429 726T406 789H460Q460 775 469 766T495 757Q527 757 533 789H586Q581 746 556
724T494 702Z" />
<glyph unicode="&#x103;" glyph-name="abreve" horiz-adv-x="339" d="M109 -7Q51 -7 22 29T1 139L6 181Q10 216 21 238T50 277T92 304T146 327Q199 349 220 366T245 410L246 431Q250 467 239 485T192 504Q160 504 145 487T126 434L120 378H41L48 440Q55 501 90
537T196 574Q275 574 305 535T328 424L285 0H200L204 48H202Q189 25 167 9T109 -7ZM142 61Q174 61 192 80T214 134L232 309Q228 305 224 301T211 293T191 282T159 266Q141 258 129 250T109 232T97 209T90 178L85 136Q82 99 95 80T142 61ZM468 594Q427 594 403 618T380
681H434Q434 667 443 658T469 649Q501 649 507 681H560Q555 638 530 616T468 594Z" />
<glyph unicode="&#x104;" glyph-name="Aogonek" horiz-adv-x="382" d="M310 -90Q276 -90 261 -79T246 -50Q246 -30 260 -19T292 0H256L244 142H104L64 0H-22L178 678H280L343 0Q336 -6 329 -13T321 -30Q321 -39 333 -39H340L335 -90H310ZM239 214L213 534H212L123
214H239Z" />
<glyph unicode="&#x105;" glyph-name="aogonek" horiz-adv-x="339" d="M251 -90Q217 -90 202 -79T187 -50Q187 -30 202 -19T233 0H200L204 48H202Q189 25 167 9T109 -7Q51 -7 22 29T1 139L6 181Q10 216 21 238T50 277T92 304T146 327Q199 349 220 366T245 410L246
431Q250 467 239 485T192 504Q160 504 145 487T126 434L120 378H41L48 440Q55 501 90 537T196 574Q275 574 305 535T328 424L285 0Q277 -6 270 -13T262 -30Q262 -39 274 -39H282L276 -90H251ZM142 61Q174 61 192 80T214 134L232 309Q228 305 224 301T211 293T191
282T159 266Q141 258 129 250T109 232T97 209T90 178L85 136Q82 99 95 80T142 61Z" />
<glyph unicode="&#x106;" glyph-name="Cacute" horiz-adv-x="364" d="M411 753L585 797L577 733L406 701L411 753ZM167 -7Q122 -7 91 7T42 47T17 106T15 179L50 516Q54 552 65 583T96 636T147 672T220 685Q265 685 294 672T340 637T362 584T363 517L355 442H273L282
523Q286 563 273 587T219 612Q179 612 162 588T139 525L101 158Q96 119 111 93T170 66Q211 66 225 88T244 148L257 272H339L326 148Q322 113 313 85T284 36T237 5T167 -7Z" />
<glyph unicode="&#x107;" glyph-name="cacute" horiz-adv-x="342" d="M392 645L566 689L558 625L387 593L392 645ZM156 -7Q113 -7 84 5T37 40T14 94T11 164L38 419Q46 492 87 533T199 574Q281 574 313 533T337 416L333 378H250L255 423Q259 462 246 483T197 504Q162
504 145 484T124 425L94 144Q90 106 106 85T157 63Q191 63 207 82T228 139L236 211H316L308 139Q293 -7 156 -7Z" />
<glyph unicode="&#x108;" glyph-name="Ccircumflex" horiz-adv-x="364" d="M394 747L471 803H509L578 747L573 701L487 741L389 701L394 747ZM167 -7Q122 -7 91 7T42 47T17 106T15 179L50 516Q54 552 65 583T96 636T147 672T220 685Q265 685 294 672T340 637T362
584T363 517L355 442H273L282 523Q286 563 273 587T219 612Q179 612 162 588T139 525L101 158Q96 119 111 93T170 66Q211 66 225 88T244 148L257 272H339L326 148Q322 113 313 85T284 36T237 5T167 -7Z" />
<glyph unicode="&#x109;" glyph-name="ccircumflex" horiz-adv-x="342" d="M375 639L452 695H490L559 639L554 593L468 633L370 593L375 639ZM156 -7Q113 -7 84 5T37 40T14 94T11 164L38 419Q46 492 87 533T199 574Q281 574 313 533T337 416L333 378H250L255 423Q259
462 246 483T197 504Q162 504 145 484T124 425L94 144Q90 106 106 85T157 63Q191 63 207 82T228 139L236 211H316L308 139Q293 -7 156 -7Z" />
<glyph unicode="&#x10a;" glyph-name="Cdotaccent" horiz-adv-x="364" d="M167 -7Q122 -7 91 7T42 47T17 106T15 179L50 516Q54 552 65 583T96 636T147 672T220 685Q265 685 294 672T340 637T362 584T363 517L355 442H273L282 523Q286 563 273 587T219 612Q179
612 162 588T139 525L101 158Q96 119 111 93T170 66Q211 66 225 88T244 148L257 272H339L326 148Q322 113 313 85T284 36T237 5T167 -7ZM446 776H531L524 707H439L446 776Z" />
<glyph unicode="&#x10b;" glyph-name="cdotaccent" horiz-adv-x="342" d="M156 -7Q113 -7 84 5T37 40T14 94T11 164L38 419Q46 492 87 533T199 574Q281 574 313 533T337 416L333 378H250L255 423Q259 462 246 483T197 504Q162 504 145 484T124 425L94 144Q90 106
106 85T157 63Q191 63 207 82T228 139L236 211H316L308 139Q293 -7 156 -7ZM430 678H515L508 609H423L430 678Z" />
<glyph unicode="&#x10c;" glyph-name="Ccaron" horiz-adv-x="364" d="M395 757L400 803L485 764L583 803L578 757L502 701H463L395 757ZM167 -7Q122 -7 91 7T42 47T17 106T15 179L50 516Q54 552 65 583T96 636T147 672T220 685Q265 685 294 672T340 637T362 584T363
517L355 442H273L282 523Q286 563 273 587T219 612Q179 612 162 588T139 525L101 158Q96 119 111 93T170 66Q211 66 225 88T244 148L257 272H339L326 148Q322 113 313 85T284 36T237 5T167 -7Z" />
<glyph unicode="&#x10d;" glyph-name="ccaron" horiz-adv-x="342" d="M378 649L383 695L468 656L566 695L561 649L485 593H446L378 649ZM156 -7Q113 -7 84 5T37 40T14 94T11 164L38 419Q46 492 87 533T199 574Q281 574 313 533T337 416L333 378H250L255 423Q259
462 246 483T197 504Q162 504 145 484T124 425L94 144Q90 106 106 85T157 63Q191 63 207 82T228 139L236 211H316L308 139Q293 -7 156 -7Z" />
<glyph unicode="&#x10e;" glyph-name="Dcaron" horiz-adv-x="374" d="M376 757L381 803L466 764L564 803L559 757L483 701H444L376 757ZM155 72Q200 72 221 95T247 158L284 516Q288 555 272 580T209 606H148L91 72H155ZM68 678H227Q271 678 300 665T347 627T369
568T370 492L336 166Q332 129 321 99T288 46T236 12T163 0H-3L68 678Z" />
<glyph unicode="&#x10f;" glyph-name="dcaron" horiz-adv-x="350" d="M388 678H450V671L420 586H377L388 678ZM112 -7Q61 -7 32 29T9 141L41 443Q49 512 83 543T166 574Q210 574 231 556T262 515H264L281 678H365L295 0H210L216 59H214Q202 34 179 14T112 -7ZM150
60Q185 60 202 83T225 150L254 422Q259 464 243 484T194 505Q161 505 145 487T125 433L94 137Q90 102 103 81T150 60Z" />
<glyph unicode="&#x110;" glyph-name="Dcroat" horiz-adv-x="374" d="M10 380H40L71 678H230Q275 678 304 665T350 627T372 568T373 492L339 166Q335 129 324 99T291 46T240 12T166 0H0L32 309H2L10 380ZM158 72Q203 72 224 95T250 158L288 516Q291 555 276 580T212
606H151L127 380H218L210 309H120L95 72H158Z" />
<glyph unicode="&#x111;" glyph-name="dcroat" horiz-adv-x="350" d="M188 639H277L281 678H365L361 639H392L388 600H357L295 0H210L216 59H214Q202 34 179 14T112 -7Q61 -7 32 29T9 141L41 443Q49 512 83 543T166 574Q210 574 231 556T262 515H264L273 600H183L188
639ZM150 60Q185 60 202 83T225 150L254 422Q259 464 243 484T194 505Q161 505 145 487T125 433L94 137Q90 102 103 81T150 60Z" />
<glyph unicode="&#x112;" glyph-name="Emacron" horiz-adv-x="311" d="M68 678H328L320 606H148L125 380H249L241 309H117L92 72H265L258 0H-3L68 678ZM370 766H551L545 713H365L370 766Z" />
<glyph unicode="&#x113;" glyph-name="emacron" horiz-adv-x="351" d="M158 -7Q77 -7 40 39T12 164L39 420Q46 491 86 532T201 574Q279 574 312 532T338 414L324 278H108L95 148Q90 107 107 85T161 63Q195 63 210 83T230 143L238 211H318L311 143Q303 69 267 31T158
-7ZM249 341L258 422Q266 504 198 504Q163 504 146 484T124 425L115 341H249ZM376 658H557L551 605H371L376 658Z" />
<glyph unicode="&#x114;" glyph-name="Ebreve" horiz-adv-x="311" d="M68 678H328L320 606H148L125 380H249L241 309H117L92 72H265L258 0H-3L68 678ZM463 702Q422 702 398 726T375 789H429Q429 775 438 766T464 757Q496 757 502 789H555Q550 746 525 724T463 702Z" />
<glyph unicode="&#x115;" glyph-name="ebreve" horiz-adv-x="351" d="M158 -7Q77 -7 40 39T12 164L39 420Q46 491 86 532T201 574Q279 574 312 532T338 414L324 278H108L95 148Q90 107 107 85T161 63Q195 63 210 83T230 143L238 211H318L311 143Q303 69 267 31T158
-7ZM249 341L258 422Q266 504 198 504Q163 504 146 484T124 425L115 341H249ZM468 594Q427 594 403 618T380 681H434Q434 667 443 658T469 649Q501 649 507 681H560Q555 638 530 616T468 594Z" />
<glyph unicode="&#x116;" glyph-name="Edotaccent" horiz-adv-x="311" d="M68 678H328L320 606H148L125 380H249L241 309H117L92 72H265L258 0H-3L68 678ZM422 776H507L500 707H415L422 776Z" />
<glyph unicode="&#x117;" glyph-name="edotaccent" horiz-adv-x="351" d="M158 -7Q77 -7 40 39T12 164L39 420Q46 491 86 532T201 574Q279 574 312 532T338 414L324 278H108L95 148Q90 107 107 85T161 63Q195 63 210 83T230 143L238 211H318L311 143Q303 69 267
31T158 -7ZM249 341L258 422Q266 504 198 504Q163 504 146 484T124 425L115 341H249ZM428 678H513L506 609H421L428 678Z" />
<glyph unicode="&#x118;" glyph-name="Eogonek" horiz-adv-x="311" d="M68 678H328L320 606H148L125 380H249L241 309H117L92 72H265L258 0H235Q227 -6 220 -13T212 -30Q212 -39 224 -39H232L226 -90H201Q167 -90 152 -79T137 -50Q137 -31 151 -19T180 0H-3L68 678Z" />
<glyph unicode="&#x119;" glyph-name="eogonek" horiz-adv-x="351" d="M199 -90Q165 -90 150 -79T135 -50Q135 -35 145 -25T168 -7H158Q77 -7 40 39T12 164L39 420Q46 491 86 532T201 574Q279 574 312 532T338 414L324 278H108L95 148Q90 107 107 85T161 63Q195
63 210 83T230 143L238 211H318L311 143Q306 103 295 73T258 23Q244 11 227 -3T210 -30Q210 -39 222 -39H229L224 -90H199ZM249 341L258 422Q266 504 198 504Q163 504 146 484T124 425L115 341H249Z" />
<glyph unicode="&#x11a;" glyph-name="Ecaron" horiz-adv-x="311" d="M370 757L375 803L460 764L558 803L553 757L477 701H438L370 757ZM68 678H328L320 606H148L125 380H249L241 309H117L92 72H265L258 0H-3L68 678Z" />
<glyph unicode="&#x11b;" glyph-name="ecaron" horiz-adv-x="351" d="M374 649L379 695L464 656L562 695L557 649L481 593H442L374 649ZM158 -7Q77 -7 40 39T12 164L39 420Q46 491 86 532T201 574Q279 574 312 532T338 414L324 278H108L95 148Q90 107 107 85T161
63Q195 63 210 83T230 143L238 211H318L311 143Q303 69 267 31T158 -7ZM249 341L258 422Q266 504 198 504Q163 504 146 484T124 425L115 341H249Z" />
<glyph unicode="&#x11c;" glyph-name="Gcircumflex" horiz-adv-x="376" d="M396 747L473 803H511L580 747L575 701L489 741L391 701L396 747ZM144 -7Q106 -7 79 7T37 46T16 105T15 179L50 515Q54 554 66 585T98 638T149 673T221 685Q310 685 342 638T365 510L360
462H280L287 525Q292 567 277 589T219 612Q180 612 162 588T139 522L101 158Q96 119 111 93T168 66Q206 66 223 87T246 147L260 284H191L199 354H350L312 0H246L253 66Q241 36 215 15T144 -7Z" />
<glyph unicode="&#x11d;" glyph-name="gcircumflex" horiz-adv-x="351" d="M368 639L445 695H483L552 639L547 593L461 633L363 593L368 639ZM161 155Q194 155 212 179T235 245L254 422Q259 464 243 484T194 505Q161 505 145 487T125 433L104 231Q100 196 113
176T161 155ZM141 -97Q61 -97 27 -59T-1 43L1 57H80L79 43Q72 -27 143 -27Q178 -27 194 -7T215 48L226 154H225Q218 142 210 130T189 109T160 94T121 88Q71 88 41 124T19 236L41 443Q49 512 83 543T167 574Q211 574 232 556T262 515H264L269 567H354L299 51Q291
-20 254 -58T141 -97Z" />
<glyph unicode="&#x11e;" glyph-name="Gbreve" horiz-adv-x="376" d="M144 -7Q106 -7 79 7T37 46T16 105T15 179L50 515Q54 554 66 585T98 638T149 673T221 685Q310 685 342 638T365 510L360 462H280L287 525Q292 567 277 589T219 612Q180 612 162 588T139 522L101
158Q96 119 111 93T168 66Q206 66 223 87T246 147L260 284H191L199 354H350L312 0H246L253 66Q241 36 215 15T144 -7ZM488 702Q447 702 423 726T400 789H454Q454 775 463 766T489 757Q521 757 527 789H580Q575 746 550 724T488 702Z" />
<glyph unicode="&#x11f;" glyph-name="gbreve" horiz-adv-x="351" d="M161 155Q194 155 212 179T235 245L254 422Q259 464 243 484T194 505Q161 505 145 487T125 433L104 231Q100 196 113 176T161 155ZM141 -97Q61 -97 27 -59T-1 43L1 57H80L79 43Q72 -27 143
-27Q178 -27 194 -7T215 48L226 154H225Q218 142 210 130T189 109T160 94T121 88Q71 88 41 124T19 236L41 443Q49 512 83 543T167 574Q211 574 232 556T262 515H264L269 567H354L299 51Q291 -20 254 -58T141 -97ZM461 594Q420 594 396 618T373 681H427Q427 667
436 658T462 649Q494 649 500 681H553Q548 638 523 616T461 594Z" />
<glyph unicode="&#x120;" glyph-name="Gdotaccent" horiz-adv-x="376" d="M144 -7Q106 -7 79 7T37 46T16 105T15 179L50 515Q54 554 66 585T98 638T149 673T221 685Q310 685 342 638T365 510L360 462H280L287 525Q292 567 277 589T219 612Q180 612 162 588T139
522L101 158Q96 119 111 93T168 66Q206 66 223 87T246 147L260 284H191L199 354H350L312 0H246L253 66Q241 36 215 15T144 -7ZM447 776H532L525 707H440L447 776Z" />
<glyph unicode="&#x121;" glyph-name="gdotaccent" horiz-adv-x="351" d="M161 155Q194 155 212 179T235 245L254 422Q259 464 243 484T194 505Q161 505 145 487T125 433L104 231Q100 196 113 176T161 155ZM141 -97Q61 -97 27 -59T-1 43L1 57H80L79 43Q72 -27
143 -27Q178 -27 194 -7T215 48L226 154H225Q218 142 210 130T189 109T160 94T121 88Q71 88 41 124T19 236L41 443Q49 512 83 543T167 574Q211 574 232 556T262 515H264L269 567H354L299 51Q291 -20 254 -58T141 -97ZM421 678H506L499 609H414L421 678Z" />
<glyph unicode="&#x122;" glyph-name="Gcommaaccent" horiz-adv-x="376" d="M111 -21H185V-28L154 -90H99L111 -21ZM144 -7Q106 -7 79 7T37 46T16 105T15 179L50 515Q54 554 66 585T98 638T149 673T221 685Q310 685 342 638T365 510L360 462H280L287 525Q292 567
277 589T219 612Q180 612 162 588T139 522L101 158Q96 119 111 93T168 66Q206 66 223 87T246 147L260 284H191L199 354H350L312 0H246L253 66Q241 36 215 15T144 -7Z" />
<glyph unicode="&#x123;" glyph-name="gcommaaccent" horiz-adv-x="351" d="M422 603L453 665H508L496 596H422V603ZM161 155Q194 155 212 179T235 245L254 422Q259 464 243 484T194 505Q161 505 145 487T125 433L104 231Q100 196 113 176T161 155ZM141 -97Q61
-97 27 -59T-1 43L1 57H80L79 43Q72 -27 143 -27Q178 -27 194 -7T215 48L226 154H225Q218 142 210 130T189 109T160 94T121 88Q71 88 41 124T19 236L41 443Q49 512 83 543T167 574Q211 574 232 556T262 515H264L269 567H354L299 51Q291 -20 254 -58T141 -97Z" />
<glyph unicode="&#x124;" glyph-name="Hcircumflex" horiz-adv-x="372" d="M397 747L474 803H512L581 747L576 701L490 741L392 701L397 747ZM258 309H117L85 0H-3L68 678H156L125 381H266L297 678H386L315 0H226L258 309Z" />
<glyph unicode="&#x125;" glyph-name="hcircumflex" d="M386 746L463 802H501L570 746L565 700L479 740L381 700L386 746ZM68 678H153L135 509H136Q148 535 173 554T242 574Q293 574 320 539T338 424L294 0H209L254 426Q258 464 247 484T200 504Q165 504 147 480T125
419L82 0H-3L68 678Z" />
<glyph unicode="&#x126;" glyph-name="Hbar" horiz-adv-x="372" d="M22 542H53L68 678H156L141 542H282L297 678H386L371 542H402L397 488H366L315 0H226L258 309H117L85 0H-3L48 488H16L22 542ZM125 381H266L277 488H136L125 381Z" />
<glyph unicode="&#x127;" glyph-name="hbar" d="M34 639H64L68 678H153L148 639H238L234 600H144L135 509H136Q148 535 173 554T242 574Q293 574 320 539T338 424L294 0H209L254 426Q258 464 247 484T200 504Q165 504 147 480T125 419L82 0H-3L60 600H29L34 639Z" />
<glyph unicode="&#x128;" glyph-name="Itilde" horiz-adv-x="142" d="M68 678H156L85 0H-3L68 678ZM272 710Q275 742 291 764T339 786Q363 786 380 776T412 766Q427 766 430 786H476Q473 753 457 732T409 710Q385 710 368 720T337 730Q321 730 319 710H272Z" />
<glyph unicode="&#x129;" glyph-name="itilde" horiz-adv-x="138" d="M11 600Q14 634 29 655T74 676Q97 676 111 666T137 656Q152 656 154 676H200Q197 642 182 621T137 600Q114 600 99 610T73 620Q59 620 57 600H11ZM56 567H141L82 0H-3L56 567Z" />
<glyph unicode="&#x12a;" glyph-name="Imacron" horiz-adv-x="142" d="M68 678H156L85 0H-3L68 678ZM28 766H209L203 713H23L28 766Z" />
<glyph unicode="&#x12b;" glyph-name="imacron" horiz-adv-x="138" d="M39 658H177L171 605H33L39 658ZM56 567H141L82 0H-3L56 567Z" />
<glyph unicode="&#x12c;" glyph-name="Ibreve" horiz-adv-x="142" d="M68 678H156L85 0H-3L68 678ZM377 704Q336 704 312 728T289 791H343Q343 777 352 768T378 759Q410 759 416 791H469Q464 748 439 726T377 704Z" />
<glyph unicode="&#x12d;" glyph-name="ibreve" horiz-adv-x="138" d="M108 594Q70 594 50 618T32 681H84Q83 649 110 649Q122 649 129 656T139 681H189Q186 639 165 617T108 594ZM56 567H141L82 0H-3L56 567Z" />
<glyph unicode="&#x12e;" glyph-name="Iogonek" horiz-adv-x="142" d="M51 -90Q17 -90 2 -79T-13 -50Q-13 -30 2 -19T33 0H-3L68 678H156L85 0Q77 -6 70 -13T62 -30Q62 -39 74 -39H82L76 -90H51Z" />
<glyph unicode="&#x12f;" glyph-name="iogonek" horiz-adv-x="138" d="M48 -90Q14 -90 -1 -79T-16 -50Q-16 -30 -1 -19T30 0H-3L56 567H141L82 0Q74 -6 67 -13T59 -30Q59 -39 71 -39H79L73 -90H48ZM68 678H153L145 609H61L68 678Z" />
<glyph unicode="&#x130;" glyph-name="Idotaccent" horiz-adv-x="142" d="M68 678H156L85 0H-3L68 678ZM336 776H421L414 707H329L336 776Z" />
<glyph unicode="&#x131;" glyph-name="dotlessi" horiz-adv-x="138" d="M56 567H141L82 0H-3L56 567Z" />
<glyph unicode="&#x132;" glyph-name="IJ" horiz-adv-x="466" d="M68 678H156L85 0H-3L68 678ZM273 -7Q230 -7 203 5T160 37T141 86T140 146L153 272H237L223 142Q219 106 231 86T275 66Q305 66 319 83T337 133L394 678H481L424 134Q417 68 382 31T273 -7Z" />
<glyph unicode="&#x133;" glyph-name="ij" horiz-adv-x="138" d="M56 567H141L82 0H-3L56 567ZM68 678H153L145 609H61L68 678ZM98 -29H106Q122 -29 127 -23T134 -3L194 567H279L219 -10Q214 -56 191 -73T117 -90H92L98 -29ZM206 678H291L283 609H199L206 678Z" />
<glyph unicode="&#x134;" glyph-name="Jcircumflex" horiz-adv-x="333" d="M221 747L298 803H336L405 747L400 701L314 741L216 701L221 747ZM140 -7Q97 -7 70 5T27 37T8 86T7 146L20 272H104L90 142Q86 106 98 86T142 66Q172 66 186 83T204 133L261 678H348L291
134Q284 68 249 31T140 -7Z" />
<glyph unicode="&#x135;" glyph-name="jcircumflex" horiz-adv-x="138" d="M32 639L91 695H130L181 639L176 593L107 633L27 593L32 639ZM-40 -29H-32Q-16 -29 -11 -23T-4 -3L56 567H141L81 -10Q76 -56 53 -73T-21 -90H-46L-40 -29Z" />
<glyph unicode="&#x136;" glyph-name="Kcommaaccent" horiz-adv-x="358" d="M116 -21H190V-28L159 -90H104L116 -21ZM120 333L85 0H-3L68 678H156L124 372L304 678H394L204 358L324 0H232L120 333Z" />
<glyph unicode="&#x137;" glyph-name="kcommaaccent" horiz-adv-x="326" d="M353 -21H427V-28L396 -90H341L353 -21ZM112 284L82 0H-3L68 678H153L115 316L263 567H350L192 298L293 0H205L112 284Z" />
<glyph unicode="&#x139;" glyph-name="Lacute" horiz-adv-x="276" d="M301 753L475 797L467 733L296 701L301 753ZM68 678H156L92 72H241L234 0H-3L68 678Z" />
<glyph unicode="&#x13a;" glyph-name="lacute" horiz-adv-x="138" d="M49 753L223 797L215 733L44 701L49 753ZM68 678H153L82 0H-3L68 678Z" />
<glyph unicode="&#x13b;" glyph-name="Lcommaaccent" horiz-adv-x="278" d="M332 -21H406V-28L375 -90H320L332 -21ZM68 678H156L92 72H241L234 0H-3L68 678Z" />
<glyph unicode="&#x13c;" glyph-name="lcommaaccent" horiz-adv-x="138" d="M256 -21H330V-28L299 -90H244L256 -21ZM68 678H153L82 0H-3L68 678Z" />
<glyph unicode="&#x13d;" glyph-name="Lcaron" horiz-adv-x="276" d="M68 678H156L92 72H241L234 0H-3L68 678ZM204 678H269V671L233 549H189L204 678Z" />
<glyph unicode="&#x13e;" glyph-name="lcaron" horiz-adv-x="138" d="M432 678H494V671L464 586H421L432 678ZM68 678H153L82 0H-3L68 678Z" />
<glyph unicode="&#x13f;" glyph-name="Ldot" horiz-adv-x="276" d="M185 374H259L251 299H177L185 374ZM68 678H156L92 72H241L234 0H-3L68 678Z" />
<glyph unicode="&#x140;" glyph-name="ldot" horiz-adv-x="216" d="M151 379H225L217 304H143L151 379ZM68 678H153L82 0H-3L68 678Z" />
<glyph unicode="&#x141;" glyph-name="Lslash" horiz-adv-x="285" d="M3 302L37 317L75 678H162L128 359L239 409L232 342L121 292L98 71H248L241 0H4L30 250L-4 235L3 302Z" />
<glyph unicode="&#x142;" glyph-name="lslash" horiz-adv-x="145" d="M9 361L40 386L71 678H156L133 461L168 489L161 414L125 385L85 0H0L32 310L2 286L9 361Z" />
<glyph unicode="&#x143;" glyph-name="Nacute" horiz-adv-x="364" d="M412 753L586 797L578 733L407 701L412 753ZM68 678H156L255 217L304 678H378L307 0H228L123 492L72 0H-3L68 678Z" />
<glyph unicode="&#x144;" glyph-name="nacute" d="M387 645L561 689L553 625L382 593L387 645ZM56 567H141L135 509H136Q148 535 173 554T242 574Q293 574 320 539T338 424L294 0H209L254 426Q258 464 247 484T200 504Q165 504 147 480T125 419L82 0H-3L56 567Z" />
<glyph unicode="&#x145;" glyph-name="Ncommaaccent" horiz-adv-x="364" d="M115 -21H189V-28L158 -90H103L115 -21ZM68 678H156L255 217L304 678H378L307 0H228L123 492L72 0H-3L68 678Z" />
<glyph unicode="&#x146;" glyph-name="ncommaaccent" d="M107 -21H181V-28L150 -90H95L107 -21ZM56 567H141L135 509H136Q148 535 173 554T242 574Q293 574 320 539T338 424L294 0H209L254 426Q258 464 247 484T200 504Q165 504 147 480T125 419L82 0H-3L56 567Z" />
<glyph unicode="&#x147;" glyph-name="Ncaron" horiz-adv-x="364" d="M397 757L402 803L487 764L585 803L580 757L504 701H465L397 757ZM68 678H156L255 217L304 678H378L307 0H228L123 492L72 0H-3L68 678Z" />
<glyph unicode="&#x148;" glyph-name="ncaron" d="M375 649L380 695L465 656L563 695L558 649L482 593H443L375 649ZM56 567H141L135 509H136Q148 535 173 554T242 574Q293 574 320 539T338 424L294 0H209L254 426Q258 464 247 484T200 504Q165 504 147 480T125
419L82 0H-3L56 567Z" />
<glyph unicode="&#x14a;" glyph-name="Eng" horiz-adv-x="364" d="M163 -29H188Q207 -29 213 -22T222 -2L224 21L123 492L72 0H-3L68 678H156L255 217L304 678H378L306 -9Q301 -52 276 -71T194 -90H156L163 -29Z" />
<glyph unicode="&#x14b;" glyph-name="eng" d="M172 -29H180Q197 -29 202 -23T209 -3L254 426Q258 464 247 484T200 504Q165 504 147 480T125 419L82 0H-3L56 567H141L135 509H136Q148 535 173 554T242 574Q293 574 320 539T338 424L293 -10Q288 -56 265 -73T192
-90H165L172 -29Z" />
<glyph unicode="&#x14c;" glyph-name="Omacron" horiz-adv-x="381" d="M403 766H584L578 713H398L403 766ZM171 66Q212 66 230 91T253 153L291 520Q295 561 278 586T219 612Q180 612 162 587T139 525L101 158Q96 118 113 92T171 66ZM170 -7Q125 -7 94 7T43 45T17
104T15 179L50 519Q53 554 65 584T98 637T150 672T222 685Q267 685 298 672T348 633T374 574T377 499L341 159Q338 124 327 94T294 42T243 6T170 -7Z" />
<glyph unicode="&#x14d;" glyph-name="omacron" horiz-adv-x="355" d="M379 658H560L554 605H374L379 658ZM156 -7Q74 -7 39 39T12 164L39 419Q47 494 88 534T198 574Q280 574 315 529T342 403L315 148Q307 74 267 34T156 -7ZM157 63Q191 63 208 83T230 142L260
423Q264 461 248 482T198 504Q163 504 146 484T124 425L94 144Q90 106 106 85T157 63Z" />
<glyph unicode="&#x14e;" glyph-name="Obreve" horiz-adv-x="381" d="M171 66Q212 66 230 91T253 153L291 520Q295 561 278 586T219 612Q180 612 162 587T139 525L101 158Q96 118 113 92T171 66ZM170 -7Q125 -7 94 7T43 45T17 104T15 179L50 519Q53 554 65 584T98
637T150 672T222 685Q267 685 298 672T348 633T374 574T377 499L341 159Q338 124 327 94T294 42T243 6T170 -7ZM492 704Q451 704 427 728T404 791H458Q458 777 467 768T493 759Q525 759 531 791H584Q579 748 554 726T492 704Z" />
<glyph unicode="&#x14f;" glyph-name="obreve" horiz-adv-x="355" d="M156 -7Q74 -7 39 39T12 164L39 419Q47 494 88 534T198 574Q280 574 315 529T342 403L315 148Q307 74 267 34T156 -7ZM157 63Q191 63 208 83T230 142L260 423Q264 461 248 482T198 504Q163
504 146 484T124 425L94 144Q90 106 106 85T157 63ZM470 594Q429 594 405 618T382 681H436Q436 667 445 658T471 649Q503 649 509 681H562Q557 638 532 616T470 594Z" />
<glyph unicode="&#x150;" glyph-name="Ohungarumlaut" horiz-adv-x="381" d="M445 804H517L466 703H414L445 804ZM542 804H613L562 703H511L542 804ZM171 66Q212 66 230 91T253 153L291 520Q295 561 278 586T219 612Q180 612 162 587T139 525L101 158Q96 118 113
92T171 66ZM170 -7Q125 -7 94 7T43 45T17 104T15 179L50 519Q53 554 65 584T98 637T150 672T222 685Q267 685 298 672T348 633T374 574T377 499L341 159Q338 124 327 94T294 42T243 6T170 -7Z" />
<glyph unicode="&#x151;" glyph-name="ohungarumlaut" horiz-adv-x="355" d="M421 696H493L442 595H390L421 696ZM518 696H589L538 595H487L518 696ZM156 -7Q74 -7 39 39T12 164L39 419Q47 494 88 534T198 574Q280 574 315 529T342 403L315 148Q307 74 267 34T156
-7ZM157 63Q191 63 208 83T230 142L260 423Q264 461 248 482T198 504Q163 504 146 484T124 425L94 144Q90 106 106 85T157 63Z" />
<glyph unicode="&#x152;" glyph-name="OE" horiz-adv-x="553" d="M155 -7Q115 -7 87 7T41 45T17 104T15 179L50 519Q58 596 99 640T214 685Q258 685 281 669T315 630L321 678H569L561 606H389L365 380H490L482 309H358L332 72H506L499 0H250L255 46Q241 24 218
9T155 -7ZM171 66Q212 66 230 91T254 155L292 520Q296 562 279 587T220 612Q181 612 162 587T138 525L100 158Q96 118 113 92T171 66Z" />
<glyph unicode="&#x153;" glyph-name="oe" horiz-adv-x="572" d="M151 -7Q73 -7 38 39T12 164L39 419Q47 494 87 534T193 574Q238 574 267 559T311 516Q329 544 357 559T424 574Q500 574 533 532T559 414L545 278H329L315 148Q310 107 327 85T381 63Q415 63 431
83T451 143L458 211H538L531 143Q523 69 486 31T383 -7Q339 -7 311 8T268 53Q228 -7 151 -7ZM157 63Q191 63 208 83T230 142L260 423Q264 461 248 482T198 504Q163 504 146 484T124 425L94 144Q90 106 106 85T157 63ZM470 341L478 422Q487 504 418 504Q383 504
366 484T345 425L336 341H470Z" />
<glyph unicode="&#x154;" glyph-name="Racute" horiz-adv-x="350" d="M391 753L565 797L557 733L386 701L391 753ZM119 329L85 0H-3L68 678H210Q295 678 327 639T351 528L341 433Q336 375 307 345T215 310L319 0H228L119 329ZM178 370Q214 370 231 386T253 434L263
536Q267 573 253 589T202 606H148L123 370H178Z" />
<glyph unicode="&#x155;" glyph-name="racute" horiz-adv-x="219" d="M337 645L511 689L503 625L332 593L337 645ZM56 567H141L134 504H136Q146 527 169 548T235 571L224 473H203Q130 473 123 397L82 0H-3L56 567Z" />
<glyph unicode="&#x156;" glyph-name="Rcommaaccent" horiz-adv-x="350" d="M112 -21H186V-28L155 -90H100L112 -21ZM119 329L85 0H-3L68 678H210Q295 678 327 639T351 528L341 433Q336 375 307 345T215 310L319 0H228L119 329ZM178 370Q214 370 231 386T253 434L263
536Q267 573 253 589T202 606H148L123 370H178Z" />
<glyph unicode="&#x157;" glyph-name="rcommaaccent" horiz-adv-x="219" d="M255 -21H329V-28L298 -90H243L255 -21ZM56 567H141L134 504H136Q146 527 169 548T235 571L224 473H203Q130 473 123 397L82 0H-3L56 567Z" />
<glyph unicode="&#x158;" glyph-name="Rcaron" horiz-adv-x="350" d="M376 757L381 803L466 764L564 803L559 757L483 701H444L376 757ZM119 329L85 0H-3L68 678H210Q295 678 327 639T351 528L341 433Q336 375 307 345T215 310L319 0H228L119 329ZM178 370Q214
370 231 386T253 434L263 536Q267 573 253 589T202 606H148L123 370H178Z" />
<glyph unicode="&#x159;" glyph-name="rcaron" horiz-adv-x="219" d="M322 649L327 695L412 656L510 695L505 649L429 593H390L322 649ZM56 567H141L134 504H136Q146 527 169 548T235 571L224 473H203Q130 473 123 397L82 0H-3L56 567Z" />
<glyph unicode="&#x15a;" glyph-name="Sacute" horiz-adv-x="352" d="M396 753L570 797L562 733L391 701L396 753ZM152 -7Q111 -7 82 4T34 36T9 85T5 146L15 237H97L88 141Q84 106 100 85T155 64Q190 64 206 82T227 133L230 163Q233 197 223 222T183 280L122 351Q99
377 84 399T60 443T49 487T49 535L51 557Q58 614 95 649T205 685Q286 685 321 643T348 527L342 477H261L267 534Q272 575 255 594T204 614Q173 614 155 599T133 549L131 535Q128 502 141 477T183 417L246 345Q267 320 282 299T305 257T317 212T317 159L313 128Q306
66 269 30T152 -7Z" />
<glyph unicode="&#x15b;" glyph-name="sacute" horiz-adv-x="323" d="M372 645L546 689L538 625L367 593L372 645ZM138 -7Q61 -7 27 32T1 140L7 198H85L78 135Q70 63 139 63Q173 63 187 77T206 124L208 142Q209 156 208 167T200 190T182 214T152 243L101 289Q63
321 47 355T36 438L38 452Q44 509 79 541T183 574Q260 574 290 539T314 433L310 396H233L238 438Q242 473 228 488T181 504Q149 504 134 490T117 449L115 436Q113 412 123 393T165 347L214 304Q236 284 251 267T276 232T288 192T288 144L286 125Q279 59 245 26T138
-7Z" />
<glyph unicode="&#x15c;" glyph-name="Scircumflex" horiz-adv-x="352" d="M378 747L455 803H493L562 747L557 701L471 741L373 701L378 747ZM152 -7Q111 -7 82 4T34 36T9 85T5 146L15 237H97L88 141Q84 106 100 85T155 64Q190 64 206 82T227 133L230 163Q233
197 223 222T183 280L122 351Q99 377 84 399T60 443T49 487T49 535L51 557Q58 614 95 649T205 685Q286 685 321 643T348 527L342 477H261L267 534Q272 575 255 594T204 614Q173 614 155 599T133 549L131 535Q128 502 141 477T183 417L246 345Q267 320 282 299T305
257T317 212T317 159L313 128Q306 66 269 30T152 -7Z" />
<glyph unicode="&#x15d;" glyph-name="scircumflex" horiz-adv-x="323" d="M357 639L434 695H472L541 639L536 593L450 633L352 593L357 639ZM138 -7Q61 -7 27 32T1 140L7 198H85L78 135Q70 63 139 63Q173 63 187 77T206 124L208 142Q209 156 208 167T200 190T182
214T152 243L101 289Q63 321 47 355T36 438L38 452Q44 509 79 541T183 574Q260 574 290 539T314 433L310 396H233L238 438Q242 473 228 488T181 504Q149 504 134 490T117 449L115 436Q113 412 123 393T165 347L214 304Q236 284 251 267T276 232T288 192T288 144L286
125Q279 59 245 26T138 -7Z" />
<glyph unicode="&#x15e;" glyph-name="Scedilla" horiz-adv-x="352" d="M93 -70Q119 -69 128 -65T138 -53Q138 -43 121 -43H112L117 -4Q53 5 26 46T5 146L15 237H97L88 141Q84 106 100 85T155 64Q190 64 206 82T227 133L230 163Q233 197 223 222T183 280L122 351Q99
377 84 399T60 443T49 487T49 535L51 557Q58 614 95 649T205 685Q286 685 321 643T348 527L342 477H261L267 534Q272 575 255 594T204 614Q173 614 155 599T133 549L131 535Q128 502 141 477T183 417L246 345Q267 320 282 299T305 257T317 212T317 159L313 128Q306
66 269 30T153 -7L151 -19Q192 -22 192 -53Q192 -67 184 -75T161 -89T128 -96T90 -98L93 -70Z" />
<glyph unicode="&#x15f;" glyph-name="scedilla" horiz-adv-x="323" d="M83 -70Q109 -69 118 -65T128 -53Q128 -43 111 -43H102L107 -5Q47 3 21 40T1 140L7 198H85L78 135Q70 63 139 63Q173 63 187 77T206 124L208 142Q209 156 208 167T200 190T182 214T152 243L101
289Q63 321 47 355T36 438L38 452Q44 509 79 541T183 574Q260 574 290 539T314 433L310 396H233L238 438Q242 473 228 488T181 504Q149 504 134 490T117 449L115 436Q113 412 123 393T165 347L214 304Q236 284 251 267T276 232T288 192T288 144L286 125Q279 60
246 28T143 -7L141 -19Q182 -22 182 -53Q182 -67 174 -75T151 -89T118 -96T80 -98L83 -70Z" />
<glyph unicode="&#x160;" glyph-name="Scaron" horiz-adv-x="352" d="M381 757L386 803L471 764L569 803L564 757L488 701H449L381 757ZM152 -7Q111 -7 82 4T34 36T9 85T5 146L15 237H97L88 141Q84 106 100 85T155 64Q190 64 206 82T227 133L230 163Q233 197 223
222T183 280L122 351Q99 377 84 399T60 443T49 487T49 535L51 557Q58 614 95 649T205 685Q286 685 321 643T348 527L342 477H261L267 534Q272 575 255 594T204 614Q173 614 155 599T133 549L131 535Q128 502 141 477T183 417L246 345Q267 320 282 299T305 257T317
212T317 159L313 128Q306 66 269 30T152 -7Z" />
<glyph unicode="&#x161;" glyph-name="scaron" horiz-adv-x="323" d="M359 649L364 695L449 656L547 695L542 649L466 593H427L359 649ZM138 -7Q61 -7 27 32T1 140L7 198H85L78 135Q70 63 139 63Q173 63 187 77T206 124L208 142Q209 156 208 167T200 190T182 214T152
243L101 289Q63 321 47 355T36 438L38 452Q44 509 79 541T183 574Q260 574 290 539T314 433L310 396H233L238 438Q242 473 228 488T181 504Q149 504 134 490T117 449L115 436Q113 412 123 393T165 347L214 304Q236 284 251 267T276 232T288 192T288 144L286 125Q279
59 245 26T138 -7Z" />
<glyph unicode="&#x162;" glyph-name="Tcommaaccent" horiz-adv-x="317" d="M345 -21H419V-28L388 -90H333L345 -21ZM54 678H348L340 606H237L174 0H86L149 606H46L54 678Z" />
<glyph unicode="&#x163;" glyph-name="tcommaaccent" horiz-adv-x="229" d="M319 -21H393V-28L362 -90H307L319 -21ZM41 567H83L95 678H179L167 567H241L234 502H160L119 109Q117 89 124 79T156 68H189L182 0H146Q111 0 88 7T53 29T37 67T37 121L76 502H34L41 567Z" />
<glyph unicode="&#x164;" glyph-name="Tcaron" horiz-adv-x="320" d="M368 757L373 803L458 764L556 803L551 757L475 701H436L368 757ZM54 678H348L340 606H237L174 0H86L149 606H46L54 678Z" />
<glyph unicode="&#x165;" glyph-name="tcaron" horiz-adv-x="229" d="M463 678H525V671L495 586H452L463 678ZM41 567H83L95 678H179L167 567H241L234 502H160L119 109Q117 89 124 79T156 68H189L182 0H146Q111 0 88 7T53 29T37 67T37 121L76 502H34L41 567Z" />
<glyph unicode="&#x166;" glyph-name="Tbar" horiz-adv-x="320" d="M54 678H348L340 606H237L221 449H293L287 396H215L174 0H86L127 396H57L63 449H133L149 606H46L54 678Z" />
<glyph unicode="&#x167;" glyph-name="tbar" horiz-adv-x="229" d="M41 567H83L95 678H179L167 567H241L234 502H160L153 432H227L223 391H148L119 109Q117 89 124 79T156 68H189L182 0H146Q111 0 88 7T53 29T37 67T37 121L65 391H22L27 432H69L77 502H34L41 567Z" />
<glyph unicode="&#x168;" glyph-name="Utilde" horiz-adv-x="368" d="M166 -7Q76 -7 41 41T14 169L67 678H155L100 154Q96 113 111 90T168 66Q207 66 223 88T245 148L300 678H382L326 149Q319 79 282 36T166 -7ZM135 710Q138 742 154 764T202 786Q226 786 243
776T275 766Q290 766 293 786H339Q336 753 320 732T272 710Q248 710 231 720T200 730Q184 730 182 710H135Z" />
<glyph unicode="&#x169;" glyph-name="utilde" d="M109 -7Q58 -7 29 27T9 143L53 567H138L94 141Q89 101 102 82T148 63Q183 63 200 87T222 148L266 567H350L291 0H207L213 57H212Q198 31 175 12T109 -7ZM366 600Q369 632 385 654T433 676Q457 676 474 666T506
656Q521 656 524 676H570Q567 643 551 622T503 600Q479 600 462 610T431 620Q415 620 413 600H366Z" />
<glyph unicode="&#x16a;" glyph-name="Umacron" horiz-adv-x="368" d="M166 -7Q76 -7 41 41T14 169L67 678H155L100 154Q96 113 111 90T168 66Q207 66 223 88T245 148L300 678H382L326 149Q319 79 282 36T166 -7ZM399 766H580L574 713H394L399 766Z" />
<glyph unicode="&#x16b;" glyph-name="umacron" d="M109 -7Q58 -7 29 27T9 143L53 567H138L94 141Q89 101 102 82T148 63Q183 63 200 87T222 148L266 567H350L291 0H207L213 57H212Q198 31 175 12T109 -7ZM376 658H557L551 605H371L376 658Z" />
<glyph unicode="&#x16c;" glyph-name="Ubreve" horiz-adv-x="368" d="M166 -7Q76 -7 41 41T14 169L67 678H155L100 154Q96 113 111 90T168 66Q207 66 223 88T245 148L300 678H382L326 149Q319 79 282 36T166 -7ZM489 702Q448 702 424 726T401 789H455Q455 775
464 766T490 757Q522 757 528 789H581Q576 746 551 724T489 702Z" />
<glyph unicode="&#x16d;" glyph-name="ubreve" d="M109 -7Q58 -7 29 27T9 143L53 567H138L94 141Q89 101 102 82T148 63Q183 63 200 87T222 148L266 567H350L291 0H207L213 57H212Q198 31 175 12T109 -7ZM467 594Q426 594 402 618T379 681H433Q433 667 442 658T468
649Q500 649 506 681H559Q554 638 529 616T467 594Z" />
<glyph unicode="&#x16e;" glyph-name="Uring" horiz-adv-x="368" d="M487 677Q456 677 436 697T416 746Q416 775 436 795T487 815Q518 815 537 795T557 746Q557 717 538 697T487 677ZM487 713Q501 713 509 722T518 746Q518 760 510 770T487 780Q473 780 464 770T455
746Q455 732 464 723T487 713ZM166 -7Q76 -7 41 41T14 169L67 678H155L100 154Q96 113 111 90T168 66Q207 66 223 88T245 148L300 678H382L326 149Q319 79 282 36T166 -7Z" />
<glyph unicode="&#x16f;" glyph-name="uring" d="M466 591Q435 591 415 611T395 660Q395 689 415 709T466 729Q497 729 516 709T536 660Q536 631 517 611T466 591ZM466 627Q480 627 488 636T497 660Q497 674 489 684T466 694Q452 694 443 684T434 660Q434 646
443 637T466 627ZM109 -7Q58 -7 29 27T9 143L53 567H138L94 141Q89 101 102 82T148 63Q183 63 200 87T222 148L266 567H350L291 0H207L213 57H212Q198 31 175 12T109 -7Z" />
<glyph unicode="&#x170;" glyph-name="Uhungarumlaut" horiz-adv-x="368" d="M166 -7Q76 -7 41 41T14 169L67 678H155L100 154Q96 113 111 90T168 66Q207 66 223 88T245 148L300 678H382L326 149Q319 79 282 36T166 -7ZM440 804H512L461 703H409L440 804ZM537
804H608L557 703H506L537 804Z" />
<glyph unicode="&#x171;" glyph-name="uhungarumlaut" d="M109 -7Q58 -7 29 27T9 143L53 567H138L94 141Q89 101 102 82T148 63Q183 63 200 87T222 148L266 567H350L291 0H207L213 57H212Q198 31 175 12T109 -7ZM418 696H490L439 595H387L418 696ZM515 696H586L535
595H484L515 696Z" />
<glyph unicode="&#x172;" glyph-name="Uogonek" horiz-adv-x="368" d="M192 -90Q158 -90 143 -79T128 -50Q128 -35 137 -25T158 -7H157Q114 -6 85 7T38 44T15 99T14 169L67 678H155L100 154Q96 113 111 90T168 66Q207 66 223 88T245 148L300 678H382L326 149Q321
100 303 65T245 9Q233 3 218 -7T203 -30Q203 -39 215 -39H223L217 -90H192Z" />
<glyph unicode="&#x173;" glyph-name="uogonek" d="M258 -90Q224 -90 209 -79T194 -50Q194 -30 208 -19T240 0H207L213 57H212Q198 31 175 12T109 -7Q58 -7 29 27T9 143L53 567H138L94 141Q89 101 102 82T148 63Q183 63 200 87T222 148L266 567H350L291 0Q284
-6 277 -13T269 -30Q269 -39 281 -39H288L283 -90H258Z" />
<glyph unicode="&#x174;" glyph-name="Wcircumflex" horiz-adv-x="525" d="M220 749L297 805H335L404 749L399 703L313 743L215 703L220 749ZM51 678H135L146 185H147L270 678H344L366 185H367L479 678H555L395 0H310L284 475H283L159 0H73L51 678Z" />
<glyph unicode="&#x175;" glyph-name="wcircumflex" horiz-adv-x="478" d="M181 639L258 695H296L365 639L360 593L274 633L176 593L181 639ZM34 567H116L127 175H128L238 567H302L329 175H330L423 567H501L352 0H274L251 395L139 0H62L34 567Z" />
<glyph unicode="&#x176;" glyph-name="Ycircumflex" horiz-adv-x="360" d="M135 264L50 678H140L193 384H194L307 678H392L222 257L195 0H107L135 264ZM391 749L468 805H506L575 749L570 703L484 743L386 703L391 749Z" />
<glyph unicode="&#x177;" glyph-name="ycircumflex" horiz-adv-x="322" d="M12 -22H47Q68 -22 76 -14T93 17L105 53H88L31 567H116L149 180H150L268 567H349L164 -8Q150 -54 125 -72T52 -90H5L12 -22ZM364 639L441 695H479L548 639L543 593L457 633L359 593L364 639Z" />
<glyph unicode="&#x178;" glyph-name="Ydieresis" horiz-adv-x="360" d="M135 264L50 678H140L193 384H194L307 678H392L222 257L195 0H107L135 264ZM396 776H473L466 706H389L396 776ZM504 776H581L574 706H497L504 776Z" />
<glyph unicode="&#x179;" glyph-name="Zacute" horiz-adv-x="327" d="M398 753L572 797L564 733L393 701L398 753ZM-4 71L245 607H71L79 678H346L339 607L88 71H275L268 0H-11L-4 71Z" />
<glyph unicode="&#x17a;" glyph-name="zacute" horiz-adv-x="294" d="M373 645L547 689L539 625L368 593L373 645ZM-6 68L209 499H56L63 567H304L298 499L82 68H246L240 0H-13L-6 68Z" />
<glyph unicode="&#x17b;" glyph-name="Zdotaccent" horiz-adv-x="327" d="M-4 71L245 607H71L79 678H346L339 607L88 71H275L268 0H-11L-4 71ZM435 776H520L513 707H428L435 776Z" />
<glyph unicode="&#x17c;" glyph-name="zdotaccent" horiz-adv-x="294" d="M-6 68L209 499H56L63 567H304L298 499L82 68H246L240 0H-13L-6 68ZM411 678H496L489 609H404L411 678Z" />
<glyph unicode="&#x17d;" glyph-name="Zcaron" horiz-adv-x="327" d="M383 757L388 803L473 764L571 803L566 757L490 701H451L383 757ZM-4 71L245 607H71L79 678H346L339 607L88 71H275L268 0H-11L-4 71Z" />
<glyph unicode="&#x17e;" glyph-name="zcaron" horiz-adv-x="294" d="M358 649L363 695L448 656L546 695L541 649L465 593H426L358 649ZM-6 68L209 499H56L63 567H304L298 499L82 68H246L240 0H-13L-6 68Z" />
<glyph unicode="&#x192;" glyph-name="florin" horiz-adv-x="246" d="M27 433H84L107 590Q114 637 138 657T217 678H267L260 612H229Q209 612 201 604T190 579L168 433H244L237 367H158L91 -90H7L74 367H21L27 433Z" />
<glyph unicode="&#x218;" glyph-name="Scommaaccent" horiz-adv-x="351" d="M108 -21H182V-28L151 -90H96L108 -21ZM152 -7Q111 -7 82 4T34 36T9 85T5 146L15 237H97L88 141Q84 106 100 85T155 64Q190 64 206 82T227 133L230 163Q233 197 223 222T183 280L122
351Q99 377 84 399T60 443T49 487T49 535L51 557Q58 614 95 649T205 685Q286 685 321 643T348 527L342 477H261L267 534Q272 575 255 594T204 614Q173 614 155 599T133 549L131 535Q128 502 141 477T183 417L246 345Q267 320 282 299T305 257T317 212T317 159L313
128Q306 66 269 30T152 -7Z" />
<glyph unicode="&#x219;" glyph-name="scommaaccent" horiz-adv-x="323" d="M351 -21H425V-28L394 -90H339L351 -21ZM138 -7Q61 -7 27 32T1 140L7 198H85L78 135Q70 63 139 63Q173 63 187 77T206 124L208 142Q209 156 208 167T200 190T182 214T152 243L101 289Q63
321 47 355T36 438L38 452Q44 509 79 541T183 574Q260 574 290 539T314 433L310 396H233L238 438Q242 473 228 488T181 504Q149 504 134 490T117 449L115 436Q113 412 123 393T165 347L214 304Q236 284 251 267T276 232T288 192T288 144L286 125Q279 59 245 26T138
-7Z" />
<glyph unicode="&#x21a;" glyph-name="uni021A" horiz-adv-x="317" d="M345 -21H419V-28L388 -90H333L345 -21ZM54 678H348L340 606H237L174 0H86L149 606H46L54 678Z" />
<glyph unicode="&#x21b;" glyph-name="uni021B" horiz-adv-x="229" d="M319 -21H393V-28L362 -90H307L319 -21ZM41 567H83L95 678H179L167 567H241L234 502H160L119 109Q117 89 124 79T156 68H189L182 0H146Q111 0 88 7T53 29T37 67T37 121L76 502H34L41 567Z" />
<glyph unicode="&#x237;" glyph-name="uni0237" horiz-adv-x="138" d="M-40 -29H-32Q-16 -29 -11 -23T-4 -3L56 567H141L81 -10Q76 -56 53 -73T-21 -90H-46L-40 -29Z" />
<glyph unicode="&#x2c6;" glyph-name="circumflex" horiz-adv-x="400" d="M145 639L222 695H260L329 639L324 593L238 633L140 593L145 639Z" />
<glyph unicode="&#x2c7;" glyph-name="caron" horiz-adv-x="400" d="M146 649L151 695L236 656L334 695L329 649L253 593H214L146 649Z" />
<glyph unicode="&#x2d8;" glyph-name="breve" horiz-adv-x="400" d="M239 594Q198 594 174 618T151 681H205Q205 667 214 658T240 649Q272 649 278 681H331Q326 638 301 616T239 594Z" />
<glyph unicode="&#x2d9;" glyph-name="dotaccent" horiz-adv-x="400" d="M198 678H283L276 609H191L198 678Z" />
<glyph unicode="&#x2da;" glyph-name="ring" horiz-adv-x="400" d="M238 591Q207 591 187 611T167 660Q167 689 187 709T238 729Q269 729 288 709T308 660Q308 631 289 611T238 591ZM238 627Q252 627 260 636T269 660Q269 674 261 684T238 694Q224 694 215 684T206
660Q206 646 215 637T238 627Z" />
<glyph unicode="&#x2db;" glyph-name="ogonek" horiz-adv-x="400" d="M173 -90Q139 -90 124 -79T109 -50Q109 -30 124 -19T155 0H206Q199 -6 192 -13T184 -30Q184 -39 196 -39H203L198 -90H173Z" />
<glyph unicode="&#x2dc;" glyph-name="tilde" horiz-adv-x="400" d="M134 600Q137 632 153 654T201 676Q225 676 242 666T274 656Q289 656 292 676H338Q335 643 319 622T271 600Q247 600 230 610T199 620Q183 620 181 600H134Z" />
<glyph unicode="&#x2dd;" glyph-name="hungarumlaut" horiz-adv-x="400" d="M202 696H274L223 595H171L202 696ZM299 696H370L319 595H268L299 696Z" />
</font>
</defs>
</svg>
