<?xml version="1.0" standalone="no"?> <!DOCTYPE svg PUBLIC "-//W3C//DTD SVG 1.0//EN" "http://www.w3.org/TR/2001/REC-SVG-20010904/DTD/svg10.dtd" > <svg xmlns="http://www.w3.org/2000/svg" width="100%" height="100%">
<defs >
<font horiz-adv-x="316" ><font-face
    font-family=""
    units-per-em="1000"
    panose-1="2 11 3 3 3 2 2 11 2 4"
    ascent="910"
    descent="-90"
    alphabetic="0" />
<missing-glyph horiz-adv-x="625" />
<glyph unicode=" " glyph-name="space" horiz-adv-x="132" />
<glyph unicode="!" glyph-name="exclam" horiz-adv-x="96" d="M8 34H34L31 0H5L8 34ZM76 678H103L36 97H19L76 678Z" />
<glyph unicode="&quot;" glyph-name="quotedbl" horiz-adv-x="142" d="M70 678H95L81 577H62L70 678ZM128 678H154L139 577H121L128 678Z" />
<glyph unicode="#" glyph-name="numbersign" horiz-adv-x="291" d="M177 248H90L47 0H26L69 248H11L13 271H73L102 433H42L45 456H106L145 678H166L127 456H214L253 678H274L235 456H292L290 433H231L203 271H261L258 248H199L156 0H134L177 248ZM94 271H181L210
433H123L94 271Z" />
<glyph unicode="$" glyph-name="dollar" horiz-adv-x="318" d="M130 375Q88 422 70 460T57 548L60 573Q66 629 101 656T190 683L194 718H215L211 682Q265 677 292 643T313 553L305 477H280L288 555Q293 602 272 628T208 660L177 363L207 330Q227 307 242 286T266
244T279 201T280 151L277 115Q272 61 239 28T139 -5H137L133 -50H112L117 -4Q58 2 31 40T9 135L20 237H44L34 134Q29 87 50 56T119 18L155 347L130 375ZM140 17Q194 17 220 45T251 117L254 153Q259 197 244 232T190 311L173 331L140 17ZM81 545Q79 523 82 505T93
468T115 432T147 394L158 380L188 661Q144 660 117 639T84 570L81 545Z" />
<glyph unicode="%" glyph-name="percent" horiz-adv-x="418" d="M404 678H427L26 0H3L404 678ZM135 393Q81 393 59 426T43 516L49 569Q55 624 82 653T156 682Q210 682 231 649T247 559L242 506Q236 452 210 423T135 393ZM136 414Q174 414 192 437T216 505L222
562Q227 607 213 634T156 661Q118 661 99 638T74 570L68 513Q63 468 78 441T136 414ZM274 -4Q220 -4 198 29T182 119L187 172Q193 227 220 256T295 285Q349 285 370 252T386 162L380 109Q374 55 348 26T274 -4ZM274 17Q313 17 331 40T355 108L361 165Q366 210 351
237T294 264Q256 264 237 241T212 173L206 116Q201 71 216 44T274 17Z" />
<glyph unicode="&amp;" glyph-name="ampersand" horiz-adv-x="355" d="M133 -5Q63 -5 34 35T13 148L24 249Q30 305 58 329T127 362Q91 370 74 399T61 478L68 552Q75 621 109 652T201 683Q264 683 292 651T313 543L307 490H282L287 543Q294 609 272 635T201 661Q154
661 127 636T94 551L86 475Q81 429 100 401T170 373H349L346 350H300L264 0H240L247 65Q236 37 210 16T133 -5ZM137 17Q168 17 189 26T224 52T243 91T253 138L275 350H169Q119 350 87 327T50 251L39 146Q33 84 55 51T137 17Z" />
<glyph unicode="&apos;" glyph-name="quotesingle" horiz-adv-x="82" d="M70 678H95L81 577H62L70 678Z" />
<glyph unicode="(" glyph-name="parenleft" horiz-adv-x="169" d="M109 -90Q85 -84 66 -73T34 -43T16 7T16 83L64 539Q69 583 79 612T106 658T144 685T192 698L190 677Q168 673 151 665T121 641T100 601T88 539L40 83Q36 45 39 19T51 -25T75 -53T111 -69L109 -90Z" />
<glyph unicode=")" glyph-name="parenright" horiz-adv-x="169" d="M-18 -69Q4 -65 21 -57T51 -33T72 7T84 69L132 525Q136 563 133 589T121 633T97 661T61 677L63 698Q87 692 106 681T138 651T155 601T156 525L108 69Q103 25 93 -4T66 -50T28 -77T-20 -90L-18 -69Z" />
<glyph unicode="*" glyph-name="asterisk" horiz-adv-x="202" d="M133 579L87 520L70 536L122 589L53 615L62 637L127 602L129 678H153L142 601L211 625L216 602L144 588L186 527L165 515L133 579Z" />
<glyph unicode="+" glyph-name="plus" horiz-adv-x="341" d="M29 346H165L181 499H204L188 346H323L321 324H185L169 171H146L162 324H27L29 346Z" />
<glyph unicode="," glyph-name="comma" horiz-adv-x="95" d="M11 34H37V32L4 -76H-15L11 34Z" />
<glyph unicode="-" glyph-name="hyphen" horiz-adv-x="160" d="M22 326H145L143 304H20L22 326Z" />
<glyph unicode="." glyph-name="period" horiz-adv-x="95" d="M8 34H34L31 0H5L8 34Z" />
<glyph unicode="/" glyph-name="slash" horiz-adv-x="180" d="M190 698H213L-13 -90H-37L190 698Z" />
<glyph unicode="0" glyph-name="zero" horiz-adv-x="343" d="M150 17Q181 17 203 27T239 55T262 96T273 145L312 516Q315 546 311 572T294 618T259 649T205 661Q175 661 153 651T115 624T92 583T81 533L42 162Q39 133 43 107T61 60T96 29T150 17ZM150 -5Q110 -5
83 8T40 45T19 100T17 167L55 531Q58 563 68 590T97 638T143 671T206 683Q245 683 272 670T315 633T336 578T338 511L300 147Q297 116 287 89T258 40T214 7T150 -5Z" />
<glyph unicode="1" glyph-name="one" horiz-adv-x="175" d="M133 635H132L43 542H42L45 573L143 678H163L92 0H66L133 635Z" />
<glyph unicode="2" glyph-name="two" horiz-adv-x="315" d="M9 99Q12 129 19 151T39 192T68 230T108 272L192 357Q228 392 252 426T280 496L286 553Q292 609 265 635T194 661Q148 661 118 635T83 551L75 474H50L58 554Q65 620 100 651T195 683Q256 683 287 650T312
552L306 494Q301 456 277 420T211 341L126 255Q104 233 88 216T61 181T43 145T34 99L26 22H258L257 0H-2L9 99Z" />
<glyph unicode="3" glyph-name="three" horiz-adv-x="329" d="M141 -5Q69 -5 36 31T10 135L19 221H44L35 135Q23 17 141 17Q201 17 226 45T257 129L269 237Q274 289 251 319T177 350H136L139 372H175Q276 372 286 463L294 538Q301 602 276 631T198 661Q145 661
119 636T87 563L79 487H54L62 563Q68 619 101 651T199 683Q265 683 296 646T319 537L311 464Q306 415 281 392T217 362Q255 354 277 322T294 234L283 128Q280 96 271 72T246 30T204 4T141 -5Z" />
<glyph unicode="4" glyph-name="four" horiz-adv-x="329" d="M219 157H-4L-2 174L267 678H299L246 178H300L298 157H244L228 0H202L219 157ZM221 178L269 635H268L25 178H221Z" />
<glyph unicode="5" glyph-name="five" horiz-adv-x="326" d="M141 -5Q69 -5 37 34T12 146L20 219H45L37 142Q30 78 58 48T141 17Q198 17 223 49T255 136L272 299Q276 336 269 361T249 400T216 421T177 427Q156 427 136 421T100 402T73 367T59 315L58 305H34L73
678H322L320 656H94L65 377H66Q82 415 113 432T183 450Q207 450 230 443T269 418T294 371T298 298L281 135Q274 69 241 32T141 -5Z" />
<glyph unicode="6" glyph-name="six" horiz-adv-x="334" d="M147 -5Q80 -5 45 38T17 165L57 540Q65 612 101 647T199 683Q261 683 295 649T322 539L317 491H293L298 539Q305 604 276 632T198 661Q148 661 119 632T83 540L63 349H64Q81 385 111 405T187 425Q248
425 281 387T306 264L294 143Q286 65 250 30T147 -5ZM148 17Q202 17 231 46T268 143L281 268Q289 338 262 370T180 403Q131 403 97 373T55 275L43 160Q35 89 65 53T148 17Z" />
<glyph unicode="7" glyph-name="seven" horiz-adv-x="292" d="M56 678H310L304 613L69 0H42L279 618L283 656H54L56 678Z" />
<glyph unicode="8" glyph-name="eight" horiz-adv-x="341" d="M145 -5Q105 -5 79 7T36 41T15 91T13 152L23 244Q28 297 54 332T135 378Q88 392 75 428T67 515L71 549Q77 612 110 647T207 683Q241 683 265 673T303 643T322 596T324 537L321 503Q316 453 295 419T223
375Q248 369 265 356T293 323T306 280T307 230L297 138Q290 74 254 35T145 -5ZM145 17Q205 17 235 50T271 138L281 234Q284 261 280 285T263 327T229 355T176 365Q115 365 85 332T49 245L39 149Q36 122 40 98T56 56T90 28T145 17ZM183 387Q213 387 233 396T266
420T285 456T295 501L299 538Q305 595 284 628T206 661Q154 661 128 632T96 549L92 511Q89 486 91 464T104 424T133 397T183 387Z" />
<glyph unicode="9" glyph-name="nine" horiz-adv-x="334" d="M144 -5Q114 -5 90 3T48 28T23 73T19 139L24 187H48L43 139Q40 106 46 83T66 45T100 24T145 17Q199 17 227 47T262 138L282 329H281Q264 293 234 273T160 253Q98 253 64 291T39 414L51 535Q59 613 96
648T198 683Q266 683 301 640T328 513L289 138Q274 -5 144 -5ZM165 275Q214 275 248 305T290 404L302 520Q310 591 281 626T197 661Q143 661 114 632T77 535L64 410Q56 339 83 307T165 275Z" />
<glyph unicode=":" glyph-name="colon" horiz-adv-x="95" d="M8 34H34L31 0H5L8 34ZM37 310H63L60 275H33L37 310Z" />
<glyph unicode=";" glyph-name="semicolon" horiz-adv-x="95" d="M11 34H37V32L4 -76H-15L11 34ZM39 310H66L62 275H36L39 310Z" />
<glyph unicode="&lt;" glyph-name="less" horiz-adv-x="307" d="M16 324L18 335L305 469L302 445L49 329L278 214L275 190L16 324Z" />
<glyph unicode="=" glyph-name="equal" horiz-adv-x="354" d="M24 290H330L328 270H22L24 290ZM34 382H340L338 362H32L34 382Z" />
<glyph unicode="&gt;" glyph-name="greater" horiz-adv-x="307" d="M14 214L266 330L38 446L40 469L299 335L298 324L11 190L14 214Z" />
<glyph unicode="?" glyph-name="question" horiz-adv-x="301" d="M113 205Q115 227 118 242T128 270T145 297T170 330L221 394Q246 425 257 446T271 498L276 547Q283 605 259 633T186 661Q137 661 112 633T80 553L73 482H47L55 553Q62 616 95 649T186 683Q247
683 278 649T302 544L297 495Q295 477 291 463T280 436T264 410T241 381L189 317Q176 301 167 289T152 265T143 239T137 205L126 97H101L113 205ZM93 34H120L116 0H90L93 34Z" />
<glyph unicode="@" glyph-name="at" horiz-adv-x="492" d="M223 -90Q110 -90 59 -32T19 129L56 486Q62 537 81 574T129 635T196 670T278 682Q324 682 363 671T429 635T470 574T479 484L439 106Q435 72 421 54T374 35Q341 35 327 52T312 96H311Q300 70 278 53T219
35Q173 35 146 64T126 158L154 427Q161 490 191 517T263 544Q300 544 320 528T349 487H350L356 540H379L334 111Q331 80 342 67T375 53Q394 53 405 65T420 106L460 485Q465 533 454 567T417 623T356 655T277 665Q236 665 202 655T141 623T97 567T75 485L38 129Q28
32 73 -20T224 -73H371L369 -90H223ZM223 55Q257 55 282 76T312 147L341 425Q346 476 324 500T269 524Q231 524 208 500T179 424L151 156Q146 106 165 81T223 55Z" />
<glyph unicode="A" glyph-name="A" horiz-adv-x="335" d="M187 678H223L293 0H267L248 188H64L7 0H-19L187 678ZM71 211H245L202 641H201L71 211Z" />
<glyph unicode="B" glyph-name="B" horiz-adv-x="308" d="M73 678H182Q250 678 276 646T297 552L285 446Q280 401 260 380T202 350Q292 338 282 237L268 103Q262 49 231 25T136 0H2L73 678ZM135 22Q187 22 212 42T242 104L256 239Q261 287 240 313T162 339H63L29
22H135ZM154 360Q203 360 229 380T260 445L272 554Q277 604 255 630T179 656H96L65 360H154Z" />
<glyph unicode="C" glyph-name="C" horiz-adv-x="330" d="M150 -5Q109 -5 82 8T39 45T18 100T17 167L55 531Q58 565 68 593T95 641T139 672T203 683Q242 683 268 672T308 640T326 592T327 530L319 454H293L301 531Q304 559 301 583T287 624T256 651T203 661Q142
661 115 626T81 533L43 162Q40 132 43 106T60 60T95 29T151 17Q182 17 202 25T235 49T254 87T263 136L276 260H302L289 136Q285 104 277 78T253 34T212 5T150 -5Z" />
<glyph unicode="D" glyph-name="D" horiz-adv-x="337" d="M129 22Q197 22 229 58T266 150L304 512Q307 542 304 568T287 613T250 644T189 656H96L29 22H129ZM73 678H193Q237 678 265 665T309 628T329 574T330 507L293 151Q290 119 279 91T249 43T200 12T131 0H2L73 678Z" />
<glyph unicode="E" glyph-name="E" horiz-adv-x="293" d="M73 678H306L303 656H96L65 356H218L215 334H63L30 22H240L238 0H2L73 678Z" />
<glyph unicode="F" glyph-name="F" horiz-adv-x="275" d="M73 678H301L298 656H96L65 356H218L216 334H63L28 0H2L73 678Z" />
<glyph unicode="G" glyph-name="G" horiz-adv-x="338" d="M142 -5Q104 -5 79 9T38 46T18 101T17 167L55 531Q58 563 67 590T95 638T140 671T204 683Q245 683 271 672T310 640T327 592T327 529L321 474H296L303 532Q306 560 304 584T290 625T258 651T203 661Q173
661 151 651T115 624T92 583T81 533L43 162Q40 133 43 107T59 61T93 29T147 17Q177 17 198 26T234 53T255 93T265 144L282 309H183L185 331H309L275 0H251L259 69Q246 38 220 17T142 -5Z" />
<glyph unicode="H" glyph-name="H" horiz-adv-x="331" d="M278 334H63L28 0H2L73 678H99L65 356H280L314 678H341L270 0H243L278 334Z" />
<glyph unicode="I" glyph-name="I" horiz-adv-x="89" d="M73 678H99L28 0H2L73 678Z" />
<glyph unicode="J" glyph-name="J" horiz-adv-x="289" d="M117 -5Q52 -5 27 32T8 129L22 260H47L33 128Q28 77 48 47T117 17Q164 17 187 41T216 111L275 678H301L242 112Q235 54 206 25T117 -5Z" />
<glyph unicode="K" glyph-name="K" horiz-adv-x="305" d="M64 343L28 0H2L73 678H99L65 353L310 678H339L90 347L269 0H241L64 343Z" />
<glyph unicode="L" glyph-name="L" horiz-adv-x="256" d="M73 678H99L30 22H212L210 0H2L73 678Z" />
<glyph unicode="M" glyph-name="M" horiz-adv-x="414" d="M73 678H115L181 67H182L379 678H424L353 0H327L393 635H389L185 0H164L95 635H92L25 0H2L73 678Z" />
<glyph unicode="N" glyph-name="N" horiz-adv-x="326" d="M73 678H105L247 65L311 678H335L264 0H237L91 630L25 0H2L73 678Z" />
<glyph unicode="O" glyph-name="O" horiz-adv-x="349" d="M153 17Q184 17 206 27T244 55T267 96T278 145L317 516Q320 546 316 572T299 618T263 649T207 661Q177 661 155 651T117 624T93 583T81 533L43 162Q40 132 44 106T61 60T97 29T153 17ZM153 -5Q113 -5 86
8T42 45T19 100T17 167L55 531Q58 562 68 590T97 638T143 671T208 683Q248 683 275 670T319 633T341 578T343 511L305 147Q302 116 292 89T264 40T218 7T153 -5Z" />
<glyph unicode="P" glyph-name="P" horiz-adv-x="300" d="M73 678H188Q253 678 281 646T304 556L284 365Q278 310 247 283T153 255H54L28 0H2L73 678ZM152 277Q203 277 227 298T257 365L277 558Q282 606 260 631T185 656H96L57 277H152Z" />
<glyph unicode="Q" glyph-name="Q" horiz-adv-x="349" d="M289 -56L116 -15L117 0Q87 6 67 21T34 58T18 108T17 167L55 531Q58 562 68 590T97 638T143 671T208 683Q248 683 275 670T319 633T341 578T343 511L305 147Q302 118 293 91T266 44T224 10T163 -4L291
-34L289 -56ZM153 17Q184 17 206 27T244 55T267 95T278 144L317 516Q320 546 316 572T299 618T263 649T207 661Q177 661 155 651T117 624T93 583T81 533L42 160Q39 131 43 105T61 60T97 29T153 17Z" />
<glyph unicode="R" glyph-name="R" horiz-adv-x="303" d="M64 342L28 0H2L73 678H188Q316 678 302 557L291 443Q285 388 254 361T160 333H97L269 0H241L64 342ZM158 355Q210 355 234 376T264 443L276 558Q281 608 260 632T186 656H96L65 355H158Z" />
<glyph unicode="S" glyph-name="S" horiz-adv-x="317" d="M138 -5Q69 -5 35 34T8 135L18 237H44L33 134Q28 83 54 50T139 17Q193 17 218 45T249 117L253 153Q258 197 243 231T189 309L129 377Q108 401 93 421T69 460T56 500T55 545L58 572Q64 628 99 655T189 683Q254
683 286 649T312 553L303 477H278L286 555Q291 607 265 634T189 661Q144 661 116 640T83 571L80 545Q78 524 81 506T92 470T115 435T147 396L207 329Q227 306 242 286T266 244T278 201T279 151L275 116Q270 62 237 29T138 -5Z" />
<glyph unicode="T" glyph-name="T" horiz-adv-x="296" d="M52 678H325L323 656H199L131 0H105L173 656H50L52 678Z" />
<glyph unicode="U" glyph-name="U" horiz-adv-x="334" d="M145 -5Q106 -5 80 7T38 40T17 91T16 157L71 678H97L42 153Q39 123 43 98T59 55T92 27T146 17Q176 17 197 26T231 50T252 88T263 136L320 678H345L288 137Q285 106 276 80T250 35T207 6T145 -5Z" />
<glyph unicode="V" glyph-name="V" horiz-adv-x="325" d="M52 678H78L136 42H137L329 678H355L148 0H116L52 678Z" />
<glyph unicode="W" glyph-name="W" horiz-adv-x="481" d="M55 678H81L103 53H104L271 678H295L332 53H333L484 678H508L343 0H312L276 608H275L112 0H80L55 678Z" />
<glyph unicode="X" glyph-name="X" horiz-adv-x="325" d="M150 360L69 678H95L171 380L310 678H336L186 356L279 0H253L165 335L12 0H-15L150 360Z" />
<glyph unicode="Y" glyph-name="Y" horiz-adv-x="305" d="M138 258L52 678H79L154 298H155L309 678H335L164 259L137 0H111L138 258Z" />
<glyph unicode="Z" glyph-name="Z" horiz-adv-x="298" d="M-10 22L287 656H78L81 678H318L316 656L18 22H240L238 0H-12L-10 22Z" />
<glyph unicode="[" glyph-name="bracketleft" horiz-adv-x="163" d="M84 698H186L184 678H106L27 -70H105L103 -90H1L84 698Z" />
<glyph unicode="\" glyph-name="backslash" horiz-adv-x="180" d="M52 698H75L139 -90H116L52 698Z" />
<glyph unicode="]" glyph-name="bracketright" horiz-adv-x="163" d="M-18 -70H60L139 678H61L63 698H164L81 -90H-20L-18 -70Z" />
<glyph unicode="^" glyph-name="asciicircum" horiz-adv-x="236" d="M151 678H163L239 505H215L154 646L66 505H43L151 678Z" />
<glyph unicode="_" glyph-name="underscore" horiz-adv-x="240" d="M-39 -70H205L203 -90H-41L-39 -70Z" />
<glyph unicode="`" glyph-name="grave" horiz-adv-x="400" d="M165 652L167 673L306 611L304 593L165 652Z" />
<glyph unicode="a" glyph-name="a" horiz-adv-x="301" d="M113 -5Q59 -5 29 27T7 128L12 175Q15 208 25 229T52 265T91 291T141 314Q205 340 230 358T258 398L262 441Q268 494 250 522T180 550Q132 550 109 525T80 451L75 398H50L55 452Q62 509 92 540T180 572Q243
572 269 538T287 441L242 0H216L223 62H221Q208 35 182 15T113 -5ZM118 17Q138 17 157 23T191 43T216 76T229 122L253 354Q249 349 243 344T225 331T194 315T146 293Q121 282 102 272T69 250T48 220T37 176L32 128Q26 71 49 44T118 17Z" />
<glyph unicode="b" glyph-name="b" horiz-adv-x="315" d="M141 -5Q95 -5 69 16T35 67H34L27 0H2L73 678H98L79 496H80Q94 526 120 549T194 572Q248 572 278 539T302 436L269 121Q262 55 229 25T141 -5ZM135 17Q234 17 244 123L277 437Q282 492 258 521T186 550Q141
550 110 519T71 425L41 131Q35 75 62 46T135 17Z" />
<glyph unicode="c" glyph-name="c" horiz-adv-x="304" d="M133 -5Q69 -5 38 34T13 142L44 434Q52 502 87 537T182 572Q246 572 275 537T296 436L292 398H267L271 437Q276 492 255 521T181 550Q82 550 70 435L38 137Q32 80 57 49T134 17Q183 17 209 41T240 120L246
181H271L265 120Q252 -5 133 -5Z" />
<glyph unicode="d" glyph-name="d" horiz-adv-x="315" d="M123 -5Q69 -5 38 28T13 131L46 446Q53 512 88 542T174 572Q220 572 246 551T280 500H281L299 678H324L254 0H229L236 71H235Q223 42 197 19T123 -5ZM129 16Q174 16 205 48T243 142L274 436Q280 491 252
520T180 550Q133 550 105 524T71 444L39 130Q33 75 57 46T129 16Z" />
<glyph unicode="e" glyph-name="e" d="M138 -5Q73 -5 40 34T14 142L45 436Q52 503 87 537T184 572Q247 572 278 535T301 428L287 294H55L39 140Q32 80 59 49T139 17Q189 17 214 44T245 131L250 181H275L270 130Q262 60 231 28T138 -5ZM264 315L276 429Q282 488
258 519T183 550Q82 550 70 436L57 315H264Z" />
<glyph unicode="f" glyph-name="f" horiz-adv-x="180" d="M41 567H86L91 609Q95 647 112 662T171 678H209L207 658H174Q144 658 132 647T116 607L112 567H197L195 547H110L53 0H27L84 547H39L41 567Z" />
<glyph unicode="g" glyph-name="g" d="M139 106Q184 106 215 138T253 232L274 436Q280 491 252 520T180 550Q134 550 105 524T71 444L48 219Q42 165 66 136T139 106ZM127 -95Q64 -95 32 -63T5 30L7 49H32L30 30Q25 -22 50 -47T127 -73Q175 -73 200 -48T231 20L246
161H245Q232 131 205 108T131 85Q78 85 47 118T22 220L46 446Q53 512 88 542T174 572Q220 572 246 551T280 500H281L288 567H313L256 20Q251 -34 219 -64T127 -95Z" />
<glyph unicode="h" glyph-name="h" horiz-adv-x="308" d="M73 678H98L79 497H80Q86 510 96 523T120 548T152 565T194 572Q246 572 274 537T295 430L250 0H225L270 431Q276 489 255 519T186 550Q138 550 108 515T71 425L27 0H2L73 678Z" />
<glyph unicode="i" glyph-name="i" horiz-adv-x="89" d="M61 567H86L27 0H2L61 567ZM73 678H98L95 647H69L73 678Z" />
<glyph unicode="j" glyph-name="j" horiz-adv-x="89" d="M-51 -69H-40Q-19 -69 -12 -60T-2 -30L61 567H86L24 -31Q20 -63 7 -76T-38 -90H-53L-51 -69ZM73 678H98L95 647H69L73 678Z" />
<glyph unicode="k" glyph-name="k" horiz-adv-x="270" d="M58 297L27 0H2L73 678H98L58 302L260 567H287L84 298L234 0H207L58 297Z" />
<glyph unicode="l" glyph-name="l" horiz-adv-x="89" d="M73 678H98L27 0H2L73 678Z" />
<glyph unicode="m" glyph-name="m" horiz-adv-x="496" d="M61 567H86L79 498H80Q86 511 95 524T117 548T147 565T186 572Q227 572 249 550T277 489H278Q290 521 318 546T391 572Q443 572 466 538T483 438L437 0H412L458 439Q463 490 446 520T383 550Q341 550 312
518T277 434L232 0H207L252 439Q258 493 240 521T178 550Q132 550 105 515T71 426L27 0H2L61 567Z" />
<glyph unicode="n" glyph-name="n" horiz-adv-x="308" d="M61 567H86L79 497H80Q86 510 96 523T120 548T152 565T194 572Q246 572 274 537T295 430L250 0H225L270 431Q276 489 255 519T186 550Q138 550 108 515T71 425L27 0H2L61 567Z" />
<glyph unicode="o" glyph-name="o" horiz-adv-x="318" d="M135 -5Q71 -5 39 34T14 142L45 434Q52 502 87 537T182 572Q246 572 278 533T303 425L272 132Q265 64 230 30T135 -5ZM135 17Q234 17 246 131L278 429Q284 486 259 518T182 550Q82 550 70 435L39 137Q32
80 58 49T135 17Z" />
<glyph unicode="p" glyph-name="p" horiz-adv-x="315" d="M61 567H86L79 496H80Q94 526 120 549T194 572Q248 572 278 539T302 436L269 121Q262 55 229 25T141 -5Q95 -5 69 16T35 67H34L18 -90H-7L61 567ZM135 17Q234 17 244 123L277 437Q282 492 258 521T186
550Q141 550 110 519T71 425L41 131Q35 75 62 46T135 17Z" />
<glyph unicode="q" glyph-name="q" horiz-adv-x="315" d="M236 71H235Q223 42 197 19T123 -5Q69 -5 38 28T13 131L46 446Q53 512 88 542T174 572Q220 572 246 551T280 500H281L288 567H313L244 -90H219L236 71ZM129 16Q174 16 205 48T243 142L274 436Q280 491
252 520T180 550Q133 550 105 524T71 444L39 130Q33 75 57 46T129 16Z" />
<glyph unicode="r" glyph-name="r" horiz-adv-x="182" d="M61 567H86L79 494H80Q92 524 121 546T193 569L190 543H186Q144 543 111 515T72 431L27 0H2L61 567Z" />
<glyph unicode="s" glyph-name="s" horiz-adv-x="290" d="M122 -5Q56 -5 26 30T3 124L9 178H33L27 123Q22 74 45 46T122 17Q175 17 197 43T224 116L226 134Q230 171 219 198T168 260L105 313Q67 346 51 377T40 451L42 469Q47 516 77 544T164 572Q224 572 253 542T276
450L271 402H246L251 450Q256 502 234 526T164 550Q117 550 94 528T66 467L64 449Q60 416 72 390T123 331L185 278Q207 260 220 243T241 208T251 173T251 133L249 115Q242 58 215 27T122 -5Z" />
<glyph unicode="t" glyph-name="t" horiz-adv-x="192" d="M41 567H86L98 678H124L112 567H198L196 547H110L61 85Q58 55 67 38T111 21H140L139 0H109Q61 0 46 22T36 87L84 547H39L41 567Z" />
<glyph unicode="u" glyph-name="u" horiz-adv-x="311" d="M119 -5Q66 -5 36 27T13 137L58 567H83L38 136Q31 71 55 44T124 17Q173 17 201 52T236 142L281 567H306L247 0H222L229 69H228Q215 42 190 19T119 -5Z" />
<glyph unicode="v" glyph-name="v" horiz-adv-x="285" d="M33 567H59L114 39H115L285 567H311L126 0H94L33 567Z" />
<glyph unicode="w" glyph-name="w" horiz-adv-x="450" d="M36 567H61L92 52H93L243 567H267L306 52H307L448 567H472L315 0H287L249 512L99 0H70L36 567Z" />
<glyph unicode="x" glyph-name="x" horiz-adv-x="289" d="M131 298L45 567H71L152 315L283 567H309L168 295L252 0H226L147 278L3 0H-23L131 298Z" />
<glyph unicode="y" glyph-name="y" horiz-adv-x="286" d="M-8 -69H17Q33 -69 43 -67T59 -58T70 -43T80 -19L108 58H100L33 567H58L120 96H121L286 567H312L103 -25Q97 -43 91 -55T75 -75T52 -86T18 -90H-11L-8 -69Z" />
<glyph unicode="z" glyph-name="z" horiz-adv-x="273" d="M-9 21L252 546H64L66 567H282L280 546L19 21H219L218 0H-10L-9 21Z" />
<glyph unicode="{" glyph-name="braceleft" horiz-adv-x="204" d="M137 -69Q86 -69 65 -40T58 51L99 223Q108 260 98 282T39 304H21L23 325H39Q65 325 80 331T104 349T115 375T118 409L113 590Q111 650 134 674T209 698H227L225 678H208Q171 678 154 661T138 592L142
410Q144 374 132 349T81 315Q116 306 123 280T123 220L82 47Q69 -5 85 -26T139 -48H148L146 -69H137Z" />
<glyph unicode="|" glyph-name="bar" horiz-adv-x="92" d="M78 698H100L17 -90H-5L78 698Z" />
<glyph unicode="}" glyph-name="braceright" horiz-adv-x="204" d="M-16 -49H0Q37 -49 54 -31T71 37L66 219Q65 255 77 280T128 314Q92 323 85 349T86 409L127 582Q139 634 123 656T70 678H60L62 698H71Q122 698 143 669T151 578L109 406Q101 369 111 347T170
325H188L186 304H170Q144 304 128 298T104 281T93 254T90 221L95 40Q97 -20 74 -44T0 -69H-18L-16 -49Z" />
<glyph unicode="~" glyph-name="asciitilde" horiz-adv-x="234" d="M22 288Q25 313 38 328T74 344Q87 344 99 340T122 329T143 319T165 314Q180 314 187 324T197 348H217Q215 323 202 308T165 292Q152 292 141 296T118 307T96 317T74 322Q59 322 52 312T43 288H22Z" />
<glyph unicode="&#xa1;" glyph-name="exclamdown" horiz-adv-x="96" d="M66 588H93L89 554H63L66 588ZM61 491H78L22 -90H-6L61 491Z" />
<glyph unicode="&#xa2;" glyph-name="cent" horiz-adv-x="304" d="M118 -4Q61 0 34 38T13 142L44 434Q52 500 86 535T178 572L183 615H204L199 571Q310 560 296 436L292 398H267L271 437Q280 540 197 549L140 17Q186 19 210 43T241 120L247 181H272L266 120Q253
-2 138 -5L133 -50H113L118 -4ZM38 137Q32 83 53 53T120 17L176 550Q82 547 70 435L38 137Z" />
<glyph unicode="&#xa3;" glyph-name="sterling" horiz-adv-x="329" d="M19 337H60L81 544Q89 618 124 650T217 683Q276 683 306 651T329 551L322 486H296L303 553Q308 609 286 635T217 661Q172 661 144 634T107 544L85 337H234L231 315H83L53 22H279L277 0H25L57
315H16L19 337Z" />
<glyph unicode="&#xa5;" glyph-name="yen" horiz-adv-x="317" d="M40 278H145L147 295L58 678H85L163 330H164L315 678H341L173 295L171 278H277L275 259H169L166 225H271L269 207H164L142 0H116L138 207H32L34 225H140L143 259H38L40 278Z" />
<glyph unicode="&#xa6;" glyph-name="brokenbar" horiz-adv-x="91" d="M34 289H56L16 -90H-5L34 289ZM78 698H99L61 339H40L78 698Z" />
<glyph unicode="&#xa7;" glyph-name="section" horiz-adv-x="346" d="M146 -95Q79 -95 49 -61T25 33L30 80H54L49 32Q44 -17 66 -45T146 -73Q173 -73 191 -67T220 -48T237 -18T245 20L246 37Q250 72 241 99T196 151L99 217Q63 242 47 268T31 327Q31 373 55 398T120
437V438Q93 462 86 490T83 554L85 569Q97 683 209 683Q272 683 298 651T320 561L315 514H291L296 562Q301 608 281 634T209 661Q160 661 137 638T109 568L108 553Q104 519 112 493T152 443L248 379Q284 354 301 329T318 269Q318 221 293 197T227 159V158Q259 132
267 103T272 35L270 18Q265 -34 238 -64T146 -95ZM209 171Q247 183 270 203T294 266Q294 294 280 315T234 359L136 425Q97 413 76 392T55 329Q55 303 68 281T113 237L209 171Z" />
<glyph unicode="&#xa8;" glyph-name="dieresis" horiz-adv-x="400" d="M189 645H214L210 614H186L189 645ZM261 645H285L282 614H257L261 645Z" />
<glyph unicode="&#xa9;" glyph-name="copyright" horiz-adv-x="379" d="M183 202Q140 202 123 228T109 295L120 400Q125 441 145 463T202 485Q243 485 260 464T273 405L271 386H251L253 406Q255 435 244 451T202 467Q173 467 159 450T141 401L129 292Q126 261
138 240T183 219Q213 219 226 236T242 279L245 310H266L262 278Q258 244 241 223T183 202ZM181 139Q219 139 247 151T294 184T325 234T340 300L347 370Q351 408 345 440T321 495T275 532T207 546Q131 546 93 501T48 385L41 314Q37 277 43 245T67 190T113 153T181
139ZM181 126Q139 126 108 140T57 180T30 239T26 314L34 385Q38 423 50 455T84 510T136 547T207 560Q249 560 280 546T330 506T358 445T362 370L354 300Q346 222 304 174T181 126Z" />
<glyph unicode="&#xaa;" glyph-name="ordfeminine" horiz-adv-x="284" d="M127 195Q76 195 49 225T27 316L30 340Q33 369 42 387T67 418T102 439T149 459Q208 484 231 501T257 537L260 562Q265 611 248 637T183 663Q138 663 117 639T90 572L86 532H62L67 574Q72
624 100 653T184 683Q243 683 266 652T284 561L246 200H222L228 257H227Q216 232 191 214T127 195ZM131 215Q169 215 199 240T234 314L254 500L243 489Q237 483 226 476T198 461T153 440Q129 429 112 422T82 404T62 379T53 339L51 315Q45 263 67 239T131 215Z"
/>
<glyph unicode="&#xab;" glyph-name="guillemotleft" horiz-adv-x="202" d="M20 233L98 378H120L42 231L90 86H67L20 233ZM85 232L164 378H186L108 230L155 86H133L85 232Z" />
<glyph unicode="&#xae;" glyph-name="registered" horiz-adv-x="379" d="M196 248Q154 248 123 262T72 302T45 362T41 437L49 507Q53 546 65 578T99 633T151 669T223 682Q265 682 296 668T346 628T373 568T377 493L370 423Q366 384 354 352T320 297T267 261T196
248ZM196 261Q272 261 309 306T355 423L362 493Q366 530 360 562T336 618T290 655T222 669Q146 669 109 624T64 507L56 437Q52 399 58 367T82 312T128 275T196 261ZM169 467L155 334H135L163 605H228Q260 605 275 589T287 543L284 514Q281 486 265 475T217 464H193L275
334H252L169 467ZM217 479Q240 479 251 487T264 514L267 545Q269 564 260 576T226 589H181L170 479H217Z" />
<glyph unicode="&#xaf;" glyph-name="macron" horiz-adv-x="400" d="M163 634H308L306 615H161L163 634Z" />
<glyph unicode="&#xb0;" glyph-name="degree" horiz-adv-x="173" d="M116 548Q88 548 69 567T49 614Q49 643 68 663T116 683Q145 683 165 663T185 614Q185 587 165 568T116 548ZM116 566Q138 566 152 580T166 614Q166 636 152 650T116 665Q96 665 83 651T69 614Q69
594 82 580T116 566Z" />
<glyph unicode="&#xb2;" glyph-name="twosuperior" horiz-adv-x="205" d="M39 418Q42 447 53 465T92 504L143 540Q166 557 176 569T188 601L189 611Q191 637 179 651T140 665Q116 665 100 652T81 611L78 577H57L61 612Q65 647 86 664T140 682Q177 682 195 663T210
609L209 600Q207 573 194 559T157 527L105 489Q80 472 71 457T60 417L59 406H187L185 388H36L39 418Z" />
<glyph unicode="&#xb3;" glyph-name="threesuperior" horiz-adv-x="208" d="M118 384Q76 384 58 403T43 455L46 484H67L64 455Q61 429 73 415T118 401Q149 401 162 414T177 451L180 487Q182 507 174 520T139 534H110L112 550H139Q165 550 175 563T188 592L190
614Q192 639 180 652T139 665Q110 665 98 651T83 613L81 595H61L63 613Q67 642 84 662T139 682Q178 682 195 664T210 613L208 592Q206 575 197 561T165 542Q188 537 196 522T202 485L198 449Q195 420 178 402T118 384Z" />
<glyph unicode="&#xb4;" glyph-name="acute" horiz-adv-x="400" d="M162 612L314 673L311 651L160 593L162 612Z" />
<glyph unicode="&#xb6;" glyph-name="paragraph" horiz-adv-x="313" d="M187 299H151Q93 299 63 329T37 414L54 576Q60 629 89 653T173 678H322L251 0H229L298 658H246L178 0H156L187 299Z" />
<glyph unicode="&#xb7;" glyph-name="periodcentered" horiz-adv-x="95" d="M42 359H68L65 324H38L42 359Z" />
<glyph unicode="&#xb8;" glyph-name="cedilla" horiz-adv-x="400" d="M91 -76Q113 -76 132 -73T152 -55Q152 -39 120 -39H110L115 0H132L129 -22Q152 -22 164 -31T176 -54Q176 -77 151 -84T89 -92L91 -76Z" />
<glyph unicode="&#xb9;" glyph-name="onesuperior" horiz-adv-x="135" d="M109 647H108L48 589H47L51 613L116 678H135L104 388H82L109 647Z" />
<glyph unicode="&#xba;" glyph-name="ordmasculine" horiz-adv-x="293" d="M144 195Q86 195 56 232T32 332L56 556Q63 619 95 651T181 683Q239 683 269 646T292 546L268 322Q261 260 230 228T144 195ZM144 215Q233 215 244 321L268 549Q274 602 251 632T181 663Q91
663 80 557L56 328Q50 275 74 245T144 215Z" />
<glyph unicode="&#xbb;" glyph-name="guillemotright" horiz-adv-x="202" d="M147 233L100 378H122L170 231L92 86H70L147 233ZM82 234L35 378H57L105 232L26 86H3L82 234Z" />
<glyph unicode="&#xbc;" glyph-name="onequarter" horiz-adv-x="243" d="M121 59H4L6 73L141 290H167L145 76H175L173 59H143L137 0H115L121 59ZM149 647H148L88 589H87L90 613L156 678H175L144 388H121L149 647ZM124 76L142 258H141L27 76H124ZM27 348H228L227
332H26L27 348Z" />
<glyph unicode="&#xbd;" glyph-name="onehalf" horiz-adv-x="243" d="M28 348H229L227 332H26L28 348ZM149 647H148L89 589H88L91 613L157 678H175L144 388H122L149 647ZM22 30Q23 45 26 56T36 77T51 96T75 115L125 152Q148 169 158 181T171 213L172 222Q177 276
122 276Q98 276 83 264T64 223L60 189H40L44 224Q48 259 69 276T123 294Q160 294 178 275T193 221L192 212Q189 185 176 171T139 139L87 101Q63 83 54 68T43 28L42 18H170L168 0H19L22 30Z" />
<glyph unicode="&#xbe;" glyph-name="threequarters" horiz-adv-x="253" d="M135 384Q93 384 75 403T60 455L63 484H84L81 455Q78 429 90 415T135 401Q167 401 179 414T194 451L198 487Q200 507 192 520T156 534H127L129 550H156Q182 550 192 563T205 592L207
614Q209 639 197 652T156 665Q127 665 115 651T101 613L99 595H78L80 613Q84 642 101 662T156 682Q195 682 212 664T227 613L225 592Q223 575 214 561T182 542Q205 537 213 522T219 485L215 449Q212 420 195 402T135 384ZM125 59H7L9 73L145 290H170L149 76H178L177
59H146L140 0H119L125 59ZM127 76L146 258H145L31 76H127ZM28 348H227L226 332H26L28 348Z" />
<glyph unicode="&#xbf;" glyph-name="questiondown" horiz-adv-x="301" d="M116 -95Q55 -95 24 -61T0 44L5 93Q7 111 11 125T22 152T38 178T61 207L113 271Q126 287 135 299T150 323T159 349T165 383L177 491H201L190 383Q188 361 185 346T175 318T158 291T132
258L81 194Q57 163 46 142T31 90L26 41Q19 -17 43 -45T117 -73Q165 -73 191 -45T222 35L229 106H255L248 35Q241 -28 208 -61T116 -95ZM186 588H212L209 554H183L186 588Z" />
<glyph unicode="&#xc0;" glyph-name="Agrave" horiz-adv-x="335" d="M187 678H223L293 0H267L248 188H64L7 0H-19L187 678ZM71 211H245L202 641H201L71 211ZM387 757L389 778L528 716L526 698L387 757Z" />
<glyph unicode="&#xc1;" glyph-name="Aacute" horiz-adv-x="335" d="M187 678H223L293 0H267L248 188H64L7 0H-19L187 678ZM71 211H245L202 641H201L71 211ZM403 717L555 778L552 756L401 698L403 717Z" />
<glyph unicode="&#xc2;" glyph-name="Acircumflex" horiz-adv-x="335" d="M187 678H223L293 0H267L248 188H64L7 0H-19L187 678ZM71 211H245L202 641H201L71 211ZM387 719L466 787H480L547 718L545 700L472 765L385 700L387 719Z" />
<glyph unicode="&#xc3;" glyph-name="Atilde" horiz-adv-x="335" d="M187 678H223L293 0H267L248 188H64L7 0H-19L187 678ZM71 211H245L202 641H201L71 211ZM380 717Q382 739 394 754T429 769Q440 769 449 765T468 755T486 745T504 740Q518 740 524 750T533 773H551Q549
750 537 736T502 721Q491 721 482 725T463 735T445 744T427 749Q413 749 406 740T397 717H380Z" />
<glyph unicode="&#xc4;" glyph-name="Adieresis" horiz-adv-x="335" d="M187 678H223L293 0H267L248 188H64L7 0H-19L187 678ZM71 211H245L202 641H201L71 211ZM423 750H448L444 719H420L423 750ZM495 750H519L516 719H491L495 750Z" />
<glyph unicode="&#xc5;" glyph-name="Aring" horiz-adv-x="335" d="M187 678H223L293 0H267L248 188H64L7 0H-19L187 678ZM71 211H245L202 641H201L71 211ZM467 702Q444 702 428 718T412 758Q412 781 428 797T467 814Q492 814 508 798T524 758Q524 734 508 718T467
702ZM467 717Q484 717 495 729T507 758Q507 775 496 787T467 799Q450 799 440 787T429 758Q429 741 439 729T467 717Z" />
<glyph unicode="&#xc6;" glyph-name="AE" horiz-adv-x="513" d="M249 188H80L7 0H-18L244 678H525L522 656H324L293 356H437L435 334H291L258 22H460L458 0H230L249 188ZM89 211H252L298 656H261L89 211Z" />
<glyph unicode="&#xc7;" glyph-name="Ccedilla" horiz-adv-x="330" d="M95 -76Q117 -76 136 -73T156 -55Q156 -39 124 -39H114L119 -2Q87 3 66 18T33 55T18 106T17 167L55 531Q58 565 68 593T95 641T139 672T203 683Q242 683 268 672T308 640T326 592T327 530L319
454H293L301 531Q304 559 301 583T287 624T256 651T203 661Q142 661 115 626T81 533L43 162Q40 132 43 106T60 60T95 29T151 17Q182 17 202 25T235 49T254 87T263 136L276 260H302L289 136Q285 104 277 78T253 34T212 5T150 -5H135L133 -22Q156 -22 168 -31T180
-54Q180 -77 155 -84T93 -92L95 -76Z" />
<glyph unicode="&#xc8;" glyph-name="Egrave" horiz-adv-x="293" d="M73 678H306L303 656H96L65 356H218L215 334H63L30 22H240L238 0H2L73 678ZM373 757L375 778L514 716L512 698L373 757Z" />
<glyph unicode="&#xc9;" glyph-name="Eacute" horiz-adv-x="293" d="M390 717L542 778L539 756L388 698L390 717ZM73 678H306L303 656H96L65 356H218L215 334H63L30 22H240L238 0H2L73 678Z" />
<glyph unicode="&#xca;" glyph-name="Ecircumflex" horiz-adv-x="293" d="M368 719L447 787H461L528 718L526 700L453 765L366 700L368 719ZM73 678H306L303 656H96L65 356H218L215 334H63L30 22H240L238 0H2L73 678Z" />
<glyph unicode="&#xcb;" glyph-name="Edieresis" horiz-adv-x="293" d="M404 750H429L425 719H401L404 750ZM476 750H500L497 719H472L476 750ZM73 678H306L303 656H96L65 356H218L215 334H63L30 22H240L238 0H2L73 678Z" />
<glyph unicode="&#xcc;" glyph-name="Igrave" horiz-adv-x="89" d="M73 678H99L28 0H2L73 678ZM16 757L18 778L157 716L155 698L16 757Z" />
<glyph unicode="&#xcd;" glyph-name="Iacute" horiz-adv-x="89" d="M73 678H99L28 0H2L73 678ZM290 717L442 778L439 756L288 698L290 717Z" />
<glyph unicode="&#xce;" glyph-name="Icircumflex" horiz-adv-x="89" d="M73 678H99L28 0H2L73 678ZM10 719L89 787H103L170 718L168 700L95 765L8 700L10 719Z" />
<glyph unicode="&#xcf;" glyph-name="Idieresis" horiz-adv-x="89" d="M73 678H99L28 0H2L73 678ZM46 750H71L67 719H43L46 750ZM118 750H142L139 719H114L118 750Z" />
<glyph unicode="&#xd0;" glyph-name="Eth" horiz-adv-x="347" d="M16 356H49L83 678H204Q247 678 275 665T319 628T339 574T340 507L303 151Q300 119 289 91T259 43T210 12T141 0H12L47 334H14L16 356ZM139 22Q207 22 239 58T276 150L314 512Q317 542 314 568T297
613T261 644T200 656H107L75 356H206L204 334H73L40 22H139Z" />
<glyph unicode="&#xd1;" glyph-name="Ntilde" horiz-adv-x="326" d="M73 678H105L247 65L311 678H335L264 0H237L91 630L25 0H2L73 678ZM385 717Q387 739 399 754T434 769Q445 769 454 765T473 755T491 745T509 740Q523 740 529 750T538 773H556Q554 750 542 736T507
721Q496 721 487 725T468 735T450 744T432 749Q418 749 411 740T402 717H385Z" />
<glyph unicode="&#xd2;" glyph-name="Ograve" horiz-adv-x="349" d="M153 17Q184 17 206 27T244 55T267 96T278 145L317 516Q320 546 316 572T299 618T263 649T207 661Q177 661 155 651T117 624T93 583T81 533L43 162Q40 132 44 106T61 60T97 29T153 17ZM153 -5Q113
-5 86 8T42 45T19 100T17 167L55 531Q58 562 68 590T97 638T143 671T208 683Q248 683 275 670T319 633T341 578T343 511L305 147Q302 116 292 89T264 40T218 7T153 -5ZM399 757L401 778L540 716L538 698L399 757Z" />
<glyph unicode="&#xd3;" glyph-name="Oacute" horiz-adv-x="349" d="M417 717L569 778L566 756L415 698L417 717ZM153 17Q184 17 206 27T244 55T267 96T278 145L317 516Q320 546 316 572T299 618T263 649T207 661Q177 661 155 651T117 624T93 583T81 533L43 162Q40
132 44 106T61 60T97 29T153 17ZM153 -5Q113 -5 86 8T42 45T19 100T17 167L55 531Q58 562 68 590T97 638T143 671T208 683Q248 683 275 670T319 633T341 578T343 511L305 147Q302 116 292 89T264 40T218 7T153 -5Z" />
<glyph unicode="&#xd4;" glyph-name="Ocircumflex" horiz-adv-x="349" d="M395 719L474 787H488L555 718L553 700L480 765L393 700L395 719ZM153 17Q184 17 206 27T244 55T267 96T278 145L317 516Q320 546 316 572T299 618T263 649T207 661Q177 661 155 651T117
624T93 583T81 533L43 162Q40 132 44 106T61 60T97 29T153 17ZM153 -5Q113 -5 86 8T42 45T19 100T17 167L55 531Q58 562 68 590T97 638T143 671T208 683Q248 683 275 670T319 633T341 578T343 511L305 147Q302 116 292 89T264 40T218 7T153 -5Z" />
<glyph unicode="&#xd5;" glyph-name="Otilde" horiz-adv-x="349" d="M153 17Q184 17 206 27T244 55T267 96T278 145L317 516Q320 546 316 572T299 618T263 649T207 661Q177 661 155 651T117 624T93 583T81 533L43 162Q40 132 44 106T61 60T97 29T153 17ZM153 -5Q113
-5 86 8T42 45T19 100T17 167L55 531Q58 562 68 590T97 638T143 671T208 683Q248 683 275 670T319 633T341 578T343 511L305 147Q302 116 292 89T264 40T218 7T153 -5ZM388 717Q390 739 402 754T437 769Q448 769 457 765T476 755T494 745T512 740Q526 740 532 750T541
773H559Q557 750 545 736T510 721Q499 721 490 725T471 735T453 744T435 749Q421 749 414 740T405 717H388Z" />
<glyph unicode="&#xd6;" glyph-name="Odieresis" horiz-adv-x="349" d="M431 750H456L452 719H428L431 750ZM503 750H527L524 719H499L503 750ZM153 17Q184 17 206 27T244 55T267 96T278 145L317 516Q320 546 316 572T299 618T263 649T207 661Q177 661 155 651T117
624T93 583T81 533L43 162Q40 132 44 106T61 60T97 29T153 17ZM153 -5Q113 -5 86 8T42 45T19 100T17 167L55 531Q58 562 68 590T97 638T143 671T208 683Q248 683 275 670T319 633T341 578T343 511L305 147Q302 116 292 89T264 40T218 7T153 -5Z" />
<glyph unicode="&#xd7;" glyph-name="multiply" horiz-adv-x="321" d="M24 206L150 331L46 460L62 476L166 347L292 470L306 455L179 331L285 201L268 186L163 315L38 192L24 206Z" />
<glyph unicode="&#xd8;" glyph-name="Oslash" horiz-adv-x="349" d="M54 30Q30 54 21 89T17 167L55 531Q58 562 68 590T97 638T143 671T208 683Q234 683 254 677T291 660L307 702H327L306 648Q330 625 339 589T343 511L305 147Q302 116 292 89T264 40T218 7T153
-5Q103 -5 70 17L52 -31H31L54 30ZM43 162Q39 130 43 103T63 55L283 638Q269 649 251 655T207 661Q177 661 155 651T117 624T93 583T81 533L43 162ZM153 17Q184 17 206 27T244 55T267 96T278 145L317 516Q320 548 316 575T297 622L78 39Q106 17 153 17Z" />
<glyph unicode="&#xd9;" glyph-name="Ugrave" horiz-adv-x="334" d="M145 -5Q106 -5 80 7T38 40T17 91T16 157L71 678H97L42 153Q39 123 43 98T59 55T92 27T146 17Q176 17 197 26T231 50T252 88T263 136L320 678H345L288 137Q285 106 276 80T250 35T207 6T145
-5ZM393 757L395 778L534 716L532 698L393 757Z" />
<glyph unicode="&#xda;" glyph-name="Uacute" horiz-adv-x="334" d="M411 717L563 778L560 756L409 698L411 717ZM145 -5Q106 -5 80 7T38 40T17 91T16 157L71 678H97L42 153Q39 123 43 98T59 55T92 27T146 17Q176 17 197 26T231 50T252 88T263 136L320 678H345L288
137Q285 106 276 80T250 35T207 6T145 -5Z" />
<glyph unicode="&#xdb;" glyph-name="Ucircumflex" horiz-adv-x="334" d="M388 719L467 787H481L548 718L546 700L473 765L386 700L388 719ZM145 -5Q106 -5 80 7T38 40T17 91T16 157L71 678H97L42 153Q39 123 43 98T59 55T92 27T146 17Q176 17 197 26T231 50T252
88T263 136L320 678H345L288 137Q285 106 276 80T250 35T207 6T145 -5Z" />
<glyph unicode="&#xdc;" glyph-name="Udieresis" horiz-adv-x="334" d="M425 750H450L446 719H422L425 750ZM497 750H521L518 719H493L497 750ZM145 -5Q106 -5 80 7T38 40T17 91T16 157L71 678H97L42 153Q39 123 43 98T59 55T92 27T146 17Q176 17 197 26T231 50T252
88T263 136L320 678H345L288 137Q285 106 276 80T250 35T207 6T145 -5Z" />
<glyph unicode="&#xdd;" glyph-name="Yacute" horiz-adv-x="305" d="M145 258L59 678H86L161 298H162L316 678H342L171 259L144 0H118L145 258ZM405 717L557 778L554 756L403 698L405 717Z" />
<glyph unicode="&#xde;" glyph-name="Thorn" horiz-adv-x="300" d="M73 678H99L85 552H174Q240 552 268 520T290 430L273 265Q266 208 237 179T145 150H44L28 0H2L73 678ZM143 172Q195 172 218 194T246 265L264 431Q275 529 172 529H83L46 172H143Z" />
<glyph unicode="&#xdf;" glyph-name="germandbls" horiz-adv-x="302" d="M62 575Q68 630 100 656T190 683Q243 683 266 664T290 615Q290 562 235 551Q301 538 291 445L256 118Q250 57 223 29T132 0H87L89 21H131Q182 21 204 45T231 120L265 447Q270 492 256 516T197
541H152L155 561H195Q222 561 244 571T266 613Q266 636 248 648T189 661Q143 661 118 641T87 574L27 0H2L62 575Z" />
<glyph unicode="&#xe0;" glyph-name="agrave" horiz-adv-x="301" d="M113 -5Q59 -5 29 27T7 128L12 175Q15 208 25 229T52 265T91 291T141 314Q205 340 230 358T258 398L262 441Q268 494 250 522T180 550Q132 550 109 525T80 451L75 398H50L55 452Q62 509 92 540T180
572Q243 572 269 538T287 441L242 0H216L223 62H221Q208 35 182 15T113 -5ZM118 17Q138 17 157 23T191 43T216 76T229 122L253 354Q249 349 243 344T225 331T194 315T146 293Q121 282 102 272T69 250T48 220T37 176L32 128Q26 71 49 44T118 17ZM369 652L371 673L510
611L508 593L369 652Z" />
<glyph unicode="&#xe1;" glyph-name="aacute" horiz-adv-x="301" d="M113 -5Q59 -5 29 27T7 128L12 175Q15 208 25 229T52 265T91 291T141 314Q205 340 230 358T258 398L262 441Q268 494 250 522T180 550Q132 550 109 525T80 451L75 398H50L55 452Q62 509 92 540T180
572Q243 572 269 538T287 441L242 0H216L223 62H221Q208 35 182 15T113 -5ZM118 17Q138 17 157 23T191 43T216 76T229 122L253 354Q249 349 243 344T225 331T194 315T146 293Q121 282 102 272T69 250T48 220T37 176L32 128Q26 71 49 44T118 17ZM387 612L539 673L536
651L385 593L387 612Z" />
<glyph unicode="&#xe2;" glyph-name="acircumflex" horiz-adv-x="301" d="M113 -5Q59 -5 29 27T7 128L12 175Q15 208 25 229T52 265T91 291T141 314Q205 340 230 358T258 398L262 441Q268 494 250 522T180 550Q132 550 109 525T80 451L75 398H50L55 452Q62 509
92 540T180 572Q243 572 269 538T287 441L242 0H216L223 62H221Q208 35 182 15T113 -5ZM118 17Q138 17 157 23T191 43T216 76T229 122L253 354Q249 349 243 344T225 331T194 315T146 293Q121 282 102 272T69 250T48 220T37 176L32 128Q26 71 49 44T118 17ZM365
614L444 682H458L525 613L523 595L450 660L363 595L365 614Z" />
<glyph unicode="&#xe3;" glyph-name="atilde" horiz-adv-x="301" d="M113 -5Q59 -5 29 27T7 128L12 175Q15 208 25 229T52 265T91 291T141 314Q205 340 230 358T258 398L262 441Q268 494 250 522T180 550Q132 550 109 525T80 451L75 398H50L55 452Q62 509 92 540T180
572Q243 572 269 538T287 441L242 0H216L223 62H221Q208 35 182 15T113 -5ZM118 17Q138 17 157 23T191 43T216 76T229 122L253 354Q249 349 243 344T225 331T194 315T146 293Q121 282 102 272T69 250T48 220T37 176L32 128Q26 71 49 44T118 17ZM359 612Q361 634
373 649T408 664Q419 664 428 660T447 650T465 640T483 635Q497 635 503 645T512 668H530Q528 645 516 631T481 616Q470 616 461 620T442 630T424 639T406 644Q392 644 385 635T376 612H359Z" />
<glyph unicode="&#xe4;" glyph-name="adieresis" horiz-adv-x="301" d="M113 -5Q59 -5 29 27T7 128L12 175Q15 208 25 229T52 265T91 291T141 314Q205 340 230 358T258 398L262 441Q268 494 250 522T180 550Q132 550 109 525T80 451L75 398H50L55 452Q62 509 92
540T180 572Q243 572 269 538T287 441L242 0H216L223 62H221Q208 35 182 15T113 -5ZM118 17Q138 17 157 23T191 43T216 76T229 122L253 354Q249 349 243 344T225 331T194 315T146 293Q121 282 102 272T69 250T48 220T37 176L32 128Q26 71 49 44T118 17ZM400 645H425L421
614H397L400 645ZM472 645H496L493 614H468L472 645Z" />
<glyph unicode="&#xe5;" glyph-name="aring" horiz-adv-x="301" d="M113 -5Q59 -5 29 27T7 128L12 175Q15 208 25 229T52 265T91 291T141 314Q205 340 230 358T258 398L262 441Q268 494 250 522T180 550Q132 550 109 525T80 451L75 398H50L55 452Q62 509 92 540T180
572Q243 572 269 538T287 441L242 0H216L223 62H221Q208 35 182 15T113 -5ZM118 17Q138 17 157 23T191 43T216 76T229 122L253 354Q249 349 243 344T225 331T194 315T146 293Q121 282 102 272T69 250T48 220T37 176L32 128Q26 71 49 44T118 17ZM446 592Q423 592
407 608T391 648Q391 671 407 687T446 704Q471 704 487 688T503 648Q503 624 487 608T446 592ZM446 607Q463 607 474 619T486 648Q486 665 475 677T446 689Q429 689 419 677T408 648Q408 631 418 619T446 607Z" />
<glyph unicode="&#xe6;" glyph-name="ae" horiz-adv-x="535" d="M355 -5Q307 -5 278 17T240 81H239Q228 41 198 18T123 -5Q64 -5 32 30T8 134L14 192Q21 258 52 286T146 314H252L266 445Q271 496 252 523T181 550Q133 550 109 525T79 451L74 398H49L54 452Q61
510 93 541T182 572Q227 572 252 554T285 501Q317 572 400 572Q463 572 493 535T516 428L502 293H275L259 137Q252 80 278 49T356 17Q407 17 430 44T461 131L466 181H491L485 130Q477 60 447 28T355 -5ZM128 16Q169 16 197 43T232 127L250 293H148Q96 293 70 269T38
190L33 134Q27 77 51 47T128 16ZM480 314L492 431Q498 488 474 519T399 550Q348 550 322 522T290 437L277 314H480Z" />
<glyph unicode="&#xe7;" glyph-name="ccedilla" horiz-adv-x="304" d="M84 -76Q106 -76 125 -73T145 -55Q145 -39 113 -39H103L108 -3Q57 4 32 41T13 142L44 434Q52 502 87 537T182 572Q246 572 275 537T296 436L292 398H267L271 437Q276 492 255 521T181 550Q82
550 70 435L38 137Q32 80 57 49T134 17Q183 17 209 41T240 120L246 181H271L265 120Q252 -5 133 -5H124L122 -22Q145 -22 157 -31T169 -54Q169 -77 144 -84T82 -92L84 -76Z" />
<glyph unicode="&#xe8;" glyph-name="egrave" d="M138 -5Q73 -5 40 34T14 142L45 436Q52 503 87 537T184 572Q247 572 278 535T301 428L287 294H55L39 140Q32 80 59 49T139 17Q189 17 214 44T245 131L250 181H275L270 130Q262 60 231 28T138 -5ZM264 315L276 429Q282
488 258 519T183 550Q82 550 70 436L57 315H264ZM369 652L371 673L510 611L508 593L369 652Z" />
<glyph unicode="&#xe9;" glyph-name="eacute" d="M387 612L539 673L536 651L385 593L387 612ZM138 -5Q73 -5 40 34T14 142L45 436Q52 503 87 537T184 572Q247 572 278 535T301 428L287 294H55L39 140Q32 80 59 49T139 17Q189 17 214 44T245 131L250 181H275L270
130Q262 60 231 28T138 -5ZM264 315L276 429Q282 488 258 519T183 550Q82 550 70 436L57 315H264Z" />
<glyph unicode="&#xea;" glyph-name="ecircumflex" d="M365 614L444 682H458L525 613L523 595L450 660L363 595L365 614ZM138 -5Q73 -5 40 34T14 142L45 436Q52 503 87 537T184 572Q247 572 278 535T301 428L287 294H55L39 140Q32 80 59 49T139 17Q189 17 214
44T245 131L250 181H275L270 130Q262 60 231 28T138 -5ZM264 315L276 429Q282 488 258 519T183 550Q82 550 70 436L57 315H264Z" />
<glyph unicode="&#xeb;" glyph-name="edieresis" d="M400 645H425L421 614H397L400 645ZM472 645H496L493 614H468L472 645ZM138 -5Q73 -5 40 34T14 142L45 436Q52 503 87 537T184 572Q247 572 278 535T301 428L287 294H55L39 140Q32 80 59 49T139 17Q189 17 214
44T245 131L250 181H275L270 130Q262 60 231 28T138 -5ZM264 315L276 429Q282 488 258 519T183 550Q82 550 70 436L57 315H264Z" />
<glyph unicode="&#xec;" glyph-name="igrave" horiz-adv-x="89" d="M27 651L29 673L121 611L119 593L27 651ZM61 567H86L27 0H2L61 567Z" />
<glyph unicode="&#xed;" glyph-name="iacute" horiz-adv-x="89" d="M37 613L141 673L138 651L34 593L37 613ZM61 567H86L27 0H2L61 567Z" />
<glyph unicode="&#xee;" glyph-name="icircumflex" horiz-adv-x="89" d="M21 615L79 682H93L135 615L133 595L85 660L19 595L21 615ZM61 567H86L27 0H2L61 567Z" />
<glyph unicode="&#xef;" glyph-name="idieresis" horiz-adv-x="89" d="M41 645H62L59 614H38L41 645ZM100 645H121L118 614H97L100 645ZM61 567H86L27 0H2L61 567Z" />
<glyph unicode="&#xf0;" glyph-name="eth" horiz-adv-x="318" d="M104 615L173 638L137 678H166L195 646L264 669L262 652L207 633L250 587Q281 555 294 517T303 426L272 132Q265 64 230 30T135 -5Q71 -5 39 34T14 142L45 434Q52 502 86 536T177 570Q203 570 225
561T264 528Q257 545 230 577L185 626L102 598L104 615ZM135 17Q234 17 246 131L278 429Q283 485 259 517T182 550Q82 550 70 435L39 137Q32 80 58 49T135 17Z" />
<glyph unicode="&#xf1;" glyph-name="ntilde" horiz-adv-x="308" d="M61 567H86L79 497H80Q86 510 96 523T120 548T152 565T194 572Q246 572 274 537T295 430L250 0H225L270 431Q276 489 255 519T186 550Q138 550 108 515T71 425L27 0H2L61 567ZM357 612Q359 634
371 649T406 664Q417 664 426 660T445 650T463 640T481 635Q495 635 501 645T510 668H528Q526 645 514 631T479 616Q468 616 459 620T440 630T422 639T404 644Q390 644 383 635T374 612H357Z" />
<glyph unicode="&#xf2;" glyph-name="ograve" horiz-adv-x="318" d="M135 -5Q71 -5 39 34T14 142L45 434Q52 502 87 537T182 572Q246 572 278 533T303 425L272 132Q265 64 230 30T135 -5ZM135 17Q234 17 246 131L278 429Q284 486 259 518T182 550Q82 550 70 435L39
137Q32 80 58 49T135 17ZM375 652L377 673L516 611L514 593L375 652Z" />
<glyph unicode="&#xf3;" glyph-name="oacute" horiz-adv-x="318" d="M387 612L539 673L536 651L385 593L387 612ZM135 -5Q71 -5 39 34T14 142L45 434Q52 502 87 537T182 572Q246 572 278 533T303 425L272 132Q265 64 230 30T135 -5ZM135 17Q234 17 246 131L278
429Q284 486 259 518T182 550Q82 550 70 435L39 137Q32 80 58 49T135 17Z" />
<glyph unicode="&#xf4;" glyph-name="ocircumflex" horiz-adv-x="318" d="M367 614L446 682H460L527 613L525 595L452 660L365 595L367 614ZM135 -5Q71 -5 39 34T14 142L45 434Q52 502 87 537T182 572Q246 572 278 533T303 425L272 132Q265 64 230 30T135 -5ZM135
17Q234 17 246 131L278 429Q284 486 259 518T182 550Q82 550 70 435L39 137Q32 80 58 49T135 17Z" />
<glyph unicode="&#xf5;" glyph-name="otilde" horiz-adv-x="318" d="M135 -5Q71 -5 39 34T14 142L45 434Q52 502 87 537T182 572Q246 572 278 533T303 425L272 132Q265 64 230 30T135 -5ZM135 17Q234 17 246 131L278 429Q284 486 259 518T182 550Q82 550 70 435L39
137Q32 80 58 49T135 17ZM364 612Q366 634 378 649T413 664Q424 664 433 660T452 650T470 640T488 635Q502 635 508 645T517 668H535Q533 645 521 631T486 616Q475 616 466 620T447 630T429 639T411 644Q397 644 390 635T381 612H364Z" />
<glyph unicode="&#xf6;" glyph-name="odieresis" horiz-adv-x="318" d="M406 645H431L427 614H403L406 645ZM478 645H502L499 614H474L478 645ZM135 -5Q71 -5 39 34T14 142L45 434Q52 502 87 537T182 572Q246 572 278 533T303 425L272 132Q265 64 230 30T135 -5ZM135
17Q234 17 246 131L278 429Q284 486 259 518T182 550Q82 550 70 435L39 137Q32 80 58 49T135 17Z" />
<glyph unicode="&#xf7;" glyph-name="divide" horiz-adv-x="341" d="M29 346H323L321 324H27L29 346ZM152 242H178L175 208H148L152 242ZM176 467H202L199 433H172L176 467Z" />
<glyph unicode="&#xf8;" glyph-name="oslash" horiz-adv-x="318" d="M49 23Q5 62 14 142L45 434Q52 502 87 537T182 572Q223 572 252 554L267 592H287L268 542Q310 503 303 425L272 132Q265 64 230 30T135 -5Q94 -5 65 12L49 -31H29L49 23ZM39 137Q31 78 58 47L244
532Q220 550 182 550Q82 550 70 435L39 137ZM135 17Q234 17 246 131L278 429Q284 485 259 518L73 33Q96 17 135 17Z" />
<glyph unicode="&#xf9;" glyph-name="ugrave" horiz-adv-x="311" d="M119 -5Q66 -5 36 27T13 137L58 567H83L38 136Q31 71 55 44T124 17Q173 17 201 52T236 142L281 567H306L247 0H222L229 69H228Q215 42 190 19T119 -5ZM367 652L369 673L508 611L506 593L367 652Z" />
<glyph unicode="&#xfa;" glyph-name="uacute" horiz-adv-x="311" d="M379 612L531 673L528 651L377 593L379 612ZM119 -5Q66 -5 36 27T13 137L58 567H83L38 136Q31 71 55 44T124 17Q173 17 201 52T236 142L281 567H306L247 0H222L229 69H228Q215 42 190 19T119 -5Z" />
<glyph unicode="&#xfb;" glyph-name="ucircumflex" horiz-adv-x="311" d="M362 614L441 682H455L522 613L520 595L447 660L360 595L362 614ZM119 -5Q66 -5 36 27T13 137L58 567H83L38 136Q31 71 55 44T124 17Q173 17 201 52T236 142L281 567H306L247 0H222L229
69H228Q215 42 190 19T119 -5Z" />
<glyph unicode="&#xfc;" glyph-name="udieresis" horiz-adv-x="311" d="M398 645H423L419 614H395L398 645ZM470 645H494L491 614H466L470 645ZM119 -5Q66 -5 36 27T13 137L58 567H83L38 136Q31 71 55 44T124 17Q173 17 201 52T236 142L281 567H306L247 0H222L229
69H228Q215 42 190 19T119 -5Z" />
<glyph unicode="&#xfd;" glyph-name="yacute" horiz-adv-x="286" d="M-8 -69H17Q33 -69 43 -67T59 -58T70 -43T80 -19L108 58H100L33 567H58L120 96H121L286 567H312L103 -25Q97 -43 91 -55T75 -75T52 -86T18 -90H-11L-8 -69ZM375 612L527 673L524 651L373 593L375 612Z" />
<glyph unicode="&#xfe;" glyph-name="thorn" horiz-adv-x="315" d="M73 678H98L79 496H80Q94 526 120 549T194 572Q248 572 278 539T302 436L269 121Q262 55 229 25T141 -5Q95 -5 69 16T35 67H34L18 -90H-7L73 678ZM135 17Q234 17 244 123L277 437Q282 492 258
521T186 550Q141 550 110 519T71 425L41 131Q35 75 62 46T135 17Z" />
<glyph unicode="&#xff;" glyph-name="ydieresis" horiz-adv-x="286" d="M-8 -69H17Q33 -69 43 -67T59 -58T70 -43T80 -19L108 58H100L33 567H58L120 96H121L286 567H312L103 -25Q97 -43 91 -55T75 -75T52 -86T18 -90H-11L-8 -69ZM387 645H412L408 614H384L387
645ZM459 645H483L480 614H455L459 645Z" />
<glyph unicode="&#x100;" glyph-name="Amacron" horiz-adv-x="335" d="M187 678H223L293 0H267L248 188H64L7 0H-19L187 678ZM71 211H245L202 641H201L71 211ZM397 739H542L540 720H395L397 739Z" />
<glyph unicode="&#x101;" glyph-name="amacron" horiz-adv-x="301" d="M113 -5Q59 -5 29 27T7 128L12 175Q15 208 25 229T52 265T91 291T141 314Q205 340 230 358T258 398L262 441Q268 494 250 522T180 550Q132 550 109 525T80 451L75 398H50L55 452Q62 509 92
540T180 572Q243 572 269 538T287 441L242 0H216L223 62H221Q208 35 182 15T113 -5ZM118 17Q138 17 157 23T191 43T216 76T229 122L253 354Q249 349 243 344T225 331T194 315T146 293Q121 282 102 272T69 250T48 220T37 176L32 128Q26 71 49 44T118 17ZM375 634H520L518
615H373L375 634Z" />
<glyph unicode="&#x102;" glyph-name="Abreve" horiz-adv-x="335" d="M187 678H223L293 0H267L248 188H64L7 0H-19L187 678ZM71 211H245L202 641H201L71 211ZM471 702Q437 702 416 723T397 779H416Q415 752 430 737T471 722Q496 722 512 736T532 779H551Q547 741
525 722T471 702Z" />
<glyph unicode="&#x103;" glyph-name="abreve" horiz-adv-x="301" d="M113 -5Q59 -5 29 27T7 128L12 175Q15 208 25 229T52 265T91 291T141 314Q205 340 230 358T258 398L262 441Q268 494 250 522T180 550Q132 550 109 525T80 451L75 398H50L55 452Q62 509 92
540T180 572Q243 572 269 538T287 441L242 0H216L223 62H221Q208 35 182 15T113 -5ZM118 17Q138 17 157 23T191 43T216 76T229 122L253 354Q249 349 243 344T225 331T194 315T146 293Q121 282 102 272T69 250T48 220T37 176L32 128Q26 71 49 44T118 17ZM448 597Q414
597 393 618T374 674H393Q392 647 407 632T448 617Q473 617 489 631T509 674H528Q524 636 502 617T448 597Z" />
<glyph unicode="&#x104;" glyph-name="Aogonek" horiz-adv-x="335" d="M279 -90Q253 -90 242 -80T230 -53Q230 -34 241 -22T267 0L248 188H64L7 0H-19L187 678H223L293 0Q281 -9 268 -21T255 -49Q255 -57 260 -63T282 -69H292L289 -90H279ZM245 211L202 641H201L70
211H245Z" />
<glyph unicode="&#x105;" glyph-name="aogonek" horiz-adv-x="301" d="M242 0Q230 -9 217 -21T204 -49Q204 -57 209 -63T231 -69H241L238 -90H228Q202 -90 191 -80T179 -53Q179 -34 190 -22T216 0L223 62H221Q208 35 182 15T113 -5Q59 -5 29 27T7 128L12 175Q15
208 25 229T52 265T91 291T141 314Q205 340 230 358T258 398L262 441Q268 494 250 522T180 550Q132 550 109 525T80 451L75 398H50L55 452Q62 509 92 540T180 572Q243 572 269 538T287 441L242 0ZM118 17Q138 17 157 23T191 43T216 76T229 122L253 354Q249 349
243 344T225 331T194 315T146 293Q121 282 102 272T69 250T48 220T37 176L32 128Q26 71 49 44T118 17Z" />
<glyph unicode="&#x106;" glyph-name="Cacute" horiz-adv-x="330" d="M405 717L557 778L554 756L403 698L405 717ZM150 -5Q109 -5 82 8T39 45T18 100T17 167L55 531Q58 565 68 593T95 641T139 672T203 683Q242 683 268 672T308 640T326 592T327 530L319 454H293L301
531Q304 559 301 583T287 624T256 651T203 661Q142 661 115 626T81 533L43 162Q40 132 43 106T60 60T95 29T151 17Q182 17 202 25T235 49T254 87T263 136L276 260H302L289 136Q285 104 277 78T253 34T212 5T150 -5Z" />
<glyph unicode="&#x107;" glyph-name="cacute" horiz-adv-x="304" d="M387 612L539 673L536 651L385 593L387 612ZM133 -5Q69 -5 38 34T13 142L44 434Q52 502 87 537T182 572Q246 572 275 537T296 436L292 398H267L271 437Q276 492 255 521T181 550Q82 550 70
435L38 137Q32 80 57 49T134 17Q183 17 209 41T240 120L246 181H271L265 120Q252 -5 133 -5Z" />
<glyph unicode="&#x108;" glyph-name="Ccircumflex" horiz-adv-x="330" d="M388 719L467 787H481L548 718L546 700L473 765L386 700L388 719ZM150 -5Q109 -5 82 8T39 45T18 100T17 167L55 531Q58 565 68 593T95 641T139 672T203 683Q242 683 268 672T308 640T326
592T327 530L319 454H293L301 531Q304 559 301 583T287 624T256 651T203 661Q142 661 115 626T81 533L43 162Q40 132 43 106T60 60T95 29T151 17Q182 17 202 25T235 49T254 87T263 136L276 260H302L289 136Q285 104 277 78T253 34T212 5T150 -5Z" />
<glyph unicode="&#x109;" glyph-name="ccircumflex" horiz-adv-x="304" d="M367 614L446 682H460L527 613L525 595L452 660L365 595L367 614ZM133 -5Q69 -5 38 34T13 142L44 434Q52 502 87 537T182 572Q246 572 275 537T296 436L292 398H267L271 437Q276 492 255
521T181 550Q82 550 70 435L38 137Q32 80 57 49T134 17Q183 17 209 41T240 120L246 181H271L265 120Q252 -5 133 -5Z" />
<glyph unicode="&#x10a;" glyph-name="Cdotaccent" horiz-adv-x="330" d="M150 -5Q109 -5 82 8T39 45T18 100T17 167L55 531Q58 565 68 593T95 641T139 672T203 683Q242 683 268 672T308 640T326 592T327 530L319 454H293L301 531Q304 559 301 583T287 624T256
651T203 661Q142 661 115 626T81 533L43 162Q40 132 43 106T60 60T95 29T151 17Q182 17 202 25T235 49T254 87T263 136L276 260H302L289 136Q285 104 277 78T253 34T212 5T150 -5ZM455 750H481L478 719H452L455 750Z" />
<glyph unicode="&#x10b;" glyph-name="cdotaccent" horiz-adv-x="304" d="M133 -5Q69 -5 38 34T13 142L44 434Q52 502 87 537T182 572Q246 572 275 537T296 436L292 398H267L271 437Q276 492 255 521T181 550Q82 550 70 435L38 137Q32 80 57 49T134 17Q183 17
209 41T240 120L246 181H271L265 120Q252 -5 133 -5ZM439 678H465L462 647H436L439 678Z" />
<glyph unicode="&#x10c;" glyph-name="Ccaron" horiz-adv-x="330" d="M392 770L394 789L467 724L555 789L553 770L473 702H459L392 770ZM150 -5Q109 -5 82 8T39 45T18 100T17 167L55 531Q58 565 68 593T95 641T139 672T203 683Q242 683 268 672T308 640T326 592T327
530L319 454H293L301 531Q304 559 301 583T287 624T256 651T203 661Q142 661 115 626T81 533L43 162Q40 132 43 106T60 60T95 29T151 17Q182 17 202 25T235 49T254 87T263 136L276 260H302L289 136Q285 104 277 78T253 34T212 5T150 -5Z" />
<glyph unicode="&#x10d;" glyph-name="ccaron" horiz-adv-x="304" d="M371 665L373 684L446 619L534 684L532 665L452 597H438L371 665ZM133 -5Q69 -5 38 34T13 142L44 434Q52 502 87 537T182 572Q246 572 275 537T296 436L292 398H267L271 437Q276 492 255 521T181
550Q82 550 70 435L38 137Q32 80 57 49T134 17Q183 17 209 41T240 120L246 181H271L265 120Q252 -5 133 -5Z" />
<glyph unicode="&#x10e;" glyph-name="Dcaron" horiz-adv-x="337" d="M374 770L376 789L449 724L537 789L535 770L455 702H441L374 770ZM129 22Q197 22 229 58T266 150L304 512Q307 542 304 568T287 613T250 644T189 656H96L29 22H129ZM73 678H193Q237 678 265
665T309 628T329 574T330 507L293 151Q290 119 279 91T249 43T200 12T131 0H2L73 678Z" />
<glyph unicode="&#x10f;" glyph-name="dcaron" horiz-adv-x="315" d="M352 678H374V676L356 587H339L352 678ZM123 -5Q69 -5 38 28T13 131L46 446Q53 512 88 542T174 572Q220 572 246 551T280 500H281L299 678H324L254 0H229L236 71H235Q223 42 197 19T123 -5ZM129
16Q174 16 205 48T243 142L274 436Q280 491 252 520T180 550Q133 550 105 524T71 444L39 130Q33 75 57 46T129 16Z" />
<glyph unicode="&#x110;" glyph-name="Dcroat" horiz-adv-x="347" d="M16 356H49L83 678H204Q247 678 275 665T319 628T339 574T340 507L303 151Q300 119 289 91T259 43T210 12T141 0H12L47 334H14L16 356ZM139 22Q207 22 239 58T276 150L314 512Q317 542 314
568T297 613T261 644T200 656H107L75 356H206L204 334H73L40 22H139Z" />
<glyph unicode="&#x111;" glyph-name="dcroat" horiz-adv-x="315" d="M187 631H294L299 678H324L319 631H357L355 614H317L254 0H229L236 71H235Q223 42 197 19T123 -5Q69 -5 38 28T13 131L46 446Q53 512 88 542T174 572Q220 572 246 551T280 500H281L292 614H185L187
631ZM129 16Q174 16 205 48T243 142L274 436Q280 491 252 520T180 550Q133 550 105 524T71 444L39 130Q33 75 57 46T129 16Z" />
<glyph unicode="&#x112;" glyph-name="Emacron" horiz-adv-x="293" d="M73 678H306L303 656H96L65 356H218L215 334H63L30 22H240L238 0H2L73 678ZM378 739H523L521 720H376L378 739Z" />
<glyph unicode="&#x113;" glyph-name="emacron" d="M138 -5Q73 -5 40 34T14 142L45 436Q52 503 87 537T184 572Q247 572 278 535T301 428L287 294H55L39 140Q32 80 59 49T139 17Q189 17 214 44T245 131L250 181H275L270 130Q262 60 231 28T138 -5ZM264 315L276
429Q282 488 258 519T183 550Q82 550 70 436L57 315H264ZM375 634H520L518 615H373L375 634Z" />
<glyph unicode="&#x114;" glyph-name="Ebreve" horiz-adv-x="293" d="M73 678H306L303 656H96L65 356H218L215 334H63L30 22H240L238 0H2L73 678ZM452 702Q418 702 397 723T378 779H397Q396 752 411 737T452 722Q477 722 493 736T513 779H532Q528 741 506 722T452 702Z" />
<glyph unicode="&#x115;" glyph-name="ebreve" d="M138 -5Q73 -5 40 34T14 142L45 436Q52 503 87 537T184 572Q247 572 278 535T301 428L287 294H55L39 140Q32 80 59 49T139 17Q189 17 214 44T245 131L250 181H275L270 130Q262 60 231 28T138 -5ZM264 315L276
429Q282 488 258 519T183 550Q82 550 70 436L57 315H264ZM448 597Q414 597 393 618T374 674H393Q392 647 407 632T448 617Q473 617 489 631T509 674H528Q524 636 502 617T448 597Z" />
<glyph unicode="&#x116;" glyph-name="Edotaccent" horiz-adv-x="293" d="M73 678H306L303 656H96L65 356H218L215 334H63L30 22H240L238 0H2L73 678ZM439 750H465L462 719H436L439 750Z" />
<glyph unicode="&#x117;" glyph-name="edotaccent" d="M138 -5Q73 -5 40 34T14 142L45 436Q52 503 87 537T184 572Q247 572 278 535T301 428L287 294H55L39 140Q32 80 59 49T139 17Q189 17 214 44T245 131L250 181H275L270 130Q262 60 231 28T138 -5ZM264 315L276
429Q282 488 258 519T183 550Q82 550 70 436L57 315H264ZM439 678H465L462 647H436L439 678Z" />
<glyph unicode="&#x118;" glyph-name="Eogonek" horiz-adv-x="293" d="M2 0L73 678H306L303 656H96L65 356H218L215 334H63L30 22H240L238 0H214Q202 -9 189 -21T176 -49Q176 -57 181 -63T203 -69H213L210 -90H200Q174 -90 163 -80T151 -53Q151 -34 162 -22T188 0H2Z" />
<glyph unicode="&#x119;" glyph-name="eogonek" d="M127 -53Q127 -37 135 -26T159 -4Q152 -5 147 -5H138Q73 -5 40 34T14 142L45 436Q52 503 87 537T184 572Q247 572 278 535T301 428L287 294H55L39 140Q32 80 59 49T139 17Q189 17 214 44T245 131L250 181H275L270
130Q261 46 215 15Q207 9 196 3T175 -12T159 -29T152 -49Q152 -57 157 -63T179 -69H189L186 -90H176Q150 -90 139 -80T127 -53ZM264 315L276 429Q282 488 258 519T183 550Q82 550 70 436L57 315H264Z" />
<glyph unicode="&#x11a;" glyph-name="Ecaron" horiz-adv-x="293" d="M373 770L375 789L448 724L536 789L534 770L454 702H440L373 770ZM73 678H306L303 656H96L65 356H218L215 334H63L30 22H240L238 0H2L73 678Z" />
<glyph unicode="&#x11b;" glyph-name="ecaron" d="M368 665L370 684L443 619L531 684L529 665L449 597H435L368 665ZM138 -5Q73 -5 40 34T14 142L45 436Q52 503 87 537T184 572Q247 572 278 535T301 428L287 294H55L39 140Q32 80 59 49T139 17Q189 17 214 44T245
131L250 181H275L270 130Q262 60 231 28T138 -5ZM264 315L276 429Q282 488 258 519T183 550Q82 550 70 436L57 315H264Z" />
<glyph unicode="&#x11c;" glyph-name="Gcircumflex" horiz-adv-x="338" d="M389 719L468 787H482L549 718L547 700L474 765L387 700L389 719ZM142 -5Q104 -5 79 9T38 46T18 101T17 167L55 531Q58 563 67 590T95 638T140 671T204 683Q245 683 271 672T310 640T327
592T327 529L321 474H296L303 532Q306 560 304 584T290 625T258 651T203 661Q173 661 151 651T115 624T92 583T81 533L43 162Q40 133 43 107T59 61T93 29T147 17Q177 17 198 26T234 53T255 93T265 144L282 309H183L185 331H309L275 0H251L259 69Q246 38 220 17T142
-5Z" />
<glyph unicode="&#x11d;" glyph-name="gcircumflex" d="M361 614L440 682H454L521 613L519 595L446 660L359 595L361 614ZM139 106Q184 106 215 138T253 232L274 436Q280 491 252 520T180 550Q134 550 105 524T71 444L48 219Q42 165 66 136T139 106ZM127 -95Q64
-95 32 -63T5 30L7 49H32L30 30Q25 -22 50 -47T127 -73Q175 -73 200 -48T231 20L246 161H245Q232 131 205 108T131 85Q78 85 47 118T22 220L46 446Q53 512 88 542T174 572Q220 572 246 551T280 500H281L288 567H313L256 20Q251 -34 219 -64T127 -95Z" />
<glyph unicode="&#x11e;" glyph-name="Gbreve" horiz-adv-x="338" d="M142 -5Q104 -5 79 9T38 46T18 101T17 167L55 531Q58 563 67 590T95 638T140 671T204 683Q245 683 271 672T310 640T327 592T327 529L321 474H296L303 532Q306 560 304 584T290 625T258 651T203
661Q173 661 151 651T115 624T92 583T81 533L43 162Q40 133 43 107T59 61T93 29T147 17Q177 17 198 26T234 53T255 93T265 144L282 309H183L185 331H309L275 0H251L259 69Q246 38 220 17T142 -5ZM471 702Q437 702 416 723T397 779H416Q415 752 430 737T471 722Q496
722 512 736T532 779H551Q547 741 525 722T471 702Z" />
<glyph unicode="&#x11f;" glyph-name="gbreve" d="M139 106Q184 106 215 138T253 232L274 436Q280 491 252 520T180 550Q134 550 105 524T71 444L48 219Q42 165 66 136T139 106ZM127 -95Q64 -95 32 -63T5 30L7 49H32L30 30Q25 -22 50 -47T127 -73Q175 -73 200
-48T231 20L246 161H245Q232 131 205 108T131 85Q78 85 47 118T22 220L46 446Q53 512 88 542T174 572Q220 572 246 551T280 500H281L288 567H313L256 20Q251 -34 219 -64T127 -95ZM444 597Q410 597 389 618T370 674H389Q388 647 403 632T444 617Q469 617 485 631T505
674H524Q520 636 498 617T444 597Z" />
<glyph unicode="&#x120;" glyph-name="Gdotaccent" horiz-adv-x="338" d="M142 -5Q104 -5 79 9T38 46T18 101T17 167L55 531Q58 563 67 590T95 638T140 671T204 683Q245 683 271 672T310 640T327 592T327 529L321 474H296L303 532Q306 560 304 584T290 625T258
651T203 661Q173 661 151 651T115 624T92 583T81 533L43 162Q40 133 43 107T59 61T93 29T147 17Q177 17 198 26T234 53T255 93T265 144L282 309H183L185 331H309L275 0H251L259 69Q246 38 220 17T142 -5ZM459 750H485L482 719H456L459 750Z" />
<glyph unicode="&#x121;" glyph-name="gdotaccent" d="M139 106Q184 106 215 138T253 232L274 436Q280 491 252 520T180 550Q134 550 105 524T71 444L48 219Q42 165 66 136T139 106ZM127 -95Q64 -95 32 -63T5 30L7 49H32L30 30Q25 -22 50 -47T127 -73Q175 -73
200 -48T231 20L246 161H245Q232 131 205 108T131 85Q78 85 47 118T22 220L46 446Q53 512 88 542T174 572Q220 572 246 551T280 500H281L288 567H313L256 20Q251 -34 219 -64T127 -95ZM435 678H461L458 647H432L435 678Z" />
<glyph unicode="&#x122;" glyph-name="Gcommaaccent" horiz-adv-x="338" d="M377 -18H402V-20L380 -90H361L377 -18ZM142 -5Q104 -5 79 9T38 46T18 101T17 167L55 531Q58 563 67 590T95 638T140 671T204 683Q245 683 271 672T310 640T327 592T327 529L321 474H296L303
532Q306 560 304 584T290 625T258 651T203 661Q173 661 151 651T115 624T92 583T81 533L43 162Q40 133 43 107T59 61T93 29T147 17Q177 17 198 26T234 53T255 93T265 144L282 309H183L185 331H309L275 0H251L259 69Q246 38 220 17T142 -5Z" />
<glyph unicode="&#x123;" glyph-name="gcommaaccent" d="M431 605L452 675H472L455 603H431V605ZM139 106Q184 106 215 138T253 232L274 436Q280 491 252 520T180 550Q134 550 105 524T71 444L48 219Q42 165 66 136T139 106ZM127 -95Q64 -95 32 -63T5 30L7 49H32L30
30Q25 -22 50 -47T127 -73Q175 -73 200 -48T231 20L246 161H245Q232 131 205 108T131 85Q78 85 47 118T22 220L46 446Q53 512 88 542T174 572Q220 572 246 551T280 500H281L288 567H313L256 20Q251 -34 219 -64T127 -95Z" />
<glyph unicode="&#x124;" glyph-name="Hcircumflex" horiz-adv-x="331" d="M388 719L467 787H481L548 718L546 700L473 765L386 700L388 719ZM278 334H63L28 0H2L73 678H99L65 356H280L314 678H341L270 0H243L278 334Z" />
<glyph unicode="&#x125;" glyph-name="hcircumflex" horiz-adv-x="308" d="M379 719L458 787H472L539 718L537 700L464 765L377 700L379 719ZM73 678H98L79 497H80Q86 510 96 523T120 548T152 565T194 572Q246 572 274 537T295 430L250 0H225L270 431Q276 489
255 519T186 550Q138 550 108 515T71 425L27 0H2L73 678Z" />
<glyph unicode="&#x126;" glyph-name="Hbar" horiz-adv-x="331" d="M20 503H54L73 678H99L80 503H295L314 678H341L322 503H357L355 483H320L270 0H243L278 334H63L28 0H2L52 483H18L20 503ZM65 356H280L293 483H78L65 356Z" />
<glyph unicode="&#x127;" glyph-name="hbar" horiz-adv-x="308" d="M32 631H68L73 678H98L93 631H203L200 614H91L79 497H80Q86 510 96 523T120 548T152 565T194 572Q246 572 274 537T295 430L250 0H225L270 431Q276 489 255 519T186 550Q138 550 108 515T71 425L27
0H2L66 614H30L32 631Z" />
<glyph unicode="&#x128;" glyph-name="Itilde" horiz-adv-x="89" d="M73 678H99L28 0H2L73 678ZM9 722Q11 744 23 759T58 774Q69 774 78 770T97 760T115 750T133 745Q147 745 153 755T162 778H180Q178 755 166 741T131 726Q120 726 111 730T92 740T74 749T56 754Q42
754 35 745T26 722H9Z" />
<glyph unicode="&#x129;" glyph-name="itilde" horiz-adv-x="89" d="M8 612Q11 638 22 651T49 664Q58 664 67 660T84 650T99 640T113 635Q133 635 136 668H153Q148 616 113 616Q104 616 95 620T78 630T63 640T49 645Q39 645 33 636T25 612H8ZM61 567H86L27 0H2L61 567Z" />
<glyph unicode="&#x12a;" glyph-name="Imacron" horiz-adv-x="89" d="M73 678H99L28 0H2L73 678ZM20 739H165L163 720H18L20 739Z" />
<glyph unicode="&#x12b;" glyph-name="imacron" horiz-adv-x="89" d="M32 634H129L127 615H30L32 634ZM61 567H86L27 0H2L61 567Z" />
<glyph unicode="&#x12c;" glyph-name="Ibreve" horiz-adv-x="89" d="M73 678H99L28 0H2L73 678ZM95 707Q61 707 40 728T21 784H40Q39 757 54 742T95 727Q120 727 136 741T156 784H175Q171 746 149 727T95 707Z" />
<glyph unicode="&#x12d;" glyph-name="ibreve" horiz-adv-x="89" d="M81 597Q54 597 38 617T25 674H44Q41 645 51 631T82 616Q100 616 111 629T126 674H144Q141 635 124 616T81 597ZM61 567H86L27 0H2L61 567Z" />
<glyph unicode="&#x12e;" glyph-name="Iogonek" horiz-adv-x="89" d="M28 0Q16 -9 3 -21T-10 -49Q-10 -57 -5 -63T17 -69H27L24 -90H14Q-12 -90 -23 -80T-35 -53Q-35 -34 -24 -22T2 0L73 678H99L28 0Z" />
<glyph unicode="&#x12f;" glyph-name="iogonek" horiz-adv-x="89" d="M73 678H98L95 647H69L73 678ZM61 567H86L27 0Q15 -9 2 -21T-11 -49Q-11 -57 -6 -63T16 -69H26L23 -90H13Q-13 -90 -24 -80T-36 -53Q-36 -34 -24 -22T2 0L61 567Z" />
<glyph unicode="&#x130;" glyph-name="Idotaccent" horiz-adv-x="89" d="M73 678H99L28 0H2L73 678ZM82 750H108L105 719H79L82 750Z" />
<glyph unicode="&#x131;" glyph-name="dotlessi" horiz-adv-x="89" d="M61 567H86L27 0H2L61 567Z" />
<glyph unicode="&#x132;" glyph-name="IJ" horiz-adv-x="377" d="M73 678H99L28 0H2L73 678ZM204 -5Q139 -5 114 32T95 129L109 260H134L120 128Q115 77 135 47T204 17Q251 17 274 41T303 111L362 678H388L329 112Q322 54 293 25T204 -5Z" />
<glyph unicode="&#x133;" glyph-name="ij" horiz-adv-x="89" d="M61 567H86L27 0H2L61 567ZM73 678H98L95 647H69L73 678ZM37 -69H48Q69 -69 76 -60T86 -30L149 567H174L112 -31Q108 -63 95 -76T50 -90H35L37 -69ZM161 678H186L183 647H157L161 678Z" />
<glyph unicode="&#x134;" glyph-name="Jcircumflex" horiz-adv-x="289" d="M212 719L291 787H305L372 718L370 700L297 765L210 700L212 719ZM117 -5Q52 -5 27 32T8 129L22 260H47L33 128Q28 77 48 47T117 17Q164 17 187 41T216 111L275 678H301L242 112Q235 54
206 25T117 -5Z" />
<glyph unicode="&#x135;" glyph-name="jcircumflex" horiz-adv-x="89" d="M21 615L79 682H93L135 615L133 595L85 660L19 595L21 615ZM-51 -69H-40Q-19 -69 -12 -60T-2 -30L61 567H86L24 -31Q20 -63 7 -76T-38 -90H-53L-51 -69Z" />
<glyph unicode="&#x136;" glyph-name="Kcommaaccent" horiz-adv-x="305" d="M369 -18H394V-20L372 -90H353L369 -18ZM64 343L28 0H2L73 678H99L65 353L310 678H339L90 347L269 0H241L64 343Z" />
<glyph unicode="&#x137;" glyph-name="kcommaaccent" horiz-adv-x="270" d="M352 -18H377V-20L355 -90H336L352 -18ZM58 297L27 0H2L73 678H98L58 302L260 567H287L84 298L234 0H207L58 297Z" />
<glyph unicode="&#x139;" glyph-name="Lacute" horiz-adv-x="256" d="M298 717L450 778L447 756L296 698L298 717ZM73 678H99L30 22H212L210 0H2L73 678Z" />
<glyph unicode="&#x13a;" glyph-name="lacute" horiz-adv-x="89" d="M38 717L190 778L187 756L36 698L38 717ZM73 678H98L27 0H2L73 678Z" />
<glyph unicode="&#x13b;" glyph-name="Lcommaaccent" horiz-adv-x="258" d="M348 -18H373V-20L351 -90H332L348 -18ZM73 678H99L30 22H212L210 0H2L73 678Z" />
<glyph unicode="&#x13c;" glyph-name="lcommaaccent" horiz-adv-x="89" d="M0 -18H25V-20L3 -90H-16L0 -18ZM73 678H98L27 0H2L73 678Z" />
<glyph unicode="&#x13d;" glyph-name="Lcaron" horiz-adv-x="256" d="M73 678H99L30 22H212L210 0H2L73 678ZM178 678H201V676L182 579H163L178 678Z" />
<glyph unicode="&#x13e;" glyph-name="lcaron" horiz-adv-x="89" d="M382 678H404V676L386 587H369L382 678ZM73 678H98L27 0H2L73 678Z" />
<glyph unicode="&#x13f;" glyph-name="Ldot" horiz-adv-x="258" d="M73 678H99L30 22H212L210 0H2L73 678ZM170 356H196L193 321H166L170 356Z" />
<glyph unicode="&#x140;" glyph-name="ldot" horiz-adv-x="128" d="M73 678H98L27 0H2L73 678ZM102 359H128L125 324H98L102 359Z" />
<glyph unicode="&#x141;" glyph-name="Lslash" horiz-adv-x="269" d="M4 277L43 296L83 678H109L70 309L209 376L207 352L68 285L40 22H223L221 0H12L40 271L2 253L4 277Z" />
<glyph unicode="&#x142;" glyph-name="lslash" horiz-adv-x="96" d="M10 356L46 387L77 678H102L74 411L115 446L112 420L71 385L31 0H6L44 361L7 330L10 356Z" />
<glyph unicode="&#x143;" glyph-name="Nacute" horiz-adv-x="326" d="M409 717L561 778L558 756L407 698L409 717ZM73 678H105L247 65L311 678H335L264 0H237L91 630L25 0H2L73 678Z" />
<glyph unicode="&#x144;" glyph-name="nacute" horiz-adv-x="308" d="M378 612L530 673L527 651L376 593L378 612ZM61 567H86L79 497H80Q86 510 96 523T120 548T152 565T194 572Q246 572 274 537T295 430L250 0H225L270 431Q276 489 255 519T186 550Q138 550 108
515T71 425L27 0H2L61 567Z" />
<glyph unicode="&#x145;" glyph-name="Ncommaaccent" horiz-adv-x="326" d="M374 -18H399V-20L377 -90H358L374 -18ZM73 678H105L247 65L311 678H335L264 0H237L91 630L25 0H2L73 678Z" />
<glyph unicode="&#x146;" glyph-name="ncommaaccent" horiz-adv-x="308" d="M372 -18H397V-20L375 -90H356L372 -18ZM61 567H86L79 497H80Q86 510 96 523T120 548T152 565T194 572Q246 572 274 537T295 430L250 0H225L270 431Q276 489 255 519T186 550Q138 550
108 515T71 425L27 0H2L61 567Z" />
<glyph unicode="&#x147;" glyph-name="Ncaron" horiz-adv-x="326" d="M391 770L393 789L466 724L554 789L552 770L472 702H458L391 770ZM73 678H105L247 65L311 678H335L264 0H237L91 630L25 0H2L73 678Z" />
<glyph unicode="&#x148;" glyph-name="ncaron" horiz-adv-x="308" d="M368 665L370 684L443 619L531 684L529 665L449 597H435L368 665ZM61 567H86L79 497H80Q86 510 96 523T120 548T152 565T194 572Q246 572 274 537T295 430L250 0H225L270 431Q276 489 255 519T186
550Q138 550 108 515T71 425L27 0H2L61 567Z" />
<glyph unicode="&#x14a;" glyph-name="Eng" horiz-adv-x="326" d="M163 -69H181Q210 -69 222 -59T236 -29L238 -3L91 630L25 0H2L73 678H105L247 65L311 678H335L261 -31Q258 -60 240 -75T182 -90H161L163 -69Z" />
<glyph unicode="&#x14b;" glyph-name="eng" horiz-adv-x="308" d="M172 -69H183Q204 -69 211 -60T221 -30L270 431Q276 489 255 519T186 550Q138 550 108 515T71 425L27 0H2L61 567H86L79 497H80Q86 510 96 523T120 548T152 565T194 572Q246 572 274 537T295 430L247
-31Q243 -63 230 -76T185 -90H170L172 -69Z" />
<glyph unicode="&#x14c;" glyph-name="Omacron" horiz-adv-x="349" d="M404 739H549L547 720H402L404 739ZM153 17Q184 17 206 27T244 55T267 96T278 145L317 516Q320 546 316 572T299 618T263 649T207 661Q177 661 155 651T117 624T93 583T81 533L43 162Q40 132
44 106T61 60T97 29T153 17ZM153 -5Q113 -5 86 8T42 45T19 100T17 167L55 531Q58 562 68 590T97 638T143 671T208 683Q248 683 275 670T319 633T341 578T343 511L305 147Q302 116 292 89T264 40T218 7T153 -5Z" />
<glyph unicode="&#x14d;" glyph-name="omacron" horiz-adv-x="318" d="M380 634H525L523 615H378L380 634ZM135 -5Q71 -5 39 34T14 142L45 434Q52 502 87 537T182 572Q246 572 278 533T303 425L272 132Q265 64 230 30T135 -5ZM135 17Q234 17 246 131L278 429Q284
486 259 518T182 550Q82 550 70 435L39 137Q32 80 58 49T135 17Z" />
<glyph unicode="&#x14e;" glyph-name="Obreve" horiz-adv-x="349" d="M153 17Q184 17 206 27T244 55T267 96T278 145L317 516Q320 546 316 572T299 618T263 649T207 661Q177 661 155 651T117 624T93 583T81 533L43 162Q40 132 44 106T61 60T97 29T153 17ZM153
-5Q113 -5 86 8T42 45T19 100T17 167L55 531Q58 562 68 590T97 638T143 671T208 683Q248 683 275 670T319 633T341 578T343 511L305 147Q302 116 292 89T264 40T218 7T153 -5ZM481 707Q447 707 426 728T407 784H426Q425 757 440 742T481 727Q506 727 522 741T542
784H561Q557 746 535 727T481 707Z" />
<glyph unicode="&#x14f;" glyph-name="obreve" horiz-adv-x="318" d="M135 -5Q71 -5 39 34T14 142L45 434Q52 502 87 537T182 572Q246 572 278 533T303 425L272 132Q265 64 230 30T135 -5ZM135 17Q234 17 246 131L278 429Q284 486 259 518T182 550Q82 550 70 435L39
137Q32 80 58 49T135 17ZM454 597Q420 597 399 618T380 674H399Q398 647 413 632T454 617Q479 617 495 631T515 674H534Q530 636 508 617T454 597Z" />
<glyph unicode="&#x150;" glyph-name="Ohungarumlaut" horiz-adv-x="349" d="M473 787H497L450 700H430L473 787ZM541 787H565L518 700H498L541 787ZM153 17Q184 17 206 27T244 55T267 96T278 145L317 516Q320 546 316 572T299 618T263 649T207 661Q177 661 155
651T117 624T93 583T81 533L43 162Q40 132 44 106T61 60T97 29T153 17ZM153 -5Q113 -5 86 8T42 45T19 100T17 167L55 531Q58 562 68 590T97 638T143 671T208 683Q248 683 275 670T319 633T341 578T343 511L305 147Q302 116 292 89T264 40T218 7T153 -5Z" />
<glyph unicode="&#x151;" glyph-name="ohungarumlaut" horiz-adv-x="318" d="M448 682H472L425 595H405L448 682ZM516 682H540L493 595H473L516 682ZM135 -5Q71 -5 39 34T14 142L45 434Q52 502 87 537T182 572Q246 572 278 533T303 425L272 132Q265 64 230 30T135
-5ZM135 17Q234 17 246 131L278 429Q284 486 259 518T182 550Q82 550 70 435L39 137Q32 80 58 49T135 17Z" />
<glyph unicode="&#x152;" glyph-name="OE" horiz-adv-x="555" d="M150 -5Q111 -5 84 8T41 45T19 100T17 167L55 531Q58 563 69 590T98 638T144 671T208 683Q263 683 290 658T327 595L335 678H567L565 656H359L328 356H480L477 334H325L293 22H502L500 0H264L272
73Q258 41 231 18T150 -5ZM154 17Q215 17 244 54T279 147L318 516Q325 580 299 620T209 661Q178 661 156 651T117 624T93 583T81 533L42 162Q39 132 44 106T62 60T98 29T154 17Z" />
<glyph unicode="&#x153;" glyph-name="oe" horiz-adv-x="550" d="M134 -5Q71 -5 39 34T14 142L45 434Q52 502 87 537T181 572Q228 572 256 551T295 489Q326 572 418 572Q481 572 512 535T535 428L521 294H289L273 140Q266 80 292 49T372 17Q423 17 448 44T479
131L484 181H509L504 130Q496 60 465 28T372 -5Q325 -5 296 16T256 78Q226 -5 134 -5ZM135 17Q234 17 246 131L278 429Q284 486 259 518T182 550Q82 550 70 435L39 137Q32 80 58 49T135 17ZM498 315L510 429Q516 488 492 519T417 550Q318 550 304 436L291 315H498Z"
/>
<glyph unicode="&#x154;" glyph-name="Racute" horiz-adv-x="303" d="M387 717L539 778L536 756L385 698L387 717ZM64 342L28 0H2L73 678H188Q316 678 302 557L291 443Q285 388 254 361T160 333H97L269 0H241L64 342ZM158 355Q210 355 234 376T264 443L276 558Q281
608 260 632T186 656H96L65 355H158Z" />
<glyph unicode="&#x155;" glyph-name="racute" horiz-adv-x="182" d="M330 612L482 673L479 651L328 593L330 612ZM61 567H86L79 494H80Q92 524 121 546T193 569L190 543H186Q144 543 111 515T72 431L27 0H2L61 567Z" />
<glyph unicode="&#x156;" glyph-name="Rcommaaccent" horiz-adv-x="303" d="M374 -18H399V-20L377 -90H358L374 -18ZM64 342L28 0H2L73 678H188Q316 678 302 557L291 443Q285 388 254 361T160 333H97L269 0H241L64 342ZM158 355Q210 355 234 376T264 443L276 558Q281
608 260 632T186 656H96L65 355H158Z" />
<glyph unicode="&#x157;" glyph-name="rcommaaccent" horiz-adv-x="182" d="M1 -18H26V-20L4 -90H-15L1 -18ZM61 567H86L79 494H80Q92 524 121 546T193 569L190 543H186Q144 543 111 515T72 431L27 0H2L61 567Z" />
<glyph unicode="&#x158;" glyph-name="Rcaron" horiz-adv-x="303" d="M369 770L371 789L444 724L532 789L530 770L450 702H436L369 770ZM64 342L28 0H2L73 678H188Q316 678 302 557L291 443Q285 388 254 361T160 333H97L269 0H241L64 342ZM158 355Q210 355 234
376T264 443L276 558Q281 608 260 632T186 656H96L65 355H158Z" />
<glyph unicode="&#x159;" glyph-name="rcaron" horiz-adv-x="182" d="M312 665L314 684L387 619L475 684L473 665L393 597H379L312 665ZM61 567H86L79 494H80Q92 524 121 546T193 569L190 543H186Q144 543 111 515T72 431L27 0H2L61 567Z" />
<glyph unicode="&#x15a;" glyph-name="Sacute" horiz-adv-x="317" d="M395 717L547 778L544 756L393 698L395 717ZM138 -5Q69 -5 35 34T8 135L18 237H44L33 134Q28 83 54 50T139 17Q193 17 218 45T249 117L253 153Q258 197 243 231T189 309L129 377Q108 401 93
421T69 460T56 500T55 545L58 572Q64 628 99 655T189 683Q254 683 286 649T312 553L303 477H278L286 555Q291 607 265 634T189 661Q144 661 116 640T83 571L80 545Q78 524 81 506T92 470T115 435T147 396L207 329Q227 306 242 286T266 244T278 201T279 151L275
116Q270 62 237 29T138 -5Z" />
<glyph unicode="&#x15b;" glyph-name="sacute" horiz-adv-x="290" d="M368 612L520 673L517 651L366 593L368 612ZM122 -5Q56 -5 26 30T3 124L9 178H33L27 123Q22 74 45 46T122 17Q175 17 197 43T224 116L226 134Q230 171 219 198T168 260L105 313Q67 346 51 377T40
451L42 469Q47 516 77 544T164 572Q224 572 253 542T276 450L271 402H246L251 450Q256 502 234 526T164 550Q117 550 94 528T66 467L64 449Q60 416 72 390T123 331L185 278Q207 260 220 243T241 208T251 173T251 133L249 115Q242 58 215 27T122 -5Z" />
<glyph unicode="&#x15c;" glyph-name="Scircumflex" horiz-adv-x="317" d="M372 719L451 787H465L532 718L530 700L457 765L370 700L372 719ZM138 -5Q69 -5 35 34T8 135L18 237H44L33 134Q28 83 54 50T139 17Q193 17 218 45T249 117L253 153Q258 197 243 231T189
309L129 377Q108 401 93 421T69 460T56 500T55 545L58 572Q64 628 99 655T189 683Q254 683 286 649T312 553L303 477H278L286 555Q291 607 265 634T189 661Q144 661 116 640T83 571L80 545Q78 524 81 506T92 470T115 435T147 396L207 329Q227 306 242 286T266 244T278
201T279 151L275 116Q270 62 237 29T138 -5Z" />
<glyph unicode="&#x15d;" glyph-name="scircumflex" horiz-adv-x="290" d="M352 614L431 682H445L512 613L510 595L437 660L350 595L352 614ZM122 -5Q56 -5 26 30T3 124L9 178H33L27 123Q22 74 45 46T122 17Q175 17 197 43T224 116L226 134Q230 171 219 198T168
260L105 313Q67 346 51 377T40 451L42 469Q47 516 77 544T164 572Q224 572 253 542T276 450L271 402H246L251 450Q256 502 234 526T164 550Q117 550 94 528T66 467L64 449Q60 416 72 390T123 331L185 278Q207 260 220 243T241 208T251 173T251 133L249 115Q242
58 215 27T122 -5Z" />
<glyph unicode="&#x15e;" glyph-name="Scedilla" horiz-adv-x="317" d="M86 -76Q108 -76 127 -73T147 -55Q147 -39 115 -39H105L110 -3Q56 5 29 42T8 135L18 237H44L33 134Q28 83 54 50T139 17Q193 17 218 45T249 117L253 153Q258 197 243 231T189 309L129 377Q108
401 93 421T69 460T56 500T55 545L58 572Q64 628 99 655T189 683Q254 683 286 649T312 553L303 477H278L286 555Q291 607 265 634T189 661Q144 661 116 640T83 571L80 545Q78 524 81 506T92 470T115 435T147 396L207 329Q227 306 242 286T266 244T278 201T279 151L275
116Q270 62 237 29T138 -5H126L124 -22Q147 -22 159 -31T171 -54Q171 -77 146 -84T84 -92L86 -76Z" />
<glyph unicode="&#x15f;" glyph-name="scedilla" horiz-adv-x="290" d="M76 -76Q98 -76 117 -73T137 -55Q137 -39 105 -39H95L99 -4Q45 2 21 36T3 124L9 178H33L27 123Q22 74 45 46T122 17Q175 17 197 43T224 116L226 134Q230 171 219 198T168 260L105 313Q67
346 51 377T40 451L42 469Q47 516 77 544T164 572Q224 572 253 542T276 450L271 402H246L251 450Q256 502 234 526T164 550Q117 550 94 528T66 467L64 449Q60 416 72 390T123 331L185 278Q207 260 220 243T241 208T251 173T251 133L249 115Q242 58 215 27T122 -5H116L114
-22Q137 -22 149 -31T161 -54Q161 -77 136 -84T74 -92L76 -76Z" />
<glyph unicode="&#x160;" glyph-name="Scaron" horiz-adv-x="317" d="M377 770L379 789L452 724L540 789L538 770L458 702H444L377 770ZM138 -5Q69 -5 35 34T8 135L18 237H44L33 134Q28 83 54 50T139 17Q193 17 218 45T249 117L253 153Q258 197 243 231T189 309L129
377Q108 401 93 421T69 460T56 500T55 545L58 572Q64 628 99 655T189 683Q254 683 286 649T312 553L303 477H278L286 555Q291 607 265 634T189 661Q144 661 116 640T83 571L80 545Q78 524 81 506T92 470T115 435T147 396L207 329Q227 306 242 286T266 244T278 201T279
151L275 116Q270 62 237 29T138 -5Z" />
<glyph unicode="&#x161;" glyph-name="scaron" horiz-adv-x="290" d="M356 665L358 684L431 619L519 684L517 665L437 597H423L356 665ZM122 -5Q56 -5 26 30T3 124L9 178H33L27 123Q22 74 45 46T122 17Q175 17 197 43T224 116L226 134Q230 171 219 198T168 260L105
313Q67 346 51 377T40 451L42 469Q47 516 77 544T164 572Q224 572 253 542T276 450L271 402H246L251 450Q256 502 234 526T164 550Q117 550 94 528T66 467L64 449Q60 416 72 390T123 331L185 278Q207 260 220 243T241 208T251 173T251 133L249 115Q242 58 215 27T122
-5Z" />
<glyph unicode="&#x162;" glyph-name="Tcommaaccent" horiz-adv-x="294" d="M359 -18H384V-20L362 -90H343L359 -18ZM52 678H325L323 656H199L131 0H105L173 656H50L52 678Z" />
<glyph unicode="&#x163;" glyph-name="tcommaaccent" horiz-adv-x="192" d="M326 -18H351V-20L329 -90H310L326 -18ZM41 567H86L98 678H124L112 567H198L196 547H110L61 85Q58 55 67 38T111 21H140L139 0H109Q61 0 46 22T36 87L84 547H39L41 567Z" />
<glyph unicode="&#x164;" glyph-name="Tcaron" horiz-adv-x="296" d="M373 770L375 789L448 724L536 789L534 770L454 702H440L373 770ZM52 678H325L323 656H199L131 0H105L173 656H50L52 678Z" />
<glyph unicode="&#x165;" glyph-name="tcaron" horiz-adv-x="192" d="M429 678H451V676L433 587H416L429 678ZM41 567H86L98 678H124L112 567H198L196 547H110L61 85Q58 55 67 38T111 21H140L139 0H109Q61 0 46 22T36 87L84 547H39L41 567Z" />
<glyph unicode="&#x166;" glyph-name="Tbar" horiz-adv-x="296" d="M52 678H325L323 656H199L179 456H260L258 436H177L131 0H105L150 436H71L73 456H152L173 656H50L52 678Z" />
<glyph unicode="&#x167;" glyph-name="tbar" horiz-adv-x="192" d="M41 567H86L98 678H124L112 567H198L196 547H110L100 452H186L185 434H98L61 85Q58 55 67 38T111 21H140L139 0H109Q61 0 46 22T36 87L72 434H27L29 452H74L84 547H39L41 567Z" />
<glyph unicode="&#x168;" glyph-name="Utilde" horiz-adv-x="334" d="M145 -5Q106 -5 80 7T38 40T17 91T16 157L71 678H97L42 153Q39 123 43 98T59 55T92 27T146 17Q176 17 197 26T231 50T252 88T263 136L320 678H345L288 137Q285 106 276 80T250 35T207 6T145
-5ZM389 722Q391 744 403 759T438 774Q449 774 458 770T477 760T495 750T513 745Q527 745 533 755T542 778H560Q558 755 546 741T511 726Q500 726 491 730T472 740T454 749T436 754Q422 754 415 745T406 722H389Z" />
<glyph unicode="&#x169;" glyph-name="utilde" horiz-adv-x="311" d="M119 -5Q66 -5 36 27T13 137L58 567H83L38 136Q31 71 55 44T124 17Q173 17 201 52T236 142L281 567H306L247 0H222L229 69H228Q215 42 190 19T119 -5ZM362 612Q364 634 376 649T411 664Q422
664 431 660T450 650T468 640T486 635Q500 635 506 645T515 668H533Q531 645 519 631T484 616Q473 616 464 620T445 630T427 639T409 644Q395 644 388 635T379 612H362Z" />
<glyph unicode="&#x16a;" glyph-name="Umacron" horiz-adv-x="334" d="M145 -5Q106 -5 80 7T38 40T17 91T16 157L71 678H97L42 153Q39 123 43 98T59 55T92 27T146 17Q176 17 197 26T231 50T252 88T263 136L320 678H345L288 137Q285 106 276 80T250 35T207 6T145
-5ZM398 739H543L541 720H396L398 739Z" />
<glyph unicode="&#x16b;" glyph-name="umacron" horiz-adv-x="311" d="M119 -5Q66 -5 36 27T13 137L58 567H83L38 136Q31 71 55 44T124 17Q173 17 201 52T236 142L281 567H306L247 0H222L229 69H228Q215 42 190 19T119 -5ZM372 634H517L515 615H370L372 634Z" />
<glyph unicode="&#x16c;" glyph-name="Ubreve" horiz-adv-x="334" d="M145 -5Q106 -5 80 7T38 40T17 91T16 157L71 678H97L42 153Q39 123 43 98T59 55T92 27T146 17Q176 17 197 26T231 50T252 88T263 136L320 678H345L288 137Q285 106 276 80T250 35T207 6T145
-5ZM471 702Q437 702 416 723T397 779H416Q415 752 430 737T471 722Q496 722 512 736T532 779H551Q547 741 525 722T471 702Z" />
<glyph unicode="&#x16d;" glyph-name="ubreve" horiz-adv-x="311" d="M119 -5Q66 -5 36 27T13 137L58 567H83L38 136Q31 71 55 44T124 17Q173 17 201 52T236 142L281 567H306L247 0H222L229 69H228Q215 42 190 19T119 -5ZM445 597Q411 597 390 618T371 674H390Q389
647 404 632T445 617Q470 617 486 631T506 674H525Q521 636 499 617T445 597Z" />
<glyph unicode="&#x16e;" glyph-name="Uring" horiz-adv-x="334" d="M469 672Q446 672 430 688T414 728Q414 751 430 767T469 784Q494 784 510 768T526 728Q526 704 510 688T469 672ZM469 687Q486 687 497 699T509 728Q509 745 498 757T469 769Q452 769 442 757T431
728Q431 711 441 699T469 687ZM145 -5Q106 -5 80 7T38 40T17 91T16 157L71 678H97L42 153Q39 123 43 98T59 55T92 27T146 17Q176 17 197 26T231 50T252 88T263 136L320 678H345L288 137Q285 106 276 80T250 35T207 6T145 -5Z" />
<glyph unicode="&#x16f;" glyph-name="uring" horiz-adv-x="311" d="M444 592Q421 592 405 608T389 648Q389 671 405 687T444 704Q469 704 485 688T501 648Q501 624 485 608T444 592ZM444 607Q461 607 472 619T484 648Q484 665 473 677T444 689Q427 689 417 677T406
648Q406 631 416 619T444 607ZM119 -5Q66 -5 36 27T13 137L58 567H83L38 136Q31 71 55 44T124 17Q173 17 201 52T236 142L281 567H306L247 0H222L229 69H228Q215 42 190 19T119 -5Z" />
<glyph unicode="&#x170;" glyph-name="Uhungarumlaut" horiz-adv-x="334" d="M145 -5Q106 -5 80 7T38 40T17 91T16 157L71 678H97L42 153Q39 123 43 98T59 55T92 27T146 17Q176 17 197 26T231 50T252 88T263 136L320 678H345L288 137Q285 106 276 80T250 35T207
6T145 -5ZM467 787H491L444 700H424L467 787ZM535 787H559L512 700H492L535 787Z" />
<glyph unicode="&#x171;" glyph-name="uhungarumlaut" horiz-adv-x="311" d="M119 -5Q66 -5 36 27T13 137L58 567H83L38 136Q31 71 55 44T124 17Q173 17 201 52T236 142L281 567H306L247 0H222L229 69H228Q215 42 190 19T119 -5ZM441 682H465L418 595H398L441
682ZM509 682H533L486 595H466L509 682Z" />
<glyph unicode="&#x172;" glyph-name="Uogonek" horiz-adv-x="334" d="M173 -90Q147 -90 136 -79T125 -53Q125 -34 135 -24T157 -5H145Q106 -5 80 7T38 40T17 91T16 157L71 678H97L42 153Q39 123 43 98T59 55T92 27T146 17Q176 17 197 26T231 50T252 88T263 136L320
678H345L288 137Q283 89 265 55T207 6Q188 -2 169 -16T150 -48Q150 -57 155 -63T176 -69H187L184 -90H173Z" />
<glyph unicode="&#x173;" glyph-name="uogonek" horiz-adv-x="311" d="M229 69H228Q215 42 190 19T119 -5Q66 -5 36 27T13 137L58 567H83L38 136Q31 71 55 44T124 17Q173 17 201 52T236 142L281 567H306L247 0Q235 -9 222 -21T209 -49Q209 -57 214 -63T236 -69H246L243
-90H233Q207 -90 196 -80T184 -53Q184 -34 195 -22T222 0L229 69Z" />
<glyph unicode="&#x174;" glyph-name="Wcircumflex" horiz-adv-x="481" d="M205 724L284 792H298L365 723L363 705L290 770L203 705L205 724ZM55 678H81L103 53H104L271 678H295L332 53H333L484 678H508L343 0H312L276 608H275L112 0H80L55 678Z" />
<glyph unicode="&#x175;" glyph-name="wcircumflex" horiz-adv-x="450" d="M178 614L257 682H271L338 613L336 595L263 660L176 595L178 614ZM36 567H61L92 52H93L243 567H267L306 52H307L448 567H472L315 0H287L249 512L99 0H70L36 567Z" />
<glyph unicode="&#x176;" glyph-name="Ycircumflex" horiz-adv-x="305" d="M138 258L52 678H79L154 298H155L309 678H335L164 259L137 0H111L138 258ZM375 724L454 792H468L535 723L533 705L460 770L373 705L375 724Z" />
<glyph unicode="&#x177;" glyph-name="ycircumflex" horiz-adv-x="286" d="M-8 -69H17Q33 -69 43 -67T59 -58T70 -43T80 -19L108 58H100L33 567H58L120 96H121L286 567H312L103 -25Q97 -43 91 -55T75 -75T52 -86T18 -90H-11L-8 -69ZM355 614L434 682H448L515 613L513
595L440 660L353 595L355 614Z" />
<glyph unicode="&#x178;" glyph-name="Ydieresis" horiz-adv-x="305" d="M138 258L52 678H79L154 298H155L309 678H335L164 259L137 0H111L138 258ZM410 750H435L431 719H407L410 750ZM482 750H506L503 719H478L482 750Z" />
<glyph unicode="&#x179;" glyph-name="Zacute" horiz-adv-x="298" d="M399 717L551 778L548 756L397 698L399 717ZM-10 22L287 656H78L81 678H318L316 656L18 22H240L238 0H-12L-10 22Z" />
<glyph unicode="&#x17a;" glyph-name="zacute" horiz-adv-x="273" d="M376 612L528 673L525 651L374 593L376 612ZM-9 21L252 546H64L66 567H282L280 546L19 21H219L218 0H-10L-9 21Z" />
<glyph unicode="&#x17b;" glyph-name="Zdotaccent" horiz-adv-x="298" d="M-10 22L287 656H78L81 678H318L316 656L18 22H240L238 0H-12L-10 22ZM448 750H474L471 719H445L448 750Z" />
<glyph unicode="&#x17c;" glyph-name="zdotaccent" horiz-adv-x="273" d="M-9 21L252 546H64L66 567H282L280 546L19 21H219L218 0H-10L-9 21ZM427 678H453L450 647H424L427 678Z" />
<glyph unicode="&#x17d;" glyph-name="Zcaron" horiz-adv-x="298" d="M381 770L383 789L456 724L544 789L542 770L462 702H448L381 770ZM-10 22L287 656H78L81 678H318L316 656L18 22H240L238 0H-12L-10 22Z" />
<glyph unicode="&#x17e;" glyph-name="zcaron" horiz-adv-x="273" d="M357 665L359 684L432 619L520 684L518 665L438 597H424L357 665ZM-9 21L252 546H64L66 567H282L280 546L19 21H219L218 0H-10L-9 21Z" />
<glyph unicode="&#x192;" glyph-name="florin" horiz-adv-x="224" d="M28 421H88L115 600Q121 642 142 660T208 678H241L238 657H210Q175 657 161 644T141 598L115 421H213L211 400H112L39 -90H14L85 400H26L28 421Z" />
<glyph unicode="&#x218;" glyph-name="Scommaaccent" horiz-adv-x="317" d="M371 -18H396V-20L374 -90H355L371 -18ZM138 -5Q69 -5 35 34T8 135L18 237H44L33 134Q28 83 54 50T139 17Q193 17 218 45T249 117L253 153Q258 197 243 231T189 309L129 377Q108 401
93 421T69 460T56 500T55 545L58 572Q64 628 99 655T189 683Q254 683 286 649T312 553L303 477H278L286 555Q291 607 265 634T189 661Q144 661 116 640T83 571L80 545Q78 524 81 506T92 470T115 435T147 396L207 329Q227 306 242 286T266 244T278 201T279 151L275
116Q270 62 237 29T138 -5Z" />
<glyph unicode="&#x219;" glyph-name="scommaaccent" horiz-adv-x="290" d="M355 -18H380V-20L358 -90H339L355 -18ZM122 -5Q56 -5 26 30T3 124L9 178H33L27 123Q22 74 45 46T122 17Q175 17 197 43T224 116L226 134Q230 171 219 198T168 260L105 313Q67 346 51
377T40 451L42 469Q47 516 77 544T164 572Q224 572 253 542T276 450L271 402H246L251 450Q256 502 234 526T164 550Q117 550 94 528T66 467L64 449Q60 416 72 390T123 331L185 278Q207 260 220 243T241 208T251 173T251 133L249 115Q242 58 215 27T122 -5Z" />
<glyph unicode="&#x21a;" glyph-name="uni021A" horiz-adv-x="294" d="M359 -18H384V-20L362 -90H343L359 -18ZM52 678H325L323 656H199L131 0H105L173 656H50L52 678Z" />
<glyph unicode="&#x21b;" glyph-name="uni021B" horiz-adv-x="192" d="M326 -18H351V-20L329 -90H310L326 -18ZM41 567H86L98 678H124L112 567H198L196 547H110L61 85Q58 55 67 38T111 21H140L139 0H109Q61 0 46 22T36 87L84 547H39L41 567Z" />
<glyph unicode="&#x237;" glyph-name="uni0237" horiz-adv-x="89" d="M-51 -69H-40Q-19 -69 -12 -60T-2 -30L61 567H86L24 -31Q20 -63 7 -76T-38 -90H-53L-51 -69Z" />
<glyph unicode="&#x2c6;" glyph-name="circumflex" horiz-adv-x="400" d="M154 614L233 682H247L314 613L312 595L239 660L152 595L154 614Z" />
<glyph unicode="&#x2c7;" glyph-name="caron" horiz-adv-x="400" d="M159 665L161 684L234 619L322 684L320 665L240 597H226L159 665Z" />
<glyph unicode="&#x2d8;" glyph-name="breve" horiz-adv-x="400" d="M237 597Q203 597 182 618T163 674H182Q181 647 196 632T237 617Q262 617 278 631T298 674H317Q313 636 291 617T237 597Z" />
<glyph unicode="&#x2d9;" glyph-name="dotaccent" horiz-adv-x="400" d="M227 678H253L250 647H224L227 678Z" />
<glyph unicode="&#x2da;" glyph-name="ring" horiz-adv-x="400" d="M236 592Q213 592 197 608T181 648Q181 671 197 687T236 704Q261 704 277 688T293 648Q293 624 277 608T236 592ZM236 607Q253 607 264 619T276 648Q276 665 265 677T236 689Q219 689 209 677T198
648Q198 631 208 619T236 607Z" />
<glyph unicode="&#x2db;" glyph-name="ogonek" horiz-adv-x="400" d="M167 -90Q141 -90 130 -81T118 -55Q118 -35 132 -23T160 0H182Q169 -10 156 -22T142 -49Q142 -57 147 -63T170 -69H179L177 -90H167Z" />
<glyph unicode="&#x2dc;" glyph-name="tilde" horiz-adv-x="400" d="M150 612Q152 634 164 649T199 664Q210 664 219 660T238 650T256 640T274 635Q288 635 294 645T303 668H321Q319 645 307 631T272 616Q261 616 252 620T233 630T215 639T197 644Q183 644 176
635T167 612H150Z" />
<glyph unicode="&#x2dd;" glyph-name="hungarumlaut" horiz-adv-x="400" d="M231 682H255L208 595H188L231 682ZM299 682H323L276 595H256L299 682Z" />
</font>
</defs>
</svg>
