<?xml version="1.0" standalone="no"?> <!DOCTYPE svg PUBLIC "-//W3C//DTD SVG 1.0//EN" "http://www.w3.org/TR/2001/REC-SVG-20010904/DTD/svg10.dtd" > <svg xmlns="http://www.w3.org/2000/svg" width="100%" height="100%">
<defs >
<font horiz-adv-x="377" ><font-face
    font-family=""
    units-per-em="1000"
    panose-1="2 11 9 3 3 2 2 4 2 4"
    ascent="698"
    descent="-90"
    alphabetic="0" />
<missing-glyph horiz-adv-x="249" />
<glyph unicode=" " glyph-name="space" horiz-adv-x="94" />
<glyph unicode="!" glyph-name="exclam" horiz-adv-x="184" d="M6 129H143L129 0H-8L6 129ZM58 678H208L110 169H46L58 678Z" />
<glyph unicode="&quot;" glyph-name="quotedbl" horiz-adv-x="292" d="M49 678H176L132 513H52L49 678ZM189 678H316L273 513H192L189 678Z" />
<glyph unicode="#" glyph-name="numbersign" horiz-adv-x="361" d="M266 678H346L313 497H370L359 392H294L280 316H335L325 210H260L222 0H143L181 210H139L101 0H21L59 210H4L15 316H79L93 392H39L50 497H112L145 678H225L192 497H233L266 678ZM159 316H200L214
392H173L159 316Z" />
<glyph unicode="$" glyph-name="dollar" horiz-adv-x="381" d="M84 3Q51 15 31 36T4 86T0 150L9 237H140L131 148Q126 99 169 99Q189 99 199 110T211 142L214 170Q216 196 208 216T179 257L116 325Q93 350 77 371T52 415T39 463T39 519L41 538Q44 569 55 596T89
643T143 675Q160 681 181 684L186 728H290L285 680Q330 669 353 640Q391 593 383 515L379 477H250L255 530Q260 579 219 579Q180 579 175 535L174 525Q172 500 183 481T214 440L282 367Q303 344 318 324T343 282T356 236T357 182L353 148Q345 75 300 33Q267 2 208
-6L203 -59H100L106 -3Q94 0 84 3Z" />
<glyph unicode="%" glyph-name="percent" horiz-adv-x="559" d="M477 678H560L96 0H13L477 678ZM174 388Q138 388 113 399T71 430T49 476T45 533L48 554Q54 615 90 651T193 687Q228 687 253 676T295 646T317 599T321 541L318 520Q312 460 277 424T174 388ZM177
471Q194 471 200 482T209 511L215 563Q217 582 212 593T189 604Q171 604 165 593T156 564L151 512Q149 493 154 482T177 471ZM380 -9Q344 -9 319 2T277 33T255 79T251 136L253 157Q260 217 296 253T398 290Q434 290 459 279T501 249T523 202T526 144L524 123Q518
62 483 26T380 -9ZM382 74Q399 74 406 85T415 114L421 166Q423 185 418 196T395 207Q377 207 371 196T362 167L356 115Q354 96 359 85T382 74Z" />
<glyph unicode="&amp;" glyph-name="ampersand" horiz-adv-x="400" d="M125 -9Q59 -9 26 34T0 152L11 253Q16 299 37 325T107 362Q69 372 54 405T44 482L49 534Q57 606 100 646T228 687Q320 687 354 641T379 510L375 472H245L250 526Q252 547 247 560T223 574Q203
574 195 561T185 527L178 456Q172 409 220 409H403L392 307H369L337 0H232L241 87Q227 42 200 17T125 -9ZM170 294Q159 281 157 258L145 150Q140 104 178 104Q198 104 206 117T217 154L233 307H204Q181 307 170 294Z" />
<glyph unicode="&apos;" glyph-name="quotesingle" horiz-adv-x="152" d="M49 678H176L132 513H52L49 678Z" />
<glyph unicode="(" glyph-name="parenleft" horiz-adv-x="248" d="M192 -90Q100 -86 51 -35T12 125L51 504Q57 557 74 593T120 652T188 685T275 698L266 614Q214 609 194 580T168 502L128 112Q122 61 137 30T201 -6L192 -90Z" />
<glyph unicode=")" glyph-name="parenright" horiz-adv-x="248" d="M-16 -6Q10 -3 27 6T56 31T73 66T82 110L122 500Q128 551 114 580T49 614L58 698Q104 696 140 683T200 645T234 582T239 489L199 104Q193 50 176 14T130 -44T62 -77T-25 -90L-16 -6Z" />
<glyph unicode="*" glyph-name="asterisk" horiz-adv-x="296" d="M170 521L132 420L53 483L142 540L42 542L86 640L158 575L133 678H239L194 575L280 637L303 538L203 539L284 479L191 418L170 521Z" />
<glyph unicode="+" glyph-name="plus" horiz-adv-x="349" d="M26 388H131L143 501H251L239 388H343L332 285H228L216 172H108L120 285H15L26 388Z" />
<glyph unicode="," glyph-name="comma" horiz-adv-x="184" d="M13 133H148L146 113L69 -47H-17L13 133Z" />
<glyph unicode="-" glyph-name="hyphen" horiz-adv-x="207" d="M24 370H200L189 260H12L24 370Z" />
<glyph unicode="." glyph-name="period" horiz-adv-x="186" d="M9 133H145L131 0H-5L9 133Z" />
<glyph unicode="/" glyph-name="slash" horiz-adv-x="263" d="M188 698H299L69 -90H-42L188 698Z" />
<glyph unicode="0" glyph-name="zero" horiz-adv-x="397" d="M181 104Q201 104 209 117T220 153L259 523Q261 546 255 560T227 574Q207 574 199 561T188 525L149 154Q147 131 154 118T181 104ZM179 -9Q132 -9 98 5T42 46T13 109T9 190L42 507Q51 590 95 638T229
687Q276 687 310 672T365 631T395 568T399 488L366 171Q361 130 349 97T314 40T258 4T179 -9Z" />
<glyph unicode="1" glyph-name="one" horiz-adv-x="271" d="M114 481H113L30 409H28L44 559L163 678H279L208 0H63L114 481Z" />
<glyph unicode="2" glyph-name="two" horiz-adv-x="360" d="M0 128Q3 156 9 178T27 222T58 264T105 310L175 374Q188 386 197 396T211 418T220 443T226 475L232 537Q236 578 205 578Q176 578 172 537L163 451H33L42 541Q50 610 93 648T214 687Q303 687 339 646T368
526L363 471Q360 444 356 423T344 382T321 344T282 303L194 223Q171 201 156 181T138 128L136 110H319L307 0H-13L0 128Z" />
<glyph unicode="3" glyph-name="three" horiz-adv-x="376" d="M163 -9Q115 -9 83 4T31 40T5 97T2 171L11 257H142L131 150Q129 129 136 117T164 104Q182 104 189 115T199 148L211 261Q214 284 207 295T175 307H123L133 409H178Q201 409 216 419T233 455L241 527Q246
574 212 574Q192 574 184 563T174 530L166 448H35L43 518Q47 556 58 587T90 641T143 675T223 687Q311 687 348 642T378 523L372 466Q367 423 344 398T283 361Q327 348 343 315T354 237L344 142Q336 70 294 31T163 -9Z" />
<glyph unicode="4" glyph-name="four" horiz-adv-x="399" d="M184 98H-8L0 181L238 678H382L332 204H374L362 98H320L311 0H174L184 98ZM198 204L223 440H222L118 204H198Z" />
<glyph unicode="5" glyph-name="five" horiz-adv-x="383" d="M167 -9Q84 -9 42 33T10 165L18 243H149L139 152Q137 129 143 117T170 104Q189 104 195 116T205 150L222 313Q224 333 219 346T194 360Q177 360 169 349T158 315L155 294H24L64 678H387L375 568H185L170
423H171Q187 442 210 454T266 467Q290 467 310 459T344 431T364 380T366 305L349 141Q345 107 333 79T299 32T245 2T167 -9Z" />
<glyph unicode="6" glyph-name="six" horiz-adv-x="393" d="M174 -9Q124 -9 90 5T37 46T11 107T9 184L42 505Q46 545 57 578T91 636T146 673T229 687Q282 687 315 673T367 635T389 579T390 508L386 478H254L258 516Q262 547 255 560T225 574Q204 574 196 560T186
522L171 378H172Q186 403 208 417T263 431Q326 431 353 386T372 253L362 156Q358 117 346 86T312 34T256 2T174 -9ZM179 102Q199 102 208 114T219 148L232 276Q234 299 227 311T200 323Q180 323 171 311T160 278L147 150Q145 127 152 115T179 102Z" />
<glyph unicode="7" glyph-name="seven" horiz-adv-x="331" d="M51 678H356L344 565L148 0H-1L202 567H39L51 678Z" />
<glyph unicode="8" glyph-name="eight" horiz-adv-x="395" d="M176 -9Q127 -9 93 5T38 45T9 104T5 179L12 249Q17 300 38 333T103 380Q41 416 50 502L52 525Q60 606 102 646T228 687Q317 687 358 639T390 509L388 487Q383 442 365 414T310 372Q348 352 362 317T371
234L364 164Q360 124 348 92T314 38T258 3T176 -9ZM179 102Q200 102 208 115T218 150L232 278Q237 328 199 328Q178 328 170 314T160 278L146 150Q144 128 151 115T179 102ZM213 426Q233 426 240 438T250 472L256 531Q258 553 252 566T226 579Q206 579 199 566T189
531L182 473Q180 450 186 438T213 426Z" />
<glyph unicode="9" glyph-name="nine" horiz-adv-x="393" d="M172 -9Q120 -9 86 4T33 40T7 96T5 167L9 200H141L137 162Q134 135 141 120T173 104Q198 104 206 119T217 161L231 300H230Q215 277 194 262T139 247Q12 247 30 424L40 521Q44 560 56 591T90 643T146
676T227 687Q279 687 313 673T367 632T392 571T394 494L360 167Q356 127 345 95T311 39T255 4T172 -9ZM203 355Q223 355 231 367T242 400L255 524Q261 576 223 576Q203 576 194 563T183 524L170 402Q168 380 175 368T203 355Z" />
<glyph unicode=":" glyph-name="colon" horiz-adv-x="186" d="M9 133H145L131 0H-5L9 133ZM33 371H170L156 237H20L33 371Z" />
<glyph unicode=";" glyph-name="semicolon" horiz-adv-x="184" d="M13 133H147L145 113L69 -47H-18L13 133ZM37 371H174L160 237H23L37 371Z" />
<glyph unicode="&lt;" glyph-name="less" horiz-adv-x="318" d="M19 297L27 371L319 504L306 385L173 333L295 282L283 161L19 297Z" />
<glyph unicode="=" glyph-name="equal" horiz-adv-x="362" d="M18 297H344L334 199H8L18 297ZM34 441H360L349 343H23L34 441Z" />
<glyph unicode="&gt;" glyph-name="greater" horiz-adv-x="318" d="M21 283L154 334L32 385L45 504L309 371L300 297L9 161L21 283Z" />
<glyph unicode="?" glyph-name="question" horiz-adv-x="362" d="M100 243Q103 267 106 283T114 313T129 339T152 366L199 415Q213 430 218 443T226 481L232 538Q234 560 226 569T204 578Q190 578 182 570T172 541L162 449H30L39 541Q54 687 212 687Q297 687 338
648T370 523L365 476Q362 443 350 418T312 366L249 299Q235 284 229 268T220 232L214 169H92L100 243ZM81 129H217L204 0H67L81 129Z" />
<glyph unicode="@" glyph-name="at" horiz-adv-x="523" d="M241 -90Q120 -90 58 -33T8 133L44 479Q50 537 73 577T130 641T206 676T294 687Q342 687 385 675T460 637T508 569T518 468L482 124Q477 79 455 56T385 33Q337 33 315 50T284 95H283Q271 66 251 50T198
33Q176 33 158 40T128 62T111 102T110 162L138 427Q145 491 174 516T241 542Q274 542 291 529T315 496H317L322 536H422L379 124Q376 92 399 92Q410 92 415 98T423 120L459 468Q464 515 454 547T421 600T365 628T292 637Q254 637 221 630T164 604T123 556T102 479L66
133Q57 47 100 4T243 -40H394L388 -90H241ZM243 116Q255 116 260 122T267 143L296 426Q300 459 277 459Q264 459 260 452T253 430L223 147Q221 133 225 125T243 116Z" />
<glyph unicode="A" glyph-name="A" horiz-adv-x="421" d="M166 678H329L389 0H242L236 109H136L110 0H-28L166 678ZM219 449L162 216H231L220 449H219Z" />
<glyph unicode="B" glyph-name="B" horiz-adv-x="398" d="M61 678H239Q287 678 319 667T368 635T391 583T392 512L386 452Q381 409 362 386T307 352Q349 341 366 309T379 228L370 149Q366 111 355 84T324 37T272 9T194 0H-10L61 678ZM182 110Q203 110 213 120T225
152L235 247Q237 271 229 284T197 297H166L146 110H182ZM203 399Q243 399 247 442L254 519Q257 544 249 556T218 568H194L176 399H203Z" />
<glyph unicode="C" glyph-name="C" horiz-adv-x="395" d="M180 -9Q132 -9 98 5T42 46T12 109T9 190L42 507Q50 589 97 638T239 687Q287 687 320 673T372 634T397 573T399 495L393 431H259L268 518Q271 543 264 558T233 574Q210 574 201 559T188 521L151 159Q148
136 155 120T187 104Q211 104 219 118T231 156L244 283H377L365 164Q361 124 349 92T315 38T260 3T180 -9Z" />
<glyph unicode="D" glyph-name="D" horiz-adv-x="408" d="M179 110Q205 110 217 123T231 163L268 516Q271 540 261 554T225 568H194L146 110H179ZM61 678H252Q301 678 333 664T384 624T408 562T410 479L379 181Q374 138 363 105T330 48T276 12T196 0H-10L61 678Z" />
<glyph unicode="E" glyph-name="E" horiz-adv-x="322" d="M61 678H347L335 568H194L177 400H276L264 291H165L146 110H287L276 0H-10L61 678Z" />
<glyph unicode="F" glyph-name="F" horiz-adv-x="313" d="M61 678H346L334 568H194L177 400H280L268 291H165L135 0H-10L61 678Z" />
<glyph unicode="G" glyph-name="G" horiz-adv-x="404" d="M140 -9Q60 -9 30 44T9 189L43 505Q52 591 99 639T239 687Q288 687 322 674T375 637T401 578T404 501L399 451H267L275 520Q277 544 269 559T236 574Q213 574 203 560T189 519L152 159Q150 135 157 120T188
104Q211 104 220 118T231 155L242 262H202L213 369H390L352 0H246L253 74Q237 36 209 14T140 -9Z" />
<glyph unicode="H" glyph-name="H" horiz-adv-x="408" d="M283 678H429L358 0H212L242 291H165L135 0H-10L61 678H206L177 400H254L283 678Z" />
<glyph unicode="I" glyph-name="I" horiz-adv-x="185" d="M61 678H206L135 0H-10L61 678Z" />
<glyph unicode="J" glyph-name="J" horiz-adv-x="372" d="M158 -9Q107 -9 75 4T26 41T3 94T2 159L15 283H153L138 146Q133 104 163 104Q189 104 192 142L248 678H394L339 151Q335 113 324 84T291 34T237 2T158 -9Z" />
<glyph unicode="K" glyph-name="K" horiz-adv-x="412" d="M302 678H445L302 371L380 0H228L168 317L135 0H-10L61 678H206L177 396L302 678Z" />
<glyph unicode="L" glyph-name="L" horiz-adv-x="300" d="M61 678H206L146 110H268L257 0H-10L61 678Z" />
<glyph unicode="M" glyph-name="M" horiz-adv-x="484" d="M61 678H223L247 348H248L332 678H509L438 0H308L349 393H347L240 0H181L150 393H149L108 0H-10L61 678Z" />
<glyph unicode="N" glyph-name="N" horiz-adv-x="391" d="M61 678H201L256 333L291 678H412L341 0H215L151 388L111 0H-10L61 678Z" />
<glyph unicode="O" glyph-name="O" horiz-adv-x="411" d="M186 104Q209 104 219 118T231 156L269 519Q272 544 264 559T232 574Q209 574 200 559T188 520L150 157Q144 104 186 104ZM185 -9Q87 -9 43 43T9 187L42 508Q51 593 99 640T238 687Q337 687 379 633T412
488L379 167Q370 81 323 36T185 -9Z" />
<glyph unicode="P" glyph-name="P" horiz-adv-x="393" d="M61 678H242Q292 678 325 667T377 633T401 579T403 506L389 375Q385 338 374 310T342 263T289 234T211 224H158L135 0H-10L61 678ZM197 328Q220 328 230 338T243 371L259 522Q264 568 220 568H194L169 328H197Z" />
<glyph unicode="Q" glyph-name="Q" horiz-adv-x="411" d="M345 -89L118 -48L124 2Q71 14 43 49Q0 102 9 193L42 508Q51 593 98 640T237 687Q337 687 379 634T412 488L379 170Q370 88 323 42Q309 28 291 18L355 7L345 -89ZM186 99Q210 99 219 113T231 151L269 519Q272
544 264 559T232 574Q209 574 200 559T188 520L149 152Q147 129 155 114T186 99Z" />
<glyph unicode="R" glyph-name="R" horiz-adv-x="393" d="M61 678H236Q285 678 318 667T371 634T396 581T398 509L390 427Q386 390 376 365T344 323Q330 312 310 306L363 0H213L167 313L135 0H-10L61 678ZM199 378Q222 378 231 388T244 420L254 522Q257 547 248
557T216 568H194L174 378H199Z" />
<glyph unicode="S" glyph-name="S" horiz-adv-x="381" d="M169 -9Q121 -9 87 3T33 36T4 86T0 150L9 237H142L133 148Q130 125 138 113T169 100Q189 100 198 111T209 142L212 170Q214 196 207 216T179 257L115 325Q69 374 51 418T39 522L41 541Q44 572 56 598T89
644T143 675T218 687Q314 687 352 640T383 515L379 477H248L253 530Q259 578 218 578Q181 578 176 535L175 525Q173 500 184 481T214 440L282 367Q304 344 319 323T344 281T356 235T356 180L352 145Q344 70 302 31T169 -9Z" />
<glyph unicode="T" glyph-name="T" horiz-adv-x="341" d="M51 678H372L360 568H273L214 0H67L126 568H39L51 678Z" />
<glyph unicode="U" glyph-name="U" horiz-adv-x="395" d="M181 -9Q83 -9 41 39T8 177L61 678H206L151 155Q149 132 156 118T187 104Q210 104 218 118T229 155L284 678H416L362 162Q354 83 312 37T181 -9Z" />
<glyph unicode="V" glyph-name="V" horiz-adv-x="410" d="M43 678H189L201 247H203L312 678H449L252 0H97L43 678Z" />
<glyph unicode="W" glyph-name="W" horiz-adv-x="567" d="M45 678H184L185 286H186L272 678H388L397 285H398L484 678H605L447 0H313L296 380H295L198 0H67L45 678Z" />
<glyph unicode="X" glyph-name="X" horiz-adv-x="416" d="M118 360L52 678H202L231 471L306 678H443L310 353L383 0H232L197 238L112 0H-26L118 360Z" />
<glyph unicode="Y" glyph-name="Y" horiz-adv-x="402" d="M127 264L42 678H190L224 444H225L305 678H443L272 258L245 0H100L127 264Z" />
<glyph unicode="Z" glyph-name="Z" horiz-adv-x="343" d="M-6 110L205 568H52L63 678H368L356 568L145 110H307L295 0H-18L-6 110Z" />
<glyph unicode="[" glyph-name="bracketleft" horiz-adv-x="240" d="M73 698H268L259 613H182L118 -6H194L185 -90H-10L73 698Z" />
<glyph unicode="\" glyph-name="backslash" horiz-adv-x="258" d="M48 698H160L224 -90H113L48 698Z" />
<glyph unicode="]" glyph-name="bracketright" horiz-adv-x="240" d="M-15 -6H62L126 613H49L58 698H254L171 -90H-25L-15 -6Z" />
<glyph unicode="^" glyph-name="asciicircum" horiz-adv-x="325" d="M174 678H226L330 467H219L188 539L143 467H29L174 678Z" />
<glyph unicode="_" glyph-name="underscore" horiz-adv-x="316" d="M-26 -10H280L271 -90H-34L-26 -10Z" />
<glyph unicode="`" glyph-name="grave" horiz-adv-x="400" d="M125 613L135 706L339 661L330 587L125 613Z" />
<glyph unicode="a" glyph-name="a" horiz-adv-x="375" d="M99 -9Q39 -9 13 29T-5 143L-1 182Q3 218 15 241T48 282T94 311T153 337Q177 346 191 354T214 369T226 386T232 408L234 426Q236 446 231 457T205 468Q187 468 178 458T167 428L161 368H33L38 420Q42 456
53 484T86 533T139 565T215 576Q306 576 342 532T370 402L328 0H188L193 49H190Q179 29 159 10T99 -9ZM167 94Q187 94 194 107T203 141L216 271Q210 266 202 261T173 242Q155 231 148 219T139 180L135 141Q133 121 139 108T167 94Z" />
<glyph unicode="b" glyph-name="b" horiz-adv-x="383" d="M234 -9Q188 -9 167 12T137 59H135L129 0H-11L60 678H200L182 506H184Q191 519 199 531T220 554T249 570T287 576Q337 576 363 539T381 422L350 132Q342 55 311 23T234 -9ZM175 101Q194 101 201 111T211
141L241 426Q243 444 236 455T211 466Q191 466 183 454T173 419L144 144Q139 101 175 101Z" />
<glyph unicode="c" glyph-name="c" horiz-adv-x="375" d="M174 -9Q83 -9 40 40T7 181L30 402Q39 488 85 532T215 576Q301 576 341 533T373 396L369 363H236L242 420Q244 442 238 455T211 468Q191 468 183 455T172 422L143 146Q141 125 148 112T177 99Q197 99 205
111T216 145L225 235H355L349 165Q340 77 298 34T174 -9Z" />
<glyph unicode="d" glyph-name="d" horiz-adv-x="383" d="M100 -9Q46 -9 21 28T3 145L34 438Q42 515 73 545T153 576Q196 576 217 556T246 509H248L266 678H406L335 0H195L201 61H199Q193 48 185 36T165 13T137 -3T100 -9ZM171 99Q192 99 200 112T210 145L239
426Q241 445 235 456T208 467Q190 467 183 456T173 427L143 142Q141 125 146 112T171 99Z" />
<glyph unicode="e" glyph-name="e" horiz-adv-x="378" d="M171 -9Q85 -9 41 40T7 182L30 403Q39 488 85 532T217 576Q300 576 342 528T373 392L360 269H156L143 147Q141 126 148 113T177 99Q197 99 205 111T216 145L225 235H356L349 163Q341 75 299 33T171 -9ZM236
364L242 423Q244 444 237 456T211 468Q191 468 183 455T172 421L166 364H236Z" />
<glyph unicode="f" glyph-name="f" horiz-adv-x="250" d="M38 567H76L79 589Q84 640 115 659T198 678H281L273 595H237Q220 595 217 577L216 567H270L259 467H205L157 0H17L66 467H27L38 567Z" />
<glyph unicode="g" glyph-name="g" horiz-adv-x="382" d="M181 198Q201 198 209 210T219 243L238 423Q243 467 207 467Q188 467 181 456T171 426L152 240Q150 221 156 210T181 198ZM156 -99Q107 -99 74 -87T21 -54T-5 -6T-9 52L-7 67H119L118 57Q116 37 124 23T156
9Q179 9 188 22T200 60L210 160H209Q202 147 194 135T174 112T147 96T110 90Q56 90 30 126T11 243L32 438Q40 513 70 544T153 576Q195 576 216 556T245 509H247L253 567H393L341 70Q332 -13 290 -56T156 -99Z" />
<glyph unicode="h" glyph-name="h" horiz-adv-x="383" d="M60 678H200L182 506H184Q197 534 220 555T288 576Q337 576 362 541T380 423L336 0H196L240 425Q242 444 236 455T212 466Q192 466 184 454T173 421L129 0H-11L60 678Z" />
<glyph unicode="i" glyph-name="i" horiz-adv-x="178" d="M49 567H189L129 0H-11L49 567ZM60 678H200L190 587H50L60 678Z" />
<glyph unicode="j" glyph-name="j" horiz-adv-x="178" d="M-37 -9H-31Q-20 -9 -16 -4T-9 13L49 567H189L130 6Q127 -24 117 -42T88 -71T45 -86T-14 -90H-46L-37 -9ZM61 678H201L191 587H51L61 678Z" />
<glyph unicode="k" glyph-name="k" horiz-adv-x="379" d="M60 678H200L164 338L268 567H406L284 308L350 0H203L156 259L129 0H-11L60 678Z" />
<glyph unicode="l" glyph-name="l" horiz-adv-x="178" d="M60 678H200L129 0H-11L60 678Z" />
<glyph unicode="m" glyph-name="m" horiz-adv-x="582" d="M49 567H189L182 506H184Q191 519 199 532T220 554T248 570T285 576Q320 576 343 560T374 506H377Q384 519 393 531T416 554T446 570T486 576Q539 576 563 541T579 424L534 0H394L439 426Q444 466 412
466Q393 466 386 454T376 424L331 0H192L236 426Q238 445 233 455T209 466Q190 466 183 454T174 424L129 0H-11L49 567Z" />
<glyph unicode="n" glyph-name="n" horiz-adv-x="383" d="M49 567H189L182 506H184Q197 533 220 554T288 576Q312 576 331 568T363 542T379 495T380 423L336 0H196L240 425Q242 443 237 454T212 466Q192 466 184 455T174 424L129 0H-11L49 567Z" />
<glyph unicode="o" glyph-name="o" horiz-adv-x="386" d="M172 -9Q85 -9 41 39T6 181L29 403Q48 576 215 576Q300 576 344 527T379 386L356 164Q338 -9 172 -9ZM175 99Q195 99 203 112T214 146L243 421Q245 442 238 455T211 468Q190 468 182 455T171 421L142 146Q140
125 147 112T175 99Z" />
<glyph unicode="p" glyph-name="p" horiz-adv-x="383" d="M48 567H188L181 506H183Q190 519 198 531T219 554T248 570T286 576Q337 576 362 539T380 422L349 132Q341 55 310 23T234 -9Q211 -9 195 -4T167 11T148 33T137 59H135L119 -90H-21L48 567ZM174 101Q193
101 200 111T210 141L240 426Q242 444 236 455T210 467Q190 467 183 455T173 423L143 142Q141 123 147 112T174 101Z" />
<glyph unicode="q" glyph-name="q" horiz-adv-x="383" d="M201 61H199Q193 48 185 36T165 13T137 -3T100 -9Q46 -9 21 28T3 145L34 438Q42 515 73 545T153 576Q196 576 217 556T246 509H248L254 567H394L325 -90H185L201 61ZM171 99Q190 99 199 110T210 145L239
423Q242 443 235 455T208 467Q190 467 183 456T173 427L143 142Q138 99 171 99Z" />
<glyph unicode="r" glyph-name="r" horiz-adv-x="258" d="M49 567H189L182 506H184Q188 516 196 527T215 548T242 565T277 572L260 413H218Q192 413 181 400T167 362L129 0H-11L49 567Z" />
<glyph unicode="s" glyph-name="s" horiz-adv-x="352" d="M155 -9Q67 -9 28 32T-3 155L2 201H126L120 145Q115 99 154 99Q173 99 181 109T192 138L193 151Q194 160 193 168T185 185T169 204T141 228L106 257Q65 290 45 329T29 422L31 438Q38 502 79 539T199 576Q244
576 274 565T323 532T347 481T349 415L347 392H224L227 424Q229 445 223 456T196 468Q177 468 170 459T161 435L160 426Q158 409 166 396T198 363L232 335Q260 313 279 294T309 255T325 212T326 159L324 140Q316 69 275 30T155 -9Z" />
<glyph unicode="t" glyph-name="t" horiz-adv-x="265" d="M37 567H76L88 678H228L216 567H282L271 467H205L171 140Q169 123 175 115T202 106H233L222 0H157Q116 0 90 8T50 34T32 80T32 147L65 467H27L37 567Z" />
<glyph unicode="u" glyph-name="u" horiz-adv-x="384" d="M96 -9Q44 -9 20 26T3 143L48 567H188L143 142Q141 123 147 112T172 101Q192 101 200 113T210 143L255 567H395L335 0H195L202 61H200Q186 33 163 12T96 -9Z" />
<glyph unicode="v" glyph-name="v" horiz-adv-x="370" d="M30 567H170L181 218H182L267 567H397L232 0H78L30 567Z" />
<glyph unicode="w" glyph-name="w" horiz-adv-x="510" d="M32 567H170L162 265H163L240 567H340L355 265H356L410 567H537L395 0H271L260 318L179 0H57L32 567Z" />
<glyph unicode="x" glyph-name="x" horiz-adv-x="370" d="M91 307L36 567H175L197 396L258 567H389L278 299L343 0H202L171 208L100 0H-32L91 307Z" />
<glyph unicode="y" glyph-name="y" horiz-adv-x="363" d="M32 15H80Q94 15 100 20T112 40L115 49H78L30 567H169L178 240H179L260 567H388L225 4Q217 -22 205 -40T176 -69T134 -85T76 -90H21L32 15Z" />
<glyph unicode="z" glyph-name="z" horiz-adv-x="308" d="M-8 104L172 461H39L51 567H324L314 463L135 108H273L262 0H-19L-8 104Z" />
<glyph unicode="{" glyph-name="braceleft" horiz-adv-x="259" d="M182 -90Q81 -90 48 -45T32 81L62 212Q69 238 58 249T20 261H12L21 347H27Q84 347 83 404L79 535Q76 620 115 659T253 698H288L278 614H245Q195 614 197 553L202 414Q203 388 197 370T180 338T152
317T117 304Q152 296 171 268T179 193L147 54Q140 27 149 11T183 -6H214L205 -90H182Z" />
<glyph unicode="|" glyph-name="bar" horiz-adv-x="167" d="M71 698H181L98 -90H-12L71 698Z" />
<glyph unicode="}" glyph-name="braceright" horiz-adv-x="259" d="M-16 -6H16Q40 -6 53 11T65 57L60 196Q58 245 82 269T145 304Q110 314 91 342T83 417L116 556Q122 582 114 598T81 614H49L58 698H79Q130 698 163 686T214 651T235 596T229 525L199 394Q193 368
204 358T242 347H250L240 261H235Q177 261 179 203L183 71Q186 -12 147 -51T8 -90H-25L-16 -6Z" />
<glyph unicode="~" glyph-name="asciitilde" horiz-adv-x="274" d="M2 254Q10 312 31 344T95 377Q110 377 122 374T145 366T164 359T179 355Q193 355 194 374H277Q270 315 250 283T187 251Q158 251 136 261T102 272Q89 272 86 254H2Z" />
<glyph unicode="&#xa1;" glyph-name="exclamdown" horiz-adv-x="186" d="M56 588H193L180 459H43L56 588ZM75 419H139L127 -90H-23L75 419Z" />
<glyph unicode="&#xa2;" glyph-name="cent" horiz-adv-x="374" d="M40 40Q-3 90 7 181L30 402Q39 488 85 532Q120 565 176 573L182 631H279L272 570Q315 559 341 532Q382 489 372 396L369 363H236L242 420Q244 443 238 455T211 468Q191 468 182 455T171 422L142
146Q140 125 148 112T176 99Q196 99 204 111T215 145L225 235H355L348 165Q340 77 298 34Q265 0 209 -7L204 -59H107L113 -2Q67 9 40 40Z" />
<glyph unicode="&#xa3;" glyph-name="sterling" horiz-adv-x="390" d="M15 369H51L68 529Q76 607 119 647T245 687Q331 687 368 643T398 520L392 460H261L268 538Q270 560 264 569T242 578Q228 578 220 569T209 537L191 369H305L295 269H181L164 110H352L340 0H12L40
269H5L15 369Z" />
<glyph unicode="&#xa5;" glyph-name="yen" horiz-adv-x="402" d="M25 204H122L125 231H28L35 300H132L42 678H190L225 460H226L305 678H443L276 300H374L366 231H269L266 204H363L356 135H259L245 0H100L114 135H18L25 204Z" />
<glyph unicode="&#xa6;" glyph-name="brokenbar" horiz-adv-x="167" d="M26 278H136L98 -90H-12L26 278ZM71 698H181L144 343H33L71 698Z" />
<glyph unicode="&#xa7;" glyph-name="section" horiz-adv-x="409" d="M232 231Q246 236 258 248T271 281Q271 300 263 311T232 335L174 371Q159 366 149 353T138 320Q138 303 147 290T181 263L232 231ZM177 -99Q96 -99 51 -58T14 58L18 94H143L139 57Q136 33 147
21T180 9Q219 9 222 43L223 53Q225 69 217 81T182 109L94 163Q51 189 34 220T16 285Q16 339 44 369T112 410V411Q87 434 75 465T67 541L68 551Q74 614 116 650T235 687Q318 687 358 647T391 530L389 503H269L272 535Q277 584 231 584Q210 584 200 575T188 550L187
541Q185 527 192 516T218 493L305 442Q350 416 372 388T395 322Q395 293 388 271T369 234T338 207T297 189V187Q323 165 337 135T346 57L344 39Q337 -27 299 -63T177 -99Z" />
<glyph unicode="&#xa8;" glyph-name="dieresis" horiz-adv-x="400" d="M115 678H230L221 590H106L115 678ZM250 678H365L356 590H241L250 678Z" />
<glyph unicode="&#xa9;" glyph-name="copyright" horiz-adv-x="420" d="M205 187Q157 187 135 214T117 285L128 390Q133 432 156 455T226 478Q274 478 294 452T311 384L309 365H234L238 399Q239 418 223 418Q207 418 206 397L192 268Q190 247 208 247Q216 247
220 252T227 271L232 318H304L300 274Q295 234 273 211T205 187ZM201 135Q274 135 314 180T363 307L368 352Q377 437 341 485T228 534Q156 534 116 489T66 363L61 318Q52 233 88 184T201 135ZM198 107Q154 107 120 122T64 164T32 231T27 318L32 363Q42 457 92 509T230
562Q275 562 309 548T365 506T397 440T402 353L397 307Q387 214 337 161T198 107Z" />
<glyph unicode="&#xaa;" glyph-name="ordfeminine" horiz-adv-x="331" d="M100 177Q49 177 29 210T15 309L19 349Q22 379 33 399T61 434T101 458T149 479Q170 488 182 494T202 506T211 519T216 539L217 553Q222 588 196 588Q182 588 175 581T166 555L161 510H51L56
551Q62 611 96 648T206 686Q283 686 315 647T339 537L302 185H179L183 225H180Q169 210 151 194T100 177ZM164 269Q177 269 183 278T191 302L203 416Q198 411 191 407T173 397Q158 388 152 377T144 346L139 302Q136 269 164 269Z" />
<glyph unicode="&#xab;" glyph-name="guillemotleft" horiz-adv-x="314" d="M7 234L79 378H176L106 233L142 86H47L7 234ZM137 233L211 378H308L236 230L272 86H176L137 233Z" />
<glyph unicode="&#xae;" glyph-name="registered" horiz-adv-x="420" d="M211 231Q167 231 133 246T77 289T45 355T40 442L45 487Q55 581 105 633T243 686Q288 686 322 672T378 630T410 564T415 477L410 431Q400 338 350 285T211 231ZM214 259Q287 259 327 304T376
431L381 476Q390 561 354 609T241 658Q169 658 128 613T79 487L74 442Q65 357 101 308T214 259ZM163 604H247Q291 604 308 584T321 528L319 505Q315 467 296 453Q290 448 280 445L304 318H236L213 448L199 318H133L163 604ZM231 480Q251 480 252 496L256 534Q259
553 238 553H224L216 480H231Z" />
<glyph unicode="&#xaf;" glyph-name="macron" horiz-adv-x="400" d="M131 674H352L344 598H123L131 674Z" />
<glyph unicode="&#xb0;" glyph-name="degree" horiz-adv-x="206" d="M133 508Q94 508 69 533T44 595Q44 631 69 656T133 681Q172 681 197 656T223 595Q223 558 198 533T133 508ZM133 558Q150 558 158 568T167 595Q167 610 159 620T133 631Q116 631 108 621T100
595Q100 579 108 569T133 558Z" />
<glyph unicode="&#xb2;" glyph-name="twosuperior" horiz-adv-x="212" d="M37 451Q41 485 53 503T91 537L126 559Q135 565 140 570T147 589L149 603Q151 623 138 623Q124 623 123 603L120 581H50L53 610Q57 643 75 663T141 683Q186 683 205 662T221 602L218 579Q216
560 209 545T178 516L134 488Q124 482 121 477T116 461V459H203L197 398H32L37 451Z" />
<glyph unicode="&#xb3;" glyph-name="threesuperior" horiz-adv-x="211" d="M118 393Q70 393 51 414T36 471L39 499H108L105 470Q103 450 119 450Q127 450 129 455T133 469L135 493Q137 507 133 512T116 517H94L99 567H118Q132 567 138 571T146 589L147 603Q148
624 135 624Q127 624 124 619T120 604L118 585H48L50 604Q54 638 71 660T136 682Q186 682 204 659T218 601L217 589Q215 572 207 561T178 545Q198 540 205 524T210 488L208 465Q204 430 186 412T118 393Z" />
<glyph unicode="&#xb4;" glyph-name="acute" horiz-adv-x="400" d="M144 662L351 706L340 612L136 587L144 662Z" />
<glyph unicode="&#xb6;" glyph-name="paragraph" horiz-adv-x="382" d="M137 288H132Q76 288 49 320T29 424L42 555Q50 624 84 651T188 678H403L332 0H238L299 588H263L201 0H107L137 288Z" />
<glyph unicode="&#xb7;" glyph-name="periodcentered" horiz-adv-x="186" d="M37 408H173L159 275H23L37 408Z" />
<glyph unicode="&#xb8;" glyph-name="cedilla" horiz-adv-x="407" d="M93 -70Q116 -69 122 -65T128 -54Q128 -43 113 -43H110L115 0H167L165 -17Q183 -21 193 -28T204 -53Q204 -81 172 -93T89 -105L93 -70Z" />
<glyph unicode="&#xb9;" glyph-name="onesuperior" horiz-adv-x="154" d="M77 583H76L37 555H36L44 630L100 677H170L141 398H58L77 583Z" />
<glyph unicode="&#xba;" glyph-name="ordmasculine" horiz-adv-x="337" d="M163 177Q124 177 96 189T49 222T23 273T19 338L40 540Q48 609 88 647T203 686Q283 686 319 642T347 524L325 322Q318 253 278 215T163 177ZM168 273Q185 273 191 283T200 313L224 549Q226
568 221 579T199 590Q182 590 175 580T166 550L142 314Q140 295 145 284T168 273Z" />
<glyph unicode="&#xbb;" glyph-name="guillemotright" horiz-adv-x="313" d="M197 231L160 378H256L295 230L226 86H129L197 231ZM67 234L31 378H127L165 231L94 86H-3L67 234Z" />
<glyph unicode="&#xbc;" glyph-name="onequarter" horiz-adv-x="256" d="M87 35H-8L-4 78L108 280H191L171 87H193L188 35H165L162 0H83L87 35ZM117 583H116L77 554H76L84 629L140 677H210L181 398H98L117 583ZM92 87L101 174H100L60 87H92ZM27 364H250L245 314H22L27
364Z" />
<glyph unicode="&#xbd;" glyph-name="onehalf" horiz-adv-x="254" d="M24 364H247L242 314H19L24 364ZM114 583H113L73 555H72L80 630L137 677H207L177 398H94L114 583ZM17 53Q21 87 33 105T71 139L106 161Q115 167 120 172T127 192L128 205Q130 225 117 225Q105
225 102 205L100 183H30L33 212Q36 246 55 265T121 285Q165 285 185 264T200 204L198 181Q196 162 189 147T158 118L114 90Q104 84 101 79T95 63V61H183L176 0H11L17 53Z" />
<glyph unicode="&#xbe;" glyph-name="threequarters" horiz-adv-x="247" d="M138 393Q91 393 72 414T57 471L60 499H129L126 470Q123 450 139 450Q147 450 149 455T153 469L156 493Q157 507 153 512T136 517H114L119 567H138Q153 567 158 571T166 589L168 603Q169
624 155 624Q147 624 144 619T140 604L138 585H68L70 604Q74 638 91 660T157 682Q207 682 224 659T238 601L237 589Q235 572 227 561T198 545Q218 540 225 524T231 488L228 465Q225 430 207 412T138 393ZM90 35H-5L0 78L111 280H195L174 87H197L191 35H169L165
0H87L90 35ZM96 87L105 174H104L63 87H96ZM25 364H241L236 314H20L25 364Z" />
<glyph unicode="&#xbf;" glyph-name="questiondown" horiz-adv-x="365" d="M153 -99Q68 -99 27 -60T-6 65L-1 112Q3 152 17 175T52 222L113 286Q128 302 134 319T143 356L150 419H272L264 345Q261 321 259 305T251 275T237 250T212 222L165 173Q151 158 146 145T138
106L132 48Q130 28 138 19T160 10Q188 10 192 47L202 139H334L325 47Q310 -99 153 -99ZM160 588H297L284 459H147L160 588Z" />
<glyph unicode="&#xc0;" glyph-name="Agrave" horiz-adv-x="421" d="M166 678H329L389 0H242L236 109H136L110 0H-28L166 678ZM219 449L162 216H231L220 449H219ZM144 723L154 816L358 771L349 697L144 723Z" />
<glyph unicode="&#xc1;" glyph-name="Aacute" horiz-adv-x="421" d="M166 678H329L389 0H242L236 109H136L110 0H-28L166 678ZM219 449L162 216H231L220 449H219ZM156 772L363 816L352 722L148 697L156 772Z" />
<glyph unicode="&#xc2;" glyph-name="Acircumflex" horiz-adv-x="421" d="M166 678H329L389 0H242L236 109H136L110 0H-28L166 678ZM219 449L162 216H231L220 449H219ZM142 768L231 825H282L362 768L355 700L250 733L134 700L142 768Z" />
<glyph unicode="&#xc3;" glyph-name="Atilde" horiz-adv-x="421" d="M166 678H329L389 0H242L236 109H136L110 0H-28L166 678ZM219 449L162 216H231L220 449H219ZM131 705Q135 748 152 774T210 800Q236 800 257 790T290 780Q301 780 302 796H370Q365 755 348 728T291
700Q264 700 242 710T210 720Q199 720 198 705H131Z" />
<glyph unicode="&#xc4;" glyph-name="Adieresis" horiz-adv-x="421" d="M166 678H329L389 0H242L236 109H136L110 0H-28L166 678ZM219 449L162 216H231L220 449H219ZM128 788H243L234 700H119L128 788ZM263 788H378L369 700H254L263 788Z" />
<glyph unicode="&#xc5;" glyph-name="Aring" horiz-adv-x="421" d="M166 678H329L389 0H242L236 109H136L110 0H-28L166 678ZM219 449L162 216H231L220 449H219ZM252 697Q215 697 192 720T169 777Q169 810 192 833T252 857Q289 857 312 834T335 777Q335 744 312
721T252 697ZM252 744Q267 744 275 753T284 777Q284 791 276 800T252 810Q238 810 229 801T220 777Q220 763 229 754T252 744Z" />
<glyph unicode="&#xc6;" glyph-name="AE" horiz-adv-x="551" d="M202 678H575L563 568H416L399 400H505L493 291H387L368 110H515L504 0H215L226 109H139L107 0H-29L202 678ZM170 216H237L272 551H270L170 216Z" />
<glyph unicode="&#xc7;" glyph-name="Ccedilla" horiz-adv-x="395" d="M102 -70Q125 -69 131 -65T137 -54Q137 -43 122 -43H119L123 -3Q109 0 97 5Q63 20 42 46T12 109T9 190L42 507Q50 589 97 638T239 687Q287 687 320 673T372 634T397 573T399 495L393 431H259L268
518Q271 543 264 558T233 574Q210 574 201 559T188 521L151 159Q148 136 155 120T187 104Q211 104 219 118T231 156L244 283H377L365 164Q361 124 349 92T315 38T260 3T180 -9H175L174 -17Q192 -21 202 -28T213 -53Q213 -81 181 -93T98 -105L102 -70Z" />
<glyph unicode="&#xc8;" glyph-name="Egrave" horiz-adv-x="322" d="M61 678H347L335 568H194L177 400H276L264 291H165L146 110H287L276 0H-10L61 678ZM358 723L368 816L572 771L563 697L358 723Z" />
<glyph unicode="&#xc9;" glyph-name="Eacute" horiz-adv-x="322" d="M372 773L579 817L568 723L364 698L372 773ZM61 678H347L335 568H194L177 400H276L264 291H165L146 110H287L276 0H-10L61 678Z" />
<glyph unicode="&#xca;" glyph-name="Ecircumflex" horiz-adv-x="322" d="M357 768L446 825H497L577 768L570 700L465 733L349 700L357 768ZM61 678H347L335 568H194L177 400H276L264 291H165L146 110H287L276 0H-10L61 678Z" />
<glyph unicode="&#xcb;" glyph-name="Edieresis" horiz-adv-x="322" d="M345 788H460L451 700H336L345 788ZM480 788H595L586 700H471L480 788ZM61 678H347L335 568H194L177 400H276L264 291H165L146 110H287L276 0H-10L61 678Z" />
<glyph unicode="&#xcc;" glyph-name="Igrave" horiz-adv-x="185" d="M43 728L47 827L232 777L230 697L43 728ZM61 678H206L135 0H-10L61 678Z" />
<glyph unicode="&#xcd;" glyph-name="Iacute" horiz-adv-x="185" d="M51 778L243 827L233 727L42 697L51 778ZM61 678H206L135 0H-10L61 678Z" />
<glyph unicode="&#xce;" glyph-name="Icircumflex" horiz-adv-x="185" d="M38 763L119 820H169L241 763L234 695L137 728L30 695L38 763ZM61 678H206L135 0H-10L61 678Z" />
<glyph unicode="&#xcf;" glyph-name="Idieresis" horiz-adv-x="185" d="M36 804H132L121 705H25L36 804ZM157 804H254L243 705H146L157 804ZM61 678H206L135 0H-10L61 678Z" />
<glyph unicode="&#xd0;" glyph-name="Eth" horiz-adv-x="417" d="M12 400H40L69 678H261Q310 678 342 664T393 624T417 562T418 479L387 181Q382 138 371 105T338 48T284 12T204 0H-2L28 291H0L12 400ZM188 110Q214 110 225 123T240 163L277 516Q279 540 269 554T233
568H202L184 400H234L223 291H173L155 110H188Z" />
<glyph unicode="&#xd1;" glyph-name="Ntilde" horiz-adv-x="391" d="M61 678H201L256 333L291 678H412L341 0H215L151 388L111 0H-10L61 678ZM122 705Q126 748 143 774T201 800Q227 800 248 790T281 780Q292 780 293 796H361Q356 755 339 728T282 700Q255 700
233 710T201 720Q190 720 189 705H122Z" />
<glyph unicode="&#xd2;" glyph-name="Ograve" horiz-adv-x="411" d="M186 104Q209 104 219 118T231 156L269 519Q272 544 264 559T232 574Q209 574 200 559T188 520L150 157Q144 104 186 104ZM185 -9Q87 -9 43 43T9 187L42 508Q51 593 99 640T238 687Q337 687
379 633T412 488L379 167Q370 81 323 36T185 -9ZM143 723L153 816L357 771L348 697L143 723Z" />
<glyph unicode="&#xd3;" glyph-name="Oacute" horiz-adv-x="411" d="M151 772L358 816L347 722L143 697L151 772ZM186 104Q209 104 219 118T231 156L269 519Q272 544 264 559T232 574Q209 574 200 559T188 520L150 157Q144 104 186 104ZM185 -9Q87 -9 43 43T9
187L42 508Q51 593 99 640T238 687Q337 687 379 633T412 488L379 167Q370 81 323 36T185 -9Z" />
<glyph unicode="&#xd4;" glyph-name="Ocircumflex" horiz-adv-x="411" d="M142 768L231 825H282L362 768L355 700L250 733L134 700L142 768ZM186 104Q209 104 219 118T231 156L269 519Q272 544 264 559T232 574Q209 574 200 559T188 520L150 157Q144 104 186 104ZM185
-9Q87 -9 43 43T9 187L42 508Q51 593 99 640T238 687Q337 687 379 633T412 488L379 167Q370 81 323 36T185 -9Z" />
<glyph unicode="&#xd5;" glyph-name="Otilde" horiz-adv-x="411" d="M186 104Q209 104 219 118T231 156L269 519Q272 544 264 559T232 574Q209 574 200 559T188 520L150 157Q144 104 186 104ZM185 -9Q87 -9 43 43T9 187L42 508Q51 593 99 640T238 687Q337 687
379 633T412 488L379 167Q370 81 323 36T185 -9ZM131 705Q135 748 152 774T210 800Q236 800 257 790T290 780Q301 780 302 796H370Q365 755 348 728T291 700Q264 700 242 710T210 720Q199 720 198 705H131Z" />
<glyph unicode="&#xd6;" glyph-name="Odieresis" horiz-adv-x="411" d="M130 788H245L236 700H121L130 788ZM265 788H380L371 700H256L265 788ZM186 104Q209 104 219 118T231 156L269 519Q272 544 264 559T232 574Q209 574 200 559T188 520L150 157Q144 104 186
104ZM185 -9Q87 -9 43 43T9 187L42 508Q51 593 99 640T238 687Q337 687 379 633T412 488L379 167Q370 81 323 36T185 -9Z" />
<glyph unicode="&#xd7;" glyph-name="multiply" horiz-adv-x="347" d="M11 253L105 337L29 420L109 490L184 408L276 490L342 420L248 337L325 254L245 184L169 267L76 184L11 253Z" />
<glyph unicode="&#xd8;" glyph-name="Oslash" horiz-adv-x="411" d="M31 61Q0 112 9 187L42 508Q51 593 98 640T237 687Q312 687 356 654L377 693H431L389 618Q420 568 412 488L379 167Q370 81 324 36T186 -9Q110 -9 64 25L42 -14H-12L31 61ZM161 287L270 501L272
519Q275 545 266 560T232 575Q208 575 199 560T186 520L161 287ZM186 103Q210 103 220 117T233 156L256 373L148 163V157Q142 103 186 103Z" />
<glyph unicode="&#xd9;" glyph-name="Ugrave" horiz-adv-x="395" d="M181 -9Q83 -9 41 39T8 177L61 678H206L151 155Q149 132 156 118T187 104Q210 104 218 118T229 155L284 678H416L362 162Q354 83 312 37T181 -9ZM143 723L153 816L357 771L348 697L143 723Z" />
<glyph unicode="&#xda;" glyph-name="Uacute" horiz-adv-x="395" d="M154 772L361 816L350 722L146 697L154 772ZM181 -9Q83 -9 41 39T8 177L61 678H206L151 155Q149 132 156 118T187 104Q210 104 218 118T229 155L284 678H416L362 162Q354 83 312 37T181 -9Z" />
<glyph unicode="&#xdb;" glyph-name="Ucircumflex" horiz-adv-x="395" d="M141 768L230 825H281L361 768L354 700L249 733L133 700L141 768ZM181 -9Q83 -9 41 39T8 177L61 678H206L151 155Q149 132 156 118T187 104Q210 104 218 118T229 155L284 678H416L362 162Q354
83 312 37T181 -9Z" />
<glyph unicode="&#xdc;" glyph-name="Udieresis" horiz-adv-x="395" d="M130 788H245L236 700H121L130 788ZM265 788H380L371 700H256L265 788ZM181 -9Q83 -9 41 39T8 177L61 678H206L151 155Q149 132 156 118T187 104Q210 104 218 118T229 155L284 678H416L362
162Q354 83 312 37T181 -9Z" />
<glyph unicode="&#xdd;" glyph-name="Yacute" horiz-adv-x="402" d="M127 264L42 678H190L224 444H225L305 678H443L272 258L245 0H100L127 264ZM156 772L363 816L352 722L148 697L156 772Z" />
<glyph unicode="&#xde;" glyph-name="Thorn" horiz-adv-x="392" d="M60 678H205L194 575H231Q281 575 313 563T364 529T388 476T390 406L377 283Q373 246 362 217T330 168T277 138T198 127H147L134 0H-11L60 678ZM186 231Q209 231 219 243T232 279L247 416Q251
464 209 464H182L157 231H186Z" />
<glyph unicode="&#xdf;" glyph-name="germandbls" horiz-adv-x="387" d="M44 529Q53 609 100 648T231 687Q273 687 302 678T350 654T377 618T386 576Q386 530 364 508T299 478Q349 469 366 438T379 352L357 147Q349 70 315 35T200 0H152L163 106H174Q195 106 205
114T217 146L241 375Q243 399 236 411T204 424H196L206 522H211Q234 522 247 530T261 560Q261 573 252 580T228 588Q209 588 198 577T184 540L127 0H-11L44 529Z" />
<glyph unicode="&#xe0;" glyph-name="agrave" horiz-adv-x="375" d="M99 -9Q39 -9 13 29T-5 143L-1 182Q3 218 15 241T48 282T94 311T153 337Q177 346 191 354T214 369T226 386T232 408L234 426Q236 446 231 457T205 468Q187 468 178 458T167 428L161 368H33L38
420Q42 456 53 484T86 533T139 565T215 576Q306 576 342 532T370 402L328 0H188L193 49H190Q179 29 159 10T99 -9ZM167 94Q187 94 194 107T203 141L216 271Q210 266 202 261T173 242Q155 231 148 219T139 180L135 141Q133 121 139 108T167 94ZM376 613L386 706L590
661L581 587L376 613Z" />
<glyph unicode="&#xe1;" glyph-name="aacute" horiz-adv-x="375" d="M99 -9Q39 -9 13 29T-5 143L-1 182Q3 218 15 241T48 282T94 311T153 337Q177 346 191 354T214 369T226 386T232 408L234 426Q236 446 231 457T205 468Q187 468 178 458T167 428L161 368H33L38
420Q42 456 53 484T86 533T139 565T215 576Q306 576 342 532T370 402L328 0H188L193 49H190Q179 29 159 10T99 -9ZM167 94Q187 94 194 107T203 141L216 271Q210 266 202 261T173 242Q155 231 148 219T139 180L135 141Q133 121 139 108T167 94ZM385 662L592 706L581
612L377 587L385 662Z" />
<glyph unicode="&#xe2;" glyph-name="acircumflex" horiz-adv-x="375" d="M99 -9Q39 -9 13 29T-5 143L-1 182Q3 218 15 241T48 282T94 311T153 337Q177 346 191 354T214 369T226 386T232 408L234 426Q236 446 231 457T205 468Q187 468 178 458T167 428L161 368H33L38
420Q42 456 53 484T86 533T139 565T215 576Q306 576 342 532T370 402L328 0H188L193 49H190Q179 29 159 10T99 -9ZM167 94Q187 94 194 107T203 141L216 271Q210 266 202 261T173 242Q155 231 148 219T139 180L135 141Q133 121 139 108T167 94ZM372 658L461 715H512L592
658L585 590L480 623L364 590L372 658Z" />
<glyph unicode="&#xe3;" glyph-name="atilde" horiz-adv-x="375" d="M99 -9Q39 -9 13 29T-5 143L-1 182Q3 218 15 241T48 282T94 311T153 337Q177 346 191 354T214 369T226 386T232 408L234 426Q236 446 231 457T205 468Q187 468 178 458T167 428L161 368H33L38
420Q42 456 53 484T86 533T139 565T215 576Q306 576 342 532T370 402L328 0H188L193 49H190Q179 29 159 10T99 -9ZM167 94Q187 94 194 107T203 141L216 271Q210 266 202 261T173 242Q155 231 148 219T139 180L135 141Q133 121 139 108T167 94ZM361 595Q365 638
382 664T440 690Q466 690 487 680T520 670Q531 670 532 686H600Q595 645 578 618T521 590Q494 590 472 600T440 610Q429 610 428 595H361Z" />
<glyph unicode="&#xe4;" glyph-name="adieresis" horiz-adv-x="375" d="M99 -9Q39 -9 13 29T-5 143L-1 182Q3 218 15 241T48 282T94 311T153 337Q177 346 191 354T214 369T226 386T232 408L234 426Q236 446 231 457T205 468Q187 468 178 458T167 428L161 368H33L38
420Q42 456 53 484T86 533T139 565T215 576Q306 576 342 532T370 402L328 0H188L193 49H190Q179 29 159 10T99 -9ZM167 94Q187 94 194 107T203 141L216 271Q210 266 202 261T173 242Q155 231 148 219T139 180L135 141Q133 121 139 108T167 94ZM362 678H477L468
590H353L362 678ZM497 678H612L603 590H488L497 678Z" />
<glyph unicode="&#xe5;" glyph-name="aring" horiz-adv-x="375" d="M99 -9Q39 -9 13 29T-5 143L-1 182Q3 218 15 241T48 282T94 311T153 337Q177 346 191 354T214 369T226 386T232 408L234 426Q236 446 231 457T205 468Q187 468 178 458T167 428L161 368H33L38
420Q42 456 53 484T86 533T139 565T215 576Q306 576 342 532T370 402L328 0H188L193 49H190Q179 29 159 10T99 -9ZM167 94Q187 94 194 107T203 141L216 271Q210 266 202 261T173 242Q155 231 148 219T139 180L135 141Q133 121 139 108T167 94ZM481 593Q444 593
421 616T398 673Q398 706 421 729T481 753Q518 753 541 730T564 673Q564 640 541 617T481 593ZM481 640Q496 640 504 649T513 673Q513 687 505 696T481 706Q467 706 458 697T449 673Q449 659 458 650T481 640Z" />
<glyph unicode="&#xe6;" glyph-name="ae" horiz-adv-x="575" d="M372 -9Q327 -9 298 6T251 47L244 59Q227 31 198 11Q168 -9 119 -9Q56 -9 22 28T-5 144L1 202Q9 280 44 311T140 342H221L230 425Q234 468 202 468Q171 468 167 425L161 368H36L42 422Q49 494 86
535T206 576Q280 576 313 539Q355 576 421 576Q508 576 543 528T570 394L556 261H353L341 146Q339 125 346 112T374 99Q394 99 402 112T413 147L422 229H553L545 158Q537 77 498 34T372 -9ZM165 98Q184 98 191 110T200 141L211 246H181Q161 246 153 236T142 202L136
142Q134 122 139 110T165 98ZM432 355L439 422Q441 443 434 455T409 468Q374 468 370 422L363 355H432Z" />
<glyph unicode="&#xe7;" glyph-name="ccedilla" horiz-adv-x="375" d="M97 -70Q120 -69 126 -65T132 -54Q132 -43 117 -43H114L118 -3Q68 7 40 40Q-3 90 7 181L30 402Q39 488 85 532T215 576Q301 576 341 533T373 396L369 363H236L242 420Q244 442 238 455T211
468Q191 468 183 455T172 422L143 146Q141 125 148 112T177 99Q197 99 205 111T216 145L225 235H355L349 165Q340 77 298 34T174 -9H170L169 -17Q187 -21 197 -28T208 -53Q208 -81 176 -93T93 -105L97 -70Z" />
<glyph unicode="&#xe8;" glyph-name="egrave" horiz-adv-x="378" d="M171 -9Q85 -9 41 40T7 182L30 403Q39 488 85 532T217 576Q300 576 342 528T373 392L360 269H156L143 147Q141 126 148 113T177 99Q197 99 205 111T216 145L225 235H356L349 163Q341 75 299
33T171 -9ZM236 364L242 423Q244 444 237 456T211 468Q191 468 183 455T172 421L166 364H236ZM374 613L384 706L588 661L579 587L374 613Z" />
<glyph unicode="&#xe9;" glyph-name="eacute" horiz-adv-x="378" d="M384 662L591 706L580 612L376 587L384 662ZM171 -9Q85 -9 41 40T7 182L30 403Q39 488 85 532T217 576Q300 576 342 528T373 392L360 269H156L143 147Q141 126 148 113T177 99Q197 99 205 111T216
145L225 235H356L349 163Q341 75 299 33T171 -9ZM236 364L242 423Q244 444 237 456T211 468Q191 468 183 455T172 421L166 364H236Z" />
<glyph unicode="&#xea;" glyph-name="ecircumflex" horiz-adv-x="378" d="M371 658L460 715H511L591 658L584 590L479 623L363 590L371 658ZM171 -9Q85 -9 41 40T7 182L30 403Q39 488 85 532T217 576Q300 576 342 528T373 392L360 269H156L143 147Q141 126 148
113T177 99Q197 99 205 111T216 145L225 235H356L349 163Q341 75 299 33T171 -9ZM236 364L242 423Q244 444 237 456T211 468Q191 468 183 455T172 421L166 364H236Z" />
<glyph unicode="&#xeb;" glyph-name="edieresis" horiz-adv-x="378" d="M360 678H475L466 590H351L360 678ZM495 678H610L601 590H486L495 678ZM171 -9Q85 -9 41 40T7 182L30 403Q39 488 85 532T217 576Q300 576 342 528T373 392L360 269H156L143 147Q141 126
148 113T177 99Q197 99 205 111T216 145L225 235H356L349 163Q341 75 299 33T171 -9ZM236 364L242 423Q244 444 237 456T211 468Q191 468 183 455T172 421L166 364H236Z" />
<glyph unicode="&#xec;" glyph-name="igrave" horiz-adv-x="178" d="M31 613L41 706L218 661L210 587L31 613ZM49 567H189L129 0H-11L49 567Z" />
<glyph unicode="&#xed;" glyph-name="iacute" horiz-adv-x="178" d="M44 662L224 706L214 612L36 587L44 662ZM49 567H189L129 0H-11L49 567Z" />
<glyph unicode="&#xee;" glyph-name="icircumflex" horiz-adv-x="178" d="M33 652L108 706H158L225 652L218 590L125 614L26 590L33 652ZM49 567H189L129 0H-11L49 567Z" />
<glyph unicode="&#xef;" glyph-name="idieresis" horiz-adv-x="178" d="M29 678H122L113 595H20L29 678ZM141 678H235L226 595H132L141 678ZM49 567H189L129 0H-11L49 567Z" />
<glyph unicode="&#xf0;" glyph-name="eth" horiz-adv-x="386" d="M80 611L141 626L106 678H258L271 658L346 677L341 626L300 616L316 593Q335 567 348 545T370 500T381 450T380 389L356 164Q338 -9 172 -9Q86 -9 41 39T6 181L29 403Q38 485 68 518T146 551Q166
551 182 544T206 527Q203 532 200 538Q197 543 194 549T186 562L170 584L74 561L80 611ZM175 99Q195 99 203 112T214 146L243 421Q245 442 238 455T211 468Q190 468 182 455T171 421L142 146Q140 125 147 112T175 99Z" />
<glyph unicode="&#xf1;" glyph-name="ntilde" horiz-adv-x="383" d="M49 567H189L182 506H184Q197 533 220 554T288 576Q312 576 331 568T363 542T379 495T380 423L336 0H196L240 425Q242 443 237 454T212 466Q192 466 184 455T174 424L129 0H-11L49 567ZM368
595Q372 638 389 664T447 690Q473 690 494 680T527 670Q538 670 539 686H607Q602 645 585 618T528 590Q501 590 479 600T447 610Q436 610 435 595H368Z" />
<glyph unicode="&#xf2;" glyph-name="ograve" horiz-adv-x="386" d="M172 -9Q85 -9 41 39T6 181L29 403Q48 576 215 576Q300 576 344 527T379 386L356 164Q338 -9 172 -9ZM175 99Q195 99 203 112T214 146L243 421Q245 442 238 455T211 468Q190 468 182 455T171
421L142 146Q140 125 147 112T175 99ZM379 613L389 706L593 661L584 587L379 613Z" />
<glyph unicode="&#xf3;" glyph-name="oacute" horiz-adv-x="386" d="M392 662L599 706L588 612L384 587L392 662ZM172 -9Q85 -9 41 39T6 181L29 403Q48 576 215 576Q300 576 344 527T379 386L356 164Q338 -9 172 -9ZM175 99Q195 99 203 112T214 146L243 421Q245
442 238 455T211 468Q190 468 182 455T171 421L142 146Q140 125 147 112T175 99Z" />
<glyph unicode="&#xf4;" glyph-name="ocircumflex" horiz-adv-x="386" d="M374 658L463 715H514L594 658L587 590L482 623L366 590L374 658ZM172 -9Q85 -9 41 39T6 181L29 403Q48 576 215 576Q300 576 344 527T379 386L356 164Q338 -9 172 -9ZM175 99Q195 99 203
112T214 146L243 421Q245 442 238 455T211 468Q190 468 182 455T171 421L142 146Q140 125 147 112T175 99Z" />
<glyph unicode="&#xf5;" glyph-name="otilde" horiz-adv-x="386" d="M172 -9Q85 -9 41 39T6 181L29 403Q48 576 215 576Q300 576 344 527T379 386L356 164Q338 -9 172 -9ZM175 99Q195 99 203 112T214 146L243 421Q245 442 238 455T211 468Q190 468 182 455T171
421L142 146Q140 125 147 112T175 99ZM365 595Q369 638 386 664T444 690Q470 690 491 680T524 670Q535 670 536 686H604Q599 645 582 618T525 590Q498 590 476 600T444 610Q433 610 432 595H365Z" />
<glyph unicode="&#xf6;" glyph-name="odieresis" horiz-adv-x="386" d="M363 678H478L469 590H354L363 678ZM498 678H613L604 590H489L498 678ZM172 -9Q85 -9 41 39T6 181L29 403Q48 576 215 576Q300 576 344 527T379 386L356 164Q338 -9 172 -9ZM175 99Q195 99
203 112T214 146L243 421Q245 442 238 455T211 468Q190 468 182 455T171 421L142 146Q140 125 147 112T175 99Z" />
<glyph unicode="&#xf7;" glyph-name="divide" horiz-adv-x="349" d="M26 388H343L332 285H15L26 388ZM114 262H229L217 149H102L114 262ZM142 523H257L245 410H130L142 523Z" />
<glyph unicode="&#xf8;" glyph-name="oslash" horiz-adv-x="386" d="M30 54Q14 77 8 109T6 181L29 403Q38 491 85 533T215 576Q282 576 325 544L348 581H403L358 507Q386 458 379 386L356 164Q347 77 300 34T171 -9Q104 -9 64 19L41 -19H-14L30 54ZM151 253L244
416L245 421Q247 442 240 455T210 469Q189 469 180 456T169 421L151 253ZM175 98Q195 98 204 111T216 146L232 304L139 140Q138 121 146 110T175 98Z" />
<glyph unicode="&#xf9;" glyph-name="ugrave" horiz-adv-x="384" d="M96 -9Q44 -9 20 26T3 143L48 567H188L143 142Q141 123 147 112T172 101Q192 101 200 113T210 143L255 567H395L335 0H195L202 61H200Q186 33 163 12T96 -9ZM373 613L383 706L587 661L578 587L373 613Z" />
<glyph unicode="&#xfa;" glyph-name="uacute" horiz-adv-x="384" d="M388 662L595 706L584 612L380 587L388 662ZM96 -9Q44 -9 20 26T3 143L48 567H188L143 142Q141 123 147 112T172 101Q192 101 200 113T210 143L255 567H395L335 0H195L202 61H200Q186 33 163 12T96 -9Z" />
<glyph unicode="&#xfb;" glyph-name="ucircumflex" horiz-adv-x="384" d="M376 658L465 715H516L596 658L589 590L484 623L368 590L376 658ZM96 -9Q44 -9 20 26T3 143L48 567H188L143 142Q141 123 147 112T172 101Q192 101 200 113T210 143L255 567H395L335 0H195L202
61H200Q186 33 163 12T96 -9Z" />
<glyph unicode="&#xfc;" glyph-name="udieresis" horiz-adv-x="384" d="M364 678H479L470 590H355L364 678ZM499 678H614L605 590H490L499 678ZM96 -9Q44 -9 20 26T3 143L48 567H188L143 142Q141 123 147 112T172 101Q192 101 200 113T210 143L255 567H395L335
0H195L202 61H200Q186 33 163 12T96 -9Z" />
<glyph unicode="&#xfd;" glyph-name="yacute" horiz-adv-x="363" d="M32 15H80Q94 15 100 20T112 40L115 49H78L30 567H169L178 240H179L260 567H388L225 4Q217 -22 205 -40T176 -69T134 -85T76 -90H21L32 15ZM382 662L589 706L578 612L374 587L382 662Z" />
<glyph unicode="&#xfe;" glyph-name="thorn" horiz-adv-x="383" d="M60 678H200L182 506H184Q191 519 199 531T220 554T249 570T287 576Q337 576 363 539T381 422L350 132Q342 55 311 23T234 -9Q188 -9 167 12T137 59H135L119 -90H-21L60 678ZM175 101Q195 101
202 111T211 141L241 425Q243 443 237 454T211 466Q191 466 183 454T173 419L144 144Q139 101 175 101Z" />
<glyph unicode="&#xff;" glyph-name="ydieresis" horiz-adv-x="363" d="M32 15H80Q94 15 100 20T112 40L115 49H78L30 567H169L178 240H179L260 567H388L225 4Q217 -22 205 -40T176 -69T134 -85T76 -90H21L32 15ZM355 678H470L461 590H346L355 678ZM490 678H605L596
590H481L490 678Z" />
<glyph unicode="&#x100;" glyph-name="Amacron" horiz-adv-x="421" d="M166 678H329L389 0H242L236 109H136L110 0H-28L166 678ZM219 449L162 216H231L220 449H219ZM144 784H365L357 708H136L144 784Z" />
<glyph unicode="&#x101;" glyph-name="amacron" horiz-adv-x="375" d="M99 -9Q39 -9 13 29T-5 143L-1 182Q3 218 15 241T48 282T94 311T153 337Q177 346 191 354T214 369T226 386T232 408L234 426Q236 446 231 457T205 468Q187 468 178 458T167 428L161 368H33L38
420Q42 456 53 484T86 533T139 565T215 576Q306 576 342 532T370 402L328 0H188L193 49H190Q179 29 159 10T99 -9ZM167 94Q187 94 194 107T203 141L216 271Q210 266 202 261T173 242Q155 231 148 219T139 180L135 141Q133 121 139 108T167 94ZM374 674H595L587
598H366L374 674Z" />
<glyph unicode="&#x102;" glyph-name="Abreve" horiz-adv-x="421" d="M166 678H329L389 0H242L236 109H136L110 0H-28L166 678ZM219 449L162 216H231L220 449H219ZM251 702Q204 702 174 726T143 795H230Q230 776 253 776Q274 776 279 795H364Q356 748 326 725T251 702Z" />
<glyph unicode="&#x103;" glyph-name="abreve" horiz-adv-x="375" d="M99 -9Q39 -9 13 29T-5 143L-1 182Q3 218 15 241T48 282T94 311T153 337Q177 346 191 354T214 369T226 386T232 408L234 426Q236 446 231 457T205 468Q187 468 178 458T167 428L161 368H33L38
420Q42 456 53 484T86 533T139 565T215 576Q306 576 342 532T370 402L328 0H188L193 49H190Q179 29 159 10T99 -9ZM167 94Q187 94 194 107T203 141L216 271Q210 266 202 261T173 242Q155 231 148 219T139 180L135 141Q133 121 139 108T167 94ZM478 592Q431 592
401 616T370 685H457Q457 666 480 666Q501 666 506 685H591Q583 638 553 615T478 592Z" />
<glyph unicode="&#x104;" glyph-name="Aogonek" horiz-adv-x="421" d="M323 -90Q259 -90 259 -53Q259 -35 275 -22T314 0H242L237 109H137L110 0H-28L166 678H329L389 0Q381 -6 374 -12T367 -25Q367 -29 369 -31T380 -33H384L378 -90H323ZM232 216L220 449H219L162
216H232Z" />
<glyph unicode="&#x105;" glyph-name="aogonek" horiz-adv-x="375" d="M262 -90Q198 -90 198 -53Q198 -35 214 -22T253 0H188L193 49H190Q179 29 159 10T99 -9Q39 -9 13 29T-5 143L-1 182Q3 218 15 241T48 282T94 311T153 337Q177 346 191 354T214 369T226 386T232
408L234 426Q236 446 231 457T205 468Q187 468 178 458T167 428L161 368H33L38 420Q42 456 53 484T86 533T139 565T215 576Q306 576 342 532T370 402L328 0Q320 -6 313 -12T306 -25Q306 -29 308 -31T319 -33H323L317 -90H262ZM167 94Q187 94 194 107T203 141L216
271Q210 266 202 261T173 242Q155 231 148 219T139 180L135 141Q133 121 139 108T167 94Z" />
<glyph unicode="&#x106;" glyph-name="Cacute" horiz-adv-x="395" d="M146 772L353 816L342 722L138 697L146 772ZM180 -9Q132 -9 98 5T42 46T12 109T9 190L42 507Q50 589 97 638T239 687Q287 687 320 673T372 634T397 573T399 495L393 431H259L268 518Q271 543
264 558T233 574Q210 574 201 559T188 521L151 159Q148 136 155 120T187 104Q211 104 219 118T231 156L244 283H377L365 164Q361 124 349 92T315 38T260 3T180 -9Z" />
<glyph unicode="&#x107;" glyph-name="cacute" horiz-adv-x="375" d="M390 662L597 706L586 612L382 587L390 662ZM174 -9Q83 -9 40 40T7 181L30 402Q39 488 85 532T215 576Q301 576 341 533T373 396L369 363H236L242 420Q244 442 238 455T211 468Q191 468 183
455T172 422L143 146Q141 125 148 112T177 99Q197 99 205 111T216 145L225 235H355L349 165Q340 77 298 34T174 -9Z" />
<glyph unicode="&#x108;" glyph-name="Ccircumflex" horiz-adv-x="395" d="M136 768L225 825H276L356 768L349 700L244 733L128 700L136 768ZM180 -9Q132 -9 98 5T42 46T12 109T9 190L42 507Q50 589 97 638T239 687Q287 687 320 673T372 634T397 573T399 495L393
431H259L268 518Q271 543 264 558T233 574Q210 574 201 559T188 521L151 159Q148 136 155 120T187 104Q211 104 219 118T231 156L244 283H377L365 164Q361 124 349 92T315 38T260 3T180 -9Z" />
<glyph unicode="&#x109;" glyph-name="ccircumflex" horiz-adv-x="375" d="M376 658L465 715H516L596 658L589 590L484 623L368 590L376 658ZM174 -9Q83 -9 40 40T7 181L30 402Q39 488 85 532T215 576Q301 576 341 533T373 396L369 363H236L242 420Q244 442 238
455T211 468Q191 468 183 455T172 422L143 146Q141 125 148 112T177 99Q197 99 205 111T216 145L225 235H355L349 165Q340 77 298 34T174 -9Z" />
<glyph unicode="&#x10a;" glyph-name="Cdotaccent" horiz-adv-x="395" d="M180 -9Q132 -9 98 5T42 46T12 109T9 190L42 507Q50 589 97 638T239 687Q287 687 320 673T372 634T397 573T399 495L393 431H259L268 518Q271 543 264 558T233 574Q210 574 201 559T188
521L151 159Q148 136 155 120T187 104Q211 104 219 118T231 156L244 283H377L365 164Q361 124 349 92T315 38T260 3T180 -9ZM176 788H316L307 700H167L176 788Z" />
<glyph unicode="&#x10b;" glyph-name="cdotaccent" horiz-adv-x="375" d="M174 -9Q83 -9 40 40T7 181L30 402Q39 488 85 532T215 576Q301 576 341 533T373 396L369 363H236L242 420Q244 442 238 455T211 468Q191 468 183 455T172 422L143 146Q141 125 148 112T177
99Q197 99 205 111T216 145L225 235H355L349 165Q340 77 298 34T174 -9ZM417 678H557L548 590H408L417 678Z" />
<glyph unicode="&#x10c;" glyph-name="Ccaron" horiz-adv-x="395" d="M137 760L144 828L251 795L364 828L357 760L267 703H217L137 760ZM180 -9Q132 -9 98 5T42 46T12 109T9 190L42 507Q50 589 97 638T239 687Q287 687 320 673T372 634T397 573T399 495L393 431H259L268
518Q271 543 264 558T233 574Q210 574 201 559T188 521L151 159Q148 136 155 120T187 104Q211 104 219 118T231 156L244 283H377L365 164Q361 124 349 92T315 38T260 3T180 -9Z" />
<glyph unicode="&#x10d;" glyph-name="ccaron" horiz-adv-x="375" d="M378 650L385 718L492 685L605 718L598 650L508 593H458L378 650ZM174 -9Q83 -9 40 40T7 181L30 402Q39 488 85 532T215 576Q301 576 341 533T373 396L369 363H236L242 420Q244 442 238 455T211
468Q191 468 183 455T172 422L143 146Q141 125 148 112T177 99Q197 99 205 111T216 145L225 235H355L349 165Q340 77 298 34T174 -9Z" />
<glyph unicode="&#x10e;" glyph-name="Dcaron" horiz-adv-x="408" d="M376 760L383 828L490 795L603 828L596 760L506 703H456L376 760ZM179 110Q205 110 217 123T231 163L268 516Q271 540 261 554T225 568H194L146 110H179ZM61 678H252Q301 678 333 664T384 624T408
562T410 479L379 181Q374 138 363 105T330 48T276 12T196 0H-10L61 678Z" />
<glyph unicode="&#x10f;" glyph-name="dcaron" horiz-adv-x="383" d="M422 678H515L514 665L474 585H412L422 678ZM100 -9Q46 -9 21 28T3 145L34 438Q42 515 73 545T153 576Q196 576 217 556T246 509H248L266 678H406L335 0H195L201 61H199Q193 48 185 36T165
13T137 -3T100 -9ZM171 99Q192 99 200 112T210 145L239 426Q241 445 235 456T208 467Q190 467 183 456T173 427L143 142Q141 125 146 112T171 99Z" />
<glyph unicode="&#x110;" glyph-name="Dcroat" horiz-adv-x="417" d="M12 400H40L69 678H261Q310 678 342 664T393 624T417 562T418 479L387 181Q382 138 371 105T338 48T284 12T204 0H-2L28 291H0L12 400ZM188 110Q214 110 225 123T240 163L277 516Q279 540 269
554T233 568H202L184 400H234L223 291H173L155 110H188Z" />
<glyph unicode="&#x111;" glyph-name="dcroat" horiz-adv-x="384" d="M100 -9Q46 -9 21 28T3 145L34 438Q42 515 73 545T153 576Q196 576 217 556T246 509H248L256 590H182L188 639H262L266 678H406L402 639H431L425 590H397L335 0H195L201 61H199Q193 48 185
36T165 13T137 -3T100 -9ZM171 99Q192 99 200 112T210 145L239 426Q241 445 235 456T208 467Q190 467 183 456T173 427L143 142Q141 125 146 112T171 99Z" />
<glyph unicode="&#x112;" glyph-name="Emacron" horiz-adv-x="322" d="M61 678H347L335 568H194L177 400H276L264 291H165L146 110H287L276 0H-10L61 678ZM358 784H579L571 708H350L358 784Z" />
<glyph unicode="&#x113;" glyph-name="emacron" horiz-adv-x="378" d="M171 -9Q85 -9 41 40T7 182L30 403Q39 488 85 532T217 576Q300 576 342 528T373 392L360 269H156L143 147Q141 126 148 113T177 99Q197 99 205 111T216 145L225 235H356L349 163Q341 75 299
33T171 -9ZM236 364L242 423Q244 444 237 456T211 468Q191 468 183 455T172 421L166 364H236ZM375 674H596L588 598H367L375 674Z" />
<glyph unicode="&#x114;" glyph-name="Ebreve" horiz-adv-x="322" d="M61 678H347L335 568H194L177 400H276L264 291H165L146 110H287L276 0H-10L61 678ZM467 702Q420 702 390 726T359 795H446Q446 776 469 776Q490 776 495 795H580Q572 748 542 725T467 702Z" />
<glyph unicode="&#x115;" glyph-name="ebreve" horiz-adv-x="378" d="M171 -9Q85 -9 41 40T7 182L30 403Q39 488 85 532T217 576Q300 576 342 528T373 392L360 269H156L143 147Q141 126 148 113T177 99Q197 99 205 111T216 145L225 235H356L349 163Q341 75 299
33T171 -9ZM236 364L242 423Q244 444 237 456T211 468Q191 468 183 455T172 421L166 364H236ZM481 592Q434 592 404 616T373 685H460Q460 666 483 666Q504 666 509 685H594Q586 638 556 615T481 592Z" />
<glyph unicode="&#x116;" glyph-name="Edotaccent" horiz-adv-x="322" d="M61 678H347L335 568H194L177 400H276L264 291H165L146 110H287L276 0H-10L61 678ZM404 788H544L535 700H395L404 788Z" />
<glyph unicode="&#x117;" glyph-name="edotaccent" horiz-adv-x="378" d="M171 -9Q85 -9 41 40T7 182L30 403Q39 488 85 532T217 576Q300 576 342 528T373 392L360 269H156L143 147Q141 126 148 113T177 99Q197 99 205 111T216 145L225 235H356L349 163Q341 75
299 33T171 -9ZM236 364L242 423Q244 444 237 456T211 468Q191 468 183 455T172 421L166 364H236ZM416 678H556L547 590H407L416 678Z" />
<glyph unicode="&#x118;" glyph-name="Eogonek" horiz-adv-x="322" d="M61 678H347L335 568H194L177 400H276L264 291H165L146 110H287L276 0H248Q240 -6 233 -12T225 -25Q225 -33 239 -33H243L237 -90H182Q118 -90 118 -53Q118 -35 133 -22T172 0H-10L61 678Z" />
<glyph unicode="&#x119;" glyph-name="eogonek" horiz-adv-x="378" d="M186 -90Q122 -90 122 -53Q122 -39 132 -28T160 -8H157Q77 -4 37 45T7 182L30 403Q39 488 85 532T217 576Q300 576 342 528T373 392L360 269H156L143 147Q141 126 148 113T177 99Q197 99 205
111T216 145L225 235H356L349 163Q344 112 328 77T280 20Q263 7 246 -3T229 -25Q229 -29 231 -31T242 -33H247L241 -90H186ZM236 364L242 423Q244 444 237 456T211 468Q191 468 183 455T172 421L166 364H236Z" />
<glyph unicode="&#x11a;" glyph-name="Ecaron" horiz-adv-x="322" d="M359 760L366 828L473 795L586 828L579 760L489 703H439L359 760ZM61 678H347L335 568H194L177 400H276L264 291H165L146 110H287L276 0H-10L61 678Z" />
<glyph unicode="&#x11b;" glyph-name="ecaron" horiz-adv-x="378" d="M371 650L378 718L485 685L598 718L591 650L501 593H451L371 650ZM171 -9Q85 -9 41 40T7 182L30 403Q39 488 85 532T217 576Q300 576 342 528T373 392L360 269H156L143 147Q141 126 148 113T177
99Q197 99 205 111T216 145L225 235H356L349 163Q341 75 299 33T171 -9ZM236 364L242 423Q244 444 237 456T211 468Q191 468 183 455T172 421L166 364H236Z" />
<glyph unicode="&#x11c;" glyph-name="Gcircumflex" horiz-adv-x="404" d="M141 768L230 825H281L361 768L354 700L249 733L133 700L141 768ZM140 -9Q60 -9 30 44T9 189L43 505Q52 591 99 639T239 687Q288 687 322 674T375 637T401 578T404 501L399 451H267L275
520Q277 544 269 559T236 574Q213 574 203 560T189 519L152 159Q150 135 157 120T188 104Q211 104 220 118T231 155L242 262H202L213 369H390L352 0H246L253 74Q237 36 209 14T140 -9Z" />
<glyph unicode="&#x11d;" glyph-name="gcircumflex" horiz-adv-x="382" d="M374 658L463 715H514L594 658L587 590L482 623L366 590L374 658ZM181 198Q201 198 209 210T219 243L238 423Q243 467 207 467Q188 467 181 456T171 426L152 240Q150 221 156 210T181
198ZM156 -99Q107 -99 74 -87T21 -54T-5 -6T-9 52L-7 67H119L118 57Q116 37 124 23T156 9Q179 9 188 22T200 60L210 160H209Q202 147 194 135T174 112T147 96T110 90Q56 90 30 126T11 243L32 438Q40 513 70 544T153 576Q195 576 216 556T245 509H247L253 567H393L341
70Q332 -13 290 -56T156 -99Z" />
<glyph unicode="&#x11e;" glyph-name="Gbreve" horiz-adv-x="404" d="M140 -9Q60 -9 30 44T9 189L43 505Q52 591 99 639T239 687Q288 687 322 674T375 637T401 578T404 501L399 451H267L275 520Q277 544 269 559T236 574Q213 574 203 560T189 519L152 159Q150
135 157 120T188 104Q211 104 220 118T231 155L242 262H202L213 369H390L352 0H246L253 74Q237 36 209 14T140 -9ZM250 702Q203 702 173 726T142 795H229Q229 776 252 776Q273 776 278 795H363Q355 748 325 725T250 702Z" />
<glyph unicode="&#x11f;" glyph-name="gbreve" horiz-adv-x="382" d="M181 198Q201 198 209 210T219 243L238 423Q243 467 207 467Q188 467 181 456T171 426L152 240Q150 221 156 210T181 198ZM156 -99Q107 -99 74 -87T21 -54T-5 -6T-9 52L-7 67H119L118 57Q116
37 124 23T156 9Q179 9 188 22T200 60L210 160H209Q202 147 194 135T174 112T147 96T110 90Q56 90 30 126T11 243L32 438Q40 513 70 544T153 576Q195 576 216 556T245 509H247L253 567H393L341 70Q332 -13 290 -56T156 -99ZM478 592Q431 592 401 616T370 685H457Q457
666 480 666Q501 666 506 685H591Q583 638 553 615T478 592Z" />
<glyph unicode="&#x120;" glyph-name="Gdotaccent" horiz-adv-x="404" d="M140 -9Q60 -9 30 44T9 189L43 505Q52 591 99 639T239 687Q288 687 322 674T375 637T401 578T404 501L399 451H267L275 520Q277 544 269 559T236 574Q213 574 203 560T189 519L152 159Q150
135 157 120T188 104Q211 104 220 118T231 155L242 262H202L213 369H390L352 0H246L253 74Q237 36 209 14T140 -9ZM178 788H318L309 700H169L178 788Z" />
<glyph unicode="&#x121;" glyph-name="gdotaccent" horiz-adv-x="382" d="M181 198Q201 198 209 210T219 243L238 423Q243 467 207 467Q188 467 181 456T171 426L152 240Q150 221 156 210T181 198ZM156 -99Q107 -99 74 -87T21 -54T-5 -6T-9 52L-7 67H119L118 57Q116
37 124 23T156 9Q179 9 188 22T200 60L210 160H209Q202 147 194 135T174 112T147 96T110 90Q56 90 30 126T11 243L32 438Q40 513 70 544T153 576Q195 576 216 556T245 509H247L253 567H393L341 70Q332 -13 290 -56T156 -99ZM412 678H552L543 590H403L412 678Z"
/>
<glyph unicode="&#x122;" glyph-name="Gcommaaccent" horiz-adv-x="404" d="M102 -21H226L225 -32L179 -90H87L102 -21ZM140 -9Q60 -9 30 44T9 189L43 505Q52 591 99 639T239 687Q288 687 322 674T375 637T401 578T404 501L399 451H267L275 520Q277 544 269 559T236
574Q213 574 203 560T189 519L152 159Q150 135 157 120T188 104Q211 104 220 118T231 155L242 262H202L213 369H390L352 0H246L253 74Q237 36 209 14T140 -9Z" />
<glyph unicode="&#x123;" glyph-name="gcommaaccent" horiz-adv-x="382" d="M416 605L470 667H566L547 592H415L416 605ZM181 198Q201 198 209 210T219 243L238 423Q243 467 207 467Q188 467 181 456T171 426L152 240Q150 221 156 210T181 198ZM156 -99Q107 -99
74 -87T21 -54T-5 -6T-9 52L-7 67H119L118 57Q116 37 124 23T156 9Q179 9 188 22T200 60L210 160H209Q202 147 194 135T174 112T147 96T110 90Q56 90 30 126T11 243L32 438Q40 513 70 544T153 576Q195 576 216 556T245 509H247L253 567H393L341 70Q332 -13 290
-56T156 -99Z" />
<glyph unicode="&#x124;" glyph-name="Hcircumflex" horiz-adv-x="408" d="M143 768L232 825H283L363 768L356 700L251 733L135 700L143 768ZM283 678H429L358 0H212L242 291H165L135 0H-10L61 678H206L177 400H254L283 678Z" />
<glyph unicode="&#x125;" glyph-name="hcircumflex" horiz-adv-x="383" d="M130 768L219 825H270L350 768L343 700L238 733L122 700L130 768ZM60 678H200L182 506H184Q197 534 220 555T288 576Q337 576 362 541T380 423L336 0H196L240 425Q242 444 236 455T212
466Q192 466 184 454T173 421L129 0H-11L60 678Z" />
<glyph unicode="&#x126;" glyph-name="Hbar" horiz-adv-x="431" d="M30 571H61L72 678H217L206 571H283L294 678H440L429 571H460L452 495H421L369 0H223L253 291H176L146 0H1L53 495H22L30 571ZM265 400L275 495H198L188 400H265Z" />
<glyph unicode="&#x127;" glyph-name="hbar" horiz-adv-x="384" d="M179 608H111L112 622H180L179 608ZM60 678H200L182 506H184Q197 534 220 555T288 576Q337 576 362 541T380 423L336 0H196L240 425Q242 444 236 455T212 466Q192 466 184 454T173 421L129 0H-11L60
678Z" />
<glyph unicode="&#x128;" glyph-name="Itilde" horiz-adv-x="185" d="M27 706Q33 752 49 780T106 809Q131 809 147 799T175 789Q187 789 188 805H256Q251 758 234 730T176 701Q150 701 134 711T107 721Q95 721 94 706H27ZM61 678H206L135 0H-10L61 678Z" />
<glyph unicode="&#x129;" glyph-name="itilde" horiz-adv-x="178" d="M15 595Q20 638 37 664T93 690Q118 690 133 680T159 670Q170 670 171 686H239Q234 644 217 617T162 590Q136 590 121 600T95 610Q84 610 83 595H15ZM49 567H189L129 0H-11L49 567Z" />
<glyph unicode="&#x12a;" glyph-name="Imacron" horiz-adv-x="185" d="M42 796H244L234 708H32L42 796ZM61 678H206L135 0H-10L61 678Z" />
<glyph unicode="&#x12b;" glyph-name="imacron" horiz-adv-x="178" d="M36 674H222L214 600H28L36 674ZM49 567H189L129 0H-11L49 567Z" />
<glyph unicode="&#x12c;" glyph-name="Ibreve" horiz-adv-x="185" d="M140 702Q96 702 70 727T45 804H123Q124 796 128 791T144 785Q155 785 160 790T169 804H246Q238 753 210 728T140 702ZM61 678H206L135 0H-10L61 678Z" />
<glyph unicode="&#x12d;" glyph-name="ibreve" horiz-adv-x="178" d="M130 592Q85 592 61 617T37 685H114Q114 666 133 666Q150 666 153 685H230Q223 637 197 615T130 592ZM49 567H189L129 0H-11L49 567Z" />
<glyph unicode="&#x12e;" glyph-name="Iogonek" horiz-adv-x="185" d="M69 -90Q5 -90 5 -53Q5 -35 20 -22T59 0H-10L61 678H206L135 0Q127 -6 120 -12T112 -25Q112 -33 125 -33H130L124 -90H69Z" />
<glyph unicode="&#x12f;" glyph-name="iogonek" horiz-adv-x="178" d="M63 -90Q-1 -90 -1 -53Q-1 -35 14 -22T53 0H-11L49 567H189L129 0Q121 -6 114 -12T106 -25Q106 -33 120 -33H124L118 -90H63ZM60 678H200L190 587H50L60 678Z" />
<glyph unicode="&#x130;" glyph-name="Idotaccent" horiz-adv-x="185" d="M61 678H206L135 0H-10L61 678ZM331 788H471L462 700H322L331 788Z" />
<glyph unicode="&#x131;" glyph-name="dotlessi" horiz-adv-x="178" d="M49 567H189L129 0H-11L49 567Z" />
<glyph unicode="&#x132;" glyph-name="IJ" horiz-adv-x="552" d="M61 678H206L135 0H-10L61 678ZM338 -9Q287 -9 255 4T206 41T183 94T182 159L195 283H333L318 146Q313 104 343 104Q369 104 372 142L428 678H574L519 151Q515 113 504 84T471 34T417 2T338 -9Z" />
<glyph unicode="&#x133;" glyph-name="ij" horiz-adv-x="357" d="M49 567H189L129 0H-11L49 567ZM60 678H200L190 587H50L60 678ZM141 -9H147Q158 -9 162 -4T169 13L227 567H367L308 6Q305 -24 295 -42T266 -71T223 -86T164 -90H132L141 -9ZM239 678H379L369 587H229L239
678Z" />
<glyph unicode="&#x134;" glyph-name="Jcircumflex" horiz-adv-x="372" d="M222 768L311 825H362L442 768L435 700L330 733L214 700L222 768ZM158 -9Q107 -9 75 4T26 41T3 94T2 159L15 283H153L138 146Q133 104 163 104Q189 104 192 142L248 678H394L339 151Q335
113 324 84T291 34T237 2T158 -9Z" />
<glyph unicode="&#x135;" glyph-name="jcircumflex" horiz-adv-x="178" d="M108 706H158L225 652L218 590L125 614L26 590L33 652L108 706ZM-37 -9H-30Q-10 -9 -9 13L49 567H189L131 6Q128 -24 118 -42T89 -71T46 -86T-13 -90H-46L-37 -9Z" />
<glyph unicode="&#x136;" glyph-name="Kcommaaccent" horiz-adv-x="412" d="M113 -21H237L236 -32L190 -90H98L113 -21ZM302 678H445L302 371L380 0H228L168 317L135 0H-10L61 678H206L177 396L302 678Z" />
<glyph unicode="&#x137;" glyph-name="kcommaaccent" horiz-adv-x="379" d="M102 -21H226L225 -32L179 -90H87L102 -21ZM60 678H200L164 338L268 567H406L284 308L350 0H203L156 259L129 0H-11L60 678Z" />
<glyph unicode="&#x139;" glyph-name="Lacute" horiz-adv-x="300" d="M301 772L508 816L497 722L293 697L301 772ZM61 678H206L146 110H268L257 0H-10L61 678Z" />
<glyph unicode="&#x13a;" glyph-name="lacute" horiz-adv-x="178" d="M53 772L235 816L224 722L45 697L53 772ZM60 678H200L129 0H-11L60 678Z" />
<glyph unicode="&#x13b;" glyph-name="Lcommaaccent" horiz-adv-x="300" d="M310 -21H434L433 -32L387 -90H295L310 -21ZM61 678H206L146 110H268L257 0H-10L61 678Z" />
<glyph unicode="&#x13c;" glyph-name="lcommaaccent" horiz-adv-x="178" d="M250 -21H374L373 -32L327 -90H235L250 -21ZM60 678H200L129 0H-11L60 678Z" />
<glyph unicode="&#x13d;" glyph-name="Lcaron" horiz-adv-x="300" d="M233 678H325L323 652L278 522H216L233 678ZM61 678H206L146 110H268L257 0H-10L61 678Z" />
<glyph unicode="&#x13e;" glyph-name="lcaron" horiz-adv-x="178" d="M219 678H312L311 665L271 585H209L219 678ZM60 678H200L129 0H-11L60 678Z" />
<glyph unicode="&#x13f;" glyph-name="Ldot" horiz-adv-x="329" d="M61 678H206L146 110H268L257 0H-10L61 678ZM211 385H323L312 275H199L211 385Z" />
<glyph unicode="&#x140;" glyph-name="ldot" horiz-adv-x="297" d="M60 678H200L129 0H-11L60 678ZM194 387H302L291 282H183L194 387Z" />
<glyph unicode="&#x141;" glyph-name="Lslash" horiz-adv-x="312" d="M2 323L37 338L73 678H219L190 401L271 435L261 337L180 304L159 110H281L270 0H2L27 241L-8 227L2 323Z" />
<glyph unicode="&#x142;" glyph-name="lslash" horiz-adv-x="207" d="M12 362L43 384L74 678H214L195 495L228 519L217 412L183 387L143 0H3L32 277L1 255L12 362Z" />
<glyph unicode="&#x143;" glyph-name="Nacute" horiz-adv-x="391" d="M148 772L355 816L344 722L140 697L148 772ZM61 678H201L256 333L291 678H412L341 0H215L151 388L111 0H-10L61 678Z" />
<glyph unicode="&#x144;" glyph-name="nacute" horiz-adv-x="383" d="M397 662L604 706L593 612L389 587L397 662ZM49 567H189L182 506H184Q197 533 220 554T288 576Q312 576 331 568T363 542T379 495T380 423L336 0H196L240 425Q242 443 237 454T212 466Q192
466 184 455T174 424L129 0H-11L49 567Z" />
<glyph unicode="&#x145;" glyph-name="Ncommaaccent" horiz-adv-x="391" d="M100 -21H224L223 -32L177 -90H85L100 -21ZM61 678H201L256 333L291 678H412L341 0H215L151 388L111 0H-10L61 678Z" />
<glyph unicode="&#x146;" glyph-name="ncommaaccent" horiz-adv-x="383" d="M94 -21H218L217 -32L171 -90H79L94 -21ZM49 567H189L182 506H184Q197 533 220 554T288 576Q312 576 331 568T363 542T379 495T380 423L336 0H196L240 425Q242 443 237 454T212 466Q192
466 184 455T174 424L129 0H-11L49 567Z" />
<glyph unicode="&#x147;" glyph-name="Ncaron" horiz-adv-x="391" d="M134 760L141 828L248 795L361 828L354 760L264 703H214L134 760ZM61 678H201L256 333L291 678H412L341 0H215L151 388L111 0H-10L61 678Z" />
<glyph unicode="&#x148;" glyph-name="ncaron" horiz-adv-x="383" d="M377 650L384 718L491 685L604 718L597 650L507 593H457L377 650ZM49 567H189L182 506H184Q197 533 220 554T288 576Q312 576 331 568T363 542T379 495T380 423L336 0H196L240 425Q242 443
237 454T212 466Q192 466 184 455T174 424L129 0H-11L49 567Z" />
<glyph unicode="&#x14a;" glyph-name="Eng" horiz-adv-x="391" d="M164 -3H192Q202 -3 205 2T210 16L211 27L151 388L111 0H-10L61 678H201L256 333L291 678H412L342 6Q339 -21 331 -39T307 -69T264 -85T199 -90H154L164 -3Z" />
<glyph unicode="&#x14b;" glyph-name="eng" horiz-adv-x="383" d="M169 -9H176Q196 -9 197 13L240 425Q242 443 237 454T212 466Q177 466 174 424L129 0H-11L49 567H189L182 506H184Q197 533 220 554T288 576Q312 576 331 568T363 542T379 495T380 423L336 7Q333
-23 323 -42T295 -71T252 -86T193 -90H160L169 -9Z" />
<glyph unicode="&#x14c;" glyph-name="Omacron" horiz-adv-x="411" d="M142 784H363L355 708H134L142 784ZM186 104Q209 104 219 118T231 156L269 519Q272 544 264 559T232 574Q209 574 200 559T188 520L150 157Q144 104 186 104ZM185 -9Q87 -9 43 43T9 187L42
508Q51 593 99 640T238 687Q337 687 379 633T412 488L379 167Q370 81 323 36T185 -9Z" />
<glyph unicode="&#x14d;" glyph-name="omacron" horiz-adv-x="386" d="M378 674H599L591 598H370L378 674ZM172 -9Q85 -9 41 39T6 181L29 403Q48 576 215 576Q300 576 344 527T379 386L356 164Q338 -9 172 -9ZM175 99Q195 99 203 112T214 146L243 421Q245 442
238 455T211 468Q190 468 182 455T171 421L142 146Q140 125 147 112T175 99Z" />
<glyph unicode="&#x14e;" glyph-name="Obreve" horiz-adv-x="411" d="M186 104Q209 104 219 118T231 156L269 519Q272 544 264 559T232 574Q209 574 200 559T188 520L150 157Q144 104 186 104ZM185 -9Q87 -9 43 43T9 187L42 508Q51 593 99 640T238 687Q337 687
379 633T412 488L379 167Q370 81 323 36T185 -9ZM248 703Q201 703 171 727T140 796H227Q227 777 250 777Q271 777 276 796H361Q353 749 323 726T248 703Z" />
<glyph unicode="&#x14f;" glyph-name="obreve" horiz-adv-x="386" d="M172 -9Q85 -9 41 39T6 181L29 403Q48 576 215 576Q300 576 344 527T379 386L356 164Q338 -9 172 -9ZM175 99Q195 99 203 112T214 146L243 421Q245 442 238 455T211 468Q190 468 182 455T171
421L142 146Q140 125 147 112T175 99ZM480 592Q433 592 403 616T372 685H459Q459 666 482 666Q503 666 508 685H593Q585 638 555 615T480 592Z" />
<glyph unicode="&#x150;" glyph-name="Ohungarumlaut" horiz-adv-x="411" d="M168 811H281L221 705H145L168 811ZM293 811H406L346 705H269L293 811ZM186 104Q209 104 219 118T231 156L269 519Q272 544 264 559T232 574Q209 574 200 559T188 520L150 157Q144 104
186 104ZM185 -9Q87 -9 43 43T9 187L42 508Q51 593 99 640T238 687Q337 687 379 633T412 488L379 167Q370 81 323 36T185 -9Z" />
<glyph unicode="&#x151;" glyph-name="ohungarumlaut" horiz-adv-x="386" d="M398 701H511L451 595H375L398 701ZM523 701H636L576 595H499L523 701ZM172 -9Q85 -9 41 39T6 181L29 403Q48 576 215 576Q300 576 344 527T379 386L356 164Q338 -9 172 -9ZM175 99Q195
99 203 112T214 146L243 421Q245 442 238 455T211 468Q190 468 182 455T171 421L142 146Q140 125 147 112T175 99Z" />
<glyph unicode="&#x152;" glyph-name="OE" horiz-adv-x="549" d="M154 -9Q70 -9 35 45T9 190L42 508Q51 599 93 643T210 687Q254 687 278 671T313 638L317 678H572L560 568H417L400 400H502L490 291H389L370 110H513L501 0H246L250 40Q240 23 215 7T154 -9ZM186
104Q207 104 217 118T229 156L267 520Q269 544 261 559T231 574Q209 574 200 559T187 520L149 156Q147 133 156 119T186 104Z" />
<glyph unicode="&#x153;" glyph-name="oe" horiz-adv-x="592" d="M162 -9Q81 -9 39 40T6 180L29 402Q39 490 83 533T206 576Q287 576 322 525L326 530Q364 576 442 576Q526 576 561 529T587 394L573 266H371L358 146Q356 125 363 112T391 99Q411 99 419 111T430
144L439 232H570L563 161Q555 78 516 35T396 -9Q350 -9 321 6Q295 19 280 40L277 37Q238 -9 162 -9ZM175 99Q195 99 203 112T214 146L243 421Q245 442 238 455T211 468Q190 468 182 455T171 421L142 146Q140 125 147 112T175 99ZM450 360L457 422Q459 447 451 457T426
468Q407 468 398 456T387 421L381 360H450Z" />
<glyph unicode="&#x154;" glyph-name="Racute" horiz-adv-x="393" d="M390 772L597 816L586 722L382 697L390 772ZM61 678H236Q285 678 318 667T371 634T396 581T398 509L390 427Q386 390 376 365T344 323Q330 312 310 306L363 0H213L167 313L135 0H-10L61 678ZM199
378Q222 378 231 388T244 420L254 522Q257 547 248 557T216 568H194L174 378H199Z" />
<glyph unicode="&#x155;" glyph-name="racute" horiz-adv-x="258" d="M333 662L540 706L529 612L325 587L333 662ZM49 567H189L182 506H184Q188 516 196 527T215 548T242 565T277 572L260 413H218Q192 413 181 400T167 362L129 0H-11L49 567Z" />
<glyph unicode="&#x156;" glyph-name="Rcommaaccent" horiz-adv-x="393" d="M105 -21H229L228 -32L182 -90H90L105 -21ZM61 678H236Q285 678 318 667T371 634T396 581T398 509L390 427Q386 390 376 365T344 323Q330 312 310 306L363 0H213L167 313L135 0H-10L61
678ZM199 378Q222 378 231 388T244 420L254 522Q257 547 248 557T216 568H194L174 378H199Z" />
<glyph unicode="&#x157;" glyph-name="rcommaaccent" horiz-adv-x="258" d="M245 -21H369L368 -32L322 -90H230L245 -21ZM49 567H189L182 506H184Q188 516 196 527T215 548T242 565T277 572L260 413H218Q192 413 181 400T167 362L129 0H-11L49 567Z" />
<glyph unicode="&#x158;" glyph-name="Rcaron" horiz-adv-x="393" d="M373 760L380 828L487 795L600 828L593 760L503 703H453L373 760ZM61 678H236Q285 678 318 667T371 634T396 581T398 509L390 427Q386 390 376 365T344 323Q330 312 310 306L363 0H213L167
313L135 0H-10L61 678ZM199 378Q222 378 231 388T244 420L254 522Q257 547 248 557T216 568H194L174 378H199Z" />
<glyph unicode="&#x159;" glyph-name="rcaron" horiz-adv-x="258" d="M323 650L330 718L437 685L550 718L543 650L453 593H403L323 650ZM49 567H189L182 506H184Q188 516 196 527T215 548T242 565T277 572L260 413H218Q192 413 181 400T167 362L129 0H-11L49 567Z" />
<glyph unicode="&#x15a;" glyph-name="Sacute" horiz-adv-x="381" d="M393 772L600 816L589 722L385 697L393 772ZM169 -9Q121 -9 87 3T33 36T4 86T0 150L9 237H142L133 148Q130 125 138 113T169 100Q189 100 198 111T209 142L212 170Q214 196 207 216T179 257L115
325Q69 374 51 418T39 522L41 541Q44 572 56 598T89 644T143 675T218 687Q314 687 352 640T383 515L379 477H248L253 530Q259 578 218 578Q181 578 176 535L175 525Q173 500 184 481T214 440L282 367Q304 344 319 323T344 281T356 235T356 180L352 145Q344 70 302
31T169 -9Z" />
<glyph unicode="&#x15b;" glyph-name="sacute" horiz-adv-x="352" d="M370 662L577 706L566 612L362 587L370 662ZM155 -9Q67 -9 28 32T-3 155L2 201H126L120 145Q115 99 154 99Q173 99 181 109T192 138L193 151Q194 160 193 168T185 185T169 204T141 228L106
257Q65 290 45 329T29 422L31 438Q38 502 79 539T199 576Q244 576 274 565T323 532T347 481T349 415L347 392H224L227 424Q229 445 223 456T196 468Q177 468 170 459T161 435L160 426Q158 409 166 396T198 363L232 335Q260 313 279 294T309 255T325 212T326 159L324
140Q316 69 275 30T155 -9Z" />
<glyph unicode="&#x15c;" glyph-name="Scircumflex" horiz-adv-x="381" d="M376 768L465 825H516L596 768L589 700L484 733L368 700L376 768ZM169 -9Q121 -9 87 3T33 36T4 86T0 150L9 237H142L133 148Q130 125 138 113T169 100Q189 100 198 111T209 142L212 170Q214
196 207 216T179 257L115 325Q69 374 51 418T39 522L41 541Q44 572 56 598T89 644T143 675T218 687Q314 687 352 640T383 515L379 477H248L253 530Q259 578 218 578Q181 578 176 535L175 525Q173 500 184 481T214 440L282 367Q304 344 319 323T344 281T356 235T356
180L352 145Q344 70 302 31T169 -9Z" />
<glyph unicode="&#x15d;" glyph-name="scircumflex" horiz-adv-x="352" d="M357 658L446 715H497L577 658L570 590L465 623L349 590L357 658ZM155 -9Q67 -9 28 32T-3 155L2 201H126L120 145Q115 99 154 99Q173 99 181 109T192 138L193 151Q194 160 193 168T185
185T169 204T141 228L106 257Q65 290 45 329T29 422L31 438Q38 502 79 539T199 576Q244 576 274 565T323 532T347 481T349 415L347 392H224L227 424Q229 445 223 456T196 468Q177 468 170 459T161 435L160 426Q158 409 166 396T198 363L232 335Q260 313 279 294T309
255T325 212T326 159L324 140Q316 69 275 30T155 -9Z" />
<glyph unicode="&#x15e;" glyph-name="Scedilla" horiz-adv-x="381" d="M169 -9Q121 -9 87 3T33 36T4 86T0 150L9 237H142L133 148Q130 125 138 113T169 100Q189 100 198 111T209 142L212 170Q214 196 207 216T179 257L115 325Q69 374 51 418T39 522L41 541Q44
572 56 598T89 644T143 675T218 687Q314 687 352 640T383 515L379 477H248L253 530Q259 578 218 578Q181 578 176 535L175 525Q173 500 184 481T214 440L282 367Q304 344 319 323T344 281T356 235T356 180L352 145Q344 70 302 31T169 -9ZM95 -70Q118 -69 124 -65T130
-54Q130 -43 115 -43H112L117 0H169L167 -17Q185 -21 195 -28T206 -53Q206 -81 174 -93T91 -105L95 -70Z" />
<glyph unicode="&#x15f;" glyph-name="scedilla" horiz-adv-x="352" d="M155 -9Q67 -9 28 32T-3 155L2 201H126L120 145Q115 99 154 99Q173 99 181 109T192 138L193 151Q194 160 193 168T185 185T169 204T141 228L106 257Q65 290 45 329T29 422L31 438Q38 502
79 539T199 576Q244 576 274 565T323 532T347 481T349 415L347 392H224L227 424Q229 445 223 456T196 468Q177 468 170 459T161 435L160 426Q158 409 166 396T198 363L232 335Q260 313 279 294T309 255T325 212T326 159L324 140Q316 69 275 30T155 -9ZM340 -70Q363
-69 369 -65T375 -54Q375 -43 360 -43H357L362 0H414L412 -17Q430 -21 440 -28T451 -53Q451 -81 419 -93T336 -105L340 -70Z" />
<glyph unicode="&#x160;" glyph-name="Scaron" horiz-adv-x="381" d="M379 760L386 828L493 795L606 828L599 760L509 703H459L379 760ZM169 -9Q121 -9 87 3T33 36T4 86T0 150L9 237H142L133 148Q130 125 138 113T169 100Q189 100 198 111T209 142L212 170Q214
196 207 216T179 257L115 325Q69 374 51 418T39 522L41 541Q44 572 56 598T89 644T143 675T218 687Q314 687 352 640T383 515L379 477H248L253 530Q259 578 218 578Q181 578 176 535L175 525Q173 500 184 481T214 440L282 367Q304 344 319 323T344 281T356 235T356
180L352 145Q344 70 302 31T169 -9Z" />
<glyph unicode="&#x161;" glyph-name="scaron" horiz-adv-x="352" d="M360 650L367 718L474 685L587 718L580 650L490 593H440L360 650ZM155 -9Q67 -9 28 32T-3 155L2 201H126L120 145Q115 99 154 99Q173 99 181 109T192 138L193 151Q194 160 193 168T185 185T169
204T141 228L106 257Q65 290 45 329T29 422L31 438Q38 502 79 539T199 576Q244 576 274 565T323 532T347 481T349 415L347 392H224L227 424Q229 445 223 456T196 468Q177 468 170 459T161 435L160 426Q158 409 166 396T198 363L232 335Q260 313 279 294T309 255T325
212T326 159L324 140Q316 69 275 30T155 -9Z" />
<glyph unicode="&#x162;" glyph-name="Tcommaaccent" horiz-adv-x="341" d="M332 -21H456L455 -32L409 -90H317L332 -21ZM53 678H374L362 568H275L216 0H69L128 568H41L53 678Z" />
<glyph unicode="&#x163;" glyph-name="tcommaaccent" horiz-adv-x="265" d="M313 -21H437L436 -32L390 -90H298L313 -21ZM37 567H76L88 678H228L216 567H282L271 467H205L171 140Q169 123 175 115T202 106H233L222 0H157Q116 0 90 8T50 34T32 80T32 147L65 467H27L37
567Z" />
<glyph unicode="&#x164;" glyph-name="Tcaron" horiz-adv-x="341" d="M363 760L370 828L477 795L590 828L583 760L493 703H443L363 760ZM53 678H374L362 568H275L216 0H69L128 568H41L53 678Z" />
<glyph unicode="&#x165;" glyph-name="tcaron" horiz-adv-x="265" d="M247 678H340L339 665L299 585H237L247 678ZM37 567H76L88 678H228L216 567H282L271 467H205L171 140Q169 123 175 115T202 106H233L222 0H157Q116 0 90 8T50 34T32 80T32 147L65 467H27L37 567Z" />
<glyph unicode="&#x166;" glyph-name="Tbar" horiz-adv-x="341" d="M51 440H115L128 568H41L53 678H374L362 568H275L262 440H325L317 364H254L216 0H69L107 364H44L51 440Z" />
<glyph unicode="&#x167;" glyph-name="tbar" horiz-adv-x="265" d="M22 414H59L65 467H27L37 567H76L88 678H228L216 567H282L271 467H205L199 414H265L260 365H194L171 140Q169 123 175 115T202 106H233L222 0H157Q116 0 90 8T50 34T32 80T32 147L54 365H16L22 414Z" />
<glyph unicode="&#x168;" glyph-name="Utilde" horiz-adv-x="395" d="M181 -9Q83 -9 41 39T8 177L61 678H206L151 155Q149 132 156 118T187 104Q210 104 218 118T229 155L284 678H416L362 162Q354 83 312 37T181 -9ZM132 706Q136 749 153 775T211 801Q237 801
258 791T291 781Q302 781 303 797H371Q366 756 349 729T292 701Q265 701 243 711T211 721Q200 721 199 706H132Z" />
<glyph unicode="&#x169;" glyph-name="utilde" horiz-adv-x="384" d="M96 -9Q44 -9 20 26T3 143L48 567H188L143 142Q141 123 147 112T172 101Q192 101 200 113T210 143L255 567H395L335 0H195L202 61H200Q186 33 163 12T96 -9ZM365 595Q369 638 386 664T444 690Q470
690 491 680T524 670Q535 670 536 686H604Q599 645 582 618T525 590Q498 590 476 600T444 610Q433 610 432 595H365Z" />
<glyph unicode="&#x16a;" glyph-name="Umacron" horiz-adv-x="395" d="M181 -9Q83 -9 41 39T8 177L61 678H206L151 155Q149 132 156 118T187 104Q210 104 218 118T229 155L284 678H416L362 162Q354 83 312 37T181 -9ZM143 784H364L356 708H135L143 784Z" />
<glyph unicode="&#x16b;" glyph-name="umacron" horiz-adv-x="384" d="M96 -9Q44 -9 20 26T3 143L48 567H188L143 142Q141 123 147 112T172 101Q192 101 200 113T210 143L255 567H395L335 0H195L202 61H200Q186 33 163 12T96 -9ZM378 674H599L591 598H370L378 674Z" />
<glyph unicode="&#x16c;" glyph-name="Ubreve" horiz-adv-x="395" d="M181 -9Q83 -9 41 39T8 177L61 678H206L151 155Q149 132 156 118T187 104Q210 104 218 118T229 155L284 678H416L362 162Q354 83 312 37T181 -9ZM249 702Q202 702 172 726T141 795H228Q228
776 251 776Q272 776 277 795H362Q354 748 324 725T249 702Z" />
<glyph unicode="&#x16d;" glyph-name="ubreve" horiz-adv-x="384" d="M96 -9Q44 -9 20 26T3 143L48 567H188L143 142Q141 123 147 112T172 101Q192 101 200 113T210 143L255 567H395L335 0H195L202 61H200Q186 33 163 12T96 -9ZM485 592Q438 592 408 616T377 685H464Q464
666 487 666Q508 666 513 685H598Q590 638 560 615T485 592Z" />
<glyph unicode="&#x16e;" glyph-name="Uring" horiz-adv-x="395" d="M248 683Q211 683 188 706T165 763Q165 796 188 819T248 843Q285 843 308 820T331 763Q331 730 308 707T248 683ZM248 730Q263 730 271 739T280 763Q280 777 272 786T248 796Q234 796 225 787T216
763Q216 749 225 740T248 730ZM181 -9Q83 -9 41 39T8 177L61 678H206L151 155Q149 132 156 118T187 104Q210 104 218 118T229 155L284 678H416L362 162Q354 83 312 37T181 -9Z" />
<glyph unicode="&#x16f;" glyph-name="uring" horiz-adv-x="384" d="M483 593Q446 593 423 616T400 673Q400 706 423 729T483 753Q520 753 543 730T566 673Q566 640 543 617T483 593ZM483 640Q498 640 506 649T515 673Q515 687 507 696T483 706Q469 706 460 697T451
673Q451 659 460 650T483 640ZM96 -9Q44 -9 20 26T3 143L48 567H188L143 142Q141 123 147 112T172 101Q192 101 200 113T210 143L255 567H395L335 0H195L202 61H200Q186 33 163 12T96 -9Z" />
<glyph unicode="&#x170;" glyph-name="Uhungarumlaut" horiz-adv-x="395" d="M181 -9Q83 -9 41 39T8 177L61 678H206L151 155Q149 132 156 118T187 104Q210 104 218 118T229 155L284 678H416L362 162Q354 83 312 37T181 -9ZM421 811H534L474 705H398L421 811ZM546
811H659L599 705H522L546 811Z" />
<glyph unicode="&#x171;" glyph-name="uhungarumlaut" horiz-adv-x="384" d="M96 -9Q44 -9 20 26T3 143L48 567H188L143 142Q141 123 147 112T172 101Q192 101 200 113T210 143L255 567H395L335 0H195L202 61H200Q186 33 163 12T96 -9ZM403 701H516L456 595H380L403
701ZM528 701H641L581 595H504L528 701Z" />
<glyph unicode="&#x172;" glyph-name="Uogonek" horiz-adv-x="395" d="M186 -90Q154 -90 138 -80T122 -51Q122 -26 157 -8Q72 -2 36 45T8 177L61 678H206L151 155Q149 132 156 118T187 104Q210 104 218 118T229 155L284 678H416L362 162Q357 108 338 71T276 11Q260
3 245 -6T229 -25Q229 -29 231 -31T242 -33H247L241 -90H186Z" />
<glyph unicode="&#x173;" glyph-name="uogonek" horiz-adv-x="384" d="M269 -90Q205 -90 205 -53Q205 -35 220 -22T259 0H195L202 61H200Q186 33 163 12T96 -9Q44 -9 20 26T3 143L48 567H188L143 142Q141 123 147 112T172 101Q192 101 200 113T210 143L255 567H395L335
0Q327 -6 320 -12T312 -25Q312 -33 326 -33H330L324 -90H269Z" />
<glyph unicode="&#x174;" glyph-name="Wcircumflex" horiz-adv-x="567" d="M228 769L317 826H368L448 769L441 701L336 734L220 701L228 769ZM47 678H186L187 286H188L274 678H390L399 285H400L486 678H607L449 0H315L298 380H297L200 0H69L47 678Z" />
<glyph unicode="&#x175;" glyph-name="wcircumflex" horiz-adv-x="510" d="M189 658L278 715H329L409 658L402 590L297 623L181 590L189 658ZM34 567H172L164 265H165L242 567H342L357 265H358L412 567H539L397 0H273L262 318L181 0H59L34 567Z" />
<glyph unicode="&#x176;" glyph-name="Ycircumflex" horiz-adv-x="402" d="M127 264L42 678H190L224 444H225L305 678H443L272 258L245 0H100L127 264ZM145 769L234 826H285L365 769L358 701L253 734L137 701L145 769Z" />
<glyph unicode="&#x177;" glyph-name="ycircumflex" horiz-adv-x="363" d="M32 15H80Q94 15 100 20T112 40L115 49H78L30 567H169L178 240H179L260 567H388L225 4Q217 -22 205 -40T176 -69T134 -85T76 -90H21L32 15ZM369 658L458 715H509L589 658L582 590L477
623L361 590L369 658Z" />
<glyph unicode="&#x178;" glyph-name="Ydieresis" horiz-adv-x="402" d="M127 264L42 678H190L224 444H225L305 678H443L272 258L245 0H100L127 264ZM135 788H250L241 700H126L135 788ZM270 788H385L376 700H261L270 788Z" />
<glyph unicode="&#x179;" glyph-name="Zacute" horiz-adv-x="343" d="M386 772L593 816L582 722L378 697L386 772ZM-6 110L205 568H52L63 678H368L356 568L145 110H307L295 0H-18L-6 110Z" />
<glyph unicode="&#x17a;" glyph-name="zacute" horiz-adv-x="308" d="M361 662L568 706L557 612L353 587L361 662ZM-7 104L173 461H40L52 567H325L315 463L136 108H274L263 0H-18L-7 104Z" />
<glyph unicode="&#x17b;" glyph-name="Zdotaccent" horiz-adv-x="343" d="M-6 110L205 568H52L63 678H368L356 568L145 110H307L295 0H-18L-6 110ZM414 788H554L545 700H405L414 788Z" />
<glyph unicode="&#x17c;" glyph-name="zdotaccent" horiz-adv-x="308" d="M-7 104L173 461H40L52 567H325L315 463L136 108H274L263 0H-18L-7 104ZM387 678H527L518 590H378L387 678Z" />
<glyph unicode="&#x17d;" glyph-name="Zcaron" horiz-adv-x="343" d="M374 760L381 828L488 795L601 828L594 760L504 703H454L374 760ZM-6 110L205 568H52L63 678H368L356 568L145 110H307L295 0H-18L-6 110Z" />
<glyph unicode="&#x17e;" glyph-name="zcaron" horiz-adv-x="308" d="M346 650L353 718L460 685L573 718L566 650L476 593H426L346 650ZM-7 104L173 461H40L52 567H325L315 463L136 108H274L263 0H-18L-7 104Z" />
<glyph unicode="&#x192;" glyph-name="florin" horiz-adv-x="263" d="M27 441H73L93 572Q97 599 105 618T129 651T168 671T225 678H289L278 579H252Q241 579 237 574T231 557L213 441H265L255 340H197L131 -90H-9L57 340H17L27 441Z" />
<glyph unicode="&#x218;" glyph-name="Scommaaccent" horiz-adv-x="381" d="M99 -21H223L222 -32L176 -90H84L99 -21ZM169 -9Q121 -9 87 3T33 36T4 86T0 150L9 237H142L133 148Q130 125 138 113T169 100Q189 100 198 111T209 142L212 170Q214 196 207 216T179
257L115 325Q69 374 51 418T39 522L41 541Q44 572 56 598T89 644T143 675T218 687Q314 687 352 640T383 515L379 477H248L253 530Q259 578 218 578Q181 578 176 535L175 525Q173 500 184 481T214 440L282 367Q304 344 319 323T344 281T356 235T356 180L352 145Q344
70 302 31T169 -9Z" />
<glyph unicode="&#x219;" glyph-name="scommaaccent" horiz-adv-x="352" d="M82 -21H206L205 -32L159 -90H67L82 -21ZM155 -9Q67 -9 28 32T-3 155L2 201H126L120 145Q115 99 154 99Q173 99 181 109T192 138L193 151Q194 160 193 168T185 185T169 204T141 228L106
257Q65 290 45 329T29 422L31 438Q38 502 79 539T199 576Q244 576 274 565T323 532T347 481T349 415L347 392H224L227 424Q229 445 223 456T196 468Q177 468 170 459T161 435L160 426Q158 409 166 396T198 363L232 335Q260 313 279 294T309 255T325 212T326 159L324
140Q316 69 275 30T155 -9Z" />
<glyph unicode="&#x21a;" glyph-name="uni021A" horiz-adv-x="341" d="M332 -21H456L455 -32L409 -90H317L332 -21ZM53 678H374L362 568H275L216 0H69L128 568H41L53 678Z" />
<glyph unicode="&#x21b;" glyph-name="uni021B" horiz-adv-x="265" d="M313 -21H437L436 -32L390 -90H298L313 -21ZM37 567H76L88 678H228L216 567H282L271 467H205L171 140Q169 123 175 115T202 106H233L222 0H157Q116 0 90 8T50 34T32 80T32 147L65 467H27L37 567Z" />
<glyph unicode="&#x237;" glyph-name="uni0237" horiz-adv-x="177" d="M-38 -9H-31Q-11 -9 -10 13L48 567H188L130 6Q127 -24 117 -42T88 -71T45 -86T-14 -90H-47L-38 -9Z" />
<glyph unicode="&#x2c6;" glyph-name="circumflex" horiz-adv-x="400" d="M130 658L219 715H270L350 658L343 590L238 623L122 590L130 658Z" />
<glyph unicode="&#x2c7;" glyph-name="caron" horiz-adv-x="400" d="M130 650L137 718L244 685L357 718L350 650L260 593H210L130 650Z" />
<glyph unicode="&#x2d8;" glyph-name="breve" horiz-adv-x="400" d="M238 592Q191 592 161 616T130 685H217Q217 666 240 666Q261 666 266 685H351Q343 638 313 615T238 592Z" />
<glyph unicode="&#x2d9;" glyph-name="dotaccent" horiz-adv-x="274" d="M171 678H311L302 590H162L171 678Z" />
<glyph unicode="&#x2da;" glyph-name="ring" horiz-adv-x="400" d="M239 593Q202 593 179 616T156 673Q156 706 179 729T239 753Q276 753 299 730T322 673Q322 640 299 617T239 593ZM239 640Q254 640 262 649T271 673Q271 687 263 696T239 706Q225 706 216 697T207
673Q207 659 216 650T239 640Z" />
<glyph unicode="&#x2db;" glyph-name="ogonek" horiz-adv-x="400" d="M157 -90Q93 -90 93 -53Q93 -35 109 -22T148 0H223Q215 -6 208 -12T201 -25Q201 -29 203 -31T214 -33H218L212 -90H157Z" />
<glyph unicode="&#x2dc;" glyph-name="tilde" horiz-adv-x="400" d="M116 595Q120 638 137 664T195 690Q221 690 242 680T275 670Q286 670 287 686H355Q350 645 333 618T276 590Q249 590 227 600T195 610Q184 610 183 595H116Z" />
<glyph unicode="&#x2dd;" glyph-name="hungarumlaut" horiz-adv-x="400" d="M168 701H281L221 595H145L168 701ZM293 701H406L346 595H269L293 701Z" />
</font>
</defs>
</svg>
