<?xml version="1.0" standalone="no"?> <!DOCTYPE svg PUBLIC "-//W3C//DTD SVG 1.0//EN" "http://www.w3.org/TR/2001/REC-SVG-20010904/DTD/svg10.dtd" > <svg xmlns="http://www.w3.org/2000/svg" width="100%" height="100%">
<defs >
<font horiz-adv-x="363" ><font-face
    font-family=""
    units-per-em="1000"
    panose-1="2 11 8 3 3 2 2 11 2 4"
    ascent="698"
    descent="-90"
    alphabetic="0" />
<missing-glyph horiz-adv-x="625" />
<glyph unicode=" " glyph-name="space" horiz-adv-x="90" />
<glyph unicode="!" glyph-name="exclam" horiz-adv-x="166" d="M6 100H115L105 0H-4L6 100ZM65 678H183L92 136H37L65 678Z" />
<glyph unicode="&quot;" glyph-name="quotedbl" horiz-adv-x="260" d="M125 526H59L60 678H162L125 526ZM244 526H178L179 678H281L244 526Z" />
<glyph unicode="#" glyph-name="numbersign" horiz-adv-x="340" d="M177 215H127L90 0H25L62 215H8L17 307H78L95 400H38L47 492H111L144 678H209L176 492H226L259 678H324L291 492H345L336 400H275L258 307H315L306 215H242L205 0H140L177 215ZM143 307H193L210
400H160L143 307Z" />
<glyph unicode="$" glyph-name="dollar" horiz-adv-x="366" d="M130 -6Q58 2 28 45T4 151L13 237H115L106 144Q102 94 140 84L162 290L120 339Q97 366 82 389T57 434T45 480T45 529L47 549Q50 577 60 602T90 645T139 674T207 686L211 718H244L240 684Q312 676
341 632T363 515L359 477H259L264 525Q267 553 258 570T231 593L212 409L262 351Q283 327 297 306T320 263T332 217T332 163L329 134Q322 69 283 32T162 -8L158 -50H126L130 -6ZM223 169Q225 195 217 214T190 256L172 82Q195 85 206 99T220 141L223 169ZM149 529Q146
505 155 486T182 444L198 595Q155 589 150 539L149 529Z" />
<glyph unicode="%" glyph-name="percent" horiz-adv-x="533" d="M166 389Q97 389 69 427T46 526L50 564Q56 623 90 654T183 686Q251 686 279 647T302 549L298 511Q292 454 258 422T166 389ZM167 461Q189 461 198 473T210 508L216 565Q218 588 211 601T181 614Q159
614 150 602T138 567L132 510Q130 487 137 474T167 461ZM361 -8Q292 -8 264 30T241 129L245 167Q251 224 285 256T378 289Q446 289 474 250T497 152L493 114Q487 55 453 24T361 -8ZM362 64Q384 64 393 76T405 111L411 168Q413 191 406 204T376 217Q354 217 345
205T333 170L327 113Q325 90 332 77T362 64ZM530 678L86 0H14L458 678H530Z" />
<glyph unicode="&amp;" glyph-name="ampersand" horiz-adv-x="389" d="M351 315L318 0H236L243 74Q218 -8 136 -8Q64 -8 32 37T7 155L17 251Q22 298 45 324T113 361Q77 372 61 404T49 479L55 536Q63 608 103 647T218 686Q263 686 292 674T338 640T359 586T360
514L356 476H252L257 524Q260 556 252 573T216 591Q189 591 178 576T163 532L155 457Q149 402 207 402H387L378 315H351ZM168 87Q199 87 211 103T227 153L244 315H191Q161 315 148 301T132 260L120 148Q117 119 128 103T168 87Z" />
<glyph unicode="&apos;" glyph-name="quotesingle" horiz-adv-x="140" d="M125 526H59L60 678H162L125 526Z" />
<glyph unicode="(" glyph-name="parenleft" horiz-adv-x="235" d="M61 515Q72 609 122 650T259 698L251 625Q201 619 180 590T154 514L112 112Q106 58 120 24T184 -17L176 -90Q92 -82 50 -32T19 113L61 515Z" />
<glyph unicode=")" glyph-name="parenright" horiz-adv-x="235" d="M177 93Q166 -1 116 -42T-21 -90L-13 -17Q37 -11 58 18T84 94L126 496Q132 550 118 584T54 625L62 698Q146 690 188 640T219 495L177 93Z" />
<glyph unicode="*" glyph-name="asterisk" horiz-adv-x="278" d="M165 536L125 448L61 502L140 555L49 561L85 642L154 585L137 678H223L186 584L267 635L286 552H194L261 494L185 446L165 536Z" />
<glyph unicode="+" glyph-name="plus" horiz-adv-x="361" d="M31 380H143L156 501H250L237 380H348L339 292H228L215 171H121L134 292H22L31 380Z" />
<glyph unicode="," glyph-name="comma" horiz-adv-x="167" d="M124 100L55 -53H-9L17 109H124V100Z" />
<glyph unicode="-" glyph-name="hyphen" horiz-adv-x="196" d="M282 617H442L432 525H272L282 617Z" />
<glyph unicode="." glyph-name="period" horiz-adv-x="167" d="M10 109H119L108 0H-1L10 109Z" />
<glyph unicode="/" glyph-name="slash" horiz-adv-x="246" d="M279 698L51 -90H-37L190 698H279Z" />
<glyph unicode="0" glyph-name="zero" horiz-adv-x="387" d="M175 87Q205 87 218 106T234 157L272 521Q275 552 264 571T222 591Q193 591 180 572T163 521L125 157Q122 126 134 107T175 87ZM173 -8Q128 -8 96 6T44 45T17 106T14 185L48 513Q56 593 99 639T224
686Q315 686 353 633T383 493L349 165Q341 86 299 39T173 -8Z" />
<glyph unicode="1" glyph-name="one" horiz-adv-x="256" d="M257 678L186 0H72L126 515H125L36 431H35L48 555L166 678H257Z" />
<glyph unicode="2" glyph-name="two" horiz-adv-x="347" d="M7 125Q10 153 17 174T36 216T66 256T110 302L179 370Q194 385 203 397T219 422T228 450T234 487L240 543Q243 573 230 583T200 594Q182 594 169 584T152 544L143 456H39L49 551Q56 617 95 651T207 686Q289
686 324 647T351 533L344 467Q341 441 336 421T321 382T295 344T254 301L175 224Q151 200 135 179T115 121L112 93H300L290 0H-6L7 125Z" />
<glyph unicode="3" glyph-name="three" horiz-adv-x="365" d="M215 686Q257 686 286 674T333 640T357 588T360 521L354 464Q349 420 327 395T266 359Q310 347 325 313T336 232L326 137Q323 105 312 79T280 33T230 3T158 -8Q114 -8 84 5T35 40T10 94T7 164L16 250H120L110
154Q107 124 118 106T160 87Q186 87 198 101T213 146L225 260Q228 287 217 301T176 315H127L136 402H176Q206 402 224 416T246 462L253 530Q256 559 246 575T208 591Q181 591 168 577T152 532L144 456H40L48 531Q55 601 93 643T215 686Z" />
<glyph unicode="4" glyph-name="four" horiz-adv-x="395" d="M10 180L260 678H372L322 199H367L358 110H312L301 0H193L204 110H3L10 180ZM114 199H216L245 475H244L114 199Z" />
<glyph unicode="5" glyph-name="five" horiz-adv-x="370" d="M241 463Q266 463 288 455T324 427T345 377T348 303L331 137Q324 70 283 31T164 -8Q75 -8 41 39T16 172L23 238H127L118 153Q110 87 166 87Q193 87 204 104T218 148L235 312Q238 340 228 356T193 373Q143
373 136 305L135 296H31L71 678H371L361 585H165L147 416H148Q176 463 241 463Z" />
<glyph unicode="6" glyph-name="six" horiz-adv-x="382" d="M172 -8Q124 -8 92 6T41 45T16 105T14 183L48 513Q52 553 64 585T98 639T151 674T226 686Q271 686 301 674T348 640T371 587T373 519L369 480H265L269 518Q273 553 263 572T220 591Q190 591 178 572T162
521L147 375H148Q162 399 186 414T243 430Q373 430 355 252L345 153Q337 74 296 33T172 -8ZM172 85Q201 85 215 103T232 153L244 271Q247 304 236 321T195 339Q143 339 137 277L124 153Q116 85 172 85Z" />
<glyph unicode="7" glyph-name="seven" horiz-adv-x="320" d="M53 678H339L328 573L122 0H6L217 585H43L53 678Z" />
<glyph unicode="8" glyph-name="eight" horiz-adv-x="387" d="M173 -8Q126 -8 94 6T42 46T15 104T12 177L20 251Q25 302 46 334T111 381Q79 399 66 430T57 503L60 533Q68 613 110 649T226 686Q308 686 347 640T377 511L374 485Q369 441 350 414T294 373Q332 353
347 316T357 231L349 156Q345 118 334 88T301 36T249 4T173 -8ZM175 85Q206 85 219 104T235 155L246 261Q254 335 194 335Q164 335 151 313T135 260L124 155Q120 122 132 104T175 85ZM210 419Q239 419 250 435T265 482L270 530Q273 562 262 578T222 595Q194 595
182 578T167 530L162 484Q154 419 210 419Z" />
<glyph unicode="9" glyph-name="nine" horiz-adv-x="382" d="M220 686Q268 686 300 672T351 633T376 573T378 495L344 165Q335 85 294 39T165 -8Q118 -8 88 4T39 38T15 90T13 159L17 198H121L117 160Q113 125 125 106T171 87Q203 87 214 106T230 157L245 303H244Q230
279 206 264T149 248Q19 248 37 426L47 525Q55 604 96 645T220 686ZM220 593Q191 593 177 575T160 525L148 407Q145 374 156 357T197 339Q249 339 255 401L268 525Q276 593 220 593Z" />
<glyph unicode=":" glyph-name="colon" horiz-adv-x="167" d="M10 109H119L108 0H-1L10 109ZM35 350H144L133 241H24L35 350Z" />
<glyph unicode=";" glyph-name="semicolon" horiz-adv-x="167" d="M378 100L309 -53H245L271 109H378V100ZM40 350H149L138 241H29L40 350Z" />
<glyph unicode="&lt;" glyph-name="less" horiz-adv-x="325" d="M30 364L317 498L306 396L148 332L293 268L282 168L23 302L30 364Z" />
<glyph unicode="=" glyph-name="equal" horiz-adv-x="365" d="M39 426H356L347 344H30L39 426ZM25 296H342L333 214H16L25 296Z" />
<glyph unicode="&gt;" glyph-name="greater" horiz-adv-x="325" d="M304 302L17 168L28 270L185 334L41 398L52 498L311 364L304 302Z" />
<glyph unicode="?" glyph-name="question" horiz-adv-x="342" d="M88 136L97 221Q99 245 101 262T109 293T123 320T146 351L201 416Q215 433 220 446T228 482L234 539Q236 557 233 567T224 584T210 592T194 594Q176 594 164 583T149 541L140 456H35L44 543Q59
686 198 686Q276 686 313 646T342 524L337 478Q333 440 321 415T284 363L224 294Q216 284 211 276T202 260T197 243T194 221L185 136H88ZM77 100H186L176 0H67L77 100Z" />
<glyph unicode="@" glyph-name="at" horiz-adv-x="513" d="M365 116Q362 84 389 84Q401 84 408 90T417 112L455 473Q460 521 449 553T415 604T358 632T284 641Q247 641 215 634T159 610T119 563T99 489L61 126Q53 44 94 0T235 -45H391L386 -90H234Q111 -90 55
-32T10 126L48 489Q54 545 76 583T130 644T202 676T286 686Q333 686 375 675T449 638T496 572T506 473L468 116Q464 80 444 57T378 34Q332 34 313 51T289 93H288Q277 66 257 50T203 34Q182 34 164 40T134 60T116 99T114 161L143 437Q146 467 156 487T182 519T214
537T249 543Q287 543 304 529T327 498H329L333 537H409L365 116ZM206 150Q204 133 210 119T238 105Q257 105 265 116T275 144L304 421Q310 471 274 471Q254 471 246 461T235 427L206 150Z" />
<glyph unicode="A" glyph-name="A" horiz-adv-x="401" d="M-23 0L174 678H304L364 0H250L242 124H121L88 0H-23ZM145 215H236L218 487H217L145 215Z" />
<glyph unicode="B" glyph-name="B" horiz-adv-x="376" d="M66 678H226Q271 678 300 668T345 637T365 587T366 519L359 450Q354 407 336 384T280 350Q325 339 341 308T353 229L343 139Q335 70 299 35T181 0H-5L66 678ZM140 305L118 93H171Q224 93 230 144L241 246Q244
275 232 290T190 305H140ZM149 392H192Q245 392 249 444L258 527Q264 585 209 585H170L149 392Z" />
<glyph unicode="C" glyph-name="C" horiz-adv-x="378" d="M175 -8Q127 -8 94 6T42 47T16 108T14 185L48 509Q52 545 63 577T96 634T150 672T227 686Q273 686 304 673T353 637T377 581T379 511L371 436H267L276 519Q280 553 268 572T225 591Q194 591 181 572T163
521L125 157Q122 125 134 106T179 87Q210 87 222 105T238 153L251 278H355L342 154Q338 118 328 89T298 38T248 4T175 -8Z" />
<glyph unicode="D" glyph-name="D" horiz-adv-x="391" d="M166 93Q201 93 218 111T239 162L276 517Q279 548 266 566T218 585H170L118 93H166ZM242 678Q331 678 363 626T387 486L354 172Q346 94 305 47T177 0H-5L66 678H242Z" />
<glyph unicode="E" glyph-name="E" horiz-adv-x="318" d="M66 678H338L328 585H170L149 391H263L253 299H140L118 93H276L267 0H-5L66 678Z" />
<glyph unicode="F" glyph-name="F" horiz-adv-x="302" d="M66 678H333L323 585H170L150 391H264L254 299H140L109 0H-5L66 678Z" />
<glyph unicode="G" glyph-name="G" horiz-adv-x="393" d="M205 362H367L329 0H247L254 74Q241 39 214 16T145 -8Q106 -8 79 6T36 45T15 106T14 185L48 507Q57 590 99 638T228 686Q320 686 356 638T382 502L377 456H273L280 522Q287 591 226 591Q196 591 182 573T163
516L125 157Q122 125 134 106T177 87Q230 87 236 148L249 272H195L205 362Z" />
<glyph unicode="H" glyph-name="H" horiz-adv-x="389" d="M250 299H140L109 0H-5L66 678H180L150 391H260L290 678H405L334 0H219L250 299Z" />
<glyph unicode="I" glyph-name="I" horiz-adv-x="165" d="M66 678H180L109 0H-5L66 678Z" />
<glyph unicode="J" glyph-name="J" horiz-adv-x="352" d="M369 678L313 144Q309 109 298 81T268 34T219 3T150 -8Q103 -8 73 5T28 40T8 91T7 153L20 278H128L114 148Q108 87 153 87Q176 87 186 101T198 142L255 678H369Z" />
<glyph unicode="K" glyph-name="K" horiz-adv-x="381" d="M143 327L109 0H-5L66 678H180L149 380L303 678H418L251 364L348 0H230L143 327Z" />
<glyph unicode="L" glyph-name="L" horiz-adv-x="287" d="M66 678H180L118 93H254L245 0H-5L66 678Z" />
<glyph unicode="M" glyph-name="M" horiz-adv-x="459" d="M355 440H352L227 0H174L137 440H135L89 0H-5L66 678H198L231 296H232L339 678H484L413 0H309L355 440Z" />
<glyph unicode="N" glyph-name="N" horiz-adv-x="381" d="M136 437L91 0H-5L66 678H178L259 279L301 678H396L325 0H225L136 437Z" />
<glyph unicode="O" glyph-name="O" horiz-adv-x="395" d="M179 87Q210 87 224 106T242 157L280 521Q283 554 270 572T225 591Q195 591 181 572T163 521L125 157Q122 125 135 106T179 87ZM178 -8Q131 -8 98 6T44 45T17 106T14 185L48 513Q52 550 64 582T99 637T153
673T228 686Q322 686 361 633T391 493L357 165Q353 128 341 97T307 42T253 5T178 -8Z" />
<glyph unicode="P" glyph-name="P" horiz-adv-x="370" d="M66 678H226Q272 678 302 667T350 634T373 583T375 516L360 373Q352 304 315 267T196 230H133L109 0H-5L66 678ZM170 585L142 318H184Q240 318 246 374L262 526Q268 585 212 585H170Z" />
<glyph unicode="Q" glyph-name="Q" horiz-adv-x="395" d="M116 -46L121 4Q58 18 32 65T14 185L48 513Q52 550 64 582T99 637T153 673T228 686Q322 686 361 633T391 493L357 165Q351 114 327 73T255 12L335 -3L326 -86L116 -46ZM178 81Q209 81 223 100T241 147L280
521Q283 554 270 572T225 591Q195 591 181 572T163 521L124 147Q121 118 134 100T178 81Z" />
<glyph unicode="R" glyph-name="R" horiz-adv-x="370" d="M142 319L109 0H-5L66 678H220Q266 678 297 667T347 635T370 584T372 516L363 429Q358 375 334 346T260 306L340 0H222L142 319ZM170 585L148 374H186Q242 374 248 430L258 526Q261 558 249 571T208 585H170Z" />
<glyph unicode="S" glyph-name="S" horiz-adv-x="366" d="M158 -8Q114 -8 83 4T34 38T8 89T4 151L13 237H119L110 144Q107 115 119 100T162 84Q189 84 201 99T216 141L219 169Q222 198 213 219T180 268L119 339Q96 366 81 389T57 434T45 480T45 529L47 549Q50
578 61 603T92 646T141 675T211 686Q300 686 335 640T363 515L359 477H255L260 525Q264 560 250 577T210 594Q159 594 153 539L152 529Q149 500 161 478T198 427L263 351Q284 327 298 306T321 263T332 217T332 163L329 134Q322 69 282 31T158 -8Z" />
<glyph unicode="T" glyph-name="T" horiz-adv-x="328" d="M53 678H356L346 585H252L191 0H76L137 585H43L53 678Z" />
<glyph unicode="U" glyph-name="U" horiz-adv-x="381" d="M397 678L342 155Q338 118 327 88T295 37T245 4T175 -8Q127 -8 94 5T42 42T15 100T13 175L66 678H180L125 154Q122 122 134 105T177 87Q207 87 220 104T237 154L292 678H397Z" />
<glyph unicode="V" glyph-name="V" horiz-adv-x="397" d="M431 678L232 0H108L49 678H161L191 205H192L321 678H431Z" />
<glyph unicode="W" glyph-name="W" horiz-adv-x="544" d="M287 421L178 0H71L50 678H158L165 236H166L270 678H363L379 236H380L478 678H576L418 0H310L288 421H287Z" />
<glyph unicode="X" glyph-name="X" horiz-adv-x="396" d="M126 361L60 678H176L216 454L304 678H415L281 352L355 0H239L190 257L92 0H-19L126 361Z" />
<glyph unicode="Y" glyph-name="Y" horiz-adv-x="379" d="M244 257L217 0H103L131 267L47 678H164L207 419H208L304 678H414L244 257Z" />
<glyph unicode="Z" glyph-name="Z" horiz-adv-x="336" d="M117 93H288L279 0H-13L-4 93L225 585H66L76 678H357L347 585L117 93Z" />
<glyph unicode="[" glyph-name="bracketleft" horiz-adv-x="226" d="M80 698H250L242 625H166L99 -18H175L167 -90H-3L80 698Z" />
<glyph unicode="\" glyph-name="backslash" horiz-adv-x="246" d="M141 698L204 -90H116L53 698H141Z" />
<glyph unicode="]" glyph-name="bracketright" horiz-adv-x="226" d="M149 -90H-21L-13 -18H63L130 625H54L62 698H232L149 -90Z" />
<glyph unicode="^" glyph-name="asciicircum" horiz-adv-x="300" d="M209 678L304 475H214L178 556L126 475H34L167 678H209Z" />
<glyph unicode="_" glyph-name="underscore" horiz-adv-x="282" d="M-34 -21H252L245 -90H-41L-34 -21Z" />
<glyph unicode="`" glyph-name="grave" horiz-adv-x="400" d="M148 695L323 656L316 593L139 618L148 695Z" />
<glyph unicode="a" glyph-name="a" horiz-adv-x="356" d="M193 0L197 47H194Q183 26 161 9T103 -8Q45 -8 18 31T-1 145L3 183Q7 218 18 241T48 280T92 308T148 332Q197 351 216 368T239 416L240 427Q243 456 234 470T198 484Q172 484 160 470T144 427L138 370H38L45
434Q52 497 89 536T203 575Q246 575 275 564T321 533T344 483T346 416L303 0H193ZM154 78Q181 78 193 95T208 140L223 291Q219 287 215 284T205 277T190 268T165 256Q136 242 126 226T112 178L108 139Q106 111 116 95T154 78Z" />
<glyph unicode="b" glyph-name="b" horiz-adv-x="366" d="M66 678H176L158 508H160Q166 520 175 532T196 553T225 569T264 575Q314 575 340 538T358 422L327 125Q319 54 286 23T205 -8Q160 -8 140 10T112 51H110L105 0H-5L66 678ZM248 427Q251 453 241 469T203
485Q174 485 163 467T149 418L120 146Q117 114 127 98T165 81Q194 81 204 97T218 139L248 427Z" />
<glyph unicode="c" glyph-name="c" horiz-adv-x="360" d="M335 224L327 147Q319 70 280 31T166 -8Q118 -8 86 5T36 43T13 100T11 174L36 413Q44 488 87 531T206 575Q295 575 328 530T354 407L350 370H244L249 417Q257 484 204 484Q176 484 163 467T147 420L118
147Q115 118 127 101T167 83Q195 83 208 100T224 147L232 224H335Z" />
<glyph unicode="d" glyph-name="d" horiz-adv-x="366" d="M312 0H202L208 59H206Q200 47 192 35T171 14T143 -2T105 -8Q55 -8 28 29T8 145L39 442Q47 513 80 544T163 575Q206 575 226 557T254 516H256L273 678H383L312 0ZM118 140Q115 114 123 96T160 78Q189 78
201 97T217 149L246 421Q253 486 200 486Q173 486 162 470T148 428L118 140Z" />
<glyph unicode="e" glyph-name="e" horiz-adv-x="366" d="M336 224L328 147Q320 73 281 33T165 -8Q119 -8 88 5T38 42T13 99T11 174L36 413Q44 485 86 530T209 575Q294 575 328 531T355 408L341 273H131L118 147Q115 118 127 101T168 83Q195 83 208 100T224 147L232
224H336ZM140 353H243L250 422Q253 451 242 467T204 484Q176 484 163 467T147 420L140 353Z" />
<glyph unicode="f" glyph-name="f" horiz-adv-x="238" d="M43 567H83L86 594Q91 641 118 659T193 678H265L257 603H218Q206 603 201 598T194 580L192 567H253L244 483H184L134 0H24L74 483H34L43 567Z" />
<glyph unicode="g" glyph-name="g" horiz-adv-x="366" d="M317 62Q309 -15 270 -56T147 -98Q103 -98 73 -87T25 -56T1 -9T-3 50L-2 60H99L98 50Q95 21 107 7T149 -7Q178 -7 191 9T207 55L218 156H216Q210 144 202 132T181 111T153 95T115 89Q65 89 38 126T18 242L39
442Q47 513 80 544T163 575Q206 575 226 557T254 516H256L261 567H371L317 62ZM128 237Q125 211 133 193T170 175Q199 175 211 194T227 246L246 421Q253 486 200 486Q173 486 162 470T148 428L128 237Z" />
<glyph unicode="h" glyph-name="h" horiz-adv-x="366" d="M247 424Q250 453 242 469T205 485Q176 485 164 467T149 422L105 0H-5L66 678H176L158 509H159Q172 535 196 555T265 575Q314 575 340 540T357 421L313 0H203L247 424Z" />
<glyph unicode="i" glyph-name="i" horiz-adv-x="160" d="M66 678H176L167 592H57L66 678ZM54 567H164L105 0H-5L54 567Z" />
<glyph unicode="j" glyph-name="j" horiz-adv-x="160" d="M164 567L105 -1Q100 -53 72 -71T-13 -90H-43L-35 -15H-29Q-15 -15 -11 -10T-4 9L54 567H164ZM66 678H176L167 592H57L66 678Z" />
<glyph unicode="k" glyph-name="k" horiz-adv-x="350" d="M205 0L134 278L105 0H-5L66 678H176L139 322L265 567H377L236 298L319 0H205Z" />
<glyph unicode="l" glyph-name="l" horiz-adv-x="160" d="M66 678H176L105 0H-5L66 678Z" />
<glyph unicode="m" glyph-name="m" horiz-adv-x="559" d="M240 428Q243 454 235 469T201 485Q173 485 163 467T149 422L105 0H-5L54 567H164L158 509H159Q172 533 194 554T258 575Q293 575 315 559T346 508H348Q354 519 363 531T385 552T416 568T455 575Q510 575
534 539T550 423L506 0H396L440 428Q443 454 436 469T402 485Q374 485 363 467T349 422L305 0H196L240 428Z" />
<glyph unicode="n" glyph-name="n" horiz-adv-x="366" d="M247 424Q250 453 242 469T205 485Q176 485 164 467T149 422L105 0H-5L54 567H164L158 509H159Q172 535 196 555T265 575Q314 575 340 540T357 421L313 0H203L247 424Z" />
<glyph unicode="o" glyph-name="o" horiz-adv-x="371" d="M165 -8Q76 -8 39 41T11 174L36 413Q44 490 87 532T205 575Q294 575 331 526T359 393L334 154Q326 78 283 35T165 -8ZM166 83Q193 83 206 100T223 147L252 420Q255 449 243 466T204 484Q176 484 163 467T147
420L118 147Q115 118 126 101T166 83Z" />
<glyph unicode="p" glyph-name="p" horiz-adv-x="366" d="M54 567H164L158 508H160Q166 520 175 532T196 553T225 569T264 575Q314 575 340 538T358 422L327 125Q319 54 286 23T205 -8Q160 -8 140 10T112 51H110L95 -90H-15L54 567ZM248 427Q251 453 241 469T203
485Q174 485 163 467T149 418L120 146Q117 114 127 98T165 81Q194 81 204 97T218 139L248 427Z" />
<glyph unicode="q" glyph-name="q" horiz-adv-x="366" d="M302 -90H192L208 59H206Q200 47 192 35T171 14T143 -2T105 -8Q55 -8 28 29T8 145L39 442Q47 513 80 544T163 575Q206 575 226 557T254 516H256L261 567H371L302 -90ZM118 140Q115 114 123 96T160 78Q189
78 201 97T217 149L246 421Q253 486 200 486Q173 486 162 470T148 428L118 140Z" />
<glyph unicode="r" glyph-name="r" horiz-adv-x="236" d="M239 442H208Q178 442 163 428T145 384L105 0H-5L54 567H164L158 509H160Q164 519 171 529T190 549T217 564T253 571L239 442Z" />
<glyph unicode="s" glyph-name="s" horiz-adv-x="337" d="M303 133Q296 64 258 28T145 -8Q63 -8 28 33T1 149L7 206H106L99 140Q93 83 146 83Q172 83 184 93T199 130L201 148Q203 169 192 187T145 236L99 277Q63 309 47 344T35 432L36 443Q43 504 80 539T191 575Q274
575 305 536T330 422L327 393H229L233 431Q236 460 225 472T188 484Q142 484 139 441L138 432Q136 412 145 396T183 354L227 315Q248 296 264 279T291 244T304 203T305 152L303 133Z" />
<glyph unicode="t" glyph-name="t" horiz-adv-x="246" d="M41 567H82L94 678H203L191 567H260L251 483H182L144 120Q142 103 149 96T175 89H210L201 0H162Q82 0 56 32T37 136L73 483H32L41 567Z" />
<glyph unicode="u" glyph-name="u" horiz-adv-x="366" d="M118 143Q115 114 123 98T160 82Q189 82 201 100T216 145L260 567H370L311 0H201L207 58H206Q193 32 169 12T100 -8Q51 -8 25 27T8 146L52 567H162L118 143Z" />
<glyph unicode="v" glyph-name="v" horiz-adv-x="344" d="M371 567L201 0H79L31 567H139L162 183H163L267 567H371Z" />
<glyph unicode="w" glyph-name="w" horiz-adv-x="490" d="M514 567L368 0H269L252 350L156 0H58L33 567H139L142 227H143L236 567H317L338 227H339L412 567H514Z" />
<glyph unicode="x" glyph-name="x" horiz-adv-x="353" d="M367 567L253 295L322 0H212L167 222L81 0H-25L101 306L40 567H149L187 377L262 567H367Z" />
<glyph unicode="y" glyph-name="y" horiz-adv-x="338" d="M365 567L191 -1Q176 -51 146 -70T66 -90H12L21 -2H60Q77 -2 84 5T99 33L105 51H82L31 567H140L162 214H163L262 567H365Z" />
<glyph unicode="z" glyph-name="z" horiz-adv-x="301" d="M108 88H257L248 0H-15L-6 88L190 479H52L61 567H313L304 479L108 88Z" />
<glyph unicode="{" glyph-name="braceleft" horiz-adv-x="251" d="M17 267L25 341H32Q66 341 80 357T93 406L89 548Q88 590 96 619T123 665T171 690T242 698H275L267 625H240Q213 625 198 612T184 563L189 415Q191 364 170 340T110 304Q146 295 161 269T166 198L134
50Q127 20 136 2T172 -17H200L192 -90H168Q81 -90 54 -48T42 71L72 213Q78 240 69 253T31 267H17Z" />
<glyph unicode="|" glyph-name="bar" horiz-adv-x="153" d="M160 698L77 -90H-8L75 698H160Z" />
<glyph unicode="}" glyph-name="braceright" horiz-adv-x="251" d="M237 341L229 267H222Q188 267 174 251T161 202L165 60Q166 18 158 -11T131 -57T83 -82T12 -90H-21L-13 -17H14Q41 -17 56 -4T70 45L65 193Q63 244 84 268T144 304Q108 313 93 339T88 410L120
558Q127 588 118 606T82 625H54L62 698H86Q173 698 200 656T212 537L182 395Q176 368 185 355T223 341H237Z" />
<glyph unicode="~" glyph-name="asciitilde" horiz-adv-x="260" d="M6 263Q10 307 30 337T88 368Q116 368 137 358T172 347Q189 347 190 366H259Q254 322 235 292T177 261Q150 261 129 271T94 282Q78 282 75 263H6Z" />
<glyph unicode="&#xa1;" glyph-name="exclamdown" horiz-adv-x="166" d="M414 744H305L315 844H424L414 744ZM355 166H237L328 708H383L355 166Z" />
<glyph unicode="&#xa2;" glyph-name="cent" horiz-adv-x="359" d="M335 224L327 147Q319 72 281 33T172 -8L168 -50H135L139 -7Q61 1 32 50T11 174L36 413Q44 487 86 530T200 575L206 626H239L233 573Q307 566 334 523T354 407L350 370H244L249 417Q256 472 224
481L182 84Q202 89 211 105T224 147L232 224H335ZM118 147Q112 97 149 85L191 483Q170 478 160 462T147 420L118 147Z" />
<glyph unicode="&#xa3;" glyph-name="sterling" horiz-adv-x="366" d="M16 363H51L69 537Q77 615 118 650T232 686Q313 686 347 646T373 528L368 477H263L269 541Q272 573 260 583T230 594Q213 594 200 584T183 538L164 363H283L274 278H155L136 93H324L315 0H13L42
278H7L16 363Z" />
<glyph unicode="&#xa5;" glyph-name="yen" horiz-adv-x="379" d="M125 211L128 239H30L36 301H133L47 678H164L208 433H209L304 678H414L249 301H346L340 239H242L239 211H337L331 149H232L217 0H103L118 149H21L27 211H125Z" />
<glyph unicode="&#xa6;" glyph-name="brokenbar" horiz-adv-x="153" d="M-8 -90L31 280H116L77 -90H-8ZM160 698L122 342H37L75 698H160Z" />
<glyph unicode="&#xa7;" glyph-name="section" horiz-adv-x="410" d="M22 303Q22 353 51 382T122 424V425Q101 448 90 477T83 549L84 559Q90 620 129 653T234 686Q395 686 380 541L376 502H280L284 538Q290 598 233 598Q207 598 195 587T181 553L180 543Q178 527
184 513T211 485L319 414Q356 390 373 364T390 302Q390 248 364 219T290 174V173Q311 153 324 124T333 49L331 29Q324 -36 285 -67T177 -98Q99 -98 60 -58T29 48L34 96H133L128 47Q122 -7 181 -7Q207 -7 218 4T232 38L233 48Q236 71 226 86T189 120L90 185Q22 229
22 303ZM120 323Q120 305 129 291T161 262L241 209Q259 216 275 230T291 273Q291 293 282 307T250 336L167 391Q147 383 134 367T120 323Z" />
<glyph unicode="&#xa8;" glyph-name="dieresis" horiz-adv-x="400" d="M132 678H229L220 592H123L132 678ZM253 678H350L341 592H244L253 678Z" />
<glyph unicode="&#xa9;" glyph-name="copyright" horiz-adv-x="416" d="M298 317L293 269Q289 231 268 211T204 190Q156 190 136 216T120 287L131 392Q136 433 158 456T224 480Q271 480 289 455T304 389L302 369H240L243 397Q246 427 221 427Q198 427 195 398L182
273Q180 259 186 251T206 243Q229 243 232 273L237 317H298ZM389 297Q380 212 332 161T199 110Q155 110 122 125T66 167T35 232T31 315L37 372Q46 457 94 509T227 562Q271 562 304 547T360 505T391 439T395 354L389 297ZM62 315Q53 232 88 184T200 136Q273 136
311 179T358 297L364 354Q373 437 338 486T226 536Q151 536 114 492T68 372L62 315Z" />
<glyph unicode="&#xaa;" glyph-name="ordfeminine" horiz-adv-x="316" d="M186 188L190 227H188Q178 210 160 196T110 181Q58 181 35 216T18 316L21 345Q24 375 34 395T62 430T101 454T150 476Q171 484 184 490T206 503T217 519T223 543L224 553Q226 575 221 589T192
603Q170 603 160 593T146 557L141 508H52L58 565Q63 618 96 651T196 685Q271 685 299 648T320 541L283 188H186ZM154 257Q177 257 186 271T198 310L211 436Q204 429 195 424T165 407Q140 393 131 380T119 342L115 305Q110 257 154 257Z" />
<glyph unicode="&#xab;" glyph-name="guillemotleft" horiz-adv-x="289" d="M164 378L92 234L131 86H55L14 238L84 378H164ZM280 378L205 228L242 86H164L125 234L200 378H280Z" />
<glyph unicode="&#xae;" glyph-name="registered" horiz-adv-x="416" d="M402 420Q393 335 345 284T212 233Q168 233 135 248T79 290T48 355T44 438L50 495Q59 580 107 632T240 685Q284 685 317 670T373 628T404 562T408 477L402 420ZM75 438Q66 355 101 307T213
259Q286 259 324 302T371 420L377 477Q386 560 351 609T239 659Q164 659 127 615T81 495L75 438ZM205 452L191 319H134L164 603H245Q285 603 301 583T313 527L310 498Q308 473 297 461T264 444L300 319H241L205 452ZM216 557L208 478H229Q241 478 246 482T254 497L258
535Q261 557 237 557H216Z" />
<glyph unicode="&#xaf;" glyph-name="macron" horiz-adv-x="400" d="M142 667H338L331 600H135L142 667Z" />
<glyph unicode="&#xb0;" glyph-name="degree" horiz-adv-x="200" d="M47 599Q47 634 70 658T130 682Q166 682 189 658T213 599Q213 564 190 540T130 516Q94 516 71 540T47 599ZM96 599Q96 583 105 573T130 562Q146 562 155 572T164 599Q164 615 155 625T130 636Q114
636 105 626T96 599Z" />
<glyph unicode="&#xb2;" glyph-name="twosuperior" horiz-adv-x="214" d="M41 444Q45 478 57 495T95 530L132 555Q143 563 146 569T152 590L154 609Q155 628 140 628Q133 628 129 624T122 608L119 581H55L58 612Q61 644 80 663T141 682Q226 682 219 606L216 577Q214
558 207 544T176 515L130 485Q117 477 113 471T106 450H199L193 396H36L41 444Z" />
<glyph unicode="&#xb3;" glyph-name="threesuperior" horiz-adv-x="215" d="M140 682Q188 682 204 661T218 605L216 587Q213 554 177 544Q197 538 204 525T209 488L206 460Q203 430 185 411T120 392Q74 392 56 413T41 468L44 497H107L104 468Q101 443 121 443Q131
443 134 448T139 465L142 494Q143 508 140 513T122 519H100L105 565H122Q139 565 144 570T152 590L154 609Q155 631 138 631Q128 631 125 625T119 606L117 587H54L56 605Q60 640 77 661T140 682Z" />
<glyph unicode="&#xb4;" glyph-name="acute" horiz-adv-x="400" d="M329 615L148 593L155 658L338 695L329 615Z" />
<glyph unicode="&#xb6;" glyph-name="paragraph" horiz-adv-x="366" d="M118 0L148 290H145Q19 290 31 405L49 578Q54 632 86 655T168 678H382L311 0H234L297 601H258L195 0H118Z" />
<glyph unicode="&#xb7;" glyph-name="periodcentered" horiz-adv-x="167" d="M41 401H150L139 292H30L41 401Z" />
<glyph unicode="&#xb8;" glyph-name="cedilla" horiz-adv-x="400" d="M90 -69Q114 -68 121 -64T129 -53Q129 -42 114 -42H109L114 0H157L155 -17Q193 -23 193 -53Q193 -70 182 -79T155 -93T120 -99T87 -101L90 -69Z" />
<glyph unicode="&#xb9;" glyph-name="onesuperior" horiz-adv-x="157" d="M168 678L138 396H66L87 594H86L43 561H42L50 628L107 678H168Z" />
<glyph unicode="&#xba;" glyph-name="ordmasculine" horiz-adv-x="321" d="M159 181Q81 181 48 223T22 338L44 545Q51 611 89 648T192 685Q270 685 303 643T328 528L306 321Q299 255 263 218T159 181ZM160 262Q183 262 194 274T207 312L232 551Q238 604 191 604Q167
604 156 591T143 554L118 315Q112 262 160 262Z" />
<glyph unicode="&#xbb;" glyph-name="guillemotright" horiz-adv-x="289" d="M113 86L185 230L146 378H222L263 226L193 86H113ZM-3 86L72 236L35 378H113L152 230L77 86H-3Z" />
<glyph unicode="&#xbc;" glyph-name="onequarter" horiz-adv-x="262" d="M34 362H249L244 317H29L34 362ZM1 78L120 282H192L171 86H194L189 39H166L162 0H94L98 39H-3L1 78ZM59 86H103L114 186H113L59 86ZM207 678L177 396H105L126 594H125L82 561H81L89 628L146
678H207Z" />
<glyph unicode="&#xbd;" glyph-name="onehalf" horiz-adv-x="258" d="M29 362H245L240 317H24L29 362ZM203 678L173 396H101L122 594H121L78 561H77L85 628L142 678H203ZM23 48Q27 82 39 99T77 134L114 159Q125 167 128 173T134 194L136 213Q137 232 122 232Q115
232 111 228T104 212L101 185H37L40 216Q43 248 62 267T123 286Q208 286 201 210L198 181Q196 162 189 148T158 119L112 89Q99 81 95 75T88 54H181L175 0H18L23 48Z" />
<glyph unicode="&#xbe;" glyph-name="threequarters" horiz-adv-x="253" d="M30 362H240L235 317H25L30 362ZM2 78L121 282H193L172 86H195L190 39H167L163 0H95L99 39H-2L2 78ZM60 86H104L115 186H114L60 86ZM161 682Q209 682 225 661T239 605L237 587Q234 554
198 544Q218 538 225 525T230 488L227 460Q224 430 206 411T141 392Q95 392 77 413T62 468L65 497H128L125 468Q122 443 142 443Q152 443 155 448T160 465L163 494Q164 508 161 513T143 519H121L126 565H143Q160 565 165 570T173 590L175 609Q176 631 159 631Q149
631 146 625T140 606L138 587H75L77 605Q81 640 98 661T161 682Z" />
<glyph unicode="&#xbf;" glyph-name="questiondown" horiz-adv-x="342" d="M509 708L500 623Q498 599 496 582T488 551T474 524T451 493L396 428Q382 411 377 398T369 362L363 305Q361 287 364 277T373 260T387 252T403 250Q421 250 433 261T448 303L457 388H562L553
301Q538 158 399 158Q321 158 284 198T255 320L260 366Q264 404 276 429T313 481L373 550Q389 569 395 583T403 623L412 708H509ZM520 744H411L421 844H530L520 744Z" />
<glyph unicode="&#xc0;" glyph-name="Agrave" horiz-adv-x="401" d="M-23 0L174 678H304L364 0H250L242 124H121L88 0H-23ZM145 215H236L218 487H217L145 215ZM161 805L336 766L329 703L152 728L161 805Z" />
<glyph unicode="&#xc1;" glyph-name="Aacute" horiz-adv-x="401" d="M-23 0L174 678H304L364 0H250L242 124H121L88 0H-23ZM145 215H236L218 487H217L145 215ZM336 725L155 703L162 768L345 805L336 725Z" />
<glyph unicode="&#xc2;" glyph-name="Acircumflex" horiz-adv-x="401" d="M-23 0L174 678H304L364 0H250L242 124H121L88 0H-23ZM145 215H236L218 487H217L145 215ZM140 703L146 758L221 811H271L340 758L334 703L242 733L140 703Z" />
<glyph unicode="&#xc3;" glyph-name="Atilde" horiz-adv-x="401" d="M-23 0L174 678H304L364 0H250L242 124H121L88 0H-23ZM145 215H236L218 487H217L145 215ZM135 705Q138 740 155 765T207 790Q232 790 250 782T281 773Q294 773 296 788H352Q349 753 332 728T280
703Q255 703 237 711T206 720Q192 720 191 705H135Z" />
<glyph unicode="&#xc4;" glyph-name="Adieresis" horiz-adv-x="401" d="M-23 0L174 678H304L364 0H250L242 124H121L88 0H-23ZM145 215H236L218 487H217L145 215ZM141 788H238L229 702H132L141 788ZM262 788H359L350 702H253L262 788Z" />
<glyph unicode="&#xc5;" glyph-name="Aring" horiz-adv-x="401" d="M-23 0L174 678H304L364 0H250L242 124H121L88 0H-23ZM145 215H236L218 487H217L145 215ZM170 776Q170 807 191 829T247 851Q281 851 302 829T323 776Q323 745 302 723T247 701Q213 701 192 723T170
776ZM216 776Q216 762 224 753T247 743Q261 743 269 752T278 776Q278 790 270 799T247 809Q233 809 225 800T216 776Z" />
<glyph unicode="&#xc6;" glyph-name="AE" horiz-adv-x="544" d="M-25 0L216 678H561L551 585H393L372 391H486L476 299H363L341 93H499L490 0H218L231 124H126L85 0H-25ZM157 215H240L278 573H276L157 215Z" />
<glyph unicode="&#xc7;" glyph-name="Ccedilla" horiz-adv-x="378" d="M100 -69Q124 -68 131 -64T139 -53Q139 -42 124 -42H119L123 -2Q90 5 68 22T32 63T15 119T14 185L48 509Q52 545 63 577T96 634T150 672T227 686Q273 686 304 673T353 637T377 581T379 511L371
436H267L276 519Q280 553 268 572T225 591Q194 591 181 572T163 521L125 157Q122 125 134 106T179 87Q210 87 222 105T238 153L251 278H355L342 154Q338 118 328 89T298 38T248 4T175 -8H166L165 -17Q203 -23 203 -53Q203 -70 192 -79T165 -93T130 -99T97 -101L100
-69Z" />
<glyph unicode="&#xc8;" glyph-name="Egrave" horiz-adv-x="318" d="M66 678H338L328 585H170L149 391H263L253 299H140L118 93H276L267 0H-5L66 678ZM381 805L556 766L549 703L372 728L381 805Z" />
<glyph unicode="&#xc9;" glyph-name="Eacute" horiz-adv-x="318" d="M66 678H338L328 585H170L149 391H263L253 299H140L118 93H276L267 0H-5L66 678ZM556 725L375 703L382 768L565 805L556 725Z" />
<glyph unicode="&#xca;" glyph-name="Ecircumflex" horiz-adv-x="318" d="M66 678H338L328 585H170L149 391H263L253 299H140L118 93H276L267 0H-5L66 678ZM360 703L366 758L441 811H491L560 758L554 703L462 733L360 703Z" />
<glyph unicode="&#xcb;" glyph-name="Edieresis" horiz-adv-x="318" d="M361 788H458L449 702H352L361 788ZM482 788H579L570 702H473L482 788ZM66 678H338L328 585H170L149 391H263L253 299H140L118 93H276L267 0H-5L66 678Z" />
<glyph unicode="&#xcc;" glyph-name="Igrave" horiz-adv-x="165" d="M66 678H180L109 0H-5L66 678ZM302 805L477 766L470 703L293 728L302 805Z" />
<glyph unicode="&#xcd;" glyph-name="Iacute" horiz-adv-x="165" d="M66 678H180L109 0H-5L66 678ZM477 725L296 703L303 768L486 805L477 725Z" />
<glyph unicode="&#xce;" glyph-name="Icircumflex" horiz-adv-x="165" d="M66 678H180L109 0H-5L66 678ZM281 703L287 758L362 811H412L481 758L475 703L383 733L281 703Z" />
<glyph unicode="&#xcf;" glyph-name="Idieresis" horiz-adv-x="165" d="M282 788H379L370 702H273L282 788ZM403 788H500L491 702H394L403 788ZM66 678H180L109 0H-5L66 678Z" />
<glyph unicode="&#xd0;" glyph-name="Eth" horiz-adv-x="391" d="M7 391H36L66 678H242Q331 678 363 626T387 486L354 172Q346 94 305 47T177 0H-5L26 299H-3L7 391ZM166 93Q201 93 218 111T239 162L276 517Q279 548 266 566T218 585H170L149 391H223L213 299H140L118
93H166Z" />
<glyph unicode="&#xd1;" glyph-name="Ntilde" horiz-adv-x="381" d="M136 437L91 0H-5L66 678H178L259 279L301 678H396L325 0H225L136 437ZM130 705Q133 740 150 765T202 790Q227 790 245 782T276 773Q289 773 291 788H347Q344 753 327 728T275 703Q250 703 232
711T201 720Q187 720 186 705H130Z" />
<glyph unicode="&#xd2;" glyph-name="Ograve" horiz-adv-x="395" d="M179 87Q210 87 224 106T242 157L280 521Q283 554 270 572T225 591Q195 591 181 572T163 521L125 157Q122 125 135 106T179 87ZM178 -8Q131 -8 98 6T44 45T17 106T14 185L48 513Q52 550 64 582T99
637T153 673T228 686Q322 686 361 633T391 493L357 165Q353 128 341 97T307 42T253 5T178 -8ZM160 805L335 766L328 703L151 728L160 805Z" />
<glyph unicode="&#xd3;" glyph-name="Oacute" horiz-adv-x="395" d="M179 87Q210 87 224 106T242 157L280 521Q283 554 270 572T225 591Q195 591 181 572T163 521L125 157Q122 125 135 106T179 87ZM178 -8Q131 -8 98 6T44 45T17 106T14 185L48 513Q52 550 64 582T99
637T153 673T228 686Q322 686 361 633T391 493L357 165Q353 128 341 97T307 42T253 5T178 -8ZM335 725L154 703L161 768L344 805L335 725Z" />
<glyph unicode="&#xd4;" glyph-name="Ocircumflex" horiz-adv-x="395" d="M179 87Q210 87 224 106T242 157L280 521Q283 554 270 572T225 591Q195 591 181 572T163 521L125 157Q122 125 135 106T179 87ZM178 -8Q131 -8 98 6T44 45T17 106T14 185L48 513Q52 550
64 582T99 637T153 673T228 686Q322 686 361 633T391 493L357 165Q353 128 341 97T307 42T253 5T178 -8ZM139 703L145 758L220 811H270L339 758L333 703L241 733L139 703Z" />
<glyph unicode="&#xd5;" glyph-name="Otilde" horiz-adv-x="395" d="M179 87Q210 87 224 106T242 157L280 521Q283 554 270 572T225 591Q195 591 181 572T163 521L125 157Q122 125 135 106T179 87ZM178 -8Q131 -8 98 6T44 45T17 106T14 185L48 513Q52 550 64 582T99
637T153 673T228 686Q322 686 361 633T391 493L357 165Q353 128 341 97T307 42T253 5T178 -8ZM134 705Q137 740 154 765T206 790Q231 790 249 782T280 773Q293 773 295 788H351Q348 753 331 728T279 703Q254 703 236 711T205 720Q191 720 190 705H134Z" />
<glyph unicode="&#xd6;" glyph-name="Odieresis" horiz-adv-x="395" d="M179 87Q210 87 224 106T242 157L280 521Q283 554 270 572T225 591Q195 591 181 572T163 521L125 157Q122 125 135 106T179 87ZM178 -8Q131 -8 98 6T44 45T17 106T14 185L48 513Q52 550 64
582T99 637T153 673T228 686Q322 686 361 633T391 493L357 165Q353 128 341 97T307 42T253 5T178 -8ZM140 788H237L228 702H131L140 788ZM261 788H358L349 702H252L261 788Z" />
<glyph unicode="&#xd7;" glyph-name="multiply" horiz-adv-x="350" d="M19 249L118 338L38 426L106 489L186 400L286 489L341 426L243 337L323 249L255 187L174 276L74 186L19 249Z" />
<glyph unicode="&#xd8;" glyph-name="Oslash" horiz-adv-x="395" d="M407 695L370 620Q399 572 391 493L357 165Q353 128 341 97T307 42T253 5T178 -8Q112 -8 72 20L53 -18H3L38 53Q5 104 14 185L48 513Q52 550 64 582T99 637T153 673T228 686Q296 686 337 656L357
695H407ZM130 239L285 550Q278 594 225 594Q193 594 179 574T160 521L130 239ZM179 84Q212 84 226 104T245 157L275 429L123 122Q130 84 179 84Z" />
<glyph unicode="&#xd9;" glyph-name="Ugrave" horiz-adv-x="381" d="M397 678L342 155Q338 118 327 88T295 37T245 4T175 -8Q127 -8 94 5T42 42T15 100T13 175L66 678H180L125 154Q122 122 134 105T177 87Q207 87 220 104T237 154L292 678H397ZM156 805L331 766L324
703L147 728L156 805Z" />
<glyph unicode="&#xda;" glyph-name="Uacute" horiz-adv-x="381" d="M397 678L342 155Q338 118 327 88T295 37T245 4T175 -8Q127 -8 94 5T42 42T15 100T13 175L66 678H180L125 154Q122 122 134 105T177 87Q207 87 220 104T237 154L292 678H397ZM331 725L150 703L157
768L340 805L331 725Z" />
<glyph unicode="&#xdb;" glyph-name="Ucircumflex" horiz-adv-x="381" d="M397 678L342 155Q338 118 327 88T295 37T245 4T175 -8Q127 -8 94 5T42 42T15 100T13 175L66 678H180L125 154Q122 122 134 105T177 87Q207 87 220 104T237 154L292 678H397ZM135 703L141
758L216 811H266L335 758L329 703L237 733L135 703Z" />
<glyph unicode="&#xdc;" glyph-name="Udieresis" horiz-adv-x="381" d="M136 788H233L224 702H127L136 788ZM257 788H354L345 702H248L257 788ZM397 678L342 155Q338 118 327 88T295 37T245 4T175 -8Q127 -8 94 5T42 42T15 100T13 175L66 678H180L125 154Q122
122 134 105T177 87Q207 87 220 104T237 154L292 678H397Z" />
<glyph unicode="&#xdd;" glyph-name="Yacute" horiz-adv-x="379" d="M244 257L217 0H103L131 267L47 678H164L207 419H208L304 678H414L244 257ZM331 725L150 703L157 768L340 805L331 725Z" />
<glyph unicode="&#xde;" glyph-name="Thorn" horiz-adv-x="370" d="M66 678H180L168 570H214Q260 570 291 559T339 526T362 475T364 408L349 275Q341 206 304 169T185 132H122L109 0H-5L66 678ZM159 477L131 220H173Q229 220 235 276L251 418Q257 477 201 477H159Z" />
<glyph unicode="&#xdf;" glyph-name="germandbls" horiz-adv-x="366" d="M105 0H-5L51 538Q59 609 102 647T221 686Q260 686 286 678T329 655T352 622T359 584Q359 545 338 523T279 492Q328 482 343 449T354 368L330 139Q326 102 317 76T289 33T242 8T174 0H132L141
89H165Q194 89 206 101T221 142L246 385Q248 412 238 429T197 446H178L187 530H197Q227 530 243 538T260 570Q260 585 249 594T218 603Q189 603 177 587T161 535L105 0Z" />
<glyph unicode="&#xe0;" glyph-name="agrave" horiz-adv-x="356" d="M193 0L197 47H194Q183 26 161 9T103 -8Q45 -8 18 31T-1 145L3 183Q7 218 18 241T48 280T92 308T148 332Q197 351 216 368T239 416L240 427Q243 456 234 470T198 484Q172 484 160 470T144 427L138
370H38L45 434Q52 497 89 536T203 575Q246 575 275 564T321 533T344 483T346 416L303 0H193ZM154 78Q181 78 193 95T208 140L223 291Q219 287 215 284T205 277T190 268T165 256Q136 242 126 226T112 178L108 139Q106 111 116 95T154 78ZM390 695L565 656L558 593L381
618L390 695Z" />
<glyph unicode="&#xe1;" glyph-name="aacute" horiz-adv-x="356" d="M193 0L197 47H194Q183 26 161 9T103 -8Q45 -8 18 31T-1 145L3 183Q7 218 18 241T48 280T92 308T148 332Q197 351 216 368T239 416L240 427Q243 456 234 470T198 484Q172 484 160 470T144 427L138
370H38L45 434Q52 497 89 536T203 575Q246 575 275 564T321 533T344 483T346 416L303 0H193ZM154 78Q181 78 193 95T208 140L223 291Q219 287 215 284T205 277T190 268T165 256Q136 242 126 226T112 178L108 139Q106 111 116 95T154 78ZM565 615L384 593L391 658L574
695L565 615Z" />
<glyph unicode="&#xe2;" glyph-name="acircumflex" horiz-adv-x="356" d="M193 0L197 47H194Q183 26 161 9T103 -8Q45 -8 18 31T-1 145L3 183Q7 218 18 241T48 280T92 308T148 332Q197 351 216 368T239 416L240 427Q243 456 234 470T198 484Q172 484 160 470T144
427L138 370H38L45 434Q52 497 89 536T203 575Q246 575 275 564T321 533T344 483T346 416L303 0H193ZM154 78Q181 78 193 95T208 140L223 291Q219 287 215 284T205 277T190 268T165 256Q136 242 126 226T112 178L108 139Q106 111 116 95T154 78ZM369 593L375 648L450
701H500L569 648L563 593L471 623L369 593Z" />
<glyph unicode="&#xe3;" glyph-name="atilde" horiz-adv-x="356" d="M193 0L197 47H194Q183 26 161 9T103 -8Q45 -8 18 31T-1 145L3 183Q7 218 18 241T48 280T92 308T148 332Q197 351 216 368T239 416L240 427Q243 456 234 470T198 484Q172 484 160 470T144 427L138
370H38L45 434Q52 497 89 536T203 575Q246 575 275 564T321 533T344 483T346 416L303 0H193ZM154 78Q181 78 193 95T208 140L223 291Q219 287 215 284T205 277T190 268T165 256Q136 242 126 226T112 178L108 139Q106 111 116 95T154 78ZM364 595Q367 630 384 655T436
680Q461 680 479 672T510 663Q523 663 525 678H581Q578 643 561 618T509 593Q484 593 466 601T435 610Q421 610 420 595H364Z" />
<glyph unicode="&#xe4;" glyph-name="adieresis" horiz-adv-x="356" d="M193 0L197 47H194Q183 26 161 9T103 -8Q45 -8 18 31T-1 145L3 183Q7 218 18 241T48 280T92 308T148 332Q197 351 216 368T239 416L240 427Q243 456 234 470T198 484Q172 484 160 470T144
427L138 370H38L45 434Q52 497 89 536T203 575Q246 575 275 564T321 533T344 483T346 416L303 0H193ZM154 78Q181 78 193 95T208 140L223 291Q219 287 215 284T205 277T190 268T165 256Q136 242 126 226T112 178L108 139Q106 111 116 95T154 78ZM370 678H467L458
592H361L370 678ZM491 678H588L579 592H482L491 678Z" />
<glyph unicode="&#xe5;" glyph-name="aring" horiz-adv-x="356" d="M193 0L197 47H194Q183 26 161 9T103 -8Q45 -8 18 31T-1 145L3 183Q7 218 18 241T48 280T92 308T148 332Q197 351 216 368T239 416L240 427Q243 456 234 470T198 484Q172 484 160 470T144 427L138
370H38L45 434Q52 497 89 536T203 575Q246 575 275 564T321 533T344 483T346 416L303 0H193ZM154 78Q181 78 193 95T208 140L223 291Q219 287 215 284T205 277T190 268T165 256Q136 242 126 226T112 178L108 139Q106 111 116 95T154 78ZM399 666Q399 697 420 719T476
741Q510 741 531 719T552 666Q552 635 531 613T476 591Q442 591 421 613T399 666ZM445 666Q445 652 453 643T476 633Q490 633 498 642T507 666Q507 680 499 689T476 699Q462 699 454 690T445 666Z" />
<glyph unicode="&#xe6;" glyph-name="ae" horiz-adv-x="566" d="M536 224L528 147Q520 73 481 33T365 -8Q315 -8 285 10T241 61H240Q226 31 199 12T126 -8Q63 -8 27 29T-1 145L5 205Q13 278 48 309T142 341H228L237 427Q241 457 230 470T195 484Q171 484 159 470T144
426L138 370H38L45 434Q53 500 92 537T201 575Q241 575 267 564T308 533Q328 553 355 564T415 575Q493 575 528 531T555 408L540 261H330L318 147Q315 118 327 101T368 83Q395 83 408 100T424 147L432 224H536ZM155 78Q184 78 195 96T208 140L220 261H171Q143 261
131 245T114 193L109 143Q106 113 115 96T155 78ZM339 341H442L450 422Q453 451 442 467T404 484Q376 484 363 467T347 420L339 341Z" />
<glyph unicode="&#xe7;" glyph-name="ccedilla" horiz-adv-x="360" d="M101 -69Q125 -68 132 -64T140 -53Q140 -42 125 -42H120L124 -5Q88 1 65 16T28 55T11 108T11 174L36 413Q44 488 87 531T206 575Q295 575 328 530T354 407L350 370H244L249 417Q257 484 204
484Q176 484 163 467T147 420L118 147Q115 118 127 101T167 83Q195 83 208 100T224 147L232 224H335L327 147Q310 -7 167 -8L166 -17Q204 -23 204 -53Q204 -70 193 -79T166 -93T131 -99T98 -101L101 -69Z" />
<glyph unicode="&#xe8;" glyph-name="egrave" horiz-adv-x="366" d="M336 224L328 147Q320 73 281 33T165 -8Q119 -8 88 5T38 42T13 99T11 174L36 413Q44 485 86 530T209 575Q294 575 328 531T355 408L341 273H131L118 147Q115 118 127 101T168 83Q195 83 208
100T224 147L232 224H336ZM140 353H243L250 422Q253 451 242 467T204 484Q176 484 163 467T147 420L140 353ZM389 695L564 656L557 593L380 618L389 695Z" />
<glyph unicode="&#xe9;" glyph-name="eacute" horiz-adv-x="366" d="M336 224L328 147Q320 73 281 33T165 -8Q119 -8 88 5T38 42T13 99T11 174L36 413Q44 485 86 530T209 575Q294 575 328 531T355 408L341 273H131L118 147Q115 118 127 101T168 83Q195 83 208
100T224 147L232 224H336ZM140 353H243L250 422Q253 451 242 467T204 484Q176 484 163 467T147 420L140 353ZM564 615L383 593L390 658L573 695L564 615Z" />
<glyph unicode="&#xea;" glyph-name="ecircumflex" horiz-adv-x="366" d="M336 224L328 147Q320 73 281 33T165 -8Q119 -8 88 5T38 42T13 99T11 174L36 413Q44 485 86 530T209 575Q294 575 328 531T355 408L341 273H131L118 147Q115 118 127 101T168 83Q195 83
208 100T224 147L232 224H336ZM140 353H243L250 422Q253 451 242 467T204 484Q176 484 163 467T147 420L140 353ZM368 593L374 648L449 701H499L568 648L562 593L470 623L368 593Z" />
<glyph unicode="&#xeb;" glyph-name="edieresis" horiz-adv-x="366" d="M369 678H466L457 592H360L369 678ZM490 678H587L578 592H481L490 678ZM336 224L328 147Q320 73 281 33T165 -8Q119 -8 88 5T38 42T13 99T11 174L36 413Q44 485 86 530T209 575Q294 575 328
531T355 408L341 273H131L118 147Q115 118 127 101T168 83Q195 83 208 100T224 147L232 224H336ZM140 353H243L250 422Q253 451 242 467T204 484Q176 484 163 467T147 420L140 353Z" />
<glyph unicode="&#xec;" glyph-name="igrave" horiz-adv-x="160" d="M47 695L192 656L185 593L38 618L47 695ZM54 567H164L105 0H-5L54 567Z" />
<glyph unicode="&#xed;" glyph-name="iacute" horiz-adv-x="160" d="M192 615L41 593L48 658L201 695L192 615ZM54 567H164L105 0H-5L54 567Z" />
<glyph unicode="&#xee;" glyph-name="icircumflex" horiz-adv-x="160" d="M30 593L36 648L97 701H147L200 648L194 593L117 623L30 593ZM54 567H164L105 0H-5L54 567Z" />
<glyph unicode="&#xef;" glyph-name="idieresis" horiz-adv-x="160" d="M27 678H111L102 592H18L27 678ZM131 678H215L206 592H122L131 678ZM54 567H164L105 0H-5L54 567Z" />
<glyph unicode="&#xf0;" glyph-name="eth" horiz-adv-x="371" d="M84 614L147 630L110 678H229L246 656L320 676L315 631L274 620L293 596Q312 572 326 551T348 508T360 461T360 402L334 154Q326 78 284 35T166 -8Q77 -8 40 41T11 174L36 413Q40 452 51 479T78
524T115 548T159 556Q183 556 199 548T223 530Q220 535 217 539Q214 543 211 547T204 557L175 594L79 569L84 614ZM166 83Q193 83 206 100T223 147L252 420Q255 449 243 466T204 484Q176 484 163 467T147 420L118 147Q115 118 126 101T166 83Z" />
<glyph unicode="&#xf1;" glyph-name="ntilde" horiz-adv-x="366" d="M247 424Q250 453 242 469T205 485Q176 485 164 467T149 422L105 0H-5L54 567H164L158 509H159Q172 535 196 555T265 575Q314 575 340 540T357 421L313 0H203L247 424ZM364 595Q367 630 384
655T436 680Q461 680 479 672T510 663Q523 663 525 678H581Q578 643 561 618T509 593Q484 593 466 601T435 610Q421 610 420 595H364Z" />
<glyph unicode="&#xf2;" glyph-name="ograve" horiz-adv-x="371" d="M165 -8Q76 -8 39 41T11 174L36 413Q44 490 87 532T205 575Q294 575 331 526T359 393L334 154Q326 78 283 35T165 -8ZM166 83Q193 83 206 100T223 147L252 420Q255 449 243 466T204 484Q176
484 163 467T147 420L118 147Q115 118 126 101T166 83ZM392 695L567 656L560 593L383 618L392 695Z" />
<glyph unicode="&#xf3;" glyph-name="oacute" horiz-adv-x="371" d="M165 -8Q76 -8 39 41T11 174L36 413Q44 490 87 532T205 575Q294 575 331 526T359 393L334 154Q326 78 283 35T165 -8ZM166 83Q193 83 206 100T223 147L252 420Q255 449 243 466T204 484Q176
484 163 467T147 420L118 147Q115 118 126 101T166 83ZM567 615L386 593L393 658L576 695L567 615Z" />
<glyph unicode="&#xf4;" glyph-name="ocircumflex" horiz-adv-x="371" d="M165 -8Q76 -8 39 41T11 174L36 413Q44 490 87 532T205 575Q294 575 331 526T359 393L334 154Q326 78 283 35T165 -8ZM166 83Q193 83 206 100T223 147L252 420Q255 449 243 466T204 484Q176
484 163 467T147 420L118 147Q115 118 126 101T166 83ZM371 593L377 648L452 701H502L571 648L565 593L473 623L371 593Z" />
<glyph unicode="&#xf5;" glyph-name="otilde" horiz-adv-x="371" d="M165 -8Q76 -8 39 41T11 174L36 413Q44 490 87 532T205 575Q294 575 331 526T359 393L334 154Q326 78 283 35T165 -8ZM166 83Q193 83 206 100T223 147L252 420Q255 449 243 466T204 484Q176
484 163 467T147 420L118 147Q115 118 126 101T166 83ZM366 595Q369 630 386 655T438 680Q463 680 481 672T512 663Q525 663 527 678H583Q580 643 563 618T511 593Q486 593 468 601T437 610Q423 610 422 595H366Z" />
<glyph unicode="&#xf6;" glyph-name="odieresis" horiz-adv-x="371" d="M372 678H469L460 592H363L372 678ZM493 678H590L581 592H484L493 678ZM165 -8Q76 -8 39 41T11 174L36 413Q44 490 87 532T205 575Q294 575 331 526T359 393L334 154Q326 78 283 35T165 -8ZM166
83Q193 83 206 100T223 147L252 420Q255 449 243 466T204 484Q176 484 163 467T147 420L118 147Q115 118 126 101T166 83Z" />
<glyph unicode="&#xf7;" glyph-name="divide" horiz-adv-x="361" d="M31 380H348L339 292H22L31 380ZM123 265H232L221 156H112L123 265ZM149 514H258L247 405H138L149 514Z" />
<glyph unicode="&#xf8;" glyph-name="oslash" horiz-adv-x="371" d="M373 583L337 517Q367 471 359 393L334 154Q326 78 283 35T165 -8Q106 -8 69 15L50 -21H0L35 45Q2 93 11 174L36 413Q44 490 87 532T205 575Q267 575 305 549L323 583H373ZM120 203L254 453Q244
487 204 487Q174 487 160 468T143 420L120 203ZM166 80Q195 80 209 99T227 147L248 351L118 107Q129 80 166 80Z" />
<glyph unicode="&#xf9;" glyph-name="ugrave" horiz-adv-x="366" d="M391 695L566 656L559 593L382 618L391 695ZM118 143Q115 114 123 98T160 82Q189 82 201 100T216 145L260 567H370L311 0H201L207 58H206Q193 32 169 12T100 -8Q51 -8 25 27T8 146L52 567H162L118 143Z" />
<glyph unicode="&#xfa;" glyph-name="uacute" horiz-adv-x="366" d="M566 615L385 593L392 658L575 695L566 615ZM118 143Q115 114 123 98T160 82Q189 82 201 100T216 145L260 567H370L311 0H201L207 58H206Q193 32 169 12T100 -8Q51 -8 25 27T8 146L52 567H162L118 143Z" />
<glyph unicode="&#xfb;" glyph-name="ucircumflex" horiz-adv-x="366" d="M371 593L377 648L452 701H502L571 648L565 593L473 623L371 593ZM118 143Q115 114 123 98T160 82Q189 82 201 100T216 145L260 567H370L311 0H201L207 58H206Q193 32 169 12T100 -8Q51
-8 25 27T8 146L52 567H162L118 143Z" />
<glyph unicode="&#xfc;" glyph-name="udieresis" horiz-adv-x="366" d="M371 678H468L459 592H362L371 678ZM492 678H589L580 592H483L492 678ZM118 143Q115 114 123 98T160 82Q189 82 201 100T216 145L260 567H370L311 0H201L207 58H206Q193 32 169 12T100 -8Q51
-8 25 27T8 146L52 567H162L118 143Z" />
<glyph unicode="&#xfd;" glyph-name="yacute" horiz-adv-x="338" d="M554 615L373 593L380 658L563 695L554 615ZM365 567L191 -1Q176 -51 146 -70T66 -90H12L21 -2H60Q77 -2 84 5T99 33L105 51H82L31 567H140L162 214H163L262 567H365Z" />
<glyph unicode="&#xfe;" glyph-name="thorn" horiz-adv-x="366" d="M66 678H176L158 508H160Q166 520 175 532T196 553T225 569T264 575Q314 575 340 538T358 422L327 125Q319 54 286 23T205 -8Q160 -8 140 10T112 51H110L95 -90H-15L66 678ZM248 427Q251 453
241 469T203 485Q174 485 163 467T149 418L120 146Q117 114 127 98T165 81Q194 81 204 97T218 139L248 427Z" />
<glyph unicode="&#xff;" glyph-name="ydieresis" horiz-adv-x="338" d="M359 678H456L447 592H350L359 678ZM480 678H577L568 592H471L480 678ZM365 567L191 -1Q176 -51 146 -70T66 -90H12L21 -2H60Q77 -2 84 5T99 33L105 51H82L31 567H140L162 214H163L262 567H365Z" />
<glyph unicode="&#x100;" glyph-name="Amacron" horiz-adv-x="401" d="M-23 0L174 678H304L364 0H250L242 124H121L88 0H-23ZM145 215H236L218 487H217L145 215ZM147 777H343L336 710H140L147 777Z" />
<glyph unicode="&#x101;" glyph-name="amacron" horiz-adv-x="356" d="M193 0L197 47H194Q183 26 161 9T103 -8Q45 -8 18 31T-1 145L3 183Q7 218 18 241T48 280T92 308T148 332Q197 351 216 368T239 416L240 427Q243 456 234 470T198 484Q172 484 160 470T144
427L138 370H38L45 434Q52 497 89 536T203 575Q246 575 275 564T321 533T344 483T346 416L303 0H193ZM154 78Q181 78 193 95T208 140L223 291Q219 287 215 284T205 277T190 268T165 256Q136 242 126 226T112 178L108 139Q106 111 116 95T154 78ZM377 667H573L566
600H370L377 667Z" />
<glyph unicode="&#x102;" glyph-name="Abreve" horiz-adv-x="401" d="M-23 0L174 678H304L364 0H250L242 124H121L88 0H-23ZM145 215H236L218 487H217L145 215ZM345 794Q340 749 313 726T248 703Q203 703 178 727T153 794H220Q222 771 249 771Q274 771 280 794H345Z" />
<glyph unicode="&#x103;" glyph-name="abreve" horiz-adv-x="356" d="M193 0L197 47H194Q183 26 161 9T103 -8Q45 -8 18 31T-1 145L3 183Q7 218 18 241T48 280T92 308T148 332Q197 351 216 368T239 416L240 427Q243 456 234 470T198 484Q172 484 160 470T144 427L138
370H38L45 434Q52 497 89 536T203 575Q246 575 275 564T321 533T344 483T346 416L303 0H193ZM154 78Q181 78 193 95T208 140L223 291Q219 287 215 284T205 277T190 268T165 256Q136 242 126 226T112 178L108 139Q106 111 116 95T154 78ZM574 684Q569 639 542 616T477
593Q432 593 407 617T382 684H449Q451 661 478 661Q503 661 509 684H574Z" />
<glyph unicode="&#x104;" glyph-name="Aogonek" horiz-adv-x="401" d="M250 0L242 124H121L88 0H-23L174 678H304L364 0Q356 -7 351 -12T345 -25Q345 -33 357 -33H361L355 -90H321Q283 -90 267 -79T251 -49Q251 -29 269 -17T304 0H250ZM145 215H236L218 487H217L145 215Z" />
<glyph unicode="&#x105;" glyph-name="aogonek" horiz-adv-x="356" d="M193 0L197 47H194Q183 26 161 9T103 -8Q45 -8 18 31T-1 145L3 183Q7 218 18 241T48 280T92 308T148 332Q197 351 216 368T239 416L240 427Q243 456 234 470T198 484Q172 484 160 470T144
427L138 370H38L45 434Q52 497 89 536T203 575Q246 575 275 564T321 533T344 483T346 416L303 0Q295 -7 290 -12T284 -25Q284 -33 296 -33H300L294 -90H260Q222 -90 206 -79T190 -49Q190 -29 208 -17T243 0H193ZM154 78Q181 78 193 95T208 140L223 291Q219 287
215 284T205 277T190 268T165 256Q136 242 126 226T112 178L108 139Q106 111 116 95T154 78Z" />
<glyph unicode="&#x106;" glyph-name="Cacute" horiz-adv-x="378" d="M332 725L151 703L158 768L341 805L332 725ZM175 -8Q127 -8 94 6T42 47T16 108T14 185L48 509Q52 545 63 577T96 634T150 672T227 686Q273 686 304 673T353 637T377 581T379 511L371 436H267L276
519Q280 553 268 572T225 591Q194 591 181 572T163 521L125 157Q122 125 134 106T179 87Q210 87 222 105T238 153L251 278H355L342 154Q338 118 328 89T298 38T248 4T175 -8Z" />
<glyph unicode="&#x107;" glyph-name="cacute" horiz-adv-x="360" d="M568 615L387 593L394 658L577 695L568 615ZM335 224L327 147Q319 70 280 31T166 -8Q118 -8 86 5T36 43T13 100T11 174L36 413Q44 488 87 531T206 575Q295 575 328 530T354 407L350 370H244L249
417Q257 484 204 484Q176 484 163 467T147 420L118 147Q115 118 127 101T167 83Q195 83 208 100T224 147L232 224H335Z" />
<glyph unicode="&#x108;" glyph-name="Ccircumflex" horiz-adv-x="378" d="M390 703L396 758L471 811H521L590 758L584 703L492 733L390 703ZM175 -8Q127 -8 94 6T42 47T16 108T14 185L48 509Q52 545 63 577T96 634T150 672T227 686Q273 686 304 673T353 637T377
581T379 511L371 436H267L276 519Q280 553 268 572T225 591Q194 591 181 572T163 521L125 157Q122 125 134 106T179 87Q210 87 222 105T238 153L251 278H355L342 154Q338 118 328 89T298 38T248 4T175 -8Z" />
<glyph unicode="&#x109;" glyph-name="ccircumflex" horiz-adv-x="360" d="M372 593L378 648L453 701H503L572 648L566 593L474 623L372 593ZM335 224L327 147Q319 70 280 31T166 -8Q118 -8 86 5T36 43T13 100T11 174L36 413Q44 488 87 531T206 575Q295 575 328
530T354 407L350 370H244L249 417Q257 484 204 484Q176 484 163 467T147 420L118 147Q115 118 127 101T167 83Q195 83 208 100T224 147L232 224H335Z" />
<glyph unicode="&#x10a;" glyph-name="Cdotaccent" horiz-adv-x="378" d="M175 -8Q127 -8 94 6T42 47T16 108T14 185L48 509Q52 545 63 577T96 634T150 672T227 686Q273 686 304 673T353 637T377 581T379 511L371 436H267L276 519Q280 553 268 572T225 591Q194
591 181 572T163 521L125 157Q122 125 134 106T179 87Q210 87 222 105T238 153L251 278H355L342 154Q338 118 328 89T298 38T248 4T175 -8ZM186 788H296L287 702H177L186 788Z" />
<glyph unicode="&#x10b;" glyph-name="cdotaccent" horiz-adv-x="360" d="M335 224L327 147Q319 70 280 31T166 -8Q118 -8 86 5T36 43T13 100T11 174L36 413Q44 488 87 531T206 575Q295 575 328 530T354 407L350 370H244L249 417Q257 484 204 484Q176 484 163
467T147 420L118 147Q115 118 127 101T167 83Q195 83 208 100T224 147L232 224H335ZM427 678H537L528 592H418L427 678Z" />
<glyph unicode="&#x10c;" glyph-name="Ccaron" horiz-adv-x="378" d="M595 810L589 755L514 702H464L395 755L401 810L493 780L595 810ZM175 -8Q127 -8 94 6T42 47T16 108T14 185L48 509Q52 545 63 577T96 634T150 672T227 686Q273 686 304 673T353 637T377 581T379
511L371 436H267L276 519Q280 553 268 572T225 591Q194 591 181 572T163 521L125 157Q122 125 134 106T179 87Q210 87 222 105T238 153L251 278H355L342 154Q338 118 328 89T298 38T248 4T175 -8Z" />
<glyph unicode="&#x10d;" glyph-name="ccaron" horiz-adv-x="360" d="M580 700L574 645L499 592H449L380 645L386 700L478 670L580 700ZM335 224L327 147Q319 70 280 31T166 -8Q118 -8 86 5T36 43T13 100T11 174L36 413Q44 488 87 531T206 575Q295 575 328 530T354
407L350 370H244L249 417Q257 484 204 484Q176 484 163 467T147 420L118 147Q115 118 127 101T167 83Q195 83 208 100T224 147L232 224H335Z" />
<glyph unicode="&#x10e;" glyph-name="Dcaron" horiz-adv-x="391" d="M576 810L570 755L495 702H445L376 755L382 810L474 780L576 810ZM166 93Q201 93 218 111T239 162L276 517Q279 548 266 566T218 585H170L118 93H166ZM242 678Q331 678 363 626T387 486L354
172Q346 94 305 47T177 0H-5L66 678H242Z" />
<glyph unicode="&#x10f;" glyph-name="dcaron" horiz-adv-x="366" d="M482 669L448 585H395L405 678H482V669ZM312 0H202L208 59H206Q200 47 192 35T171 14T143 -2T105 -8Q55 -8 28 29T8 145L39 442Q47 513 80 544T163 575Q206 575 226 557T254 516H256L273 678H383L312
0ZM118 140Q115 114 123 96T160 78Q189 78 201 97T217 149L246 421Q253 486 200 486Q173 486 162 470T148 428L118 140Z" />
<glyph unicode="&#x110;" glyph-name="Dcroat" horiz-adv-x="391" d="M7 391H36L66 678H242Q331 678 363 626T387 486L354 172Q346 94 305 47T177 0H-5L26 299H-3L7 391ZM166 93Q201 93 218 111T239 162L276 517Q279 548 266 566T218 585H170L149 391H223L213
299H140L118 93H166Z" />
<glyph unicode="&#x111;" glyph-name="dcroat" horiz-adv-x="366" d="M378 638H407L402 594H374L312 0H202L208 59H206Q200 47 192 35T171 14T143 -2T105 -8Q55 -8 28 29T8 145L39 442Q47 513 80 544T163 575Q206 575 226 557T254 516H256L264 594H183L188 638H268L273
678H383L378 638ZM118 140Q115 114 123 96T160 78Q189 78 201 97T217 149L246 421Q253 486 200 486Q173 486 162 470T148 428L118 140Z" />
<glyph unicode="&#x112;" glyph-name="Emacron" horiz-adv-x="318" d="M66 678H338L328 585H170L149 391H263L253 299H140L118 93H276L267 0H-5L66 678ZM367 777H563L556 710H360L367 777Z" />
<glyph unicode="&#x113;" glyph-name="emacron" horiz-adv-x="366" d="M336 224L328 147Q320 73 281 33T165 -8Q119 -8 88 5T38 42T13 99T11 174L36 413Q44 485 86 530T209 575Q294 575 328 531T355 408L341 273H131L118 147Q115 118 127 101T168 83Q195 83 208
100T224 147L232 224H336ZM140 353H243L250 422Q253 451 242 467T204 484Q176 484 163 467T147 420L140 353ZM376 667H572L565 600H369L376 667Z" />
<glyph unicode="&#x114;" glyph-name="Ebreve" horiz-adv-x="318" d="M66 678H338L328 585H170L149 391H263L253 299H140L118 93H276L267 0H-5L66 678ZM565 794Q560 749 533 726T468 703Q423 703 398 727T373 794H440Q442 771 469 771Q494 771 500 794H565Z" />
<glyph unicode="&#x115;" glyph-name="ebreve" horiz-adv-x="366" d="M336 224L328 147Q320 73 281 33T165 -8Q119 -8 88 5T38 42T13 99T11 174L36 413Q44 485 86 530T209 575Q294 575 328 531T355 408L341 273H131L118 147Q115 118 127 101T168 83Q195 83 208
100T224 147L232 224H336ZM140 353H243L250 422Q253 451 242 467T204 484Q176 484 163 467T147 420L140 353ZM573 684Q568 639 541 616T476 593Q431 593 406 617T381 684H448Q450 661 477 661Q502 661 508 684H573Z" />
<glyph unicode="&#x116;" glyph-name="Edotaccent" horiz-adv-x="318" d="M66 678H338L328 585H170L149 391H263L253 299H140L118 93H276L267 0H-5L66 678ZM415 788H525L516 702H406L415 788Z" />
<glyph unicode="&#x117;" glyph-name="edotaccent" horiz-adv-x="366" d="M336 224L328 147Q320 73 281 33T165 -8Q119 -8 88 5T38 42T13 99T11 174L36 413Q44 485 86 530T209 575Q294 575 328 531T355 408L341 273H131L118 147Q115 118 127 101T168 83Q195 83
208 100T224 147L232 224H336ZM140 353H243L250 422Q253 451 242 467T204 484Q176 484 163 467T147 420L140 353ZM423 678H533L524 592H414L423 678Z" />
<glyph unicode="&#x118;" glyph-name="Eogonek" horiz-adv-x="318" d="M66 678H338L328 585H170L149 391H263L253 299H140L118 93H276L267 0H242Q234 -7 229 -12T223 -25Q223 -33 235 -33H239L233 -90H199Q161 -90 145 -79T129 -49Q129 -29 147 -17T182 0H-5L66 678Z" />
<glyph unicode="&#x119;" glyph-name="eogonek" horiz-adv-x="366" d="M336 224L328 147Q324 109 312 79T275 27Q261 13 245 0T229 -25Q229 -33 241 -33H245L239 -90H205Q167 -90 151 -79T135 -49Q135 -35 147 -25T173 -8H165Q77 -8 40 41T11 174L36 413Q44 485
86 530T209 575Q294 575 328 531T355 408L341 273H131L118 147Q115 118 127 101T168 83Q195 83 208 100T224 147L232 224H336ZM140 353H243L250 422Q253 451 242 467T204 484Q176 484 163 467T147 420L140 353Z" />
<glyph unicode="&#x11a;" glyph-name="Ecaron" horiz-adv-x="318" d="M568 810L562 755L487 702H437L368 755L374 810L466 780L568 810ZM66 678H338L328 585H170L149 391H263L253 299H140L118 93H276L267 0H-5L66 678Z" />
<glyph unicode="&#x11b;" glyph-name="ecaron" horiz-adv-x="366" d="M576 700L570 645L495 592H445L376 645L382 700L474 670L576 700ZM336 224L328 147Q320 73 281 33T165 -8Q119 -8 88 5T38 42T13 99T11 174L36 413Q44 485 86 530T209 575Q294 575 328 531T355
408L341 273H131L118 147Q115 118 127 101T168 83Q195 83 208 100T224 147L232 224H336ZM140 353H243L250 422Q253 451 242 467T204 484Q176 484 163 467T147 420L140 353Z" />
<glyph unicode="&#x11c;" glyph-name="Gcircumflex" horiz-adv-x="393" d="M137 703L143 758L218 811H268L337 758L331 703L239 733L137 703ZM205 362H367L329 0H247L254 74Q241 39 214 16T145 -8Q106 -8 79 6T36 45T15 106T14 185L48 507Q57 590 99 638T228 686Q320
686 356 638T382 502L377 456H273L280 522Q287 591 226 591Q196 591 182 573T163 516L125 157Q122 125 134 106T177 87Q230 87 236 148L249 272H195L205 362Z" />
<glyph unicode="&#x11d;" glyph-name="gcircumflex" horiz-adv-x="366" d="M369 593L375 648L450 701H500L569 648L563 593L471 623L369 593ZM317 62Q309 -15 270 -56T147 -98Q103 -98 73 -87T25 -56T1 -9T-3 50L-2 60H99L98 50Q95 21 107 7T149 -7Q178 -7 191
9T207 55L218 156H216Q210 144 202 132T181 111T153 95T115 89Q65 89 38 126T18 242L39 442Q47 513 80 544T163 575Q206 575 226 557T254 516H256L261 567H371L317 62ZM128 237Q125 211 133 193T170 175Q199 175 211 194T227 246L246 421Q253 486 200 486Q173 486
162 470T148 428L128 237Z" />
<glyph unicode="&#x11e;" glyph-name="Gbreve" horiz-adv-x="393" d="M205 362H367L329 0H247L254 74Q241 39 214 16T145 -8Q106 -8 79 6T36 45T15 106T14 185L48 507Q57 590 99 638T228 686Q320 686 356 638T382 502L377 456H273L280 522Q287 591 226 591Q196
591 182 573T163 516L125 157Q122 125 134 106T177 87Q230 87 236 148L249 272H195L205 362ZM592 794Q587 749 560 726T495 703Q450 703 425 727T400 794H467Q469 771 496 771Q521 771 527 794H592Z" />
<glyph unicode="&#x11f;" glyph-name="gbreve" horiz-adv-x="366" d="M317 62Q309 -15 270 -56T147 -98Q103 -98 73 -87T25 -56T1 -9T-3 50L-2 60H99L98 50Q95 21 107 7T149 -7Q178 -7 191 9T207 55L218 156H216Q210 144 202 132T181 111T153 95T115 89Q65 89
38 126T18 242L39 442Q47 513 80 544T163 575Q206 575 226 557T254 516H256L261 567H371L317 62ZM128 237Q125 211 133 193T170 175Q199 175 211 194T227 246L246 421Q253 486 200 486Q173 486 162 470T148 428L128 237ZM568 684Q563 639 536 616T471 593Q426 593
401 617T376 684H443Q445 661 472 661Q497 661 503 684H568Z" />
<glyph unicode="&#x120;" glyph-name="Gdotaccent" horiz-adv-x="393" d="M205 362H367L329 0H247L254 74Q241 39 214 16T145 -8Q106 -8 79 6T36 45T15 106T14 185L48 507Q57 590 99 638T228 686Q320 686 356 638T382 502L377 456H273L280 522Q287 591 226 591Q196
591 182 573T163 516L125 157Q122 125 134 106T177 87Q230 87 236 148L249 272H195L205 362ZM186 788H296L287 702H177L186 788Z" />
<glyph unicode="&#x121;" glyph-name="gdotaccent" horiz-adv-x="366" d="M317 62Q309 -15 270 -56T147 -98Q103 -98 73 -87T25 -56T1 -9T-3 50L-2 60H99L98 50Q95 21 107 7T149 -7Q178 -7 191 9T207 55L218 156H216Q210 144 202 132T181 111T153 95T115 89Q65
89 38 126T18 242L39 442Q47 513 80 544T163 575Q206 575 226 557T254 516H256L261 567H371L317 62ZM128 237Q125 211 133 193T170 175Q199 175 211 194T227 246L246 421Q253 486 200 486Q173 486 162 470T148 428L128 237ZM418 678H528L519 592H409L418 678Z"
/>
<glyph unicode="&#x122;" glyph-name="Gcommaaccent" horiz-adv-x="393" d="M201 -30L166 -90H98L109 -21H201V-30ZM205 362H367L329 0H247L254 74Q241 39 214 16T145 -8Q106 -8 79 6T36 45T15 106T14 185L48 507Q57 590 99 638T228 686Q320 686 356 638T382 502L377
456H273L280 522Q287 591 226 591Q196 591 182 573T163 516L125 157Q122 125 134 106T177 87Q230 87 236 148L249 272H195L205 362Z" />
<glyph unicode="&#x123;" glyph-name="gcommaaccent" horiz-adv-x="366" d="M427 601L462 661H530L519 592H427V601ZM317 62Q309 -15 270 -56T147 -98Q103 -98 73 -87T25 -56T1 -9T-3 50L-2 60H99L98 50Q95 21 107 7T149 -7Q178 -7 191 9T207 55L218 156H216Q210
144 202 132T181 111T153 95T115 89Q65 89 38 126T18 242L39 442Q47 513 80 544T163 575Q206 575 226 557T254 516H256L261 567H371L317 62ZM128 237Q125 211 133 193T170 175Q199 175 211 194T227 246L246 421Q253 486 200 486Q173 486 162 470T148 428L128 237Z"
/>
<glyph unicode="&#x124;" glyph-name="Hcircumflex" horiz-adv-x="389" d="M138 703L144 758L219 811H269L338 758L332 703L240 733L138 703ZM250 299H140L109 0H-5L66 678H180L150 391H260L290 678H405L334 0H219L250 299Z" />
<glyph unicode="&#x125;" glyph-name="hcircumflex" horiz-adv-x="366" d="M382 702L388 757L463 810H513L582 757L576 702L484 732L382 702ZM247 424Q250 453 242 469T205 485Q176 485 164 467T149 422L105 0H-5L66 678H176L158 509H159Q172 535 196 555T265
575Q314 575 340 540T357 421L313 0H203L247 424Z" />
<glyph unicode="&#x126;" glyph-name="Hbar" horiz-adv-x="389" d="M23 557H53L66 678H180L167 557H277L290 678H405L392 557H422L415 493H385L334 0H219L250 299H140L109 0H-5L46 493H16L23 557ZM150 391H260L270 493H160L150 391Z" />
<glyph unicode="&#x127;" glyph-name="hbar" horiz-adv-x="366" d="M247 424Q250 453 242 469T205 485Q176 485 164 467T149 422L105 0H-5L57 594H29L34 638H61L66 678H176L171 638H253L248 594H167L158 509H159Q172 535 196 555T265 575Q314 575 340 540T357
421L313 0H203L247 424Z" />
<glyph unicode="&#x128;" glyph-name="Itilde" horiz-adv-x="165" d="M66 678H180L109 0H-5L66 678ZM276 705Q279 740 296 765T348 790Q373 790 391 782T422 773Q435 773 437 788H493Q490 753 473 728T421 703Q396 703 378 711T347 720Q333 720 332 705H276Z" />
<glyph unicode="&#x129;" glyph-name="itilde" horiz-adv-x="160" d="M13 595Q16 630 33 655T85 680Q108 680 123 672T149 663Q162 663 164 678H220Q217 643 200 618T148 593Q125 593 110 601T84 610Q70 610 69 595H13ZM54 567H164L105 0H-5L54 567Z" />
<glyph unicode="&#x12a;" glyph-name="Imacron" horiz-adv-x="165" d="M66 678H180L109 0H-5L66 678ZM32 777H228L221 710H25L32 777Z" />
<glyph unicode="&#x12b;" glyph-name="imacron" horiz-adv-x="160" d="M42 667H198L191 600H35L42 667ZM54 567H164L105 0H-5L54 567Z" />
<glyph unicode="&#x12c;" glyph-name="Ibreve" horiz-adv-x="165" d="M66 678H180L109 0H-5L66 678ZM485 794Q480 749 453 726T388 703Q343 703 318 727T293 794H360Q362 771 389 771Q414 771 420 794H485Z" />
<glyph unicode="&#x12d;" glyph-name="ibreve" horiz-adv-x="160" d="M208 684Q205 641 182 617T120 593Q78 593 57 618T36 684H101Q101 661 122 661Q142 661 145 684H208ZM54 567H164L105 0H-5L54 567Z" />
<glyph unicode="&#x12e;" glyph-name="Iogonek" horiz-adv-x="165" d="M66 678H180L109 0Q101 -7 96 -12T90 -25Q90 -33 102 -33H106L100 -90H66Q28 -90 12 -79T-4 -49Q-4 -29 14 -17T49 0H-5L66 678Z" />
<glyph unicode="&#x12f;" glyph-name="iogonek" horiz-adv-x="160" d="M54 567H164L105 0Q97 -7 92 -12T86 -25Q86 -33 98 -33H102L96 -90H62Q24 -90 8 -79T-8 -49Q-8 -29 10 -17T45 0H-5L54 567ZM66 678H176L167 592H57L66 678Z" />
<glyph unicode="&#x130;" glyph-name="Idotaccent" horiz-adv-x="165" d="M66 678H180L109 0H-5L66 678ZM336 788H446L437 702H327L336 788Z" />
<glyph unicode="&#x131;" glyph-name="dotlessi" horiz-adv-x="160" d="M54 567H164L105 0H-5L54 567Z" />
<glyph unicode="&#x132;" glyph-name="IJ" horiz-adv-x="505" d="M66 678H180L109 0H-5L66 678ZM522 678L466 144Q462 109 451 81T421 34T372 3T303 -8Q256 -8 226 5T181 40T161 91T160 153L173 278H281L267 148Q261 87 306 87Q329 87 339 101T351 142L408 678H522Z" />
<glyph unicode="&#x133;" glyph-name="ij" horiz-adv-x="320" d="M66 678H176L167 592H57L66 678ZM54 567H164L105 0H-5L54 567ZM324 567L265 -1Q260 -53 232 -71T147 -90H117L125 -15H131Q145 -15 149 -10T156 9L214 567H324ZM226 678H336L327 592H217L226 678Z" />
<glyph unicode="&#x134;" glyph-name="Jcircumflex" horiz-adv-x="352" d="M219 703L225 758L300 811H350L419 758L413 703L321 733L219 703ZM369 678L313 144Q309 109 298 81T268 34T219 3T150 -8Q103 -8 73 5T28 40T8 91T7 153L20 278H128L114 148Q108 87 153
87Q176 87 186 101T198 142L255 678H369Z" />
<glyph unicode="&#x135;" glyph-name="jcircumflex" horiz-adv-x="160" d="M30 593L36 648L97 701H147L200 648L194 593L117 623L30 593ZM164 567L105 -1Q100 -53 72 -71T-13 -90H-43L-35 -15H-29Q-15 -15 -11 -10T-4 9L54 567H164Z" />
<glyph unicode="&#x136;" glyph-name="Kcommaaccent" horiz-adv-x="381" d="M211 -30L176 -90H108L119 -21H211V-30ZM143 327L109 0H-5L66 678H180L149 380L303 678H418L251 364L348 0H230L143 327Z" />
<glyph unicode="&#x137;" glyph-name="kcommaaccent" horiz-adv-x="350" d="M191 -30L156 -90H88L99 -21H191V-30ZM205 0L134 278L105 0H-5L66 678H176L139 322L265 567H377L236 298L319 0H205Z" />
<glyph unicode="&#x139;" glyph-name="Lacute" horiz-adv-x="287" d="M476 725L295 703L302 768L485 805L476 725ZM66 678H180L118 93H254L245 0H-5L66 678Z" />
<glyph unicode="&#x13a;" glyph-name="lacute" horiz-adv-x="160" d="M66 678H176L105 0H-5L66 678ZM227 725L46 703L53 768L236 805L227 725Z" />
<glyph unicode="&#x13b;" glyph-name="Lcommaaccent" horiz-adv-x="287" d="M418 -30L383 -90H315L326 -21H418V-30ZM66 678H180L118 93H254L245 0H-5L66 678Z" />
<glyph unicode="&#x13c;" glyph-name="lcommaaccent" horiz-adv-x="160" d="M349 -30L314 -90H246L257 -21H349V-30ZM66 678H176L105 0H-5L66 678Z" />
<glyph unicode="&#x13d;" glyph-name="Lcaron" horiz-adv-x="287" d="M66 678H180L118 93H254L245 0H-5L66 678ZM293 669L250 536H201L216 678H293V669Z" />
<glyph unicode="&#x13e;" glyph-name="lcaron" horiz-adv-x="160" d="M531 669L497 585H444L454 678H531V669ZM66 678H176L105 0H-5L66 678Z" />
<glyph unicode="&#x13f;" glyph-name="Ldot" horiz-adv-x="287" d="M186 290H269L277 373H194L186 290ZM66 678H180L118 93H254L245 0H-5L66 678Z" />
<glyph unicode="&#x140;" glyph-name="ldot" horiz-adv-x="243" d="M162 300H245L253 383H170L162 300ZM66 678H176L105 0H-5L66 678Z" />
<glyph unicode="&#x141;" glyph-name="Lslash" horiz-adv-x="292" d="M2 310L34 324L71 678H185L153 377L251 421L243 340L145 296L123 93H259L250 0H0L25 243L-6 229L2 310Z" />
<glyph unicode="&#x142;" glyph-name="lslash" horiz-adv-x="166" d="M8 361L38 385L69 678H179L158 480L190 505L181 413L148 387L108 0H-2L28 292L-1 269L8 361Z" />
<glyph unicode="&#x143;" glyph-name="Nacute" horiz-adv-x="381" d="M331 725L150 703L157 768L340 805L331 725ZM136 437L91 0H-5L66 678H178L259 279L301 678H396L325 0H225L136 437Z" />
<glyph unicode="&#x144;" glyph-name="nacute" horiz-adv-x="366" d="M565 615L384 593L391 658L574 695L565 615ZM247 424Q250 453 242 469T205 485Q176 485 164 467T149 422L105 0H-5L54 567H164L158 509H159Q172 535 196 555T265 575Q314 575 340 540T357 421L313
0H203L247 424Z" />
<glyph unicode="&#x145;" glyph-name="Ncommaaccent" horiz-adv-x="381" d="M208 -30L173 -90H105L116 -21H208V-30ZM136 437L91 0H-5L66 678H178L259 279L301 678H396L325 0H225L136 437Z" />
<glyph unicode="&#x146;" glyph-name="ncommaaccent" horiz-adv-x="366" d="M197 -30L162 -90H94L105 -21H197V-30ZM247 424Q250 453 242 469T205 485Q176 485 164 467T149 422L105 0H-5L54 567H164L158 509H159Q172 535 196 555T265 575Q314 575 340 540T357
421L313 0H203L247 424Z" />
<glyph unicode="&#x147;" glyph-name="Ncaron" horiz-adv-x="381" d="M343 810L337 755L262 702H212L143 755L149 810L241 780L343 810ZM136 437L91 0H-5L66 678H178L259 279L301 678H396L325 0H225L136 437Z" />
<glyph unicode="&#x148;" glyph-name="ncaron" horiz-adv-x="366" d="M577 700L571 645L496 592H446L377 645L383 700L475 670L577 700ZM247 424Q250 453 242 469T205 485Q176 485 164 467T149 422L105 0H-5L54 567H164L158 509H159Q172 535 196 555T265 575Q314
575 340 540T357 421L313 0H203L247 424Z" />
<glyph unicode="&#x14a;" glyph-name="Eng" horiz-adv-x="381" d="M190 -15Q204 -15 209 -9T215 9L218 35L136 437L91 0H-5L66 678H178L259 279L301 678H396L325 1Q320 -49 292 -69T200 -90H155L163 -15H190V-15Z" />
<glyph unicode="&#x14b;" glyph-name="eng" horiz-adv-x="366" d="M247 424Q250 453 242 469T205 485Q176 485 164 467T149 422L105 0H-5L54 567H164L158 509H159Q172 535 196 555T265 575Q314 575 340 540T357 421L313 -1Q308 -53 280 -71T195 -90H163L171 -15H179Q193
-15 197 -10T204 9L247 424Z" />
<glyph unicode="&#x14c;" glyph-name="Omacron" horiz-adv-x="395" d="M146 777H342L335 710H139L146 777ZM179 87Q210 87 224 106T242 157L280 521Q283 554 270 572T225 591Q195 591 181 572T163 521L125 157Q122 125 135 106T179 87ZM178 -8Q131 -8 98 6T44
45T17 106T14 185L48 513Q52 550 64 582T99 637T153 673T228 686Q322 686 361 633T391 493L357 165Q353 128 341 97T307 42T253 5T178 -8Z" />
<glyph unicode="&#x14d;" glyph-name="omacron" horiz-adv-x="371" d="M379 667H575L568 600H372L379 667ZM165 -8Q76 -8 39 41T11 174L36 413Q44 490 87 532T205 575Q294 575 331 526T359 393L334 154Q326 78 283 35T165 -8ZM166 83Q193 83 206 100T223 147L252
420Q255 449 243 466T204 484Q176 484 163 467T147 420L118 147Q115 118 126 101T166 83Z" />
<glyph unicode="&#x14e;" glyph-name="Obreve" horiz-adv-x="395" d="M179 87Q210 87 224 106T242 157L280 521Q283 554 270 572T225 591Q195 591 181 572T163 521L125 157Q122 125 135 106T179 87ZM178 -8Q131 -8 98 6T44 45T17 106T14 185L48 513Q52 550 64
582T99 637T153 673T228 686Q322 686 361 633T391 493L357 165Q353 128 341 97T307 42T253 5T178 -8ZM338 794Q333 749 306 726T241 703Q196 703 171 727T146 794H213Q215 771 242 771Q267 771 273 794H338Z" />
<glyph unicode="&#x14f;" glyph-name="obreve" horiz-adv-x="371" d="M165 -8Q76 -8 39 41T11 174L36 413Q44 490 87 532T205 575Q294 575 331 526T359 393L334 154Q326 78 283 35T165 -8ZM166 83Q193 83 206 100T223 147L252 420Q255 449 243 466T204 484Q176
484 163 467T147 420L118 147Q115 118 126 101T166 83ZM574 684Q569 639 542 616T477 593Q432 593 407 617T382 684H449Q451 661 478 661Q503 661 509 684H574Z" />
<glyph unicode="&#x150;" glyph-name="Ohungarumlaut" horiz-adv-x="395" d="M523 812L470 705H407L433 812H523ZM632 812L579 705H516L542 812H632ZM179 87Q210 87 224 106T242 157L280 521Q283 554 270 572T225 591Q195 591 181 572T163 521L125 157Q122 125
135 106T179 87ZM178 -8Q131 -8 98 6T44 45T17 106T14 185L48 513Q52 550 64 582T99 637T153 673T228 686Q322 686 361 633T391 493L357 165Q353 128 341 97T307 42T253 5T178 -8Z" />
<glyph unicode="&#x151;" glyph-name="ohungarumlaut" horiz-adv-x="371" d="M499 702L446 595H383L409 702H499ZM608 702L555 595H492L518 702H608ZM165 -8Q76 -8 39 41T11 174L36 413Q44 490 87 532T205 575Q294 575 331 526T359 393L334 154Q326 78 283 35T165
-8ZM166 83Q193 83 206 100T223 147L252 420Q255 449 243 466T204 484Q176 484 163 467T147 420L118 147Q115 118 126 101T166 83Z" />
<glyph unicode="&#x152;" glyph-name="OE" horiz-adv-x="552" d="M252 43Q238 20 215 6T157 -8Q117 -8 88 6T41 45T16 106T14 185L48 513Q56 596 99 641T217 686Q255 686 279 672T314 635L319 678H569L559 585H401L381 391H494L484 299H371L349 93H507L498 0H248L252
43ZM179 87Q210 87 224 106T242 157L280 521Q283 554 270 572T225 591Q195 591 181 572T163 521L125 157Q122 125 135 106T179 87Z" />
<glyph unicode="&#x153;" glyph-name="oe" horiz-adv-x="581" d="M158 -8Q74 -8 38 41T11 174L36 413Q44 490 87 532T199 575Q244 575 272 562T317 523Q336 548 363 561T429 575Q509 575 543 531T570 408L556 273H346L333 147Q330 118 342 101T383 83Q410 83 423
100T439 147L447 224H551L543 147Q535 73 495 33T389 -8Q304 -8 272 46Q230 -8 158 -8ZM166 83Q193 83 206 100T223 147L252 420Q255 449 243 466T204 484Q176 484 163 467T147 420L118 147Q115 118 126 101T166 83ZM355 353H458L465 422Q468 451 457 467T419 484Q391
484 378 467T362 420L355 353Z" />
<glyph unicode="&#x154;" glyph-name="Racute" horiz-adv-x="370" d="M567 725L386 703L393 768L576 805L567 725ZM142 319L109 0H-5L66 678H220Q266 678 297 667T347 635T370 584T372 516L363 429Q358 375 334 346T260 306L340 0H222L142 319ZM170 585L148 374H186Q242
374 248 430L258 526Q261 558 249 571T208 585H170Z" />
<glyph unicode="&#x155;" glyph-name="racute" horiz-adv-x="236" d="M514 615L333 593L340 658L523 695L514 615ZM239 442H208Q178 442 163 428T145 384L105 0H-5L54 567H164L158 509H160Q164 519 171 529T190 549T217 564T253 571L239 442Z" />
<glyph unicode="&#x156;" glyph-name="Rcommaaccent" horiz-adv-x="370" d="M204 -30L169 -90H101L112 -21H204V-30ZM142 319L109 0H-5L66 678H220Q266 678 297 667T347 635T370 584T372 516L363 429Q358 375 334 346T260 306L340 0H222L142 319ZM170 585L148
374H186Q242 374 248 430L258 526Q261 558 249 571T208 585H170Z" />
<glyph unicode="&#x157;" glyph-name="rcommaaccent" horiz-adv-x="236" d="M347 -30L312 -90H244L255 -21H347V-30ZM239 442H208Q178 442 163 428T145 384L105 0H-5L54 567H164L158 509H160Q164 519 171 529T190 549T217 564T253 571L239 442Z" />
<glyph unicode="&#x158;" glyph-name="Rcaron" horiz-adv-x="370" d="M579 810L573 755L498 702H448L379 755L385 810L477 780L579 810ZM142 319L109 0H-5L66 678H220Q266 678 297 667T347 635T370 584T372 516L363 429Q358 375 334 346T260 306L340 0H222L142
319ZM170 585L148 374H186Q242 374 248 430L258 526Q261 558 249 571T208 585H170Z" />
<glyph unicode="&#x159;" glyph-name="rcaron" horiz-adv-x="236" d="M526 700L520 645L445 592H395L326 645L332 700L424 670L526 700ZM239 442H208Q178 442 163 428T145 384L105 0H-5L54 567H164L158 509H160Q164 519 171 529T190 549T217 564T253 571L239 442Z" />
<glyph unicode="&#x15a;" glyph-name="Sacute" horiz-adv-x="366" d="M570 725L389 703L396 768L579 805L570 725ZM158 -8Q114 -8 83 4T34 38T8 89T4 151L13 237H119L110 144Q107 115 119 100T162 84Q189 84 201 99T216 141L219 169Q222 198 213 219T180 268L119
339Q96 366 81 389T57 434T45 480T45 529L47 549Q50 578 61 603T92 646T141 675T211 686Q300 686 335 640T363 515L359 477H255L260 525Q264 560 250 577T210 594Q159 594 153 539L152 529Q149 500 161 478T198 427L263 351Q284 327 298 306T321 263T332 217T332
163L329 134Q322 69 282 31T158 -8Z" />
<glyph unicode="&#x15b;" glyph-name="sacute" horiz-adv-x="337" d="M547 615L366 593L373 658L556 695L547 615ZM303 133Q296 64 258 28T145 -8Q63 -8 28 33T1 149L7 206H106L99 140Q93 83 146 83Q172 83 184 93T199 130L201 148Q203 169 192 187T145 236L99
277Q63 309 47 344T35 432L36 443Q43 504 80 539T191 575Q274 575 305 536T330 422L327 393H229L233 431Q236 460 225 472T188 484Q142 484 139 441L138 432Q136 412 145 396T183 354L227 315Q248 296 264 279T291 244T304 203T305 152L303 133Z" />
<glyph unicode="&#x15c;" glyph-name="Scircumflex" horiz-adv-x="366" d="M374 703L380 758L455 811H505L574 758L568 703L476 733L374 703ZM158 -8Q114 -8 83 4T34 38T8 89T4 151L13 237H119L110 144Q107 115 119 100T162 84Q189 84 201 99T216 141L219 169Q222
198 213 219T180 268L119 339Q96 366 81 389T57 434T45 480T45 529L47 549Q50 578 61 603T92 646T141 675T211 686Q300 686 335 640T363 515L359 477H255L260 525Q264 560 250 577T210 594Q159 594 153 539L152 529Q149 500 161 478T198 427L263 351Q284 327 298
306T321 263T332 217T332 163L329 134Q322 69 282 31T158 -8Z" />
<glyph unicode="&#x15d;" glyph-name="scircumflex" horiz-adv-x="337" d="M352 593L358 648L433 701H483L552 648L546 593L454 623L352 593ZM303 133Q296 64 258 28T145 -8Q63 -8 28 33T1 149L7 206H106L99 140Q93 83 146 83Q172 83 184 93T199 130L201 148Q203
169 192 187T145 236L99 277Q63 309 47 344T35 432L36 443Q43 504 80 539T191 575Q274 575 305 536T330 422L327 393H229L233 431Q236 460 225 472T188 484Q142 484 139 441L138 432Q136 412 145 396T183 354L227 315Q248 296 264 279T291 244T304 203T305 152L303
133Z" />
<glyph unicode="&#x15e;" glyph-name="Scedilla" horiz-adv-x="366" d="M96 -69Q120 -68 127 -64T135 -53Q135 -42 120 -42H115L119 -5Q53 5 26 48T4 151L13 237H119L110 144Q107 115 119 100T162 84Q189 84 201 99T216 141L219 169Q222 198 213 219T180 268L119
339Q96 366 81 389T57 434T45 480T45 529L47 549Q50 578 61 603T92 646T141 675T211 686Q300 686 335 640T363 515L359 477H255L260 525Q264 560 250 577T210 594Q159 594 153 539L152 529Q149 500 161 478T198 427L263 351Q284 327 298 306T321 263T332 217T332
163L329 134Q322 69 283 32T162 -8L161 -17Q199 -23 199 -53Q199 -70 188 -79T161 -93T126 -99T93 -101L96 -69Z" />
<glyph unicode="&#x15f;" glyph-name="scedilla" horiz-adv-x="337" d="M84 -69Q108 -68 115 -64T123 -53Q123 -42 108 -42H103L107 -5Q45 3 20 43T1 149L7 206H106L99 140Q93 83 146 83Q172 83 184 93T199 130L201 148Q203 169 192 187T145 236L99 277Q63 309
47 344T35 432L36 443Q43 504 80 539T191 575Q274 575 305 536T330 422L327 393H229L233 431Q236 460 225 472T188 484Q142 484 139 441L138 432Q136 412 145 396T183 354L227 315Q248 296 264 279T291 244T304 203T305 152L303 133Q296 65 259 30T150 -8L149 -17Q187
-23 187 -53Q187 -70 176 -79T149 -93T114 -99T81 -101L84 -69Z" />
<glyph unicode="&#x160;" glyph-name="Scaron" horiz-adv-x="366" d="M158 -8Q114 -8 83 4T34 38T8 89T4 151L13 237H119L110 144Q107 115 119 100T162 84Q189 84 201 99T216 141L219 169Q222 198 213 219T180 268L119 339Q96 366 81 389T57 434T45 480T45 529L47
549Q50 578 61 603T92 646T141 675T211 686Q300 686 335 640T363 515L359 477H255L260 525Q264 560 250 577T210 594Q159 594 153 539L152 529Q149 500 161 478T198 427L263 351Q284 327 298 306T321 263T332 217T332 163L329 134Q322 69 282 31T158 -8ZM582 810L576
755L501 702H451L382 755L388 810L480 780L582 810Z" />
<glyph unicode="&#x161;" glyph-name="scaron" horiz-adv-x="337" d="M560 700L554 645L479 592H429L360 645L366 700L458 670L560 700ZM303 133Q296 64 258 28T145 -8Q63 -8 28 33T1 149L7 206H106L99 140Q93 83 146 83Q172 83 184 93T199 130L201 148Q203 169
192 187T145 236L99 277Q63 309 47 344T35 432L36 443Q43 504 80 539T191 575Q274 575 305 536T330 422L327 393H229L233 431Q236 460 225 472T188 484Q142 484 139 441L138 432Q136 412 145 396T183 354L227 315Q248 296 264 279T291 244T304 203T305 152L303
133Z" />
<glyph unicode="&#x162;" glyph-name="Tcommaaccent" horiz-adv-x="328" d="M432 -30L397 -90H329L340 -21H432V-30ZM53 678H356L346 585H252L191 0H76L137 585H43L53 678Z" />
<glyph unicode="&#x163;" glyph-name="tcommaaccent" horiz-adv-x="246" d="M409 -30L374 -90H306L317 -21H409V-30ZM41 567H82L94 678H203L191 567H260L251 483H182L144 120Q142 103 149 96T175 89H210L201 0H162Q82 0 56 32T37 136L73 483H32L41 567Z" />
<glyph unicode="&#x164;" glyph-name="Tcaron" horiz-adv-x="328" d="M565 810L559 755L484 702H434L365 755L371 810L463 780L565 810ZM53 678H356L346 585H252L191 0H76L137 585H43L53 678Z" />
<glyph unicode="&#x165;" glyph-name="tcaron" horiz-adv-x="246" d="M299 669L265 585H212L222 678H299V669ZM41 567H82L94 678H203L191 567H260L251 483H182L144 120Q142 103 149 96T175 89H210L201 0H162Q82 0 56 32T37 136L73 483H32L41 567Z" />
<glyph unicode="&#x166;" glyph-name="Tbar" horiz-adv-x="328" d="M53 678H356L346 585H252L237 444H306L299 380H231L191 0H76L116 380H51L58 444H122L137 585H43L53 678Z" />
<glyph unicode="&#x167;" glyph-name="tbar" horiz-adv-x="246" d="M203 678L191 567H260L251 483H182L176 422H245L240 378H171L144 120Q142 103 149 96T175 89H210L201 0H162Q82 0 56 32T37 136L62 378H21L26 422H67L73 483H32L41 567H82L94 678H203Z" />
<glyph unicode="&#x168;" glyph-name="Utilde" horiz-adv-x="381" d="M397 678L342 155Q338 118 327 88T295 37T245 4T175 -8Q127 -8 94 5T42 42T15 100T13 175L66 678H180L125 154Q122 122 134 105T177 87Q207 87 220 104T237 154L292 678H397ZM138 705Q141 740
158 765T210 790Q235 790 253 782T284 773Q297 773 299 788H355Q352 753 335 728T283 703Q258 703 240 711T209 720Q195 720 194 705H138Z" />
<glyph unicode="&#x169;" glyph-name="utilde" horiz-adv-x="366" d="M118 143Q115 114 123 98T160 82Q189 82 201 100T216 145L260 567H370L311 0H201L207 58H206Q193 32 169 12T100 -8Q51 -8 25 27T8 146L52 567H162L118 143ZM369 595Q372 630 389 655T441 680Q466
680 484 672T515 663Q528 663 530 678H586Q583 643 566 618T514 593Q489 593 471 601T440 610Q426 610 425 595H369Z" />
<glyph unicode="&#x16a;" glyph-name="Umacron" horiz-adv-x="381" d="M397 678L342 155Q338 118 327 88T295 37T245 4T175 -8Q127 -8 94 5T42 42T15 100T13 175L66 678H180L125 154Q122 122 134 105T177 87Q207 87 220 104T237 154L292 678H397ZM143 777H339L332
710H136L143 777Z" />
<glyph unicode="&#x16b;" glyph-name="umacron" horiz-adv-x="366" d="M118 143Q115 114 123 98T160 82Q189 82 201 100T216 145L260 567H370L311 0H201L207 58H206Q193 32 169 12T100 -8Q51 -8 25 27T8 146L52 567H162L118 143ZM378 667H574L567 600H371L378 667Z" />
<glyph unicode="&#x16c;" glyph-name="Ubreve" horiz-adv-x="381" d="M397 678L342 155Q338 118 327 88T295 37T245 4T175 -8Q127 -8 94 5T42 42T15 100T13 175L66 678H180L125 154Q122 122 134 105T177 87Q207 87 220 104T237 154L292 678H397ZM337 794Q332 749
305 726T240 703Q195 703 170 727T145 794H212Q214 771 241 771Q266 771 272 794H337Z" />
<glyph unicode="&#x16d;" glyph-name="ubreve" horiz-adv-x="366" d="M118 143Q115 114 123 98T160 82Q189 82 201 100T216 145L260 567H370L311 0H201L207 58H206Q193 32 169 12T100 -8Q51 -8 25 27T8 146L52 567H162L118 143ZM573 684Q568 639 541 616T476 593Q431
593 406 617T381 684H448Q450 661 477 661Q502 661 508 684H573Z" />
<glyph unicode="&#x16e;" glyph-name="Uring" horiz-adv-x="381" d="M416 756Q416 787 437 809T493 831Q527 831 548 809T569 756Q569 725 548 703T493 681Q459 681 438 703T416 756ZM462 756Q462 742 470 733T493 723Q507 723 515 732T524 756Q524 770 516 779T493
789Q479 789 471 780T462 756ZM397 678L342 155Q338 118 327 88T295 37T245 4T175 -8Q127 -8 94 5T42 42T15 100T13 175L66 678H180L125 154Q122 122 134 105T177 87Q207 87 220 104T237 154L292 678H397Z" />
<glyph unicode="&#x16f;" glyph-name="uring" horiz-adv-x="366" d="M397 666Q397 697 418 719T474 741Q508 741 529 719T550 666Q550 635 529 613T474 591Q440 591 419 613T397 666ZM443 666Q443 652 451 643T474 633Q488 633 496 642T505 666Q505 680 497 689T474
699Q460 699 452 690T443 666ZM118 143Q115 114 123 98T160 82Q189 82 201 100T216 145L260 567H370L311 0H201L207 58H206Q193 32 169 12T100 -8Q51 -8 25 27T8 146L52 567H162L118 143Z" />
<glyph unicode="&#x170;" glyph-name="Uhungarumlaut" horiz-adv-x="381" d="M397 678L342 155Q338 118 327 88T295 37T245 4T175 -8Q127 -8 94 5T42 42T15 100T13 175L66 678H180L125 154Q122 122 134 105T177 87Q207 87 220 104T237 154L292 678H397ZM519 812L466
705H403L429 812H519ZM628 812L575 705H512L538 812H628Z" />
<glyph unicode="&#x171;" glyph-name="uhungarumlaut" horiz-adv-x="366" d="M118 143Q115 114 123 98T160 82Q189 82 201 100T216 145L260 567H370L311 0H201L207 58H206Q193 32 169 12T100 -8Q51 -8 25 27T8 146L52 567H162L118 143ZM499 702L446 595H383L409
702H499ZM608 702L555 595H492L518 702H608Z" />
<glyph unicode="&#x172;" glyph-name="Uogonek" horiz-adv-x="381" d="M397 678L342 155Q337 102 318 66T256 8Q247 3 234 -5T220 -25Q220 -33 232 -33H236L230 -90H196Q158 -90 142 -79T126 -49Q126 -35 135 -25T158 -7Q71 -2 38 47T13 175L66 678H180L125 154Q122
122 134 105T177 87Q207 87 220 104T237 154L292 678H397Z" />
<glyph unicode="&#x173;" glyph-name="uogonek" horiz-adv-x="366" d="M201 0L207 58H206Q193 32 169 12T100 -8Q51 -8 25 27T8 146L52 567H162L118 143Q115 114 123 98T160 82Q189 82 201 100T216 145L260 567H370L311 0Q303 -7 298 -12T292 -25Q292 -33 304
-33H308L302 -90H268Q230 -90 214 -79T198 -49Q198 -29 216 -17T251 0H201Z" />
<glyph unicode="&#x174;" glyph-name="Wcircumflex" horiz-adv-x="544" d="M222 703L228 758L303 811H353L422 758L416 703L324 733L222 703ZM287 421L178 0H71L50 678H158L165 236H166L270 678H363L379 236H380L478 678H576L418 0H310L288 421H287Z" />
<glyph unicode="&#x175;" glyph-name="wcircumflex" horiz-adv-x="490" d="M177 593L183 648L258 701H308L377 648L371 593L279 623L177 593ZM514 567L368 0H269L252 350L156 0H58L33 567H139L142 227H143L236 567H317L338 227H339L412 567H514Z" />
<glyph unicode="&#x176;" glyph-name="Ycircumflex" horiz-adv-x="379" d="M244 257L217 0H103L131 267L47 678H164L207 419H208L304 678H414L244 257ZM136 703L142 758L217 811H267L336 758L330 703L238 733L136 703Z" />
<glyph unicode="&#x177;" glyph-name="ycircumflex" horiz-adv-x="338" d="M365 567L191 -1Q176 -51 146 -70T66 -90H12L21 -2H60Q77 -2 84 5T99 33L105 51H82L31 567H140L162 214H163L262 567H365ZM361 593L367 648L442 701H492L561 648L555 593L463 623L361 593Z" />
<glyph unicode="&#x178;" glyph-name="Ydieresis" horiz-adv-x="379" d="M136 788H233L224 702H127L136 788ZM257 788H354L345 702H248L257 788ZM244 257L217 0H103L131 267L47 678H164L207 419H208L304 678H414L244 257Z" />
<glyph unicode="&#x179;" glyph-name="Zacute" horiz-adv-x="336" d="M571 725L390 703L397 768L580 805L571 725ZM117 93H288L279 0H-13L-4 93L225 585H66L76 678H357L347 585L117 93Z" />
<glyph unicode="&#x17a;" glyph-name="zacute" horiz-adv-x="301" d="M545 615L364 593L371 658L554 695L545 615ZM108 88H257L248 0H-15L-6 88L190 479H52L61 567H313L304 479L108 88Z" />
<glyph unicode="&#x17b;" glyph-name="Zdotaccent" horiz-adv-x="336" d="M117 93H288L279 0H-13L-4 93L225 585H66L76 678H357L347 585L117 93ZM430 788H540L531 702H421L430 788Z" />
<glyph unicode="&#x17c;" glyph-name="zdotaccent" horiz-adv-x="301" d="M108 88H257L248 0H-15L-6 88L190 479H52L61 567H313L304 479L108 88ZM404 678H514L505 592H395L404 678Z" />
<glyph unicode="&#x17d;" glyph-name="Zcaron" horiz-adv-x="336" d="M117 93H288L279 0H-13L-4 93L225 585H66L76 678H357L347 585L117 93ZM583 810L577 755L502 702H452L383 755L389 810L481 780L583 810Z" />
<glyph unicode="&#x17e;" glyph-name="zcaron" horiz-adv-x="301" d="M557 700L551 645L476 592H426L357 645L363 700L455 670L557 700ZM108 88H257L248 0H-15L-6 88L190 479H52L61 567H313L304 479L108 88Z" />
<glyph unicode="&#x192;" glyph-name="florin" horiz-adv-x="256" d="M27 437H81L103 586Q111 636 137 657T221 678H279L270 594H237Q223 594 219 588T212 571L192 437H257L249 353H179L114 -90H4L69 353H19L27 437Z" />
<glyph unicode="&#x218;" glyph-name="Scommaaccent" horiz-adv-x="366" d="M199 -30L164 -90H96L107 -21H199V-30ZM158 -8Q114 -8 83 4T34 38T8 89T4 151L13 237H119L110 144Q107 115 119 100T162 84Q189 84 201 99T216 141L219 169Q222 198 213 219T180 268L119
339Q96 366 81 389T57 434T45 480T45 529L47 549Q50 578 61 603T92 646T141 675T211 686Q300 686 335 640T363 515L359 477H255L260 525Q264 560 250 577T210 594Q159 594 153 539L152 529Q149 500 161 478T198 427L263 351Q284 327 298 306T321 263T332 217T332
163L329 134Q322 69 282 31T158 -8Z" />
<glyph unicode="&#x219;" glyph-name="scommaaccent" horiz-adv-x="337" d="M187 -30L152 -90H84L95 -21H187V-30ZM303 133Q296 64 258 28T145 -8Q63 -8 28 33T1 149L7 206H106L99 140Q93 83 146 83Q172 83 184 93T199 130L201 148Q203 169 192 187T145 236L99
277Q63 309 47 344T35 432L36 443Q43 504 80 539T191 575Q274 575 305 536T330 422L327 393H229L233 431Q236 460 225 472T188 484Q142 484 139 441L138 432Q136 412 145 396T183 354L227 315Q248 296 264 279T291 244T304 203T305 152L303 133Z" />
<glyph unicode="&#x21a;" glyph-name="uni021A" horiz-adv-x="328" d="M432 -30L397 -90H329L340 -21H432V-30ZM53 678H356L346 585H252L191 0H76L137 585H43L53 678Z" />
<glyph unicode="&#x21b;" glyph-name="uni021B" horiz-adv-x="246" d="M409 -30L374 -90H306L317 -21H409V-30ZM41 567H82L94 678H203L191 567H260L251 483H182L144 120Q142 103 149 96T175 89H210L201 0H162Q82 0 56 32T37 136L73 483H32L41 567Z" />
<glyph unicode="&#x237;" glyph-name="uni0237" horiz-adv-x="160" d="M164 567L105 -1Q100 -53 72 -71T-13 -90H-43L-35 -15H-29Q-15 -15 -11 -10T-4 9L54 567H164Z" />
<glyph unicode="&#x2c6;" glyph-name="circumflex" horiz-adv-x="400" d="M135 593L141 648L216 701H266L335 648L329 593L237 623L135 593Z" />
<glyph unicode="&#x2c7;" glyph-name="caron" horiz-adv-x="400" d="M340 700L334 645L259 592H209L140 645L146 700L238 670L340 700Z" />
<glyph unicode="&#x2d8;" glyph-name="breve" horiz-adv-x="400" d="M337 684Q332 639 305 616T240 593Q195 593 170 617T145 684H212Q214 661 241 661Q266 661 272 684H337Z" />
<glyph unicode="&#x2d9;" glyph-name="dotaccent" horiz-adv-x="400" d="M186 678H296L287 592H177L186 678Z" />
<glyph unicode="&#x2da;" glyph-name="ring" horiz-adv-x="400" d="M161 666Q161 697 182 719T238 741Q272 741 293 719T314 666Q314 635 293 613T238 591Q204 591 183 613T161 666ZM207 666Q207 652 215 643T238 633Q252 633 260 642T269 666Q269 680 261 689T238
699Q224 699 216 690T207 666Z" />
<glyph unicode="&#x2db;" glyph-name="ogonek" horiz-adv-x="400" d="M216 0Q208 -7 203 -12T197 -25Q197 -33 209 -33H213L207 -90H173Q135 -90 119 -79T103 -49Q103 -29 121 -17T156 0H216Z" />
<glyph unicode="&#x2dc;" glyph-name="tilde" horiz-adv-x="400" d="M128 595Q131 630 148 655T200 680Q225 680 243 672T274 663Q287 663 289 678H345Q342 643 325 618T273 593Q248 593 230 601T199 610Q185 610 184 595H128Z" />
<glyph unicode="&#x2dd;" glyph-name="hungarumlaut" horiz-adv-x="400" d="M280 702L227 595H164L190 702H280ZM389 702L336 595H273L299 702H389Z" />
</font>
</defs>
</svg>
