<?xml version="1.0" standalone="no"?> <!DOCTYPE svg PUBLIC "-//W3C//DTD SVG 1.0//EN" "http://www.w3.org/TR/2001/REC-SVG-20010904/DTD/svg10.dtd" > <svg xmlns="http://www.w3.org/2000/svg" width="100%" height="100%">
<defs >
<font horiz-adv-x="324" ><font-face
    font-family=""
    units-per-em="1000"
    panose-1="2 11 4 3 3 2 2 4 2 4"
    ascent="698"
    descent="-90"
    alphabetic="0" />
<missing-glyph horiz-adv-x="625" />
<glyph unicode=" " glyph-name="space" horiz-adv-x="125" />
<glyph unicode="!" glyph-name="exclam" horiz-adv-x="108" d="M34 48H75V0H34V48ZM33 678H76L67 105H41L33 678Z" />
<glyph unicode="&quot;" glyph-name="quotedbl" horiz-adv-x="164" d="M61 569H33L28 678H67L61 569ZM130 569H103L97 678H136L130 569Z" />
<glyph unicode="#" glyph-name="numbersign" horiz-adv-x="309" d="M181 243H105L80 0H47L72 243H17V277H76L92 428H35V462H95L118 678H151L128 462H204L227 678H260L237 462H292V428H234L218 277H274V243H214L189 0H156L181 243ZM109 277H185L201 428H125L109 277Z" />
<glyph unicode="$" glyph-name="dollar" horiz-adv-x="326" d="M179 682Q293 673 293 556V477H255V558Q255 600 236 621T179 648V366L212 334Q235 311 252 293T280 255T297 216T303 168V129Q303 75 272 37T177 -4V-50H146V-4Q84 1 54 36T24 128V237H62V128Q62
86 83 60T146 29V344L119 371Q95 394 78 412T50 449T33 487T27 533V560Q27 614 59 646T148 682V718H179V682ZM177 314V28Q220 32 241 60T262 127V165Q262 206 245 236T187 304L177 314ZM66 534Q66 494 86 466T144 401L148 397V649Q111 646 89 624T66 560V534Z"
/>
<glyph unicode="%" glyph-name="percent" horiz-adv-x="446" d="M374 678H408L71 0H37L374 678ZM319 -4Q262 -4 238 28T213 118V163Q213 220 237 252T319 285Q376 285 400 253T424 163V118Q424 61 400 29T319 -4ZM319 27Q357 27 371 50T386 114V167Q386 207 372
230T319 254Q281 254 267 231T252 167V114Q252 74 266 51T319 27ZM127 393Q70 393 46 425T21 515V560Q21 617 45 649T127 682Q184 682 208 650T232 560V515Q232 458 208 426T127 393ZM127 424Q165 424 179 447T194 511V564Q194 604 180 627T127 651Q89 651 75 628T60
564V511Q60 471 74 448T127 424Z" />
<glyph unicode="&amp;" glyph-name="ampersand" horiz-adv-x="360" d="M156 -5Q88 -5 58 33T27 143V244Q27 298 51 326T111 362Q79 371 60 398T40 473V542Q40 614 72 648T168 683Q235 683 264 652T294 547V488H254V548Q254 604 235 626T170 649Q126 649 103 625T79
542V468Q79 426 101 402T169 378H346V344H303V0H268V60Q257 31 232 13T156 -5ZM164 29Q219 29 241 59T266 136V344H166Q118 344 93 320T68 248V143Q68 87 90 58T164 29Z" />
<glyph unicode="&apos;" glyph-name="quotesingle" horiz-adv-x="94" d="M61 569H33L28 678H67L61 569Z" />
<glyph unicode="(" glyph-name="parenleft" horiz-adv-x="182" d="M38 524Q38 569 47 599T72 650T112 682T162 698V666Q140 661 124 651T97 625T81 584T75 525V83Q75 14 96 -17T162 -58V-90Q135 -85 112 -74T73 -43T47 7T38 83V524Z" />
<glyph unicode=")" glyph-name="parenright" horiz-adv-x="182" d="M144 83Q144 38 135 8T110 -43T70 -74T20 -90V-58Q63 -48 85 -17T107 83V525Q107 559 102 583T85 624T58 651T20 666V698Q47 693 70 682T109 651T135 600T144 524V83Z" />
<glyph unicode="*" glyph-name="asterisk" horiz-adv-x="217" d="M109 569L71 504L42 525L93 582L19 598L30 632L98 600L90 678H127L119 600L187 632L198 598L123 582L175 525L146 504L109 569Z" />
<glyph unicode="+" glyph-name="plus" horiz-adv-x="344" d="M23 351H155V500H190V351H321V319H190V171H155V319H23V351Z" />
<glyph unicode="," glyph-name="comma" horiz-adv-x="109" d="M78 45L51 -72H21L36 48H78V45Z" />
<glyph unicode="-" glyph-name="hyphen" horiz-adv-x="166" d="M19 332H147V298H19V332Z" />
<glyph unicode="." glyph-name="period" horiz-adv-x="109" d="M34 48H75V0H34V48Z" />
<glyph unicode="/" glyph-name="slash" horiz-adv-x="192" d="M182 698L37 -90H2L147 698H182Z" />
<glyph unicode="0" glyph-name="zero" horiz-adv-x="351" d="M175 29Q230 29 256 65T282 152V526Q282 578 256 613T175 649Q121 649 96 614T70 526V152Q70 101 95 65T175 29ZM175 -5Q137 -5 110 7T64 42T38 93T29 157V521Q29 555 37 584T64 636T109 670T175 683Q213
683 241 671T287 636T314 585T323 521V157Q323 123 314 94T287 42T241 8T175 -5Z" />
<glyph unicode="1" glyph-name="one" horiz-adv-x="188" d="M97 617H96L17 523H16V568L106 678H137V0H97V617Z" />
<glyph unicode="2" glyph-name="two" horiz-adv-x="320" d="M27 106Q27 134 32 155T47 196T72 235T109 277L183 359Q214 393 232 425T250 496V556Q250 607 226 628T161 649Q120 649 95 626T70 549V471H29V548Q29 616 64 649T162 683Q225 683 258 653T291 556V492Q291
451 272 415T214 336L134 248Q117 229 105 215T84 185T72 151T67 106V34H291V0H27V106Z" />
<glyph unicode="3" glyph-name="three" horiz-adv-x="335" d="M171 683Q236 683 268 650T300 544V471Q300 423 277 397T218 362Q257 354 282 326T307 244V136Q307 70 275 33T167 -5Q93 -5 59 31T25 138V226H66V135Q66 80 90 55T167 29Q220 29 243 56T266 136V247Q266
295 241 319T168 344H129V377H167Q213 377 237 401T261 467V544Q261 601 238 625T169 649Q121 649 97 624T73 550V482H33V548Q33 612 67 647T171 683Z" />
<glyph unicode="4" glyph-name="four" horiz-adv-x="336" d="M9 176L222 678H266V182H319V149H266V0H226V149H9V176ZM48 182H226V602H225L48 182Z" />
<glyph unicode="5" glyph-name="five" horiz-adv-x="333" d="M177 452Q201 452 224 445T265 422T294 377T305 307V142Q305 72 274 34T167 -5Q94 -5 61 33T27 142V222H67V139Q67 29 167 29Q221 29 242 58T264 142V307Q264 340 256 361T234 395T203 413T166 418Q148
418 131 413T100 395T78 363T69 315V304H31V678H292V644H68V387H69Q83 419 112 435T177 452Z" />
<glyph unicode="6" glyph-name="six" horiz-adv-x="342" d="M172 -5Q103 -5 66 37T29 158V524Q29 604 67 643T172 683Q238 683 271 648T305 536V489H266V539Q266 598 242 623T173 649Q127 649 99 621T70 530V356H71Q82 384 110 405T183 426Q247 426 281 389T316
272V150Q316 71 280 33T172 -5ZM172 29Q221 29 248 56T275 148V274Q275 337 250 364T174 392Q153 392 135 385T102 363T79 327T70 276V152Q70 90 96 60T172 29Z" />
<glyph unicode="7" glyph-name="seven" horiz-adv-x="290" d="M15 678H267V604L106 0H65L228 608V645H15V678Z" />
<glyph unicode="8" glyph-name="eight" horiz-adv-x="349" d="M174 -5Q97 -5 62 38T27 147V238Q27 289 48 325T115 377Q74 391 58 425T41 504V541Q41 607 73 645T174 683Q243 683 275 645T307 541V504Q307 459 291 425T232 377Q279 363 300 326T322 238V147Q322
81 287 38T174 -5ZM174 29Q230 29 255 62T281 145V244Q281 269 275 290T256 326T223 350T174 359Q118 359 93 327T68 244V145Q68 95 93 62T174 29ZM174 393Q229 393 248 424T268 502V541Q268 591 247 620T174 649Q123 649 102 620T80 541V502Q80 479 84 459T99
425T128 402T174 393Z" />
<glyph unicode="9" glyph-name="nine" horiz-adv-x="342" d="M170 683Q240 683 277 641T314 520V152Q314 69 276 32T171 -5Q105 -5 70 30T34 142V189H73V139Q73 80 98 55T170 29Q216 29 244 55T273 147V322H272Q260 295 232 274T156 252Q95 252 61 289T27 406V528Q27
683 170 683ZM170 649Q121 649 94 621T67 530V404Q67 341 93 314T168 286Q189 286 208 293T241 315T264 351T273 402V526Q273 587 246 618T170 649Z" />
<glyph unicode=":" glyph-name="colon" horiz-adv-x="109" d="M34 48H75V0H34V48ZM34 317H75V269H34V317Z" />
<glyph unicode=";" glyph-name="semicolon" horiz-adv-x="109" d="M36 48H78V45L51 -72H21L36 48ZM36 317H77V269H36V317Z" />
<glyph unicode="&lt;" glyph-name="less" horiz-adv-x="310" d="M14 340L287 474V438L61 330L287 223V186L14 320V340Z" />
<glyph unicode="=" glyph-name="equal" horiz-adv-x="356" d="M24 291H332V261H24V291ZM24 389H332V359H24V389Z" />
<glyph unicode="&gt;" glyph-name="greater" horiz-adv-x="310" d="M23 186V223L249 330L23 438V474L296 340V320L23 186Z" />
<glyph unicode="?" glyph-name="question" horiz-adv-x="308" d="M117 105V202Q117 227 119 243T126 274T140 301T161 333L205 397Q224 425 231 446T239 497V547Q239 601 218 625T154 649Q111 649 87 626T63 552V478H23V552Q23 619 57 651T154 683Q216 683 248
650T280 546V496Q280 461 270 436T236 377L193 313Q183 298 176 287T164 263T157 237T154 202V105H117ZM115 48H156V0H115V48Z" />
<glyph unicode="@" glyph-name="at" horiz-adv-x="499" d="M396 35Q363 35 347 50T327 92H326Q314 66 294 51T239 35Q194 35 166 61T138 150V426Q138 490 167 517T241 544Q277 544 295 530T323 497H324V539H359V109Q359 81 369 72T400 62Q417 62 427 73T437 113V493Q437
537 424 568T386 620T327 649T251 658Q211 658 177 648T117 616T76 561T61 483V123Q61 34 111 -15T259 -65H414V-90H259Q149 -90 91 -34T33 123V483Q33 533 50 570T98 633T167 670T251 683Q296 683 335 672T403 638T449 579T466 493V115Q466 35 396 35ZM177 150Q177
65 248 65Q279 65 299 85T320 148V428Q320 473 300 493T250 513Q215 513 196 492T177 426V150Z" />
<glyph unicode="A" glyph-name="A" horiz-adv-x="347" d="M11 0L147 678H198L336 0H295L260 177H85L50 0H11ZM91 211H253L172 616H171L91 211Z" />
<glyph unicode="B" glyph-name="B" horiz-adv-x="321" d="M30 678H152Q221 678 251 647T282 557V458Q282 416 265 389T210 353Q300 339 300 245V121Q300 62 269 31T169 0H30V678ZM165 34Q213 34 236 56T260 121V249Q260 291 237 312T163 334H71V34H165ZM71 644V367H152Q197
367 220 389T243 454V557Q243 644 149 644H71Z" />
<glyph unicode="C" glyph-name="C" horiz-adv-x="338" d="M175 -5Q136 -5 108 8T63 43T37 96T29 160V518Q29 552 37 582T62 634T108 670T175 683Q216 683 242 672T285 642T307 594T313 531V451H272V534Q272 561 268 582T253 618T224 641T175 649Q146 649 127 639T94
612T76 572T70 524V154Q70 129 75 107T94 67T126 39T175 29Q205 29 224 37T254 61T269 98T273 144V263H313V147Q313 114 307 87T285 39T242 7T175 -5Z" />
<glyph unicode="D" glyph-name="D" horiz-adv-x="345" d="M71 34H158Q190 34 212 44T249 71T269 110T276 158V520Q276 545 270 568T249 607T213 634T158 644H71V34ZM163 678Q205 678 234 665T282 630T308 578T317 514V164Q317 131 309 101T282 49T235 13T163 0H30V678H163Z"
/>
<glyph unicode="E" glyph-name="E" horiz-adv-x="297" d="M30 678H273V644H71V362H218V328H71V34H273V0H30V678Z" />
<glyph unicode="F" glyph-name="F" horiz-adv-x="279" d="M30 678H265V644H71V362H218V328H71V0H30V678Z" />
<glyph unicode="G" glyph-name="G" horiz-adv-x="350" d="M184 339H317V0H282V65Q272 36 247 16T171 -5Q133 -5 106 8T62 43T37 96T29 160V518Q29 552 37 582T63 634T109 670T176 683Q217 683 244 672T288 642T310 594T317 531V471H277V534Q277 561 273 582T257
618T227 641T177 649Q148 649 128 639T95 612T76 572T70 524V154Q70 129 75 107T94 67T126 39T175 29Q232 29 253 61T276 142V305H184V339Z" />
<glyph unicode="H" glyph-name="H" horiz-adv-x="341" d="M269 328H71V0H30V678H71V362H269V678H310V0H269V328Z" />
<glyph unicode="I" glyph-name="I" horiz-adv-x="102" d="M30 678H71V0H30V678Z" />
<glyph unicode="J" glyph-name="J" horiz-adv-x="297" d="M269 678V129Q269 66 240 31T144 -5Q78 -5 50 30T22 125V263H62V125Q62 81 81 55T144 29Q189 29 208 55T228 125V678H269Z" />
<glyph unicode="K" glyph-name="K" horiz-adv-x="317" d="M71 341V0H30V678H71V354L268 678H311L112 351L312 0H269L71 341Z" />
<glyph unicode="L" glyph-name="L" horiz-adv-x="263" d="M30 678H71V34H251V0H30V678Z" />
<glyph unicode="M" glyph-name="M" horiz-adv-x="423" d="M351 599H347L222 0H195L70 599H67V0H30V678H90L208 110H209L328 678H392V0H351V599Z" />
<glyph unicode="N" glyph-name="N" horiz-adv-x="336" d="M67 589V0H30V678H75L269 106V678H305V0H265L67 589Z" />
<glyph unicode="O" glyph-name="O" horiz-adv-x="357" d="M178 29Q207 29 227 39T261 66T281 106T287 154V524Q287 549 281 572T262 612T228 639T178 649Q149 649 129 639T96 612T76 572T70 524V154Q70 129 76 107T95 67T129 39T178 29ZM178 -5Q139 -5 111 8T64
43T38 96T29 160V518Q29 552 37 582T64 634T110 670T178 683Q218 683 246 670T293 635T319 582T328 518V160Q328 126 320 96T293 44T247 8T178 -5Z" />
<glyph unicode="P" glyph-name="P" horiz-adv-x="312" d="M30 678H157Q226 678 257 647T289 556V374Q289 316 258 284T157 251H71V0H30V678ZM71 644V284H153Q248 284 248 372V557Q248 644 153 644H71Z" />
<glyph unicode="Q" glyph-name="Q" horiz-adv-x="357" d="M152 -21V-2Q120 2 97 16T58 52T36 101T29 160V518Q29 552 37 582T64 634T110 670T178 683Q218 683 246 670T293 635T319 582T328 518V160Q328 99 300 54T210 -1L336 -29V-61L152 -21ZM178 29Q207 29 227
39T261 65T281 104T287 152V524Q287 549 281 572T262 612T228 639T178 649Q149 649 129 639T96 612T76 572T70 524V152Q70 127 76 105T95 66T129 39T178 29Z" />
<glyph unicode="R" glyph-name="R" horiz-adv-x="314" d="M71 343V0H30V678H156Q224 678 256 647T288 556V450Q288 392 256 359T154 326H124L309 0H264L71 343ZM71 644V360H152Q200 360 223 382T246 447V557Q246 644 152 644H71Z" />
<glyph unicode="S" glyph-name="S" horiz-adv-x="325" d="M164 -5Q92 -5 58 31T23 128V237H62V128Q62 82 87 56T164 29Q214 29 237 57T261 127V165Q261 206 244 235T187 302L118 369Q95 392 78 411T49 448T32 487T26 533V560Q26 617 61 650T158 683Q292 683 292
556V477H253V558Q253 606 230 627T158 649Q116 649 91 627T65 560V534Q65 514 70 498T86 467T110 437T143 403L212 336Q234 313 251 294T279 256T295 216T301 168V129Q301 101 293 77T268 34T225 6T164 -5Z" />
<glyph unicode="T" glyph-name="T" horiz-adv-x="299" d="M13 678H286V644H170V0H129V644H13V678Z" />
<glyph unicode="U" glyph-name="U" horiz-adv-x="342" d="M313 678V151Q313 117 306 89T282 39T238 7T172 -5Q132 -5 105 6T61 39T37 88T29 151V678H70V148Q70 123 75 101T92 63T123 38T172 29Q200 29 219 38T251 63T268 101T274 148V678H313Z" />
<glyph unicode="V" glyph-name="V" horiz-adv-x="337" d="M326 678L193 0H146L11 678H52L170 72H171L287 678H326Z" />
<glyph unicode="W" glyph-name="W" horiz-adv-x="492" d="M245 566L153 0H107L13 678H53L133 92H134L228 678H266L360 94H361L440 678H478L384 0H338L246 566H245Z" />
<glyph unicode="X" glyph-name="X" horiz-adv-x="336" d="M139 359L26 678H69L168 394L267 678H307L194 357L321 0H278L165 321L55 0H15L139 359Z" />
<glyph unicode="Y" glyph-name="Y" horiz-adv-x="314" d="M178 258V0H137V258L9 678H50L159 317H160L266 678H306L178 258Z" />
<glyph unicode="Z" glyph-name="Z" horiz-adv-x="302" d="M61 34H275V0H18V34L238 644H39V678H283V644L61 34Z" />
<glyph unicode="[" glyph-name="bracketleft" horiz-adv-x="174" d="M41 698H154V668H77V-60H154V-90H41V698Z" />
<glyph unicode="\" glyph-name="backslash" horiz-adv-x="192" d="M10 698H45L190 -90H155L10 698Z" />
<glyph unicode="]" glyph-name="bracketright" horiz-adv-x="174" d="M20 -60H97V668H20V698H134V-90H20V-60Z" />
<glyph unicode="^" glyph-name="asciicircum" horiz-adv-x="247" d="M115 678H132L228 500H190L123 627L55 500H19L115 678Z" />
<glyph unicode="_" glyph-name="underscore" horiz-adv-x="248" d="M-2 -60H250V-90H-2V-60Z" />
<glyph unicode="`" glyph-name="grave" horiz-adv-x="400" d="M123 677L274 620V593L123 645V677Z" />
<glyph unicode="a" glyph-name="a" horiz-adv-x="311" d="M244 0V58H242Q231 33 206 14T139 -5Q83 -5 53 26T23 126V173Q23 206 31 228T55 265T92 292T141 316Q200 342 222 359T244 397V440Q244 487 227 513T164 539Q119 539 98 516T76 447V393H38V445Q38 505
69 538T165 572Q230 572 256 537T283 437V0H244ZM148 28Q188 28 216 53T244 127V344Q240 339 235 334T219 321T192 305T149 284Q128 274 112 265T84 243T68 214T62 172V127Q62 28 148 28Z" />
<glyph unicode="b" glyph-name="b" horiz-adv-x="325" d="M30 678H70V504H71Q83 531 109 551T181 572Q237 572 267 541T297 440V127Q297 58 266 27T177 -5Q132 -5 108 14T71 59H70V0H30V678ZM257 438Q257 539 167 539Q128 539 100 514T70 441V124Q72 76 99 52T166
28Q257 28 257 129V438Z" />
<glyph unicode="c" glyph-name="c" horiz-adv-x="315" d="M292 188V135Q292 66 261 31T164 -5Q98 -5 63 33T28 141V427Q28 496 63 534T163 572Q292 572 292 434V393H253V436Q253 487 232 513T163 539Q117 539 92 511T67 432V137Q67 86 91 57T164 28Q212 28 233
53T254 132V188H292Z" />
<glyph unicode="d" glyph-name="d" horiz-adv-x="325" d="M295 0H255V61H254Q243 36 218 16T149 -5Q92 -5 61 26T29 127V440Q29 509 62 540T150 572Q195 572 218 553T254 508H255V678H295V0ZM68 129Q68 28 158 28Q199 28 226 53T255 126V436Q255 486 228 512T160
539Q115 539 92 514T68 438V129Z" />
<glyph unicode="e" glyph-name="e" horiz-adv-x="325" d="M297 188V135Q297 66 265 31T166 -5Q99 -5 64 33T28 141V427Q28 496 63 534T163 572Q229 572 263 535T297 429V289H67V137Q67 86 92 57T166 28Q260 28 260 132V188H297ZM67 321H258V432Q258 483 235 511T163
539Q117 539 92 511T67 432V321Z" />
<glyph unicode="f" glyph-name="f" horiz-adv-x="190" d="M13 567H57V602Q57 642 75 660T137 678H177V648H142Q117 648 107 638T96 601V567H177V536H96V0H57V536H13V567Z" />
<glyph unicode="g" glyph-name="g" d="M294 567V37Q294 -23 263 -59T163 -95Q97 -95 64 -63T31 23V51H70V25Q70 -17 92 -39T163 -62Q211 -62 233 -36T255 32V150H253Q242 125 218 105T148 85Q91 85 60 117T28 218V440Q28 509 62 540T149 572Q194 572 217 553T253
508H255V567H294ZM158 119Q200 119 227 145T255 221V436Q255 486 228 512T159 539Q115 539 92 514T68 438V219Q68 119 158 119Z" />
<glyph unicode="h" glyph-name="h" horiz-adv-x="319" d="M251 440Q251 539 165 539Q127 539 100 516T70 444V0H30V678H70V506H71Q83 534 108 553T178 572Q232 572 261 541T291 441V0H251V440Z" />
<glyph unicode="i" glyph-name="i" horiz-adv-x="100" d="M30 567H70V0H30V567ZM30 678H70V638H30V678Z" />
<glyph unicode="j" glyph-name="j" horiz-adv-x="100" d="M70 567V-24Q70 -59 53 -74T-4 -90H-13V-58H-7Q14 -58 22 -50T30 -23V567H70ZM30 678H70V638H30V678Z" />
<glyph unicode="k" glyph-name="k" horiz-adv-x="283" d="M235 0L70 289V0H30V678H70V296L231 567H272L110 297L278 0H235Z" />
<glyph unicode="l" glyph-name="l" horiz-adv-x="100" d="M30 678H70V0H30V678Z" />
<glyph unicode="m" glyph-name="m" horiz-adv-x="507" d="M235 444Q235 490 216 514T157 539Q120 539 95 514T70 442V0H30V567H70V508H71Q82 534 106 553T170 572Q207 572 232 554T268 501H269Q280 531 306 551T374 572Q479 572 479 446V0H440V444Q440 490 421
514T361 539Q326 539 301 513T275 442V0H235V444Z" />
<glyph unicode="n" glyph-name="n" horiz-adv-x="319" d="M251 440Q251 539 165 539Q127 539 100 516T70 444V0H30V567H70V506H71Q83 534 108 553T178 572Q232 572 261 541T291 441V0H251V440Z" />
<glyph unicode="o" glyph-name="o" horiz-adv-x="327" d="M299 141Q299 72 264 34T163 -5Q98 -5 63 33T28 141V426Q28 495 63 533T163 572Q229 572 264 534T299 426V141ZM163 28Q211 28 235 57T260 137V430Q260 481 236 510T163 539Q117 539 92 510T67 430V137Q67
86 92 57T163 28Z" />
<glyph unicode="p" glyph-name="p" horiz-adv-x="325" d="M30 567H70V504H71Q83 531 109 551T181 572Q237 572 267 541T297 440V127Q297 58 266 27T177 -5Q132 -5 107 14T71 59H70V-90H30V567ZM257 438Q257 539 167 539Q128 539 100 514T70 441V124Q72 76 99 52T166
28Q257 28 257 129V438Z" />
<glyph unicode="q" glyph-name="q" horiz-adv-x="325" d="M294 -90H255V61H253Q242 36 218 16T148 -5Q91 -5 60 26T28 127V440Q28 509 62 540T149 572Q194 572 217 553T253 508H255V567H294V-90ZM68 129Q68 28 158 28Q198 28 225 53T255 126V436Q255 486 228 512T159
539Q115 539 92 514T68 438V129Z" />
<glyph unicode="r" glyph-name="r" horiz-adv-x="190" d="M173 527H167Q126 527 99 503T70 432V0H30V567H70V496H72Q82 524 106 546T173 570V527Z" />
<glyph unicode="s" glyph-name="s" horiz-adv-x="306" d="M281 124Q281 63 251 29T151 -5Q86 -5 55 31T24 128V183H61V127Q61 82 82 55T151 28Q200 28 221 52T243 122V140Q243 173 229 197T173 255L110 304Q68 338 48 367T28 439V455Q28 507 57 539T149 572Q214
572 244 540T274 444V400H236V446Q236 493 216 516T149 539Q105 539 85 517T65 457V440Q65 425 68 413T79 388T100 364T133 336L196 287Q221 267 237 251T263 218T277 183T281 143V124Z" />
<glyph unicode="t" glyph-name="t" horiz-adv-x="200" d="M12 567H57V678H96V567H179V536H96V83Q96 55 108 44T149 32H179V0H145Q96 0 77 20T57 85V536H12V567Z" />
<glyph unicode="u" glyph-name="u" horiz-adv-x="319" d="M68 127Q68 28 154 28Q192 28 220 53T249 127V567H288V0H249V61H248Q235 31 210 13T141 -5Q87 -5 58 26T28 126V567H68V127Z" />
<glyph unicode="v" glyph-name="v" horiz-adv-x="294" d="M291 567L170 0H124L3 567H44L148 73H149L252 567H291Z" />
<glyph unicode="w" glyph-name="w" horiz-adv-x="457" d="M450 567L357 0H316L229 473L141 0H100L6 567H46L123 90H124L212 567H248L336 90H337L413 567H450Z" />
<glyph unicode="x" glyph-name="x" horiz-adv-x="299" d="M290 567L181 297L293 0H252L152 264L46 0H6L125 298L16 567H57L154 327L250 567H290Z" />
<glyph unicode="y" glyph-name="y" horiz-adv-x="294" d="M291 567L151 -11Q146 -33 139 -48T122 -72T95 -86T57 -90H32V-58H56Q85 -58 96 -46T116 -3L132 56H121L3 567H44L146 120H147L252 567H291Z" />
<glyph unicode="z" glyph-name="z" horiz-adv-x="278" d="M61 33H253V0H20V33L216 534H34V567H257V534L61 33Z" />
<glyph unicode="{" glyph-name="braceleft" horiz-adv-x="218" d="M185 -73Q126 -73 102 -45T84 49L100 220Q101 238 100 252T92 277T71 292T33 297H18V328H33Q57 328 71 333T92 349T100 373T100 406L84 577Q78 642 102 670T185 698H198V668H183Q148 668 132 649T121
580L137 410Q140 373 130 348T84 313Q120 304 130 279T137 216L121 45Q116 -5 132 -23T183 -42H198V-73H185Z" />
<glyph unicode="|" glyph-name="bar" horiz-adv-x="103" d="M68 698V-90H34V698H68Z" />
<glyph unicode="}" glyph-name="braceright" horiz-adv-x="218" d="M20 -42H35Q70 -42 86 -24T97 45L81 216Q77 253 87 278T134 313Q98 323 88 348T81 410L97 580Q102 630 86 649T35 668H20V698H33Q92 698 116 670T134 577L118 406Q114 369 125 349T184 328H200V297H184Q137
297 126 277T118 220L134 49Q140 -16 116 -44T33 -73H20V-42Z" />
<glyph unicode="~" glyph-name="asciitilde" horiz-adv-x="240" d="M20 283Q22 312 35 330T74 349Q87 349 99 345T122 335T143 325T163 320Q177 320 182 329T189 352H220Q219 323 206 305T165 286Q152 286 141 290T118 300T97 310T77 315Q63 315 58 306T51 283H20Z" />
<glyph unicode="&#xa1;" glyph-name="exclamdown" horiz-adv-x="108" d="M74 540H33V588H74V540ZM41 483H67L76 -90H33L41 483Z" />
<glyph unicode="&#xa2;" glyph-name="cent" horiz-adv-x="315" d="M292 188V135Q292 69 265 34T178 -4V-50H147V-4Q89 1 59 38T28 141V428Q28 493 59 529T147 571V617H178V571Q292 564 292 434V393H254V437Q254 532 178 539V27Q255 34 255 131V188H292ZM67 136Q67
89 87 61T147 28V539Q109 534 88 507T67 432V136Z" />
<glyph unicode="&#xa3;" glyph-name="sterling" horiz-adv-x="335" d="M13 342H53V540Q53 617 88 650T184 683Q247 683 279 652T311 553V484H271V553Q271 606 248 627T185 649Q144 649 119 626T93 543V342H237V308H93V34H313V0H53V308H13V342Z" />
<glyph unicode="&#xa5;" glyph-name="yen" horiz-adv-x="327" d="M39 286H144V295L15 678H57L164 348H165L272 678H312L185 295V286H288V259H185V226H288V199H185V0H144V199H39V226H144V259H39V286Z" />
<glyph unicode="&#xa6;" glyph-name="brokenbar" horiz-adv-x="101" d="M34 -90V288H66V-90H34ZM66 698V340H34V698H66Z" />
<glyph unicode="&#xa7;" glyph-name="section" horiz-adv-x="359" d="M25 330Q25 371 48 396T105 432V434Q76 457 66 483T56 547V561Q56 618 85 650T178 683Q244 683 274 648T304 553V512H266V554Q266 599 246 624T178 650Q133 650 114 628T94 561V548Q94 533
95 520T102 496T118 474T146 453L252 386Q295 359 314 333T334 263Q334 224 311 199T253 163Q284 139 297 112T310 47V28Q310 -32 280 -63T181 -95Q115 -95 84 -61T53 34V83H90V33Q90 -12 112 -37T181 -62Q231 -62 251 -40T272 29V44Q272 75 260 98T210 146L107
211Q65 237 45 263T25 330ZM63 335Q63 319 66 307T77 285T97 264T128 242L225 182Q257 191 276 211T296 260Q296 293 281 312T230 354L132 415Q100 405 82 386T63 335Z" />
<glyph unicode="&#xa8;" glyph-name="dieresis" horiz-adv-x="400" d="M140 650H178V610H140V650ZM221 650H259V610H221V650Z" />
<glyph unicode="&#xa9;" glyph-name="copyright" horiz-adv-x="393" d="M367 308Q367 267 356 233T324 175T270 136T197 122Q155 122 124 136T70 174T37 233T26 308V374Q26 414 37 448T70 507T123 546T197 560Q238 560 270 546T323 508T356 449T367 374V308ZM346
374Q346 411 337 442T309 495T262 530T197 543Q159 543 131 531T84 496T56 442T46 374V308Q46 271 55 240T83 187T130 152T197 139Q234 139 262 151T308 186T336 240T346 308V374ZM275 312V283Q275 245 257 223T196 200Q153 200 134 225T115 290V395Q115 436 134
460T196 484Q239 484 257 463T275 402V383H244V405Q244 431 234 445T196 459Q168 459 157 443T146 399V286Q146 259 157 242T196 225Q223 225 234 240T245 281V312H275Z" />
<glyph unicode="&#xaa;" glyph-name="ordfeminine" horiz-adv-x="289" d="M225 198V251H224Q213 227 192 210T130 193Q79 193 51 220T23 310V333Q23 362 31 381T54 415T89 441T133 463Q186 488 205 505T225 541V567Q225 605 211 629T152 653Q109 653 91 632T72
573V528H37V571Q37 624 64 654T153 684Q215 684 238 653T262 565V198H225ZM140 223Q178 223 201 247T225 320V492Q222 487 217 482T203 470T179 454T141 434Q121 425 106 416T81 396T65 369T59 332V312Q59 267 77 245T140 223Z" />
<glyph unicode="&#xab;" glyph-name="guillemotleft" horiz-adv-x="222" d="M121 378L59 232L121 86H86L24 232L86 378H121ZM198 378L136 232L198 86H163L101 232L163 378H198Z" />
<glyph unicode="&#xae;" glyph-name="registered" horiz-adv-x="393" d="M367 431Q367 390 356 356T324 297T270 258T197 244Q155 244 124 258T70 297T37 356T26 431V497Q26 537 37 571T70 630T123 669T197 683Q238 683 270 669T323 630T356 571T367 497V431ZM46
431Q46 394 55 363T83 310T130 275T197 262Q234 262 262 274T308 309T336 363T346 431V497Q346 534 337 565T309 618T262 653T197 666Q159 666 131 654T84 619T56 565T46 497V431ZM162 466V330H133V605H203Q238 605 253 590T269 544V517Q269 483 253 470T203 457H198L277
330H246L162 466ZM162 581V477H200Q223 477 231 486T240 514V544Q240 561 232 571T200 581H162Z" />
<glyph unicode="&#xaf;" glyph-name="macron" horiz-adv-x="400" d="M123 640H277V613H123V640Z" />
<glyph unicode="&#xb0;" glyph-name="degree" horiz-adv-x="177" d="M18 612Q18 642 38 662T88 683Q119 683 139 663T159 612Q159 583 139 563T88 543Q58 543 38 563T18 612ZM46 612Q46 593 58 581T88 569Q107 569 119 581T131 612Q131 632 119 644T88 657Q70
657 58 645T46 612Z" />
<glyph unicode="&#xb2;" glyph-name="twosuperior" horiz-adv-x="208" d="M26 420Q26 437 28 449T35 470T49 488T71 507L115 541Q132 555 140 566T148 594V612Q148 655 104 655Q84 655 71 644T57 608V577H28V608Q28 643 48 662T104 681Q180 681 180 611V593Q180
573 170 557T137 522L90 485Q70 469 64 458T57 423V415H176V389H26V420Z" />
<glyph unicode="&#xb3;" glyph-name="threesuperior" horiz-adv-x="211" d="M104 386Q62 386 44 405T26 459V487H56V457Q56 411 104 411Q130 411 140 422T151 455V491Q151 510 143 520T111 530H83V554H109Q133 554 140 566T148 593V615Q148 657 103 657Q78 657
69 645T59 612V594H29V611Q29 640 45 661T104 682Q144 682 161 665T179 615V594Q179 577 171 563T143 543Q166 538 174 525T183 491V456Q183 424 166 405T104 386Z" />
<glyph unicode="&#xb4;" glyph-name="acute" horiz-adv-x="400" d="M277 645L126 593V620L277 677V645Z" />
<glyph unicode="&#xb6;" glyph-name="paragraph" horiz-adv-x="322" d="M177 0V297H144Q84 297 54 325T23 406V569Q23 622 53 650T144 678H291V0H258V647H210V0H177Z" />
<glyph unicode="&#xb7;" glyph-name="periodcentered" horiz-adv-x="109" d="M34 366H75V318H34V366Z" />
<glyph unicode="&#xb8;" glyph-name="cedilla" horiz-adv-x="400" d="M127 -75Q180 -75 180 -55Q180 -40 152 -40H143V0H164V-22Q211 -24 211 -55Q211 -93 127 -93V-75Z" />
<glyph unicode="&#xb9;" glyph-name="onesuperior" horiz-adv-x="145" d="M102 678V390H68V635H67L18 583H17V617L74 678H102Z" />
<glyph unicode="&#xba;" glyph-name="ordmasculine" horiz-adv-x="298" d="M271 329Q271 265 240 229T149 193Q89 193 58 229T27 329V547Q27 612 58 648T149 684Q209 684 240 648T271 547V329ZM149 223Q192 223 213 250T235 326V551Q235 599 214 626T149 653Q106
653 85 626T63 551V326Q63 277 84 250T149 223Z" />
<glyph unicode="&#xbb;" glyph-name="guillemotright" horiz-adv-x="222" d="M86 232L24 378H59L121 232L59 86H24L86 232ZM163 232L101 378H136L198 232L136 86H101L163 232Z" />
<glyph unicode="&#xbc;" glyph-name="onequarter" horiz-adv-x="248" d="M23 351H227V329H23V351ZM143 678V390H109V635H108L59 583H58V617L115 678H143ZM27 75L138 289H173V79H202V55H173V0H140V55H27V75ZM58 79H140V240H139L58 79Z" />
<glyph unicode="&#xbd;" glyph-name="onehalf" horiz-adv-x="247" d="M21 351H226V329H21V351ZM141 678V390H107V635H106L57 583H56V617L113 678H141ZM49 32Q49 49 51 61T58 82T71 100T93 119L137 153Q155 167 163 178T171 206V223Q171 266 127 266Q107 266 94
255T80 219V188H50V219Q50 254 70 273T127 293Q202 293 202 222V204Q202 184 193 168T160 133L113 97Q92 81 86 69T80 34V26H199V0H49V32Z" />
<glyph unicode="&#xbe;" glyph-name="threequarters" horiz-adv-x="253" d="M21 351H223V329H21V351ZM29 75L139 289H174V79H203V55H174V0H142V55H29V75ZM142 79V240H141L59 79H142ZM73 487V457Q73 411 122 411Q148 411 158 422T169 455V491Q169 510 161 520T128
530H100V554H126Q150 554 158 566T166 593V615Q166 657 121 657Q95 657 86 645T76 612V594H46V611Q46 640 62 661T121 682Q161 682 178 665T196 615V594Q196 577 188 563T160 543Q183 538 191 525T200 491V456Q200 424 183 405T122 386Q80 386 62 405T43 459V487H73Z"
/>
<glyph unicode="&#xbf;" glyph-name="questiondown" horiz-adv-x="308" d="M190 483V386Q190 361 188 345T181 314T168 287T146 255L103 191Q93 177 87 165T76 142T70 118T68 91V41Q68 -13 89 -37T154 -61Q197 -61 221 -38T245 36V110H284V36Q284 -31 250 -63T153
-95Q91 -95 60 -62T28 42V92Q28 127 38 152T71 211L115 275Q125 290 132 301T144 324T151 350T153 386V483H190ZM192 540H151V588H192V540Z" />
<glyph unicode="&#xc0;" glyph-name="Agrave" horiz-adv-x="347" d="M11 0L147 678H198L336 0H295L260 177H85L50 0H11ZM91 211H253L172 616H171L91 211ZM348 783L499 726V699L348 751V783Z" />
<glyph unicode="&#xc1;" glyph-name="Aacute" horiz-adv-x="347" d="M11 0L147 678H198L336 0H295L260 177H85L50 0H11ZM91 211H253L172 616H171L91 211ZM512 751L361 699V726L512 783V751Z" />
<glyph unicode="&#xc2;" glyph-name="Acircumflex" horiz-adv-x="347" d="M11 0L147 678H198L336 0H295L260 177H85L50 0H11ZM91 211H253L172 616H171L91 211ZM345 700V727L419 791H438L511 727V700L429 758L345 700Z" />
<glyph unicode="&#xc3;" glyph-name="Atilde" horiz-adv-x="347" d="M11 0L147 678H198L336 0H295L260 177H85L50 0H11ZM91 211H253L172 616H171L91 211ZM464 718Q453 718 444 722T425 731T408 740T391 744Q378 744 373 736T367 715H341Q342 739 354 756T391 773Q403
773 413 769T431 760T448 751T464 747Q477 747 482 756T489 776H515Q514 751 502 735T464 718Z" />
<glyph unicode="&#xc4;" glyph-name="Adieresis" horiz-adv-x="347" d="M11 0L147 678H198L336 0H295L260 177H85L50 0H11ZM91 211H253L172 616H171L91 211ZM369 756H407V716H369V756ZM450 756H488V716H450V756Z" />
<glyph unicode="&#xc5;" glyph-name="Aring" horiz-adv-x="347" d="M11 0L147 678H198L336 0H295L260 177H85L50 0H11ZM91 211H253L172 616H171L91 211ZM369 758Q369 782 385 799T428 817Q454 817 471 800T488 758Q488 733 471 716T428 699Q402 699 386 716T369
758ZM393 758Q393 742 402 731T428 720Q444 720 454 731T464 758Q464 774 454 784T428 795Q412 795 403 785T393 758Z" />
<glyph unicode="&#xc6;" glyph-name="AE" horiz-adv-x="516" d="M8 0L198 678H493V644H298V362H437V328H298V34H493V0H257V177H97L49 0H8ZM107 211H257V644H225L107 211Z" />
<glyph unicode="&#xc7;" glyph-name="Ccedilla" horiz-adv-x="338" d="M133 -75Q186 -75 186 -55Q186 -40 158 -40H149V-4Q117 0 94 14T57 51T36 101T29 160V518Q29 552 37 582T62 634T108 670T175 683Q216 683 242 672T285 642T307 594T313 531V451H272V534Q272
561 268 582T253 618T224 641T175 649Q146 649 127 639T94 612T76 572T70 524V154Q70 129 75 107T94 67T126 39T175 29Q205 29 224 37T254 61T269 98T273 144V263H313V147Q313 114 307 87T285 39T242 7T175 -5H170V-22Q217 -24 217 -55Q217 -93 133 -93V-75Z" />
<glyph unicode="&#xc8;" glyph-name="Egrave" horiz-adv-x="297" d="M30 678H273V644H71V362H218V328H71V34H273V0H30V678ZM336 783L487 726V699L336 751V783Z" />
<glyph unicode="&#xc9;" glyph-name="Eacute" horiz-adv-x="297" d="M499 751L348 699V726L499 783V751ZM30 678H273V644H71V362H218V328H71V34H273V0H30V678Z" />
<glyph unicode="&#xca;" glyph-name="Ecircumflex" horiz-adv-x="297" d="M332 700V727L406 791H425L498 727V700L416 758L332 700ZM30 678H273V644H71V362H218V328H71V34H273V0H30V678Z" />
<glyph unicode="&#xcb;" glyph-name="Edieresis" horiz-adv-x="297" d="M356 756H394V716H356V756ZM437 756H475V716H437V756ZM30 678H273V644H71V362H218V328H71V34H273V0H30V678Z" />
<glyph unicode="&#xcc;" glyph-name="Igrave" horiz-adv-x="102" d="M30 678H71V0H30V678ZM-29 783L122 726V699L-29 751V783Z" />
<glyph unicode="&#xcd;" glyph-name="Iacute" horiz-adv-x="102" d="M30 678H71V0H30V678ZM135 751L-16 699V726L135 783V751Z" />
<glyph unicode="&#xce;" glyph-name="Icircumflex" horiz-adv-x="102" d="M30 678H71V0H30V678ZM-29 701V724L42 792H61L131 724V701L51 761L-29 701Z" />
<glyph unicode="&#xcf;" glyph-name="Idieresis" horiz-adv-x="102" d="M30 678H71V0H30V678ZM-5 756H31V716H-5V756ZM70 756H107V716H70V756Z" />
<glyph unicode="&#xd0;" glyph-name="Eth" horiz-adv-x="354" d="M7 362H39V678H171Q213 678 242 665T290 630T316 578T325 514V164Q325 131 317 101T290 49T243 13T171 0H39V328H7V362ZM80 362H202V328H80V34H167Q199 34 221 44T258 71T278 110T284 158V520Q284
545 278 568T258 607T222 634T167 644H80V362Z" />
<glyph unicode="&#xd1;" glyph-name="Ntilde" horiz-adv-x="336" d="M67 589V0H30V678H75L269 106V678H305V0H265L67 589ZM470 718Q459 718 450 722T431 731T414 740T397 744Q384 744 379 736T373 715H347Q348 739 360 756T397 773Q409 773 419 769T437 760T454
751T470 747Q483 747 488 756T495 776H521Q520 751 508 735T470 718Z" />
<glyph unicode="&#xd2;" glyph-name="Ograve" horiz-adv-x="357" d="M178 29Q207 29 227 39T261 66T281 106T287 154V524Q287 549 281 572T262 612T228 639T178 649Q149 649 129 639T96 612T76 572T70 524V154Q70 129 76 107T95 67T129 39T178 29ZM178 -5Q139
-5 111 8T64 43T38 96T29 160V518Q29 552 37 582T64 634T110 670T178 683Q218 683 246 670T293 635T319 582T328 518V160Q328 126 320 96T293 44T247 8T178 -5ZM359 783L510 726V699L359 751V783Z" />
<glyph unicode="&#xd3;" glyph-name="Oacute" horiz-adv-x="357" d="M524 751L373 699V726L524 783V751ZM178 29Q207 29 227 39T261 66T281 106T287 154V524Q287 549 281 572T262 612T228 639T178 649Q149 649 129 639T96 612T76 572T70 524V154Q70 129 76 107T95
67T129 39T178 29ZM178 -5Q139 -5 111 8T64 43T38 96T29 160V518Q29 552 37 582T64 634T110 670T178 683Q218 683 246 670T293 635T319 582T328 518V160Q328 126 320 96T293 44T247 8T178 -5Z" />
<glyph unicode="&#xd4;" glyph-name="Ocircumflex" horiz-adv-x="357" d="M352 700V727L426 791H445L518 727V700L436 758L352 700ZM178 29Q207 29 227 39T261 66T281 106T287 154V524Q287 549 281 572T262 612T228 639T178 649Q149 649 129 639T96 612T76 572T70
524V154Q70 129 76 107T95 67T129 39T178 29ZM178 -5Q139 -5 111 8T64 43T38 96T29 160V518Q29 552 37 582T64 634T110 670T178 683Q218 683 246 670T293 635T319 582T328 518V160Q328 126 320 96T293 44T247 8T178 -5Z" />
<glyph unicode="&#xd5;" glyph-name="Otilde" horiz-adv-x="357" d="M178 29Q207 29 227 39T261 66T281 106T287 154V524Q287 549 281 572T262 612T228 639T178 649Q149 649 129 639T96 612T76 572T70 524V154Q70 129 76 107T95 67T129 39T178 29ZM178 -5Q139
-5 111 8T64 43T38 96T29 160V518Q29 552 37 582T64 634T110 670T178 683Q218 683 246 670T293 635T319 582T328 518V160Q328 126 320 96T293 44T247 8T178 -5ZM471 718Q460 718 451 722T432 731T415 740T398 744Q385 744 380 736T374 715H348Q349 739 361 756T398
773Q410 773 420 769T438 760T455 751T471 747Q484 747 489 756T496 776H522Q521 751 509 735T471 718Z" />
<glyph unicode="&#xd6;" glyph-name="Odieresis" horiz-adv-x="357" d="M377 756H415V716H377V756ZM458 756H496V716H458V756ZM178 29Q207 29 227 39T261 66T281 106T287 154V524Q287 549 281 572T262 612T228 639T178 649Q149 649 129 639T96 612T76 572T70 524V154Q70
129 76 107T95 67T129 39T178 29ZM178 -5Q139 -5 111 8T64 43T38 96T29 160V518Q29 552 37 582T64 634T110 670T178 683Q218 683 246 670T293 635T319 582T328 518V160Q328 126 320 96T293 44T247 8T178 -5Z" />
<glyph unicode="&#xd7;" glyph-name="multiply" horiz-adv-x="326" d="M32 214L141 332L27 455L50 478L163 356L272 473L295 450L185 332L300 209L277 186L163 308L54 191L32 214Z" />
<glyph unicode="&#xd8;" glyph-name="Oslash" horiz-adv-x="357" d="M178 -5Q128 -5 95 16L82 -29H52L71 35Q49 58 39 90T29 160V518Q29 552 37 582T64 634T110 670T178 683Q227 683 262 661L274 700H305L287 641Q308 618 318 587T328 518V160Q328 126 320 96T293
44T247 8T178 -5ZM70 154Q70 134 73 115T85 80L251 625Q224 649 178 649Q149 649 129 639T96 612T76 572T70 524V154ZM178 29Q207 29 227 39T261 66T281 106T287 154V534Q287 550 284 566T273 596L106 52Q132 29 178 29Z" />
<glyph unicode="&#xd9;" glyph-name="Ugrave" horiz-adv-x="342" d="M313 678V151Q313 117 306 89T282 39T238 7T172 -5Q132 -5 105 6T61 39T37 88T29 151V678H70V148Q70 123 75 101T92 63T123 38T172 29Q200 29 219 38T251 63T268 101T274 148V678H313ZM348 783L499
726V699L348 751V783Z" />
<glyph unicode="&#xda;" glyph-name="Uacute" horiz-adv-x="342" d="M512 751L361 699V726L512 783V751ZM313 678V151Q313 117 306 89T282 39T238 7T172 -5Q132 -5 105 6T61 39T37 88T29 151V678H70V148Q70 123 75 101T92 63T123 38T172 29Q200 29 219 38T251
63T268 101T274 148V678H313Z" />
<glyph unicode="&#xdb;" glyph-name="Ucircumflex" horiz-adv-x="342" d="M345 700V727L419 791H438L511 727V700L429 758L345 700ZM313 678V151Q313 117 306 89T282 39T238 7T172 -5Q132 -5 105 6T61 39T37 88T29 151V678H70V148Q70 123 75 101T92 63T123 38T172
29Q200 29 219 38T251 63T268 101T274 148V678H313Z" />
<glyph unicode="&#xdc;" glyph-name="Udieresis" horiz-adv-x="342" d="M368 756H406V716H368V756ZM449 756H487V716H449V756ZM313 678V151Q313 117 306 89T282 39T238 7T172 -5Q132 -5 105 6T61 39T37 88T29 151V678H70V148Q70 123 75 101T92 63T123 38T172 29Q200
29 219 38T251 63T268 101T274 148V678H313Z" />
<glyph unicode="&#xdd;" glyph-name="Yacute" horiz-adv-x="314" d="M178 258V0H137V258L9 678H50L159 317H160L266 678H306L178 258ZM498 751L347 699V726L498 783V751Z" />
<glyph unicode="&#xde;" glyph-name="Thorn" horiz-adv-x="312" d="M30 678H71V555H157Q226 555 257 523T289 433V270Q289 211 258 179T157 147H71V0H30V678ZM71 521V181H153Q248 181 248 268V434Q248 521 153 521H71Z" />
<glyph unicode="&#xdf;" glyph-name="germandbls" horiz-adv-x="314" d="M70 0H30V560Q30 623 63 653T159 683Q218 683 244 662T270 606Q270 551 218 542Q254 534 270 510T286 438V131Q286 101 280 77T258 36T219 10T160 0H125V33H156Q204 33 225 59T246 131V442Q246
484 229 504T172 525H132V556H171Q203 556 217 567T232 602Q232 626 215 638T159 651Q114 651 92 631T70 562V0Z" />
<glyph unicode="&#xe0;" glyph-name="agrave" horiz-adv-x="311" d="M244 0V58H242Q231 33 206 14T139 -5Q83 -5 53 26T23 126V173Q23 206 31 228T55 265T92 292T141 316Q200 342 222 359T244 397V440Q244 487 227 513T164 539Q119 539 98 516T76 447V393H38V445Q38
505 69 538T165 572Q230 572 256 537T283 437V0H244ZM148 28Q188 28 216 53T244 127V344Q240 339 235 334T219 321T192 305T149 284Q128 274 112 265T84 243T68 214T62 172V127Q62 28 148 28ZM340 677L491 620V593L340 645V677Z" />
<glyph unicode="&#xe1;" glyph-name="aacute" horiz-adv-x="311" d="M244 0V58H242Q231 33 206 14T139 -5Q83 -5 53 26T23 126V173Q23 206 31 228T55 265T92 292T141 316Q200 342 222 359T244 397V440Q244 487 227 513T164 539Q119 539 98 516T76 447V393H38V445Q38
505 69 538T165 572Q230 572 256 537T283 437V0H244ZM148 28Q188 28 216 53T244 127V344Q240 339 235 334T219 321T192 305T149 284Q128 274 112 265T84 243T68 214T62 172V127Q62 28 148 28ZM503 645L352 593V620L503 677V645Z" />
<glyph unicode="&#xe2;" glyph-name="acircumflex" horiz-adv-x="311" d="M244 0V58H242Q231 33 206 14T139 -5Q83 -5 53 26T23 126V173Q23 206 31 228T55 265T92 292T141 316Q200 342 222 359T244 397V440Q244 487 227 513T164 539Q119 539 98 516T76 447V393H38V445Q38
505 69 538T165 572Q230 572 256 537T283 437V0H244ZM148 28Q188 28 216 53T244 127V344Q240 339 235 334T219 321T192 305T149 284Q128 274 112 265T84 243T68 214T62 172V127Q62 28 148 28ZM336 594V621L410 685H429L502 621V594L420 652L336 594Z" />
<glyph unicode="&#xe3;" glyph-name="atilde" horiz-adv-x="311" d="M244 0V58H242Q231 33 206 14T139 -5Q83 -5 53 26T23 126V173Q23 206 31 228T55 265T92 292T141 316Q200 342 222 359T244 397V440Q244 487 227 513T164 539Q119 539 98 516T76 447V393H38V445Q38
505 69 538T165 572Q230 572 256 537T283 437V0H244ZM148 28Q188 28 216 53T244 127V344Q240 339 235 334T219 321T192 305T149 284Q128 274 112 265T84 243T68 214T62 172V127Q62 28 148 28ZM456 612Q445 612 436 616T417 625T400 634T383 638Q370 638 365 630T359
609H333Q334 633 346 650T383 667Q395 667 405 663T423 654T440 645T456 641Q469 641 474 650T481 670H507Q506 645 494 629T456 612Z" />
<glyph unicode="&#xe4;" glyph-name="adieresis" horiz-adv-x="311" d="M244 0V58H242Q231 33 206 14T139 -5Q83 -5 53 26T23 126V173Q23 206 31 228T55 265T92 292T141 316Q200 342 222 359T244 397V440Q244 487 227 513T164 539Q119 539 98 516T76 447V393H38V445Q38
505 69 538T165 572Q230 572 256 537T283 437V0H244ZM148 28Q188 28 216 53T244 127V344Q240 339 235 334T219 321T192 305T149 284Q128 274 112 265T84 243T68 214T62 172V127Q62 28 148 28ZM360 650H398V610H360V650ZM441 650H479V610H441V650Z" />
<glyph unicode="&#xe5;" glyph-name="aring" horiz-adv-x="311" d="M244 0V58H242Q231 33 206 14T139 -5Q83 -5 53 26T23 126V173Q23 206 31 228T55 265T92 292T141 316Q200 342 222 359T244 397V440Q244 487 227 513T164 539Q119 539 98 516T76 447V393H38V445Q38
505 69 538T165 572Q230 572 256 537T283 437V0H244ZM148 28Q188 28 216 53T244 127V344Q240 339 235 334T219 321T192 305T149 284Q128 274 112 265T84 243T68 214T62 172V127Q62 28 148 28ZM360 651Q360 675 376 692T419 710Q445 710 462 693T479 651Q479 626
462 609T419 592Q393 592 377 609T360 651ZM384 651Q384 635 393 624T419 613Q435 613 445 624T455 651Q455 667 445 677T419 688Q403 688 394 678T384 651Z" />
<glyph unicode="&#xe6;" glyph-name="ae" horiz-adv-x="541" d="M514 188V135Q514 66 481 31T382 -5Q334 -5 306 14T266 71Q253 35 222 15T147 -5Q89 -5 56 26T23 126V186Q23 253 56 286T153 319H251V440Q251 487 233 513T169 539Q124 539 100 516T76 447V393H38V445Q38
505 71 538T168 572Q210 572 235 556T273 508Q304 572 385 572Q450 572 482 535T514 429V287H290V137Q290 86 311 57T382 28Q476 28 476 132V188H514ZM149 27Q191 27 221 51T251 127V287H158Q62 287 62 184V127Q62 27 149 27ZM290 319H475V432Q475 483 453 511T385
539Q337 539 314 511T290 432V319Z" />
<glyph unicode="&#xe7;" glyph-name="ccedilla" horiz-adv-x="315" d="M124 -75Q177 -75 177 -55Q177 -47 170 -44T150 -40H141V-4Q85 3 57 41T28 141V427Q28 496 63 534T163 572Q292 572 292 434V393H253V436Q253 487 232 513T163 539Q117 539 92 511T67 432V137Q67
86 91 57T164 28Q212 28 233 53T254 132V188H292V135Q292 66 262 31T166 -5H162V-22Q208 -24 208 -55Q208 -93 124 -93V-75Z" />
<glyph unicode="&#xe8;" glyph-name="egrave" horiz-adv-x="325" d="M297 188V135Q297 66 265 31T166 -5Q99 -5 64 33T28 141V427Q28 496 63 534T163 572Q229 572 263 535T297 429V289H67V137Q67 86 92 57T166 28Q260 28 260 132V188H297ZM67 321H258V432Q258
483 235 511T163 539Q117 539 92 511T67 432V321ZM342 677L493 620V593L342 645V677Z" />
<glyph unicode="&#xe9;" glyph-name="eacute" horiz-adv-x="325" d="M505 645L354 593V620L505 677V645ZM297 188V135Q297 66 265 31T166 -5Q99 -5 64 33T28 141V427Q28 496 63 534T163 572Q229 572 263 535T297 429V289H67V137Q67 86 92 57T166 28Q260 28 260
132V188H297ZM67 321H258V432Q258 483 235 511T163 539Q117 539 92 511T67 432V321Z" />
<glyph unicode="&#xea;" glyph-name="ecircumflex" horiz-adv-x="325" d="M338 594V621L412 685H431L504 621V594L422 652L338 594ZM297 188V135Q297 66 265 31T166 -5Q99 -5 64 33T28 141V427Q28 496 63 534T163 572Q229 572 263 535T297 429V289H67V137Q67 86
92 57T166 28Q260 28 260 132V188H297ZM67 321H258V432Q258 483 235 511T163 539Q117 539 92 511T67 432V321Z" />
<glyph unicode="&#xeb;" glyph-name="edieresis" horiz-adv-x="325" d="M362 650H400V610H362V650ZM443 650H481V610H443V650ZM297 188V135Q297 66 265 31T166 -5Q99 -5 64 33T28 141V427Q28 496 63 534T163 572Q229 572 263 535T297 429V289H67V137Q67 86 92
57T166 28Q260 28 260 132V188H297ZM67 321H258V432Q258 483 235 511T163 539Q117 539 92 511T67 432V321Z" />
<glyph unicode="&#xec;" glyph-name="igrave" horiz-adv-x="100" d="M30 567H70V0H30V567ZM-9 677L98 620V593L-9 644V677Z" />
<glyph unicode="&#xed;" glyph-name="iacute" horiz-adv-x="100" d="M30 567H70V0H30V567ZM110 644L4 593V620L110 677V644Z" />
<glyph unicode="&#xee;" glyph-name="icircumflex" horiz-adv-x="100" d="M30 567H70V0H30V567ZM-11 594V622L41 685H60L111 622V594L51 653L-11 594Z" />
<glyph unicode="&#xef;" glyph-name="idieresis" horiz-adv-x="100" d="M30 567H70V0H30V567ZM0 650H34V610H0V650ZM66 650H100V610H66V650Z" />
<glyph unicode="&#xf0;" glyph-name="eth" horiz-adv-x="327" d="M72 616L139 638L102 678H146L173 649L240 671V648L190 631L236 583Q267 549 283 513T299 431V141Q299 72 264 34T163 -5Q98 -5 63 33T28 141V426Q28 495 61 532T152 569Q178 569 194 562T226 539Q224
544 217 553T200 572L155 620L72 593V616ZM163 28Q211 28 235 57T260 137V430Q260 481 236 510T163 539Q117 539 92 510T67 430V137Q67 86 92 57T163 28Z" />
<glyph unicode="&#xf1;" glyph-name="ntilde" horiz-adv-x="319" d="M251 440Q251 539 165 539Q127 539 100 516T70 444V0H30V567H70V506H71Q83 534 108 553T178 572Q232 572 261 541T291 441V0H251V440ZM457 612Q446 612 437 616T418 625T401 634T384 638Q371
638 366 630T360 609H334Q335 633 347 650T384 667Q396 667 406 663T424 654T441 645T457 641Q470 641 475 650T482 670H508Q507 645 495 629T457 612Z" />
<glyph unicode="&#xf2;" glyph-name="ograve" horiz-adv-x="327" d="M299 141Q299 72 264 34T163 -5Q98 -5 63 33T28 141V426Q28 495 63 533T163 572Q229 572 264 534T299 426V141ZM163 28Q211 28 235 57T260 137V430Q260 481 236 510T163 539Q117 539 92 510T67
430V137Q67 86 92 57T163 28ZM340 677L491 620V593L340 645V677Z" />
<glyph unicode="&#xf3;" glyph-name="oacute" horiz-adv-x="327" d="M504 645L353 593V620L504 677V645ZM299 141Q299 72 264 34T163 -5Q98 -5 63 33T28 141V426Q28 495 63 533T163 572Q229 572 264 534T299 426V141ZM163 28Q211 28 235 57T260 137V430Q260 481
236 510T163 539Q117 539 92 510T67 430V137Q67 86 92 57T163 28Z" />
<glyph unicode="&#xf4;" glyph-name="ocircumflex" horiz-adv-x="327" d="M337 594V621L411 685H430L503 621V594L421 652L337 594ZM299 141Q299 72 264 34T163 -5Q98 -5 63 33T28 141V426Q28 495 63 533T163 572Q229 572 264 534T299 426V141ZM163 28Q211 28
235 57T260 137V430Q260 481 236 510T163 539Q117 539 92 510T67 430V137Q67 86 92 57T163 28Z" />
<glyph unicode="&#xf5;" glyph-name="otilde" horiz-adv-x="327" d="M299 141Q299 72 264 34T163 -5Q98 -5 63 33T28 141V426Q28 495 63 533T163 572Q229 572 264 534T299 426V141ZM163 28Q211 28 235 57T260 137V430Q260 481 236 510T163 539Q117 539 92 510T67
430V137Q67 86 92 57T163 28ZM456 612Q445 612 436 616T417 625T400 634T383 638Q370 638 365 630T359 609H333Q334 633 346 650T383 667Q395 667 405 663T423 654T440 645T456 641Q469 641 474 650T481 670H507Q506 645 494 629T456 612Z" />
<glyph unicode="&#xf6;" glyph-name="odieresis" horiz-adv-x="327" d="M360 650H398V610H360V650ZM441 650H479V610H441V650ZM299 141Q299 72 264 34T163 -5Q98 -5 63 33T28 141V426Q28 495 63 533T163 572Q229 572 264 534T299 426V141ZM163 28Q211 28 235 57T260
137V430Q260 481 236 510T163 539Q117 539 92 510T67 430V137Q67 86 92 57T163 28Z" />
<glyph unicode="&#xf7;" glyph-name="divide" horiz-adv-x="344" d="M23 351H321V319H23V351ZM151 246H192V198H151V246ZM151 475H192V427H151V475Z" />
<glyph unicode="&#xf8;" glyph-name="oslash" horiz-adv-x="327" d="M299 141Q299 72 264 34T163 -5Q122 -5 93 11L81 -29H52L69 27Q28 65 28 141V426Q28 495 63 533T163 572Q205 572 236 555L247 590H276L259 537Q299 499 299 426V141ZM67 137Q67 91 82 66L225
522Q202 539 163 539Q117 539 92 510T67 430V137ZM163 28Q211 28 235 57T260 137V430Q260 471 246 497L103 43Q125 28 163 28Z" />
<glyph unicode="&#xf9;" glyph-name="ugrave" horiz-adv-x="319" d="M68 127Q68 28 154 28Q192 28 220 53T249 127V567H288V0H249V61H248Q235 31 210 13T141 -5Q87 -5 58 26T28 126V567H68V127ZM335 677L486 620V593L335 645V677Z" />
<glyph unicode="&#xfa;" glyph-name="uacute" horiz-adv-x="319" d="M498 645L347 593V620L498 677V645ZM68 127Q68 28 154 28Q192 28 220 53T249 127V567H288V0H249V61H248Q235 31 210 13T141 -5Q87 -5 58 26T28 126V567H68V127Z" />
<glyph unicode="&#xfb;" glyph-name="ucircumflex" horiz-adv-x="319" d="M331 594V621L405 685H424L497 621V594L415 652L331 594ZM68 127Q68 28 154 28Q192 28 220 53T249 127V567H288V0H249V61H248Q235 31 210 13T141 -5Q87 -5 58 26T28 126V567H68V127Z" />
<glyph unicode="&#xfc;" glyph-name="udieresis" horiz-adv-x="319" d="M354 650H392V610H354V650ZM435 650H473V610H435V650ZM68 127Q68 28 154 28Q192 28 220 53T249 127V567H288V0H249V61H248Q235 31 210 13T141 -5Q87 -5 58 26T28 126V567H68V127Z" />
<glyph unicode="&#xfd;" glyph-name="yacute" horiz-adv-x="294" d="M291 567L151 -11Q146 -33 139 -48T122 -72T95 -86T57 -90H32V-58H56Q85 -58 96 -46T116 -3L132 56H121L3 567H44L146 120H147L252 567H291ZM487 645L336 593V620L487 677V645Z" />
<glyph unicode="&#xfe;" glyph-name="thorn" d="M30 678H70V504H71Q83 531 109 551T181 572Q237 572 267 541T297 440V127Q297 58 266 27T177 -5Q132 -5 108 14T71 59H70V-90H30V678ZM257 438Q257 539 167 539Q128 539 100 514T70 441V124Q72 76 99 52T166 28Q257
28 257 129V438Z" />
<glyph unicode="&#xff;" glyph-name="ydieresis" horiz-adv-x="294" d="M291 567L151 -11Q146 -33 139 -48T122 -72T95 -86T57 -90H32V-58H56Q85 -58 96 -46T116 -3L132 56H121L3 567H44L146 120H147L252 567H291ZM344 650H382V610H344V650ZM425 650H463V610H425V650Z" />
<glyph unicode="&#x100;" glyph-name="Amacron" horiz-adv-x="347" d="M11 0L147 678H198L336 0H295L260 177H85L50 0H11ZM91 211H253L172 616H171L91 211ZM351 746H505V719H351V746Z" />
<glyph unicode="&#x101;" glyph-name="amacron" horiz-adv-x="311" d="M244 0V58H242Q231 33 206 14T139 -5Q83 -5 53 26T23 126V173Q23 206 31 228T55 265T92 292T141 316Q200 342 222 359T244 397V440Q244 487 227 513T164 539Q119 539 98 516T76 447V393H38V445Q38
505 69 538T165 572Q230 572 256 537T283 437V0H244ZM148 28Q188 28 216 53T244 127V344Q240 339 235 334T219 321T192 305T149 284Q128 274 112 265T84 243T68 214T62 172V127Q62 28 148 28ZM342 640H496V613H342V640Z" />
<glyph unicode="&#x102;" glyph-name="Abreve" horiz-adv-x="347" d="M11 0L147 678H198L336 0H295L260 177H85L50 0H11ZM91 211H253L172 616H171L91 211ZM509 782Q508 745 487 724T430 703Q395 703 372 724T348 782H378Q379 758 393 745T430 731Q453 731 466
744T481 782H509Z" />
<glyph unicode="&#x103;" glyph-name="abreve" horiz-adv-x="311" d="M244 0V58H242Q231 33 206 14T139 -5Q83 -5 53 26T23 126V173Q23 206 31 228T55 265T92 292T141 316Q200 342 222 359T244 397V440Q244 487 227 513T164 539Q119 539 98 516T76 447V393H38V445Q38
505 69 538T165 572Q230 572 256 537T283 437V0H244ZM148 28Q188 28 216 53T244 127V344Q240 339 235 334T219 321T192 305T149 284Q128 274 112 265T84 243T68 214T62 172V127Q62 28 148 28ZM500 676Q499 639 478 618T421 597Q386 597 363 618T339 676H369Q370
652 384 639T421 625Q444 625 457 638T472 676H500Z" />
<glyph unicode="&#x104;" glyph-name="Aogonek" horiz-adv-x="347" d="M11 0L147 678H198L336 0Q325 -9 316 -19T306 -42Q306 -58 329 -58H339V-90H325Q295 -90 282 -80T269 -52Q269 -36 278 -25T296 -6L260 177H85L50 0H11ZM91 211H253L172 616H171L91 211Z" />
<glyph unicode="&#x105;" glyph-name="aogonek" horiz-adv-x="311" d="M283 0Q272 -9 263 -19T253 -42Q253 -58 276 -58H286V-90H272Q242 -90 229 -80T216 -52Q216 -36 225 -25T244 -6V58H242Q231 33 206 14T139 -5Q83 -5 53 26T23 126V173Q23 206 31 228T55 265T92
292T141 316Q200 342 222 359T244 397V440Q244 487 227 513T164 539Q119 539 98 516T76 447V393H38V445Q38 505 69 538T165 572Q230 572 256 537T283 437V0ZM148 28Q188 28 216 53T244 127V344Q240 339 235 334T219 321T192 305T149 284Q128 274 112 265T84 243T68
214T62 172V127Q62 28 148 28Z" />
<glyph unicode="&#x106;" glyph-name="Cacute" horiz-adv-x="338" d="M514 751L363 699V726L514 783V751ZM175 -5Q136 -5 108 8T63 43T37 96T29 160V518Q29 552 37 582T62 634T108 670T175 683Q216 683 242 672T285 642T307 594T313 531V451H272V534Q272 561 268
582T253 618T224 641T175 649Q146 649 127 639T94 612T76 572T70 524V154Q70 129 75 107T94 67T126 39T175 29Q205 29 224 37T254 61T269 98T273 144V263H313V147Q313 114 307 87T285 39T242 7T175 -5Z" />
<glyph unicode="&#x107;" glyph-name="cacute" horiz-adv-x="315" d="M504 645L353 593V620L504 677V645ZM292 188V135Q292 66 261 31T164 -5Q98 -5 63 33T28 141V427Q28 496 63 534T163 572Q292 572 292 434V393H253V436Q253 487 232 513T163 539Q117 539 92
511T67 432V137Q67 86 91 57T164 28Q212 28 233 53T254 132V188H292Z" />
<glyph unicode="&#x108;" glyph-name="Ccircumflex" horiz-adv-x="338" d="M347 700V727L421 791H440L513 727V700L431 758L347 700ZM175 -5Q136 -5 108 8T63 43T37 96T29 160V518Q29 552 37 582T62 634T108 670T175 683Q216 683 242 672T285 642T307 594T313
531V451H272V534Q272 561 268 582T253 618T224 641T175 649Q146 649 127 639T94 612T76 572T70 524V154Q70 129 75 107T94 67T126 39T175 29Q205 29 224 37T254 61T269 98T273 144V263H313V147Q313 114 307 87T285 39T242 7T175 -5Z" />
<glyph unicode="&#x109;" glyph-name="ccircumflex" horiz-adv-x="315" d="M337 594V621L411 685H430L503 621V594L421 652L337 594ZM292 188V135Q292 66 261 31T164 -5Q98 -5 63 33T28 141V427Q28 496 63 534T163 572Q292 572 292 434V393H253V436Q253 487 232
513T163 539Q117 539 92 511T67 432V137Q67 86 91 57T164 28Q212 28 233 53T254 132V188H292Z" />
<glyph unicode="&#x10a;" glyph-name="Cdotaccent" horiz-adv-x="338" d="M175 -5Q136 -5 108 8T63 43T37 96T29 160V518Q29 552 37 582T62 634T108 670T175 683Q216 683 242 672T285 642T307 594T313 531V451H272V534Q272 561 268 582T253 618T224 641T175 649Q146
649 127 639T94 612T76 572T70 524V154Q70 129 75 107T94 67T126 39T175 29Q205 29 224 37T254 61T269 98T273 144V263H313V147Q313 114 307 87T285 39T242 7T175 -5ZM411 756H451V716H411V756Z" />
<glyph unicode="&#x10b;" glyph-name="cdotaccent" horiz-adv-x="315" d="M292 188V135Q292 66 261 31T164 -5Q98 -5 63 33T28 141V427Q28 496 63 534T163 572Q292 572 292 434V393H253V436Q253 487 232 513T163 539Q117 539 92 511T67 432V137Q67 86 91 57T164
28Q212 28 233 53T254 132V188H292ZM401 678H441V638H401V678Z" />
<glyph unicode="&#x10c;" glyph-name="Ccaron" horiz-adv-x="338" d="M513 792V766L439 702H420L347 766V792L429 734L513 792ZM175 -5Q136 -5 108 8T63 43T37 96T29 160V518Q29 552 37 582T62 634T108 670T175 683Q216 683 242 672T285 642T307 594T313 531V451H272V534Q272
561 268 582T253 618T224 641T175 649Q146 649 127 639T94 612T76 572T70 524V154Q70 129 75 107T94 67T126 39T175 29Q205 29 224 37T254 61T269 98T273 144V263H313V147Q313 114 307 87T285 39T242 7T175 -5Z" />
<glyph unicode="&#x10d;" glyph-name="ccaron" horiz-adv-x="315" d="M503 686V660L429 596H410L337 660V686L419 628L503 686ZM292 188V135Q292 66 261 31T164 -5Q98 -5 63 33T28 141V427Q28 496 63 534T163 572Q292 572 292 434V393H253V436Q253 487 232 513T163
539Q117 539 92 511T67 432V137Q67 86 91 57T164 28Q212 28 233 53T254 132V188H292Z" />
<glyph unicode="&#x10e;" glyph-name="Dcaron" horiz-adv-x="345" d="M497 792V766L423 702H404L331 766V792L413 734L497 792ZM71 34H158Q190 34 212 44T249 71T269 110T276 158V520Q276 545 270 568T249 607T213 634T158 644H71V34ZM163 678Q205 678 234 665T282
630T308 578T317 514V164Q317 131 309 101T282 49T235 13T163 0H30V678H163Z" />
<glyph unicode="&#x10f;" glyph-name="dcaron" horiz-adv-x="325" d="M352 674L341 587H317L320 678H352V674ZM295 0H255V61H254Q243 36 218 16T149 -5Q92 -5 61 26T29 127V440Q29 509 62 540T150 572Q195 572 218 553T254 508H255V678H295V0ZM68 129Q68 28 158
28Q199 28 226 53T255 126V436Q255 486 228 512T160 539Q115 539 92 514T68 438V129Z" />
<glyph unicode="&#x110;" glyph-name="Dcroat" horiz-adv-x="354" d="M7 362H39V678H171Q213 678 242 665T290 630T316 578T325 514V164Q325 131 317 101T290 49T243 13T171 0H39V328H7V362ZM80 362H202V328H80V34H167Q199 34 221 44T258 71T278 110T284 158V520Q284
545 278 568T258 607T222 634T167 644H80V362Z" />
<glyph unicode="&#x111;" glyph-name="dcroat" horiz-adv-x="325" d="M295 636H329V609H295V0H255V61H254Q243 36 218 16T149 -5Q92 -5 61 26T29 127V440Q29 509 62 540T150 572Q195 572 218 553T254 508H255V609H151V636H255V678H295V636ZM68 129Q68 28 158 28Q199
28 226 53T255 126V441Q253 489 226 514T160 539Q115 539 92 514T68 438V129Z" />
<glyph unicode="&#x112;" glyph-name="Emacron" horiz-adv-x="297" d="M30 678H273V644H71V362H218V328H71V34H273V0H30V678ZM338 746H492V719H338V746Z" />
<glyph unicode="&#x113;" glyph-name="emacron" horiz-adv-x="325" d="M297 188V135Q297 66 265 31T166 -5Q99 -5 64 33T28 141V427Q28 496 63 534T163 572Q229 572 263 535T297 429V289H67V137Q67 86 92 57T166 28Q260 28 260 132V188H297ZM67 321H258V432Q258
483 235 511T163 539Q117 539 92 511T67 432V321ZM344 640H498V613H344V640Z" />
<glyph unicode="&#x114;" glyph-name="Ebreve" horiz-adv-x="297" d="M30 678H273V644H71V362H218V328H71V34H273V0H30V678ZM496 782Q495 745 474 724T417 703Q382 703 359 724T335 782H365Q366 758 380 745T417 731Q440 731 453 744T468 782H496Z" />
<glyph unicode="&#x115;" glyph-name="ebreve" horiz-adv-x="325" d="M297 188V135Q297 66 265 31T166 -5Q99 -5 64 33T28 141V427Q28 496 63 534T163 572Q229 572 263 535T297 429V289H67V137Q67 86 92 57T166 28Q260 28 260 132V188H297ZM67 321H258V432Q258
483 235 511T163 539Q117 539 92 511T67 432V321ZM502 676Q501 639 480 618T423 597Q388 597 365 618T341 676H371Q372 652 386 639T423 625Q446 625 459 638T474 676H502Z" />
<glyph unicode="&#x116;" glyph-name="Edotaccent" horiz-adv-x="297" d="M30 678H273V644H71V362H218V328H71V34H273V0H30V678ZM396 756H436V716H396V756Z" />
<glyph unicode="&#x117;" glyph-name="edotaccent" horiz-adv-x="325" d="M297 188V135Q297 66 265 31T166 -5Q99 -5 64 33T28 141V427Q28 496 63 534T163 572Q229 572 263 535T297 429V289H67V137Q67 86 92 57T166 28Q260 28 260 132V188H297ZM67 321H258V432Q258
483 235 511T163 539Q117 539 92 511T67 432V321ZM402 678H442V638H402V678Z" />
<glyph unicode="&#x118;" glyph-name="Eogonek" horiz-adv-x="297" d="M30 678H273V644H71V362H218V328H71V34H273V0H244Q233 -9 224 -19T214 -42Q214 -58 237 -58H247V-90H233Q203 -90 190 -80T177 -52Q177 -32 190 -19T214 0H30V678Z" />
<glyph unicode="&#x119;" glyph-name="eogonek" horiz-adv-x="325" d="M217 -90Q186 -90 174 -80T161 -52Q161 -35 171 -23T192 -3Q185 -4 179 -4T166 -5Q99 -5 64 33T28 141V427Q28 496 63 534T163 572Q229 572 263 535T297 429V289H67V137Q67 86 92 57T166 28Q260
28 260 132V188H297V135Q297 93 285 65T247 16Q230 3 214 -11T198 -42Q198 -58 221 -58H231V-90H217ZM67 321H258V432Q258 483 235 511T163 539Q117 539 92 511T67 432V321Z" />
<glyph unicode="&#x11a;" glyph-name="Ecaron" horiz-adv-x="297" d="M498 792V766L424 702H405L332 766V792L414 734L498 792ZM30 678H273V644H71V362H218V328H71V34H273V0H30V678Z" />
<glyph unicode="&#x11b;" glyph-name="ecaron" horiz-adv-x="325" d="M504 686V660L430 596H411L338 660V686L420 628L504 686ZM297 188V135Q297 66 265 31T166 -5Q99 -5 64 33T28 141V427Q28 496 63 534T163 572Q229 572 263 535T297 429V289H67V137Q67 86 92
57T166 28Q260 28 260 132V188H297ZM67 321H258V432Q258 483 235 511T163 539Q117 539 92 511T67 432V321Z" />
<glyph unicode="&#x11c;" glyph-name="Gcircumflex" horiz-adv-x="350" d="M347 700V727L421 791H440L513 727V700L431 758L347 700ZM184 339H317V0H282V65Q272 36 247 16T171 -5Q133 -5 106 8T62 43T37 96T29 160V518Q29 552 37 582T63 634T109 670T176 683Q217
683 244 672T288 642T310 594T317 531V471H277V534Q277 561 273 582T257 618T227 641T177 649Q148 649 128 639T95 612T76 572T70 524V154Q70 129 75 107T94 67T126 39T175 29Q232 29 253 61T276 142V305H184V339Z" />
<glyph unicode="&#x11d;" glyph-name="gcircumflex" d="M339 594V621L413 685H432L505 621V594L423 652L339 594ZM294 567V37Q294 -23 263 -59T163 -95Q97 -95 64 -63T31 23V51H70V25Q70 -17 92 -39T163 -62Q211 -62 233 -36T255 32V150H253Q242 125 218 105T148
85Q91 85 60 117T28 218V440Q28 509 62 540T149 572Q194 572 217 553T253 508H255V567H294ZM158 119Q200 119 227 145T255 221V436Q255 486 228 512T159 539Q115 539 92 514T68 438V219Q68 119 158 119Z" />
<glyph unicode="&#x11e;" glyph-name="Gbreve" horiz-adv-x="350" d="M184 339H317V0H282V65Q272 36 247 16T171 -5Q133 -5 106 8T62 43T37 96T29 160V518Q29 552 37 582T63 634T109 670T176 683Q217 683 244 672T288 642T310 594T317 531V471H277V534Q277 561
273 582T257 618T227 641T177 649Q148 649 128 639T95 612T76 572T70 524V154Q70 129 75 107T94 67T126 39T175 29Q232 29 253 61T276 142V305H184V339ZM510 782Q509 745 488 724T431 703Q396 703 373 724T349 782H379Q380 758 394 745T431 731Q454 731 467 744T482
782H510Z" />
<glyph unicode="&#x11f;" glyph-name="gbreve" d="M294 567V37Q294 -23 263 -59T163 -95Q97 -95 64 -63T31 23V51H70V25Q70 -17 92 -39T163 -62Q211 -62 233 -36T255 32V150H253Q242 125 218 105T148 85Q91 85 60 117T28 218V440Q28 509 62 540T149 572Q194 572
217 553T253 508H255V567H294ZM158 119Q200 119 227 145T255 221V436Q255 486 228 512T159 539Q115 539 92 514T68 438V219Q68 119 158 119ZM503 676Q502 639 481 618T424 597Q389 597 366 618T342 676H372Q373 652 387 639T424 625Q447 625 460 638T475 676H503Z"
/>
<glyph unicode="&#x120;" glyph-name="Gdotaccent" horiz-adv-x="350" d="M184 339H317V0H282V65Q272 36 247 16T171 -5Q133 -5 106 8T62 43T37 96T29 160V518Q29 552 37 582T63 634T109 670T176 683Q217 683 244 672T288 642T310 594T317 531V471H277V534Q277
561 273 582T257 618T227 641T177 649Q148 649 128 639T95 612T76 572T70 524V154Q70 129 75 107T94 67T126 39T175 29Q232 29 253 61T276 142V305H184V339ZM411 756H451V716H411V756Z" />
<glyph unicode="&#x121;" glyph-name="gdotaccent" d="M294 567V37Q294 -23 263 -59T163 -95Q97 -95 64 -63T31 23V51H70V25Q70 -17 92 -39T163 -62Q211 -62 233 -36T255 32V150H253Q242 125 218 105T148 85Q91 85 60 117T28 218V440Q28 509 62 540T149 572Q194
572 217 553T253 508H255V567H294ZM158 119Q200 119 227 145T255 221V436Q255 486 228 512T159 539Q115 539 92 514T68 438V219Q68 119 158 119ZM403 678H443V638H403V678Z" />
<glyph unicode="&#x122;" glyph-name="Gcommaaccent" horiz-adv-x="350" d="M450 -25L431 -90H402L413 -21H450V-25ZM184 339H317V0H282V65Q272 36 247 16T171 -5Q133 -5 106 8T62 43T37 96T29 160V518Q29 552 37 582T63 634T109 670T176 683Q217 683 244 672T288
642T310 594T317 531V471H277V534Q277 561 273 582T257 618T227 641T177 649Q148 649 128 639T95 612T76 572T70 524V154Q70 129 75 107T94 67T126 39T175 29Q232 29 253 61T276 142V305H184V339Z" />
<glyph unicode="&#x123;" glyph-name="gcommaaccent" d="M402 607L421 673H450L439 604H402V607ZM294 567V37Q294 -23 263 -59T163 -95Q97 -95 64 -63T31 23V51H70V25Q70 -17 92 -39T163 -62Q211 -62 233 -36T255 32V150H253Q242 125 218 105T148 85Q91 85 60
117T28 218V440Q28 509 62 540T149 572Q194 572 217 553T253 508H255V567H294ZM158 119Q200 119 227 145T255 221V436Q255 486 228 512T159 539Q115 539 92 514T68 438V219Q68 119 158 119Z" />
<glyph unicode="&#x124;" glyph-name="Hcircumflex" horiz-adv-x="341" d="M343 700V727L417 791H436L509 727V700L427 758L343 700ZM269 328H71V0H30V678H71V362H269V678H310V0H269V328Z" />
<glyph unicode="&#x125;" glyph-name="hcircumflex" horiz-adv-x="319" d="M332 700V727L406 791H425L498 727V700L416 758L332 700ZM251 440Q251 539 165 539Q127 539 100 516T70 444V0H30V678H70V506H71Q83 534 108 553T178 572Q232 572 261 541T291 441V0H251V440Z" />
<glyph unicode="&#x126;" glyph-name="Hbar" horiz-adv-x="341" d="M-3 513H30V678H71V513H269V678H310V513H344V483H310V0H269V328H71V0H30V483H-3V513ZM71 362H269V483H71V362Z" />
<glyph unicode="&#x127;" glyph-name="hbar" horiz-adv-x="319" d="M30 609H-4V636H30V678H70V636H175V609H70V506H71Q83 534 108 553T178 572Q232 572 261 541T291 441V0H251V440Q251 539 165 539Q127 539 100 516T70 444V0H30V609Z" />
<glyph unicode="&#x128;" glyph-name="Itilde" horiz-adv-x="102" d="M30 678H71V0H30V678ZM88 723Q77 723 68 727T49 736T32 745T15 749Q2 749 -3 741T-9 720H-35Q-34 744 -22 761T15 778Q27 778 37 774T55 765T72 756T88 752Q101 752 106 761T113 781H139Q138
756 126 740T88 723Z" />
<glyph unicode="&#x129;" glyph-name="itilde" horiz-adv-x="100" d="M30 567H70V0H30V567ZM85 612Q74 612 65 616T47 625T32 635T18 639Q9 639 5 631T0 609H-25Q-23 667 16 667Q26 667 35 663T53 654T68 645T83 641Q92 641 96 649T100 670H126Q125 643 115 628T85 612Z" />
<glyph unicode="&#x12a;" glyph-name="Imacron" horiz-adv-x="102" d="M30 678H71V0H30V678ZM-6 745H108V719H-6V745Z" />
<glyph unicode="&#x12b;" glyph-name="imacron" horiz-adv-x="100" d="M-3 640H104V613H-3V640ZM30 567H70V0H30V567Z" />
<glyph unicode="&#x12c;" glyph-name="Ibreve" horiz-adv-x="102" d="M30 678H71V0H30V678ZM132 787Q131 750 110 729T53 708Q18 708 -5 729T-29 787H1Q2 763 16 750T53 736Q76 736 89 749T104 787H132Z" />
<glyph unicode="&#x12d;" glyph-name="ibreve" horiz-adv-x="100" d="M30 567H70V0H30V567ZM51 597Q22 597 5 617T-13 676H13Q14 649 24 637T51 625Q68 625 77 637T88 676H114Q114 638 97 618T51 597Z" />
<glyph unicode="&#x12e;" glyph-name="Iogonek" horiz-adv-x="102" d="M71 0Q60 -9 51 -19T41 -42Q41 -58 64 -58H74V-90H60Q30 -90 17 -80T4 -52Q4 -37 12 -26T30 -7V678H71V0Z" />
<glyph unicode="&#x12f;" glyph-name="iogonek" horiz-adv-x="100" d="M70 0Q59 -9 50 -19T40 -42Q40 -58 63 -58H73V-90H59Q29 -90 16 -80T3 -52Q3 -37 11 -26T30 -7V567H70V0ZM30 678H70V638H30V678Z" />
<glyph unicode="&#x130;" glyph-name="Idotaccent" horiz-adv-x="102" d="M30 678H71V0H30V678ZM32 756H72V716H32V756Z" />
<glyph unicode="&#x131;" glyph-name="dotlessi" horiz-adv-x="100" d="M30 567H70V0H30V567Z" />
<glyph unicode="&#x132;" glyph-name="IJ" horiz-adv-x="401" d="M30 678H71V0H30V678ZM373 678V129Q373 66 344 31T248 -5Q182 -5 154 30T126 125V263H166V125Q166 81 185 55T248 29Q293 29 312 55T332 125V678H373Z" />
<glyph unicode="&#x133;" glyph-name="ij" horiz-adv-x="100" d="M30 567H70V0H30V567ZM30 678H70V638H30V678ZM170 567V-24Q170 -59 153 -74T96 -90H87V-58H93Q114 -58 122 -50T130 -23V567H170ZM130 678H170V638H130V678Z" />
<glyph unicode="&#x134;" glyph-name="Jcircumflex" horiz-adv-x="297" d="M166 700V727L240 791H259L332 727V700L250 758L166 700ZM269 678V129Q269 66 240 31T144 -5Q78 -5 50 30T22 125V263H62V125Q62 81 81 55T144 29Q189 29 208 55T228 125V678H269Z" />
<glyph unicode="&#x135;" glyph-name="jcircumflex" horiz-adv-x="100" d="M-11 594V622L41 685H60L111 622V594L51 653L-11 594ZM70 567V-24Q70 -59 53 -74T-4 -90H-13V-58H-7Q14 -58 22 -50T30 -23V567H70Z" />
<glyph unicode="&#x136;" glyph-name="Kcommaaccent" horiz-adv-x="317" d="M442 -25L423 -90H394L405 -21H442V-25ZM71 341V0H30V678H71V354L268 678H311L112 351L312 0H269L71 341Z" />
<glyph unicode="&#x137;" glyph-name="kcommaaccent" horiz-adv-x="283" d="M423 -25L404 -90H375L386 -21H423V-25ZM235 0L70 289V0H30V678H70V296L231 567H272L110 297L278 0H235Z" />
<glyph unicode="&#x139;" glyph-name="Lacute" horiz-adv-x="263" d="M140 751L-11 699V726L140 783V751ZM30 678H71V34H251V0H30V678Z" />
<glyph unicode="&#x13a;" glyph-name="lacute" horiz-adv-x="100" d="M111 751L5 699V726L111 783V751ZM30 678H70V0H30V678Z" />
<glyph unicode="&#x13b;" glyph-name="Lcommaaccent" horiz-adv-x="263" d="M411 -25L392 -90H363L374 -21H411V-25ZM30 678H71V34H251V0H30V678Z" />
<glyph unicode="&#x13c;" glyph-name="lcommaaccent" horiz-adv-x="100" d="M68 -25L49 -90H20L31 -21H68V-25ZM30 678H70V0H30V678Z" />
<glyph unicode="&#x13d;" glyph-name="Lcaron" horiz-adv-x="263" d="M30 678H71V34H251V0H30V678ZM177 674L165 572H138L141 678H177V674Z" />
<glyph unicode="&#x13e;" glyph-name="lcaron" horiz-adv-x="100" d="M384 674L373 587H349L352 678H384V674ZM30 678H70V0H30V678Z" />
<glyph unicode="&#x13f;" glyph-name="Ldot" horiz-adv-x="263" d="M30 678H71V34H251V0H30V678ZM167 364H208V316H167V364Z" />
<glyph unicode="&#x140;" glyph-name="ldot" horiz-adv-x="155" d="M30 678H70V0H30V678ZM107 366H148V318H107V366Z" />
<glyph unicode="&#x141;" glyph-name="Lslash" horiz-adv-x="278" d="M45 267L11 251V286L45 302V678H86V322L212 383V348L86 287V34H266V0H45V267Z" />
<glyph unicode="&#x142;" glyph-name="lslash" horiz-adv-x="112" d="M3 358L36 388V678H76V424L111 456V417L76 385V0H36V349L3 319V358Z" />
<glyph unicode="&#x143;" glyph-name="Nacute" horiz-adv-x="336" d="M517 751L366 699V726L517 783V751ZM67 589V0H30V678H75L269 106V678H305V0H265L67 589Z" />
<glyph unicode="&#x144;" glyph-name="nacute" horiz-adv-x="319" d="M504 645L353 593V620L504 677V645ZM251 440Q251 539 165 539Q127 539 100 516T70 444V0H30V567H70V506H71Q83 534 108 553T178 572Q232 572 261 541T291 441V0H251V440Z" />
<glyph unicode="&#x145;" glyph-name="Ncommaaccent" horiz-adv-x="336" d="M435 -25L416 -90H387L398 -21H435V-25ZM67 589V0H30V678H75L269 106V678H305V0H265L67 589Z" />
<glyph unicode="&#x146;" glyph-name="ncommaaccent" horiz-adv-x="319" d="M436 -25L417 -90H388L399 -21H436V-25ZM251 440Q251 539 165 539Q127 539 100 516T70 444V0H30V567H70V506H71Q83 534 108 553T178 572Q232 572 261 541T291 441V0H251V440Z" />
<glyph unicode="&#x147;" glyph-name="Ncaron" horiz-adv-x="336" d="M516 792V766L442 702H423L350 766V792L432 734L516 792ZM67 589V0H30V678H75L269 106V678H305V0H265L67 589Z" />
<glyph unicode="&#x148;" glyph-name="ncaron" horiz-adv-x="319" d="M503 686V660L429 596H410L337 660V686L419 628L503 686ZM251 440Q251 539 165 539Q127 539 100 516T70 444V0H30V567H70V506H71Q83 534 108 553T178 572Q232 572 261 541T291 441V0H251V440Z" />
<glyph unicode="&#x14a;" glyph-name="Eng" horiz-adv-x="336" d="M221 -58Q246 -58 256 -49T266 -17V0L67 589V0H30V678H75L269 109V678H305V-17Q305 -56 287 -73T224 -90H200V-58H221Z" />
<glyph unicode="&#x14b;" glyph-name="eng" horiz-adv-x="319" d="M204 -58H210Q233 -58 242 -50T251 -21V440Q251 539 165 539Q127 539 99 514T70 439V0H30V567H70V506H71Q83 534 108 553T178 572Q232 572 261 541T291 441V-22Q291 -57 273 -73T213 -90H204V-58Z" />
<glyph unicode="&#x14c;" glyph-name="Omacron" horiz-adv-x="357" d="M358 746H512V719H358V746ZM178 29Q207 29 227 39T261 66T281 106T287 154V524Q287 549 281 572T262 612T228 639T178 649Q149 649 129 639T96 612T76 572T70 524V154Q70 129 76 107T95 67T129
39T178 29ZM178 -5Q139 -5 111 8T64 43T38 96T29 160V518Q29 552 37 582T64 634T110 670T178 683Q218 683 246 670T293 635T319 582T328 518V160Q328 126 320 96T293 44T247 8T178 -5Z" />
<glyph unicode="&#x14d;" glyph-name="omacron" horiz-adv-x="327" d="M343 640H497V613H343V640ZM299 141Q299 72 264 34T163 -5Q98 -5 63 33T28 141V426Q28 495 63 533T163 572Q229 572 264 534T299 426V141ZM163 28Q211 28 235 57T260 137V430Q260 481 236
510T163 539Q117 539 92 510T67 430V137Q67 86 92 57T163 28Z" />
<glyph unicode="&#x14e;" glyph-name="Obreve" horiz-adv-x="357" d="M178 29Q207 29 227 39T261 66T281 106T287 154V524Q287 549 281 572T262 612T228 639T178 649Q149 649 129 639T96 612T76 572T70 524V154Q70 129 76 107T95 67T129 39T178 29ZM178 -5Q139
-5 111 8T64 43T38 96T29 160V518Q29 552 37 582T64 634T110 670T178 683Q218 683 246 670T293 635T319 582T328 518V160Q328 126 320 96T293 44T247 8T178 -5ZM515 787Q514 750 493 729T436 708Q401 708 378 729T354 787H384Q385 763 399 750T436 736Q459 736
472 749T487 787H515Z" />
<glyph unicode="&#x14f;" glyph-name="obreve" horiz-adv-x="327" d="M299 141Q299 72 264 34T163 -5Q98 -5 63 33T28 141V426Q28 495 63 533T163 572Q229 572 264 534T299 426V141ZM163 28Q211 28 235 57T260 137V430Q260 481 236 510T163 539Q117 539 92 510T67
430V137Q67 86 92 57T163 28ZM501 676Q500 639 479 618T422 597Q387 597 364 618T340 676H370Q371 652 385 639T422 625Q445 625 458 638T473 676H501Z" />
<glyph unicode="&#x150;" glyph-name="Ohungarumlaut" horiz-adv-x="357" d="M453 791L412 701H383L418 791H453ZM528 791L486 701H458L492 791H528ZM178 29Q207 29 227 39T261 66T281 106T287 154V524Q287 549 281 572T262 612T228 639T178 649Q149 649 129 639T96
612T76 572T70 524V154Q70 129 76 107T95 67T129 39T178 29ZM178 -5Q139 -5 111 8T64 43T38 96T29 160V518Q29 552 37 582T64 634T110 670T178 683Q218 683 246 670T293 635T319 582T328 518V160Q328 126 320 96T293 44T247 8T178 -5Z" />
<glyph unicode="&#x151;" glyph-name="ohungarumlaut" horiz-adv-x="327" d="M437 685L396 595H367L402 685H437ZM512 685L470 595H442L476 685H512ZM299 141Q299 72 264 34T163 -5Q98 -5 63 33T28 141V426Q28 495 63 533T163 572Q229 572 264 534T299 426V141ZM163
28Q211 28 235 57T260 137V430Q260 481 236 510T163 539Q117 539 92 510T67 430V137Q67 86 92 57T163 28Z" />
<glyph unicode="&#x152;" glyph-name="OE" horiz-adv-x="554" d="M173 -5Q135 -5 108 8T64 43T38 96T29 160V518Q29 552 37 582T64 634T109 670T175 683Q218 683 246 664T288 613V678H530V644H328V362H474V328H328V34H530V0H288V66Q274 34 246 15T173 -5ZM178
29Q207 29 227 39T261 66T281 106T288 154V524Q288 549 282 572T262 612T228 639T178 649Q149 649 129 639T96 612T76 572T70 524V154Q70 129 76 107T95 67T129 39T178 29Z" />
<glyph unicode="&#x153;" glyph-name="oe" horiz-adv-x="557" d="M163 -5Q97 -5 63 33T28 141V426Q28 495 62 533T163 572Q248 572 278 502Q292 536 321 554T395 572Q461 572 495 535T529 429V289H299V137Q299 86 324 57T398 28Q491 28 491 132V188H529V135Q529
66 496 31T397 -5Q352 -5 323 13T279 66Q248 -5 163 -5ZM163 28Q211 28 235 57T260 137V430Q260 481 236 510T163 539Q117 539 92 510T67 430V137Q67 86 92 57T163 28ZM299 321H490V432Q490 483 466 511T395 539Q348 539 324 511T299 432V321Z" />
<glyph unicode="&#x154;" glyph-name="Racute" horiz-adv-x="314" d="M491 751L340 699V726L491 783V751ZM71 343V0H30V678H156Q224 678 256 647T288 556V450Q288 392 256 359T154 326H124L309 0H264L71 343ZM71 644V360H152Q200 360 223 382T246 447V557Q246
644 152 644H71Z" />
<glyph unicode="&#x155;" glyph-name="racute" horiz-adv-x="190" d="M448 645L297 593V620L448 677V645ZM173 527H167Q126 527 99 503T70 432V0H30V567H70V496H72Q82 524 106 546T173 570V527Z" />
<glyph unicode="&#x156;" glyph-name="Rcommaaccent" horiz-adv-x="314" d="M436 -25L417 -90H388L399 -21H436V-25ZM71 343V0H30V678H156Q224 678 256 647T288 556V450Q288 392 256 359T154 326H124L309 0H264L71 343ZM71 644V360H152Q200 360 223 382T246 447V557Q246
644 152 644H71Z" />
<glyph unicode="&#x157;" glyph-name="rcommaaccent" horiz-adv-x="190" d="M67 -25L48 -90H19L30 -21H67V-25ZM173 527H167Q126 527 99 503T70 432V0H30V567H70V496H72Q82 524 106 546T173 570V527Z" />
<glyph unicode="&#x158;" glyph-name="Rcaron" horiz-adv-x="314" d="M492 792V766L418 702H399L326 766V792L408 734L492 792ZM71 343V0H30V678H156Q224 678 256 647T288 556V450Q288 392 256 359T154 326H124L309 0H264L71 343ZM71 644V360H152Q200 360 223
382T246 447V557Q246 644 152 644H71Z" />
<glyph unicode="&#x159;" glyph-name="rcaron" horiz-adv-x="190" d="M444 686V660L370 596H351L278 660V686L360 628L444 686ZM173 527H167Q126 527 99 503T70 432V0H30V567H70V496H72Q82 524 106 546T173 570V527Z" />
<glyph unicode="&#x15a;" glyph-name="Sacute" horiz-adv-x="325" d="M502 751L351 699V726L502 783V751ZM164 -5Q92 -5 58 31T23 128V237H62V128Q62 82 87 56T164 29Q214 29 237 57T261 127V165Q261 206 244 235T187 302L118 369Q95 392 78 411T49 448T32 487T26
533V560Q26 617 61 650T158 683Q292 683 292 556V477H253V558Q253 606 230 627T158 649Q116 649 91 627T65 560V534Q65 514 70 498T86 467T110 437T143 403L212 336Q234 313 251 294T279 256T295 216T301 168V129Q301 101 293 77T268 34T225 6T164 -5Z" />
<glyph unicode="&#x15b;" glyph-name="sacute" horiz-adv-x="306" d="M493 645L342 593V620L493 677V645ZM281 124Q281 63 251 29T151 -5Q86 -5 55 31T24 128V183H61V127Q61 82 82 55T151 28Q200 28 221 52T243 122V140Q243 173 229 197T173 255L110 304Q68 338
48 367T28 439V455Q28 507 57 539T149 572Q214 572 244 540T274 444V400H236V446Q236 493 216 516T149 539Q105 539 85 517T65 457V440Q65 425 68 413T79 388T100 364T133 336L196 287Q221 267 237 251T263 218T277 183T281 143V124Z" />
<glyph unicode="&#x15c;" glyph-name="Scircumflex" horiz-adv-x="325" d="M335 700V727L409 791H428L501 727V700L419 758L335 700ZM164 -5Q92 -5 58 31T23 128V237H62V128Q62 82 87 56T164 29Q214 29 237 57T261 127V165Q261 206 244 235T187 302L118 369Q95
392 78 411T49 448T32 487T26 533V560Q26 617 61 650T158 683Q292 683 292 556V477H253V558Q253 606 230 627T158 649Q116 649 91 627T65 560V534Q65 514 70 498T86 467T110 437T143 403L212 336Q234 313 251 294T279 256T295 216T301 168V129Q301 101 293 77T268
34T225 6T164 -5Z" />
<glyph unicode="&#x15d;" glyph-name="scircumflex" horiz-adv-x="306" d="M326 594V621L400 685H419L492 621V594L410 652L326 594ZM281 124Q281 63 251 29T151 -5Q86 -5 55 31T24 128V183H61V127Q61 82 82 55T151 28Q200 28 221 52T243 122V140Q243 173 229
197T173 255L110 304Q68 338 48 367T28 439V455Q28 507 57 539T149 572Q214 572 244 540T274 444V400H236V446Q236 493 216 516T149 539Q105 539 85 517T65 457V440Q65 425 68 413T79 388T100 364T133 336L196 287Q221 267 237 251T263 218T277 183T281 143V124Z"
/>
<glyph unicode="&#x15e;" glyph-name="Scedilla" horiz-adv-x="325" d="M123 -75Q176 -75 176 -55Q176 -40 149 -40H140V-4Q81 3 52 38T23 128V237H62V128Q62 82 87 56T164 29Q214 29 237 57T261 127V165Q261 206 244 235T187 302L118 369Q95 392 78 411T49 448T32
487T26 533V560Q26 617 61 650T158 683Q292 683 292 556V477H253V558Q253 606 230 627T158 649Q116 649 91 627T65 560V534Q65 514 70 498T86 467T110 437T143 403L212 336Q234 313 251 294T279 256T295 216T301 168V129Q301 101 293 77T268 34T226 6T165 -5H161V-22Q207
-24 207 -55Q207 -93 123 -93V-75Z" />
<glyph unicode="&#x15f;" glyph-name="scedilla" horiz-adv-x="306" d="M114 -75Q168 -75 168 -55Q168 -40 139 -40H130V-4Q76 1 50 36T24 128V183H61V127Q61 82 82 55T151 28Q200 28 221 52T243 122V140Q243 173 229 197T173 255L110 304Q68 338 48 367T28 439V455Q28
507 57 539T149 572Q214 572 244 540T274 444V400H236V446Q236 493 216 516T149 539Q105 539 85 517T65 457V440Q65 425 68 413T79 388T100 364T133 336L196 287Q221 267 237 251T263 218T277 183T281 143V124Q281 64 251 30T154 -5H152V-22Q199 -24 199 -55Q199
-93 114 -93V-75Z" />
<glyph unicode="&#x160;" glyph-name="Scaron" horiz-adv-x="325" d="M501 792V766L427 702H408L335 766V792L417 734L501 792ZM164 -5Q92 -5 58 31T23 128V237H62V128Q62 82 87 56T164 29Q214 29 237 57T261 127V165Q261 206 244 235T187 302L118 369Q95 392
78 411T49 448T32 487T26 533V560Q26 617 61 650T158 683Q292 683 292 556V477H253V558Q253 606 230 627T158 649Q116 649 91 627T65 560V534Q65 514 70 498T86 467T110 437T143 403L212 336Q234 313 251 294T279 256T295 216T301 168V129Q301 101 293 77T268 34T225
6T164 -5Z" />
<glyph unicode="&#x161;" glyph-name="scaron" horiz-adv-x="306" d="M492 686V660L418 596H399L326 660V686L408 628L492 686ZM281 124Q281 63 251 29T151 -5Q86 -5 55 31T24 128V183H61V127Q61 82 82 55T151 28Q200 28 221 52T243 122V140Q243 173 229 197T173
255L110 304Q68 338 48 367T28 439V455Q28 507 57 539T149 572Q214 572 244 540T274 444V400H236V446Q236 493 216 516T149 539Q105 539 85 517T65 457V440Q65 425 68 413T79 388T100 364T133 336L196 287Q221 267 237 251T263 218T277 183T281 143V124Z" />
<glyph unicode="&#x162;" glyph-name="Tcommaaccent" horiz-adv-x="299" d="M424 -25L405 -90H376L387 -21H424V-25ZM13 678H286V644H170V0H129V644H13V678Z" />
<glyph unicode="&#x163;" glyph-name="tcommaaccent" horiz-adv-x="200" d="M387 -25L368 -90H339L350 -21H387V-25ZM12 567H57V678H96V567H179V536H96V83Q96 55 108 44T149 32H179V0H145Q96 0 77 20T57 85V536H12V567Z" />
<glyph unicode="&#x164;" glyph-name="Tcaron" horiz-adv-x="299" d="M488 792V766L414 702H395L322 766V792L404 734L488 792ZM13 678H286V644H170V0H129V644H13V678Z" />
<glyph unicode="&#x165;" glyph-name="tcaron" horiz-adv-x="200" d="M428 674L417 587H393L396 678H428V674ZM12 567H57V678H96V567H179V536H96V83Q96 55 108 44T149 32H179V0H145Q96 0 77 20T57 85V536H12V567Z" />
<glyph unicode="&#x166;" glyph-name="Tbar" horiz-adv-x="299" d="M13 678H286V644H170V455H249V425H170V0H129V425H51V455H129V644H13V678Z" />
<glyph unicode="&#x167;" glyph-name="tbar" horiz-adv-x="200" d="M96 678V567H179V536H96V448H179V421H96V83Q96 55 108 44T149 32H179V0H145Q96 0 77 20T57 85V421H12V448H57V536H12V567H57V678H96Z" />
<glyph unicode="&#x168;" glyph-name="Utilde" horiz-adv-x="342" d="M313 678V151Q313 117 306 89T282 39T238 7T172 -5Q132 -5 105 6T61 39T37 88T29 151V678H70V148Q70 123 75 101T92 63T123 38T172 29Q200 29 219 38T251 63T268 101T274 148V678H313ZM463
723Q452 723 443 727T424 736T407 745T390 749Q377 749 372 741T366 720H340Q341 744 353 761T390 778Q402 778 412 774T430 765T447 756T463 752Q476 752 481 761T488 781H514Q513 756 501 740T463 723Z" />
<glyph unicode="&#x169;" glyph-name="utilde" horiz-adv-x="319" d="M68 127Q68 28 154 28Q192 28 220 53T249 127V567H288V0H249V61H248Q235 31 210 13T141 -5Q87 -5 58 26T28 126V567H68V127ZM452 612Q441 612 432 616T413 625T396 634T379 638Q366 638 361
630T355 609H329Q330 633 342 650T379 667Q391 667 401 663T419 654T436 645T452 641Q465 641 470 650T477 670H503Q502 645 490 629T452 612Z" />
<glyph unicode="&#x16a;" glyph-name="Umacron" horiz-adv-x="342" d="M313 678V151Q313 117 306 89T282 39T238 7T172 -5Q132 -5 105 6T61 39T37 88T29 151V678H70V148Q70 123 75 101T92 63T123 38T172 29Q200 29 219 38T251 63T268 101T274 148V678H313ZM351
746H505V719H351V746Z" />
<glyph unicode="&#x16b;" glyph-name="umacron" horiz-adv-x="319" d="M68 127Q68 28 154 28Q192 28 220 53T249 127V567H288V0H249V61H248Q235 31 210 13T141 -5Q87 -5 58 26T28 126V567H68V127ZM337 640H491V613H337V640Z" />
<glyph unicode="&#x16c;" glyph-name="Ubreve" horiz-adv-x="342" d="M313 678V151Q313 117 306 89T282 39T238 7T172 -5Q132 -5 105 6T61 39T37 88T29 151V678H70V148Q70 123 75 101T92 63T123 38T172 29Q200 29 219 38T251 63T268 101T274 148V678H313ZM508
782Q507 745 486 724T429 703Q394 703 371 724T347 782H377Q378 758 392 745T429 731Q452 731 465 744T480 782H508Z" />
<glyph unicode="&#x16d;" glyph-name="ubreve" horiz-adv-x="319" d="M68 127Q68 28 154 28Q192 28 220 53T249 127V567H288V0H249V61H248Q235 31 210 13T141 -5Q87 -5 58 26T28 126V567H68V127ZM494 676Q493 639 472 618T415 597Q380 597 357 618T333 676H363Q364
652 378 639T415 625Q438 625 451 638T466 676H494Z" />
<glyph unicode="&#x16e;" glyph-name="Uring" horiz-adv-x="342" d="M368 733Q368 757 384 774T427 792Q453 792 470 775T487 733Q487 708 470 691T427 674Q401 674 385 691T368 733ZM392 733Q392 717 401 706T427 695Q443 695 453 706T463 733Q463 749 453 759T427
770Q411 770 402 760T392 733ZM313 678V151Q313 117 306 89T282 39T238 7T172 -5Q132 -5 105 6T61 39T37 88T29 151V678H70V148Q70 123 75 101T92 63T123 38T172 29Q200 29 219 38T251 63T268 101T274 148V678H313Z" />
<glyph unicode="&#x16f;" glyph-name="uring" horiz-adv-x="319" d="M355 651Q355 675 371 692T414 710Q440 710 457 693T474 651Q474 626 457 609T414 592Q388 592 372 609T355 651ZM379 651Q379 635 388 624T414 613Q430 613 440 624T450 651Q450 667 440 677T414
688Q398 688 389 678T379 651ZM68 127Q68 28 154 28Q192 28 220 53T249 127V567H288V0H249V61H248Q235 31 210 13T141 -5Q87 -5 58 26T28 126V567H68V127Z" />
<glyph unicode="&#x170;" glyph-name="Uhungarumlaut" horiz-adv-x="342" d="M313 678V151Q313 117 306 89T282 39T238 7T172 -5Q132 -5 105 6T61 39T37 88T29 151V678H70V148Q70 123 75 101T92 63T123 38T172 29Q200 29 219 38T251 63T268 101T274 148V678H313ZM445
791L404 701H375L410 791H445ZM520 791L478 701H450L484 791H520Z" />
<glyph unicode="&#x171;" glyph-name="uhungarumlaut" horiz-adv-x="319" d="M68 127Q68 28 154 28Q192 28 220 53T249 127V567H288V0H249V61H248Q235 31 210 13T141 -5Q87 -5 58 26T28 126V567H68V127ZM431 685L390 595H361L396 685H431ZM506 685L464 595H436L470
685H506Z" />
<glyph unicode="&#x172;" glyph-name="Uogonek" horiz-adv-x="342" d="M313 678V151Q313 101 297 65T242 9L224 0Q214 -5 206 -11T191 -25T185 -42Q185 -58 208 -58H219V-90H204Q174 -90 161 -80T148 -52Q148 -35 158 -24T180 -5H172Q132 -5 105 6T61 39T37 88T29
151V678H70V148Q70 123 75 101T92 63T123 38T172 29Q200 29 219 38T251 63T268 101T274 148V678H313Z" />
<glyph unicode="&#x173;" glyph-name="uogonek" horiz-adv-x="319" d="M288 0Q277 -9 268 -19T258 -42Q258 -58 281 -58H291V-90H277Q247 -90 234 -80T221 -52Q221 -36 230 -25T249 -6V61H248Q235 31 210 13T141 -5Q87 -5 58 26T28 126V567H68V127Q68 28 154 28Q192
28 220 53T249 127V567H288V0Z" />
<glyph unicode="&#x174;" glyph-name="Wcircumflex" horiz-adv-x="492" d="M162 705V732L236 796H255L328 732V705L246 763L162 705ZM245 566L153 0H107L13 678H53L133 92H134L228 678H266L360 94H361L440 678H478L384 0H338L246 566H245Z" />
<glyph unicode="&#x175;" glyph-name="wcircumflex" horiz-adv-x="457" d="M145 594V621L219 685H238L311 621V594L229 652L145 594ZM450 567L357 0H316L229 473L141 0H100L6 567H46L123 90H124L212 567H248L336 90H337L413 567H450Z" />
<glyph unicode="&#x176;" glyph-name="Ycircumflex" horiz-adv-x="314" d="M178 258V0H137V258L9 678H50L159 317H160L266 678H306L178 258ZM331 705V732L405 796H424L497 732V705L415 763L331 705Z" />
<glyph unicode="&#x177;" glyph-name="ycircumflex" horiz-adv-x="294" d="M291 567L151 -11Q146 -33 139 -48T122 -72T95 -86T57 -90H32V-58H56Q85 -58 96 -46T116 -3L132 56H121L3 567H44L146 120H147L252 567H291ZM321 594V621L395 685H414L487 621V594L405
652L321 594Z" />
<glyph unicode="&#x178;" glyph-name="Ydieresis" horiz-adv-x="314" d="M178 258V0H137V258L9 678H50L159 317H160L266 678H306L178 258ZM354 756H392V716H354V756ZM435 756H473V716H435V756Z" />
<glyph unicode="&#x179;" glyph-name="Zacute" horiz-adv-x="302" d="M502 751L351 699V726L502 783V751ZM61 34H275V0H18V34L238 644H39V678H283V644L61 34Z" />
<glyph unicode="&#x17a;" glyph-name="zacute" horiz-adv-x="278" d="M487 645L336 593V620L487 677V645ZM61 33H253V0H20V33L216 534H34V567H257V534L61 33Z" />
<glyph unicode="&#x17b;" glyph-name="Zdotaccent" horiz-adv-x="302" d="M61 34H275V0H18V34L238 644H39V678H283V644L61 34ZM399 769H439V729H399V769Z" />
<glyph unicode="&#x17c;" glyph-name="zdotaccent" horiz-adv-x="278" d="M61 33H253V0H20V33L216 534H34V567H257V534L61 33ZM384 678H424V638H384V678Z" />
<glyph unicode="&#x17d;" glyph-name="Zcaron" horiz-adv-x="302" d="M501 792V766L427 702H408L335 766V792L417 734L501 792ZM61 34H275V0H18V34L238 644H39V678H283V644L61 34Z" />
<glyph unicode="&#x17e;" glyph-name="zcaron" horiz-adv-x="278" d="M485 686V660L411 596H392L319 660V686L401 628L485 686ZM61 33H253V0H20V33L216 534H34V567H257V534L61 33Z" />
<glyph unicode="&#x192;" glyph-name="florin" horiz-adv-x="229" d="M13 424H72L81 595Q83 639 103 658T172 678H206V645H174Q145 645 134 633T121 591L112 424H206V392H111L86 -90H47L71 392H13V424Z" />
<glyph unicode="&#x218;" glyph-name="Scommaaccent" horiz-adv-x="325" d="M438 -25L419 -90H390L401 -21H438V-25ZM164 -5Q92 -5 58 31T23 128V237H62V128Q62 82 87 56T164 29Q214 29 237 57T261 127V165Q261 206 244 235T187 302L118 369Q95 392 78 411T49
448T32 487T26 533V560Q26 617 61 650T158 683Q292 683 292 556V477H253V558Q253 606 230 627T158 649Q116 649 91 627T65 560V534Q65 514 70 498T86 467T110 437T143 403L212 336Q234 313 251 294T279 256T295 216T301 168V129Q301 101 293 77T268 34T225 6T164
-5Z" />
<glyph unicode="&#x219;" glyph-name="scommaaccent" horiz-adv-x="306" d="M429 -25L410 -90H381L392 -21H429V-25ZM281 124Q281 63 251 29T151 -5Q86 -5 55 31T24 128V183H61V127Q61 82 82 55T151 28Q200 28 221 52T243 122V140Q243 173 229 197T173 255L110
304Q68 338 48 367T28 439V455Q28 507 57 539T149 572Q214 572 244 540T274 444V400H236V446Q236 493 216 516T149 539Q105 539 85 517T65 457V440Q65 425 68 413T79 388T100 364T133 336L196 287Q221 267 237 251T263 218T277 183T281 143V124Z" />
<glyph unicode="&#x21a;" glyph-name="uni021A" horiz-adv-x="299" d="M424 -25L405 -90H376L387 -21H424V-25ZM13 678H286V644H170V0H129V644H13V678Z" />
<glyph unicode="&#x21b;" glyph-name="uni021B" horiz-adv-x="200" d="M387 -25L368 -90H339L350 -21H387V-25ZM12 567H57V678H96V567H179V536H96V83Q96 55 108 44T149 32H179V0H145Q96 0 77 20T57 85V536H12V567Z" />
<glyph unicode="&#x237;" glyph-name="uni0237" horiz-adv-x="100" d="M70 567V-24Q70 -59 53 -74T-4 -90H-13V-58H-7Q14 -58 22 -50T30 -23V567H70Z" />
<glyph unicode="&#x2c6;" glyph-name="circumflex" horiz-adv-x="400" d="M117 594V621L191 685H210L283 621V594L201 652L117 594Z" />
<glyph unicode="&#x2c7;" glyph-name="caron" horiz-adv-x="400" d="M283 686V660L209 596H190L117 660V686L199 628L283 686Z" />
<glyph unicode="&#x2d8;" glyph-name="breve" horiz-adv-x="400" d="M280 676Q279 639 258 618T201 597Q166 597 143 618T119 676H149Q150 652 164 639T201 625Q224 625 237 638T252 676H280Z" />
<glyph unicode="&#x2d9;" glyph-name="dotaccent" horiz-adv-x="400" d="M180 678H220V638H180V678Z" />
<glyph unicode="&#x2da;" glyph-name="ring" horiz-adv-x="400" d="M140 651Q140 675 156 692T199 710Q225 710 242 693T259 651Q259 626 242 609T199 592Q173 592 157 609T140 651ZM164 651Q164 635 173 624T199 613Q215 613 225 624T235 651Q235 667 225 677T199
688Q183 688 174 678T164 651Z" />
<glyph unicode="&#x2db;" glyph-name="ogonek" horiz-adv-x="400" d="M215 0Q204 -9 195 -19T185 -42Q185 -58 208 -58H218V-90H204Q174 -90 161 -80T148 -52Q148 -32 161 -19T185 0H215Z" />
<glyph unicode="&#x2dc;" glyph-name="tilde" horiz-adv-x="400" d="M235 612Q224 612 215 616T196 625T179 634T162 638Q149 638 144 630T138 609H112Q113 633 125 650T162 667Q174 667 184 663T202 654T219 645T235 641Q248 641 253 650T260 670H286Q285 645
273 629T235 612Z" />
<glyph unicode="&#x2dd;" glyph-name="hungarumlaut" horiz-adv-x="400" d="M222 685L181 595H152L187 685H222ZM297 685L255 595H227L261 685H297Z" />
</font>
</defs>
</svg>
