<?xml version="1.0" standalone="no"?> <!DOCTYPE svg PUBLIC "-//W3C//DTD SVG 1.0//EN" "http://www.w3.org/TR/2001/REC-SVG-20010904/DTD/svg10.dtd" > <svg xmlns="http://www.w3.org/2000/svg" width="100%" height="100%">
<defs >
<font horiz-adv-x="386" ><font-face
    font-family=""
    units-per-em="1000"
    panose-1="2 11 10 3 3 2 2 4 2 4"
    ascent="698"
    descent="-90"
    alphabetic="0" />
<missing-glyph horiz-adv-x="96" />
<glyph unicode=" " glyph-name="space" horiz-adv-x="96" />
<glyph unicode="!" glyph-name="exclam" horiz-adv-x="197" d="M21 149H176V0H21V149ZM13 678H184L133 191H63L13 678Z" />
<glyph unicode="&quot;" glyph-name="quotedbl" horiz-adv-x="312" d="M124 504H34L7 678H151L124 504ZM278 504H186L161 678H305L278 504Z" />
<glyph unicode="#" glyph-name="numbersign" horiz-adv-x="373" d="M115 678H205L186 501H222L241 678H330L311 501H363V386H299L292 322H345V207H279L257 0H168L190 207H154L132 0H42L64 207H10V322H77L84 386H29V501H96L115 678ZM167 322H203L210 386H174L167 322Z" />
<glyph unicode="$" glyph-name="dollar" horiz-adv-x="391" d="M137 734H258V680Q268 678 277 675Q311 664 332 643T362 590T372 520V477H223V530Q223 547 217 557T195 567Q179 567 173 558T166 532V520Q166 497 178 482T208 449L286 374Q335 326 358 284T382
187V162Q382 85 336 38Q306 8 255 -3V-65H134V-4Q118 -1 105 3Q71 16 50 38T20 90T11 155V237H162V146Q162 131 168 121T191 111Q206 111 212 121T219 146V172Q219 216 182 250L110 319Q84 344 66 364T35 407T17 454T11 512V526Q11 559 20 588T51 639T108 674Q121
679 137 682V734Z" />
<glyph unicode="%" glyph-name="percent" horiz-adv-x="574" d="M536 678L130 0H39L445 678H536ZM160 387Q124 387 97 398T52 429T25 476T16 533V542Q16 572 25 599T52 645T97 676T160 688Q196 688 222 677T267 647T294 601T303 544V531Q303 501 294 475T267 429T223
398T160 387ZM159 478Q173 478 177 488T182 513V562Q182 577 178 587T159 597Q144 597 140 587T136 562V513Q136 498 140 488T159 478ZM415 -10Q379 -10 352 1T307 32T280 79T271 136V145Q271 175 280 202T307 248T352 279T415 291Q451 291 477 280T522 250T549
204T558 147V134Q558 104 549 78T522 32T478 1T415 -10ZM414 81Q428 81 432 91T437 116V165Q437 180 433 190T414 200Q399 200 395 190T391 165V116Q391 101 395 91T414 81Z" />
<glyph unicode="&amp;" glyph-name="ampersand" horiz-adv-x="410" d="M382 0H263V89Q255 47 226 19T146 -9Q118 -9 94 0T51 27T23 73T13 139V248Q13 293 30 322T98 362Q57 374 40 403T22 475V525Q22 597 66 642T202 687Q294 687 333 643T372 514V470H224V526Q224
543 220 552T202 562Q187 562 183 553T178 526V456Q178 433 188 423T220 413H403V301H382V0ZM185 291Q179 281 179 261V152Q179 135 184 126T204 116Q218 116 222 125T227 152V301H212Q192 301 185 291Z" />
<glyph unicode="&apos;" glyph-name="quotesingle" horiz-adv-x="158" d="M124 504H34L7 678H151L124 504Z" />
<glyph unicode="(" glyph-name="parenleft" horiz-adv-x="262" d="M30 490Q30 548 45 587T90 650T159 686T250 698V606Q198 602 181 575T164 497V111Q164 61 181 34T250 2V-90Q200 -89 160 -78T90 -43T46 21T30 119V490Z" />
<glyph unicode=")" glyph-name="parenright" horiz-adv-x="262" d="M232 119Q232 61 217 22T172 -42T103 -78T12 -90V2Q64 6 81 33T98 111V497Q98 547 81 574T12 606V698Q62 697 102 686T172 651T216 587T232 490V119Z" />
<glyph unicode="*" glyph-name="asterisk" horiz-adv-x="302" d="M151 511L124 401L28 470L118 530L12 527L50 639L132 569L91 678H210L170 569L252 639L290 527L184 530L274 470L177 401L151 511Z" />
<glyph unicode="+" glyph-name="plus" horiz-adv-x="342" d="M13 394H112V501H230V394H329V280H230V172H112V280H13V394Z" />
<glyph unicode="," glyph-name="comma" horiz-adv-x="196" d="M179 125L113 -43H13L26 149H179V125Z" />
<glyph unicode="-" glyph-name="hyphen" horiz-adv-x="209" d="M11 376H198V254H11V376Z" />
<glyph unicode="." glyph-name="period" horiz-adv-x="197" d="M21 149H176V0H21V149Z" />
<glyph unicode="/" glyph-name="slash" horiz-adv-x="271" d="M266 698L117 -90H-10L139 698H266Z" />
<glyph unicode="0" glyph-name="zero" horiz-adv-x="406" d="M203 116Q217 116 221 125T226 152V526Q226 543 222 552T203 562Q189 562 185 553T180 526V152Q180 135 184 126T203 116ZM203 -9Q155 -9 120 5T61 45T27 106T16 185V493Q16 536 27 571T61 632T119
672T203 687Q251 687 286 673T344 633T379 572T390 493V185Q390 142 379 107T345 46T286 6T203 -9Z" />
<glyph unicode="1" glyph-name="one" horiz-adv-x="274" d="M251 678V0H85V466H84L12 400H10V561L118 678H251Z" />
<glyph unicode="2" glyph-name="two" horiz-adv-x="371" d="M13 135Q13 162 17 184T31 227T59 269T103 314L167 374Q187 393 194 413T202 465V533Q202 548 199 557T181 567Q167 567 164 558T160 533V448H13V521Q13 594 55 640T184 687Q275 687 316 644T357 525V469Q357
441 355 419T347 377T328 339T295 302L210 222Q190 203 180 184T170 135V122H350V0H13V135Z" />
<glyph unicode="3" glyph-name="three" d="M196 687Q286 687 326 642T366 525V473Q366 432 346 403T288 362Q335 351 353 322T372 248V153Q372 80 327 36T185 -9Q136 -9 103 4T50 41T22 98T13 172V262H162V150Q162 135 166 126T184 116Q198 116 202 125T206 150V267Q206
284 201 292T175 301H120V414H168Q184 414 197 422T210 451V528Q210 543 206 552T188 562Q174 562 170 553T166 528V443H17V500Q17 540 25 574T54 634T109 673T196 687Z" />
<glyph unicode="4" glyph-name="four" horiz-adv-x="406" d="M7 182L185 678H349V207H391V90H349V0H193V90H7V182ZM131 207H196V416H195L131 207Z" />
<glyph unicode="5" glyph-name="five" horiz-adv-x="390" d="M267 469Q289 469 309 460T344 432T367 384T376 316V150Q376 79 332 35T192 -9Q142 -9 109 4T56 40T28 97T19 171V246H167V151Q167 136 170 126T188 116Q202 116 206 126T210 151V314Q210 329 207 340T189
351Q175 351 172 341T168 314V292H19V678H356V556H171V427H172Q186 447 208 458T267 469Z" />
<glyph unicode="6" glyph-name="six" horiz-adv-x="402" d="M200 -9Q147 -9 112 6T55 46T25 107T16 181V492Q16 532 24 567T52 629T108 671T198 687Q256 687 292 673T347 634T372 576T379 506V476H228V520Q228 537 224 549T203 562Q186 562 182 550T178 520V380H179Q193
405 212 418T265 432Q325 432 356 388T388 259V169Q388 130 379 97T347 41T289 4T200 -9ZM202 113Q216 113 221 122T226 147V279Q226 294 221 303T202 313Q188 313 183 304T178 279V147Q178 132 183 123T202 113Z" />
<glyph unicode="7" glyph-name="seven" horiz-adv-x="339" d="M10 678H327V555H325L182 0H18L163 555H10V678Z" />
<glyph unicode="8" glyph-name="eight" horiz-adv-x="402" d="M200 -9Q150 -9 115 4T57 42T24 101T14 177V242Q14 318 56 356Q70 368 88 377Q76 383 67 391Q25 428 25 501V514Q25 595 67 641T200 687Q292 687 334 641T377 514V501Q377 428 334 391Q325 383 313
377Q332 368 345 356Q388 318 388 242V177Q388 136 378 102T346 43T287 5T200 -9ZM201 113Q215 113 219 122T224 147V290Q224 305 220 314T201 324Q187 324 183 315T178 290V147Q178 132 182 123T201 113ZM201 431Q215 431 219 440T223 465V534Q223 549 219 558T201
568Q187 568 183 559T179 534V465Q179 450 183 441T201 431Z" />
<glyph unicode="9" glyph-name="nine" horiz-adv-x="403" d="M203 687Q256 687 291 672T348 632T378 571T387 497V186Q387 146 379 111T349 49T292 7T202 -9Q143 -9 107 5T51 44T23 102T16 172V202H167V158Q167 141 173 129T196 116Q214 116 219 128T225 158V298H224Q210
273 191 260T138 246Q78 246 47 290T15 419V509Q15 548 24 581T56 637T114 674T203 687ZM201 565Q187 565 182 556T177 531V399Q177 384 182 375T201 365Q215 365 220 374T225 399V531Q225 546 220 555T201 565Z" />
<glyph unicode=":" glyph-name="colon" horiz-adv-x="197" d="M21 149H176V0H21V149ZM21 384H176V235H21V384Z" />
<glyph unicode=";" glyph-name="semicolon" horiz-adv-x="198" d="M26 384H181V235H26V384ZM179 125L113 -43H13L26 149H179V125Z" />
<glyph unicode="&lt;" glyph-name="less" horiz-adv-x="315" d="M14 376L295 508V377L183 334L295 292V157L14 293V376Z" />
<glyph unicode="=" glyph-name="equal" horiz-adv-x="368" d="M18 451H350V343H18V451ZM18 297H350V189H18V297Z" />
<glyph unicode="&gt;" glyph-name="greater" horiz-adv-x="315" d="M301 293L20 157V292L132 334L20 377V508L301 376V293Z" />
<glyph unicode="?" glyph-name="question" horiz-adv-x="377" d="M107 191V247Q107 271 108 288T112 320T124 348T148 376L186 415Q199 429 202 442T206 482V538Q206 551 202 559T184 567Q171 567 167 559T162 538V445H11V531Q11 605 57 646T189 687Q280 687 323
651T366 529V487Q366 465 364 449T357 420T344 394T324 368L266 303Q254 290 250 277T245 245V191H107ZM99 149H254V0H99V149Z" />
<glyph unicode="@" glyph-name="at" horiz-adv-x="522" d="M401 127Q401 97 421 97Q440 97 440 127V470Q440 517 428 549T392 600T335 627T262 635Q223 635 190 626T133 597T95 545T81 465V131Q81 42 131 3T270 -37H426V-90H270Q212 -90 166 -77T86 -37T36 32T18
131V465Q18 525 38 567T92 636T170 675T262 687Q310 687 354 676T431 639T484 572T504 470V134Q504 33 406 33Q358 33 332 50T298 96H296Q286 67 267 50T212 33Q168 33 143 62T117 153V414Q117 451 124 476T144 515T172 536T205 542Q233 542 251 530T280 494H282V536H401V127ZM246
145Q246 123 259 123Q272 123 272 145V429Q272 451 259 451Q246 451 246 429V145Z" />
<glyph unicode="A" glyph-name="A" horiz-adv-x="436" d="M-1 0L126 678H310L437 0H267L254 99H168L155 0H-1ZM210 423L183 217H238L211 423H210Z" />
<glyph unicode="B" glyph-name="B" horiz-adv-x="412" d="M16 678H216Q265 678 298 668T350 636T378 585T386 515V461Q386 376 319 351Q401 329 401 236V163Q401 124 392 94T362 42T307 11T223 0H16V678ZM204 122Q235 122 235 161V251Q235 291 203 291H182V122H204ZM182
556V404H197Q228 404 228 443V517Q228 556 198 556H182Z" />
<glyph unicode="C" glyph-name="C" horiz-adv-x="406" d="M211 -9Q114 -9 65 43T16 183V495Q16 583 65 635T211 687Q260 687 295 674T351 635T383 574T393 495V428H240V519Q240 537 235 549T211 562Q193 562 188 550T182 519V159Q182 141 187 129T211 116Q230
116 235 128T240 159V286H393V181Q393 138 383 103T352 43T295 5T211 -9Z" />
<glyph unicode="D" glyph-name="D" horiz-adv-x="421" d="M182 122H203Q223 122 231 132T239 162V518Q239 538 231 547T203 556H182V122ZM228 678Q277 678 311 665T366 626T396 565T405 483V195Q405 150 396 114T366 53T311 14T228 0H16V678H228Z" />
<glyph unicode="E" glyph-name="E" horiz-adv-x="324" d="M16 678H312V556H182V406H272V285H182V122H312V0H16V678Z" />
<glyph unicode="F" glyph-name="F" horiz-adv-x="322" d="M16 678H313V556H182V406H278V285H182V0H16V678Z" />
<glyph unicode="G" glyph-name="G" horiz-adv-x="412" d="M208 373H396V0H274V74Q261 33 233 12T163 -9Q90 -9 53 43T16 183V495Q16 583 65 635T211 687Q260 687 295 674T353 637T385 580T396 508V448H245V520Q245 537 239 549T213 562Q194 562 188 550T182 519V159Q182
141 187 129T211 116Q230 116 234 128T239 159V256H208V373Z" />
<glyph unicode="H" glyph-name="H" horiz-adv-x="420" d="M238 678H404V0H238V285H182V0H16V678H182V406H238V678Z" />
<glyph unicode="I" glyph-name="I" horiz-adv-x="198" d="M16 678H182V0H16V678Z" />
<glyph unicode="J" glyph-name="J" horiz-adv-x="385" d="M369 678V167Q369 127 359 95T328 39T271 4T185 -9Q132 -9 99 3T46 37T19 88T12 152V286H169V143Q169 116 186 116Q203 116 203 143V678H369Z" />
<glyph unicode="K" glyph-name="K" horiz-adv-x="431" d="M16 678H182V405L261 678H422L325 389L431 0H256L182 305V0H16V678Z" />
<glyph unicode="L" glyph-name="L" horiz-adv-x="307" d="M16 678H182V122H295V0H16V678Z" />
<glyph unicode="M" glyph-name="M" horiz-adv-x="500" d="M337 361H335L278 0H216L151 361H150V0H16V678H199L249 382H250L287 678H484V0H337V361Z" />
<glyph unicode="N" glyph-name="N" horiz-adv-x="398" d="M154 347V0H16V678H175L244 378V678H382V0H239L154 347Z" />
<glyph unicode="O" glyph-name="O" horiz-adv-x="422" d="M211 116Q230 116 235 128T240 159V519Q240 537 235 549T211 562Q193 562 188 550T182 519V159Q182 141 187 129T211 116ZM211 -9Q114 -9 65 43T16 183V495Q16 583 65 635T211 687Q308 687 357 635T406
495V183Q406 95 357 43T211 -9Z" />
<glyph unicode="P" glyph-name="P" horiz-adv-x="407" d="M16 678H219Q269 678 303 667T359 634T389 581T398 511V387Q398 348 389 317T359 265T304 232T219 220H182V0H16V678ZM182 556V335H200Q217 335 224 343T232 371V521Q232 556 200 556H182Z" />
<glyph unicode="Q" glyph-name="Q" horiz-adv-x="422" d="M157 -49V-1Q99 9 65 46Q16 98 16 186V495Q16 583 65 635T211 687Q308 687 357 635T406 495V186Q406 98 357 46Q345 34 332 24L399 13V-91L157 -49ZM211 112Q230 112 235 124T240 155V519Q240 537 235
549T211 562Q193 562 188 550T182 519V155Q182 137 187 125T211 112Z" />
<glyph unicode="R" glyph-name="R" horiz-adv-x="407" d="M16 678H215Q265 678 299 667T354 634T384 581T393 511V432Q393 394 384 367T354 323Q349 318 342 314L409 0H237L182 299V0H16V678ZM182 556V380H194Q212 380 219 389T227 416V521Q227 539 220 547T194 556H182Z" />
<glyph unicode="S" glyph-name="S" horiz-adv-x="391" d="M189 -9Q139 -9 105 3T49 38T19 90T10 155V233H161V146Q161 131 167 121T190 111Q205 111 211 121T218 146V172Q218 195 209 213T180 248L108 317Q82 342 64 363T33 407T16 455T10 512V526Q10 559 19 588T50
639T107 674T192 687Q242 687 276 676T331 643T361 590T371 520V473H222V530Q222 547 216 557T194 567Q178 567 172 558T165 532V522Q165 499 177 485T207 453L285 378Q334 330 357 286T381 187V162Q381 85 335 38T189 -9Z" />
<glyph unicode="T" glyph-name="T" horiz-adv-x="350" d="M8 678H342V556H259V0H91V556H8V678Z" />
<glyph unicode="U" glyph-name="U" horiz-adv-x="404" d="M388 678V172Q388 87 345 39T210 -9Q114 -9 65 39T16 172V678H182V156Q182 139 187 128T210 116Q228 116 233 127T238 156V678H388Z" />
<glyph unicode="V" glyph-name="V" horiz-adv-x="426" d="M427 678L301 0H123L-1 678H168L216 274H218L272 678H427Z" />
<glyph unicode="W" glyph-name="W" horiz-adv-x="584" d="M289 351L242 0H94L1 678H160L199 322H200L233 678H363L409 320H410L447 678H583L496 0H345L290 351H289Z" />
<glyph unicode="X" glyph-name="X" horiz-adv-x="433" d="M105 359L6 678H179L224 484L267 678H421L324 353L432 0H259L205 225L156 0H1L105 359Z" />
<glyph unicode="Y" glyph-name="Y" horiz-adv-x="420" d="M294 258V0H129V258L-2 678H170L220 461H221L268 678H422L294 258Z" />
<glyph unicode="Z" glyph-name="Z" horiz-adv-x="354" d="M184 122H339V0H12V122L167 556H25V678H339V556L184 122Z" />
<glyph unicode="[" glyph-name="bracketleft" horiz-adv-x="253" d="M30 698H241V605H164V2H241V-90H30V698Z" />
<glyph unicode="\" glyph-name="backslash" horiz-adv-x="271" d="M132 698L281 -90H154L5 698H132Z" />
<glyph unicode="]" glyph-name="bracketright" horiz-adv-x="254" d="M224 -90H12V2H90V605H12V698H224V-90Z" />
<glyph unicode="^" glyph-name="asciicircum" horiz-adv-x="332" d="M196 678L327 462H201L167 528L133 462H5L136 678H196Z" />
<glyph unicode="_" glyph-name="underscore" horiz-adv-x="329" d="M5 -3H324V-90H5V-3Z" />
<glyph unicode="`" glyph-name="grave" horiz-adv-x="400" d="M92 713L309 665V583L92 610V713Z" />
<glyph unicode="a" glyph-name="a" horiz-adv-x="392" d="M218 0V50H215Q204 29 185 10T125 -9Q11 -9 11 139V181Q11 217 22 242T52 284T97 315T153 340Q176 350 189 357T208 371T216 385T218 403V427Q218 457 195 457Q171 457 171 427V366H24V408Q24 446 33 477T64
530T119 564T203 576Q298 576 338 533T378 405V0H218ZM196 105Q211 105 214 115T218 140V258Q211 252 206 248T188 233Q177 223 174 211T171 176V140Q171 126 175 116T196 105Z" />
<glyph unicode="b" glyph-name="b" horiz-adv-x="396" d="M16 678H176V504H178Q189 533 212 554T279 576Q334 576 358 543T382 429V138Q382 58 357 25T276 -9Q232 -9 211 12T178 63H176V0H16V678ZM222 425Q222 438 218 446T200 454Q186 454 181 446Q177 439 176
430V137Q177 127 181 121Q186 113 200 113Q213 113 217 121T222 142V425Z" />
<glyph unicode="c" glyph-name="c" horiz-adv-x="384" d="M373 243V182Q373 85 331 38T198 -9Q110 -9 62 37T13 178V389Q13 483 61 529T198 576Q289 576 331 529T373 390V359H222V422Q222 437 218 447T198 457Q182 457 178 447T173 422V145Q173 130 177 120T199
110Q214 110 219 120T224 145V243H373Z" />
<glyph unicode="d" glyph-name="d" horiz-adv-x="396" d="M380 0H220V63H218Q207 34 186 13T120 -9Q65 -9 40 24T14 138V429Q14 509 38 542T117 576Q161 576 184 555T218 504H220V678H380V0ZM174 142Q174 129 178 121T196 113Q210 113 215 121T220 142V429Q219
439 215 446Q210 454 196 454Q183 454 179 446T174 425V142Z" />
<glyph unicode="e" glyph-name="e" d="M373 243V182Q373 85 331 38T198 -9Q110 -9 62 37T13 178V389Q13 483 61 529T198 576Q289 576 331 529T373 390V267H173V145Q173 130 177 120T199 110Q214 110 219 120T224 145V243H373ZM222 422Q222 437 218 447T198 457Q182
457 178 447T173 422V371H222V422Z" />
<glyph unicode="f" glyph-name="f" horiz-adv-x="258" d="M44 0V456H6V567H44V575Q44 629 74 653T171 678H252V590H219Q204 590 204 575V567H252V456H204V0H44Z" />
<glyph unicode="g" glyph-name="g" horiz-adv-x="396" d="M380 567V90Q380 49 371 15T340 -45T282 -85T194 -99Q144 -99 110 -88T54 -57T23 -11T13 47V72H158V57Q158 40 164 30T190 20Q207 20 213 32T220 66V163H218Q207 134 186 113T120 91Q65 91 40 124T14 238V429Q14
509 38 542T117 576Q161 576 184 555T218 504H220V567H380ZM174 242Q174 229 178 221T196 213Q210 213 215 221T220 242V429Q219 439 215 446Q210 454 196 454Q183 454 179 446T174 425V242Z" />
<glyph unicode="h" glyph-name="h" horiz-adv-x="396" d="M222 425Q222 438 218 446T200 454Q186 454 181 446Q177 439 176 430V0H16V678H176V504H178Q189 533 212 554T279 576Q334 576 358 543T382 429V0H222V425Z" />
<glyph unicode="i" glyph-name="i" horiz-adv-x="192" d="M16 567H176V0H16V567ZM16 678H176V584H16V678Z" />
<glyph unicode="j" glyph-name="j" horiz-adv-x="192" d="M176 567V22Q176 -10 168 -31T140 -66T89 -84T11 -90H-8V-5H-1Q16 -5 16 15V567H176ZM16 678H176V584H16V678Z" />
<glyph unicode="k" glyph-name="k" horiz-adv-x="399" d="M397 567L313 325L401 0H233L176 238V0H16V678H176V352L241 567H397Z" />
<glyph unicode="l" glyph-name="l" horiz-adv-x="192" d="M16 678H176V0H16V678Z" />
<glyph unicode="m" glyph-name="m" horiz-adv-x="598" d="M424 425Q424 438 420 446T403 454Q389 454 384 446Q381 439 380 429V0H220V425Q220 438 216 446T199 454Q185 454 180 446Q177 439 176 430V0H16V567H176V504H178Q189 533 211 554T278 576Q333 576 356
542Q367 528 372 504H375Q386 532 410 554T482 576Q537 576 560 543T584 429V0H424V425Z" />
<glyph unicode="n" glyph-name="n" horiz-adv-x="396" d="M222 425Q222 438 218 446T200 454Q186 454 181 446Q177 439 176 430V0H16V567H176V504H178Q189 533 212 554T279 576Q334 576 358 543T382 429V0H222V425Z" />
<glyph unicode="o" glyph-name="o" horiz-adv-x="396" d="M198 576Q289 576 336 530T383 389V178Q383 84 336 38T198 -9Q110 -9 62 37T13 178V389Q13 483 61 529T198 576ZM198 457Q182 457 178 447T173 422V145Q173 130 177 120T198 110Q213 110 218 120T223 145V422Q223
437 218 447T198 457Z" />
<glyph unicode="p" glyph-name="p" horiz-adv-x="396" d="M16 567H176V504H178Q189 533 212 554T279 576Q334 576 358 543T382 429V138Q382 58 357 25T276 -9Q232 -9 211 12T178 63H176V-90H16V567ZM222 425Q222 438 218 446T200 454Q186 454 181 446Q177 439
176 430V137Q177 127 181 121Q186 113 200 113Q213 113 217 121T222 142V425Z" />
<glyph unicode="q" glyph-name="q" horiz-adv-x="396" d="M380 -90H220V63H218Q207 34 186 13T120 -9Q65 -9 40 24T14 138V429Q14 509 38 542T117 576Q161 576 184 555T218 504H220V567H380V-90ZM174 142Q174 129 178 121T196 113Q210 113 215 121T220 142V429Q219
439 215 446Q210 454 196 454Q183 454 179 446T174 425V142Z" />
<glyph unicode="r" glyph-name="r" horiz-adv-x="274" d="M264 394H207Q186 394 181 381Q177 370 176 356V0H16V567H176V504H178Q181 511 187 522T203 544T229 563T264 572V394Z" />
<glyph unicode="s" glyph-name="s" horiz-adv-x="363" d="M353 151Q353 79 311 35T180 -9Q94 -9 52 34T9 157V197H150V145Q150 130 155 120T178 110Q192 110 197 120T203 145V154Q203 169 191 183T142 225L109 249Q61 284 37 323T13 414V426Q13 459 23 486T54
534T108 565T187 576Q234 576 265 565T315 532T342 481T350 414V392H211V421Q211 436 207 446T187 457Q171 457 167 447T162 428V426Q162 411 171 399T203 369L236 345Q267 322 289 303T325 263T346 219T353 166V151Z" />
<glyph unicode="t" glyph-name="t" horiz-adv-x="278" d="M6 567H44V678H204V567H267V456H204V153Q204 136 212 127T241 118H267V0H207Q160 0 129 8T79 33T52 78T44 146V456H6V567Z" />
<glyph unicode="u" glyph-name="u" horiz-adv-x="396" d="M174 142Q174 129 178 121T196 113Q210 113 215 121T220 142V567H380V0H220V63H218Q207 34 184 13T117 -9Q62 -9 38 24T14 138V567H174V142Z" />
<glyph unicode="v" glyph-name="v" horiz-adv-x="382" d="M384 567L279 0H103L-2 567H163L200 241H201L240 567H384Z" />
<glyph unicode="w" glyph-name="w" horiz-adv-x="521" d="M521 567L439 0H299L264 296L221 0H83L0 567H162L176 290H177L215 567H327L366 290H367L380 567H521Z" />
<glyph unicode="x" glyph-name="x" horiz-adv-x="382" d="M374 567L294 301L388 0H225L181 193L141 0H-6L83 308L4 567H166L194 410L229 567H374Z" />
<glyph unicode="y" glyph-name="y" horiz-adv-x="371" d="M373 567L273 18Q260 -42 222 -66T108 -90H61V26H114Q126 26 132 30T140 44L141 48H94L-2 567H161L189 264H190L231 567H373Z" />
<glyph unicode="z" glyph-name="z" horiz-adv-x="312" d="M171 121H302V0H10V115L141 449H17V567H300V452L171 121Z" />
<glyph unicode="{" glyph-name="braceleft" horiz-adv-x="264" d="M12 257V351H16Q42 351 55 362T64 399L47 523Q41 563 47 595T75 651T132 686T225 698H252V606H217Q194 606 185 590T178 549L197 416Q203 368 180 341T120 304Q156 294 179 267T197 192L178 59Q175
35 184 19T217 2H252V-90H225Q169 -90 133 -78T75 -43T48 12T47 85L64 209Q68 235 55 246T16 257H12Z" />
<glyph unicode="|" glyph-name="bar" horiz-adv-x="177" d="M152 698V-90H25V698H152Z" />
<glyph unicode="}" glyph-name="braceright" horiz-adv-x="264" d="M252 351V257H248Q222 257 209 246T200 209L217 85Q223 44 217 12T189 -43T131 -78T39 -90H12V2H47Q70 2 79 18T86 59L67 192Q61 240 84 267T144 304Q108 314 85 341T67 416L86 549Q89 573 80
589T47 606H12V698H39Q94 698 131 686T189 651T216 596T217 523L200 399Q196 373 209 362T248 351H252Z" />
<glyph unicode="~" glyph-name="asciitilde" horiz-adv-x="285" d="M5 248Q7 314 29 348T102 383Q127 383 145 372T177 361Q182 361 184 364T187 379H280Q278 313 258 279T184 244Q172 244 162 247T141 255T124 262T110 266Q99 266 99 248H5Z" />
<glyph unicode="&#xa0;" glyph-name="uni00A0" horiz-adv-x="96" />
<glyph unicode="&#xa1;" glyph-name="exclamdown" horiz-adv-x="197" d="M176 439H21V588H176V439ZM184 -90H13L64 397H134L184 -90Z" />
<glyph unicode="&#xa2;" glyph-name="cent" horiz-adv-x="384" d="M373 243V182Q373 85 331 38Q302 5 250 -4V-65H139V-3Q92 8 61 37Q13 84 13 178V389Q13 483 61 529Q93 560 142 570V635H253V571Q303 560 331 529Q373 482 373 390V359H222V422Q222 437 218 447T198
457Q182 457 178 447T173 422V145Q173 130 177 120T199 110Q214 110 219 120T224 145V243H373Z" />
<glyph unicode="&#xa3;" glyph-name="sterling" horiz-adv-x="404" d="M7 373H42V519Q42 597 85 642T219 687Q308 687 350 642T392 519V448H243V536Q243 551 239 559T222 567Q209 567 205 559T201 536V373H312V263H201V122H388V0H42V263H7V373Z" />
<glyph unicode="&#xa5;" glyph-name="yen" horiz-adv-x="420" d="M391 199V125H294V0H129V125H34V199H129V226H34V300H129V302L-2 678H170L220 478H221L268 678H422L294 302V300H391V226H294V199H391Z" />
<glyph unicode="&#xa6;" glyph-name="brokenbar" horiz-adv-x="177" d="M25 -90V276H152V-90H25ZM152 698V343H25V698H152Z" />
<glyph unicode="&#xa7;" glyph-name="section" horiz-adv-x="400" d="M345 161Q375 127 375 69V55Q375 -16 332 -57T200 -99Q115 -99 70 -59T25 65V92H167V60Q167 40 177 30T203 20Q220 20 229 28T239 55V57Q239 70 232 79T199 102L96 159Q48 183 29 214T9 294Q9
342 34 368T91 403V405Q70 421 55 440Q27 476 27 536V547Q27 609 71 648T200 687Q286 687 329 649T372 523V504H236V533Q236 573 197 573Q179 573 171 564T162 541V540Q162 529 166 521T188 502L303 440Q350 416 370 388T391 317Q391 289 384 269T366 234T340 211T309
197V195Q329 180 345 161ZM154 353Q145 347 145 324Q145 307 153 294T194 264L228 244Q235 246 240 249Q255 257 255 282Q255 299 247 309T213 333L167 359Q160 357 154 353Z" />
<glyph unicode="&#xa8;" glyph-name="dieresis" horiz-adv-x="400" d="M65 678H191V589H65V678ZM209 678H336V589H209V678Z" />
<glyph unicode="&#xa9;" glyph-name="copyright" horiz-adv-x="418" d="M398 317Q398 213 351 159T208 105Q114 105 67 159T20 317V349Q20 454 67 508T208 562Q304 562 351 508T398 349V317ZM56 317Q56 226 93 180T208 134Q287 134 324 180T362 317V349Q362 440
325 486T208 532Q130 532 93 486T56 349V317ZM303 318V280Q303 238 281 212T210 185Q162 185 138 212T114 281V382Q114 424 138 450T210 477Q258 477 280 451T303 382V362H220V397Q220 412 210 412Q205 412 202 409T199 397V265Q199 250 211 250Q223 250 223 265V318H303Z"
/>
<glyph unicode="&#xaa;" glyph-name="ordfeminine" horiz-adv-x="337" d="M183 183V223H179Q175 217 169 209T153 193T132 180T102 175Q51 175 31 205T10 302V346Q10 377 19 398T43 435T80 460T127 481Q146 490 157 496T174 508T181 520T183 537V553Q183 578 167
578Q150 578 150 553V512H26V538Q26 571 33 598T58 644T103 675T172 686Q250 686 287 649T324 540V183H183ZM168 277Q183 277 183 300V402Q179 400 174 397T165 390Q157 384 155 376T152 350V300Q152 277 168 277Z" />
<glyph unicode="&#xab;" glyph-name="guillemotleft" horiz-adv-x="324" d="M172 378L122 232L172 86H64L10 232L64 378H172ZM314 378L264 232L314 86H206L152 232L206 378H314Z" />
<glyph unicode="&#xac;" glyph-name="logicalnot" horiz-adv-x="500" />
<glyph unicode="&#xae;" glyph-name="registered" horiz-adv-x="418" d="M398 442Q398 338 351 284T208 230Q114 230 67 284T20 442V474Q20 579 67 633T208 687Q304 687 351 633T398 474V442ZM56 442Q56 351 93 305T208 259Q287 259 324 305T362 442V474Q362 565
325 611T208 657Q130 657 93 611T56 474V442ZM127 605H217Q263 605 281 586T299 530V511Q299 469 280 453Q276 450 272 447L302 318H227L200 441V318H127V605ZM200 550V481H210Q227 481 227 497V534Q227 550 210 550H200Z" />
<glyph unicode="&#xaf;" glyph-name="macron" horiz-adv-x="400" d="M81 678H319V597H81V678Z" />
<glyph unicode="&#xb0;" glyph-name="degree" horiz-adv-x="209" d="M11 592Q11 629 36 655T104 681Q145 681 171 655T198 592Q198 554 172 529T104 503Q62 503 37 528T11 592ZM71 592Q71 577 79 567T104 556Q121 556 129 566T138 592Q138 607 130 617T104 628Q87
628 79 618T71 592Z" />
<glyph unicode="&#xb1;" glyph-name="plusminus" horiz-adv-x="500" />
<glyph unicode="&#xb2;" glyph-name="twosuperior" horiz-adv-x="211" d="M19 457Q19 491 30 507T64 540L95 561Q102 566 108 571T114 589V602Q114 619 103 619Q92 619 92 602V581H18V604Q18 638 37 660T106 683Q151 683 171 662T191 602V583Q191 564 186 549T157
518L117 490Q105 482 105 468V465H189V399H19V457Z" />
<glyph unicode="&#xb3;" glyph-name="threesuperior" horiz-adv-x="213" d="M102 682Q152 682 170 659T188 601V593Q188 576 181 563T154 545Q175 541 184 526T193 493V472Q193 434 174 414T103 393Q53 393 35 413T17 472V500H90V472Q90 464 92 460T102 455Q113
455 113 472V496Q113 507 107 511T90 515H69V568H90Q101 568 107 572T113 589V602Q113 619 102 619Q94 619 92 615T90 602V584H16V601Q16 635 34 658T102 682Z" />
<glyph unicode="&#xb4;" glyph-name="acute" horiz-adv-x="400" d="M312 610L95 583V665L312 713V610Z" />
<glyph unicode="&#xb6;" glyph-name="paragraph" horiz-adv-x="392" d="M129 0V286Q77 288 45 318Q11 351 11 430V534Q11 574 19 601T46 646T95 670T167 678H376V0H270V579H235V0H129Z" />
<glyph unicode="&#xb7;" glyph-name="periodcentered" horiz-adv-x="195" d="M20 413H175V264H20V413Z" />
<glyph unicode="&#xb8;" glyph-name="cedilla" horiz-adv-x="412" d="M133 -71Q153 -69 158 -65T163 -55Q163 -50 159 -47T148 -44H146V0H203V-17Q223 -21 235 -29T247 -55Q247 -80 222 -94T133 -108V-71Z" />
<glyph unicode="&#xb9;" glyph-name="onesuperior" horiz-adv-x="182" d="M147 676V399H57V575H56L21 550H20V630L71 676H147Z" />
<glyph unicode="&#xba;" glyph-name="ordmasculine" horiz-adv-x="343" d="M172 175Q132 175 102 186T52 219T21 268T11 331V530Q11 598 51 642T172 686Q252 686 292 642T332 530V331Q332 297 322 269T292 219T242 187T172 175ZM172 281Q183 281 186 290T190 313V548Q190
562 187 571T172 580Q160 580 157 571T153 548V313Q153 299 156 290T172 281Z" />
<glyph unicode="&#xbb;" glyph-name="guillemotright" horiz-adv-x="324" d="M261 378L314 232L261 86H152L203 232L152 378H261ZM118 378L172 232L118 86H10L61 232L10 378H118Z" />
<glyph unicode="&#xbc;" glyph-name="onequarter" horiz-adv-x="245" d="M10 366H237V312H10V366ZM166 676V399H76V575H75L40 550H39V630L90 676H166ZM10 78L97 279H187V88H209V32H187V0H101V32H10V78ZM76 88H101V166H100L76 88Z" />
<glyph unicode="&#xbd;" glyph-name="onehalf" horiz-adv-x="245" d="M8 366H237V312H8V366ZM164 676V399H74V575H73L38 550H37V630L88 676H164ZM33 58Q33 92 44 108T78 141L109 162Q116 167 122 172T128 190V203Q128 220 117 220Q106 220 106 203V182H32V205Q32
239 51 261T120 284Q165 284 185 263T205 203V184Q205 165 200 150T171 119L131 91Q119 83 119 69V66H203V0H33V58Z" />
<glyph unicode="&#xbe;" glyph-name="threequarters" horiz-adv-x="236" d="M8 366H228V312H8V366ZM113 682Q163 682 181 659T199 601V593Q199 576 192 563T165 545Q186 541 195 527T204 494V473Q204 435 185 415T114 394Q64 394 46 414T28 473V501H101V473Q101
465 103 461T113 456Q124 456 124 473V497Q124 508 118 512T101 516H80V568H101Q112 568 118 572T124 589V602Q124 619 113 619Q105 619 103 615T101 602V584H27V601Q27 635 45 658T113 682ZM15 78L102 279H192V88H214V32H192V0H106V32H15V78ZM81 88H106V166H105L81
88Z" />
<glyph unicode="&#xbf;" glyph-name="questiondown" horiz-adv-x="377" d="M270 397V341Q270 317 269 300T265 268T253 240T229 212L191 173Q178 159 175 146T171 106V50Q171 37 175 29T193 21Q206 21 210 29T215 50V143H366V57Q366 -17 320 -58T188 -99Q97 -99
54 -63T11 59V101Q11 123 13 139T20 168T33 194T53 220L111 285Q123 298 127 311T132 343V397H270ZM278 439H123V588H278V439Z" />
<glyph unicode="&#xc0;" glyph-name="Agrave" horiz-adv-x="436" d="M-1 0L126 678H310L437 0H267L254 99H168L155 0H-1ZM210 423L183 217H238L211 423H210ZM107 823L324 775V693L107 720V823Z" />
<glyph unicode="&#xc1;" glyph-name="Aacute" horiz-adv-x="436" d="M-1 0L126 678H310L437 0H267L254 99H168L155 0H-1ZM210 423L183 217H238L211 423H210ZM328 720L111 693V775L328 823V720Z" />
<glyph unicode="&#xc2;" glyph-name="Acircumflex" horiz-adv-x="436" d="M-1 0L126 678H310L437 0H267L254 99H168L155 0H-1ZM210 423L183 217H238L211 423H210ZM97 698V765L190 819H241L335 765V698L217 728L97 698Z" />
<glyph unicode="&#xc3;" glyph-name="Atilde" horiz-adv-x="436" d="M-1 0L126 678H310L437 0H267L254 99H168L155 0H-1ZM210 423L183 217H238L211 423H210ZM95 705Q97 750 114 778T179 806Q190 806 201 803T223 796T242 789T255 785Q261 785 262 789T264 801H340Q338
756 321 727T256 698Q244 698 232 701T210 709T191 716T179 720Q170 720 170 705H95Z" />
<glyph unicode="&#xc4;" glyph-name="Adieresis" horiz-adv-x="436" d="M-1 0L126 678H310L437 0H267L254 99H168L155 0H-1ZM210 423L183 217H238L211 423H210ZM81 788H207V699H81V788ZM225 788H352V699H225V788Z" />
<glyph unicode="&#xc5;" glyph-name="Aring" horiz-adv-x="436" d="M-1 0L126 678H310L437 0H267L254 99H168L155 0H-1ZM210 423L183 217H238L211 423H210ZM128 777Q128 812 152 836T216 861Q255 861 279 837T304 777Q304 742 280 718T216 694Q177 694 153 718T128
777ZM183 777Q183 763 192 754T216 744Q231 744 240 753T249 777Q249 792 240 801T216 811Q201 811 192 801T183 777Z" />
<glyph unicode="&#xc6;" glyph-name="AE" horiz-adv-x="554" d="M156 678H542V556H403V406H503V285H403V122H542V0H242V99H168L151 0H-3L156 678ZM242 217V508L189 217H242Z" />
<glyph unicode="&#xc7;" glyph-name="Ccedilla" horiz-adv-x="406" d="M152 -71Q175 -69 178 -65T182 -55Q182 -44 170 -44H169V-6Q93 5 55 55T16 183V495Q16 583 65 635T211 687Q260 687 295 674T351 635T383 574T393 495V428H240V519Q240 537 235 549T211 562Q193
562 188 550T182 519V159Q182 141 187 129T211 116Q230 116 235 128T240 159V286H393V181Q393 97 355 47T226 -9V-17Q245 -22 255 -30T266 -55Q266 -80 241 -94T152 -108V-71Z" />
<glyph unicode="&#xc8;" glyph-name="Egrave" horiz-adv-x="324" d="M16 678H312V556H182V406H272V285H182V122H312V0H16V678ZM311 823L528 775V693L311 720V823Z" />
<glyph unicode="&#xc9;" glyph-name="Eacute" horiz-adv-x="324" d="M16 678H312V556H182V406H272V285H182V122H312V0H16V678ZM532 722L315 695V777L532 825V722Z" />
<glyph unicode="&#xca;" glyph-name="Ecircumflex" horiz-adv-x="324" d="M16 678H312V556H182V406H272V285H182V122H312V0H16V678ZM302 698V765L395 819H446L540 765V698L422 728L302 698Z" />
<glyph unicode="&#xcb;" glyph-name="Edieresis" horiz-adv-x="324" d="M16 678H312V556H182V406H272V285H182V122H312V0H16V678ZM285 788H411V699H285V788ZM429 788H556V699H429V788Z" />
<glyph unicode="&#xcc;" glyph-name="Igrave" horiz-adv-x="198" d="M2 841L195 785V693L2 728V841ZM16 678H182V0H16V678Z" />
<glyph unicode="&#xcd;" glyph-name="Iacute" horiz-adv-x="198" d="M195 728L2 693V785L195 841V728ZM16 678H182V0H16V678Z" />
<glyph unicode="&#xce;" glyph-name="Icircumflex" horiz-adv-x="198" d="M16 678H182V0H16V678ZM-6 690V767L73 826H124L204 767V690L100 725L-6 690Z" />
<glyph unicode="&#xcf;" glyph-name="Idieresis" horiz-adv-x="198" d="M16 678H182V0H16V678ZM-11 814H85V707H-11V814ZM111 814H208V707H111V814Z" />
<glyph unicode="&#xd0;" glyph-name="Eth" horiz-adv-x="433" d="M2 406H30V678H240Q290 678 324 664T378 625T408 565T417 487V191Q417 149 408 114T379 54T324 14T240 0H30V285H2V406ZM219 122Q252 122 252 164V516Q252 556 219 556H196V406H229V285H196V122H219Z" />
<glyph unicode="&#xd1;" glyph-name="Ntilde" horiz-adv-x="398" d="M154 347V0H16V678H175L244 378V678H382V0H239L154 347ZM76 705Q78 750 95 778T160 806Q171 806 182 803T204 796T223 789T236 785Q242 785 243 789T245 801H321Q319 756 302 727T237 698Q225
698 213 701T191 709T172 716T160 720Q151 720 151 705H76Z" />
<glyph unicode="&#xd2;" glyph-name="Ograve" horiz-adv-x="422" d="M211 116Q230 116 235 128T240 159V519Q240 537 235 549T211 562Q193 562 188 550T182 519V159Q182 141 187 129T211 116ZM211 -9Q114 -9 65 43T16 183V495Q16 583 65 635T211 687Q308 687 357
635T406 495V183Q406 95 357 43T211 -9ZM113 823L330 775V693L113 720V823Z" />
<glyph unicode="&#xd3;" glyph-name="Oacute" horiz-adv-x="422" d="M211 116Q230 116 235 128T240 159V519Q240 537 235 549T211 562Q193 562 188 550T182 519V159Q182 141 187 129T211 116ZM211 -9Q114 -9 65 43T16 183V495Q16 583 65 635T211 687Q308 687 357
635T406 495V183Q406 95 357 43T211 -9ZM317 720L100 693V775L317 823V720Z" />
<glyph unicode="&#xd4;" glyph-name="Ocircumflex" horiz-adv-x="422" d="M211 116Q230 116 235 128T240 159V519Q240 537 235 549T211 562Q193 562 188 550T182 519V159Q182 141 187 129T211 116ZM211 -9Q114 -9 65 43T16 183V495Q16 583 65 635T211 687Q308
687 357 635T406 495V183Q406 95 357 43T211 -9ZM90 698V765L183 819H234L328 765V698L210 728L90 698Z" />
<glyph unicode="&#xd5;" glyph-name="Otilde" horiz-adv-x="422" d="M211 116Q230 116 235 128T240 159V519Q240 537 235 549T211 562Q193 562 188 550T182 519V159Q182 141 187 129T211 116ZM211 -9Q114 -9 65 43T16 183V495Q16 583 65 635T211 687Q308 687 357
635T406 495V183Q406 95 357 43T211 -9ZM84 705Q86 750 103 778T168 806Q179 806 190 803T212 796T231 789T244 785Q250 785 251 789T253 801H329Q327 756 310 727T245 698Q233 698 221 701T199 709T180 716T168 720Q159 720 159 705H84Z" />
<glyph unicode="&#xd6;" glyph-name="Odieresis" horiz-adv-x="422" d="M211 116Q230 116 235 128T240 159V519Q240 537 235 549T211 562Q193 562 188 550T182 519V159Q182 141 187 129T211 116ZM211 -9Q114 -9 65 43T16 183V495Q16 583 65 635T211 687Q308 687
357 635T406 495V183Q406 95 357 43T211 -9ZM76 788H202V699H76V788ZM220 788H347V699H220V788Z" />
<glyph unicode="&#xd7;" glyph-name="multiply" horiz-adv-x="365" d="M21 256L103 336L21 416L102 491L182 413L261 490L341 416L260 337L342 257L261 182L181 260L101 182L21 256Z" />
<glyph unicode="&#xd8;" glyph-name="Oslash" horiz-adv-x="422" d="M211 -9Q130 -9 82 27L62 -12H4L45 67Q16 114 16 183V495Q16 583 65 635T211 687Q291 687 338 651L358 692H415L375 611Q406 564 406 495V183Q406 95 357 43T211 -9ZM242 521Q242 540 236 552T211
564Q193 564 187 552T181 521V323L242 467V521ZM211 114Q230 114 236 126T242 157V346L181 204V157Q181 138 187 126T211 114Z" />
<glyph unicode="&#xd9;" glyph-name="Ugrave" horiz-adv-x="404" d="M388 678V172Q388 87 345 39T210 -9Q114 -9 65 39T16 172V678H182V156Q182 139 187 128T210 116Q228 116 233 127T238 156V678H388ZM96 823L313 775V693L96 720V823Z" />
<glyph unicode="&#xda;" glyph-name="Uacute" horiz-adv-x="404" d="M388 678V172Q388 87 345 39T210 -9Q114 -9 65 39T16 172V678H182V156Q182 139 187 128T210 116Q228 116 233 127T238 156V678H388ZM321 720L104 693V775L321 823V720Z" />
<glyph unicode="&#xdb;" glyph-name="Ucircumflex" horiz-adv-x="404" d="M388 678V172Q388 87 345 39T210 -9Q114 -9 65 39T16 172V678H182V156Q182 139 187 128T210 116Q228 116 233 127T238 156V678H388ZM88 698V765L181 819H232L326 765V698L208 728L88 698Z" />
<glyph unicode="&#xdc;" glyph-name="Udieresis" horiz-adv-x="404" d="M388 678V172Q388 87 345 39T210 -9Q114 -9 65 39T16 172V678H182V156Q182 139 187 128T210 116Q228 116 233 127T238 156V678H388ZM73 788H199V699H73V788ZM217 788H344V699H217V788Z" />
<glyph unicode="&#xdd;" glyph-name="Yacute" horiz-adv-x="420" d="M294 258V0H129V258L-2 678H170L220 461H221L268 678H422L294 258ZM322 720L105 693V775L322 823V720Z" />
<glyph unicode="&#xde;" glyph-name="Thorn" horiz-adv-x="407" d="M16 678H181V578H218Q268 578 302 567T358 533T388 480T397 410V293Q397 254 388 223T358 170T303 136T218 124H181V0H16V678ZM181 455V239H199Q231 239 231 279V416Q231 455 199 455H181Z" />
<glyph unicode="&#xdf;" glyph-name="germandbls" horiz-adv-x="402" d="M176 0H16V517Q16 608 63 647T207 687Q252 687 284 677T336 651T365 612T375 566Q375 546 372 530T361 501T336 481T294 468Q349 461 369 435T389 348V158Q389 80 356 40T241 0H193V117H198Q215
117 222 125T230 154V370Q230 391 224 399T197 407H193V517H194Q217 517 225 524T234 549Q234 578 206 578Q176 578 176 537V0Z" />
<glyph unicode="&#xe0;" glyph-name="agrave" horiz-adv-x="392" d="M218 0V50H215Q204 29 185 10T125 -9Q11 -9 11 139V181Q11 217 22 242T52 284T97 315T153 340Q176 350 189 357T208 371T216 385T218 403V427Q218 457 195 457Q171 457 171 427V366H24V408Q24
446 33 477T64 530T119 564T203 576Q298 576 338 533T378 405V0H218ZM196 105Q211 105 214 115T218 140V258Q211 252 206 248T188 233Q177 223 174 211T171 176V140Q171 126 175 116T196 105ZM103 713L320 665V583L103 610V713Z" />
<glyph unicode="&#xe1;" glyph-name="aacute" horiz-adv-x="392" d="M218 0V50H215Q204 29 185 10T125 -9Q11 -9 11 139V181Q11 217 22 242T52 284T97 315T153 340Q176 350 189 357T208 371T216 385T218 403V427Q218 457 195 457Q171 457 171 427V366H24V408Q24
446 33 477T64 530T119 564T203 576Q298 576 338 533T378 405V0H218ZM196 105Q211 105 214 115T218 140V258Q211 252 206 248T188 233Q177 223 174 211T171 176V140Q171 126 175 116T196 105ZM319 610L102 583V665L319 713V610Z" />
<glyph unicode="&#xe2;" glyph-name="acircumflex" horiz-adv-x="392" d="M218 0V50H215Q204 29 185 10T125 -9Q11 -9 11 139V181Q11 217 22 242T52 284T97 315T153 340Q176 350 189 357T208 371T216 385T218 403V427Q218 457 195 457Q171 457 171 427V366H24V408Q24
446 33 477T64 530T119 564T203 576Q298 576 338 533T378 405V0H218ZM196 105Q211 105 214 115T218 140V258Q211 252 206 248T188 233Q177 223 174 211T171 176V140Q171 126 175 116T196 105ZM87 588V655L180 709H231L325 655V588L207 618L87 588Z" />
<glyph unicode="&#xe3;" glyph-name="atilde" horiz-adv-x="392" d="M218 0V50H215Q204 29 185 10T125 -9Q11 -9 11 139V181Q11 217 22 242T52 284T97 315T153 340Q176 350 189 357T208 371T216 385T218 403V427Q218 457 195 457Q171 457 171 427V366H24V408Q24
446 33 477T64 530T119 564T203 576Q298 576 338 533T378 405V0H218ZM196 105Q211 105 214 115T218 140V258Q211 252 206 248T188 233Q177 223 174 211T171 176V140Q171 126 175 116T196 105ZM84 595Q86 640 103 668T168 696Q179 696 190 693T212 686T231 679T244
675Q250 675 251 679T253 691H329Q327 646 310 617T245 588Q233 588 221 591T199 599T180 606T168 610Q159 610 159 595H84Z" />
<glyph unicode="&#xe4;" glyph-name="adieresis" horiz-adv-x="392" d="M218 0V50H215Q204 29 185 10T125 -9Q11 -9 11 139V181Q11 217 22 242T52 284T97 315T153 340Q176 350 189 357T208 371T216 385T218 403V427Q218 457 195 457Q171 457 171 427V366H24V408Q24
446 33 477T64 530T119 564T203 576Q298 576 338 533T378 405V0H218ZM196 105Q211 105 214 115T218 140V258Q211 252 206 248T188 233Q177 223 174 211T171 176V140Q171 126 175 116T196 105ZM70 678H196V589H70V678ZM214 678H341V589H214V678Z" />
<glyph unicode="&#xe5;" glyph-name="aring" horiz-adv-x="392" d="M218 0V50H215Q204 29 185 10T125 -9Q11 -9 11 139V181Q11 217 22 242T52 284T97 315T153 340Q176 350 189 357T208 371T216 385T218 403V427Q218 457 195 457Q171 457 171 427V366H24V408Q24
446 33 477T64 530T119 564T203 576Q298 576 338 533T378 405V0H218ZM196 105Q211 105 214 115T218 140V258Q211 252 206 248T188 233Q177 223 174 211T171 176V140Q171 126 175 116T196 105ZM118 677Q118 712 142 736T206 761Q245 761 269 737T294 677Q294 642
270 618T206 594Q167 594 143 618T118 677ZM173 677Q173 663 182 654T206 644Q221 644 230 653T239 677Q239 692 230 701T206 711Q191 711 182 701T173 677Z" />
<glyph unicode="&#xe6;" glyph-name="ae" horiz-adv-x="585" d="M572 237V178Q572 90 534 41T401 -9Q354 -9 324 5T275 44L270 51Q256 27 226 10Q194 -9 142 -9Q77 -9 44 25T11 136V191Q11 272 46 307T141 342H213V424Q213 441 209 449T192 457Q180 457 176 449T171
424V366H29V405Q29 443 36 474T63 528T112 563T190 576Q263 576 300 540Q340 576 405 576Q451 576 482 564T534 527T563 469T572 390V261H374V145Q374 129 379 120T399 110Q414 110 418 119T423 145V237H572ZM193 112Q205 112 209 120T213 141V236H196Q182 236
177 229T172 206V141Q172 127 176 120T193 112ZM421 423Q421 440 417 448T398 457Q374 457 374 423V365H421V423Z" />
<glyph unicode="&#xe7;" glyph-name="ccedilla" horiz-adv-x="384" d="M139 -71Q162 -69 165 -65T169 -55Q169 -44 157 -44H156V-6Q87 5 50 51T13 178V389Q13 483 61 529T198 576Q289 576 331 529T373 390V359H222V422Q222 437 218 447T198 457Q182 457 178 447T173
422V145Q173 130 177 120T199 110Q214 110 219 120T224 145V243H373V182Q373 89 335 42T213 -9V-17Q232 -22 242 -30T253 -55Q253 -80 228 -94T139 -108V-71Z" />
<glyph unicode="&#xe8;" glyph-name="egrave" d="M373 243V182Q373 85 331 38T198 -9Q110 -9 62 37T13 178V389Q13 483 61 529T198 576Q289 576 331 529T373 390V267H173V145Q173 130 177 120T199 110Q214 110 219 120T224 145V243H373ZM222 422Q222 437 218 447T198
457Q182 457 178 447T173 422V371H222V422ZM347 713L564 665V583L347 610V713Z" />
<glyph unicode="&#xe9;" glyph-name="eacute" d="M373 243V182Q373 85 331 38T198 -9Q110 -9 62 37T13 178V389Q13 483 61 529T198 576Q289 576 331 529T373 390V267H173V145Q173 130 177 120T199 110Q214 110 219 120T224 145V243H373ZM222 422Q222 437 218 447T198
457Q182 457 178 447T173 422V371H222V422ZM313 610L96 583V665L313 713V610Z" />
<glyph unicode="&#xea;" glyph-name="ecircumflex" d="M373 243V182Q373 85 331 38T198 -9Q110 -9 62 37T13 178V389Q13 483 61 529T198 576Q289 576 331 529T373 390V267H173V145Q173 130 177 120T199 110Q214 110 219 120T224 145V243H373ZM222 422Q222 437
218 447T198 457Q182 457 178 447T173 422V371H222V422ZM332 588V655L425 709H476L570 655V588L452 618L332 588Z" />
<glyph unicode="&#xeb;" glyph-name="edieresis" d="M373 243V182Q373 85 331 38T198 -9Q110 -9 62 37T13 178V389Q13 483 61 529T198 576Q289 576 331 529T373 390V267H173V145Q173 130 177 120T199 110Q214 110 219 120T224 145V243H373ZM222 422Q222 437 218
447T198 457Q182 457 178 447T173 422V371H222V422ZM319 678H445V589H319V678ZM463 678H590V589H463V678Z" />
<glyph unicode="&#xec;" glyph-name="igrave" horiz-adv-x="192" d="M16 567H176V0H16V567ZM2 713L195 665V583L2 610V713Z" />
<glyph unicode="&#xed;" glyph-name="iacute" horiz-adv-x="192" d="M16 567H176V0H16V567ZM195 610L2 583V665L195 713V610Z" />
<glyph unicode="&#xee;" glyph-name="icircumflex" horiz-adv-x="192" d="M16 567H176V0H16V567ZM-7 588V655L72 709H123L203 655V588L99 618L-7 588Z" />
<glyph unicode="&#xef;" glyph-name="idieresis" horiz-adv-x="192" d="M16 567H176V0H16V567ZM-11 678H89V597H-11V678ZM107 678H208V597H107V678Z" />
<glyph unicode="&#xf0;" glyph-name="eth" horiz-adv-x="396" d="M43 610L99 623L57 678H238L251 659L329 678V623L286 613L309 582Q328 555 342 532T365 487T378 440T383 389V178Q383 84 336 38T198 -9Q110 -9 62 37T13 178V389Q13 472 42 510T119 548Q138 548
150 542T173 525Q167 536 160 546T144 567L135 577L43 556V610ZM198 110Q213 110 218 120T223 145V422Q223 437 218 447T198 457Q182 457 178 447T173 422V145Q173 130 177 120T198 110Z" />
<glyph unicode="&#xf1;" glyph-name="ntilde" horiz-adv-x="396" d="M222 425Q222 438 218 446T200 454Q186 454 181 446Q177 439 176 430V0H16V567H176V504H178Q189 533 212 554T279 576Q334 576 358 543T382 429V0H222V425ZM88 595Q90 640 107 668T172 696Q183
696 194 693T216 686T235 679T248 675Q254 675 255 679T257 691H333Q331 646 314 617T249 588Q237 588 225 591T203 599T184 606T172 610Q163 610 163 595H88Z" />
<glyph unicode="&#xf2;" glyph-name="ograve" horiz-adv-x="396" d="M198 576Q289 576 336 530T383 389V178Q383 84 336 38T198 -9Q110 -9 62 37T13 178V389Q13 483 61 529T198 576ZM198 457Q182 457 178 447T173 422V145Q173 130 177 120T198 110Q213 110 218
120T223 145V422Q223 437 218 447T198 457ZM97 713L314 665V583L97 610V713Z" />
<glyph unicode="&#xf3;" glyph-name="oacute" horiz-adv-x="396" d="M198 576Q289 576 336 530T383 389V178Q383 84 336 38T198 -9Q110 -9 62 37T13 178V389Q13 483 61 529T198 576ZM198 457Q182 457 178 447T173 422V145Q173 130 177 120T198 110Q213 110 218
120T223 145V422Q223 437 218 447T198 457ZM567 610L350 583V665L567 713V610Z" />
<glyph unicode="&#xf4;" glyph-name="ocircumflex" horiz-adv-x="396" d="M198 576Q289 576 336 530T383 389V178Q383 84 336 38T198 -9Q110 -9 62 37T13 178V389Q13 483 61 529T198 576ZM198 457Q182 457 178 447T173 422V145Q173 130 177 120T198 110Q213 110
218 120T223 145V422Q223 437 218 447T198 457ZM336 588V655L429 709H480L574 655V588L456 618L336 588Z" />
<glyph unicode="&#xf5;" glyph-name="otilde" horiz-adv-x="396" d="M198 576Q289 576 336 530T383 389V178Q383 84 336 38T198 -9Q110 -9 62 37T13 178V389Q13 483 61 529T198 576ZM198 457Q182 457 178 447T173 422V145Q173 130 177 120T198 110Q213 110 218
120T223 145V422Q223 437 218 447T198 457ZM75 595Q77 640 94 668T159 696Q170 696 181 693T203 686T222 679T235 675Q241 675 242 679T244 691H320Q318 646 301 617T236 588Q224 588 212 591T190 599T171 606T159 610Q150 610 150 595H75Z" />
<glyph unicode="&#xf6;" glyph-name="odieresis" horiz-adv-x="396" d="M198 576Q289 576 336 530T383 389V178Q383 84 336 38T198 -9Q110 -9 62 37T13 178V389Q13 483 61 529T198 576ZM198 457Q182 457 178 447T173 422V145Q173 130 177 120T198 110Q213 110
218 120T223 145V422Q223 437 218 447T198 457ZM320 678H446V589H320V678ZM464 678H591V589H464V678Z" />
<glyph unicode="&#xf7;" glyph-name="divide" horiz-adv-x="342" d="M112 260H231V145H112V260ZM112 529H231V414H112V529ZM13 394H329V280H13V394Z" />
<glyph unicode="&#xf8;" glyph-name="oslash" horiz-adv-x="396" d="M198 -9Q128 -9 83 20L63 -17H4L45 56Q13 101 13 178V389Q13 483 61 529T198 576Q274 576 319 543L339 579H398L356 504Q383 460 383 389V178Q383 84 336 38T198 -9ZM227 421Q227 440 221 451T198
462Q181 462 175 451T169 421V273L227 384V421ZM198 105Q215 105 221 116T227 146V277L169 166V146Q169 128 175 117T198 105Z" />
<glyph unicode="&#xf9;" glyph-name="ugrave" horiz-adv-x="396" d="M174 142Q174 129 178 121T196 113Q210 113 215 121T220 142V567H380V0H220V63H218Q207 34 184 13T117 -9Q62 -9 38 24T14 138V567H174V142ZM339 713L556 665V583L339 610V713Z" />
<glyph unicode="&#xfa;" glyph-name="uacute" horiz-adv-x="396" d="M174 142Q174 129 178 121T196 113Q210 113 215 121T220 142V567H380V0H220V63H218Q207 34 184 13T117 -9Q62 -9 38 24T14 138V567H174V142ZM555 610L338 583V665L555 713V610Z" />
<glyph unicode="&#xfb;" glyph-name="ucircumflex" horiz-adv-x="396" d="M174 142Q174 129 178 121T196 113Q210 113 215 121T220 142V567H380V0H220V63H218Q207 34 184 13T117 -9Q62 -9 38 24T14 138V567H174V142ZM333 588V655L426 709H477L571 655V588L453
618L333 588Z" />
<glyph unicode="&#xfc;" glyph-name="udieresis" horiz-adv-x="396" d="M174 142Q174 129 178 121T196 113Q210 113 215 121T220 142V567H380V0H220V63H218Q207 34 184 13T117 -9Q62 -9 38 24T14 138V567H174V142ZM317 678H443V589H317V678ZM461 678H588V589H461V678Z" />
<glyph unicode="&#xfd;" glyph-name="yacute" horiz-adv-x="371" d="M373 567L273 18Q260 -42 222 -66T108 -90H61V26H114Q126 26 132 30T140 44L141 48H94L-2 567H161L189 264H190L231 567H373ZM558 610L341 583V665L558 713V610Z" />
<glyph unicode="&#xfe;" glyph-name="thorn" horiz-adv-x="396" d="M16 678H176V504H178Q189 533 212 554T279 576Q334 576 358 543T382 429V138Q382 58 357 25T276 -9Q232 -9 211 12T178 63H176V-90H16V678ZM222 425Q222 438 218 446T200 454Q186 454 181 446Q177
439 176 430V137Q177 127 181 121Q186 113 200 113Q213 113 217 121T222 142V425Z" />
<glyph unicode="&#xff;" glyph-name="ydieresis" horiz-adv-x="371" d="M373 567L273 18Q260 -42 222 -66T108 -90H61V26H114Q126 26 132 30T140 44L141 48H94L-2 567H161L189 264H190L231 567H373ZM311 678H437V589H311V678ZM455 678H582V589H455V678Z" />
<glyph unicode="&#x100;" glyph-name="Amacron" horiz-adv-x="436" d="M-1 0L126 678H310L437 0H267L254 99H168L155 0H-1ZM210 423L183 217H238L211 423H210ZM100 788H338V707H100V788Z" />
<glyph unicode="&#x101;" glyph-name="amacron" horiz-adv-x="392" d="M218 0V50H215Q204 29 185 10T125 -9Q11 -9 11 139V181Q11 217 22 242T52 284T97 315T153 340Q176 350 189 357T208 371T216 385T218 403V427Q218 457 195 457Q171 457 171 427V366H24V408Q24
446 33 477T64 530T119 564T203 576Q298 576 338 533T378 405V0H218ZM196 105Q211 105 214 115T218 140V258Q211 252 206 248T188 233Q177 223 174 211T171 176V140Q171 126 175 116T196 105ZM89 678H327V597H89V678Z" />
<glyph unicode="&#x102;" glyph-name="Abreve" horiz-adv-x="436" d="M-1 0L126 678H310L437 0H267L254 99H168L155 0H-1ZM210 423L183 217H238L211 423H210ZM336 796Q331 745 298 723T216 701Q168 701 134 723T95 796H195Q197 790 201 785T216 779Q227 779 231
784T237 796H336Z" />
<glyph unicode="&#x103;" glyph-name="abreve" horiz-adv-x="392" d="M218 0V50H215Q204 29 185 10T125 -9Q11 -9 11 139V181Q11 217 22 242T52 284T97 315T153 340Q176 350 189 357T208 371T216 385T218 403V427Q218 457 195 457Q171 457 171 427V366H24V408Q24
446 33 477T64 530T119 564T203 576Q298 576 338 533T378 405V0H218ZM196 105Q211 105 214 115T218 140V258Q211 252 206 248T188 233Q177 223 174 211T171 176V140Q171 126 175 116T196 105ZM328 686Q323 635 290 613T208 591Q160 591 126 613T87 686H187Q189
680 193 675T208 669Q219 669 223 674T229 686H328Z" />
<glyph unicode="&#x104;" glyph-name="Aogonek" horiz-adv-x="436" d="M-1 0L126 678H310L437 0H267L254 99H168L155 0H-1ZM210 423L183 217H238L211 423H210ZM437 0Q430 -5 424 -11T417 -23Q417 -33 434 -33H440V-90H367Q338 -90 323 -80T307 -49Q307 -35 317
-24T351 0H437Z" />
<glyph unicode="&#x105;" glyph-name="aogonek" horiz-adv-x="392" d="M218 0V50H215Q204 29 185 10T125 -9Q11 -9 11 139V181Q11 217 22 242T52 284T97 315T153 340Q176 350 189 357T208 371T216 385T218 403V427Q218 457 195 457Q171 457 171 427V366H24V408Q24
446 33 477T64 530T119 564T203 576Q298 576 338 533T378 405V0H218ZM196 105Q211 105 214 115T218 140V258Q211 252 206 248T188 233Q177 223 174 211T171 176V140Q171 126 175 116T196 105ZM378 0Q371 -5 365 -11T358 -23Q358 -33 375 -33H381V-90H308Q279 -90
264 -80T248 -49Q248 -35 258 -24T292 0H378Z" />
<glyph unicode="&#x106;" glyph-name="Cacute" horiz-adv-x="406" d="M211 -9Q114 -9 65 43T16 183V495Q16 583 65 635T211 687Q260 687 295 674T351 635T383 574T393 495V428H240V519Q240 537 235 549T211 562Q193 562 188 550T182 519V159Q182 141 187 129T211
116Q230 116 235 128T240 159V286H393V181Q393 138 383 103T352 43T295 5T211 -9ZM560 720L343 693V775L560 823V720Z" />
<glyph unicode="&#x107;" glyph-name="cacute" horiz-adv-x="384" d="M373 243V182Q373 85 331 38T198 -9Q110 -9 62 37T13 178V389Q13 483 61 529T198 576Q289 576 331 529T373 390V359H222V422Q222 437 218 447T198 457Q182 457 178 447T173 422V145Q173 130
177 120T199 110Q214 110 219 120T224 145V243H373ZM561 610L344 583V665L561 713V610Z" />
<glyph unicode="&#x108;" glyph-name="Ccircumflex" horiz-adv-x="406" d="M211 -9Q114 -9 65 43T16 183V495Q16 583 65 635T211 687Q260 687 295 674T351 635T383 574T393 495V428H240V519Q240 537 235 549T211 562Q193 562 188 550T182 519V159Q182 141 187
129T211 116Q230 116 235 128T240 159V286H393V181Q393 138 383 103T352 43T295 5T211 -9ZM92 698V765L185 819H236L330 765V698L212 728L92 698Z" />
<glyph unicode="&#x109;" glyph-name="ccircumflex" horiz-adv-x="384" d="M373 243V182Q373 85 331 38T198 -9Q110 -9 62 37T13 178V389Q13 483 61 529T198 576Q289 576 331 529T373 390V359H222V422Q222 437 218 447T198 457Q182 457 178 447T173 422V145Q173
130 177 120T199 110Q214 110 219 120T224 145V243H373ZM333 588V655L426 709H477L571 655V588L453 618L333 588Z" />
<glyph unicode="&#x10a;" glyph-name="Cdotaccent" horiz-adv-x="406" d="M211 -9Q114 -9 65 43T16 183V495Q16 583 65 635T211 687Q260 687 295 674T351 635T383 574T393 495V428H240V519Q240 537 235 549T211 562Q193 562 188 550T182 519V159Q182 141 187 129T211
116Q230 116 235 128T240 159V286H393V181Q393 138 383 103T352 43T295 5T211 -9ZM128 788H288V699H128V788Z" />
<glyph unicode="&#x10b;" glyph-name="cdotaccent" horiz-adv-x="384" d="M373 243V182Q373 85 331 38T198 -9Q110 -9 62 37T13 178V389Q13 483 61 529T198 576Q289 576 331 529T373 390V359H222V422Q222 437 218 447T198 457Q182 457 178 447T173 422V145Q173
130 177 120T199 110Q214 110 219 120T224 145V243H373ZM372 678H532V589H372V678Z" />
<glyph unicode="&#x10c;" glyph-name="Ccaron" horiz-adv-x="406" d="M211 -9Q114 -9 65 43T16 183V495Q16 583 65 635T211 687Q260 687 295 674T351 635T383 574T393 495V428H240V519Q240 537 235 549T211 562Q193 562 188 550T182 519V159Q182 141 187 129T211
116Q230 116 235 128T240 159V286H393V181Q393 138 383 103T352 43T295 5T211 -9ZM331 826V749L237 704H186L93 749V826L213 795L331 826Z" />
<glyph unicode="&#x10d;" glyph-name="ccaron" horiz-adv-x="384" d="M373 243V182Q373 85 331 38T198 -9Q110 -9 62 37T13 178V389Q13 483 61 529T198 576Q289 576 331 529T373 390V359H222V422Q222 437 218 447T198 457Q182 457 178 447T173 422V145Q173 130
177 120T199 110Q214 110 219 120T224 145V243H373ZM570 716V639L476 594H425L332 639V716L452 685L570 716Z" />
<glyph unicode="&#x10e;" glyph-name="Dcaron" horiz-adv-x="421" d="M182 122H203Q223 122 231 132T239 162V518Q239 538 231 547T203 556H182V122ZM228 678Q277 678 311 665T366 626T396 565T405 483V195Q405 150 396 114T366 53T311 14T228 0H16V678H228ZM571
826V749L477 704H426L333 749V826L453 795L571 826Z" />
<glyph unicode="&#x10f;" glyph-name="dcaron" horiz-adv-x="396" d="M380 0H220V63H218Q207 34 186 13T120 -9Q65 -9 40 24T14 138V429Q14 509 38 542T117 576Q161 576 184 555T218 504H220V678H380V0ZM174 142Q174 129 178 121T196 113Q210 113 215 121T220
142V429Q219 439 215 446Q210 454 196 454Q183 454 179 446T174 425V142ZM497 662L460 585H393V678H497V662Z" />
<glyph unicode="&#x110;" glyph-name="Dcroat" horiz-adv-x="433" d="M2 406H30V678H240Q290 678 324 664T378 625T408 565T417 487V191Q417 149 408 114T379 54T324 14T240 0H30V285H2V406ZM219 122Q252 122 252 164V516Q252 556 219 556H196V406H229V285H196V122H219Z" />
<glyph unicode="&#x111;" glyph-name="dcroat" horiz-adv-x="397" d="M381 0H221V63H219Q208 34 187 13T121 -9Q66 -9 41 24T15 138V429Q15 509 39 542T118 576Q162 576 185 555T219 504H221V588H153V640H221V678H381V640H412V588H381V0ZM175 142Q175 129 179
121T197 113Q211 113 216 121T221 142V429Q220 439 216 446Q211 454 197 454Q184 454 180 446T175 425V142Z" />
<glyph unicode="&#x112;" glyph-name="Emacron" horiz-adv-x="324" d="M16 678H312V556H182V406H272V285H182V122H312V0H16V678ZM301 788H539V707H301V788Z" />
<glyph unicode="&#x113;" glyph-name="emacron" d="M373 243V182Q373 85 331 38T198 -9Q110 -9 62 37T13 178V389Q13 483 61 529T198 576Q289 576 331 529T373 390V267H173V145Q173 130 177 120T199 110Q214 110 219 120T224 145V243H373ZM222 422Q222 437 218
447T198 457Q182 457 178 447T173 422V371H222V422ZM81 678H319V597H81V678Z" />
<glyph unicode="&#x114;" glyph-name="Ebreve" horiz-adv-x="324" d="M16 678H312V556H182V406H272V285H182V122H312V0H16V678ZM542 796Q537 745 504 723T422 701Q374 701 340 723T301 796H401Q403 790 407 785T422 779Q433 779 437 784T443 796H542Z" />
<glyph unicode="&#x115;" glyph-name="ebreve" d="M373 243V182Q373 85 331 38T198 -9Q110 -9 62 37T13 178V389Q13 483 61 529T198 576Q289 576 331 529T373 390V267H173V145Q173 130 177 120T199 110Q214 110 219 120T224 145V243H373ZM222 422Q222 437 218
447T198 457Q182 457 178 447T173 422V371H222V422ZM574 686Q569 635 536 613T454 591Q406 591 372 613T333 686H433Q435 680 439 675T454 669Q465 669 469 674T475 686H574Z" />
<glyph unicode="&#x116;" glyph-name="Edotaccent" horiz-adv-x="324" d="M16 678H312V556H182V406H272V285H182V122H312V0H16V678ZM342 788H502V699H342V788Z" />
<glyph unicode="&#x117;" glyph-name="edotaccent" d="M373 243V182Q373 85 331 38T198 -9Q110 -9 62 37T13 178V389Q13 483 61 529T198 576Q289 576 331 529T373 390V267H173V145Q173 130 177 120T199 110Q214 110 219 120T224 145V243H373ZM222 422Q222 437
218 447T198 457Q182 457 178 447T173 422V371H222V422ZM374 678H534V589H374V678Z" />
<glyph unicode="&#x118;" glyph-name="Eogonek" horiz-adv-x="324" d="M16 678H312V556H182V406H272V285H182V122H312V0H16V678ZM295 0Q288 -5 282 -11T275 -23Q275 -33 292 -33H298V-90H225Q196 -90 181 -80T165 -49Q165 -35 175 -24T209 0H295Z" />
<glyph unicode="&#x119;" glyph-name="eogonek" d="M373 243V182Q373 56 299 13Q277 -2 272 -9T267 -23Q267 -33 284 -33H290V-90H217Q188 -90 173 -80T157 -49Q157 -27 185 -9H184Q103 -5 58 41T13 178V389Q13 483 61 529T198 576Q289 576 331 529T373 390V267H173V145Q173
130 177 120T199 110Q214 110 219 120T224 145V243H373ZM173 371H222V422Q222 437 217 447T198 457Q182 457 178 447T173 422V371Z" />
<glyph unicode="&#x11a;" glyph-name="Ecaron" horiz-adv-x="324" d="M16 678H312V556H182V406H272V285H182V122H312V0H16V678ZM541 826V749L447 704H396L303 749V826L423 795L541 826Z" />
<glyph unicode="&#x11b;" glyph-name="ecaron" d="M373 243V182Q373 85 331 38T198 -9Q110 -9 62 37T13 178V389Q13 483 61 529T198 576Q289 576 331 529T373 390V267H173V145Q173 130 177 120T199 110Q214 110 219 120T224 145V243H373ZM222 422Q222 437 218
447T198 457Q182 457 178 447T173 422V371H222V422ZM572 716V639L478 594H427L334 639V716L454 685L572 716Z" />
<glyph unicode="&#x11c;" glyph-name="Gcircumflex" horiz-adv-x="412" d="M208 373H396V0H274V74Q261 33 233 12T163 -9Q90 -9 53 43T16 183V495Q16 583 65 635T211 687Q260 687 295 674T353 637T385 580T396 508V448H245V520Q245 537 239 549T213 562Q194 562
188 550T182 519V159Q182 141 187 129T211 116Q230 116 234 128T239 159V256H208V373ZM92 698V765L185 819H236L330 765V698L212 728L92 698Z" />
<glyph unicode="&#x11d;" glyph-name="gcircumflex" horiz-adv-x="396" d="M380 567V90Q380 49 371 15T340 -45T282 -85T194 -99Q144 -99 110 -88T54 -57T23 -11T13 47V72H158V57Q158 40 164 30T190 20Q207 20 213 32T220 66V163H218Q207 134 186 113T120 91Q65
91 40 124T14 238V429Q14 509 38 542T117 576Q161 576 184 555T218 504H220V567H380ZM174 242Q174 229 178 221T196 213Q210 213 215 221T220 242V429Q219 439 215 446Q210 454 196 454Q183 454 179 446T174 425V242ZM90 588V655L183 709H234L328 655V588L210 618L90
588Z" />
<glyph unicode="&#x11e;" glyph-name="Gbreve" horiz-adv-x="412" d="M208 373H396V0H274V74Q261 33 233 12T163 -9Q90 -9 53 43T16 183V495Q16 583 65 635T211 687Q260 687 295 674T353 637T385 580T396 508V448H245V520Q245 537 239 549T213 562Q194 562 188
550T182 519V159Q182 141 187 129T211 116Q230 116 234 128T239 159V256H208V373ZM328 796Q323 745 290 723T208 701Q160 701 126 723T87 796H187Q189 790 193 785T208 779Q219 779 223 784T229 796H328Z" />
<glyph unicode="&#x11f;" glyph-name="gbreve" horiz-adv-x="396" d="M380 567V90Q380 49 371 15T340 -45T282 -85T194 -99Q144 -99 110 -88T54 -57T23 -11T13 47V72H158V57Q158 40 164 30T190 20Q207 20 213 32T220 66V163H218Q207 134 186 113T120 91Q65 91
40 124T14 238V429Q14 509 38 542T117 576Q161 576 184 555T218 504H220V567H380ZM174 242Q174 229 178 221T196 213Q210 213 215 221T220 242V429Q219 439 215 446Q210 454 196 454Q183 454 179 446T174 425V242ZM326 686Q321 635 288 613T206 591Q158 591 124
613T85 686H185Q187 680 191 675T206 669Q217 669 221 674T227 686H326Z" />
<glyph unicode="&#x120;" glyph-name="Gdotaccent" horiz-adv-x="412" d="M208 373H396V0H274V74Q261 33 233 12T163 -9Q90 -9 53 43T16 183V495Q16 583 65 635T211 687Q260 687 295 674T353 637T385 580T396 508V448H245V520Q245 537 239 549T213 562Q194 562
188 550T182 519V159Q182 141 187 129T211 116Q230 116 234 128T239 159V256H208V373ZM130 788H290V699H130V788Z" />
<glyph unicode="&#x121;" glyph-name="gdotaccent" horiz-adv-x="396" d="M380 567V90Q380 49 371 15T340 -45T282 -85T194 -99Q144 -99 110 -88T54 -57T23 -11T13 47V72H158V57Q158 40 164 30T190 20Q207 20 213 32T220 66V163H218Q207 134 186 113T120 91Q65
91 40 124T14 238V429Q14 509 38 542T117 576Q161 576 184 555T218 504H220V567H380ZM174 242Q174 229 178 221T196 213Q210 213 215 221T220 242V429Q219 439 215 446Q210 454 196 454Q183 454 179 446T174 425V242ZM123 678H283V589H123V678Z" />
<glyph unicode="&#x122;" glyph-name="Gcommaaccent" horiz-adv-x="412" d="M208 373H396V0H274V74Q261 33 233 12T163 -9Q90 -9 53 43T16 183V495Q16 583 65 635T211 687Q260 687 295 674T353 637T385 580T396 508V448H245V520Q245 537 239 549T213 562Q194 562
188 550T182 519V159Q182 141 187 129T211 116Q230 116 234 128T239 159V256H208V373ZM302 -33L263 -90H155L157 -21H302V-33Z" />
<glyph unicode="&#x123;" glyph-name="gcommaaccent" horiz-adv-x="396" d="M380 567V90Q380 49 371 15T340 -45T282 -85T194 -99Q144 -99 110 -88T54 -57T23 -11T13 47V72H158V57Q158 40 164 30T190 20Q207 20 213 32T220 66V163H218Q207 134 186 113T120 91Q65
91 40 124T14 238V429Q14 509 38 542T117 576Q161 576 184 555T218 504H220V567H380ZM174 242Q174 229 178 221T196 213Q210 213 215 221T220 242V429Q219 439 215 446Q210 454 196 454Q183 454 179 446T174 425V242ZM122 607L186 671H300L285 592H121L122 607Z"
/>
<glyph unicode="&#x124;" glyph-name="Hcircumflex" horiz-adv-x="420" d="M238 678H404V0H238V285H182V0H16V678H182V406H238V678ZM90 698V765L183 819H234L328 765V698L210 728L90 698Z" />
<glyph unicode="&#x125;" glyph-name="hcircumflex" horiz-adv-x="396" d="M222 425Q222 438 218 446T200 454Q186 454 181 446Q177 439 176 430V0H16V678H176V504H178Q189 533 212 554T279 576Q334 576 358 543T382 429V0H222V425ZM335 698V765L428 819H479L573
765V698L455 728L335 698Z" />
<glyph unicode="&#x126;" glyph-name="Hbar" horiz-adv-x="459" d="M4 581H36V678H202V581H258V678H424V581H455V497H424V0H258V285H202V0H36V497H4V581ZM258 406V497H202V406H258Z" />
<glyph unicode="&#x127;" glyph-name="hbar" horiz-adv-x="396" d="M222 425Q222 438 218 446T200 454Q186 454 181 446Q177 439 176 430V0H16V588H-16V640H16V678H176V640H243V588H176V504H178Q189 533 212 554T279 576Q334 576 358 543T382 429V0H222V425Z" />
<glyph unicode="&#x128;" glyph-name="Itilde" horiz-adv-x="198" d="M-14 706Q-13 732 -10 753T3 790T26 813T65 821Q88 821 102 811T126 800Q132 800 133 804T135 816H211Q210 790 207 769T195 732T171 708T132 699Q108 699 93 710T70 721Q61 721 61 706H-14ZM16
678H182V0H16V678Z" />
<glyph unicode="&#x129;" glyph-name="itilde" horiz-adv-x="192" d="M-14 595Q-13 614 -10 632T2 664T25 687T62 696Q87 696 102 686T126 675Q132 675 133 679T135 691H211Q210 673 207 655T196 621T175 597T141 588Q126 588 115 591T95 599T80 606T70 610Q61
610 61 595H-14ZM16 567H176V0H16V567Z" />
<glyph unicode="&#x12a;" glyph-name="Imacron" horiz-adv-x="198" d="M16 678H182V0H16V678ZM-3 809H203V707H-3V809Z" />
<glyph unicode="&#x12b;" glyph-name="imacron" horiz-adv-x="192" d="M-3 678H203V600H-3V678ZM16 567H176V0H16V567Z" />
<glyph unicode="&#x12c;" glyph-name="Ibreve" horiz-adv-x="198" d="M202 811Q197 755 171 729T99 702Q54 702 27 728T-5 811H81Q83 805 86 800T99 794Q108 794 111 799T117 811H202ZM16 678H182V0H16V678Z" />
<glyph unicode="&#x12d;" glyph-name="ibreve" horiz-adv-x="192" d="M16 567H176V0H16V567ZM202 686Q200 636 173 614T99 591Q52 591 25 613T-5 686H81Q83 669 99 669Q115 669 117 686H202Z" />
<glyph unicode="&#x12e;" glyph-name="Iogonek" horiz-adv-x="198" d="M16 678H182V0H16V678ZM438 0Q431 -5 425 -11T418 -23Q418 -33 435 -33H441V-90H368Q339 -90 324 -80T308 -49Q308 -35 318 -24T352 0H438Z" />
<glyph unicode="&#x12f;" glyph-name="iogonek" horiz-adv-x="192" d="M16 567H176V0H16V567ZM16 678H176V584H16V678ZM432 0Q425 -5 419 -11T412 -23Q412 -33 429 -33H435V-90H362Q333 -90 318 -80T302 -49Q302 -35 312 -24T346 0H432Z" />
<glyph unicode="&#x130;" glyph-name="Idotaccent" horiz-adv-x="198" d="M16 678H182V0H16V678ZM275 788H435V699H275V788Z" />
<glyph unicode="&#x131;" glyph-name="dotlessi" horiz-adv-x="192" d="M16 567H176V0H16V567Z" />
<glyph unicode="&#x132;" glyph-name="IJ" horiz-adv-x="583" d="M16 678H182V0H16V678ZM567 678V167Q567 127 557 95T526 39T469 4T383 -9Q330 -9 297 3T244 37T217 88T210 152V286H367V143Q367 116 384 116Q401 116 401 143V678H567Z" />
<glyph unicode="&#x133;" glyph-name="ij" horiz-adv-x="384" d="M16 567H176V0H16V567ZM16 678H176V584H16V678ZM368 567V22Q368 -10 360 -31T332 -66T281 -84T203 -90H184V-5H191Q208 -5 208 15V567H368ZM208 678H368V584H208V678Z" />
<glyph unicode="&#x134;" glyph-name="Jcircumflex" horiz-adv-x="385" d="M369 678V167Q369 127 359 95T328 39T271 4T185 -9Q132 -9 99 3T46 37T19 88T12 152V286H169V143Q169 116 186 116Q203 116 203 143V678H369ZM166 698V765L259 819H310L404 765V698L286
728L166 698Z" />
<glyph unicode="&#x135;" glyph-name="jcircumflex" horiz-adv-x="192" d="M-7 588V655L72 709H123L203 655V588L99 618L-7 588ZM176 567V22Q176 -10 168 -31T140 -66T89 -84T11 -90H-8V-5H-1Q16 -5 16 15V567H176Z" />
<glyph unicode="&#x136;" glyph-name="Kcommaaccent" horiz-adv-x="431" d="M16 678H182V405L261 678H422L325 389L431 0H256L182 305V0H16V678ZM295 -33L256 -90H148L150 -21H295V-33Z" />
<glyph unicode="&#x137;" glyph-name="kcommaaccent" horiz-adv-x="399" d="M397 567L313 325L401 0H233L176 238V0H16V678H176V352L241 567H397ZM278 -33L239 -90H131L133 -21H278V-33Z" />
<glyph unicode="&#x139;" glyph-name="Lacute" horiz-adv-x="307" d="M16 678H182V122H295V0H16V678ZM468 720L251 693V775L468 823V720Z" />
<glyph unicode="&#x13a;" glyph-name="lacute" horiz-adv-x="192" d="M16 678H176V0H16V678ZM188 720L3 693V775L188 823V720Z" />
<glyph unicode="&#x13b;" glyph-name="Lcommaaccent" horiz-adv-x="307" d="M16 678H182V122H295V0H16V678ZM483 -33L444 -90H336L338 -21H483V-33Z" />
<glyph unicode="&#x13c;" glyph-name="lcommaaccent" horiz-adv-x="192" d="M16 678H176V0H16V678ZM425 -33L386 -90H278L280 -21H425V-33Z" />
<glyph unicode="&#x13d;" glyph-name="Lcaron" horiz-adv-x="307" d="M306 642L273 513H203V678H306V642ZM16 678H182V122H295V0H16V678Z" />
<glyph unicode="&#x13e;" glyph-name="lcaron" horiz-adv-x="192" d="M16 678H176V0H16V678ZM293 662L256 585H189V678H293V662Z" />
<glyph unicode="&#x13f;" glyph-name="Ldot" horiz-adv-x="357" d="M16 678H182V122H295V0H16V678ZM209 395H345V265H209V395Z" />
<glyph unicode="&#x140;" glyph-name="ldot" horiz-adv-x="333" d="M198 391H325V269H198V391ZM16 678H176V0H16V678Z" />
<glyph unicode="&#x141;" glyph-name="Lslash" horiz-adv-x="325" d="M2 332L34 345V678H200V414L273 445V335L200 305V122H313V0H34V238L2 225V332Z" />
<glyph unicode="&#x142;" glyph-name="lslash" horiz-adv-x="231" d="M5 362L35 384V678H195V505L226 529V412L195 388V0H35V267L5 245V362Z" />
<glyph unicode="&#x143;" glyph-name="Nacute" horiz-adv-x="398" d="M154 347V0H16V678H175L244 378V678H382V0H239L154 347ZM313 720L96 693V775L313 823V720Z" />
<glyph unicode="&#x144;" glyph-name="nacute" horiz-adv-x="396" d="M222 425Q222 438 218 446T200 454Q186 454 181 446Q177 439 176 430V0H16V567H176V504H178Q189 533 212 554T279 576Q334 576 358 543T382 429V0H222V425ZM320 610L103 583V665L320 713V610Z" />
<glyph unicode="&#x145;" glyph-name="Ncommaaccent" horiz-adv-x="398" d="M154 347V0H16V678H175L244 378V678H382V0H239L154 347ZM277 -33L238 -90H130L132 -21H277V-33Z" />
<glyph unicode="&#x146;" glyph-name="ncommaaccent" horiz-adv-x="396" d="M222 425Q222 438 218 446T200 454Q186 454 181 446Q177 439 176 430V0H16V567H176V504H178Q189 533 212 554T279 576Q334 576 358 543T382 429V0H222V425ZM530 -33L491 -90H383L385
-21H530V-33Z" />
<glyph unicode="&#x147;" glyph-name="Ncaron" horiz-adv-x="398" d="M154 347V0H16V678H175L244 378V678H382V0H239L154 347ZM567 826V749L473 704H422L329 749V826L449 795L567 826Z" />
<glyph unicode="&#x148;" glyph-name="ncaron" horiz-adv-x="396" d="M222 425Q222 438 218 446T200 454Q186 454 181 446Q177 439 176 430V0H16V567H176V504H178Q189 533 212 554T279 576Q334 576 358 543T382 429V0H222V425ZM573 716V639L479 594H428L335 639V716L455
685L573 716Z" />
<glyph unicode="&#x14a;" glyph-name="Eng" horiz-adv-x="407" d="M153 347V0H16V678H175L255 378V678H391V18Q391 -13 383 -34T356 -67T307 -85T232 -90H202V5H231Q239 5 240 9T242 20V25L153 347Z" />
<glyph unicode="&#x14b;" glyph-name="eng" horiz-adv-x="398" d="M222 425Q222 438 218 446T200 454Q186 454 181 446T176 425V0H16V567H176V504H178Q189 533 212 554T279 576Q334 576 358 543T382 429V22Q382 -10 374 -31T346 -66T295 -84T217 -90H198V-5H205Q222
-5 222 15V425Z" />
<glyph unicode="&#x14c;" glyph-name="Omacron" horiz-adv-x="422" d="M211 116Q230 116 235 128T240 159V519Q240 537 235 549T211 562Q193 562 188 550T182 519V159Q182 141 187 129T211 116ZM211 -9Q114 -9 65 43T16 183V495Q16 583 65 635T211 687Q308 687
357 635T406 495V183Q406 95 357 43T211 -9ZM93 788H331V707H93V788Z" />
<glyph unicode="&#x14d;" glyph-name="omacron" horiz-adv-x="396" d="M198 576Q289 576 336 530T383 389V178Q383 84 336 38T198 -9Q110 -9 62 37T13 178V389Q13 483 61 529T198 576ZM198 457Q182 457 178 447T173 422V145Q173 130 177 120T198 110Q213 110 218
120T223 145V422Q223 437 218 447T198 457ZM82 678H320V597H82V678Z" />
<glyph unicode="&#x14e;" glyph-name="Obreve" horiz-adv-x="422" d="M211 116Q230 116 235 128T240 159V519Q240 537 235 549T211 562Q193 562 188 550T182 519V159Q182 141 187 129T211 116ZM211 -9Q114 -9 65 43T16 183V495Q16 583 65 635T211 687Q308 687
357 635T406 495V183Q406 95 357 43T211 -9ZM328 797Q323 746 290 724T208 702Q160 702 126 724T87 797H187Q189 791 193 786T208 780Q219 780 223 785T229 797H328Z" />
<glyph unicode="&#x14f;" glyph-name="obreve" horiz-adv-x="396" d="M198 576Q289 576 336 530T383 389V178Q383 84 336 38T198 -9Q110 -9 62 37T13 178V389Q13 483 61 529T198 576ZM198 457Q182 457 178 447T173 422V145Q173 130 177 120T198 110Q213 110 218
120T223 145V422Q223 437 218 447T198 457ZM575 686Q570 635 537 613T455 591Q407 591 373 613T334 686H434Q436 680 440 675T455 669Q466 669 470 674T476 686H575Z" />
<glyph unicode="&#x150;" glyph-name="Ohungarumlaut" horiz-adv-x="422" d="M211 116Q230 116 235 128T240 159V519Q240 537 235 549T211 562Q193 562 188 550T182 519V159Q182 141 187 129T211 116ZM211 -9Q114 -9 65 43T16 183V495Q16 583 65 635T211 687Q308
687 357 635T406 495V183Q406 95 357 43T211 -9ZM236 810L182 705H97L108 810H236ZM371 810L317 705H232L243 810H371Z" />
<glyph unicode="&#x151;" glyph-name="ohungarumlaut" horiz-adv-x="396" d="M198 576Q289 576 336 530T383 389V178Q383 84 336 38T198 -9Q110 -9 62 37T13 178V389Q13 483 61 529T198 576ZM198 457Q182 457 178 447T173 422V145Q173 130 177 120T198 110Q213
110 218 120T223 145V422Q223 437 218 447T198 457ZM218 700L164 595H79L90 700H218ZM353 700L299 595H214L225 700H353Z" />
<glyph unicode="&#x152;" glyph-name="OE" horiz-adv-x="546" d="M276 38Q273 32 266 24T246 8T216 -4T177 -9Q93 -9 55 41T16 183V495Q16 587 55 637T175 687Q197 687 214 682T244 670T265 654T276 640V678H534V556H401V406H495V285H401V122H534V0H276V38ZM208
116Q225 116 230 128T235 159V519Q235 537 230 549T207 562Q191 562 186 550T180 519V159Q180 141 185 129T208 116Z" />
<glyph unicode="&#x153;" glyph-name="oe" horiz-adv-x="601" d="M588 237V178Q588 90 551 41T424 -9Q375 -9 344 6Q319 18 304 37Q264 -9 187 -9Q108 -9 61 37T13 178V389Q13 483 60 529T187 576Q267 576 307 525Q308 524 308 523Q328 548 358 562T429 576Q515
576 551 528T588 390V261H390V145Q390 129 395 120T415 110Q430 110 434 119T439 145V237H588ZM198 110Q213 110 218 120T223 145V422Q223 437 218 447T198 457Q182 457 178 447T173 422V145Q173 130 177 120T198 110ZM437 423Q437 440 433 448T414 457Q390 457
390 423V365H437V423Z" />
<glyph unicode="&#x154;" glyph-name="Racute" horiz-adv-x="407" d="M16 678H215Q265 678 299 667T354 634T384 581T393 511V432Q393 394 384 367T354 323Q349 318 342 314L409 0H237L182 299V0H16V678ZM182 556V380H194Q212 380 219 389T227 416V521Q227 539
220 547T194 556H182ZM561 720L344 693V775L561 823V720Z" />
<glyph unicode="&#x155;" glyph-name="racute" horiz-adv-x="274" d="M264 394H207Q186 394 181 381Q177 370 176 356V0H16V567H176V504H178Q181 511 187 522T203 544T229 563T264 572V394ZM504 610L287 583V665L504 713V610Z" />
<glyph unicode="&#x156;" glyph-name="Rcommaaccent" horiz-adv-x="407" d="M16 678H215Q265 678 299 667T354 634T384 581T393 511V432Q393 394 384 367T354 323Q349 318 342 314L409 0H237L182 299V0H16V678ZM182 556V380H194Q212 380 219 389T227 416V521Q227
539 220 547T194 556H182ZM277 -33L238 -90H130L132 -21H277V-33Z" />
<glyph unicode="&#x157;" glyph-name="rcommaaccent" horiz-adv-x="274" d="M264 394H207Q186 394 181 381Q177 370 176 356V0H16V567H176V504H178Q181 511 187 522T203 544T229 563T264 572V394ZM426 -33L387 -90H279L281 -21H426V-33Z" />
<glyph unicode="&#x158;" glyph-name="Rcaron" horiz-adv-x="407" d="M16 678H215Q265 678 299 667T354 634T384 581T393 511V432Q393 394 384 367T354 323Q349 318 342 314L409 0H237L182 299V0H16V678ZM182 556V380H194Q212 380 219 389T227 416V521Q227 539
220 547T194 556H182ZM568 826V749L474 704H423L330 749V826L450 795L568 826Z" />
<glyph unicode="&#x159;" glyph-name="rcaron" horiz-adv-x="274" d="M264 394H207Q186 394 181 381Q177 370 176 356V0H16V567H176V504H178Q181 511 187 522T203 544T229 563T264 572V394ZM513 716V639L419 594H368L275 639V716L395 685L513 716Z" />
<glyph unicode="&#x15a;" glyph-name="Sacute" horiz-adv-x="391" d="M189 -9Q139 -9 105 3T49 38T19 90T10 155V233H161V146Q161 131 167 121T190 111Q205 111 211 121T218 146V172Q218 195 209 213T180 248L108 317Q82 342 64 363T33 407T16 455T10 512V526Q10
559 19 588T50 639T107 674T192 687Q242 687 276 676T331 643T361 590T371 520V473H222V530Q222 547 216 557T194 567Q178 567 172 558T165 532V522Q165 499 177 485T207 453L285 378Q334 330 357 286T381 187V162Q381 85 335 38T189 -9ZM557 720L340 693V775L557
823V720Z" />
<glyph unicode="&#x15b;" glyph-name="sacute" horiz-adv-x="363" d="M353 151Q353 79 311 35T180 -9Q94 -9 52 34T9 157V197H150V145Q150 130 155 120T178 110Q192 110 197 120T203 145V154Q203 169 191 183T142 225L109 249Q61 284 37 323T13 414V426Q13 459
23 486T54 534T108 565T187 576Q234 576 265 565T315 532T342 481T350 414V392H211V421Q211 436 207 446T187 457Q171 457 167 447T162 428V426Q162 411 171 399T203 369L236 345Q267 322 289 303T325 263T346 219T353 166V151ZM557 610L340 583V665L557 713V610Z"
/>
<glyph unicode="&#x15c;" glyph-name="Scircumflex" horiz-adv-x="391" d="M189 -9Q139 -9 105 3T49 38T19 90T10 155V233H161V146Q161 131 167 121T190 111Q205 111 211 121T218 146V172Q218 195 209 213T180 248L108 317Q82 342 64 363T33 407T16 455T10 512V526Q10
559 19 588T50 639T107 674T192 687Q242 687 276 676T331 643T361 590T371 520V473H222V530Q222 547 216 557T194 567Q178 567 172 558T165 532V522Q165 499 177 485T207 453L285 378Q334 330 357 286T381 187V162Q381 85 335 38T189 -9ZM330 698V765L423 819H474L568
765V698L450 728L330 698Z" />
<glyph unicode="&#x15d;" glyph-name="scircumflex" horiz-adv-x="363" d="M353 151Q353 79 311 35T180 -9Q94 -9 52 34T9 157V197H150V145Q150 130 155 120T178 110Q192 110 197 120T203 145V154Q203 169 191 183T142 225L109 249Q61 284 37 323T13 414V426Q13
459 23 486T54 534T108 565T187 576Q234 576 265 565T315 532T342 481T350 414V392H211V421Q211 436 207 446T187 457Q171 457 167 447T162 428V426Q162 411 171 399T203 369L236 345Q267 322 289 303T325 263T346 219T353 166V151ZM323 588V655L416 709H467L561
655V588L443 618L323 588Z" />
<glyph unicode="&#x15e;" glyph-name="Scedilla" horiz-adv-x="391" d="M140 -71Q163 -69 166 -65T170 -55Q170 -44 158 -44H157V-7Q76 1 44 45T11 155V237H162V146Q162 131 168 121T191 111Q206 111 212 121T219 146V172Q219 216 182 250L110 319Q84 344 66 364T35
407T17 454T11 512V526Q11 559 20 588T51 639T108 674T193 687Q243 687 277 676T332 643T362 590T372 520V477H223V530Q223 547 217 557T195 567Q179 567 173 558T166 532V520Q166 497 178 482T208 449L286 374Q335 326 358 284T382 187V162Q382 90 342 44T214
-8V-17Q233 -22 243 -30T254 -55Q254 -80 229 -94T140 -108V-71Z" />
<glyph unicode="&#x15f;" glyph-name="scedilla" horiz-adv-x="363" d="M129 -71Q152 -69 155 -65T159 -55Q159 -44 147 -44H146V-7Q77 1 43 43T9 157V197H150V145Q150 130 155 120T178 110Q192 110 197 120T203 145V154Q203 169 191 183T142 225L109 250Q61 285
37 323T13 414V426Q13 459 23 486T54 534T108 565T187 576Q234 576 265 565T315 532T342 481T350 414V392H211V421Q211 436 207 446T187 457Q171 457 167 447T162 428V426Q162 411 171 399T203 369L234 346Q266 322 288 302T325 261T346 219T353 166V151Q353 83
317 41T203 -8V-17Q222 -22 232 -30T243 -55Q243 -80 218 -94T129 -108V-71Z" />
<glyph unicode="&#x160;" glyph-name="Scaron" horiz-adv-x="391" d="M189 -9Q139 -9 105 3T49 38T19 90T10 155V233H161V146Q161 131 167 121T190 111Q205 111 211 121T218 146V172Q218 195 209 213T180 248L108 317Q82 342 64 363T33 407T16 455T10 512V526Q10
559 19 588T50 639T107 674T192 687Q242 687 276 676T331 643T361 590T371 520V473H222V530Q222 547 216 557T194 567Q178 567 172 558T165 532V522Q165 499 177 485T207 453L285 378Q334 330 357 286T381 187V162Q381 85 335 38T189 -9ZM569 826V749L475 704H424L331
749V826L451 795L569 826Z" />
<glyph unicode="&#x161;" glyph-name="scaron" horiz-adv-x="363" d="M353 151Q353 79 311 35T180 -9Q94 -9 52 34T9 157V197H150V145Q150 130 155 120T178 110Q192 110 197 120T203 145V154Q203 169 191 183T142 225L109 249Q61 284 37 323T13 414V426Q13 459
23 486T54 534T108 565T187 576Q234 576 265 565T315 532T342 481T350 414V392H211V421Q211 436 207 446T187 457Q171 457 167 447T162 428V426Q162 411 171 399T203 369L236 345Q267 322 289 303T325 263T346 219T353 166V151ZM560 716V639L466 594H415L322 639V716L442
685L560 716Z" />
<glyph unicode="&#x162;" glyph-name="Tcommaaccent" horiz-adv-x="350" d="M12 678H346V556H263V0H95V556H12V678ZM505 -33L466 -90H358L360 -21H505V-33Z" />
<glyph unicode="&#x163;" glyph-name="tcommaaccent" horiz-adv-x="278" d="M6 567H44V678H204V567H267V456H204V153Q204 136 212 127T241 118H267V0H207Q160 0 129 8T79 33T52 78T44 146V456H6V567ZM491 -33L452 -90H344L346 -21H491V-33Z" />
<glyph unicode="&#x164;" glyph-name="Tcaron" horiz-adv-x="350" d="M8 678H342V556H259V0H91V556H8V678ZM550 826V749L456 704H405L312 749V826L432 795L550 826Z" />
<glyph unicode="&#x165;" glyph-name="tcaron" horiz-adv-x="278" d="M6 567H44V678H204V567H267V456H204V153Q204 136 212 127T241 118H267V0H207Q160 0 129 8T79 33T52 78T44 146V456H6V567ZM323 662L286 585H219V678H323V662Z" />
<glyph unicode="&#x166;" glyph-name="Tbar" horiz-adv-x="350" d="M30 437H95V556H12V678H346V556H263V437H320V354H263V0H95V354H30V437Z" />
<glyph unicode="&#x167;" glyph-name="tbar" horiz-adv-x="279" d="M6 567H46V678H204V567H267V456H204V409H267V357H204V138Q204 126 209 122T227 118H267V0H209Q162 0 131 8T81 33T54 78T46 146V357H6V409H46V456H6V567Z" />
<glyph unicode="&#x168;" glyph-name="Utilde" horiz-adv-x="404" d="M388 678V172Q388 87 345 39T210 -9Q114 -9 65 39T16 172V678H182V156Q182 139 187 128T210 116Q228 116 233 127T238 156V678H388ZM85 706Q87 751 104 779T169 807Q180 807 191 804T213 797T232
790T245 786Q251 786 252 790T254 802H330Q328 757 311 728T246 699Q234 699 222 702T200 710T181 717T169 721Q160 721 160 706H85Z" />
<glyph unicode="&#x169;" glyph-name="utilde" horiz-adv-x="396" d="M174 142Q174 129 178 121T196 113Q210 113 215 121T220 142V567H380V0H220V63H218Q207 34 184 13T117 -9Q62 -9 38 24T14 138V567H174V142ZM329 595Q331 640 348 668T413 696Q424 696 435
693T457 686T476 679T489 675Q495 675 496 679T498 691H574Q572 646 555 617T490 588Q478 588 466 591T444 599T425 606T413 610Q404 610 404 595H329Z" />
<glyph unicode="&#x16a;" glyph-name="Umacron" horiz-adv-x="404" d="M388 678V172Q388 87 345 39T210 -9Q114 -9 65 39T16 172V678H182V156Q182 139 187 128T210 116Q228 116 233 127T238 156V678H388ZM85 788H323V707H85V788Z" />
<glyph unicode="&#x16b;" glyph-name="umacron" horiz-adv-x="396" d="M174 142Q174 129 178 121T196 113Q210 113 215 121T220 142V567H380V0H220V63H218Q207 34 184 13T117 -9Q62 -9 38 24T14 138V567H174V142ZM333 678H571V597H333V678Z" />
<glyph unicode="&#x16c;" glyph-name="Ubreve" horiz-adv-x="404" d="M388 678V172Q388 87 345 39T210 -9Q114 -9 65 39T16 172V678H182V156Q182 139 187 128T210 116Q228 116 233 127T238 156V678H388ZM326 796Q321 745 288 723T206 701Q158 701 124 723T85 796H185Q187
790 191 785T206 779Q217 779 221 784T227 796H326Z" />
<glyph unicode="&#x16d;" glyph-name="ubreve" horiz-adv-x="396" d="M174 142Q174 129 178 121T196 113Q210 113 215 121T220 142V567H380V0H220V63H218Q207 34 184 13T117 -9Q62 -9 38 24T14 138V567H174V142ZM572 686Q567 635 534 613T452 591Q404 591 370
613T331 686H431Q433 680 437 675T452 669Q463 669 467 674T473 686H572Z" />
<glyph unicode="&#x16e;" glyph-name="Uring" horiz-adv-x="404" d="M388 678V172Q388 87 345 39T210 -9Q114 -9 65 39T16 172V678H182V156Q182 139 187 128T210 116Q228 116 233 127T238 156V678H388ZM120 767Q120 802 144 826T208 851Q247 851 271 827T296 767Q296
732 272 708T208 684Q169 684 145 708T120 767ZM175 767Q175 753 184 744T208 734Q223 734 232 743T241 767Q241 782 232 791T208 801Q193 801 184 791T175 767Z" />
<glyph unicode="&#x16f;" glyph-name="uring" horiz-adv-x="396" d="M174 142Q174 129 178 121T196 113Q210 113 215 121T220 142V567H380V0H220V63H218Q207 34 184 13T117 -9Q62 -9 38 24T14 138V567H174V142ZM364 677Q364 712 388 736T452 761Q491 761 515 737T540
677Q540 642 516 618T452 594Q413 594 389 618T364 677ZM419 677Q419 663 428 654T452 644Q467 644 476 653T485 677Q485 692 476 701T452 711Q437 711 428 701T419 677Z" />
<glyph unicode="&#x170;" glyph-name="Uhungarumlaut" horiz-adv-x="404" d="M388 678V172Q388 87 345 39T210 -9Q114 -9 65 39T16 172V678H182V156Q182 139 187 128T210 116Q228 116 233 127T238 156V678H388ZM227 810L173 705H88L99 810H227ZM362 810L308 705H223L234
810H362Z" />
<glyph unicode="&#x171;" glyph-name="uhungarumlaut" horiz-adv-x="396" d="M174 142Q174 129 178 121T196 113Q210 113 215 121T220 142V567H380V0H220V63H218Q207 34 184 13T117 -9Q62 -9 38 24T14 138V567H174V142ZM215 700L161 595H76L87 700H215ZM350 700L296
595H211L222 700H350Z" />
<glyph unicode="&#x172;" glyph-name="Uogonek" horiz-adv-x="404" d="M388 678V172Q388 118 371 79T317 17Q291 0 286 -8T280 -23Q280 -33 297 -33H303V-90H230Q201 -90 186 -80T170 -49Q170 -27 198 -9Q108 -6 62 42T16 172V678H182V156Q182 139 187 128T210
116Q228 116 233 127T238 156V678H388Z" />
<glyph unicode="&#x173;" glyph-name="uogonek" horiz-adv-x="396" d="M174 142Q174 129 178 121T196 113Q210 113 215 121T220 142V567H380V0H220V63H218Q207 34 184 13T117 -9Q62 -9 38 24T14 138V567H174V142ZM380 0Q373 -5 367 -11T360 -23Q360 -33 377 -33H383V-90H310Q281
-90 266 -80T250 -49Q250 -35 260 -24T294 0H380Z" />
<glyph unicode="&#x174;" glyph-name="Wcircumflex" horiz-adv-x="584" d="M291 351L244 0H96L3 678H162L201 322H202L235 678H365L411 320H412L449 678H585L498 0H347L292 351H291ZM176 699V766L269 820H320L414 766V699L296 729L176 699Z" />
<glyph unicode="&#x175;" glyph-name="wcircumflex" horiz-adv-x="521" d="M521 567L439 0H299L264 296L221 0H83L0 567H162L176 290H177L215 567H327L366 290H367L380 567H521ZM152 588V655L245 709H296L390 655V588L272 618L152 588Z" />
<glyph unicode="&#x176;" glyph-name="Ycircumflex" horiz-adv-x="420" d="M294 258V0H129V258L-2 678H170L220 461H221L268 678H422L294 258ZM100 699V766L193 820H244L338 766V699L220 729L100 699Z" />
<glyph unicode="&#x177;" glyph-name="ycircumflex" horiz-adv-x="371" d="M373 567L273 18Q260 -42 222 -66T108 -90H61V26H114Q126 26 132 30T140 44L141 48H94L-2 567H161L189 264H190L231 567H373ZM330 588V655L423 709H474L568 655V588L450 618L330 588Z" />
<glyph unicode="&#x178;" glyph-name="Ydieresis" horiz-adv-x="420" d="M294 258V0H129V258L-2 678H170L220 461H221L268 678H422L294 258ZM83 788H209V699H83V788ZM227 788H354V699H227V788Z" />
<glyph unicode="&#x179;" glyph-name="Zacute" horiz-adv-x="354" d="M184 122H339V0H12V122L167 556H25V678H339V556L184 122ZM549 720L332 693V775L549 823V720Z" />
<glyph unicode="&#x17a;" glyph-name="zacute" horiz-adv-x="312" d="M172 121H303V0H11V115L142 449H18V567H301V452L172 121ZM529 610L312 583V665L529 713V610Z" />
<glyph unicode="&#x17b;" glyph-name="Zdotaccent" horiz-adv-x="354" d="M184 122H339V0H12V122L167 556H25V678H339V556L184 122ZM358 788H518V699H358V788Z" />
<glyph unicode="&#x17c;" glyph-name="zdotaccent" horiz-adv-x="312" d="M172 121H303V0H11V115L142 449H18V567H301V452L172 121ZM336 678H496V589H336V678Z" />
<glyph unicode="&#x17d;" glyph-name="Zcaron" horiz-adv-x="354" d="M184 122H339V0H12V122L167 556H25V678H339V556L184 122ZM557 826V749L463 704H412L319 749V826L439 795L557 826Z" />
<glyph unicode="&#x17e;" glyph-name="zcaron" horiz-adv-x="312" d="M171 121H302V0H10V115L141 449H17V567H300V452L171 121ZM535 716V639L441 594H390L297 639V716L417 685L535 716Z" />
<glyph unicode="&#x192;" glyph-name="florin" horiz-adv-x="264" d="M19 -90L42 332H8V443H48L54 557Q55 585 62 607T85 645T126 669T189 678H252V569H231Q215 569 214 549L208 443H252V332H202L180 -90H19Z" />
<glyph unicode="&#x218;" glyph-name="Scommaaccent" horiz-adv-x="391" d="M189 -9Q139 -9 105 3T49 38T19 90T10 155V233H161V146Q161 131 167 121T190 111Q205 111 211 121T218 146V172Q218 195 209 213T180 248L108 317Q82 342 64 363T33 407T16 455T10 512V526Q10
559 19 588T50 639T107 674T192 687Q242 687 276 676T331 643T361 590T371 520V473H222V530Q222 547 216 557T194 567Q178 567 172 558T165 532V522Q165 499 177 485T207 453L285 378Q334 330 357 286T381 187V162Q381 85 335 38T189 -9ZM532 -33L493 -90H385L387
-21H532V-33Z" />
<glyph unicode="&#x219;" glyph-name="scommaaccent" horiz-adv-x="363" d="M353 151Q353 79 311 35T180 -9Q94 -9 52 34T9 157V197H150V145Q150 130 155 120T178 110Q192 110 197 120T203 145V154Q203 169 191 183T142 225L109 249Q61 284 37 323T13 414V426Q13
459 23 486T54 534T108 565T187 576Q234 576 265 565T315 532T342 481T350 414V392H211V421Q211 436 207 446T187 457Q171 457 167 447T162 428V426Q162 411 171 399T203 369L236 345Q267 322 289 303T325 263T346 219T353 166V151ZM513 -33L474 -90H366L368 -21H513V-33Z"
/>
<glyph unicode="&#x21a;" glyph-name="uni021A" horiz-adv-x="350" d="M12 678H346V556H263V0H95V556H12V678ZM505 -33L466 -90H358L360 -21H505V-33Z" />
<glyph unicode="&#x21b;" glyph-name="uni021B" horiz-adv-x="278" d="M6 567H44V678H204V567H267V456H204V153Q204 136 212 127T241 118H267V0H207Q160 0 129 8T79 33T52 78T44 146V456H6V567ZM491 -33L452 -90H344L346 -21H491V-33Z" />
<glyph unicode="&#x237;" glyph-name="dotlessj" horiz-adv-x="192" d="M176 567V22Q176 -10 168 -31T140 -66T89 -84T11 -90H-8V-5H-1Q16 -5 16 15V567H176Z" />
<glyph unicode="&#x2c6;" glyph-name="circumflex" horiz-adv-x="400" d="M81 588V655L174 709H225L319 655V588L201 618L81 588Z" />
<glyph unicode="&#x2c7;" glyph-name="caron" horiz-adv-x="400" d="M319 716V639L225 594H174L81 639V716L201 685L319 716Z" />
<glyph unicode="&#x2d8;" glyph-name="breve" horiz-adv-x="400" d="M320 686Q315 635 282 613T200 591Q152 591 118 613T79 686H179Q181 680 185 675T200 669Q211 669 215 674T221 686H320Z" />
<glyph unicode="&#x2d9;" glyph-name="dotaccent" horiz-adv-x="400" d="M120 678H280V589H120V678Z" />
<glyph unicode="&#x2da;" glyph-name="ring" horiz-adv-x="400" d="M112 677Q112 712 136 736T200 761Q239 761 263 737T288 677Q288 642 264 618T200 594Q161 594 137 618T112 677ZM167 677Q167 663 176 654T200 644Q215 644 224 653T233 677Q233 692 224 701T200
711Q185 711 176 701T167 677Z" />
<glyph unicode="&#x2db;" glyph-name="ogonek" horiz-adv-x="400" d="M260 0Q253 -5 247 -11T240 -23Q240 -33 257 -33H263V-90H190Q161 -90 146 -80T130 -49Q130 -35 140 -24T174 0H260Z" />
<glyph unicode="&#x2dc;" glyph-name="tilde" horiz-adv-x="400" d="M75 595Q77 640 94 668T159 696Q170 696 181 693T203 686T222 679T235 675Q241 675 242 679T244 691H320Q318 646 301 617T236 588Q224 588 212 591T190 599T171 606T159 610Q150 610 150 595H75Z" />
<glyph unicode="&#x2dd;" glyph-name="hungarumlaut" horiz-adv-x="400" d="M202 700L148 595H63L74 700H202ZM337 700L283 595H198L209 700H337Z" />
</font>
</defs>
</svg>
