<?xml version="1.0" standalone="no"?> <!DOCTYPE svg PUBLIC "-//W3C//DTD SVG 1.0//EN" "http://www.w3.org/TR/2001/REC-SVG-20010904/DTD/svg10.dtd" > <svg xmlns="http://www.w3.org/2000/svg" width="100%" height="100%">
<defs >
<font horiz-adv-x="349" ><font-face
    font-family=""
    units-per-em="1000"
    panose-1="2 11 6 3 3 2 2 4 2 4"
    ascent="698"
    descent="-90"
    alphabetic="0" />
<missing-glyph horiz-adv-x="625" />
<glyph unicode=" " glyph-name="space" horiz-adv-x="103" />
<glyph unicode="!" glyph-name="exclam" horiz-adv-x="146" d="M31 82H116V0H31V82ZM27 678H119L96 125H50L27 678Z" />
<glyph unicode="&quot;" glyph-name="quotedbl" horiz-adv-x="227" d="M89 542H36L22 678H102L89 542ZM191 542H138L125 678H205L191 542Z" />
<glyph unicode="#" glyph-name="numbersign" horiz-adv-x="336" d="M183 225H126L103 0H47L70 225H16V296H78L90 410H34V481H97L118 678H174L153 481H210L231 678H287L266 481H319V410H259L247 296H301V225H239L216 0H160L183 225ZM134 296H191L203 410H146L134 296Z" />
<glyph unicode="$" glyph-name="dollar" horiz-adv-x="352" d="M194 684Q261 679 291 643T322 541V477H244V544Q244 604 194 613V393L239 349Q262 326 279 307T307 268T324 228T330 178V143Q330 81 297 40T191 -6V-50H154V-6Q83 -1 52 39T20 140V237H100V138Q100
108 113 89T154 65V311L116 349Q92 373 75 392T45 430T28 471T22 521V545Q22 604 55 642T157 684V718H194V684ZM245 169Q245 201 232 224T191 275V64Q219 69 232 89T245 138V169ZM104 527Q104 498 118 476T157 429V614Q132 609 118 592T104 546V527Z" />
<glyph unicode="%" glyph-name="percent" horiz-adv-x="506" d="M403 678H462L102 0H44L403 678ZM362 -7Q299 -7 271 29T242 123V158Q242 216 270 252T362 288Q424 288 453 252T482 158V123Q482 65 453 29T362 -7ZM362 52Q389 52 399 68T410 114V167Q410 196 400
212T362 229Q335 229 325 213T314 167V114Q314 85 324 69T362 52ZM144 390Q81 390 53 426T24 520V555Q24 613 52 649T144 685Q206 685 235 649T264 555V520Q264 462 235 426T144 390ZM144 449Q171 449 181 465T192 511V564Q192 593 182 609T144 626Q116 626 106
610T96 564V511Q96 482 106 466T144 449Z" />
<glyph unicode="&amp;" glyph-name="ampersand" horiz-adv-x="378" d="M157 -7Q91 -7 57 33T23 146V246Q23 344 104 362Q71 373 53 400T34 472V535Q34 607 69 646T178 685Q258 685 290 647T322 532V480H240V533Q240 574 227 593T181 612Q148 612 133 593T118 534V461Q118
394 187 394H364V325H332V0H266V63Q255 34 230 14T157 -7ZM178 66Q218 66 233 88T250 147V325H180Q144 325 128 308T111 256V146Q111 108 126 87T178 66Z" />
<glyph unicode="&apos;" glyph-name="quotesingle" horiz-adv-x="124" d="M89 542H36L22 678H102L89 542Z" />
<glyph unicode="(" glyph-name="parenleft" horiz-adv-x="217" d="M37 510Q37 556 48 590T81 646T131 681T197 698V638Q149 630 130 598T111 511V97Q111 43 130 11T197 -30V-90Q126 -83 82 -39T37 97V510Z" />
<glyph unicode=")" glyph-name="parenright" horiz-adv-x="217" d="M179 97Q179 5 135 -39T19 -90V-30Q67 -22 86 10T105 97V511Q105 565 86 597T19 638V698Q55 694 84 682T135 647T167 590T179 510V97Z" />
<glyph unicode="*" glyph-name="asterisk" horiz-adv-x="257" d="M129 545L97 466L40 507L104 562L20 571L42 637L114 592L94 678H164L144 592L216 637L237 571L154 562L218 507L161 466L129 545Z" />
<glyph unicode="+" glyph-name="plus" horiz-adv-x="355" d="M22 369H142V501H214V369H333V302H214V171H142V302H22V369Z" />
<glyph unicode="," glyph-name="comma" horiz-adv-x="147" d="M119 80L73 -60H20L34 87H119V80Z" />
<glyph unicode="-" glyph-name="hyphen" horiz-adv-x="185" d="M18 350H167V280H18V350Z" />
<glyph unicode="." glyph-name="period" horiz-adv-x="147" d="M31 87H116V0H31V87Z" />
<glyph unicode="/" glyph-name="slash" horiz-adv-x="227" d="M217 698L72 -90H2L147 698H217Z" />
<glyph unicode="0" glyph-name="zero" horiz-adv-x="374" d="M187 66Q225 66 242 91T260 155V523Q260 561 243 586T187 612Q149 612 132 587T114 523V155Q114 117 131 92T187 66ZM187 -7Q146 -7 116 6T65 43T36 99T26 169V509Q26 547 35 579T65 634T115 671T187
685Q228 685 258 672T309 635T338 579T348 509V169Q348 131 339 99T309 44T259 7T187 -7Z" />
<glyph unicode="1" glyph-name="one" horiz-adv-x="232" d="M100 554H99L20 467H19V560L118 678H187V0H100V554Z" />
<glyph unicode="2" glyph-name="two" horiz-adv-x="337" d="M24 118Q24 144 28 165T43 207T69 248T107 293L175 366Q190 382 199 396T215 424T223 454T226 490V548Q226 586 210 600T168 614Q142 614 125 599T108 544V462H26V542Q26 612 63 648T170 685Q312 685
312 548V483Q312 459 309 439T297 400T274 360T239 317L162 235Q149 221 139 210T122 185T112 156T108 118V72H308V0H24V118Z" />
<glyph unicode="3" glyph-name="three" horiz-adv-x="354" d="M180 685Q254 685 288 647T323 536V472Q323 427 301 400T243 362Q285 353 307 324T329 246V143Q329 74 293 34T173 -7Q91 -7 57 35T22 153V241H104V147Q104 108 120 87T173 66Q209 66 225 87T241 144V255Q241
325 171 325H126V393H167Q202 393 221 411T240 461V535Q240 612 175 612Q140 612 125 592T110 534V465H29V528Q29 563 37 592T64 641T110 673T180 685Z" />
<glyph unicode="4" glyph-name="four" horiz-adv-x="368" d="M12 179L214 678H302V193H350V124H302V0H218V124H12V179ZM90 193H219V521H218L90 193Z" />
<glyph unicode="5" glyph-name="five" horiz-adv-x="357" d="M210 459Q234 459 256 451T295 426T322 380T332 311V145Q332 75 297 34T179 -7Q138 -7 109 4T62 36T36 86T28 154V232H109V148Q109 108 125 87T179 66Q215 66 229 87T244 146V310Q244 352 226 370T178
389Q149 389 130 371T111 312V299H30V678H316V606H110V408H111Q125 434 151 446T210 459Z" />
<glyph unicode="6" glyph-name="six" horiz-adv-x="368" d="M184 -7Q101 -7 64 40T26 167V511Q26 591 64 638T184 685Q267 685 300 642T333 523V483H252V530Q252 572 237 592T185 612Q149 612 132 589T114 524V371H115Q127 396 151 412T214 429Q277 429 310 389T343
266V158Q343 79 306 36T184 -7ZM184 65Q256 65 256 151V272Q256 358 186 358Q154 358 135 337T114 277V153Q114 65 184 65Z" />
<glyph unicode="7" glyph-name="seven" horiz-adv-x="309" d="M13 678H287V583L133 0H46L203 592V607H13V678Z" />
<glyph unicode="8" glyph-name="eight" horiz-adv-x="373" d="M186 -7Q143 -7 113 5T63 40T34 92T25 160V240Q25 289 43 324T104 377Q69 393 53 424T37 498V529Q37 604 74 644T186 685Q261 685 298 645T336 529V498Q336 455 320 424T268 377Q310 360 329 325T348
240V160Q348 123 339 93T311 40T260 6T186 -7ZM186 65Q227 65 244 89T261 152V257Q261 295 244 319T186 343Q147 343 130 319T113 257V152Q113 114 130 90T186 65ZM186 410Q224 410 238 432T253 491V534Q253 571 238 592T186 614Q150 614 135 593T120 534V491Q120
455 134 433T186 410Z" />
<glyph unicode="9" glyph-name="nine" horiz-adv-x="368" d="M183 685Q266 685 303 638T341 511V167Q341 86 303 40T183 -7Q99 -7 65 36T30 155V195H111V148Q111 66 181 66Q255 66 255 153V307H254Q241 283 217 266T152 249Q90 249 57 289T24 412V520Q24 599 61
642T183 685ZM183 613Q111 613 111 526V406Q111 320 182 320Q214 320 233 341T255 401V525Q255 567 237 590T183 613Z" />
<glyph unicode=":" glyph-name="colon" horiz-adv-x="147" d="M31 87H116V0H31V87ZM31 339H116V251H31V339Z" />
<glyph unicode=";" glyph-name="semicolon" horiz-adv-x="147" d="M34 87H119V80L73 -60H20L34 87ZM34 339H120V251H34V339Z" />
<glyph unicode="&lt;" glyph-name="less" horiz-adv-x="319" d="M19 355L292 489V412L114 332L292 252V174L19 308V355Z" />
<glyph unicode="=" glyph-name="equal" horiz-adv-x="362" d="M24 294H338V231H24V294ZM24 413H338V350H24V413Z" />
<glyph unicode="&gt;" glyph-name="greater" horiz-adv-x="319" d="M27 174V252L205 332L27 412V489L300 355V308L27 174Z" />
<glyph unicode="?" glyph-name="question" horiz-adv-x="330" d="M109 125V214Q109 238 111 254T119 284T132 311T153 343L195 408Q209 430 214 446T219 488V542Q219 584 203 599T161 614Q134 614 118 599T101 545V464H19V543Q19 613 55 649T163 685Q235 685 269
651T304 539V487Q304 468 302 454T294 426T281 399T262 369L217 302Q209 290 203 281T193 261T187 240T185 213V125H109ZM105 82H190V0H105V82Z" />
<glyph unicode="@" glyph-name="at" horiz-adv-x="509" d="M397 34Q359 34 340 49T315 91H314Q303 65 283 50T229 34Q187 34 160 59T132 146V425Q132 458 140 480T163 517T195 537T235 543Q270 543 286 530T311 501H312V538H376V114Q376 93 383 86T407 78Q421
78 428 86T435 115V495Q435 536 422 564T385 611T328 637T256 646Q218 646 185 637T127 608T88 558T73 487V119Q73 38 123 -6T264 -51H423V-90H264Q154 -90 92 -36T29 119V487Q29 537 48 574T99 636T171 673T256 685Q301 685 341 674T413 640T462 581T480 495V119Q480
81 461 58T397 34ZM207 146Q207 120 217 106T254 92Q301 92 301 145V425Q301 457 289 471T255 485Q229 485 218 470T207 425V146Z" />
<glyph unicode="A" glyph-name="A" horiz-adv-x="382" d="M8 0L139 678H242L374 0H284L258 142H117L92 0H8ZM130 214H245L188 533H187L130 214Z" />
<glyph unicode="B" glyph-name="B" horiz-adv-x="356" d="M27 678H176Q256 678 288 643T320 539V459Q320 417 304 390T251 352Q338 335 338 241V139Q338 71 304 36T190 0H27V678ZM180 72Q251 72 251 138V250Q251 282 234 298T179 315H115V72H180ZM115 606V383H169Q237
383 237 450V540Q237 606 167 606H115Z" />
<glyph unicode="C" glyph-name="C" horiz-adv-x="364" d="M188 -7Q145 -7 114 6T64 44T35 100T26 169V509Q26 546 35 578T63 634T114 671T188 685Q233 685 262 673T309 640T333 588T340 522V442H258V528Q258 568 244 590T189 612Q148 612 131 586T114 522V156Q114
118 131 92T189 66Q230 66 244 89T259 150V272H340V156Q340 121 333 91T308 40T261 6T188 -7Z" />
<glyph unicode="D" glyph-name="D" horiz-adv-x="374" d="M115 72H176Q223 72 241 97T260 161V518Q260 556 242 581T176 606H115V72ZM187 678Q232 678 262 665T312 628T339 572T348 502V176Q348 139 340 107T312 51T263 14T187 0H27V678H187Z" />
<glyph unicode="E" glyph-name="E" horiz-adv-x="310" d="M27 678H288V606H115V380H240V309H115V72H288V0H27V678Z" />
<glyph unicode="F" glyph-name="F" horiz-adv-x="294" d="M27 678H282V606H115V380H240V309H115V0H27V678Z" />
<glyph unicode="G" glyph-name="G" horiz-adv-x="374" d="M193 354H345V0H278V67Q267 35 243 14T170 -7Q132 -7 105 6T61 44T35 100T26 169V509Q26 546 35 578T65 634T115 671T189 685Q234 685 264 673T312 640T337 588T345 522V462H263V528Q263 568 248 590T191
612Q150 612 132 586T114 522V156Q114 118 131 92T188 66Q226 66 243 88T261 151V284H193V354Z" />
<glyph unicode="H" glyph-name="H" horiz-adv-x="372" d="M256 309H115V0H27V678H115V381H256V678H345V0H256V309Z" />
<glyph unicode="I" glyph-name="I" horiz-adv-x="142" d="M27 678H115V0H27V678Z" />
<glyph unicode="J" glyph-name="J" horiz-adv-x="332" d="M307 678V145Q307 75 274 34T161 -7Q121 -7 94 3T51 33T28 79T21 137V272H105V135Q105 103 118 85T161 66Q192 66 205 85T219 136V678H307Z" />
<glyph unicode="K" glyph-name="K" horiz-adv-x="358" d="M115 335V0H27V678H115V370L264 678H352L196 364L354 0H262L115 335Z" />
<glyph unicode="L" glyph-name="L" horiz-adv-x="278" d="M27 678H115V72H266V0H27V678Z" />
<glyph unicode="M" glyph-name="M" horiz-adv-x="451" d="M342 497H339L245 0H201L103 497H101V0H27V678H135L223 231H224L307 678H425V0H342V497Z" />
<glyph unicode="N" glyph-name="N" horiz-adv-x="364" d="M102 483V0H27V678H115L263 225V678H338V0H259L102 483Z" />
<glyph unicode="O" glyph-name="O" horiz-adv-x="381" d="M190 66Q231 66 249 92T267 156V522Q267 560 249 586T190 612Q150 612 132 586T114 522V156Q114 118 132 92T190 66ZM190 -7Q147 -7 116 6T65 44T36 100T26 169V509Q26 546 35 578T65 634T116 671T190
685Q233 685 264 672T316 635T345 579T355 509V169Q355 132 346 100T316 44T265 7T190 -7Z" />
<glyph unicode="P" glyph-name="P" d="M27 678H181Q261 678 294 641T328 537V380Q328 314 295 276T181 237H115V0H27V678ZM115 606V306H171Q241 306 241 374V540Q241 606 171 606H115Z" />
<glyph unicode="Q" glyph-name="Q" horiz-adv-x="381" d="M154 -37V0Q87 10 57 56T26 169V509Q26 546 35 578T65 634T116 671T190 685Q233 685 264 672T316 635T345 579T355 509V169Q355 112 333 69T260 8L358 -11V-77L154 -37ZM190 63Q231 63 249 88T267 151V522Q267
560 249 586T190 612Q150 612 132 586T114 522V151Q114 114 132 89T190 63Z" />
<glyph unicode="R" glyph-name="R" horiz-adv-x="350" d="M115 326V0H27V678H178Q258 678 292 641T326 537V444Q326 385 300 352T213 311L346 0H252L115 326ZM115 606V370H168Q238 370 238 437V540Q238 606 168 606H115Z" />
<glyph unicode="S" glyph-name="S" horiz-adv-x="351" d="M174 -7Q93 -7 57 34T20 140V237H103V138Q103 103 120 84T175 64Q210 64 226 85T243 138V169Q243 203 230 226T184 279L116 346Q92 370 75 389T45 429T28 471T22 521V545Q22 607 59 646T172 685Q251 685
286 648T322 541V477H241V544Q241 614 173 614Q142 614 124 597T105 546V527Q105 495 122 472T168 421L239 351Q262 328 279 309T307 269T324 228T330 178V143Q330 111 321 84T293 36T244 5T174 -7Z" />
<glyph unicode="T" glyph-name="T" horiz-adv-x="317" d="M12 678H304V606H203V0H114V606H12V678Z" />
<glyph unicode="U" glyph-name="U" horiz-adv-x="367" d="M341 678V160Q341 85 306 39T187 -7Q101 -7 64 39T26 160V678H114V152Q114 114 130 90T187 66Q227 66 243 90T259 152V678H341Z" />
<glyph unicode="V" glyph-name="V" horiz-adv-x="375" d="M367 678L237 0H140L9 678H98L190 158H191L284 678H367Z" />
<glyph unicode="W" glyph-name="W" horiz-adv-x="525" d="M262 468L188 0H102L10 678H96L157 195H158L229 678H303L376 196H377L439 678H514L424 0H338L263 468H262Z" />
<glyph unicode="X" glyph-name="X" horiz-adv-x="374" d="M126 359L22 678H113L189 432L266 678H350L245 355L362 0H270L182 280L96 0H12L126 359Z" />
<glyph unicode="Y" glyph-name="Y" horiz-adv-x="356" d="M222 258V0H134V258L7 678H98L181 383H182L264 678H349L222 258Z" />
<glyph unicode="Z" glyph-name="Z" horiz-adv-x="324" d="M109 72H297V0H17V72L211 606H36V678H304V606L109 72Z" />
<glyph unicode="[" glyph-name="bracketleft" horiz-adv-x="208" d="M38 698H189V640H112V-32H189V-90H38V698Z" />
<glyph unicode="\" glyph-name="backslash" horiz-adv-x="227" d="M10 698H80L225 -90H155L10 698Z" />
<glyph unicode="]" glyph-name="bracketright" horiz-adv-x="208" d="M19 -32H96V640H19V698H170V-90H19V-32Z" />
<glyph unicode="^" glyph-name="asciicircum" horiz-adv-x="281" d="M124 678H157L264 484H191L140 579L89 484H16L124 678Z" />
<glyph unicode="_" glyph-name="underscore" horiz-adv-x="270" d="M-2 -34H272V-90H-2V-34Z" />
<glyph unicode="`" glyph-name="grave" horiz-adv-x="400" d="M111 689L280 645V593L111 626V689Z" />
<glyph unicode="a" glyph-name="a" horiz-adv-x="342" d="M233 0V49H230Q219 29 197 11T137 -7Q79 -7 50 26T20 132V176Q20 210 29 233T55 273T95 302T145 326Q172 338 189 347T216 364T229 381T233 400V432Q233 468 221 486T176 504Q143 504 129 487T114 434V378H35V428Q35
495 68 534T179 574Q254 574 286 536T318 424V0H233ZM165 62Q199 62 216 81T233 135V306Q226 298 213 289T164 262Q132 245 118 228T104 174V135Q104 100 117 81T165 62Z" />
<glyph unicode="b" glyph-name="b" horiz-adv-x="351" d="M27 678H112V509H113Q124 533 148 553T216 574Q270 574 298 541T327 435V132Q327 60 296 27T211 -7Q167 -7 146 13T113 56H112V0H27V678ZM242 431Q242 466 228 485T179 504Q147 504 131 486T112 436V129Q114
97 130 80T178 62Q213 62 227 81T242 135V431Z" />
<glyph unicode="c" glyph-name="c" horiz-adv-x="343" d="M324 211V149Q324 75 289 34T178 -7Q101 -7 63 37T25 156V412Q25 486 63 530T178 574Q254 574 289 534T324 419V378H242V427Q242 464 227 484T178 504Q143 504 126 483T109 424V143Q109 106 126 85T179
63Q214 63 229 83T244 141V211H324Z" />
<glyph unicode="d" glyph-name="d" horiz-adv-x="351" d="M325 0H240V57H238Q233 45 225 34T206 13T179 -1T141 -7Q86 -7 56 26T25 132V435Q25 507 55 540T139 574Q182 574 204 555T238 512H240V678H325V0ZM110 135Q110 100 124 81T173 62Q205 62 221 80T240 130V429Q240
464 223 484T173 504Q139 504 125 485T110 431V135Z" />
<glyph unicode="e" glyph-name="e" horiz-adv-x="351" d="M326 211V149Q326 75 291 34T179 -7Q101 -7 63 37T25 156V412Q25 486 63 530T178 574Q254 574 290 533T326 417V278H109V143Q109 106 127 85T180 63Q214 63 230 83T246 141V211H326ZM109 341H244V424Q244
462 228 483T178 504Q143 504 126 483T109 424V341Z" />
<glyph unicode="f" glyph-name="f" horiz-adv-x="221" d="M14 567H55V590Q55 637 78 657T152 678H207V619H170Q153 619 147 612T140 588V567H207V502H140V0H55V502H14V567Z" />
<glyph unicode="g" glyph-name="g" horiz-adv-x="351" d="M324 567V59Q324 -10 290 -53T174 -97Q96 -97 61 -61T25 33V57H105V38Q105 6 120 -10T172 -27Q209 -27 224 -7T240 47V149H238Q227 126 206 107T141 88Q86 88 56 121T25 226V435Q25 507 55 540T138 574Q182
574 204 555T238 512H240V567H324ZM172 157Q204 157 221 174T240 224V436Q238 468 222 486T173 504Q139 504 125 485T110 431V229Q110 194 123 176T172 157Z" />
<glyph unicode="h" glyph-name="h" d="M239 432Q239 467 226 485T178 504Q146 504 129 485T112 431V0H27V678H112V510H113Q124 536 147 555T214 574Q268 574 296 541T324 435V0H239V432Z" />
<glyph unicode="i" glyph-name="i" horiz-adv-x="138" d="M27 567H112V0H27V567ZM27 678H112V609H27V678Z" />
<glyph unicode="j" glyph-name="j" horiz-adv-x="138" d="M112 567V-4Q112 -52 88 -71T4 -90H-8V-29H-1Q15 -29 21 -23T27 -3V567H112ZM27 678H112V609H27V678Z" />
<glyph unicode="k" glyph-name="k" horiz-adv-x="326" d="M233 0L112 281V0H27V678H112V312L234 567H318L191 308L323 0H233Z" />
<glyph unicode="l" glyph-name="l" horiz-adv-x="138" d="M27 678H112V0H27V678Z" />
<glyph unicode="m" glyph-name="m" horiz-adv-x="541" d="M229 434Q229 467 217 485T172 504Q141 504 127 485T112 433V0H27V567H112V511H113Q124 535 146 554T209 574Q280 574 303 508H306Q317 534 342 554T409 574Q463 574 489 541T516 438V0H431V434Q431 467
419 485T375 504Q346 504 331 487T313 439V0H229V434Z" />
<glyph unicode="n" glyph-name="n" d="M239 432Q239 467 226 485T178 504Q146 504 129 485T112 431V0H27V567H112V510H113Q124 536 147 555T214 574Q268 574 296 541T324 435V0H239V432Z" />
<glyph unicode="o" glyph-name="o" horiz-adv-x="355" d="M330 156Q330 82 292 38T178 -7Q101 -7 63 37T25 156V411Q25 486 63 530T178 574Q254 574 292 530T330 411V156ZM178 63Q212 63 229 84T246 143V424Q246 461 229 482T178 504Q143 504 126 483T109 424V143Q109
106 126 85T178 63Z" />
<glyph unicode="p" glyph-name="p" horiz-adv-x="351" d="M27 567H112V509H113Q124 533 148 553T216 574Q270 574 298 541T327 435V132Q327 60 296 27T211 -7Q167 -7 146 12T113 56H112V-90H27V567ZM242 431Q242 466 228 485T179 504Q147 504 131 486T112 436V129Q114
97 130 80T178 62Q213 62 227 81T242 135V431Z" />
<glyph unicode="q" glyph-name="q" horiz-adv-x="351" d="M324 -90H240V57H238Q233 45 225 34T206 13T179 -1T141 -7Q86 -7 56 26T25 132V435Q25 507 55 540T138 574Q182 574 204 555T238 512H240V567H324V-90ZM110 135Q110 100 123 81T172 62Q207 62 223 82T240
137V429Q240 464 223 484T173 504Q139 504 125 485T110 431V135Z" />
<glyph unicode="r" glyph-name="r" horiz-adv-x="219" d="M205 473H184Q115 473 112 407V0H27V567H112V503H114Q118 515 125 526T143 548T169 564T205 571V473Z" />
<glyph unicode="s" glyph-name="s" horiz-adv-x="330" d="M308 136Q308 70 274 32T164 -7Q92 -7 57 32T21 140V198H99V136Q99 63 163 63Q198 63 213 80T228 130V147Q228 172 214 192T161 242L112 281Q90 298 74 314T47 347T31 384T25 428V443Q25 501 59 537T165
574Q240 574 271 537T303 431V396H227V435Q227 504 165 504Q133 504 119 488T105 445V433Q105 409 117 392T163 350L211 312Q238 290 257 273T287 239T303 202T308 155V136Z" />
<glyph unicode="t" glyph-name="t" horiz-adv-x="229" d="M12 567H54V678H139V567H212V502H139V107Q139 86 147 77T179 68H212V0H170Q105 0 80 25T54 111V502H12V567Z" />
<glyph unicode="u" glyph-name="u" d="M110 135Q110 100 123 82T171 63Q234 63 237 128V567H322V0H237V57H236Q224 31 201 12T134 -7Q80 -7 53 26T25 132V567H110V135Z" />
<glyph unicode="v" glyph-name="v" horiz-adv-x="326" d="M323 567L210 0H116L2 567H89L166 150H167L244 567H323Z" />
<glyph unicode="w" glyph-name="w" horiz-adv-x="478" d="M472 567L384 0H306L241 389L171 0H94L5 567H90L141 181H142L211 567H276L344 181H345L396 567H472Z" />
<glyph unicode="x" glyph-name="x" horiz-adv-x="334" d="M321 567L227 298L329 0H242L164 231L85 0H4L108 301L14 567H101L171 363L241 567H321Z" />
<glyph unicode="y" glyph-name="y" horiz-adv-x="322" d="M319 567L196 1Q191 -25 182 -42T159 -70T125 -85T76 -90H43V-22H75Q98 -22 107 -13T123 20L131 53H111L2 567H90L160 185H161L241 567H319Z" />
<glyph unicode="z" glyph-name="z" horiz-adv-x="295" d="M106 68H271V0H19V68L188 499H30V567H274V499L106 68Z" />
<glyph unicode="{" glyph-name="braceleft" horiz-adv-x="239" d="M201 -84Q123 -84 93 -48T71 60L87 213Q91 245 80 261T29 277H19V337H29Q68 337 79 353T87 402L71 554Q63 626 93 662T201 698H220V640H197Q138 640 145 566L162 411Q171 327 101 307Q171 289
162 203L145 48Q141 10 154 -7T197 -25H220V-84H201Z" />
<glyph unicode="|" glyph-name="bar" horiz-adv-x="136" d="M100 698V-90H33V698H100Z" />
<glyph unicode="}" glyph-name="braceright" horiz-adv-x="239" d="M19 -25H42Q72 -25 85 -8T94 48L78 203Q69 289 139 307Q69 326 78 411L94 566Q103 640 42 640H19V698H38Q116 698 146 662T168 554L152 402Q149 370 160 354T210 337H221V277H210Q172 277 161
261T152 213L168 60Q176 -12 146 -48T38 -84H19V-25Z" />
<glyph unicode="~" glyph-name="asciitilde" horiz-adv-x="254" d="M13 269Q15 309 31 335T83 362Q96 362 107 358T129 350T148 341T165 337Q175 337 179 343T184 361H241Q239 322 223 296T170 269Q158 269 147 273T125 281T106 290T89 294Q70 294 70 269H13Z" />
<glyph unicode="&#xa1;" glyph-name="exclamdown" horiz-adv-x="146" d="M115 506H30V588H115V506ZM49 463H96L119 -90H27L49 463Z" />
<glyph unicode="&#xa2;" glyph-name="cent" horiz-adv-x="343" d="M324 211V149Q324 79 294 39T197 -6V-50H159V-6Q91 -1 58 42T25 155V412Q25 481 58 524T159 573V623H197V573Q263 568 293 529T324 420V378H242V427Q242 459 231 478T197 503V64Q245 73 245 141V211H324ZM109
143Q109 111 121 91T159 64V503Q134 497 122 477T109 425V143Z" />
<glyph unicode="&#xa3;" glyph-name="sterling" horiz-adv-x="355" d="M10 356H47V532Q47 614 85 649T193 685Q265 685 300 649T335 544V480H253V545Q253 584 237 599T195 614Q170 614 152 599T134 539V356H261V289H134V72H333V0H47V289H10V356Z" />
<glyph unicode="&#xa5;" glyph-name="yen" horiz-adv-x="360" d="M36 299H136L9 678H101L183 406H184L267 678H351L224 299H324V248H224V218H324V168H224V0H137V168H36V218H137V248H36V299Z" />
<glyph unicode="&#xa6;" glyph-name="brokenbar" horiz-adv-x="134" d="M33 -90V283H99V-90H33ZM99 698V341H33V698H99Z" />
<glyph unicode="&#xa7;" glyph-name="section" horiz-adv-x="392" d="M22 317Q22 361 46 386T105 424V426Q79 449 67 477T55 543V554Q55 613 89 649T195 685Q267 685 302 647T337 540V506H261V544Q261 578 244 597T194 616Q130 616 130 554V545Q130 523 138 508T174
476L287 406Q331 379 350 352T370 281Q370 235 345 210T286 174V171Q312 150 326 123T341 57V37Q341 -27 307 -62T197 -97Q125 -97 90 -59T54 48V91H131V44Q131 -27 198 -27Q265 -27 265 38V50Q265 73 255 89T211 127L105 192Q63 218 43 246T22 317ZM98 331Q98
305 109 290T152 256L239 202Q262 209 278 224T294 266Q294 293 282 308T240 341L149 395Q127 387 113 372T98 331Z" />
<glyph unicode="&#xa8;" glyph-name="dieresis" horiz-adv-x="400" d="M108 668H184V598H108V668ZM215 668H292V598H215V668Z" />
<glyph unicode="&#xa9;" glyph-name="copyright" horiz-adv-x="411" d="M383 308Q383 266 372 231T338 169T282 129T206 114Q163 114 130 128T74 169T40 230T28 308V368Q28 410 39 445T73 507T129 547T206 562Q249 562 282 548T337 507T371 446T383 368V308ZM355
368Q355 443 318 490T206 538Q130 538 93 491T56 368V308Q56 233 93 186T206 138Q281 138 318 185T355 308V368ZM290 316V281Q290 240 271 217T206 194Q161 194 141 219T120 286V389Q120 431 140 456T206 482Q251 482 270 459T290 395V374H237V400Q237 417 230
427T206 438Q189 438 181 427T173 398V278Q173 260 181 249T207 238Q224 238 231 248T239 276V316H290Z" />
<glyph unicode="&#xaa;" glyph-name="ordfeminine" horiz-adv-x="306" d="M208 192V234H206Q196 217 177 201T123 185Q73 185 47 214T20 307V339Q20 369 28 389T51 423T86 449T131 471Q155 482 170 490T193 505T205 521T208 538V561Q208 590 198 605T158 621Q129
621 117 606T104 562V515H33V557Q33 616 62 650T161 685Q228 685 256 651T284 554V192H208ZM150 246Q180 246 194 264T208 314V454Q202 446 191 439T147 414Q133 406 123 400T107 385T98 365T95 336V311Q95 280 106 263T150 246Z" />
<glyph unicode="&#xab;" glyph-name="guillemotleft" horiz-adv-x="268" d="M143 378L87 232L143 86H79L21 232L79 378H143ZM247 378L190 232L247 86H183L124 232L183 378H247Z" />
<glyph unicode="&#xae;" glyph-name="registered" horiz-adv-x="411" d="M383 430Q383 388 372 353T338 291T282 251T206 236Q163 236 130 250T74 291T40 352T28 430V491Q28 533 39 568T73 630T129 670T206 685Q249 685 282 671T337 630T371 569T383 491V430ZM56
430Q56 355 93 308T206 260Q281 260 318 307T355 430V491Q355 528 346 559T318 612T271 647T206 660Q168 660 140 648T93 613T65 559T56 491V430ZM182 456V322H133V603H213Q251 603 267 587T284 538V509Q284 480 272 466T236 447L290 322H239L182 456ZM182 564V478H208Q236
478 236 504V538Q236 564 208 564H182Z" />
<glyph unicode="&#xaf;" glyph-name="macron" horiz-adv-x="400" d="M110 658H290V605H110V658Z" />
<glyph unicode="&#xb0;" glyph-name="degree" horiz-adv-x="192" d="M17 604Q17 637 39 659T96 682Q131 682 153 660T175 604Q175 572 153 549T96 526Q62 526 40 549T17 604ZM61 604Q61 588 70 578T96 567Q112 567 121 577T131 604Q131 621 122 631T96 642Q80
642 71 632T61 604Z" />
<glyph unicode="&#xb2;" glyph-name="twosuperior" horiz-adv-x="212" d="M25 436Q25 454 27 466T35 487T48 505T69 523L107 550Q120 560 124 568T129 591V609Q129 636 105 636Q94 636 87 630T79 606V579H26V605Q26 640 44 661T105 682Q145 682 165 665T185 608V588Q185
568 178 551T147 517L103 485Q88 474 84 467T80 442V438H180V393H25V436Z" />
<glyph unicode="&#xb3;" glyph-name="threesuperior" horiz-adv-x="214" d="M104 390Q59 390 41 410T23 467V494H76V464Q76 449 82 441T104 433Q119 433 125 440T131 462V494Q131 509 126 515T102 522H78V562H98Q117 562 123 569T129 591V611Q129 639 103 639Q89
639 84 632T78 608V589H25V606Q25 621 29 634T42 658T66 675T106 682Q148 682 165 663T183 611V592Q183 575 176 562T148 544Q170 540 178 527T187 494V463Q187 430 169 410T104 390Z" />
<glyph unicode="&#xb4;" glyph-name="acute" horiz-adv-x="400" d="M289 626L120 593V645L289 689V626Z" />
<glyph unicode="&#xb6;" glyph-name="paragraph" horiz-adv-x="351" d="M158 0V293H141Q81 293 51 321T20 402V569Q20 622 50 650T141 678H324V0H262V617H220V0H158Z" />
<glyph unicode="&#xb7;" glyph-name="periodcentered" horiz-adv-x="147" d="M31 388H116V301H31V388Z" />
<glyph unicode="&#xb8;" glyph-name="cedilla" horiz-adv-x="400" d="M128 -70Q152 -69 160 -65T169 -54Q169 -43 150 -43H143V0H179V-19Q223 -22 223 -54Q223 -76 201 -87T128 -98V-70Z" />
<glyph unicode="&#xb9;" glyph-name="onesuperior" horiz-adv-x="155" d="M119 678V394H59V606H58L16 567H15V625L68 678H119Z" />
<glyph unicode="&#xba;" glyph-name="ordmasculine" horiz-adv-x="313" d="M291 330Q291 264 257 225T157 185Q89 185 55 224T21 330V540Q21 606 55 645T157 685Q223 685 257 646T291 540V330ZM157 248Q187 248 201 267T216 320V550Q216 584 202 602T157 621Q126
621 112 603T97 550V320Q97 286 111 267T157 248Z" />
<glyph unicode="&#xbb;" glyph-name="guillemotright" horiz-adv-x="268" d="M78 232L21 378H85L143 232L85 86H21L78 232ZM181 232L124 378H189L247 232L189 86H124L181 232Z" />
<glyph unicode="&#xbc;" glyph-name="onequarter" horiz-adv-x="257" d="M25 359H236V321H25V359ZM159 678V394H99V606H98L56 567H55V625L108 678H159ZM24 78L127 284H186V85H211V44H186V0H129V44H24V78ZM73 85H130V202H129L73 85Z" />
<glyph unicode="&#xbd;" glyph-name="onehalf" horiz-adv-x="255" d="M21 359H234V321H21V359ZM156 678V394H95V606H94L52 567H51V625L105 678H156ZM48 42Q48 78 58 94T92 129L130 157Q143 167 147 175T152 198V216Q152 243 128 243Q117 243 110 237T102 213V186H49V212Q49
247 67 267T128 288Q168 288 188 271T208 215V195Q208 175 201 158T170 124L126 91Q111 80 107 73T103 49V45H203V0H48V42Z" />
<glyph unicode="&#xbe;" glyph-name="threequarters" horiz-adv-x="253" d="M22 359H229V321H22V359ZM25 78L128 284H187V85H211V44H187V0H130V44H25V78ZM130 85V202H129L74 85H130ZM96 494V464Q96 449 102 441T124 433Q139 433 144 440T150 462V494Q150 509 145
515T122 522H98V562H118Q137 562 143 569T149 591V611Q149 639 123 639Q97 639 97 608V589H45V606Q45 621 49 634T62 658T86 675T125 682Q168 682 185 663T202 611V592Q202 575 195 562T168 544Q189 540 197 527T206 494V463Q206 430 188 410T124 390Q79 390 61
410T43 467V494H96Z" />
<glyph unicode="&#xbf;" glyph-name="questiondown" horiz-adv-x="330" d="M220 463V374Q220 350 218 334T210 304T197 277T177 245L135 180Q121 158 116 142T111 100V46Q111 4 126 -11T168 -26Q195 -26 211 -11T228 43V124H310V45Q310 -97 166 -97Q95 -97 60
-63T25 49V101Q25 120 27 134T35 162T48 189T68 219L112 286Q120 298 126 307T137 327T143 348T145 375V463H220ZM225 506H140V588H225V506Z" />
<glyph unicode="&#xc0;" glyph-name="Agrave" horiz-adv-x="382" d="M8 0L139 678H242L374 0H284L258 142H117L92 0H8ZM130 214H245L188 533H187L130 214ZM359 797L528 753V701L359 734V797Z" />
<glyph unicode="&#xc1;" glyph-name="Aacute" horiz-adv-x="382" d="M8 0L139 678H242L374 0H284L258 142H117L92 0H8ZM130 214H245L188 533H187L130 214ZM537 734L368 701V753L537 797V734Z" />
<glyph unicode="&#xc2;" glyph-name="Acircumflex" horiz-adv-x="382" d="M8 0L139 678H242L374 0H284L258 142H117L92 0H8ZM130 214H245L188 533H187L130 214ZM354 701V747L427 803H465L538 747V701L447 740L354 701Z" />
<glyph unicode="&#xc3;" glyph-name="Atilde" horiz-adv-x="382" d="M8 0L139 678H242L374 0H284L258 142H117L92 0H8ZM130 214H245L188 533H187L130 214ZM480 708Q458 708 441 718T411 728Q394 728 394 708H348Q349 740 363 762T411 784Q434 784 450 774T480
764Q496 764 498 784H544Q542 752 528 730T480 708Z" />
<glyph unicode="&#xc4;" glyph-name="Adieresis" horiz-adv-x="382" d="M8 0L139 678H242L374 0H284L258 142H117L92 0H8ZM130 214H245L188 533H187L130 214ZM355 776H431V706H355V776ZM462 776H539V706H462V776Z" />
<glyph unicode="&#xc5;" glyph-name="Aring" horiz-adv-x="382" d="M8 0L139 678H242L374 0H284L258 142H117L92 0H8ZM130 214H245L188 533H187L130 214ZM375 762Q375 791 395 811T446 831Q477 831 496 811T516 762Q516 733 497 713T446 693Q415 693 395 713T375
762ZM415 762Q415 748 423 739T446 729Q460 729 468 738T477 762Q477 776 469 786T446 796Q432 796 424 786T415 762Z" />
<glyph unicode="&#xc6;" glyph-name="AE" horiz-adv-x="533" d="M6 0L185 678H511V606H340V380H462V309H340V72H511V0H252V142H125L90 0H6ZM143 214H252V600H240L143 214Z" />
<glyph unicode="&#xc7;" glyph-name="Ccedilla" horiz-adv-x="364" d="M141 -70Q166 -69 174 -65T183 -54Q183 -43 163 -43H156V-5Q121 -1 97 14T57 53T34 106T26 169V509Q26 546 35 578T63 634T114 671T188 685Q233 685 262 673T309 640T333 588T340 522V442H258V528Q258
568 244 590T189 612Q148 612 131 586T114 522V156Q114 118 131 92T189 66Q230 66 244 89T259 150V272H340V156Q340 121 333 92T309 41T263 7T193 -7V-19Q236 -22 236 -54Q236 -76 214 -87T141 -98V-70Z" />
<glyph unicode="&#xc8;" glyph-name="Egrave" horiz-adv-x="310" d="M27 678H288V606H115V380H240V309H115V72H288V0H27V678ZM335 797L504 753V701L335 734V797Z" />
<glyph unicode="&#xc9;" glyph-name="Eacute" horiz-adv-x="310" d="M512 734L343 701V753L512 797V734ZM27 678H288V606H115V380H240V309H115V72H288V0H27V678Z" />
<glyph unicode="&#xca;" glyph-name="Ecircumflex" horiz-adv-x="310" d="M330 701V747L403 803H441L514 747V701L423 740L330 701ZM27 678H288V606H115V380H240V309H115V72H288V0H27V678Z" />
<glyph unicode="&#xcb;" glyph-name="Edieresis" horiz-adv-x="310" d="M330 776H406V706H330V776ZM437 776H514V706H437V776ZM27 678H288V606H115V380H240V309H115V72H288V0H27V678Z" />
<glyph unicode="&#xcc;" glyph-name="Igrave" horiz-adv-x="142" d="M27 678H115V0H27V678ZM240 797L409 753V701L240 734V797Z" />
<glyph unicode="&#xcd;" glyph-name="Iacute" horiz-adv-x="142" d="M27 678H115V0H27V678ZM417 734L248 701V753L417 797V734Z" />
<glyph unicode="&#xce;" glyph-name="Icircumflex" horiz-adv-x="142" d="M27 678H115V0H27V678ZM-14 702V746L51 804H90L155 746V702L71 743L-14 702Z" />
<glyph unicode="&#xcf;" glyph-name="Idieresis" horiz-adv-x="142" d="M27 678H115V0H27V678ZM-11 776H58V707H-11V776ZM84 776H152V707H84V776Z" />
<glyph unicode="&#xd0;" glyph-name="Eth" horiz-adv-x="378" d="M0 380H30V678H190Q235 678 265 665T315 628T342 572T351 502V176Q351 139 343 107T315 51T266 14T190 0H30V309H0V380ZM118 380H208V309H118V72H180Q226 72 245 97T264 161V518Q264 556 245 581T180
606H118V380Z" />
<glyph unicode="&#xd1;" glyph-name="Ntilde" horiz-adv-x="364" d="M102 483V0H27V678H115L263 225V678H338V0H259L102 483ZM483 708Q461 708 444 718T414 728Q397 728 397 708H351Q352 740 366 762T414 784Q437 784 453 774T483 764Q499 764 501 784H547Q545
752 531 730T483 708Z" />
<glyph unicode="&#xd2;" glyph-name="Ograve" horiz-adv-x="381" d="M190 66Q231 66 249 92T267 156V522Q267 560 249 586T190 612Q150 612 132 586T114 522V156Q114 118 132 92T190 66ZM190 -7Q147 -7 116 6T65 44T36 100T26 169V509Q26 546 35 578T65 634T116
671T190 685Q233 685 264 672T316 635T345 579T355 509V169Q355 132 346 100T316 44T265 7T190 -7ZM362 797L531 753V701L362 734V797Z" />
<glyph unicode="&#xd3;" glyph-name="Oacute" horiz-adv-x="381" d="M540 734L371 701V753L540 797V734ZM190 66Q231 66 249 92T267 156V522Q267 560 249 586T190 612Q150 612 132 586T114 522V156Q114 118 132 92T190 66ZM190 -7Q147 -7 116 6T65 44T36 100T26
169V509Q26 546 35 578T65 634T116 671T190 685Q233 685 264 672T316 635T345 579T355 509V169Q355 132 346 100T316 44T265 7T190 -7Z" />
<glyph unicode="&#xd4;" glyph-name="Ocircumflex" horiz-adv-x="381" d="M355 701V747L428 803H466L539 747V701L448 740L355 701ZM190 66Q231 66 249 92T267 156V522Q267 560 249 586T190 612Q150 612 132 586T114 522V156Q114 118 132 92T190 66ZM190 -7Q147
-7 116 6T65 44T36 100T26 169V509Q26 546 35 578T65 634T116 671T190 685Q233 685 264 672T316 635T345 579T355 509V169Q355 132 346 100T316 44T265 7T190 -7Z" />
<glyph unicode="&#xd5;" glyph-name="Otilde" horiz-adv-x="381" d="M190 66Q231 66 249 92T267 156V522Q267 560 249 586T190 612Q150 612 132 586T114 522V156Q114 118 132 92T190 66ZM190 -7Q147 -7 116 6T65 44T36 100T26 169V509Q26 546 35 578T65 634T116
671T190 685Q233 685 264 672T316 635T345 579T355 509V169Q355 132 346 100T316 44T265 7T190 -7ZM481 708Q459 708 442 718T412 728Q395 728 395 708H349Q350 740 364 762T412 784Q435 784 451 774T481 764Q497 764 499 784H545Q543 752 529 730T481 708Z" />
<glyph unicode="&#xd6;" glyph-name="Odieresis" horiz-adv-x="381" d="M356 776H432V706H356V776ZM463 776H540V706H463V776ZM190 66Q231 66 249 92T267 156V522Q267 560 249 586T190 612Q150 612 132 586T114 522V156Q114 118 132 92T190 66ZM190 -7Q147 -7
116 6T65 44T36 100T26 169V509Q26 546 35 578T65 634T116 671T190 685Q233 685 264 672T316 635T345 579T355 509V169Q355 132 346 100T316 44T265 7T190 -7Z" />
<glyph unicode="&#xd7;" glyph-name="multiply" horiz-adv-x="341" d="M26 236L123 336L25 437L74 485L171 385L267 483L315 435L218 336L317 235L269 187L171 287L74 188L26 236Z" />
<glyph unicode="&#xd8;" glyph-name="Oslash" horiz-adv-x="381" d="M190 -7Q131 -7 94 18L79 -22H33L60 50Q43 73 35 103T26 169V509Q26 546 35 578T65 634T116 671T190 685Q251 685 289 659L303 697H348L322 627Q355 580 355 509V169Q355 132 346 100T316 44T265
7T190 -7ZM112 188L258 578Q249 594 233 604T190 614Q150 614 131 588T112 524V188ZM190 64Q231 64 250 90T269 154V486L124 99Q143 64 190 64Z" />
<glyph unicode="&#xd9;" glyph-name="Ugrave" horiz-adv-x="367" d="M341 678V160Q341 85 306 39T187 -7Q101 -7 64 39T26 160V678H114V152Q114 114 130 90T187 66Q227 66 243 90T259 152V678H341ZM354 797L523 753V701L354 734V797Z" />
<glyph unicode="&#xda;" glyph-name="Uacute" horiz-adv-x="367" d="M532 734L363 701V753L532 797V734ZM341 678V160Q341 85 306 39T187 -7Q101 -7 64 39T26 160V678H114V152Q114 114 130 90T187 66Q227 66 243 90T259 152V678H341Z" />
<glyph unicode="&#xdb;" glyph-name="Ucircumflex" horiz-adv-x="367" d="M350 701V747L423 803H461L534 747V701L443 740L350 701ZM341 678V160Q341 85 306 39T187 -7Q101 -7 64 39T26 160V678H114V152Q114 114 130 90T187 66Q227 66 243 90T259 152V678H341Z" />
<glyph unicode="&#xdc;" glyph-name="Udieresis" horiz-adv-x="367" d="M350 776H426V706H350V776ZM457 776H534V706H457V776ZM341 678V160Q341 85 306 39T187 -7Q101 -7 64 39T26 160V678H114V152Q114 114 130 90T187 66Q227 66 243 90T259 152V678H341Z" />
<glyph unicode="&#xdd;" glyph-name="Yacute" horiz-adv-x="356" d="M222 258V0H134V258L7 678H98L181 383H182L264 678H349L222 258ZM523 734L354 701V753L523 797V734Z" />
<glyph unicode="&#xde;" glyph-name="Thorn" d="M27 678H115V564H181Q261 564 294 527T328 424V279Q328 213 295 176T181 138H115V-1H27V678ZM115 493V206H171Q241 206 241 274V426Q241 493 171 493H115Z" />
<glyph unicode="&#xdf;" glyph-name="germandbls" d="M112 0H27V540Q27 610 66 647T178 685Q246 685 277 657T309 589Q309 557 293 536T245 510Q288 502 306 475T324 400V143Q324 75 293 38T182 0H149V69H173Q208 69 224 88T240 140V409Q240 441 226 458T178 475H151V539H174Q232
539 232 579Q232 619 178 619Q143 619 128 603T112 545V0Z" />
<glyph unicode="&#xe0;" glyph-name="agrave" horiz-adv-x="342" d="M233 0V49H230Q219 29 197 11T137 -7Q79 -7 50 26T20 132V176Q20 210 29 233T55 273T95 302T145 326Q172 338 189 347T216 364T229 381T233 400V432Q233 468 221 486T176 504Q143 504 129 487T114
434V378H35V428Q35 495 68 534T179 574Q254 574 286 536T318 424V0H233ZM165 62Q199 62 216 81T233 135V306Q226 298 213 289T164 262Q132 245 118 228T104 174V135Q104 100 117 81T165 62ZM347 689L516 645V593L347 626V689Z" />
<glyph unicode="&#xe1;" glyph-name="aacute" horiz-adv-x="342" d="M233 0V49H230Q219 29 197 11T137 -7Q79 -7 50 26T20 132V176Q20 210 29 233T55 273T95 302T145 326Q172 338 189 347T216 364T229 381T233 400V432Q233 468 221 486T176 504Q143 504 129 487T114
434V378H35V428Q35 495 68 534T179 574Q254 574 286 536T318 424V0H233ZM165 62Q199 62 216 81T233 135V306Q226 298 213 289T164 262Q132 245 118 228T104 174V135Q104 100 117 81T165 62ZM525 626L356 593V645L525 689V626Z" />
<glyph unicode="&#xe2;" glyph-name="acircumflex" horiz-adv-x="342" d="M233 0V49H230Q219 29 197 11T137 -7Q79 -7 50 26T20 132V176Q20 210 29 233T55 273T95 302T145 326Q172 338 189 347T216 364T229 381T233 400V432Q233 468 221 486T176 504Q143 504 129
487T114 434V378H35V428Q35 495 68 534T179 574Q254 574 286 536T318 424V0H233ZM165 62Q199 62 216 81T233 135V306Q226 298 213 289T164 262Q132 245 118 228T104 174V135Q104 100 117 81T165 62ZM343 593V639L416 695H454L527 639V593L436 632L343 593Z" />
<glyph unicode="&#xe3;" glyph-name="atilde" horiz-adv-x="342" d="M233 0V49H230Q219 29 197 11T137 -7Q79 -7 50 26T20 132V176Q20 210 29 233T55 273T95 302T145 326Q172 338 189 347T216 364T229 381T233 400V432Q233 468 221 486T176 504Q143 504 129 487T114
434V378H35V428Q35 495 68 534T179 574Q254 574 286 536T318 424V0H233ZM165 62Q199 62 216 81T233 135V306Q226 298 213 289T164 262Q132 245 118 228T104 174V135Q104 100 117 81T165 62ZM469 600Q447 600 430 610T400 620Q383 620 383 600H337Q338 632 352 654T400
676Q423 676 439 666T469 656Q485 656 487 676H533Q531 644 517 622T469 600Z" />
<glyph unicode="&#xe4;" glyph-name="adieresis" horiz-adv-x="342" d="M233 0V49H230Q219 29 197 11T137 -7Q79 -7 50 26T20 132V176Q20 210 29 233T55 273T95 302T145 326Q172 338 189 347T216 364T229 381T233 400V432Q233 468 221 486T176 504Q143 504 129
487T114 434V378H35V428Q35 495 68 534T179 574Q254 574 286 536T318 424V0H233ZM165 62Q199 62 216 81T233 135V306Q226 298 213 289T164 262Q132 245 118 228T104 174V135Q104 100 117 81T165 62ZM343 668H419V598H343V668ZM450 668H527V598H450V668Z" />
<glyph unicode="&#xe5;" glyph-name="aring" horiz-adv-x="342" d="M233 0V49H230Q219 29 197 11T137 -7Q79 -7 50 26T20 132V176Q20 210 29 233T55 273T95 302T145 326Q172 338 189 347T216 364T229 381T233 400V432Q233 468 221 486T176 504Q143 504 129 487T114
434V378H35V428Q35 495 68 534T179 574Q254 574 286 536T318 424V0H233ZM165 62Q199 62 216 81T233 135V306Q226 298 213 289T164 262Q132 245 118 228T104 174V135Q104 100 117 81T165 62ZM364 660Q364 689 384 709T435 729Q466 729 485 709T505 660Q505 631 486
611T435 591Q404 591 384 611T364 660ZM404 660Q404 646 412 637T435 627Q449 627 457 636T466 660Q466 674 458 684T435 694Q421 694 413 684T404 660Z" />
<glyph unicode="&#xe6;" glyph-name="ae" horiz-adv-x="559" d="M535 211V149Q535 75 500 34T388 -7Q340 -7 311 10T268 60H266Q253 29 224 11T150 -7Q90 -7 55 26T20 132V192Q20 266 54 299T152 333H236V432Q236 468 223 486T178 504Q114 504 114 434V378H35V428Q35
495 69 534T176 574Q252 574 283 524Q320 574 390 574Q465 574 500 533T535 417V270H320V143Q320 106 337 85T389 63Q423 63 439 83T455 141V211H535ZM167 61Q202 61 219 80T236 135L235 270H175Q136 270 120 251T104 190V135Q104 100 118 81T167 61ZM320 333H453V424Q453
462 438 483T388 504Q353 504 337 483T320 424V333Z" />
<glyph unicode="&#xe7;" glyph-name="ccedilla" horiz-adv-x="343" d="M135 -70Q160 -69 168 -65T177 -54Q177 -43 157 -43H150V-5Q87 3 56 46T25 156V412Q25 486 63 530T178 574Q254 574 289 534T324 419V378H242V427Q242 464 227 484T178 504Q143 504 126 483T109
424V143Q109 106 126 85T179 63Q214 63 229 83T244 141V211H324V149Q324 77 292 37T187 -7V-19Q230 -22 230 -54Q230 -76 208 -87T135 -98V-70Z" />
<glyph unicode="&#xe8;" glyph-name="egrave" horiz-adv-x="351" d="M326 211V149Q326 75 291 34T179 -7Q101 -7 63 37T25 156V412Q25 486 63 530T178 574Q254 574 290 533T326 417V278H109V143Q109 106 127 85T180 63Q214 63 230 83T246 141V211H326ZM109 341H244V424Q244
462 228 483T178 504Q143 504 126 483T109 424V341ZM349 689L518 645V593L349 626V689Z" />
<glyph unicode="&#xe9;" glyph-name="eacute" horiz-adv-x="351" d="M527 626L358 593V645L527 689V626ZM326 211V149Q326 75 291 34T179 -7Q101 -7 63 37T25 156V412Q25 486 63 530T178 574Q254 574 290 533T326 417V278H109V143Q109 106 127 85T180 63Q214 63
230 83T246 141V211H326ZM109 341H244V424Q244 462 228 483T178 504Q143 504 126 483T109 424V341Z" />
<glyph unicode="&#xea;" glyph-name="ecircumflex" horiz-adv-x="351" d="M345 593V639L418 695H456L529 639V593L438 632L345 593ZM326 211V149Q326 75 291 34T179 -7Q101 -7 63 37T25 156V412Q25 486 63 530T178 574Q254 574 290 533T326 417V278H109V143Q109
106 127 85T180 63Q214 63 230 83T246 141V211H326ZM109 341H244V424Q244 462 228 483T178 504Q143 504 126 483T109 424V341Z" />
<glyph unicode="&#xeb;" glyph-name="edieresis" horiz-adv-x="351" d="M345 668H421V598H345V668ZM452 668H529V598H452V668ZM326 211V149Q326 75 291 34T179 -7Q101 -7 63 37T25 156V412Q25 486 63 530T178 574Q254 574 290 533T326 417V278H109V143Q109 106
127 85T180 63Q214 63 230 83T246 141V211H326ZM109 341H244V424Q244 462 228 483T178 504Q143 504 126 483T109 424V341Z" />
<glyph unicode="&#xec;" glyph-name="igrave" horiz-adv-x="138" d="M27 567H112V0H27V567ZM-1 689L133 644V593L-1 626V689Z" />
<glyph unicode="&#xed;" glyph-name="iacute" horiz-adv-x="138" d="M27 567H112V0H27V567ZM141 626L7 593V644L141 689V626Z" />
<glyph unicode="&#xee;" glyph-name="icircumflex" horiz-adv-x="138" d="M27 567H112V0H27V567ZM-5 593V640L50 695H89L144 640V593L70 633L-5 593Z" />
<glyph unicode="&#xef;" glyph-name="idieresis" horiz-adv-x="138" d="M27 567H112V0H27V567ZM-9 668H58V598H-9V668ZM81 668H148V598H81V668Z" />
<glyph unicode="&#xf0;" glyph-name="eth" horiz-adv-x="355" d="M63 615L124 633L87 678H179L199 654L271 675V637L225 624L258 586Q294 544 312 509T330 425V156Q330 82 292 38T178 -7Q101 -7 63 37T25 156V411Q25 486 57 524T143 562Q166 562 178 555Q189 548
201 539Q199 541 196 546Q191 553 183 563L150 602L63 577V615ZM178 63Q212 63 229 84T246 143V424Q246 461 229 482T178 504Q143 504 126 483T109 424V143Q109 106 126 85T178 63Z" />
<glyph unicode="&#xf1;" glyph-name="ntilde" d="M239 432Q239 467 226 485T178 504Q146 504 129 485T112 431V0H27V567H112V510H113Q124 536 147 555T214 574Q268 574 296 541T324 435V0H239V432ZM470 600Q448 600 431 610T401 620Q384 620 384 600H338Q339 632
353 654T401 676Q424 676 440 666T470 656Q486 656 488 676H534Q532 644 518 622T470 600Z" />
<glyph unicode="&#xf2;" glyph-name="ograve" horiz-adv-x="355" d="M330 156Q330 82 292 38T178 -7Q101 -7 63 37T25 156V411Q25 486 63 530T178 574Q254 574 292 530T330 411V156ZM178 63Q212 63 229 84T246 143V424Q246 461 229 482T178 504Q143 504 126 483T109
424V143Q109 106 126 85T178 63ZM346 689L515 645V593L346 626V689Z" />
<glyph unicode="&#xf3;" glyph-name="oacute" horiz-adv-x="355" d="M524 626L355 593V645L524 689V626ZM330 156Q330 82 292 38T178 -7Q101 -7 63 37T25 156V411Q25 486 63 530T178 574Q254 574 292 530T330 411V156ZM178 63Q212 63 229 84T246 143V424Q246 461
229 482T178 504Q143 504 126 483T109 424V143Q109 106 126 85T178 63Z" />
<glyph unicode="&#xf4;" glyph-name="ocircumflex" horiz-adv-x="355" d="M342 593V639L415 695H453L526 639V593L435 632L342 593ZM330 156Q330 82 292 38T178 -7Q101 -7 63 37T25 156V411Q25 486 63 530T178 574Q254 574 292 530T330 411V156ZM178 63Q212 63
229 84T246 143V424Q246 461 229 482T178 504Q143 504 126 483T109 424V143Q109 106 126 85T178 63Z" />
<glyph unicode="&#xf5;" glyph-name="otilde" horiz-adv-x="355" d="M330 156Q330 82 292 38T178 -7Q101 -7 63 37T25 156V411Q25 486 63 530T178 574Q254 574 292 530T330 411V156ZM178 63Q212 63 229 84T246 143V424Q246 461 229 482T178 504Q143 504 126 483T109
424V143Q109 106 126 85T178 63ZM468 600Q446 600 429 610T399 620Q382 620 382 600H336Q337 632 351 654T399 676Q422 676 438 666T468 656Q484 656 486 676H532Q530 644 516 622T468 600Z" />
<glyph unicode="&#xf6;" glyph-name="odieresis" horiz-adv-x="355" d="M342 668H418V598H342V668ZM449 668H526V598H449V668ZM330 156Q330 82 292 38T178 -7Q101 -7 63 37T25 156V411Q25 486 63 530T178 574Q254 574 292 530T330 411V156ZM178 63Q212 63 229
84T246 143V424Q246 461 229 482T178 504Q143 504 126 483T109 424V143Q109 106 126 85T178 63Z" />
<glyph unicode="&#xf7;" glyph-name="divide" horiz-adv-x="355" d="M22 369H333V302H22V369ZM135 258H220V171H135V258ZM135 500H220V412H135V500Z" />
<glyph unicode="&#xf8;" glyph-name="oslash" horiz-adv-x="355" d="M330 156Q330 82 292 38T178 -7Q127 -7 93 13L78 -24H33L59 42Q25 83 25 156V411Q25 486 63 530T178 574Q230 574 265 551L279 586H323L297 522Q330 480 330 411V156ZM107 159L235 478Q218 505
178 505Q143 505 125 484T107 425V159ZM178 62Q212 62 230 83T248 142V399L121 84Q139 62 178 62Z" />
<glyph unicode="&#xf9;" glyph-name="ugrave" d="M110 135Q110 100 123 82T171 63Q234 63 237 128V567H322V0H237V57H236Q224 31 201 12T134 -7Q80 -7 53 26T25 132V567H110V135ZM342 689L511 645V593L342 626V689Z" />
<glyph unicode="&#xfa;" glyph-name="uacute" d="M520 626L351 593V645L520 689V626ZM110 135Q110 100 123 82T171 63Q234 63 237 128V567H322V0H237V57H236Q224 31 201 12T134 -7Q80 -7 53 26T25 132V567H110V135Z" />
<glyph unicode="&#xfb;" glyph-name="ucircumflex" d="M338 593V639L411 695H449L522 639V593L431 632L338 593ZM110 135Q110 100 123 82T171 63Q234 63 237 128V567H322V0H237V57H236Q224 31 201 12T134 -7Q80 -7 53 26T25 132V567H110V135Z" />
<glyph unicode="&#xfc;" glyph-name="udieresis" d="M338 668H414V598H338V668ZM445 668H522V598H445V668ZM110 135Q110 100 123 82T171 63Q234 63 237 128V567H322V0H237V57H236Q224 31 201 12T134 -7Q80 -7 53 26T25 132V567H110V135Z" />
<glyph unicode="&#xfd;" glyph-name="yacute" horiz-adv-x="322" d="M319 567L196 1Q191 -25 182 -42T159 -70T125 -85T76 -90H43V-22H75Q98 -22 107 -13T123 20L131 53H111L2 567H90L160 185H161L241 567H319ZM508 626L339 593V645L508 689V626Z" />
<glyph unicode="&#xfe;" glyph-name="thorn" horiz-adv-x="351" d="M27 678H112V509H113Q124 533 148 553T216 574Q270 574 298 541T327 435V132Q327 60 296 27T211 -7Q167 -7 146 13T113 56H112V-90H27V678ZM242 431Q242 466 228 485T179 504Q147 504 131 486T112
436V129Q114 97 130 80T178 62Q213 62 227 81T242 135V431Z" />
<glyph unicode="&#xff;" glyph-name="ydieresis" horiz-adv-x="322" d="M319 567L196 1Q191 -25 182 -42T159 -70T125 -85T76 -90H43V-22H75Q98 -22 107 -13T123 20L131 53H111L2 567H90L160 185H161L241 567H319ZM326 668H402V598H326V668ZM433 668H510V598H433V668Z" />
<glyph unicode="&#x100;" glyph-name="Amacron" horiz-adv-x="382" d="M8 0L139 678H242L374 0H284L258 142H117L92 0H8ZM130 214H245L188 533H187L130 214ZM356 766H536V713H356V766Z" />
<glyph unicode="&#x101;" glyph-name="amacron" horiz-adv-x="342" d="M233 0V49H230Q219 29 197 11T137 -7Q79 -7 50 26T20 132V176Q20 210 29 233T55 273T95 302T145 326Q172 338 189 347T216 364T229 381T233 400V432Q233 468 221 486T176 504Q143 504 129
487T114 434V378H35V428Q35 495 68 534T179 574Q254 574 286 536T318 424V0H233ZM165 62Q199 62 216 81T233 135V306Q226 298 213 289T164 262Q132 245 118 228T104 174V135Q104 100 117 81T165 62ZM345 658H525V605H345V658Z" />
<glyph unicode="&#x102;" glyph-name="Abreve" horiz-adv-x="382" d="M8 0L139 678H242L374 0H284L258 142H117L92 0H8ZM130 214H245L188 533H187L130 214ZM537 789Q535 749 511 726T448 702Q409 702 384 725T357 789H411Q414 757 448 757Q481 757 484 789H537Z" />
<glyph unicode="&#x103;" glyph-name="abreve" horiz-adv-x="342" d="M233 0V49H230Q219 29 197 11T137 -7Q79 -7 50 26T20 132V176Q20 210 29 233T55 273T95 302T145 326Q172 338 189 347T216 364T229 381T233 400V432Q233 468 221 486T176 504Q143 504 129 487T114
434V378H35V428Q35 495 68 534T179 574Q254 574 286 536T318 424V0H233ZM165 62Q199 62 216 81T233 135V306Q226 298 213 289T164 262Q132 245 118 228T104 174V135Q104 100 117 81T165 62ZM525 681Q523 641 499 618T436 594Q397 594 372 617T345 681H399Q402 649
436 649Q469 649 472 681H525Z" />
<glyph unicode="&#x104;" glyph-name="Aogonek" horiz-adv-x="382" d="M284 0L258 142H117L92 0H8L139 678H242L374 0Q366 -7 360 -14T353 -29Q353 -39 367 -39H374V-90H345Q280 -90 280 -49Q280 -38 286 -30T299 -15T314 -5Q319 -1 321 0H284ZM130 214H245L188
533H187L130 214Z" />
<glyph unicode="&#x105;" glyph-name="aogonek" horiz-adv-x="342" d="M233 0V49H230Q219 29 197 11T137 -7Q79 -7 50 26T20 132V176Q20 210 29 233T55 273T95 302T145 326Q172 338 189 347T216 364T229 381T233 400V432Q233 468 221 486T176 504Q143 504 129
487T114 434V378H35V428Q35 495 68 534T179 574Q254 574 286 536T318 424V0Q310 -7 304 -14T297 -29Q297 -39 311 -39H318V-90H289Q224 -90 224 -49Q224 -38 230 -30T243 -15T258 -5Q263 -1 265 0H233ZM165 62Q199 62 216 81T233 135V306Q226 298 213 289T164 262Q132
245 118 228T104 174V135Q104 100 117 81T165 62Z" />
<glyph unicode="&#x106;" glyph-name="Cacute" horiz-adv-x="364" d="M533 734L364 701V753L533 797V734ZM188 -7Q145 -7 114 6T64 44T35 100T26 169V509Q26 546 35 578T63 634T114 671T188 685Q233 685 262 673T309 640T333 588T340 522V442H258V528Q258 568
244 590T189 612Q148 612 131 586T114 522V156Q114 118 131 92T189 66Q230 66 244 89T259 150V272H340V156Q340 121 333 91T308 40T261 6T188 -7Z" />
<glyph unicode="&#x107;" glyph-name="cacute" horiz-adv-x="343" d="M525 626L356 593V645L525 689V626ZM324 211V149Q324 75 289 34T178 -7Q101 -7 63 37T25 156V412Q25 486 63 530T178 574Q254 574 289 534T324 419V378H242V427Q242 464 227 484T178 504Q143
504 126 483T109 424V143Q109 106 126 85T179 63Q214 63 229 83T244 141V211H324Z" />
<glyph unicode="&#x108;" glyph-name="Ccircumflex" horiz-adv-x="364" d="M351 701V747L424 803H462L535 747V701L444 740L351 701ZM188 -7Q145 -7 114 6T64 44T35 100T26 169V509Q26 546 35 578T63 634T114 671T188 685Q233 685 262 673T309 640T333 588T340
522V442H258V528Q258 568 244 590T189 612Q148 612 131 586T114 522V156Q114 118 131 92T189 66Q230 66 244 89T259 150V272H340V156Q340 121 333 91T308 40T261 6T188 -7Z" />
<glyph unicode="&#x109;" glyph-name="ccircumflex" horiz-adv-x="343" d="M343 593V639L416 695H454L527 639V593L436 632L343 593ZM324 211V149Q324 75 289 34T178 -7Q101 -7 63 37T25 156V412Q25 486 63 530T178 574Q254 574 289 534T324 419V378H242V427Q242
464 227 484T178 504Q143 504 126 483T109 424V143Q109 106 126 85T179 63Q214 63 229 83T244 141V211H324Z" />
<glyph unicode="&#x10a;" glyph-name="Cdotaccent" horiz-adv-x="364" d="M188 -7Q145 -7 114 6T64 44T35 100T26 169V509Q26 546 35 578T63 634T114 671T188 685Q233 685 262 673T309 640T333 588T340 522V442H258V528Q258 568 244 590T189 612Q148 612 131 586T114
522V156Q114 118 131 92T189 66Q230 66 244 89T259 150V272H340V156Q340 121 333 91T308 40T261 6T188 -7ZM402 776H487V707H402V776Z" />
<glyph unicode="&#x10b;" glyph-name="cdotaccent" horiz-adv-x="343" d="M324 211V149Q324 75 289 34T178 -7Q101 -7 63 37T25 156V412Q25 486 63 530T178 574Q254 574 289 534T324 419V378H242V427Q242 464 227 484T178 504Q143 504 126 483T109 424V143Q109
106 126 85T179 63Q214 63 229 83T244 141V211H324ZM394 678H479V609H394V678Z" />
<glyph unicode="&#x10c;" glyph-name="Ccaron" horiz-adv-x="364" d="M535 803V757L462 701H424L351 757V803L442 764L535 803ZM188 -7Q145 -7 114 6T64 44T35 100T26 169V509Q26 546 35 578T63 634T114 671T188 685Q233 685 262 673T309 640T333 588T340 522V442H258V528Q258
568 244 590T189 612Q148 612 131 586T114 522V156Q114 118 131 92T189 66Q230 66 244 89T259 150V272H340V156Q340 121 333 91T308 40T261 6T188 -7Z" />
<glyph unicode="&#x10d;" glyph-name="ccaron" horiz-adv-x="343" d="M527 695V649L454 593H416L343 649V695L434 656L527 695ZM324 211V149Q324 75 289 34T178 -7Q101 -7 63 37T25 156V412Q25 486 63 530T178 574Q254 574 289 534T324 419V378H242V427Q242 464
227 484T178 504Q143 504 126 483T109 424V143Q109 106 126 85T179 63Q214 63 229 83T244 141V211H324Z" />
<glyph unicode="&#x10e;" glyph-name="Dcaron" horiz-adv-x="374" d="M521 803V757L448 701H410L337 757V803L428 764L521 803ZM115 72H176Q223 72 241 97T260 161V518Q260 556 242 581T176 606H115V72ZM187 678Q232 678 262 665T312 628T339 572T348 502V176Q348
139 340 107T312 51T263 14T187 0H27V678H187Z" />
<glyph unicode="&#x10f;" glyph-name="dcaron" horiz-adv-x="351" d="M411 671L391 586H348V678H411V671ZM325 0H240V57H238Q233 45 225 34T206 13T179 -1T141 -7Q86 -7 56 26T25 132V435Q25 507 55 540T139 574Q182 574 204 555T238 512H240V678H325V0ZM110 135Q110
100 124 81T173 62Q205 62 221 80T240 130V429Q240 464 223 484T173 504Q139 504 125 485T110 431V135Z" />
<glyph unicode="&#x110;" glyph-name="Dcroat" horiz-adv-x="378" d="M0 380H30V678H190Q235 678 265 665T315 628T342 572T351 502V176Q351 139 343 107T315 51T266 14T190 0H30V309H0V380ZM118 380H208V309H118V72H180Q226 72 245 97T264 161V518Q264 556 245
581T180 606H118V380Z" />
<glyph unicode="&#x111;" glyph-name="dcroat" horiz-adv-x="351" d="M325 639H355V599H325V0H240V57H238Q233 45 225 34T206 13T179 -1T141 -7Q86 -7 56 26T25 132V435Q25 507 55 540T139 574Q182 574 204 555T238 512H240V599H151V639H240V678H325V639ZM110
135Q110 100 124 81T173 62Q205 62 221 80T240 130V436Q238 468 222 486T173 504Q139 504 125 485T110 431V135Z" />
<glyph unicode="&#x112;" glyph-name="Emacron" horiz-adv-x="310" d="M27 678H288V606H115V380H240V309H115V72H288V0H27V678ZM332 766H512V713H332V766Z" />
<glyph unicode="&#x113;" glyph-name="emacron" horiz-adv-x="351" d="M326 211V149Q326 75 291 34T179 -7Q101 -7 63 37T25 156V412Q25 486 63 530T178 574Q254 574 290 533T326 417V278H109V143Q109 106 127 85T180 63Q214 63 230 83T246 141V211H326ZM109 341H244V424Q244
462 228 483T178 504Q143 504 126 483T109 424V341ZM347 658H527V605H347V658Z" />
<glyph unicode="&#x114;" glyph-name="Ebreve" horiz-adv-x="310" d="M27 678H288V606H115V380H240V309H115V72H288V0H27V678ZM512 789Q510 749 486 726T423 702Q384 702 359 725T332 789H386Q389 757 423 757Q456 757 459 789H512Z" />
<glyph unicode="&#x115;" glyph-name="ebreve" horiz-adv-x="351" d="M326 211V149Q326 75 291 34T179 -7Q101 -7 63 37T25 156V412Q25 486 63 530T178 574Q254 574 290 533T326 417V278H109V143Q109 106 127 85T180 63Q214 63 230 83T246 141V211H326ZM109 341H244V424Q244
462 228 483T178 504Q143 504 126 483T109 424V341ZM527 681Q525 641 501 618T438 594Q399 594 374 617T347 681H401Q404 649 438 649Q471 649 474 681H527Z" />
<glyph unicode="&#x116;" glyph-name="Edotaccent" horiz-adv-x="310" d="M27 678H288V606H115V380H240V309H115V72H288V0H27V678ZM381 776H466V707H381V776Z" />
<glyph unicode="&#x117;" glyph-name="edotaccent" horiz-adv-x="351" d="M326 211V149Q326 75 291 34T179 -7Q101 -7 63 37T25 156V412Q25 486 63 530T178 574Q254 574 290 533T326 417V278H109V143Q109 106 127 85T180 63Q214 63 230 83T246 141V211H326ZM109
341H244V424Q244 462 228 483T178 504Q143 504 126 483T109 424V341ZM396 678H481V609H396V678Z" />
<glyph unicode="&#x118;" glyph-name="Eogonek" horiz-adv-x="310" d="M27 678H288V606H115V380H240V309H115V72H288V0H264Q256 -7 250 -14T243 -29Q243 -39 257 -39H264V-90H235Q170 -90 170 -49Q170 -38 176 -30T189 -15T204 -5Q209 -1 211 0H27V678Z" />
<glyph unicode="&#x119;" glyph-name="eogonek" horiz-adv-x="351" d="M233 -90Q168 -90 168 -51Q168 -34 179 -23T204 -6Q198 -6 192 -6T179 -7Q101 -7 63 37T25 156V412Q25 486 63 530T178 574Q254 574 290 533T326 417V278H109V143Q109 106 127 85T180 63Q214
63 230 83T246 141V211H326V149Q326 104 315 74T280 23Q265 9 253 -4T240 -28Q240 -39 255 -39H262V-90H233ZM109 341H244V424Q244 462 228 483T178 504Q143 504 126 483T109 424V341Z" />
<glyph unicode="&#x11a;" glyph-name="Ecaron" horiz-adv-x="310" d="M514 803V757L441 701H403L330 757V803L421 764L514 803ZM27 678H288V606H115V380H240V309H115V72H288V0H27V678Z" />
<glyph unicode="&#x11b;" glyph-name="ecaron" horiz-adv-x="351" d="M529 695V649L456 593H418L345 649V695L436 656L529 695ZM326 211V149Q326 75 291 34T179 -7Q101 -7 63 37T25 156V412Q25 486 63 530T178 574Q254 574 290 533T326 417V278H109V143Q109 106
127 85T180 63Q214 63 230 83T246 141V211H326ZM109 341H244V424Q244 462 228 483T178 504Q143 504 126 483T109 424V341Z" />
<glyph unicode="&#x11c;" glyph-name="Gcircumflex" horiz-adv-x="374" d="M352 701V747L425 803H463L536 747V701L445 740L352 701ZM193 354H345V0H278V67Q267 35 243 14T170 -7Q132 -7 105 6T61 44T35 100T26 169V509Q26 546 35 578T65 634T115 671T189 685Q234
685 264 673T312 640T337 588T345 522V462H263V528Q263 568 248 590T191 612Q150 612 132 586T114 522V156Q114 118 131 92T188 66Q226 66 243 88T261 151V284H193V354Z" />
<glyph unicode="&#x11d;" glyph-name="gcircumflex" horiz-adv-x="351" d="M344 593V639L417 695H455L528 639V593L437 632L344 593ZM324 567V59Q324 -10 290 -53T174 -97Q96 -97 61 -61T25 33V57H105V38Q105 6 120 -10T172 -27Q209 -27 224 -7T240 47V149H238Q227
126 206 107T141 88Q86 88 56 121T25 226V435Q25 507 55 540T138 574Q182 574 204 555T238 512H240V567H324ZM172 157Q204 157 221 174T240 224V436Q238 468 222 486T173 504Q139 504 125 485T110 431V229Q110 194 123 176T172 157Z" />
<glyph unicode="&#x11e;" glyph-name="Gbreve" horiz-adv-x="374" d="M193 354H345V0H278V67Q267 35 243 14T170 -7Q132 -7 105 6T61 44T35 100T26 169V509Q26 546 35 578T65 634T115 671T189 685Q234 685 264 673T312 640T337 588T345 522V462H263V528Q263 568
248 590T191 612Q150 612 132 586T114 522V156Q114 118 131 92T188 66Q226 66 243 88T261 151V284H193V354ZM534 789Q532 749 508 726T445 702Q406 702 381 725T354 789H408Q411 757 445 757Q478 757 481 789H534Z" />
<glyph unicode="&#x11f;" glyph-name="gbreve" horiz-adv-x="351" d="M324 567V59Q324 -10 290 -53T174 -97Q96 -97 61 -61T25 33V57H105V38Q105 6 120 -10T172 -27Q209 -27 224 -7T240 47V149H238Q227 126 206 107T141 88Q86 88 56 121T25 226V435Q25 507 55
540T138 574Q182 574 204 555T238 512H240V567H324ZM172 157Q204 157 221 174T240 224V436Q238 468 222 486T173 504Q139 504 125 485T110 431V229Q110 194 123 176T172 157ZM527 681Q525 641 501 618T438 594Q399 594 374 617T347 681H401Q404 649 438 649Q471
649 474 681H527Z" />
<glyph unicode="&#x120;" glyph-name="Gdotaccent" horiz-adv-x="374" d="M193 354H345V0H278V67Q267 35 243 14T170 -7Q132 -7 105 6T61 44T35 100T26 169V509Q26 546 35 578T65 634T115 671T189 685Q234 685 264 673T312 640T337 588T345 522V462H263V528Q263
568 248 590T191 612Q150 612 132 586T114 522V156Q114 118 131 92T188 66Q226 66 243 88T261 151V284H193V354ZM403 776H488V707H403V776Z" />
<glyph unicode="&#x121;" glyph-name="gdotaccent" horiz-adv-x="351" d="M324 567V59Q324 -10 290 -53T174 -97Q96 -97 61 -61T25 33V57H105V38Q105 6 120 -10T172 -27Q209 -27 224 -7T240 47V149H238Q227 126 206 107T141 88Q86 88 56 121T25 226V435Q25 507
55 540T138 574Q182 574 204 555T238 512H240V567H324ZM172 157Q204 157 221 174T240 224V436Q238 468 222 486T173 504Q139 504 125 485T110 431V229Q110 194 123 176T172 157ZM395 678H480V609H395V678Z" />
<glyph unicode="&#x122;" glyph-name="Gcommaaccent" horiz-adv-x="374" d="M227 -28L200 -90H145L153 -21H227V-28ZM193 354H345V0H278V67Q267 35 243 14T170 -7Q132 -7 105 6T61 44T35 100T26 169V509Q26 546 35 578T65 634T115 671T189 685Q234 685 264 673T312
640T337 588T345 522V462H263V528Q263 568 248 590T191 612Q150 612 132 586T114 522V156Q114 118 131 92T188 66Q226 66 243 88T261 151V284H193V354Z" />
<glyph unicode="&#x123;" glyph-name="gcommaaccent" horiz-adv-x="351" d="M397 603L424 665H479L471 596H397V603ZM324 567V59Q324 -10 290 -53T174 -97Q96 -97 61 -61T25 33V57H105V38Q105 6 120 -10T172 -27Q209 -27 224 -7T240 47V149H238Q227 126 206 107T141
88Q86 88 56 121T25 226V435Q25 507 55 540T138 574Q182 574 204 555T238 512H240V567H324ZM172 157Q204 157 221 174T240 224V436Q238 468 222 486T173 504Q139 504 125 485T110 431V229Q110 194 123 176T172 157Z" />
<glyph unicode="&#x124;" glyph-name="Hcircumflex" horiz-adv-x="372" d="M350 701V747L423 803H461L534 747V701L443 740L350 701ZM256 309H115V0H27V678H115V381H256V678H345V0H256V309Z" />
<glyph unicode="&#x125;" glyph-name="hcircumflex" d="M339 701V747L412 803H450L523 747V701L432 740L339 701ZM239 432Q239 467 226 485T178 504Q146 504 129 485T112 431V0H27V678H112V510H113Q124 536 147 555T214 574Q268 574 296 541T324 435V0H239V432Z" />
<glyph unicode="&#x126;" glyph-name="Hbar" horiz-adv-x="372" d="M-4 542H27V678H115V542H256V678H345V542H376V488H345V0H256V309H115V0H27V488H-4V542ZM115 381H256V488H115V381Z" />
<glyph unicode="&#x127;" glyph-name="hbar" d="M27 599H-3V639H27V678H112V639H201V599H112V510H113Q124 536 147 555T214 574Q268 574 296 541T324 435V0H239V432Q239 467 226 485T178 504Q147 504 131 487T112 438V0H27V599Z" />
<glyph unicode="&#x128;" glyph-name="Itilde" horiz-adv-x="142" d="M27 678H115V0H27V678ZM362 711Q340 711 323 721T293 731Q276 731 276 711H230Q231 743 245 765T293 787Q316 787 332 777T362 767Q378 767 380 787H426Q424 755 410 733T362 711Z" />
<glyph unicode="&#x129;" glyph-name="itilde" horiz-adv-x="138" d="M104 600Q80 600 65 610T39 620Q24 620 24 600H-22Q-20 633 -7 654T36 676Q58 676 73 666T99 656Q114 656 114 676H160Q159 642 146 621T104 600ZM27 567H112V0H27V567Z" />
<glyph unicode="&#x12a;" glyph-name="Imacron" horiz-adv-x="142" d="M27 678H115V0H27V678ZM0 765H141V713H0V765Z" />
<glyph unicode="&#x12b;" glyph-name="imacron" horiz-adv-x="138" d="M0 658H139V605H0V658ZM27 567H112V0H27V567Z" />
<glyph unicode="&#x12c;" glyph-name="Ibreve" horiz-adv-x="142" d="M27 678H115V0H27V678ZM418 792Q416 752 392 729T329 705Q290 705 265 728T238 792H292Q295 760 329 760Q362 760 365 792H418Z" />
<glyph unicode="&#x12d;" glyph-name="ibreve" horiz-adv-x="138" d="M27 567H112V0H27V567ZM70 594Q34 594 13 617T-9 681H42Q43 649 70 649Q96 649 97 681H147Q147 640 126 617T70 594Z" />
<glyph unicode="&#x12e;" glyph-name="Iogonek" horiz-adv-x="142" d="M27 678H115V0Q107 -7 101 -14T94 -29Q94 -39 108 -39H115V-90H86Q21 -90 21 -49Q21 -38 27 -30T40 -15T55 -5Q60 -1 62 0H27V678Z" />
<glyph unicode="&#x12f;" glyph-name="iogonek" horiz-adv-x="138" d="M27 567H112V0Q104 -7 98 -14T91 -29Q91 -39 105 -39H112V-90H83Q18 -90 18 -49Q18 -38 24 -30T37 -15T52 -5Q57 -1 59 0H27V567ZM27 678H112V609H27V678Z" />
<glyph unicode="&#x130;" glyph-name="Idotaccent" horiz-adv-x="142" d="M27 678H115V0H27V678ZM286 776H371V707H286V776Z" />
<glyph unicode="&#x131;" glyph-name="dotlessi" horiz-adv-x="138" d="M27 567H112V0H27V567Z" />
<glyph unicode="&#x132;" glyph-name="IJ" horiz-adv-x="475" d="M27 678H115V0H27V678ZM449 678V145Q449 75 416 34T303 -7Q263 -7 236 3T193 33T170 79T163 137V272H247V135Q247 103 260 85T303 66Q334 66 347 85T361 136V678H449Z" />
<glyph unicode="&#x133;" glyph-name="ij" horiz-adv-x="138" d="M27 567H112V0H27V567ZM27 678H112V609H27V678ZM250 567V-4Q250 -52 226 -71T142 -90H130V-29H137Q153 -29 159 -23T165 -3V567H250ZM165 678H250V609H165V678Z" />
<glyph unicode="&#x134;" glyph-name="Jcircumflex" horiz-adv-x="332" d="M171 701V747L244 803H282L355 747V701L264 740L171 701ZM307 678V145Q307 75 274 34T161 -7Q121 -7 94 3T51 33T28 79T21 137V272H105V135Q105 103 118 85T161 66Q192 66 205 85T219
136V678H307Z" />
<glyph unicode="&#x135;" glyph-name="jcircumflex" horiz-adv-x="138" d="M-5 593V640L50 695H89L144 640V593L70 633L-5 593ZM112 567V-4Q112 -52 88 -71T4 -90H-8V-29H-1Q15 -29 21 -23T27 -3V567H112Z" />
<glyph unicode="&#x136;" glyph-name="Kcommaaccent" horiz-adv-x="358" d="M220 -28L193 -90H138L146 -21H220V-28ZM115 335V0H27V678H115V370L264 678H352L196 364L354 0H262L115 335Z" />
<glyph unicode="&#x137;" glyph-name="kcommaaccent" horiz-adv-x="326" d="M462 -28L435 -90H380L388 -21H462V-28ZM233 0L112 281V0H27V678H112V312L234 567H318L191 308L323 0H233Z" />
<glyph unicode="&#x139;" glyph-name="Lacute" horiz-adv-x="278" d="M427 734L258 701V753L427 797V734ZM27 678H115V72H266V0H27V678Z" />
<glyph unicode="&#x13a;" glyph-name="lacute" horiz-adv-x="138" d="M145 734L11 702V753L145 797V734ZM27 678H112V0H27V678Z" />
<glyph unicode="&#x13b;" glyph-name="Lcommaaccent" horiz-adv-x="278" d="M438 -28L411 -90H356L364 -21H438V-28ZM27 678H115V72H266V0H27V678Z" />
<glyph unicode="&#x13c;" glyph-name="lcommaaccent" horiz-adv-x="138" d="M365 -28L338 -90H283L291 -21H365V-28ZM27 678H112V0H27V678Z" />
<glyph unicode="&#x13d;" glyph-name="Lcaron" horiz-adv-x="278" d="M27 678H115V72H266V0H27V678ZM227 671L204 549H161L162 678H227V671Z" />
<glyph unicode="&#x13e;" glyph-name="lcaron" horiz-adv-x="138" d="M455 671L435 586H392V678H455V671ZM27 678H112V0H27V678Z" />
<glyph unicode="&#x13f;" glyph-name="Ldot" horiz-adv-x="278" d="M177 374H251V298H177V374ZM27 678H115V72H266V0H27V678Z" />
<glyph unicode="&#x140;" glyph-name="ldot" horiz-adv-x="216" d="M141 379H215V303H141V379ZM27 678H112V0H27V678Z" />
<glyph unicode="&#x141;" glyph-name="Lslash" horiz-adv-x="290" d="M38 250L8 236V303L38 317V678H126V358L231 408V342L126 292V72H277V0H38V250Z" />
<glyph unicode="&#x142;" glyph-name="lslash" horiz-adv-x="155" d="M6 361L35 386V678H120V461L151 488V414L120 386V0H35V311L6 286V361Z" />
<glyph unicode="&#x143;" glyph-name="Nacute" horiz-adv-x="364" d="M539 734L370 701V753L539 797V734ZM102 483V0H27V678H115L263 225V678H338V0H259L102 483Z" />
<glyph unicode="&#x144;" glyph-name="nacute" d="M525 626L356 593V645L525 689V626ZM239 432Q239 467 226 485T178 504Q146 504 129 485T112 431V0H27V567H112V510H113Q124 536 147 555T214 574Q268 574 296 541T324 435V0H239V432Z" />
<glyph unicode="&#x145;" glyph-name="Ncommaaccent" horiz-adv-x="364" d="M469 -28L442 -90H387L395 -21H469V-28ZM102 483V0H27V678H115L263 225V678H338V0H259L102 483Z" />
<glyph unicode="&#x146;" glyph-name="ncommaaccent" d="M467 -28L440 -90H385L393 -21H467V-28ZM239 432Q239 467 226 485T178 504Q146 504 129 485T112 431V0H27V567H112V510H113Q124 536 147 555T214 574Q268 574 296 541T324 435V0H239V432Z" />
<glyph unicode="&#x147;" glyph-name="Ncaron" horiz-adv-x="364" d="M541 803V757L468 701H430L357 757V803L448 764L541 803ZM102 483V0H27V678H115L263 225V678H338V0H259L102 483Z" />
<glyph unicode="&#x148;" glyph-name="ncaron" d="M527 695V649L454 593H416L343 649V695L434 656L527 695ZM239 432Q239 467 226 485T178 504Q146 504 129 485T112 431V0H27V567H112V510H113Q124 536 147 555T214 574Q268 574 296 541T324 435V0H239V432Z" />
<glyph unicode="&#x14a;" glyph-name="Eng" horiz-adv-x="365" d="M222 -29Q240 -29 246 -23T253 1V18L102 483V0H27V678H115L263 225V678H338V-1Q338 -51 313 -70T228 -90H197V-29H222Z" />
<glyph unicode="&#x14b;" glyph-name="eng" d="M205 -29H211Q228 -29 233 -23T239 -3V432Q239 467 226 485T178 504Q146 504 129 485T112 431V0H27V567H112V510H113Q124 536 147 555T214 574Q268 574 296 541T324 435V-4Q324 -52 300 -71T217 -90H205V-29Z" />
<glyph unicode="&#x14c;" glyph-name="Omacron" horiz-adv-x="381" d="M357 766H537V713H357V766ZM190 66Q231 66 249 92T267 156V522Q267 560 249 586T190 612Q150 612 132 586T114 522V156Q114 118 132 92T190 66ZM190 -7Q147 -7 116 6T65 44T36 100T26 169V509Q26
546 35 578T65 634T116 671T190 685Q233 685 264 672T316 635T345 579T355 509V169Q355 132 346 100T316 44T265 7T190 -7Z" />
<glyph unicode="&#x14d;" glyph-name="omacron" horiz-adv-x="355" d="M344 658H524V605H344V658ZM330 156Q330 82 292 38T178 -7Q101 -7 63 37T25 156V411Q25 486 63 530T178 574Q254 574 292 530T330 411V156ZM178 63Q212 63 229 84T246 143V424Q246 461 229
482T178 504Q143 504 126 483T109 424V143Q109 106 126 85T178 63Z" />
<glyph unicode="&#x14e;" glyph-name="Obreve" horiz-adv-x="381" d="M190 66Q231 66 249 92T267 156V522Q267 560 249 586T190 612Q150 612 132 586T114 522V156Q114 118 132 92T190 66ZM190 -7Q147 -7 116 6T65 44T36 100T26 169V509Q26 546 35 578T65 634T116
671T190 685Q233 685 264 672T316 635T345 579T355 509V169Q355 132 346 100T316 44T265 7T190 -7ZM537 792Q535 752 511 729T448 705Q409 705 384 728T357 792H411Q414 760 448 760Q481 760 484 792H537Z" />
<glyph unicode="&#x14f;" glyph-name="obreve" horiz-adv-x="355" d="M330 156Q330 82 292 38T178 -7Q101 -7 63 37T25 156V411Q25 486 63 530T178 574Q254 574 292 530T330 411V156ZM178 63Q212 63 229 84T246 143V424Q246 461 229 482T178 504Q143 504 126 483T109
424V143Q109 106 126 85T178 63ZM525 681Q523 641 499 618T436 594Q397 594 372 617T345 681H399Q402 649 436 649Q469 649 472 681H525Z" />
<glyph unicode="&#x150;" glyph-name="Ohungarumlaut" horiz-adv-x="381" d="M467 804L424 703H372L396 804H467ZM563 804L520 703H469L493 804H563ZM190 66Q231 66 249 92T267 156V522Q267 560 249 586T190 612Q150 612 132 586T114 522V156Q114 118 132 92T190
66ZM190 -7Q147 -7 116 6T65 44T36 100T26 169V509Q26 546 35 578T65 634T116 671T190 685Q233 685 264 672T316 635T345 579T355 509V169Q355 132 346 100T316 44T265 7T190 -7Z" />
<glyph unicode="&#x151;" glyph-name="ohungarumlaut" horiz-adv-x="355" d="M453 696L410 595H358L382 696H453ZM549 696L506 595H455L479 696H549ZM330 156Q330 82 292 38T178 -7Q101 -7 63 37T25 156V411Q25 486 63 530T178 574Q254 574 292 530T330 411V156ZM178
63Q212 63 229 84T246 143V424Q246 461 229 482T178 504Q143 504 126 483T109 424V143Q109 106 126 85T178 63Z" />
<glyph unicode="&#x152;" glyph-name="OE" horiz-adv-x="551" d="M177 -7Q139 -7 111 6T64 44T36 100T26 169V509Q26 546 35 578T64 634T112 671T181 685Q250 685 279 632V678H529V606H355V380H480V309H355V72H529V0H279V47Q265 23 239 8T177 -7ZM190 66Q231 66
249 92T268 156V522Q268 560 250 586T190 612Q150 612 132 586T114 522V156Q114 118 132 92T190 66Z" />
<glyph unicode="&#x153;" glyph-name="oe" horiz-adv-x="572" d="M175 -7Q100 -7 63 37T25 156V411Q25 486 62 530T175 574Q252 574 289 516Q323 574 401 574Q476 574 511 533T547 417V278H330V143Q330 106 348 85T401 63Q435 63 451 83T467 141V211H547V149Q547
75 512 34T402 -7Q324 -7 289 51Q252 -7 175 -7ZM178 63Q212 63 229 84T246 143V424Q246 461 229 482T178 504Q143 504 126 483T109 424V143Q109 106 126 85T178 63ZM330 341H465V424Q465 462 449 483T399 504Q364 504 347 483T330 424V341Z" />
<glyph unicode="&#x154;" glyph-name="Racute" horiz-adv-x="350" d="M517 734L348 701V753L517 797V734ZM115 326V0H27V678H178Q258 678 292 641T326 537V444Q326 385 300 352T213 311L346 0H252L115 326ZM115 606V370H168Q238 370 238 437V540Q238 606 168 606H115Z" />
<glyph unicode="&#x155;" glyph-name="racute" horiz-adv-x="219" d="M473 626L304 593V645L473 689V626ZM205 473H184Q115 473 112 407V0H27V567H112V503H114Q118 515 125 526T143 548T169 564T205 571V473Z" />
<glyph unicode="&#x156;" glyph-name="Rcommaaccent" horiz-adv-x="350" d="M216 -28L189 -90H134L142 -21H216V-28ZM115 326V0H27V678H178Q258 678 292 641T326 537V444Q326 385 300 352T213 311L346 0H252L115 326ZM115 606V370H168Q238 370 238 437V540Q238
606 168 606H115Z" />
<glyph unicode="&#x157;" glyph-name="rcommaaccent" horiz-adv-x="219" d="M359 -28L332 -90H277L285 -21H359V-28ZM205 473H184Q115 473 112 407V0H27V567H112V503H114Q118 515 125 526T143 548T169 564T205 571V473Z" />
<glyph unicode="&#x158;" glyph-name="Rcaron" horiz-adv-x="350" d="M519 803V757L446 701H408L335 757V803L426 764L519 803ZM115 326V0H27V678H178Q258 678 292 641T326 537V444Q326 385 300 352T213 311L346 0H252L115 326ZM115 606V370H168Q238 370 238 437V540Q238
606 168 606H115Z" />
<glyph unicode="&#x159;" glyph-name="rcaron" horiz-adv-x="219" d="M475 695V649L402 593H364L291 649V695L382 656L475 695ZM205 473H184Q115 473 112 407V0H27V567H112V503H114Q118 515 125 526T143 548T169 564T205 571V473Z" />
<glyph unicode="&#x15a;" glyph-name="Sacute" horiz-adv-x="351" d="M521 734L352 701V753L521 797V734ZM174 -7Q93 -7 57 34T20 140V237H103V138Q103 103 120 84T175 64Q210 64 226 85T243 138V169Q243 203 230 226T184 279L116 346Q92 370 75 389T45 429T28
471T22 521V545Q22 607 59 646T172 685Q251 685 286 648T322 541V477H241V544Q241 614 173 614Q142 614 124 597T105 546V527Q105 495 122 472T168 421L239 351Q262 328 279 309T307 269T324 228T330 178V143Q330 111 321 84T293 36T244 5T174 -7Z" />
<glyph unicode="&#x15b;" glyph-name="sacute" horiz-adv-x="330" d="M512 626L343 593V645L512 689V626ZM308 136Q308 70 274 32T164 -7Q92 -7 57 32T21 140V198H99V136Q99 63 163 63Q198 63 213 80T228 130V147Q228 172 214 192T161 242L112 281Q90 298 74 314T47
347T31 384T25 428V443Q25 501 59 537T165 574Q240 574 271 537T303 431V396H227V435Q227 504 165 504Q133 504 119 488T105 445V433Q105 409 117 392T163 350L211 312Q238 290 257 273T287 239T303 202T308 155V136Z" />
<glyph unicode="&#x15c;" glyph-name="Scircumflex" horiz-adv-x="351" d="M339 701V747L412 803H450L523 747V701L432 740L339 701ZM174 -7Q93 -7 57 34T20 140V237H103V138Q103 103 120 84T175 64Q210 64 226 85T243 138V169Q243 203 230 226T184 279L116 346Q92
370 75 389T45 429T28 471T22 521V545Q22 607 59 646T172 685Q251 685 286 648T322 541V477H241V544Q241 614 173 614Q142 614 124 597T105 546V527Q105 495 122 472T168 421L239 351Q262 328 279 309T307 269T324 228T330 178V143Q330 111 321 84T293 36T244 5T174
-7Z" />
<glyph unicode="&#x15d;" glyph-name="scircumflex" horiz-adv-x="330" d="M330 593V639L403 695H441L514 639V593L423 632L330 593ZM308 136Q308 70 274 32T164 -7Q92 -7 57 32T21 140V198H99V136Q99 63 163 63Q198 63 213 80T228 130V147Q228 172 214 192T161
242L112 281Q90 298 74 314T47 347T31 384T25 428V443Q25 501 59 537T165 574Q240 574 271 537T303 431V396H227V435Q227 504 165 504Q133 504 119 488T105 445V433Q105 409 117 392T163 350L211 312Q238 290 257 273T287 239T303 202T308 155V136Z" />
<glyph unicode="&#x15e;" glyph-name="Scedilla" horiz-adv-x="351" d="M131 -70Q156 -69 164 -65T172 -54Q172 -43 153 -43H146V-5Q80 2 50 41T20 140V237H103V138Q103 103 120 84T175 64Q210 64 226 85T243 138V169Q243 203 230 226T184 279L116 346Q92 370
75 389T45 429T28 471T22 521V545Q22 607 59 646T172 685Q251 685 286 648T322 541V477H241V544Q241 614 173 614Q142 614 124 597T105 546V527Q105 495 122 472T168 421L239 351Q262 328 279 309T307 269T324 228T330 178V143Q330 80 295 38T182 -7V-19Q226 -22
226 -54Q226 -76 204 -87T131 -98V-70Z" />
<glyph unicode="&#x15f;" glyph-name="scedilla" horiz-adv-x="330" d="M121 -70Q146 -69 154 -65T163 -54Q163 -43 144 -43H137V-5Q78 2 50 40T21 140V198H99V136Q99 63 163 63Q198 63 213 80T228 130V147Q228 172 214 192T161 242L112 281Q90 298 74 314T47
347T31 384T25 428V443Q25 501 59 537T165 574Q240 574 271 537T303 431V396H227V435Q227 504 165 504Q133 504 119 488T105 445V433Q105 409 117 392T163 350L211 312Q238 290 257 273T287 239T303 202T308 155V136Q308 72 276 34T173 -7V-19Q217 -22 217 -54Q217
-76 195 -87T121 -98V-70Z" />
<glyph unicode="&#x160;" glyph-name="Scaron" horiz-adv-x="351" d="M523 803V757L450 701H412L339 757V803L430 764L523 803ZM174 -7Q93 -7 57 34T20 140V237H103V138Q103 103 120 84T175 64Q210 64 226 85T243 138V169Q243 203 230 226T184 279L116 346Q92
370 75 389T45 429T28 471T22 521V545Q22 607 59 646T172 685Q251 685 286 648T322 541V477H241V544Q241 614 173 614Q142 614 124 597T105 546V527Q105 495 122 472T168 421L239 351Q262 328 279 309T307 269T324 228T330 178V143Q330 111 321 84T293 36T244 5T174
-7Z" />
<glyph unicode="&#x161;" glyph-name="scaron" horiz-adv-x="330" d="M514 695V649L441 593H403L330 649V695L421 656L514 695ZM308 136Q308 70 274 32T164 -7Q92 -7 57 32T21 140V198H99V136Q99 63 163 63Q198 63 213 80T228 130V147Q228 172 214 192T161 242L112
281Q90 298 74 314T47 347T31 384T25 428V443Q25 501 59 537T165 574Q240 574 271 537T303 431V396H227V435Q227 504 165 504Q133 504 119 488T105 445V433Q105 409 117 392T163 350L211 312Q238 290 257 273T287 239T303 202T308 155V136Z" />
<glyph unicode="&#x162;" glyph-name="Tcommaaccent" horiz-adv-x="317" d="M451 -28L424 -90H369L377 -21H451V-28ZM12 678H304V606H203V0H114V606H12V678Z" />
<glyph unicode="&#x163;" glyph-name="tcommaaccent" horiz-adv-x="229" d="M423 -28L396 -90H341L349 -21H423V-28ZM12 567H54V678H139V567H212V502H139V107Q139 86 147 77T179 68H212V0H170Q105 0 80 25T54 111V502H12V567Z" />
<glyph unicode="&#x164;" glyph-name="Tcaron" horiz-adv-x="317" d="M506 803V757L433 701H395L322 757V803L413 764L506 803ZM12 678H304V606H203V0H114V606H12V678Z" />
<glyph unicode="&#x165;" glyph-name="tcaron" horiz-adv-x="229" d="M486 671L466 586H423V678H486V671ZM12 567H54V678H139V567H212V502H139V107Q139 86 147 77T179 68H212V0H170Q105 0 80 25T54 111V502H12V567Z" />
<glyph unicode="&#x166;" glyph-name="Tbar" horiz-adv-x="317" d="M12 678H304V606H203V449H274V396H203V0H114V396H44V449H114V606H12V678Z" />
<glyph unicode="&#x167;" glyph-name="tbar" horiz-adv-x="229" d="M139 678V567H212V502H139V432H212V391H139V107Q139 86 147 77T179 68H212V0H170Q105 0 80 25T54 111V391H12V432H54V502H12V567H54V678H139Z" />
<glyph unicode="&#x168;" glyph-name="Utilde" horiz-adv-x="367" d="M341 678V160Q341 85 306 39T187 -7Q101 -7 64 39T26 160V678H114V152Q114 114 130 90T187 66Q227 66 243 90T259 152V678H341ZM475 711Q453 711 436 721T406 731Q389 731 389 711H343Q344
743 358 765T406 787Q429 787 445 777T475 767Q491 767 493 787H539Q537 755 523 733T475 711Z" />
<glyph unicode="&#x169;" glyph-name="utilde" d="M110 135Q110 100 123 82T171 63Q234 63 237 128V567H322V0H237V57H236Q224 31 201 12T134 -7Q80 -7 53 26T25 132V567H110V135ZM465 600Q443 600 426 610T396 620Q379 620 379 600H333Q334 632 348 654T396 676Q419
676 435 666T465 656Q481 656 483 676H529Q527 644 513 622T465 600Z" />
<glyph unicode="&#x16a;" glyph-name="Umacron" horiz-adv-x="367" d="M341 678V160Q341 85 306 39T187 -7Q101 -7 64 39T26 160V678H114V152Q114 114 130 90T187 66Q227 66 243 90T259 152V678H341ZM352 766H532V713H352V766Z" />
<glyph unicode="&#x16b;" glyph-name="umacron" d="M110 135Q110 100 123 82T171 63Q234 63 237 128V567H322V0H237V57H236Q224 31 201 12T134 -7Q80 -7 53 26T25 132V567H110V135ZM340 658H520V605H340V658Z" />
<glyph unicode="&#x16c;" glyph-name="Ubreve" horiz-adv-x="367" d="M341 678V160Q341 85 306 39T187 -7Q101 -7 64 39T26 160V678H114V152Q114 114 130 90T187 66Q227 66 243 90T259 152V678H341ZM532 789Q530 749 506 726T443 702Q404 702 379 725T352 789H406Q409
757 443 757Q476 757 479 789H532Z" />
<glyph unicode="&#x16d;" glyph-name="ubreve" d="M110 135Q110 100 123 82T171 63Q234 63 237 128V567H322V0H237V57H236Q224 31 201 12T134 -7Q80 -7 53 26T25 132V567H110V135ZM520 681Q518 641 494 618T431 594Q392 594 367 617T340 681H394Q397 649 431 649Q464
649 467 681H520Z" />
<glyph unicode="&#x16e;" glyph-name="Uring" horiz-adv-x="367" d="M370 747Q370 776 390 796T441 816Q472 816 491 796T511 747Q511 718 492 698T441 678Q410 678 390 698T370 747ZM410 747Q410 733 418 724T441 714Q455 714 463 723T472 747Q472 761 464 771T441
781Q427 781 419 771T410 747ZM341 678V160Q341 85 306 39T187 -7Q101 -7 64 39T26 160V678H114V152Q114 114 130 90T187 66Q227 66 243 90T259 152V678H341Z" />
<glyph unicode="&#x16f;" glyph-name="uring" d="M359 660Q359 689 379 709T430 729Q461 729 480 709T500 660Q500 631 481 611T430 591Q399 591 379 611T359 660ZM399 660Q399 646 407 637T430 627Q444 627 452 636T461 660Q461 674 453 684T430 694Q416 694
408 684T399 660ZM110 135Q110 100 123 82T171 63Q234 63 237 128V567H322V0H237V57H236Q224 31 201 12T134 -7Q80 -7 53 26T25 132V567H110V135Z" />
<glyph unicode="&#x170;" glyph-name="Uhungarumlaut" horiz-adv-x="367" d="M341 678V160Q341 85 306 39T187 -7Q101 -7 64 39T26 160V678H114V152Q114 114 130 90T187 66Q227 66 243 90T259 152V678H341ZM461 804L418 703H366L390 804H461ZM557 804L514 703H463L487
804H557Z" />
<glyph unicode="&#x171;" glyph-name="uhungarumlaut" d="M110 135Q110 100 123 82T171 63Q234 63 237 128V567H322V0H237V57H236Q224 31 201 12T134 -7Q80 -7 53 26T25 132V567H110V135ZM449 696L406 595H354L378 696H449ZM545 696L502 595H451L475 696H545Z" />
<glyph unicode="&#x172;" glyph-name="Uogonek" horiz-adv-x="367" d="M341 678V160Q341 109 325 71T271 11Q255 2 238 -6T220 -29Q220 -39 234 -39H241V-90H212Q147 -90 147 -49Q147 -34 157 -24T179 -7H177Q136 -6 108 7T61 42T35 94T26 160V678H114V152Q114
114 130 90T187 66Q227 66 243 90T259 152V678H341Z" />
<glyph unicode="&#x173;" glyph-name="uogonek" d="M322 0Q314 -7 308 -14T301 -29Q301 -39 315 -39H322V-90H293Q228 -90 228 -49Q228 -38 234 -30T247 -15T262 -5Q267 -1 269 0H237V57H236Q224 31 201 12T134 -7Q80 -7 53 26T25 132V567H110V135Q110 100 123
82T171 63Q234 63 237 128V567H322V0Z" />
<glyph unicode="&#x174;" glyph-name="Wcircumflex" horiz-adv-x="525" d="M170 704V750L243 806H281L354 750V704L263 743L170 704ZM262 468L188 0H102L10 678H96L157 195H158L229 678H303L376 196H377L439 678H514L424 0H338L263 468H262Z" />
<glyph unicode="&#x175;" glyph-name="wcircumflex" horiz-adv-x="478" d="M147 593V639L220 695H258L331 639V593L240 632L147 593ZM472 567L384 0H306L241 389L171 0H94L5 567H90L141 181H142L211 567H276L344 181H345L396 567H472Z" />
<glyph unicode="&#x176;" glyph-name="Ycircumflex" horiz-adv-x="356" d="M222 258V0H134V258L7 678H98L181 383H182L264 678H349L222 258ZM343 704V750L416 806H454L527 750V704L436 743L343 704Z" />
<glyph unicode="&#x177;" glyph-name="ycircumflex" horiz-adv-x="322" d="M319 567L196 1Q191 -25 182 -42T159 -70T125 -85T76 -90H43V-22H75Q98 -22 107 -13T123 20L131 53H111L2 567H90L160 185H161L241 567H319ZM326 593V639L399 695H437L510 639V593L419
632L326 593Z" />
<glyph unicode="&#x178;" glyph-name="Ydieresis" horiz-adv-x="356" d="M222 258V0H134V258L7 678H98L181 383H182L264 678H349L222 258ZM341 776H417V706H341V776ZM448 776H525V706H448V776Z" />
<glyph unicode="&#x179;" glyph-name="Zacute" horiz-adv-x="324" d="M518 734L349 701V753L518 797V734ZM109 72H297V0H17V72L211 606H36V678H304V606L109 72Z" />
<glyph unicode="&#x17a;" glyph-name="zacute" horiz-adv-x="295" d="M501 626L332 593V645L501 689V626ZM106 68H271V0H19V68L188 499H30V567H274V499L106 68Z" />
<glyph unicode="&#x17b;" glyph-name="Zdotaccent" horiz-adv-x="324" d="M109 72H297V0H17V72L211 606H36V678H304V606L109 72ZM387 776H472V707H387V776Z" />
<glyph unicode="&#x17c;" glyph-name="zdotaccent" horiz-adv-x="295" d="M106 68H271V0H19V68L188 499H30V567H274V499L106 68ZM369 678H454V609H369V678Z" />
<glyph unicode="&#x17d;" glyph-name="Zcaron" horiz-adv-x="324" d="M520 803V757L447 701H409L336 757V803L427 764L520 803ZM109 72H297V0H17V72L211 606H36V678H304V606L109 72Z" />
<glyph unicode="&#x17e;" glyph-name="zcaron" horiz-adv-x="295" d="M502 695V649L429 593H391L318 649V695L409 656L502 695ZM106 68H271V0H19V68L188 499H30V567H274V499L106 68Z" />
<glyph unicode="&#x192;" glyph-name="florin" horiz-adv-x="246" d="M12 433H70L78 588Q80 635 103 656T184 678H229V612H195Q176 612 170 604T163 578L155 433H229V367H152L128 -90H44L67 367H12V433Z" />
<glyph unicode="&#x218;" glyph-name="Scommaaccent" horiz-adv-x="351" d="M215 -28L188 -90H133L141 -21H215V-28ZM174 -7Q93 -7 57 34T20 140V237H103V138Q103 103 120 84T175 64Q210 64 226 85T243 138V169Q243 203 230 226T184 279L116 346Q92 370 75 389T45
429T28 471T22 521V545Q22 607 59 646T172 685Q251 685 286 648T322 541V477H241V544Q241 614 173 614Q142 614 124 597T105 546V527Q105 495 122 472T168 421L239 351Q262 328 279 309T307 269T324 228T330 178V143Q330 111 321 84T293 36T244 5T174 -7Z" />
<glyph unicode="&#x219;" glyph-name="scommaaccent" horiz-adv-x="330" d="M462 -28L435 -90H380L388 -21H462V-28ZM308 136Q308 70 274 32T164 -7Q92 -7 57 32T21 140V198H99V136Q99 63 163 63Q198 63 213 80T228 130V147Q228 172 214 192T161 242L112 281Q90
298 74 314T47 347T31 384T25 428V443Q25 501 59 537T165 574Q240 574 271 537T303 431V396H227V435Q227 504 165 504Q133 504 119 488T105 445V433Q105 409 117 392T163 350L211 312Q238 290 257 273T287 239T303 202T308 155V136Z" />
<glyph unicode="&#x21a;" glyph-name="uni021A" horiz-adv-x="317" d="M451 -28L424 -90H369L377 -21H451V-28ZM12 678H304V606H203V0H114V606H12V678Z" />
<glyph unicode="&#x21b;" glyph-name="uni021B" horiz-adv-x="229" d="M423 -28L396 -90H341L349 -21H423V-28ZM12 567H54V678H139V567H212V502H139V107Q139 86 147 77T179 68H212V0H170Q105 0 80 25T54 111V502H12V567Z" />
<glyph unicode="&#x237;" glyph-name="uni0237" horiz-adv-x="138" d="M112 567V-4Q112 -52 88 -71T4 -90H-8V-29H-1Q15 -29 21 -23T27 -3V567H112Z" />
<glyph unicode="&#x2c6;" glyph-name="circumflex" horiz-adv-x="400" d="M108 593V639L181 695H219L292 639V593L201 632L108 593Z" />
<glyph unicode="&#x2c7;" glyph-name="caron" horiz-adv-x="400" d="M292 695V649L219 593H181L108 649V695L199 656L292 695Z" />
<glyph unicode="&#x2d8;" glyph-name="breve" horiz-adv-x="400" d="M290 681Q288 641 264 618T201 594Q162 594 137 617T110 681H164Q167 649 201 649Q234 649 237 681H290Z" />
<glyph unicode="&#x2d9;" glyph-name="dotaccent" horiz-adv-x="400" d="M158 678H243V609H158V678Z" />
<glyph unicode="&#x2da;" glyph-name="ring" horiz-adv-x="400" d="M128 660Q128 689 148 709T199 729Q230 729 249 709T269 660Q269 631 250 611T199 591Q168 591 148 611T128 660ZM168 660Q168 646 176 637T199 627Q213 627 221 636T230 660Q230 674 222 684T199
694Q185 694 177 684T168 660Z" />
<glyph unicode="&#x2db;" glyph-name="ogonek" horiz-adv-x="400" d="M235 0Q227 -7 221 -14T214 -29Q214 -39 228 -39H235V-90H206Q141 -90 141 -49Q141 -38 147 -30T160 -15T175 -5T184 0H235Z" />
<glyph unicode="&#x2dc;" glyph-name="tilde" horiz-adv-x="400" d="M234 600Q212 600 195 610T165 620Q148 620 148 600H102Q103 632 117 654T165 676Q188 676 204 666T234 656Q250 656 252 676H298Q296 644 282 622T234 600Z" />
<glyph unicode="&#x2dd;" glyph-name="hungarumlaut" horiz-adv-x="400" d="M234 696L191 595H139L163 696H234ZM330 696L287 595H236L260 696H330Z" />
</font>
</defs>
</svg>
